<?xml version="1.0" encoding="utf-8"?>
<!-- Generator: Adobe Illustrator 24.0.2, SVG Export Plug-In . SVG Version: 6.00 Build 0)  -->
<svg version="1.1" id="Layer_1" xmlns="http://www.w3.org/2000/svg" xmlns:xlink="http://www.w3.org/1999/xlink" x="0px" y="0px"
	 viewBox="0 0 500 750" style="enable-background:new 0 0 500 750;" xml:space="preserve">
<style type="text/css">
	.st0{fill:#F6BDD3;}
	.st1{clip-path:url(#SVGID_2_);}
	.st2{opacity:0.68;fill:#B3E3E8;enable-background:new    ;}
	.st3{opacity:0.81;fill:#FFFFFF;enable-background:new    ;}
	.st4{opacity:0.68;fill:#FCE5C2;enable-background:new    ;}
	.st5{opacity:0.67;fill:#FCE5C2;enable-background:new    ;}
	.st6{fill:#FFFFFF;}
	.st7{opacity:0.47;fill:#F6BDD3;enable-background:new    ;}
	.st8{fill:#FCE5C2;}
	.st9{fill:#F5A86D;}
	.st10{fill:#8CCED8;}
	.st11{fill:#A38D88;}
	.st12{opacity:0.1;fill:#292A2D;enable-background:new    ;}
	.st13{fill:#8C99AA;}
	.st14{fill:#9BA7B9;}
	.st15{fill:#AEBACD;}
	.st16{fill:#1B1821;}
	.st17{fill:#F7D5A1;}
	.st18{clip-path:url(#SVGID_4_);}
	.st19{fill:#BD8560;}
	.st20{opacity:0.5;fill:#BD8560;enable-background:new    ;}
	.st21{fill:#F8BB84;}
	.st22{fill:#99C7C9;}
	.st23{fill:#B3E3E8;}
	.st24{fill:#FFEFCC;}
	.st25{clip-path:url(#SVGID_6_);}
	.st26{fill:#EDF4F4;}
	.st27{clip-path:url(#SVGID_8_);}
	.st28{fill:#E2BE8F;}
</style>
<title>background</title>
<g id="Background">
	<rect y="357.8" class="st0" width="500" height="392.3"/>
</g>
<g id="Objects">
	<g>
		<defs>
			<rect id="SVGID_1_" width="500" height="357.8"/>
		</defs>
		<clipPath id="SVGID_2_">
			<use xlink:href="#SVGID_1_"  style="overflow:visible;"/>
		</clipPath>
		<g class="st1">
			<g>
				<path class="st2" d="M136.1,144.6c-20-25.4-56.5-18.9-66.3,11.7c-7.4,23.1,2.9,52.3,28.8,57.2c1.6,0.3,3.1,0.5,4.7,0.5l-2.8,6.4
					h11L109,214c1.6-0.1,3.2-0.4,4.8-0.7C144.6,206.9,154.7,168.3,136.1,144.6z"/>
				<circle class="st3" cx="124" cy="152.2" r="7"/>
				<path class="st4" d="M239.8,136.8c-1.6-22.5,14.3-45.8,38.8-45.2c18.2,0.4,32.4,15.6,35,32.9c1.8,11.7,0.1,25.4-6,35.6
					c-18.1,30-57.7,14.8-66.2-14.4C240.5,142.7,240,139.8,239.8,136.8z"/>
				<circle class="st3" cx="290" cy="116.2" r="7"/>
				<path class="st4" d="M461.1,116.4c-3.2-22.4,11.1-46.6,35.5-47.9c18.2-0.9,33.4,13.2,37.3,30.3c2.6,11.5,2,25.3-3.5,36
					c-15.9,31.2-56.5,18.8-67.1-9.7C462.2,122.3,461.5,119.4,461.1,116.4z"/>
				<path class="st5" d="M80.1,95c-2.7-17.4-16.8-32.6-35-33C20.6,61.5,4.7,84.7,6.3,107.2c0.2,3,0.7,6,1.6,8.9
					c4.6,15.7,18.2,27.4,32.6,30.1l-3.5,7.9l11.5,0.5l-2.6-7.8c10.6,0.3,21.1-4.5,28.2-16.3C80.3,120.4,81.9,106.6,80.1,95z"/>
				<circle class="st6" cx="59.2" cy="89.9" r="8.2"/>
				<path class="st7" d="M431.1,81.7c-20.1-25.5-56.5-18.9-66.3,11.7c-7.4,23.1,2.9,52.3,28.8,57.2c1.3,0.2,2.7,0.4,4,0.5l-2,6.1
					H406l-1.8-6.2c1.5-0.1,3.1-0.4,4.6-0.7C439.6,143.9,449.7,105.3,431.1,81.7z"/>
				<circle class="st3" cx="416" cy="93.2" r="8.2"/>
				<path class="st7" d="M30.1,172.6c-20-25.4-56.5-18.9-66.3,11.7c-7.4,23.1,2.9,52.3,28.8,57.2c1.3,0.2,2.7,0.4,4,0.5l-2,6.1H5
					L3.2,242c1.5-0.1,3.1-0.4,4.6-0.7C38.6,234.9,48.7,196.3,30.1,172.6z"/>
				<circle class="st3" cx="15" cy="184.2" r="8.2"/>
				<path class="st2" d="M463.2,190.3c-6.1-9.8-16.6-16.1-28.2-16.8c-16.2-0.9-32.1,10.6-37.6,25.1c-4.5,11.8-2.7,22.3,2.7,30.3
					c6.5,9.7,18.3,15.8,30.5,16.1l-3.5,6.7h10.5l-3-6.8c10.1-0.8,19.4-5.9,25.5-14C468.8,219.5,471,203.2,463.2,190.3z"/>
				<path class="st3" d="M459,202.1c0,3.9-3.1,7-7,7s-7-3.1-7-7s3.1-7,7-7S459,198.3,459,202.1z"/>
				<polygon class="st8" points="303,83.1 312.3,74.3 312,87.2 				"/>
				<polygon class="st8" points="476.5,266.5 475,256.2 484.3,259.9 				"/>
				<polygon class="st8" points="345.4,90.3 351,98.2 355.7,90.9 351.9,82.8 				"/>
				<polygon class="st8" points="189,11.2 194.6,19 199.3,11.8 195.5,3.6 				"/>
				<polygon class="st8" points="439,298.2 444.6,306 449.3,298.8 445.5,290.6 				"/>
				<polygon class="st8" points="75,325.2 80.6,333 85.3,325.8 81.5,317.6 				"/>
				<polygon class="st8" points="18,267.2 23.6,275 28.3,267.8 24.5,259.6 				"/>
				<polygon class="st8" points="330,145.2 335.6,153 340.3,145.8 336.5,137.6 				"/>
				<polygon class="st8" points="397,314.2 402.6,322 407.3,314.8 403.5,306.6 				"/>
				<polygon class="st8" points="142,104.2 147.6,112 152.3,104.8 148.5,96.6 				"/>
				<polygon class="st8" points="57,202.2 62.6,210 67.3,202.8 63.5,194.6 				"/>
				<polygon class="st8" points="484,67.2 489.6,75 494.3,67.8 490.5,59.6 				"/>
				<polygon class="st8" points="437.5,191.7 447,190.7 443.1,183.1 434.1,182.3 				"/>
				<polygon class="st8" points="19.3,215.6 28.9,214.6 24.9,207 16,206.2 				"/>
				<polygon class="st8" points="94.4,174.7 104,173.7 100.1,166.1 91.1,165.3 				"/>
				<polygon class="st8" points="385,91.2 394.6,90.2 390.6,82.6 381.7,81.8 				"/>
				<polygon class="st8" points="463.4,52.3 464,44.2 469.9,49.8 				"/>
				<polygon class="st8" points="481,128 491.3,119.8 491.3,134 				"/>
				<polygon class="st8" points="376,240.2 373.5,228.9 384.1,234.8 				"/>
				<polygon class="st8" points="418,161.2 424.2,167.4 426.4,156.1 				"/>
				<polygon class="st0" points="482,129.2 483.9,121.9 488.5,128.9 				"/>
				<polygon class="st0" points="235,95.2 238.1,82.3 244.3,93.3 				"/>
				<polygon class="st0" points="24,42.2 27.1,29.3 33.3,40.3 				"/>
				<polygon class="st0" points="129,321.2 132.1,308.3 138.3,319.3 				"/>
				<polygon class="st0" points="31,113.2 34.1,100.3 40.3,111.3 				"/>
				<polygon class="st0" points="81,217.2 84.1,204.3 90.3,215.3 				"/>
				<polygon class="st0" points="473,179.3 473.6,166.8 483.6,174.3 				"/>
				<path class="st0" d="M407,134.2c0-0.9-0.3-10.7-0.3-10.7l9-0.6l1.5,8.5L407,134.2z"/>
				<polygon class="st0" points="477.3,40.6 476.7,30.8 486,36.2 				"/>
				<polygon class="st9" points="327.8,109.2 330.5,99.7 338,109.2 				"/>
				<polygon class="st9" points="301,5.2 300.7,16.5 313.4,13.6 310.3,3.9 				"/>
				<polyline class="st9" points="462.8,102.4 473.1,93.3 473.4,107.4 				"/>
				<polygon class="st9" points="34.1,308.3 23.9,317.4 34.4,322.4 				"/>
				<polygon class="st10" points="382.9,155.1 377.9,164.5 389.1,164.5 				"/>
				<polygon class="st10" points="473.9,336 468.9,345.5 480.1,345.5 				"/>
				<polygon class="st10" points="381.6,182.6 393.4,175.7 393.1,186.4 				"/>
				<polygon class="st10" points="464,20.2 475.8,13.3 475.5,23.9 				"/>
				<polygon class="st10" points="222,14.2 233.8,7.3 233.5,17.9 				"/>
				<polygon class="st10" points="83.2,251.1 95,244.2 94.7,254.9 				"/>
				<polygon class="st10" points="441.2,269.1 453,262.2 452.7,272.9 				"/>
				<polygon class="st10" points="387.5,286.8 387.8,274.2 397.4,283.6 				"/>
				<polygon class="st10" points="134.3,77.7 138,70.2 142.7,79.6 				"/>
				<polygon class="st10" points="124.2,56.1 110.3,42.6 93.4,52 98.9,11 129.7,15.1 				"/>
				<polygon class="st9" points="406.3,52.4 389.1,43.5 375.6,57.1 369.4,16.3 400.1,11.6 				"/>
				<polygon class="st8" points="171.6,60.2 156.8,47.6 140.6,57.9 143.6,16.7 174.6,19 				"/>
				<polygon class="st0" points="453.2,44.2 435.6,36 422.8,50.3 414.5,9.9 445,3.7 				"/>
				<polygon class="st9" points="219.2,61.8 203.6,50.3 188.1,61.8 188.1,20.5 219.2,20.5 				"/>
				<polygon class="st0" points="234.2,21.9 234.2,62.1 235.6,62.1 249.6,51.7 265.3,63.2 265.3,21.9 				"/>
				<polygon class="st10" points="312.4,60.6 296.2,50 281.4,62.4 279.1,21.1 310.1,19.4 				"/>
				<polygon class="st0" points="77.2,50.9 63.8,36.8 46.6,45.5 53.9,4.8 84.5,10.2 				"/>
				<polygon class="st8" points="359.3,58.3 342.6,48.4 328.4,61.3 324.3,20.2 355.2,17.2 				"/>
				<path class="st11" d="M257.3,22.4c-29.6,0-59.6-1.1-89.8-3.4C86.8,12.9,32.2,0.7,31.7,0.6L32-1c0.5,0.1,55,12.3,135.6,18.3
					c46.4,3.5,93,4.3,139.5,2.3c56.6-2.5,110.6-9.5,160.7-20.6l0.4,1.6c-50.2,11.2-104.3,18.1-161,20.6
					C290.8,22,274.1,22.4,257.3,22.4z"/>
			</g>
		</g>
	</g>
	<path class="st12" d="M403.7,405.9c0,6-63,10.9-140.8,10.9s-140.8-4.9-140.8-10.9S185.2,395,263,395S403.7,399.9,403.7,405.9z"/>
	<path class="st13" d="M339.5,234.5c0,0,13.6-12.9,32.7,18.3c11.2,18.3,13.7,47.7-4.8,52S339.5,234.5,339.5,234.5z"/>
	<path class="st14" d="M304.4,400.3c14.2-0.7,11.7-55.5,13.2-69l-26-12.8C290.4,330.1,281.6,401.4,304.4,400.3z"/>
	<path class="st14" d="M386.8,377.6c-0.2-8.1-8.7-20-11-24.6c-4.7-9.2-9.5-18.4-14.6-27.4l-15.9,15.1c-0.6,0.5-1.1,1.2-1.4,1.9
		c-0.1,0.9,0,1.9,0.5,2.7c3.3,7.9,7.4,15.5,12.1,22.8c3.7,5.6,8,11.2,13.8,14.6c3.1,1.9,6.8,3.1,10.3,2.3
		C385.3,384.1,386.9,381.3,386.8,377.6z"/>
	<path class="st14" d="M344.4,236.8c13,7.5,20.2,23.1,25.7,36.5c6.7,16.3,8.8,35.8,0.9,52c-8.5,17.3-27.9,20.3-47.9,21.2
		c-48.8,2.1-52.5-105.2-12.5-117.5c13-4,16.2,0.6,28.9,5.4C341.2,235.1,342.8,235.9,344.4,236.8z"/>
	<path class="st15" d="M357.7,231.7c-18.7,12.5-61.9,12.6-73.7-10.6c-16.4-31.9,4.8-69.8,52.2-64.9
		C368.3,159.6,391.9,208.9,357.7,231.7z"/>
	<polygon class="st0" points="375.2,327.7 318.5,327.4 312.1,262.1 383.8,262.5 	"/>
	<polygon class="st8" points="356.6,327.9 343.6,327.8 343.6,259.1 356.7,259.2 	"/>
	<path class="st8" d="M347.3,263.7c-7.1-0.4-13.6-1.3-20.1-4.5c-3-1.5-9.1-5.6-9-9.4c0.1-7.4,9.8-4.4,14.5-3.9
		c-6.8-1.1-5.3-18,5.6-10.2c5.7,4.1,7.1,10.9,10.7,16c1.1-7.6,8.6-17.4,15.9-20.1c9.1-3.4,4.9,7.9,2.1,11.8c2.9-3.3,9-2.6,12.1-0.6
		c4.1,2.7,6.8,6.9,4.2,11.6c-5.5,10.1-25.9,9.8-35.4,9.4L347.3,263.7z"/>
	<path class="st15" d="M316.1,304.8c-8.5-5.2-15.5-14.6-19.7-23.4c-4.7-9.7-15.9-35.3-1.3-41.8c10.6-4.7,12.3,7.9,15,14.6
		c4.1,10.2,18.2,29.2,25.3,35.6c4,3.8,5.1,9.7,2.6,14.6C332.4,314.9,323.3,309.1,316.1,304.8z"/>
	<path class="st15" d="M308,162.4c0,0-35-24.2-41.3-13.3c-5.1,8.8,17.1,40.8,17.1,40.8L308,162.4z"/>
	<path class="st15" d="M334.2,164.7c0,0,25.9-35.8,35-31.1s0.1,53.1,0.1,53.1L334.2,164.7z"/>
	<path class="st9" d="M321.9,126.3c4-2.6,5.1-7.9,2.5-11.9s-7.9-5.1-11.9-2.5c-4,2.6-5.1,7.9-2.5,11.9c1,1.5,2.4,2.7,4.1,3.3
		l-8.8,37.3c0,0,15.6,5,33.4-5.1L321.9,126.3z"/>
	<path class="st16" d="M320.6,195.3c0.6,3.7-1.8,7.6-5.7,8s-7.1-2.9-7.3-6.6c0-1.2-1.9-1.3-1.9-0.1c0.2,4.8,4.3,9.1,9.3,8.6
		s8.2-5.6,7.4-10.3C322.2,193.8,320.4,194.1,320.6,195.3z"/>
	<path class="st16" d="M351.1,185.2c1.3,3.5-0.5,7.8-4.2,8.9s-7.5-1.6-8.3-5.2c-0.3-1.1-2.1-1-1.8,0.2c1,4.6,5.8,8.2,10.6,6.8
		s7.1-6.9,5.4-11.4C352.4,183.4,350.7,184.1,351.1,185.2z"/>
	<path class="st16" d="M345,214.2c-1,2.1-3.4,3-5.5,2c0,0,0,0-0.1,0c-1.1-0.5-1.9-1.3-2.5-2.3c-0.1-0.4-0.1-0.7-0.2-1.1
		c1.6-0.9,2.8-2.5,3.3-4.3c1-2.9,0.3-4.6-1.2-5.3c-3.8-1.7-14.4,0.6-11,6.8c1.6,2.9,4.8,3.4,6.9,3.3c0.1,0.4,0.3,0.7,0.5,1.1
		c0.1,1.2-0.1,2.3-0.7,3.3c-1.2,2-3.7,2.6-5.7,1.5c0,0-0.1,0-0.1-0.1c-1-0.7-2.1,0.7-1.2,1.4c2.6,1.7,6,1.2,8-1.2
		c0.6-0.8,1.1-1.7,1.3-2.7c0.7,0.7,1.6,1.2,2.6,1.5c3,0.9,6.1-0.7,7.3-3.5C347.2,213.6,345.5,213.1,345,214.2z"/>
	<path class="st0" d="M308.2,208.1c-5.2-4.6-15.9-0.1-12.7,7.5c1.6,3.6,5.7,5.3,9.4,4C309.6,217.7,312.4,211.8,308.2,208.1z"/>
	<path class="st0" d="M364.8,197.1c-5.2-4.6-15.9-0.1-12.7,7.5c1.6,3.6,5.7,5.3,9.4,4C366.1,206.8,369,200.8,364.8,197.1z"/>
	<path class="st13" d="M380.8,281.9c-1.6-2.5-4.3-2.9-8,1.1c-3.4,3.7-6.4,10.8-5.4,16c1.2,6.4,7.5,8.1,11.7,3.8
		S383.9,286.5,380.8,281.9z"/>
	<path class="st16" d="M378,186l-10,7.1c-0.5,0.4,0,1.3,0.6,0.9l10-7.1C379.1,186.5,378.6,185.6,378,186z"/>
	<path class="st16" d="M381.1,191.2l-10.7,5c-0.6,0.3-0.3,1.3,0.3,1l10.7-5C382.1,192,381.8,190.9,381.1,191.2z"/>
	<path class="st16" d="M285,213.7l-12.8,2.8c-0.7,0.1-0.4,1.2,0.3,1l12.8-2.8C286,214.5,285.7,213.5,285,213.7z"/>
	<path class="st16" d="M287.9,216.6c-4.5,2-8.6,4.7-12.4,7.9c-0.5,0.4,0.3,1.2,0.8,0.7c3.6-3.1,7.6-5.6,11.9-7.6
		C288.8,217.4,288.5,216.4,287.9,216.6z"/>
	<path class="st16" d="M335.8,307c-2.7-0.6-5.3-1.6-7.6-2.9c-0.6-0.4-1.1,0.6-0.5,0.9c2.5,1.4,5.1,2.4,7.9,3c0.3,0,0.5-0.2,0.5-0.5
		C336.1,307.3,335.9,307.1,335.8,307z"/>
	<path class="st16" d="M338.5,301.2c-2.5-0.1-4.9-1.1-6.7-2.7c-0.5-0.5-1.3,0.3-0.7,0.8c2.1,1.8,4.7,2.9,7.5,3
		C339.2,302.3,339.2,301.2,338.5,301.2z"/>
	<path class="st16" d="M379.6,288.3c-3.1,0.7-6.3-0.4-8.3-2.9c-0.4-0.5-1.3,0-0.9,0.6c2.3,2.8,6,4.1,9.5,3.3
		C380.6,289.1,380.2,288.1,379.6,288.3z"/>
	<path class="st16" d="M376.9,295.5c-3.2,0.5-6.5-0.5-9-2.5c-0.5-0.4-1.3,0.3-0.7,0.8c2.7,2.3,6.2,3.3,9.7,2.8
		C377.6,296.5,377.6,295.4,376.9,295.5z"/>
	<path class="st16" d="M378.8,373.3c-0.4-0.5-1.3,0-0.9,0.6c2.8,3.5,4,8,3.4,12.4c-0.1,0.7,1,0.9,1,0.2
		C383,381.8,381.7,377,378.8,373.3z"/>
	<path class="st16" d="M382.3,371.9c-0.2-0.2-0.5-0.3-0.7-0.2c-0.2,0.2-0.3,0.5-0.2,0.7c2.1,3.3,3.4,7.1,3.7,11.1
		c0,0.7,1.1,0.6,1.1,0C385.8,379.4,384.5,375.4,382.3,371.9z"/>
	<path class="st16" d="M301.6,390.4c-0.1-0.3-0.4-0.4-0.7-0.2c-0.2,0.1-0.3,0.3-0.3,0.6c1.1,3.7,1.5,7.5,1.1,11.3
		c-0.1,0.7,1,0.6,1.1,0C303.1,398.1,302.7,394.2,301.6,390.4z"/>
	<path class="st16" d="M306.1,391.3c-0.2-0.6-1.3-0.3-1,0.3c1.2,3.4,1.7,6.9,1.7,10.5c0,0.7,1,0.6,1.1,0
		C307.9,398.4,307.3,394.7,306.1,391.3z"/>
	<path class="st17" d="M148.9,302.3c-4.5,14.2-15.3,26.1-23.6,38.2c-3.9,5.8-18.8,19.7-12.3,27.9c4.6,5.7,17-0.6,21.5-3.9
		c9.7-6.9,40.5-44.2,29.9-45.4C161.9,318.8,148.2,304.4,148.9,302.3z"/>
	<path class="st16" d="M115.2,353.7c-3.3,5.2-5.3,10.6-2.1,14.6c3,3.8,9.6,2.3,15-0.2C123.9,363.2,119.6,358.3,115.2,353.7z"/>
	<path class="st17" d="M185.8,327.7c4.7,14.2,2.9,30.1,3.2,44.8c0.2,7-3.7,27,6.3,29.8c7,2,13.4-10.4,15.2-15.7
		c3.8-11.2,15.7-49.9-2.2-54.3C205.8,331.6,186.6,329.9,185.8,327.7z"/>
	<path class="st16" d="M188.6,389.1c0.3,6.1,1.9,11.7,6.8,13.1c4.7,1.3,9.1-3.8,12-8.9C201.2,391.7,194.9,390.3,188.6,389.1z"/>
	<path class="st16" d="M123.7,251.1c-9.3,2.2-19.3,5.8-14,12.6c4,5.2,10.7,7.3,17.7,7.7C126.4,264.6,125.2,257.8,123.7,251.1z"/>
	<path class="st17" d="M220,232.9c-2.4-7-5.1-13.8-7.9-20.6c-2.2-5.3-22-56.8-27.9-54l-30.9,14.8c-0.3,0-0.5-0.2-0.7-0.4
		c6.7,9.7,18.9,17.4,20.9,29.7c2.8,16.6-2.8,33.9-11.9,47.7c-9,13.8-20.7,25.6-21,43.2c-0.6,28.1,26.5,56.1,55.5,47.9
		c22.7-6.4,33.9-29.1,34.5-50.9C231.1,270.6,226.5,251.4,220,232.9z"/>
	<g>
		<defs>
			<path id="SVGID_3_" d="M230.6,290.4c0.5-19.7-4.1-39-10.6-57.5c-2.4-7-5.1-13.8-7.9-20.6c-2.2-5.3-22-56.8-27.9-54l-30.9,14.8
				c-0.3,0-0.5-0.2-0.7-0.4c6.7,9.7,18.9,17.4,20.9,29.7c2.8,16.6-2.8,33.9-11.9,47.7c-9,13.8-20.7,25.6-21,43.2
				c-0.1,6.6,1.2,13.2,3.8,19.3c-5.3,9.8-12.9,18.7-19,27.7c-2,2.9-6.8,8-10.2,13.2l0,0l0,0c-0.1,0.1-0.2,0.3-0.3,0.5l0,0
				c-0.1,0.1-0.2,0.3-0.3,0.5l0,0l-0.3,0.5v0l-0.3,0.4v0.1L114,356v0.1l-0.2,0.4c0,0,0,0.1,0,0.1l-0.2,0.4v0.1
				c-0.1,0.1-0.1,0.3-0.2,0.4l-0.1,0.1l-0.2,0.4l-0.1,0.1c0,0.1-0.1,0.3-0.2,0.4s0,0.1,0,0.1l-0.2,0.4c0,0,0,0.1,0,0.1
				c0,0.1-0.1,0.3-0.1,0.4c0,0,0,0.1,0,0.1l-0.1,0.4c0,0,0,0.1,0,0.1c0,0.1-0.1,0.2-0.1,0.4s0,0.1,0,0.1l-0.1,0.3v0.1
				c0,0.1,0,0.2-0.1,0.3v0.2l-0.1,0.3v0.2c0,0.1,0,0.2,0,0.3s0,0.1,0,0.2v0.3c0,0.1,0,0.1,0,0.2s0,0.2,0,0.3v0.6c0,0.1,0,0.2,0,0.3
				s0,0.1,0,0.2v0.3c0,0.1,0,0.1,0,0.2c0,0.1,0,0.2,0,0.3c0,0.1,0,0.1,0,0.2s0,0.2,0.1,0.2l0.1,0.2l0.1,0.2c0,0.1,0,0.1,0.1,0.2
				s0,0.1,0.1,0.2c0,0.1,0.1,0.1,0.1,0.2l0.1,0.2l0.1,0.2c0,0.1,0.1,0.1,0.1,0.2l0.1,0.2c0,0.1,0.1,0.1,0.1,0.2l0.2,0.3l0.1,0.1
				c0.1,0.1,0.2,0.3,0.3,0.4c0.1,0.2,0.3,0.3,0.4,0.5l0.1,0.1c0.1,0.1,0.3,0.3,0.4,0.4l0,0c0.2,0.1,0.3,0.2,0.5,0.3l0.1,0.1l0.5,0.3
				l0,0l0.5,0.2l0.2,0c0.2,0,0.3,0.1,0.5,0.1l0,0c0.2,0,0.4,0.1,0.6,0.1h0.2l0.6,0.1h0.1c0.2,0,0.4,0,0.6,0h0.9h0.6h0.2l0.5-0.1h0.2
				l0.6-0.1l0.3,0l0.4-0.1l0.4-0.1l0.4-0.1l0.3-0.1l0.4-0.1l0.6-0.2l0.3-0.1l0.4-0.1l0.2-0.1l0.8-0.3l-0.3,0l0.5-0.2h0.1l1.4-0.6
				l0,0c2.3-1,4.5-2.3,6.6-3.7c5.7-4.1,18.9-18.8,26.4-30.4c7.9,6,17.6,9.3,27.7,8.5c0.8,9.9,0.1,20.1,0.4,29.8
				c0.1,3.5-0.9,10.4-0.5,16.7l0,0c0,0.1,0,0.2,0,0.3s0,0.5,0.1,0.7s0,0.3,0,0.4s0,0.5,0.1,0.7s0,0.3,0.1,0.4l0.1,0.7
				c0,0.1,0,0.3,0.1,0.4s0.1,0.4,0.1,0.6l0.1,0.4c0,0.2,0.1,0.4,0.1,0.6l0.1,0.4c0.1,0.2,0.1,0.4,0.1,0.6s0.1,0.3,0.1,0.4
				s0.1,0.4,0.2,0.5l0.2,0.4c0.1,0.2,0.1,0.3,0.2,0.5c0.1,0.1,0.1,0.3,0.2,0.4c0.1,0.1,0.1,0.3,0.2,0.5s0.2,0.3,0.2,0.4
				s0.1,0.3,0.2,0.4s0.2,0.3,0.3,0.4s0.2,0.2,0.3,0.4l0.3,0.4c0.1,0.1,0.2,0.2,0.3,0.3c0.1,0.1,0.3,0.2,0.4,0.3
				c0.1,0.1,0.2,0.2,0.3,0.3c0.1,0.1,0.3,0.2,0.4,0.3l0.3,0.2c0.2,0.1,0.4,0.2,0.6,0.3l0.3,0.1c0.3,0.1,0.6,0.2,0.9,0.3
				c0.2,0,0.4,0.1,0.6,0.1h0.1c0.2,0,0.4,0,0.6,0.1l0,0c0.2,0,0.4,0,0.6,0h0.1l0.6-0.1l0,0c0.2,0,0.4-0.1,0.6-0.1h0.1l0.5-0.2l0,0
				c0.2-0.1,0.4-0.1,0.5-0.2l0.2-0.1l0.5-0.3h0.1l0.6-0.5l0.2-0.1l0.4-0.3l0.1-0.1c0.2-0.1,0.3-0.3,0.5-0.4l0.2-0.2l0.4-0.3l0.2-0.2
				l0.4-0.4l0.2-0.2l0.3-0.3l0.3-0.3l0.3-0.3l0.2-0.3l0.2-0.3l0.4-0.5l0.2-0.2l0.2-0.3c0-0.1,0.1-0.1,0.1-0.2
				c0.2-0.2,0.3-0.5,0.5-0.7c0,0,0.1-0.1,0.1-0.1l0.3-0.4l0.1-0.1c1.6-2.6,3-5.3,4-8.2c3.6-10.5,14.3-45.2,0.8-53.1
				C223.9,323.3,230.2,306.6,230.6,290.4z"/>
		</defs>
		<clipPath id="SVGID_4_">
			<use xlink:href="#SVGID_3_"  style="overflow:visible;"/>
		</clipPath>
		<g class="st18">
			<path class="st19" d="M199.7,166.5c-7.9,4.1-16.3,9.3-17.6,19.1c-0.7,5.4,1.6,10.2,6.8,12.4c9.2,3.9,21.6-1,26.5-9.6L199.7,166.5
				z"/>
			<path class="st19" d="M173.8,191.1c-0.4-4.9-6.3-14.9-12.4-13.7l-2,31.4C165.8,205.3,174.5,200.1,173.8,191.1z"/>
			<path class="st19" d="M204.6,213.7c-6.3-0.6-11.5,2.1-15.9,6.2c-3.6,3.3-2.2,9.5,0.7,13c2.3,2.7,10.6,9.6,14.3,6.1l17.1-22.5
				C215.3,216.3,210.1,214.1,204.6,213.7z"/>
			<path class="st19" d="M160.2,251.4c1.3-7.3,6.2-12.4,16.8-12.4c12.7,0,23.5,7.1,22.1,20.5c-1,9.6-9.7,21.5-20.3,21.9
				c-7.8,0.3-16.1-9.3-17.8-16.4C159.8,260.5,159.5,255.9,160.2,251.4z"/>
			<path class="st20" d="M184.5,317.4c-7.2-12.2,4.1-25,17.2-18.8C225.2,309.5,195.3,335.6,184.5,317.4z"/>
			<path class="st20" d="M142.9,285.7c3.1,0.4,5.9,1.7,7.5,4s1.7,6.1,2.2,8.8c0.9,4.7,1.1,9.7-1.4,14.1c-4,7.2-18.3,12.7-24.8,5.5
				c-2.6-2.9-3.5-8.5-3.9-12.2c-0.7-6.2,3.3-10.8,6.7-15.5C131.8,286.9,137.8,285.1,142.9,285.7z"/>
		</g>
	</g>
	<polygon class="st10" points="173.5,298.4 120,298.4 113.6,236.9 181.2,236.9 	"/>
	<rect x="141.6" y="236.2" class="st0" width="12.3" height="62.2"/>
	<path class="st0" d="M145.1,240.4c-6.7-0.3-12.9-1.2-19-4.1c-2.8-1.4-8.6-5.2-8.6-8.8c0.1-7,9.2-4.3,13.6-3.8
		c-6.4-1-5.1-17,5.2-9.7c5.4,3.9,6.7,10.3,10.1,15.1c1-7.2,8-16.5,14.9-19.1c8.6-3.2,4.6,7.5,2.1,11.1c2.7-3.1,8.4-2.5,11.4-0.6
		c3.9,2.5,6.4,6.5,4,10.9c-5.1,9.6-24.4,9.4-33.3,9L145.1,240.4z"/>
	<path class="st8" d="M218.1,256.9c-3.3-6.3-7-12.3-10.8-18.3c-4.7,5.3-13.6,7.6-21.7,9.5c-7.2,1.6-33.3,4.7-25.5,14.9
		c7.3,9.4,23.4,8.6,33.7,6.4c5.8-1.3,19.2-4.5,25.1-11C218.7,257.9,218.4,257.4,218.1,256.9z"/>
	<path class="st8" d="M196.4,131c-3,0.6-5.8,1.7-8.4,3.3c-0.2-0.4-0.3-0.7-0.5-1.1c2.3-2.9,4.8-5.7,7.4-8.3c3.5-3.6-2-9-5.5-5.5
		c-2.2,2.3-4.3,4.6-6.4,7c-3.4-3.8-7.9-6.4-12.8-7.6c-0.8-0.2-1.6-0.4-2.4-0.5c0.7-3.5,1-7,0.9-10.5c0-5-7.7-5-7.7,0
		c0,3.3,0.1,6.9-0.9,10.2c-1.4,0.1-2.8,0.3-4.1,0.6c-2.5-6.1-9.1-13.7-16.4-10.7c-5.9,2.4-5.4,9.2-4.7,14.2c0.3,2.3,0.7,4.5,1.2,6.7
		c-5.3,4.4-10.4,9.1-15.2,14c-11.7,11.5-19,28.3-12.5,44.3c5.7,13.8,20,19.2,34.3,16.2c22.6-4.7,42-25.8,47-48.1
		c3.2-0.3,6.7-0.3,9.3-1.8c4.4-2.6,8.6-7.5,8.9-12.8C208.2,134.2,202.6,130,196.4,131z"/>
	<path class="st19" d="M167.1,97.8c-5.7-1-10.5,5.3-6.8,10.2C168.2,118.2,178.7,99.8,167.1,97.8z"/>
	<path class="st19" d="M196.5,111.5c-5.7-1-10.5,5.3-6.8,10.2C197.6,131.9,208.1,113.4,196.5,111.5z"/>
	<path class="st21" d="M139.6,169c-12.3-10-24.6-7.3-31.8-6c-2.7,7.8-2.5,16.3,0.6,24c5.7,13.8,20,19.2,34.3,16.2
		c4.5-1,8.8-2.5,12.9-4.6C155.1,197,154.4,181,139.6,169z"/>
	<path class="st16" d="M166.2,150.7c-1.5,3.5-4.6,9.2-9.3,7.9s-4.2-8.6-3.5-12.2c0.4-2-2.6-2.9-3.1-0.9c-1.1,5.4-1,13.3,5.1,15.8
		c6.4,2.6,11.4-4.1,13.6-9.1C169.7,150.4,167,148.8,166.2,150.7z"/>
	<path class="st16" d="M137.1,137.4c-1.4,2-3.3,3.5-5.6,4.3c-2.5,0.7-3.6-1.5-4-3.6s-3.5-1.2-3.1,0.9c0.7,3.3,2.6,6,6.2,6.1
		c3.6,0.1,6.7-2.8,8.7-5.4C140.6,138.1,138.3,135.8,137.1,137.4z"/>
	<path class="st16" d="M144.3,183.5c-2.9,5.1-8.1,9.8-14.2,6.9c-1.9-0.9-3.5,1.9-1.6,2.8c7.8,3.6,14.7-1.3,18.6-8.1
		c0.4-0.8,0.1-1.8-0.7-2.2C145.7,182.6,144.8,182.8,144.3,183.5z"/>
	<path class="st0" d="M173.1,178.1c0,4.5-3.7,8.2-8.2,8.2c-4.5,0-8.2-3.7-8.2-8.2c0-4.5,3.7-8.2,8.2-8.2c0,0,0,0,0,0
		C169.4,169.9,173.1,173.6,173.1,178.1z"/>
	<path class="st16" d="M174.2,250.4c-9.3,2.1-19.3,5.8-14,12.6c4,5.2,10.8,7.3,17.7,7.7C176.9,263.9,175.7,257.1,174.2,250.4z"/>
	<path class="st22" d="M287.9,304.4c-1.9-9.2-4.2-18.3-7-27.3c-6.1-18.6-21.4-36-42.3-23.5c-7.7,4.6-12.9,11.5-16.6,19.4
		c-9.2,19.9-12.7,42.6-13,64.4c-0.3,19,0.8,45.1,15.2,59.4c9.4,9.3,16.7-0.5,16.5-10.6c-0.1-7.8-0.9-15.5-1.5-23.2
		c7.9,1.3,16,1.6,23.9,0.8c-0.6,7.5-1.4,14.9-1.5,22.4c-0.1,10.1,7.1,19.9,16.5,10.6C300.5,374.9,293.8,331.5,287.9,304.4z"/>
	<path class="st23" d="M306.5,119c-15.9-8.7-28,66.8-29.7,65.8c-17.3-9.6-28.9-10-46.4-2.5c0.3-0.1,5-70.4-12.1-71.8
		c-25.8-2.1-10.3,83.2-5.7,86.1c-7,20.4-26.3,51.2,5.6,71.7c12.6,8.1,30.8,11.1,46.9,8.5c58.5-9.7,30.5-73.4,29.3-76.6
		C294.7,200.8,330,131.8,306.5,119z"/>
	<path class="st0" d="M218.3,191.7c2.3-2,4.4-4.1,6.4-6.4c0-14.4,0.5-66.1-9.1-63.5C200.4,126.1,218.3,191.8,218.3,191.7z"/>
	<path class="st0" d="M290,196c-2.3-2-4.4-4.1-6.4-6.4c0-14.4,14.5-65,21.6-63.5C315.4,128.2,290.1,196,290,196z"/>
	<path class="st16" d="M234.2,223.2c-4.6-0.4-8.5,4.7-9.1,8.8c-0.2,1.4,1.9,1.9,2.1,0.5c0.4-3,3.2-7.5,6.7-7.1
		c4.2,0.5,4.2,5.8,4.1,9c0,1.4,2.1,1.3,2.1-0.1C240.3,230.1,239.6,223.8,234.2,223.2z"/>
	<path class="st16" d="M269,223.2c4.6-0.4,8.5,4.7,9.1,8.8c0.2,1.4-1.9,1.9-2.1,0.5c-0.4-3-3.2-7.5-6.7-7.1c-4.2,0.5-4.2,5.8-4.1,9
		c0,1.4-2.1,1.3-2.1-0.1C262.9,230.1,263.5,223.8,269,223.2z"/>
	<path class="st0" d="M231.9,244.5c0,5.3-4.3,9.6-9.6,9.6c-5.3,0-9.6-4.3-9.6-9.6c0-5.3,4.3-9.6,9.6-9.6c0,0,0,0,0,0
		C227.6,234.9,231.9,239.2,231.9,244.5z"/>
	<path class="st0" d="M291,244.5c0,5.3-4.3,9.6-9.6,9.6c-5.3,0-9.6-4.3-9.6-9.6c0-5.3,4.3-9.6,9.6-9.6c0,0,0,0,0,0
		C286.7,234.9,291,239.2,291,244.5z"/>
	<rect x="247.8" y="276" class="st0" width="5.2" height="19.4"/>
	<path class="st24" d="M250.9,259.9c-0.7,1.9,1.6,5.4,2.7,6.8c8.9,10.8-15.4,11.4-6.4-0.6C248.7,264.2,250,262.1,250.9,259.9z"/>
	<g>
		<path class="st6" d="M235.2,317.5c-3.2-1.4-5.3-4.4-5.7-7.8c-2.1-16,23.9-10.9,22.5-26.6c2,4.4,8.3,6.8,11.5,10.4
			c4,4.6,7,10.8,5.5,17C266.3,321.8,243.3,321.4,235.2,317.5z"/>
		<g>
			<defs>
				<path id="SVGID_5_" d="M235.2,317.5c-3.2-1.4-5.3-4.4-5.7-7.8c-2.1-16,23.9-10.9,22.5-26.6c2,4.4,8.3,6.8,11.5,10.4
					c4,4.6,7,10.8,5.5,17C266.3,321.8,243.3,321.4,235.2,317.5z"/>
			</defs>
			<clipPath id="SVGID_6_">
				<use xlink:href="#SVGID_5_"  style="overflow:visible;"/>
			</clipPath>
			<g class="st25">
				<path class="st26" d="M261.1,297.3c-1.5-6.4-6.6-12.2-10.1-17.6c-0.4-0.5-1-0.6-1.5-0.2c-0.4,0.3-0.5,0.9-0.3,1.3
					c0.4,0.6,0.8,1.2,1.3,1.9c-0.5,0.1-0.8,0.6-0.7,1c0,0.1,0,0.1,0.1,0.2c2.4,5.4,3.6,10.6-0.9,15.2c-3,3.1-7.2,4.6-10.4,7.5
					s-5.1,6.7-1.6,10c1,1,2.4-0.6,1.4-1.6c-4.7-4.5,5.8-9.7,8.3-11.4c2.3-1.4,4.2-3.2,5.8-5.4c2.6-3.8,2.2-7.7,0.8-11.6
					c3.3,4.7,6.4,9.9,5.8,15c-0.8,5.7-6.5,10-4.5,16c0.3,0.5,0.9,0.8,1.4,0.5c0.4-0.2,0.7-0.7,0.6-1.1c-1.4-4.3,2.3-7.9,3.7-11.5
					C261.3,303,261.6,300.1,261.1,297.3z"/>
			</g>
		</g>
	</g>
	<g>
		<polygon class="st17" points="263,337.9 235.9,337.9 229.2,314.2 269.6,314.2 		"/>
		<g>
			<defs>
				<polygon id="SVGID_7_" points="263,337.9 235.9,337.9 229.2,314.2 269.6,314.2 				"/>
			</defs>
			<clipPath id="SVGID_8_">
				<use xlink:href="#SVGID_7_"  style="overflow:visible;"/>
			</clipPath>
			<g class="st27">
				<path class="st28" d="M244.9,344.1c-2.5-11.5-4.8-22.9-6.9-34.5c-0.3-1.3-2.3-0.7-2,0.6c2.1,11.5,4.5,23,6.9,34.5
					C243.2,346.1,245.2,345.4,244.9,344.1z"/>
				<path class="st28" d="M260.4,305.4l-4,37c-0.1,1.4,1.9,1.9,2.1,0.5l4-37C262.6,304.5,260.6,304,260.4,305.4z"/>
				<path class="st28" d="M251.1,308.5c0-0.6-0.5-1.1-1.1-1c-0.6,0-1.1,0.5-1,1.1l0.7,33.8c0.1,0.6,0.6,1,1.2,0.9
					c0.5-0.1,0.9-0.5,0.9-1C251.6,331,251.3,319.7,251.1,308.5z"/>
			</g>
		</g>
	</g>
	<path class="st23" d="M221,270.3c-2.9,0-6.8,3.6-9,7.5c-4.2,7.3-7.1,15.3-8.8,23.6c-2.3,11.6,1.9,24.8,11.5,32
		c5.3,4,23.6,8.3,26.1-0.4c3.4-12.1-21.3-24-22-36c-0.4-7,6.3-13,6.1-19.8C224.7,272.2,223.1,270.3,221,270.3z"/>
	<path class="st23" d="M280.9,270.3c2.9,0,6.8,3.6,9,7.5c4.2,7.3,7.1,15.3,8.8,23.6c2.3,11.6-1.9,24.8-11.5,32
		c-5.3,4-23.6,8.3-26.1-0.4c-3.4-12.1,21.3-24,22-36c0.4-7-6.3-13-6-19.8C277.2,272.2,278.8,270.3,280.9,270.3z"/>
	<path class="st16" d="M260.8,249.3c-1.6,1.6-4.2,1.7-5.8,0.1c-0.7-0.6-1.2-1.4-1.4-2.3c2.5-2.1,7.6-6.8,5.1-9.8
		c-2.1-2.5-4.8-1.8-6.2,0.8c0,0-3.1-4.3-6.4-0.8c-2.7,2.7,2.2,7.5,5.1,9.4c-0.2,1-0.8,2-1.6,2.7c-1.6,1.6-4.2,1.5-5.8-0.1
		c-0.8-0.8-1.9,0.4-1.2,1.3c2,2,5.2,2.3,7.5,0.7c1-0.6,1.7-1.5,2.2-2.6c0.5,1.1,1.3,2,2.2,2.6c2.3,1.6,5.5,1.3,7.5-0.7
		C262.8,249.8,261.6,248.5,260.8,249.3z"/>
</g>
</svg>
