<svg xmlns="http://www.w3.org/2000/svg" viewBox="0 0 40.91 40.91">
  <title>Kumnit-white-logo</title>
  <g id="Layer_2" data-name="Layer 2">
    <g id="Layer_1-2" data-name="Layer 1">
      <g>
        <circle cx="20.45" cy="20.45" r="20.45" style="fill: #fff"/>
        <g>
          <path d="M9.67,21a4.41,4.41,0,0,0-3.6,1.46,4.2,4.2,0,0,0-1,2.65c0,2.15,1,3.58,2.55,3.79A2.77,2.77,0,0,1,8,27.71a1.92,1.92,0,0,1,.84-.85,2.37,2.37,0,0,1,.74-.25,1.74,1.74,0,0,0-1.46-.55,2.33,2.33,0,0,0-1,.25,4.1,4.1,0,0,1,.52-2.38,2.35,2.35,0,0,1,2.07-1.14,2.33,2.33,0,0,1,2.06,1.14c1,1.6.58,4.3-.93,5h.48c1.85,0,3-1.48,3-3.82a4.19,4.19,0,0,0-1-2.65A4.41,4.41,0,0,0,9.67,21Z" style="fill: #2857a5"/>
          <path d="M9.67,16.88a2.44,2.44,0,1,0-2.44-2.44A2.44,2.44,0,0,0,9.67,16.88Zm0-3.26a.82.82,0,1,1-.82.82A.82.82,0,0,1,9.67,13.62Z" style="fill: #2857a5"/>
          <path d="M23.62,23.54A8.74,8.74,0,0,0,21,22.41c-1-.28-1.6-.4-2.09-.56-.94-.31-1.2-.71-1.2-1,0-.89,1.21-1.32,2.4-1.32a4.59,4.59,0,0,1,2.47.6s-.54.15-.48,1a1.33,1.33,0,0,0,2,.78,1.85,1.85,0,0,0,.83-1.46,5.26,5.26,0,0,0-7.7-1.7A2.76,2.76,0,0,0,16,21.29c.11,1,1.23,1.57,2.84,1.95a15.55,15.55,0,0,1,3.52,1.05,1.89,1.89,0,0,1,1,1.2,1,1,0,0,1-.38.87,1.22,1.22,0,0,1-.88.33,1,1,0,0,1-.58-.22,3.07,3.07,0,0,1-.78-.92l0,0a1.28,1.28,0,0,0-.11-.2v0l-.08-.17,0-.05a1.34,1.34,0,0,1-.07-.18h0l-.11.2,0,0c-.08.14-.17.28-.26.41l0,0a4.24,4.24,0,0,1-.31.4l0,0a2.24,2.24,0,0,1-.36.33h0l-.19.13h0a1.05,1.05,0,0,1-.5.14.94.94,0,0,1-.56-.18h0l-.1-.08v0a.43.43,0,0,1-.09-.1h0a1.13,1.13,0,0,1-.16-.26,2.52,2.52,0,0,1-.15-1.88,1.4,1.4,0,0,1,.15-.3h0l-.33.21a.1.1,0,0,1-.05,0l-.28.21L17,24.3l-.23.21,0,0-.16.19-.07.08-.14.19-.06.11a.57.57,0,0,0-.08.13l-.09.18,0,.09A2.59,2.59,0,0,0,16,26h0a1.75,1.75,0,0,0,0,.32h0a2.47,2.47,0,0,0,.45,1.6,2.33,2.33,0,0,0,1.9,1c1.7,0,2.17-2,2.17-2a2.63,2.63,0,0,0,2.58,2,2.37,2.37,0,0,0,2-2.51A2.8,2.8,0,0,0,23.62,23.54Z" style="fill: #2857a5"/>
          <path d="M19.75,12c-2.63.07-4.71,2.22-3.84,4.58,4.63-1,9.46,1.36,9.46,1.36a5.33,5.33,0,0,0-1.48-4.19A5.47,5.47,0,0,0,19.75,12Zm1.39,3.34a14.63,14.63,0,0,0-3.71-.26,2.17,2.17,0,0,1,2.06-1.52,4.26,4.26,0,0,1,2.66.75A4,4,0,0,1,23.42,16,15.27,15.27,0,0,0,21.14,15.34Z" style="fill: #2857a5"/>
          <path d="M5,17.82c0,1.46,2.08,2.65,4.65,2.65s4.65-1.19,4.65-2.65H5Z" style="fill: #2857a5"/>
          <path d="M31.24,20.47c2.57,0,4.65-1.19,4.65-2.65h-9.3C26.59,19.28,28.67,20.47,31.24,20.47Z" style="fill: #2857a5"/>
          <path d="M31.24,21a4.41,4.41,0,0,0-3.6,1.46,4.2,4.2,0,0,0-1,2.65c0,2.34,1.12,3.82,3,3.82a2.89,2.89,0,0,0,.43,0,2,2,0,0,0-.29-3.95,2,2,0,0,0-1.07.32,3.87,3.87,0,0,1,.47-1.31,2.35,2.35,0,0,1,2.07-1.14,2.33,2.33,0,0,1,2.06,1.14c1,1.6.58,4.3-.93,5h.48c1.85,0,3-1.48,3-3.82a4.19,4.19,0,0,0-1-2.65A4.41,4.41,0,0,0,31.24,21Zm-1.53,5.11a.83.83,0,1,1-.83.83A.83.83,0,0,1,29.71,26.08Z" style="fill: #2857a5"/>
        </g>
      </g>
    </g>
  </g>
</svg>
