<svg xmlns="http://www.w3.org/2000/svg" viewBox="0 0 967.29 758.89">
  <title>ponlork-white-logo</title>
  <g id="Layer_2" data-name="Layer 2">
    <g id="Layer_1-2" data-name="Layer 1">
      <g>
        <g>
          <path d="M266.88,374.88,339,347.17c5.48-2.11,10.94-4.24,16.46-6.25,2.29-.84,4.6-1.65,6.91-2.44l3.5-1.18c5.36-1.82-4.09,1.15.91-.27,2.67-.76,5.34-1.52,8-2.2.83-.21,4.75-1.1,1.33-.35-4,.87,1.93-.35,2.23-.41,1.19-.22,2.38-.41,3.58-.61,4.38-.74.1-.19-.44,0a15.05,15.05,0,0,1,3.56-.34c1-.08,5.44-.21,2-.2,9,0,17.39,1.21,26.34,6.26A56.45,56.45,0,0,1,432.68,357c10.16,15.27,14.57,33.54,18.55,51.2s8.66,35.94,19.16,51c12.05,17.26,29.35,26.45,50.22,28.3,26.19,2.33,56.25-5.94,77.93-20.7a82.54,82.54,0,0,0,34.61-50.64c8.4-38.72-8.57-77.86-38.35-102.9C578,299.08,557.43,291,536.36,285.44c-20.74-5.5-42.6-8.58-62.42-17.12-16.84-7.25-34.09-18.21-41.86-35.52-9.05-20.17-3-42.43,8.1-60.46a109,109,0,0,1,17.56-21.57,101.33,101.33,0,0,1,21.53-16.36c1.19-.71,2.38-1.41,3.6-2.08-.67.37-3.36,1.71,0,.08,2-1,4-2,6-2.89,1-.44,2-1,3.06-1.35-5,1.7-1.23.55,0,.06l3.15-1.14c.79-.29,1.59-.56,2.38-.82q-4.83,1.49-2.15.67c1.46-.41,5.95-2.43,7.32-2-.27-.09-5.95,1.19-1.36.3,1.11-.21,2.21-.43,3.32-.63s2.31-.38,3.46-.57c5.78-1-3.08.14.54,0,1.22-.07,2.43-.24,3.65-.33.64-.05,5.72-.32,3.87-.26-2.23.08,1.57,0,2.06,0,1.53,0,3.05,0,4.57.13,2.43.11,4.87.28,7.29.57-1.56-.19,1.39.21,1.34.21,1.49.25,3,.51,4.46.81,2.95.6,5.87,1.32,8.75,2.18a74.18,74.18,0,0,1,26.34,14C585,153,595.05,171.53,593,190.26a41.74,41.74,0,0,1-10,22.31,53.31,53.31,0,0,1-4.93,4.81c-.51.44-3.16,2.32-1,.82-.85.59-1.71,1.14-2.57,1.7-3.07,2-.24,0,.39-.17-3.66,1,.47-.09,1.16-.35-5,1.86,4.44-1.12,1-.23-3,.78,5.44-1,1-.26l2.7-.38c-1.88.11-2.08.13-.61.07,2.58,0-.8-.1-1.42-.14-2.76-.18,3.22,1-1-.17-.91-.25-1.84-.42-2.76-.68a33.06,33.06,0,0,1-9.78-4.89,38.23,38.23,0,0,1-14.35-18.31c-2.67-7.35-2.75-14.65.59-21.75,3.66-7.78-16.11-5.25-18.81-4.74a67.62,67.62,0,0,0-17.85,5.59c-3.34,1.7-7.89,3.73-9.58,7.31-7.88,16.75-.14,35.3,13.64,46.28,20.81,16.59,52,11.91,74.92,2.67,21.17-8.55,42.05-24.27,45.6-48.29,3.09-20.92-7-40.85-22.44-54.56-17.71-15.71-42.52-22-65.69-22.77-29.09-1-58.19,5.63-84.89,16.93-39.7,16.79-81,51.38-85.33,97.1-4.56,48.44,48.2,69,86.46,78.28,22.85,5.54,46.72,9.6,67.28,21.63a110.44,110.44,0,0,1,41.56,42.57c9.41,17.48,14.16,37.93,11.63,57.75a79.16,79.16,0,0,1-9.77,28.9,58,58,0,0,1-7.92,10.94,70.32,70.32,0,0,1-5.43,5.21c-.5.42-3.12,2.39-1,.84-1.26.91-2.58,1.72-3.88,2.58-3,2-.29.22.36-.11-1.17.59-2.37,1.12-3.53,1.71-3,1.53,5.2-2,.28-.16-1.84.69-3.4.24,1.65-.46.17,0-3,.68-3.06.82.3-.8,5.64-1.3.87-.31-3.23.66,5.48-.24.3-.09-4.16.13,3.3.3-1.23.1-5.67-.25-5.91-.14-11.34-1.67a43.71,43.71,0,0,1-12.61-6c-16.13-10.85-24-29.24-29.17-47.3-5.28-18.35-7.87-37.4-15.53-55-8.38-19.3-22.33-34.16-42.57-40.85-25.58-8.46-55.56-2.86-80.7,4.45-25.56,7.44-50.22,17.81-75,27.35l-38.07,14.62c-2.91,1.12-20.65,8.14-13.92,13.51,2.89,2.3,8.73,1.83,12,1.54a68.46,68.46,0,0,0,18.26-4.08Z" style="fill: #fff"/>
          <path d="M741.65,490.24a274.25,274.25,0,0,1-3.87-113.15c6.4-36.09,19.59-73.21,41.1-103.18,2.58-3.59,5.3-7.08,8.22-10.4a84.79,84.79,0,0,1,8.78-8.83c1.58-1.31,3.2-2.57,4.88-3.76,1-.68,1.93-1.36,2.92-2-.71.46-3.15,1.71.2,0,.63-.33,2.65-1.72,3.16-1.65,0,0-3.83,1.53-1.29.58,1.11-.41,2.22-.84,3.32-1.29,2.87-1.19-4.71,1.46-.21.14,2.89-.85.61-1.22-1.13.2a17.35,17.35,0,0,1,3.48-.53c-.33-.1-5.16.27-.59.18.25,0,3.15,0,.93-.06-2.51-.07,5.07.65,4,.46-1.35-.25,1.42.35,1.33.33,1.64.47,3.25,1,4.84,1.59,6.51,2.51,12.57,7.22,17.8,12.72,11.51,12.1,18.21,27.93,23.57,43.52a360.39,360.39,0,0,1,14.59,59.81c7.49,46.86,7.44,94.5,7.32,141.83,0,3.2,6.92,4.41,8.59,4.62,5.48.7,12.06-.26,17.29-1.76,7.05-2,21-6.18,21-15.42.11-45,.16-90.28-6.27-134.94a368.46,368.46,0,0,0-15.32-65.74c-5.88-17.34-13.7-34.78-26.33-48.33-35.21-37.76-98.61-19.07-131.81,11.78-14.91,13.85-25.82,31.85-35,49.86a277.33,277.33,0,0,0-21.67,57.94,287.6,287.6,0,0,0-.7,138.06c.81,3.31,6,4.3,8.59,4.62,5.47.7,12.05-.26,17.28-1.76,5.53-1.59,11.22-3.61,15.85-7.12,2.42-1.83,6-4.81,5.13-8.29Z" style="fill: #fff"/>
          <path d="M654,117.4c58.49,42.84,137.67,42.38,200.42,8.77a186.13,186.13,0,0,0,46-35.22,6.08,6.08,0,0,0,.26-8.49c-2.74-2.8-8.92-3.32-12.4-3.22-11.25.32-23.14,4-31.08,12.25Q856,92.75,854.77,94c1-1,.83-.82-.64.58-1.71,1.56-3.42,3.13-5.19,4.63q-4.63,3.94-9.57,7.51c-.94.68-1.89,1.35-2.84,2q2.87-1.86,0,0c-1.47.93-2.94,1.85-4.44,2.74-3.3,2-7,4.63-10.69,5.81,5.64-1.81-1.43.61-2.59,1.1-2.13.91-4.28,1.78-6.45,2.59-1.2.45-6.61,2.91-.44.27a53.82,53.82,0,0,1-6.66,2c-2.24.61-4.49,1.14-6.74,1.7-4.92,1.22,4.94-.76-.49.08-2.29.36-4.57.77-6.87,1.08-.6.08-7.27.88-4,.51s-3.56.19-4.2.22q-3.6.14-7.18.09c-1.8,0-3.59-.09-5.38-.15,4.3.15-3-.27-3.78-.35q-6.26-.64-12.44-1.81c-4.55-.85-7.85-1.64-10.62-2.44a146.34,146.34,0,0,1-45.83-22.29c-8.26-6.05-22-3.14-30.73.59-3.63,1.56-21.22,10.92-13,16.94Z" style="fill: #fff"/>
          <path d="M823,58.88Q851.23,53.72,879,46.31q12.88-3.45,25.64-7.39c3.67-1.13,7.34-2.1,11.05-3.08,4.83-1.27-5.58.52.65-.06,1.74-.16,7.37.32.79-.23,4.52.38-3.63-1.71.17-.12q3,1.29-.79-.51c1.61,1.27,1.56,1.11-.14-.5.61.79,2.46,4.42,1.22,1.15A30.38,30.38,0,0,1,919.1,41c.15.8.27,1.61.36,2.42q-.16-2.94,0,.23c0,1.79.09,3.58.11,5.37q.12,7.43.14,14.84.1,29.67-1,59.34c-.43,11.57,11.64,17.25,21.9,16.25,9.83-1,25.23-7.43,25.67-19.44q1.23-32.83,1-65.69c-.09-10.15.86-21.61-2.76-31.26A33.87,33.87,0,0,0,941.37,2C919-4.17,897.28,5.23,876,11.14q-30.68,8.5-62,14.18C804.73,27,791.44,37.67,795,48.38c4,11.88,17.67,12.37,27.92,10.5Z" style="fill: #fff"/>
          <path d="M423.39,674.89c7.59,9.33,14.59,18.28,18,29.17a72.33,72.33,0,0,1,1.86,8.5c.51,2.79.09,1.08.09.31a39.71,39.71,0,0,1-1.44,10.78c-.25.91-1.54,3.63-.2.74-.6,1.3-1.18,2.59-1.9,3.83-.2.34-2.86,3.63-.92,1.55,2.14-2.29-1.37,1.16-1.31,1.21-.1-.07,3.64-2.72.95-.86-4.09,2.83,4.9-2.36.32-.29a22.68,22.68,0,0,1,6.31-1.77c-4,.59.34.07,1.08.08-4.84,0,3.42,1.58-1.15-.17-.83-.32-5-2.29-1.79-.53a38,38,0,0,1-7.07-4.54c.7.61,1.57,1.59-.48-.67-1-1.08-2-2.13-2.88-3.25a61.8,61.8,0,0,1-8.39-13.67c-10.09-22.34-18.23-48.2-16.69-72.75A94.44,94.44,0,0,1,410.47,615c.32-1.24.68-2.47,1.06-3.69.22-.72,1.42-3.82.32-1,1-2.63,2.18-5.21,3.47-7.73,1.06-2.06,2.2-4.08,3.43-6,.82-1.3,1.7-2.57,2.57-3.84-.39.57-2.35,2.87-.11.19,1.63-2,3.28-3.88,5.07-5.69.72-.72,1.46-1.4,2.19-2.11,3.31-3.25-3,2.06.45-.41,1.92-1.37,4.45-2.65,6.18-4.24-3.49,3.21-2.71,1.47-.62.45,1.11-.54,2.26-1,3.39-1.52,3.86-1.76-1.49.8-1.89.66a25.12,25.12,0,0,0,4.33-1.17c-.24.34-6.21.75-1.91.35.89-.08,3.9-1,4.74-.42h-2.78c1.06,0,2.12.06,3.18.14s2.1.21,3.16.31c5,.51-2.9-.9.1,0,1.25.39,2.57.63,3.83,1,1,.3,2,.63,3,1,0,0,4.71,2,2.22.82s2.19,1.14,2.12,1.11q2.14,1.11,4.22,2.37A80.5,80.5,0,0,1,469,590c.87.66,1.74,1.33,2.59,2-2.45-2,1.65,1.51,1.7,1.56a99.67,99.67,0,0,1,11.13,12.28c7.18,9.35,11.87,18.79,16.18,29.61,9.23,23.2,13.91,48.18,24.24,70.93,5.24,11.53,11.88,21.93,22.6,29.09C560.53,744.29,578,746,593,742.15c17.6-4.48,31.63-16.2,37-33.65,3.81-12.28,2.47-25.67,1.79-38.29a526.26,526.26,0,0,0-13.24-91.94c-2.49-10.59-19.33-10.3-27.24-7.94-8.32,2.47-22.2,9.53-19.62,20.5a524.74,524.74,0,0,1,13,87.8c.68,11.06,1.26,22.17-1.48,33-.77,3.06-.26.75,0,.1-.58,1.32-1.26,2.55-1.92,3.83-1.47,2.86-.14.13.42-.43-1,1-4.42,3.44-.12.36l2.58-1.37q-2.87,1.25.26,0c1.07-.23,8-1.19,3.54-1,5.87-.19,2.2-.15.65-.21s-1-.1,1.53.26a31.09,31.09,0,0,1-3-.89c3.49,1,.47.23-.58-.33s-2.21-1.36-3.32-2c-3.91-2.42,1,1.13-1-.83-1-1-2-2-2.87-3A47.31,47.31,0,0,1,571,692.31c-5.17-11.87-8.72-24.45-12.53-36.81-7.8-25.31-16.26-51.85-33.5-72.53-16.64-20-41-34.6-67.5-35.17-28.93-.63-57.72,12-75.69,35C364.36,605,358.49,631,361,658.8,362.34,673,366,687,370.71,700.44c4.39,12.46,9.42,25.49,17.37,36.16,23.08,30.93,72.82,29.27,94.49-2.48,7.65-11.22,9.71-26,6.61-39.12-3.55-15-13.1-28-22.64-39.78-6.94-8.52-22.81-6.5-31.48-2.21-7.15,3.53-19,12.93-11.67,21.88Z" style="fill: #fff"/>
          <path d="M92.79,344.51c2.14,3.18-.41-1.39.19.21.41,1.09,1,2.14,1.42,3.22,1.12,2.76,2,5.6,2.91,8.45,2.16,7.18,3.84,14.51,5.39,21.85,3.38,16.08,6,32.32,8.41,48.57,2.18,14.69,5,25.52.57,39.36-.21.68-1.46,3.51-.29,1-.4.85-.82,1.69-1.27,2.52a40.48,40.48,0,0,1-3.83,5.78c3-3.83-1.31,1.58-1.78,1.29l2.06-1.64c-1.6,1-1.5,1,.32,0s1.93-1,.21-.16q5.73-1.8,2.71-.92c-3.54.85,6.14-.61.58-.17,6.82-.55,1.26-.37,1-.25l2,.28c-.83-.15-1.65-.33-2.46-.55s-4.18-1.38-1.33-.27a46.44,46.44,0,0,1-13.11-7.83c-16.52-14.3-26.11-33.67-32.79-54.06-7.32-22.32-11.57-45.79-14.15-69.1a408.36,408.36,0,0,1,9.93-143.36c5.49-22,12.27-45.55,22.6-65.37,1.21-2.34,2.69-4.45,4-6.7.39-.67,2.18-2.59-.15-.05.67-.73,1.4-1.39,2.06-2.12,2.61-2.86-1.33.84-2.25,1.34a24.17,24.17,0,0,1-8.5,2.66,16.08,16.08,0,0,1-6-.09c-4.38-1.2-1.14-.33.07.22,2.63,1.18-.33-1.1.2.16.3.73,1.63,1.66,2.15,2.28a34.45,34.45,0,0,1,3,4.31c-1.18-1.94.32.63.55,1.14.5,1.08,1,2.15,1.45,3.25.93,2.23,1.75,4.49,2.51,6.78,3.43,10.27,6.19,20.62,10.51,30.59a201.22,201.22,0,0,0,17.52,32c13.72,20.46,32.64,41.56,59.26,41.78,17,.14,34.92-6.27,46-19.51,6.72-8,10.43-17.92,12.05-28.17,3.67-23.26-.94-47.14,6.68-69.93.35-1,.71-2.05,1.1-3.06-.7,1.84.27-.62.36-.83a68.91,68.91,0,0,1,3.88-7.11,52.89,52.89,0,0,1,3.71-5.21c-2.5,3.06.9-.77,1.26-1.12,1-1,3.54-4.49.55-.75,1.39-1.74,6.18-3.56,1.42-1.13,4.66-2.38-4.29,1.06-1,.26s-6.31.53-1.11.14c3.5-.27-1.28-.4-1.41-.06.1-.28,3.33.16,3.77.18,2.88.13-4.54-1.35,0,.13,1.45.48,3,.76,4.43,1.25-3.39-1.15,1.71.91,2.81,1.48a51.4,51.4,0,0,1,6.76,4.14c-1.67-1.23.44.38.63.55,1,.9,2,1.77,3,2.7a61.77,61.77,0,0,1,6,6.56c6.56,8.38,10.33,18.52,13,28.73,6.34,24,7.43,49.59,9.53,74.21,2.31,26.92,4.1,53.88,5.53,80.87,2.87,54,4.27,108.07,5.38,162.13q.42,20.28.8,40.55c.07,3.84,6.61,6.44,9.26,7.11,5.38,1.37,12.31.82,17.56-.73,9.26-2.72,20.24-8.06,20-18.94-1.1-57.62-2.21-115.25-4.73-172.84-1.28-29.13-2.91-58.24-5.1-87.32-2.05-27.4-3.68-55.21-8.2-82.34C328.22,138.08,318.87,114.21,298,99c-23.91-17.45-58.73-16.45-82.84.32-22.66,15.76-32.16,40.79-33.8,67.54-.75,12.19,0,24.48-1.19,36.63A74.71,74.71,0,0,1,177.4,218c-.35,1.14-.73,2.27-1.17,3.38-.93,2.33,1.79-2.73-.46.79-.48.76-.87,1.59-1.36,2.35s-1,1.48-1.53,2.19c1.59-1.83,1.71-2,.35-.61-.87.89-3,2.25,1.17-.78-3.24,2.37,2.41-1.06,3.39-1.4a22.27,22.27,0,0,1,7.6-1.15c-3.69,0-.16,0,.56.18-.52-.14-5.13-1.92-1.82-.42-1-.46-2-.94-3-1.47a28.22,28.22,0,0,1-6.74-4.61c-9-7.81-16.37-17.73-22.88-27.63a164.25,164.25,0,0,1-16.14-31.91c-3.88-10.2-6.06-21-10.47-31-4.16-9.45-9.93-18.4-19.9-22.37-18-7.14-39.6-1.32-53.91,11C41.15,123,36.17,135,31.29,146.8q-7.53,18.13-13.25,37C2.73,234-2.65,287,1.2,339.32a379.87,379.87,0,0,0,12.49,74.27c6.46,23.18,16.46,46.72,33.12,64.47,9.22,9.82,20.35,17.39,33.25,21.38,16.84,5.22,35.74,2.12,51.1-6,22.1-11.67,32.83-35.47,29.61-59.83-4-30.24-7.87-61.56-16.91-90.76a64.51,64.51,0,0,0-7.69-17.17c-2.31-3.43-9.27-4.5-12.8-4.69A41.38,41.38,0,0,0,105,324.55c-7.33,3.44-18.29,10.9-12.19,20Z" style="fill: #fff"/>
        </g>
        <g>
          <path d="M707.89,577.9a10,10,0,0,1,0,13.92c-1.88,1.66-4.48,2.5-7.82,2.5h-4.63v9.34H690V575.38h10C703.41,575.38,706,576.22,707.89,577.9Zm-4.24,10.27a4.65,4.65,0,0,0,0-6.63,5.66,5.66,0,0,0-3.88-1.23h-4.33v9.08h4.33A5.71,5.71,0,0,0,703.65,588.17Z" style="fill: #fff"/>
          <path d="M719.24,602.15a11.33,11.33,0,0,1-4.35-5,20,20,0,0,1,0-15.12,11.51,11.51,0,0,1,4.35-5.08,14.24,14.24,0,0,1,13.88,0,11.25,11.25,0,0,1,4.37,5.05,20.15,20.15,0,0,1,0,15.16,11.25,11.25,0,0,1-4.37,5,14.28,14.28,0,0,1-13.88,0Zm12.25-5.74a14,14,0,0,0,0-13.78,6.9,6.9,0,0,0-10.6,0,14,14,0,0,0,0,13.76,6.94,6.94,0,0,0,10.6,0Z" style="fill: #fff"/>
          <path d="M775.8,575.38H782l-8.19,28.28H767l-5.81-21-5.86,21H748.5l-8.19-28.28h6.19l5.44,21.35,6-21.35h6.48l6,21.42Z" style="fill: #fff"/>
          <path d="M785.47,603.66V575.38h18.38v4.86H790.92v6.52h11.71v4.78H790.92V599h13v4.71Z" style="fill: #fff"/>
          <path d="M823.89,603.66l-6.11-10h-3.89v10h-5.37V575.38h10.11q5,0,7.78,2.43a8.44,8.44,0,0,1,2.78,6.73,9.1,9.1,0,0,1-1.5,5.29,8.26,8.26,0,0,1-4.28,3.15l6.75,10.68Zm-10-14.86h4.52a5.57,5.57,0,0,0,3.74-1.17,3.84,3.84,0,0,0,1.37-3.09,3.8,3.8,0,0,0-1.38-3.08,5.9,5.9,0,0,0-3.84-1.15h-4.41Z" style="fill: #fff"/>
          <path d="M833.94,603.66V575.38h18.37v4.86H839.38v6.52h11.71v4.78H839.38V599h13v4.71Z" style="fill: #fff"/>
          <path d="M876,578.9q3.62,3.52,3.61,10.64t-3.67,10.65q-3.66,3.46-9.93,3.47h-9V575.38h9Q872.36,575.38,876,578.9Zm-4.11,17.64q2.05-2.29,2-7t-2-7a7.3,7.3,0,0,0-5.73-2.3H862.5v18.64h3.63A7.3,7.3,0,0,0,871.86,596.54Z" style="fill: #fff"/>
        </g>
        <g>
          <path d="M715.18,641.47a8.91,8.91,0,0,1,1.73,5.46,9.16,9.16,0,0,1-3.32,7.59q-3.33,2.65-9.59,2.65H690.77V621h12.85q5.75,0,8.71,2.52a8.85,8.85,0,0,1,3,7.16,7.73,7.73,0,0,1-1.31,4.53,9.2,9.2,0,0,1-3.44,3A9.45,9.45,0,0,1,715.18,641.47Zm-17.53-14.33v8.54h5.83a5.43,5.43,0,0,0,3.63-1.21,3.94,3.94,0,0,0,1.45-3.2,3.67,3.67,0,0,0-1.42-3,5.61,5.61,0,0,0-3.61-1.14Zm10.6,22.59a4.65,4.65,0,0,0-.12-7.1,7,7,0,0,0-4.36-1.3h-6.12V651h6.16A6.92,6.92,0,0,0,708.25,649.73Z" style="fill: #fff"/>
          <path d="M742.39,621h7.73l-12.43,21.54v14.66h-6.88V642.42L718.38,621h7.78l8.12,14.9Z" style="fill: #fff"/>
          <path d="M792.35,657.17l-11.67-14.28-2.9,2.61v11.67h-6.93V621h6.93v16l13.76-16h8.16L785.14,638.1l15.37,19.07Z" style="fill: #fff"/>
          <path d="M808.43,653.76q-3.84-3.79-3.84-10.91V621h7.26v22.11a8.21,8.21,0,0,0,2,5.93,8.93,8.93,0,0,0,11.36,0,8.25,8.25,0,0,0,2-5.93V621h7.3v21.88q0,7.11-3.86,10.91t-11.08,3.79Q812.27,657.55,808.43,653.76Z" style="fill: #fff"/>
          <path d="M871.44,621h9.25v36.2h-6.88l.24-25.57-9.68,21.78H858l-9.59-21.87.24,25.66h-6.88V621H851l10.25,24.3Z" style="fill: #fff"/>
          <path d="M911.87,621h6.92v36.2h-8.11l-15.75-24.95v24.95H888V621h8.07l15.8,24.91Z" style="fill: #fff"/>
          <path d="M926.1,657.17V621h7v36.2Z" style="fill: #fff"/>
          <path d="M966.48,620.93v6.21h-11v30h-7.07v-30h-11v-6.21Z" style="fill: #fff"/>
        </g>
        <path d="M888.18,575.09h62.34a16,16,0,0,1,16,16v13.21a0,0,0,0,1,0,0h-78.3a0,0,0,0,1,0,0V575.09A0,0,0,0,1,888.18,575.09Z" style="fill: #fff"/>
      </g>
    </g>
  </g>
</svg>
