<svg xmlns="http://www.w3.org/2000/svg" viewBox="0 0 175.84 133.03">
  <title>tumnongta-white-logo</title>
  <g id="Layer_2" data-name="Layer 2">
    <g id="Layer_1-2" data-name="Layer 1">
      <g>
        <g>
          <path d="M2.11,80.78A21.88,21.88,0,0,0,9.3,79.05,12.18,12.18,0,0,1,14.93,78c1.74.22,2.57,1.25,3.26,2.73a19.26,19.26,0,0,0,2.52,4.79c3.14,3.6,8.66,2.27,11.16-1.33,2.92-4.2,1.55-9.41.74-14a20.93,20.93,0,0,1-.15-7.36c.27-1.54.73-3.55,2-4.6a2.32,2.32,0,0,1,3.37.61c1.05,1.31.65,3.14-.17,4.46-2.29,3.72-8,4.06-11.88,3.63s-8.53-2.06-10.2-6c-1.9-4.49,0-9.35,2.67-13,2.51-3.47,6.37-7.29,10.91-7.46,2.8-.1,2.82-4.48,0-4.37-5.21.19-9.55,3.46-12.84,7.28s-6,8.77-5.86,14.07a13.32,13.32,0,0,0,7.82,11.91,23.17,23.17,0,0,0,16.54,1.1,12.32,12.32,0,0,0,6.44-4.65,8.73,8.73,0,0,0,1.21-7.37c-1.61-4.82-7.9-6.87-11.49-2.85s-3.49,10.7-2.59,15.79c.44,2.5,1.2,5.08.86,7.64-.24,1.84-1.16,3.83-3.12,4.27s-2.61-1.06-3.29-2.65c-1-2.43-2-4.84-4.55-6.08a11.31,11.31,0,0,0-7.86-.39c-2.78.73-5.39,2.29-8.32,2.33s-2.82,4.41,0,4.37Z" style="fill: #fff"/>
          <path d="M26.54,79.85A85.46,85.46,0,0,1,38.43,76c.94-.23,1.89-.44,2.84-.64a5,5,0,0,1,2.58-.23,2.31,2.31,0,0,1,.63.71,6.77,6.77,0,0,1,.7,2c.71,3.18.22,6.63,2.4,9.37,2.35,3,6.49,2.74,9.24.47s3.48-6.63,3-10.14A28.8,28.8,0,0,0,56,66.89c-1.78-3.13-3.88-6.06-5.59-9.22-1.56-2.88-2.27-6-.54-9a5.16,5.16,0,0,1,7.62-1.76c1.14.86,1.74,2.06.64,3.16a7.81,7.81,0,0,1-1.91,1.36c-.34.17-.83.13-.31.32,0,0,.08.26.08.24.9-2.67-3.32-3.82-4.21-1.16A4.08,4.08,0,0,0,54.7,55.9c2.23.55,4.47-1,6.08-2.35A6.11,6.11,0,0,0,63,47.79a7.75,7.75,0,0,0-3.73-4.92,9.49,9.49,0,0,0-11.13,1,11.94,11.94,0,0,0-3.52,10.88c.72,4.12,3.54,7.81,5.72,11.28s4.13,6.81,5,10.73C55.9,79.4,56,84.47,52.5,85a1.58,1.58,0,0,1-1.18-.25,3,3,0,0,1-1-1.55,30.71,30.71,0,0,1-.73-5.15,10.14,10.14,0,0,0-2.34-5.74c-1.87-2-4.35-1.8-6.81-1.3a85.74,85.74,0,0,0-15.11,4.58,2.25,2.25,0,0,0-1.53,2.69,2.21,2.21,0,0,0,2.69,1.53Z" style="fill: #fff"/>
          <path d="M51.66,71.27l9.91-2.46a26,26,0,0,1,3.86-.88c.72-.07,1.51-.16,1.78.5.37.9-.24,2.39-.45,3.27q-.6,2.55-1.06,5.13c-.27,1.52-.49,3-.7,4.57a32.39,32.39,0,0,0-.48,4.82A4.79,4.79,0,0,0,66,89.85c1.49,1.31,3.41,1,5,.17,2.94-1.43,5.8-3,8.69-4.58,2.67-1.4,5.92-2.59,7.73-5.14S89,74.65,89,71.79V62.06A66.68,66.68,0,0,1,89.36,53a23.47,23.47,0,0,1,.85-3.89A9.43,9.43,0,0,1,92,45.5c.36-.37.8-.78,1-.28a5.45,5.45,0,0,1-.08,2.94,13.29,13.29,0,0,1-8.28,9.57A9.53,9.53,0,0,1,78,58c-2.37-1-2.26-3.63-2-5.82a43.07,43.07,0,0,1,3-9.71,41.11,41.11,0,0,0,2.92-10.53c.63-6.08-2-12.54-7.92-14.89a2.2,2.2,0,0,0-2.69,1.53,2.25,2.25,0,0,0,1.53,2.69c4.93,1.95,5.32,8.55,4.31,12.91-1.51,6.51-5.2,12.35-5.59,19.15-.18,3.22.76,6.45,3.69,8.17a12.31,12.31,0,0,0,8.33,1.06,17.53,17.53,0,0,0,12.15-9.29,14.67,14.67,0,0,0,1.73-7.89,5.26,5.26,0,0,0-2.16-4,4.84,4.84,0,0,0-4.71-.16c-2.82,1.34-4.12,5-4.85,7.83a40.3,40.3,0,0,0-1,9.49c0,3.42,0,6.84,0,10.26,0,1.69,0,3.38,0,5.07a8.48,8.48,0,0,1-.59,3.6,6,6,0,0,1-2.92,2.32l-4.75,2.5-4.75,2.51L69.46,85.9a7,7,0,0,0-.91.44c.22-.17-.21.1-.2,0a5.94,5.94,0,0,1,.57.27s0-.7,0-1c0-.89.17-1.79.27-2.67.19-1.61.43-3.21.71-4.81s.65-3.43,1.05-5.13a15.17,15.17,0,0,0,.69-4.48c-.25-3.41-3.05-5.33-6.34-5s-6.47,1.41-9.63,2.2L50.5,67.05c-2.73.68-1.57,4.9,1.16,4.22Z" style="fill: #fff"/>
          <path d="M77.52,71.34a44.4,44.4,0,0,0,10.7-2,47.62,47.62,0,0,1,9.92-2.16,15.07,15.07,0,0,1,5,.44,3.76,3.76,0,0,1,1.68.81,4,4,0,0,1,.88,2.11,19.74,19.74,0,0,1-.5,10.06,14.44,14.44,0,0,1-2.09,4.52,1.52,1.52,0,0,1-.47.44c.3-.21.38.16,0-.12a2.29,2.29,0,0,1-.86-1.35,22.38,22.38,0,0,1-.34-10c1.12-6.32,4.45-13.36,10.1-16.83a10.55,10.55,0,0,1,9.14-1.23c2.65,1,4.49,3.39,5.75,5.84,2.7,5.28,3.75,12.8.79,18.18A4.85,4.85,0,0,1,126,81.72c-.33.24-.47.18-.83-.06a4.51,4.51,0,0,1-1.49-3.22,25,25,0,0,1,1.14-9.75c1.72-5.94,5.45-12.53,11.38-15.11,2.21-1,5.9-1.66,7.34.81s1,6.18.59,8.93c-1,7.3-3.72,14.35-3.73,21.78a28,28,0,0,0,.57,5.56,2.21,2.21,0,0,0,2.69,1.53,2.24,2.24,0,0,0,1.53-2.69c-1.69-8.39,2-16.75,3.15-25,.56-3.93,1-8.32-.83-12-2-4-6.68-4.75-10.69-3.77-8.06,2-13.38,10.14-15.84,17.55a29.73,29.73,0,0,0-1.66,12.11,10.16,10.16,0,0,0,2,5.52A5.56,5.56,0,0,0,127,86.08c2-.57,3.32-2.6,4.19-4.37a19.44,19.44,0,0,0,1.8-6.15,27.45,27.45,0,0,0-1.27-11.9,20,20,0,0,0-5.94-9.48,13.45,13.45,0,0,0-11.61-2.67C105.89,53.33,100.39,61.7,98,69.36A30.23,30.23,0,0,0,96.9,82.11c.28,2.11.65,4.34,2.09,6a4.8,4.8,0,0,0,6.07,1.09c1.76-1.09,2.71-3.33,3.48-5.17a24.39,24.39,0,0,0,1.64-12.89c-.31-2.16-.83-4.52-2.56-6-3.2-2.77-8.33-2.59-12.26-2-4.1.62-8,2.05-12,3a29.2,29.2,0,0,1-5.79.84c-2.81.08-2.82,4.46,0,4.37Z" style="fill: #fff"/>
          <path d="M112.25,42.3c11.69,6.08,25.21,3.43,36.83-1.35,3.52-1.45,7-3.05,10.42-4.67a2.21,2.21,0,0,0,.79-3,2.23,2.23,0,0,0-3-.79c-12.93,6.07-28.87,13.29-42.84,6-2.49-1.3-4.7,2.48-2.21,3.78Z" style="fill: #fff"/>
          <path d="M128.83,27.22a92.48,92.48,0,0,1-19.75.05,86.35,86.35,0,0,1-9.57-1.57c-2.26-.5-5.28-.86-7.08-2.48s-.4-4.42.8-6a12.29,12.29,0,0,1,6.51-4.14c5.19-1.48,11-.87,16,.83a31.09,31.09,0,0,1,14.26,10,2.19,2.19,0,0,0,3.09,0,2.23,2.23,0,0,0,0-3.09c-7.77-9.62-21.45-15-33.65-12.15a17.51,17.51,0,0,0-8.58,4.67c-2.3,2.38-4,5.8-3.53,9.19s3.31,5.17,6.24,6.18A60.47,60.47,0,0,0,103.79,31a95,95,0,0,0,25,.65A2.26,2.26,0,0,0,131,29.41a2.2,2.2,0,0,0-2.19-2.19Z" style="fill: #fff"/>
          <path d="M143.6,1.06a158.68,158.68,0,0,0-9.47,29.06c-.6,2.74,3.61,3.92,4.22,1.16a152.25,152.25,0,0,1,9-28,2.25,2.25,0,0,0-.79-3,2.21,2.21,0,0,0-3,.78Z" style="fill: #fff"/>
          <path d="M168.54,9.65Q165,36.11,162.82,62.71q-.63,7.5-1.15,15a2.19,2.19,0,1,0,4.37,0q1.86-26.62,5-53.13.89-7.47,1.87-14.93a2.2,2.2,0,0,0-2.19-2.19,2.24,2.24,0,0,0-2.18,2.19Z" style="fill: #fff"/>
          <path d="M171.81,78.29c-2.56,5.58-8.48,7.84-14,9.47-2.69.79-1.55,5,1.16,4.22,6.53-1.93,13.58-4.89,16.6-11.48a2.25,2.25,0,0,0-.78-3,2.2,2.2,0,0,0-3,.78Z" style="fill: #fff"/>
        </g>
        <g>
          <path d="M92.74,102a4.52,4.52,0,0,1-.51,0l-1,.07a44.9,44.9,0,0,0-5,.56,9.6,9.6,0,0,0-1.31.31.8.8,0,0,0-.34.2.72.72,0,0,1-.55.31.61.61,0,0,1-.31-.09.82.82,0,0,1-.35-.34,1.13,1.13,0,0,1-.1-.44v-.13a1.15,1.15,0,0,1,.63-.8,2.59,2.59,0,0,1,.95-.31,18.69,18.69,0,0,1,2.47-.29l.44,0c1.29-.1,2.58-.16,3.87-.17l1.33,0a.51.51,0,0,0,.51-.35L94,99.37c.09-.2.18-.38.27-.56a6.49,6.49,0,0,0,.4-1,1,1,0,0,1,.88-.82l.4-.09.34-.07a1.15,1.15,0,0,1,.33,0l.22,0c.21,0,.31.15.31.31a.34.34,0,0,1,0,.14,1.25,1.25,0,0,1-.11.31,14.69,14.69,0,0,0-.64,1.4c-.18.44-.38.88-.6,1.31a.88.88,0,0,0-.09.27v0s.12.07.29.07l1.22,0h3.22a7.69,7.69,0,0,1,1.07.07.86.86,0,0,1,.65.43,1.25,1.25,0,0,1,.19.61,1.37,1.37,0,0,1,0,.34.29.29,0,0,1-.27.2.16.16,0,0,1-.09,0h0l-1.43-.17-.31,0c-.28,0-.57-.07-.86-.09-.64,0-1.28,0-1.94,0s-1.24,0-1.86,0h-.09a.59.59,0,0,0-.29.07.77.77,0,0,0-.27.33c-.51,1.21-1,2.42-1.48,3.65a1.34,1.34,0,0,1-.07.18c-.71,1.78-1.45,3.55-2.22,5.29-.28.64-.56,1.28-.82,1.92q-1.51,4-3.25,8.77t-2.91,8.2a1,1,0,0,1,0,.2.65.65,0,0,0,0,.15.23.23,0,0,0,0,.07l0,0v0s0,0,0,0l0,0a.17.17,0,0,1,0,.07s0,.09,0,.14a1.65,1.65,0,0,0,0,.21,3.34,3.34,0,0,0-.2,1.11c0,.15,0,.3,0,.45v.06c0,.09,0,.14-.08.14a.35.35,0,0,1-.14,0l-.11,0a2.77,2.77,0,0,1-1.42-2.4,2.63,2.63,0,0,1,0-.49,12.93,12.93,0,0,1,.69-2.43c.54-1.39,1-2.73,1.45-4s.92-2.75,1.49-4.21q1.95-4.94,4.08-9.78.45-1,.87-2c.37-.86.72-1.72,1-2.58l.85-2.13c.12-.26.23-.54.35-.85Z" style="fill: #fff"/>
          <path d="M95.76,116.54l-.16.25-.44.62A5.45,5.45,0,0,1,94,118.63a1.45,1.45,0,0,1-.94.34h-.17a1.3,1.3,0,0,1-1.14-1.16c0-.12,0-.24,0-.36a3.2,3.2,0,0,1,.16-1A30.28,30.28,0,0,1,94.34,110v0a2.15,2.15,0,0,1,.38-.55,1.16,1.16,0,0,1,.82-.41,1.05,1.05,0,0,1,.55.18.86.86,0,0,1,.4.49,2.71,2.71,0,0,1,.05.34,1.16,1.16,0,0,1-.18.6,19.86,19.86,0,0,0-2.16,5.16l-.26.84v.11a.25.25,0,0,0,.12,0,.21.21,0,0,0,.1-.06h0a6.4,6.4,0,0,0,1.14-1c.29-.35.59-.72.88-1.09l.29-.33a3.3,3.3,0,0,0,.31-.51c.43-.86.88-1.71,1.36-2.54l.44-.8a3.73,3.73,0,0,1,.29-.44,1,1,0,0,1,.78-.4,1.07,1.07,0,0,1,.47.11.89.89,0,0,1,.51.82,1.49,1.49,0,0,1-.05.36,1.35,1.35,0,0,1-.2.44l-.75,1.43c-.21.37-.42.74-.62,1.13a11.53,11.53,0,0,0-.94,2.05,3.28,3.28,0,0,0-.2.82v.07q0,.15.09.15h0a1,1,0,0,0,.43-.2,5.9,5.9,0,0,0,.47-.37l.27-.25a26.88,26.88,0,0,0,2.47-2.74q.73-.91,1.62-1.89a2.91,2.91,0,0,1,.27-.24.3.3,0,0,1,.24-.11.37.37,0,0,1,.2.08.24.24,0,0,1,.11.2.51.51,0,0,1-.06.25,1.54,1.54,0,0,1-.23.29l-.71,1c-.65.9-1.47,1.94-2.45,3.12a11.09,11.09,0,0,1-2.37,2.3,3.09,3.09,0,0,1-1.24.54c-.48,0-.84-.34-1.09-1a2.71,2.71,0,0,1-.11-.8v-.49h0Z" style="fill: #fff"/>
          <path d="M109.36,115.25a.91.91,0,0,0,.31-.27.21.21,0,0,0,.06-.08c.88-1,1.8-2,2.76-2.9a18.8,18.8,0,0,1,1.58-1.38,3.22,3.22,0,0,1,.64-.42,1.64,1.64,0,0,1,.56-.11,1.24,1.24,0,0,1,.66.2,1.31,1.31,0,0,1,.6,1.09,2.43,2.43,0,0,1-.22.91,9.94,9.94,0,0,1-1,1.78c-.56.85-1.1,1.7-1.62,2.56l0,.09a1.12,1.12,0,0,0-.18.42h.13l.11-.06.07,0a16.12,16.12,0,0,0,2.6-2.16,9.71,9.71,0,0,0,.72-.8c.35-.41.72-.86,1.1-1.33l.8-1a7.61,7.61,0,0,1,.53-.61l.16-.06h.09a.18.18,0,0,1,.15.07.48.48,0,0,1,.18.35.42.42,0,0,1,0,.2c-.15.22-.57.75-1.27,1.57s-1.41,1.66-2.15,2.5l-1.49,1.69q-.54.55-1.11,1l-.27.24a3.85,3.85,0,0,1-.65.43,1.6,1.6,0,0,1-.71.17,1.2,1.2,0,0,1-.55-.13,1.38,1.38,0,0,1-.67-1.07,2.48,2.48,0,0,1,0-.29,2.7,2.7,0,0,1,.2-1,7.34,7.34,0,0,1,.67-1.38c.49-.83,1-1.64,1.53-2.44l.11-.16a.43.43,0,0,1,0-.07,1,1,0,0,0,.18-.4,1,1,0,0,0-.35.23.11.11,0,0,0-.07.06,15.73,15.73,0,0,0-2.75,2.72l-.58.71c-.67.8-1.31,1.62-1.93,2.47a3.74,3.74,0,0,1-.27.31,1,1,0,0,1-.71.31,1.2,1.2,0,0,1-.45-.09,1,1,0,0,1-.64-1,1.87,1.87,0,0,1,.13-.71v0a18.79,18.79,0,0,1,1.2-3.07c.14-.27.26-.53.38-.78l.67-1.36c0-.1.09-.21.13-.33l.09-.18a.24.24,0,0,0-.15,0l-.1.09a.05.05,0,0,1,0,0,25.38,25.38,0,0,0-1.91,2.24l-1.93,2.54-.43.53c-.25.34-.48.69-.71,1a2.33,2.33,0,0,1-.26.38,1.19,1.19,0,0,1-.85.4l-.2,0a1.11,1.11,0,0,1-.82-.73,2.28,2.28,0,0,1-.13-.78,2.12,2.12,0,0,1,0-.44,6.08,6.08,0,0,1,.33-1.32,31.21,31.21,0,0,1,2.14-4.8,3.72,3.72,0,0,1,.57-.85,1.41,1.41,0,0,1,.8-.44h.14a.79.79,0,0,1,.55.2.82.82,0,0,1,.27.64,1.36,1.36,0,0,1-.27.78v0a38.94,38.94,0,0,0-2.06,4.45.29.29,0,0,1,0,.09.64.64,0,0,0-.06.16.45.45,0,0,0,0,.11v.11a5.46,5.46,0,0,0,1.06-1.09q1-1.38,1.92-2.85l.22-.33a7.08,7.08,0,0,1,1.58-1.82c.13-.11.27-.21.42-.32a1.57,1.57,0,0,1,.71-.2,1.18,1.18,0,0,1,.55.14,1.38,1.38,0,0,1,.78,1,2.68,2.68,0,0,1,0,.4,2.61,2.61,0,0,1-.09.69,4.62,4.62,0,0,1-.4,1.11l-.53,1.11-.38.8,0,.09A.69.69,0,0,0,109.36,115.25Z" style="fill: #fff"/>
          <path d="M119.46,115.92a.54.54,0,0,0,.29-.2.23.23,0,0,0,.07-.07,40.58,40.58,0,0,0,2.8-3.07l0,0s0,0,0-.05a18.33,18.33,0,0,1,1.46-1.6l.58-.47a2.18,2.18,0,0,1,.71-.37A1.89,1.89,0,0,1,126,110a1.34,1.34,0,0,1,.89.31,1.49,1.49,0,0,1,.47,1.16v.18a4.36,4.36,0,0,1-.36,1.2c-.18.4-.32.75-.43,1s-.21.59-.3.87-.29.84-.51,1.4a.31.31,0,0,1,0,.13,4.7,4.7,0,0,0-.17.45.91.91,0,0,0-.08.37c0,.08,0,.12.08.12a.37.37,0,0,0,.15,0,5.56,5.56,0,0,0,1.79-1.53c.64-.77,1.25-1.57,1.83-2.38a18.48,18.48,0,0,1,1.42-1.78l0,0a1.11,1.11,0,0,1,.15-.12l.11,0a.26.26,0,0,1,.18.09.18.18,0,0,1,.07.15v0a.72.72,0,0,1-.09.2.08.08,0,0,0,0,0c-.3.55-.89,1.47-1.78,2.75a27.71,27.71,0,0,1-2.7,3.35c-.91.95-1.64,1.42-2.19,1.42a.92.92,0,0,1-.29,0,1.64,1.64,0,0,1-.91-1.4v-.29a3.9,3.9,0,0,1,.27-1.43c.16-.47.3-.87.4-1.2s.21-.65.32-1,.26-.7.46-1.16l0-.09a1,1,0,0,0,.09-.34l-.07,0-.13.07,0,0a7.22,7.22,0,0,0-1.11,1,32.69,32.69,0,0,0-2.69,3.29c-.08.12-.16.23-.25.34l-.84,1.13a7.34,7.34,0,0,1-.51.6,1.7,1.7,0,0,1-.67.47,1.27,1.27,0,0,1-.6.15,1.33,1.33,0,0,1-.75-.26,1.25,1.25,0,0,1-.49-1,1.23,1.23,0,0,1,0-.27,12.89,12.89,0,0,1,.87-2.91c.59-1.44,1.22-2.87,1.88-4.27a2.17,2.17,0,0,1,.43-.61,1.09,1.09,0,0,1,.66-.26,1.07,1.07,0,0,1,.58.18,1,1,0,0,1,.42.8,1.24,1.24,0,0,1-.06.37c-.12.3-.25.58-.38.85l-.18.42c-.46,1-.91,2.05-1.35,3.07,0,0,0,0,0,0A1.26,1.26,0,0,0,119.46,115.92Z" style="fill: #fff"/>
          <path d="M129.93,116.83l.07,0s.07,0,.08-.07a11.21,11.21,0,0,0,2.27-2.63.72.72,0,0,0,.13-.42.55.55,0,0,0,0-.18,1.75,1.75,0,0,1,0-.4,1.62,1.62,0,0,1,.2-.78.88.88,0,0,1,.73-.46.74.74,0,0,1,.78.66v.25a1.13,1.13,0,0,0,.26.78,1.07,1.07,0,0,0,.71.27,2,2,0,0,0,.85-.23,7.67,7.67,0,0,0,1.73-1.09c.52-.43.92-.78,1.2-1a.37.37,0,0,1,.25-.11.29.29,0,0,1,.17.08.37.37,0,0,1,.09.23.29.29,0,0,1-.11.22,7.81,7.81,0,0,1-2.06,1.91,5.21,5.21,0,0,1-3,1.09,3.56,3.56,0,0,1-.55,0,.37.37,0,0,0-.16,0,.16.16,0,0,0-.09,0c-.06,0-.1.06-.13.15-.4.77-.83,1.51-1.29,2.23a9.9,9.9,0,0,1-.89,1.26,2.67,2.67,0,0,1-1.2.89,1.58,1.58,0,0,1-.57.12,1.52,1.52,0,0,1-.74-.2,1.73,1.73,0,0,1-.8-1.07,2.57,2.57,0,0,1-.09-.67,2.6,2.6,0,0,1,.07-.56,2.87,2.87,0,0,1,.11-.57,14.86,14.86,0,0,1,3.2-5.83,7.26,7.26,0,0,1,1.27-1.09,2.62,2.62,0,0,1,1-.43l.31,0a1.37,1.37,0,0,1,.82.25,1.58,1.58,0,0,1,.64,1,2.63,2.63,0,0,1,0,.49,2.09,2.09,0,0,1-.4,1.22.66.66,0,0,1-.16.17.41.41,0,0,1-.18.05l-.11,0a.48.48,0,0,1-.31-.4,2.15,2.15,0,0,0-.15-.51.18.18,0,0,0-.16-.14.24.24,0,0,0-.13,0l-.11.09-.23.17a8.45,8.45,0,0,0-1.33,1.41,13.64,13.64,0,0,0-1.86,3.62s0,0,0,0a.19.19,0,0,0,0,.12v.21Z" style="fill: #fff"/>
          <path d="M138.9,115.92a.54.54,0,0,0,.29-.2.23.23,0,0,0,.07-.07,40.58,40.58,0,0,0,2.8-3.07l0,0s0,0,0-.05a18.33,18.33,0,0,1,1.46-1.6l.58-.47a2.18,2.18,0,0,1,.71-.37,1.89,1.89,0,0,1,.51-.07,1.34,1.34,0,0,1,.89.31,1.49,1.49,0,0,1,.47,1.16v.18a4.36,4.36,0,0,1-.36,1.2c-.18.4-.32.75-.43,1s-.21.59-.3.87-.29.84-.51,1.4a.31.31,0,0,1-.05.13q-.09.21-.18.45a1,1,0,0,0-.07.37c0,.08,0,.12.07.12a.37.37,0,0,0,.16,0,5.56,5.56,0,0,0,1.79-1.53c.64-.77,1.25-1.57,1.83-2.38a18.48,18.48,0,0,1,1.42-1.78l0,0a1.11,1.11,0,0,1,.15-.12l.11,0a.26.26,0,0,1,.18.09.18.18,0,0,1,.07.15v0a.72.72,0,0,1-.09.2,0,0,0,0,0,0,0c-.3.55-.89,1.47-1.78,2.75a27.71,27.71,0,0,1-2.7,3.35c-.91.95-1.64,1.42-2.19,1.42a.92.92,0,0,1-.29,0,1.64,1.64,0,0,1-.91-1.4v-.29a3.9,3.9,0,0,1,.27-1.43c.16-.47.3-.87.4-1.2s.21-.65.32-1,.26-.7.46-1.16l0-.09a1,1,0,0,0,.09-.34l-.07,0-.13.07,0,0a7.79,7.79,0,0,0-1.12,1,34,34,0,0,0-2.68,3.29c-.08.12-.16.23-.25.34l-.84,1.13a7.34,7.34,0,0,1-.51.6,1.7,1.7,0,0,1-.67.47,1.27,1.27,0,0,1-.6.15,1.33,1.33,0,0,1-.75-.26,1.25,1.25,0,0,1-.49-1,1.23,1.23,0,0,1,0-.27A12.89,12.89,0,0,1,137,115c.59-1.44,1.22-2.87,1.88-4.27a2.17,2.17,0,0,1,.43-.61,1,1,0,0,1,1.24-.08,1,1,0,0,1,.42.8,1.24,1.24,0,0,1-.06.37c-.12.3-.25.58-.38.85s-.12.29-.18.42L139,115.56s0,0,0,0A1.26,1.26,0,0,0,138.9,115.92Z" style="fill: #fff"/>
          <path d="M151.94,115.81a.77.77,0,0,0-.18.1.38.38,0,0,0-.13.12.21.21,0,0,0,0,.07l-.44.49c-.33.35-.67.7-1,1a4.35,4.35,0,0,1-1,.76,1.7,1.7,0,0,1-.8.22,1.11,1.11,0,0,1-.6-.18,1.36,1.36,0,0,1-.67-1.22v-.11a3.52,3.52,0,0,1,.2-1.18,11,11,0,0,1,.89-1.94,13.91,13.91,0,0,1,2.71-3.47,5.69,5.69,0,0,1,2.42-1.35,2,2,0,0,1,.58-.09,2.12,2.12,0,0,1,.44,0,.87.87,0,0,1,.69.8v0a2,2,0,0,1-.75,1.6.12.12,0,0,1-.09,0h-.07a.15.15,0,0,1-.09,0,.12.12,0,0,1-.06-.1v-.14a1,1,0,0,1,.06-.25,1.17,1.17,0,0,0,.05-.11v0a.59.59,0,0,0,0-.19.51.51,0,0,0,0-.1.41.41,0,0,0,0-.16,5.36,5.36,0,0,0-1.74,1.29,17.11,17.11,0,0,0-1.92,2.34,7.54,7.54,0,0,0-1.14,2.22.47.47,0,0,0,.17,0,.45.45,0,0,0,.14-.1l.07,0c.7-.48,1.37-1,2-1.52.17-.13.32-.26.47-.4l.29-.22a1.68,1.68,0,0,1,.29-.24,3.28,3.28,0,0,0,.84-.94,2.77,2.77,0,0,1,.71-.78,1,1,0,0,1,.32-.19l.19,0a.59.59,0,0,1,.31.09.72.72,0,0,1,.38.64,1,1,0,0,1,0,.16,3.73,3.73,0,0,1-.27,1c-.25.57-.52,1.15-.82,1.71s-.64,1.22-1,1.92-.63,1.36-.89,2c0,0,0,0,0,0a.93.93,0,0,0-.06.25v0s.07,0,.17,0h.11q.54,0,1.38,0H155l3.2.09,3,.06h2.76a.65.65,0,0,1,.2,0,1.83,1.83,0,0,1,.33,0h.16a1.38,1.38,0,0,1,.53.17s0,0,0,0a.43.43,0,0,1,.17.12.23.23,0,0,1,.07.17v.06a.61.61,0,0,1-.36.54,3.58,3.58,0,0,1-1.51.35,3.32,3.32,0,0,1-1.15-.2,15.8,15.8,0,0,0-2.78-.3q-2.17-.12-4-.15c-1.23,0-2.12,0-2.67,0h-.64a.45.45,0,0,0-.47.34l-.88,2c-.2.41-.38.81-.56,1.21a35.18,35.18,0,0,1-2.84,5.18,12,12,0,0,1-1.67,2.09,5.71,5.71,0,0,1-4.13,1.71,4.22,4.22,0,0,1-2.82-1,9.72,9.72,0,0,1-2.31-2.94,6.47,6.47,0,0,1-.78-2.89,6.36,6.36,0,0,1,.06-.87,4.51,4.51,0,0,1,2.25-3,10.32,10.32,0,0,1,3-1.18,33.22,33.22,0,0,1,5-.83l3.2-.31.34,0a.56.56,0,0,0,.23,0,.37.37,0,0,0,.17-.18c.49-1.05,1-2.17,1.62-3.34C151.78,116.15,151.87,116,151.94,115.81ZM139.7,130.76a2.72,2.72,0,0,0,1.65.58,2.07,2.07,0,0,0,.35,0,4.15,4.15,0,0,0,2-.8,8.05,8.05,0,0,0,1.87-2,34.77,34.77,0,0,0,4-7.57s0-.08,0-.11v-.07c0-.07,0-.11-.09-.11h-.29l-.93.09-2,.18a35.4,35.4,0,0,0-4.68.67,8.77,8.77,0,0,0-3.09,1.2c-1.13.78-1.72,1.46-1.78,2s-.09.92-.09,1.07a4.51,4.51,0,0,0,.76,2.45A8.83,8.83,0,0,0,139.7,130.76Z" style="fill: #fff"/>
          <path d="M162.1,102a4.52,4.52,0,0,1-.51,0l-1,.07a44.9,44.9,0,0,0-5,.56,9.6,9.6,0,0,0-1.31.31.8.8,0,0,0-.34.2.72.72,0,0,1-.55.31.61.61,0,0,1-.31-.09.82.82,0,0,1-.35-.34,1.13,1.13,0,0,1-.1-.44v-.13a1.15,1.15,0,0,1,.63-.8,2.59,2.59,0,0,1,1-.31,18.69,18.69,0,0,1,2.47-.29l.44,0c1.29-.1,2.58-.16,3.87-.17l1.33,0a.51.51,0,0,0,.51-.35l.49-1.07c.09-.2.18-.38.27-.56a6.49,6.49,0,0,0,.4-1,1,1,0,0,1,.88-.82l.4-.09.34-.07a1.15,1.15,0,0,1,.33,0l.22,0c.21,0,.31.15.31.31a.34.34,0,0,1,0,.14,1.25,1.25,0,0,1-.11.31,14.69,14.69,0,0,0-.64,1.4c-.18.44-.38.88-.6,1.31a.88.88,0,0,0-.09.27v0s.12.07.29.07l1.22,0h3.22a7.69,7.69,0,0,1,1.07.07.86.86,0,0,1,.65.43,1.25,1.25,0,0,1,.19.61,1.37,1.37,0,0,1,0,.34.29.29,0,0,1-.27.2.16.16,0,0,1-.09,0h0l-1.43-.17-.31,0c-.28,0-.57-.07-.86-.09-.64,0-1.28,0-1.94,0s-1.24,0-1.86,0h-.09a.59.59,0,0,0-.29.07.77.77,0,0,0-.27.33c-.51,1.21-1,2.42-1.48,3.65a1.34,1.34,0,0,1-.07.18c-.71,1.78-1.45,3.55-2.22,5.29-.28.64-.56,1.28-.82,1.92q-1.51,4-3.25,8.77t-2.91,8.2a1,1,0,0,1,0,.2.65.65,0,0,0-.05.15.23.23,0,0,0,0,.07l0,0v0s0,0,0,0l0,0a.17.17,0,0,1,0,.07s0,.09,0,.14a1.65,1.65,0,0,0,0,.21,3.34,3.34,0,0,0-.2,1.11c0,.15,0,.3,0,.45v.06c0,.09,0,.14-.08.14a.35.35,0,0,1-.14,0l-.11,0a2.77,2.77,0,0,1-1.42-2.4,2.63,2.63,0,0,1,0-.49,12.93,12.93,0,0,1,.69-2.43c.54-1.39,1-2.73,1.45-4s.92-2.75,1.49-4.21q1.95-4.94,4.08-9.78.45-1,.87-2c.37-.86.72-1.72,1-2.58l.85-2.13c.12-.26.23-.54.35-.85Z" style="fill: #fff"/>
          <path d="M166,114.63a.73.73,0,0,0-.31.24l0,.09-.89,1.05c-.4.46-.8.92-1.2,1.4a10.28,10.28,0,0,1-1.2,1.18,2.31,2.31,0,0,1-.66.44,1.31,1.31,0,0,1-.54.11,1.07,1.07,0,0,1-.51-.13,1.18,1.18,0,0,1-.6-.82,2.74,2.74,0,0,1-.06-.56,2.39,2.39,0,0,1,.06-.53,12.66,12.66,0,0,1,3.43-6.25,4.22,4.22,0,0,1,1.13-.8.38.38,0,0,1,.18-.09,2.12,2.12,0,0,1,.77-.16,1.47,1.47,0,0,1,1.11.49,1.22,1.22,0,0,1,.33.67c0,.19,0,.3,0,.33a2.2,2.2,0,0,1-.22.94s0,0,0,0a.15.15,0,0,1,0,.06l-.12.15a.17.17,0,0,1-.13.05.11.11,0,0,1-.08,0,.17.17,0,0,1-.15-.1.74.74,0,0,1-.05-.19.16.16,0,0,0,0-.09,3,3,0,0,0-.06-.42c0-.15-.06-.22-.09-.23h-.07a.43.43,0,0,0-.22.11,5.77,5.77,0,0,0-1.22,1.09,12.42,12.42,0,0,0-2.31,4.18v0a.13.13,0,0,0,0,.08V117a.16.16,0,0,0,0,.09,1.34,1.34,0,0,0,.44-.27l.09-.07a22.31,22.31,0,0,0,3.51-3.36,5.36,5.36,0,0,0,.87-1.33,6,6,0,0,1,.37-.71l.09-.18a1.89,1.89,0,0,1,.38-.49.83.83,0,0,1,.6-.27.86.86,0,0,1,.27,0,.84.84,0,0,1,.57.73l0,.2a1.66,1.66,0,0,1-.11.58c-.14.34-.28.68-.43,1s-.31.67-.42.89-.25.5-.35.75a7.25,7.25,0,0,0-.34,1,8.06,8.06,0,0,0-.26,1.16l-.05.35v0c0,.16,0,.24.11.24a.37.37,0,0,0,.23-.11,7.12,7.12,0,0,0,.88-.78l.63-.64a24.94,24.94,0,0,0,3.59-4.12,2,2,0,0,1,.43-.38.19.19,0,0,1,.13-.06.25.25,0,0,1,.16.06.25.25,0,0,1,.08.18.23.23,0,0,1,0,.11,1.72,1.72,0,0,1-.29.49l-.73,1c-.73,1-1.51,2.09-2.37,3.2a17.94,17.94,0,0,1-2.29,2.54,1.57,1.57,0,0,1-.94.36h-.15a1.43,1.43,0,0,1-1-.6,2.44,2.44,0,0,1-.45-1.42v-.07a6.3,6.3,0,0,1,.38-2c0-.11.06-.2.09-.29a.36.36,0,0,0,0-.11Z" style="fill: #fff"/>
        </g>
        <rect x="1.56" y="110.37" width="72.31" height="3.27" rx="1.64" style="fill: #fff"/>
        <path d="M9,34.55c0-.06,2.34-6,12.67-9.54l.65-.22a1.35,1.35,0,0,0,.66-2.08l-.4-.55a11,11,0,0,0-5.74-3.86,8.86,8.86,0,0,0-4.31.05,10.1,10.1,0,0,0-1.1.36,2,2,0,0,0-1.6-1,2.4,2.4,0,0,0-2.36,1.63,2.13,2.13,0,0,0,.27,1.87c-2.19,2.49-3.24,6.32-1.16,9.59a1.3,1.3,0,0,0,.59.5,9.85,9.85,0,0,0-.77,2.54,1.34,1.34,0,0,0,1,1.53,1.32,1.32,0,0,0,.34,0A1.35,1.35,0,0,0,9,34.55Zm3.71-12.38a5.36,5.36,0,0,1,1.89-.35,5.06,5.06,0,0,1,2.68.79,23.48,23.48,0,0,0-8.39,6,6.84,6.84,0,0,1,.88-3.88A5.81,5.81,0,0,1,12.66,22.17Z" style="fill: #fff"/>
        <path d="M27.54,27.77a15.46,15.46,0,0,0-4.92.65,22.19,22.19,0,0,0-9.75,5.73,28.69,28.69,0,0,0-5.34,7.56,2.24,2.24,0,0,0,.78,3,2.2,2.2,0,0,0,3-.78,24.8,24.8,0,0,1,5.32-7.31,15.74,15.74,0,0,1,2.77-2.07q.63-.39,1.29-.72l.71-.35.36-.15h0a19.37,19.37,0,0,1,2.41-.78q.54-.13,1.11-.24c.17,0,.34,0,.5-.08.4-.08-.59.05,0,0a11.79,11.79,0,0,1,1.78-.08,2.19,2.19,0,1,0,0-4.37Z" style="fill: #fff"/>
      </g>
    </g>
  </g>
</svg>
