<svg xmlns="http://www.w3.org/2000/svg" viewBox="0 0 52.67 52.67"><defs><style>.cls-1{fill:#fff;}</style></defs><title>verified</title><g id="Layer_2" data-name="Layer 2"><g id="Layer_1-2" data-name="Layer 1"><path class="cls-1" d="M52.67,27.59a10.09,10.09,0,0,0-5.39-9,10.39,10.39,0,0,0,.6-3.51A9.81,9.81,0,0,0,38.3,5,9,9,0,0,0,35,5.65a9.4,9.4,0,0,0-17.23,0A9.14,9.14,0,0,0,14.37,5a9.8,9.8,0,0,0-9.58,10,10.64,10.64,0,0,0,.59,3.51,10.27,10.27,0,0,0-.51,17.77,11,11,0,0,0-.08,1.29,9.81,9.81,0,0,0,9.58,10A9.1,9.1,0,0,0,17.71,47,9.4,9.4,0,0,0,35,47a9.11,9.11,0,0,0,3.35.63,9.82,9.82,0,0,0,9.58-10,10.86,10.86,0,0,0-.08-1.28,10.14,10.14,0,0,0,4.87-8.74ZM36.08,19.23,25.21,35.53a1.9,1.9,0,0,1-2.61.52l-.29-.24-6.06-6.05a1.88,1.88,0,1,1,2.66-2.66l4.44,4.43,9.59-14.4a1.89,1.89,0,0,1,3.14,2.09Z"/></g></g></svg>