<svg xmlns="http://www.w3.org/2000/svg" xmlns:xlink="http://www.w3.org/1999/xlink" viewBox="0 0 500 750">
  <defs>
    <clipPath id="clip-path">
      <rect width="500" height="750" style="fill: none"/>
    </clipPath>
  </defs>
  <title>background</title>
  <g id="OBJECTS">
    <g style="clip-path: url(#clip-path)">
      <g>
        <rect width="500" height="750" transform="translate(500 750) rotate(180)" style="fill: #f9d5b7"/>
        <polygon points="500 407.52 0 465.14 0 0 500 0 500 407.52" style="fill: #fff4ef"/>
        <rect y="20" width="500" height="750" transform="translate(500 790) rotate(180)" style="fill: none"/>
        <path d="M512.41,692.88c-5.47-3.27-11.33-.78-14.79,3.88-6.37,8.58-19.85.9-25.25-4.32-9.25-8.94-15.22-20.64-23.71-30.25-17.64-20-42.71-25.47-68.28-20.26-26.27,5.34-47.66,22.11-71.29,33.6-16,7.77-40.12,13.87-55.47,1.12-7.13-5.91-9.45-15.38-11.78-23.93-2.79-10.27-5.36-21-11-30.23-14.31-23.4-42.82-27.77-67.19-18.77-12.53,4.63-23.61,11.86-35.3,18.16-8.84,4.77-18.63,8.94-28.89,7.22-10.5-1.75-13.61-9.08-14.19-19-.74-12.66-1.09-24.86-6.23-36.66C68.83,550,44.38,532.84,18.39,533.93a63.88,63.88,0,0,0-57.6,42.71c-3,8.58,10.74,14.48,14.79,6.23,9.31-19,31.78-31.43,52.67-24.49a43.52,43.52,0,0,1,22.57,17.84c6,9.56,6.12,19,6.2,30,.1,13.62,2.09,27.54,11.57,38,8.07,8.92,19.49,13.17,31.19,14.43,27.56,3,47.51-15.37,71.41-25,7.94-3.22,18.86-5.9,26.88-1.65,7.73,4.1,10,13.94,12.17,21.68,6,21.73,13.16,43.24,35.27,53.44,23,10.61,48.62,7.41,71.25-2.41,23.53-10.22,43.78-28.31,68.51-35.61,11.71-3.45,24.81-5.47,36.31-.1,12.65,5.9,19.47,19.69,27.81,30.17s19.27,20,33,22.1c13.52,2.1,25.74-2.61,33.93-13.53C519.82,703,517,695.64,512.41,692.88Z" style="fill: #ffb54a"/>
        <g>
          <g>
            <path d="M119,479.32a37.81,37.81,0,0,0-8.19-21.78,48.58,48.58,0,0,0,3-22.14c-.21-2-.82-4.35-2.73-5-1.45-.5-2.88.26-4,1.37a165.51,165.51,0,0,0-9.27,15.6c-1.07,2.1-1.9,4.33-3,6.41a4.57,4.57,0,0,1-2.67,2.47c-1.88.61-4.08.56-6,.82-1,.12-1.92.21-2.87.27A126.24,126.24,0,0,0,90,507.62,22.92,22.92,0,0,1,108,502a13.9,13.9,0,0,1,5.41-1.23A37.8,37.8,0,0,0,119,479.32Z" style="fill: #ffa383"/>
            <path d="M228.44,647.36c-23.38,10.16-38.16,40.65-46.92,72.42-36.66-36.46-79-118.81-97.56-167-2.3-6-4.47-12.14-4.93-18.55-.41-5.64.65-11.59,3.78-16.26a22.84,22.84,0,0,1,6.11-16.79A13.72,13.72,0,0,1,90.09,500,22.89,22.89,0,0,1,108,494.36a14,14,0,0,1,5.41-1.23,18.37,18.37,0,0,1,9.37,2.2c5.62,3,9.66,8.27,13.29,13.5a239.59,239.59,0,0,1,30.16,59.79C185.39,578.1,215.68,630.25,228.44,647.36Z" style="fill: #47a091"/>
            <path d="M92.79,537.79a50.75,50.75,0,0,1-6.44-16.2,1.17,1.17,0,0,0-2.29.47,52.26,52.26,0,0,0,6.64,16.77C91.48,540.1,93.58,539.08,92.79,537.79Z" style="fill: #332623"/>
            <path d="M128.4,515.22q-5.09-8.87-11-17.23c-.87-1.23-2.62.32-1.76,1.54q5.73,8.12,10.67,16.74C127.05,517.57,129.15,516.54,128.4,515.22Z" style="fill: #332623"/>
          </g>
          <g>
            <path d="M368.26,447.31a37.85,37.85,0,0,1,4.17-22.9,48.57,48.57,0,0,1-6.87-21.26c-.15-2,0-4.42,1.8-5.41,1.34-.75,2.88-.26,4.22.63a166.43,166.43,0,0,1,11.9,13.69c1.43,1.88,2.64,3.93,4.09,5.78a4.6,4.6,0,0,0,3.07,2c1.95.26,4.12-.18,6.07-.28,1,0,1.93-.13,2.88-.24a126.3,126.3,0,0,1,2.23,50.7,22.93,22.93,0,0,0-18.66-2.38,14.1,14.1,0,0,0-5.54-.25A37.79,37.79,0,0,1,368.26,447.31Z" style="fill: #ffa383"/>
            <path d="M292,638.16c24.81,5.83,44.8,33.2,59.08,62.9,29.57-42.41,56.54-131,66.23-181.75,1.19-6.3,2.23-12.74,1.54-19.13-.6-5.63-2.7-11.29-6.62-15.32a22.81,22.81,0,0,0-9-15.44c-.44-.32-.89-.63-1.35-.9a22.89,22.89,0,0,0-18.66-2.37,13.74,13.74,0,0,0-5.54-.25,18.16,18.16,0,0,0-8.82,3.84c-5,4-8,9.86-10.68,15.65a239.71,239.71,0,0,0-19,64.2C322.06,562.33,301.55,619.05,292,638.16Z" style="fill: #47a091"/>
            <path d="M378.42,471.55a90.61,90.61,0,0,0-8.85,17.9,1.17,1.17,0,0,0,2.21.77,87.34,87.34,0,0,1,8.58-17.36C381.17,471.59,379.24,470.28,378.42,471.55Z" style="fill: #332623"/>
            <path d="M402.5,484.83a99.26,99.26,0,0,1-4.41,20.53,1.17,1.17,0,0,0,2.2.78A102.08,102.08,0,0,0,404.83,485C405,483.49,402.66,483.33,402.5,484.83Z" style="fill: #332623"/>
          </g>
          <path d="M376.21,567.81a27.85,27.85,0,0,1,8.67,18.39,30.19,30.19,0,0,1-5.39,19.9,37.09,37.09,0,0,1-18,13.24c-16.06,5.69-33.48.37-46.73-9.5a51.16,51.16,0,0,1-12.44,18.77c-10.55,10.14-25.12,15.67-39.73,14.28A52.67,52.67,0,0,1,226,622.66a44,44,0,0,1-15.9,13.41c-12,6-26.72,7.12-39.18,1.92-12.21-5.08-24.24-18.8-19.91-32.76a40.29,40.29,0,0,1-39.55-30.43c-2.37-9-2-18.61-.29-27.71,3.4-18.34,12.42-35.12,16.36-53.27,0-.37.08-.74.13-1.11,0,0,8.63-89.73,111.71-95.66,98.33-5.67,124.8,67.64,127,74.42,3,3,6,6.14,8.81,9.35a205.38,205.38,0,0,1,19.56,25.73c5.2,8.25,9.37,17.62,8.75,27.58C402.49,549.48,391.35,564.22,376.21,567.81Z" style="fill: #332623"/>
          <g>
            <path d="M279.71,633.18s-20.57,11.14-43.59,1.62l.24-4h0c1.27-.15,42-2.56,42.37-2.65Z" style="fill: #ed7854"/>
            <path d="M370,782.16a62.38,62.38,0,0,1-5.46,8.16c-6.79,8.32-17.45,14.76-42.65,17.3,0,0-28.34,17.25-62.82,19.48s-50.36-13.73-50.36-13.73-13.15,2.31-22.2-2.25a15.14,15.14,0,0,1-5.54-4.58c-3.82-5.24-7.36-47.46-1-88.73,5-32.57,16.18-64.56,38.23-77.36a42.87,42.87,0,0,1,17.89-5.65c23,9.51,43.59-1.61,43.59-1.61a57.07,57.07,0,0,1,23,1.83,49.66,49.66,0,0,1,29.79,23.45c6.53,11.23,14.16,28.87,20.9,47.39C365.36,738.72,374.54,774.38,370,782.16Z" style="fill: #60bfb2"/>
            <g>
              <path d="M339.78,719.67c-8.27-27.37-28.47-51.87-57.36-58.25-29-6.41-57,8.55-71.33,34-9.1,16.13-12.37,34.85-12.19,53.2.11,10.33,16.18,10.19,16.08-.19-.25-24.19,6.79-50.82,28.17-64.84,19.83-13,45.24-8.22,61.89,7.81,9.27,8.93,15.55,20.37,19.25,32.62C327.28,733.87,342.78,729.61,339.78,719.67Z" style="fill: #ff7b4d"/>
              <path d="M321.39,727.07c-5.69-12.77-12.07-25.84-23.06-34.92s-24.76-13.07-38.71-9.37c-13.37,3.55-24.3,13.34-30.84,25.34-7.32,13.43-9.34,28.86-9,44,.21,10.32,16.29,10.19,16.07-.19-.42-20.51,5-47.49,28.11-53.61S299.87,718,307.5,735.16c1.77,4,7.53,4.91,11,2.89C322.58,735.67,323.16,731,321.39,727.07Z" style="fill: #f9eadc"/>
              <path d="M299.84,736.29c-3-7.84-6.16-15.78-12.07-21.95s-14.41-9.75-22.8-8.61c-19.44,2.63-24.55,28.07-24.84,44.15-.19,10.33,15.88,10.17,16.07-.18a58.67,58.67,0,0,1,3.45-19c1.26-3.52,3.35-8.59,7.57-9.19,9.62-1.35,14.53,12.26,17.14,19.05,1.55,4,5.43,6.84,9.9,5.59C298.13,745.11,301.41,740.37,299.84,736.29Z" style="fill: #ffb54a"/>
            </g>
          </g>
          <g>
            <path d="M138.58,497.76h-.14a.35.35,0,0,1,.06-.16A.55.55,0,0,0,138.58,497.76Z" style="fill: #ffa383"/>
            <path d="M410.27,511.93c-.85,10.81-5.17,21.48-13.17,28.94a37.08,37.08,0,0,1-20.27,9.6c-8.18,49.08-54.25,74.71-111.66,80.57s-107.69-9.95-125.61-56.36a37.14,37.14,0,0,1-21.79-5.32C108.42,563.68,102,554.1,99,543.69c-2.93-10.09-3.29-21.42.48-31.37,3.82-10.17,12.7-17.68,23.82-18.1a25.16,25.16,0,0,1,14.83,4.25,122.8,122.8,0,0,1,224.71-22.92,25.13,25.13,0,0,1,13.67-7.16c11-1.84,21.16,3.73,27,12.91C409.16,490.29,411.1,501.45,410.27,511.93Z" style="fill: #ffa383"/>
            <path d="M138.58,497.76h-.14a.35.35,0,0,1,.06-.16A.55.55,0,0,0,138.58,497.76Z" style="fill: #332623"/>
            <circle cx="331.46" cy="555.01" r="21.01" style="fill: #ed7854"/>
            <circle cx="298.48" cy="529.07" r="29.88" style="fill: #f9eadc"/>
            <circle cx="295.55" cy="522.66" r="25.89" style="fill: #332623"/>
            <path d="M271,511.24a28.08,28.08,0,0,1,20.44-14.82c9.33-1.59,19,1.4,26.4,7.1A43.2,43.2,0,0,1,328,514.91c1.25,2-1.74,4.17-3,2.15-5.61-9-14.45-15.87-25.17-17.16-10.21-1.24-20.82,3.51-25.52,12.9C273.26,514.92,269.9,513.38,271,511.24Z" style="fill: #332623"/>
            <circle cx="176.31" cy="569.5" r="21.01" style="fill: #ed7854"/>
            <circle cx="203.92" cy="537.91" r="29.88" style="fill: #f9eadc"/>
            <circle cx="205.87" cy="532.96" r="25.89" style="fill: #332623"/>
            <path d="M227.74,515.28a28,28,0,0,0-22.84-10.77c-9.46.16-18.39,4.89-24.62,11.86a43.13,43.13,0,0,0-7.92,13.08c-.86,2.21,2.48,3.77,3.35,1.56,3.86-9.86,11.26-18.27,21.56-21.53,9.8-3.11,21.11-.41,27.47,8C226.17,519.32,229.18,517.18,227.74,515.28Z" style="fill: #332623"/>
            <g>
              <path d="M220.43,575.48a20.86,20.86,0,0,0,4.63,11,27.12,27.12,0,0,0,25.3,9.91c.65-.09,1.3-.21,1.94-.36,4.57-1,9.22-3.35,12.12-7.13a12.73,12.73,0,0,0,1.92-12.27,12.37,12.37,0,0,0-9.45-8.06c-.33-.05-.68-.09-1-.12a22.5,22.5,0,0,1-12.7-4.67c-.27-.24-.56-.46-.86-.68-4.22-3.05-10.1-4.05-14.85-1.63a13.81,13.81,0,0,0-7,10.82A15.37,15.37,0,0,0,220.43,575.48Z" style="fill: #332623"/>
              <path d="M220.43,575.48a20.86,20.86,0,0,0,4.63,11,27.12,27.12,0,0,0,25.3,9.91,14.42,14.42,0,0,0,0-6c-1.36-6.63-7.32-11.63-13.37-14A26.56,26.56,0,0,0,220.43,575.48Z" style="fill: #d34a37"/>
            </g>
            <path d="M280.23,555.22a20.22,20.22,0,0,1-5,4.68,25.5,25.5,0,0,1-6.12,3.25,18.64,18.64,0,0,1-13.1,0,15.43,15.43,0,0,1-8.87-9.24,24.62,24.62,0,0,1-1.39-6.68,36.1,36.1,0,0,1-.5-3.72,11.84,11.84,0,0,1,1.53-7.54,9.21,9.21,0,0,1,11-3.53c3.91,1.55,5.33,5.37,7.63,8.56a7.74,7.74,0,0,0,5.3,3.39c2.19.32,4.43.14,6.58.78a6,6,0,0,1,4.24,3.95A7.26,7.26,0,0,1,280.23,555.22Z" style="fill: #ed7854"/>
            <path d="M360.58,477a100.3,100.3,0,0,1-40.78-40.38,146.15,146.15,0,0,1-28.62,52,123.9,123.9,0,0,1-29.74,2.61,171.79,171.79,0,0,0,13.39-47.85A214.88,214.88,0,0,1,231.29,496a334.41,334.41,0,0,1-47.83,3.61,133,133,0,0,0,15.26-47c-14.3,21.67-35.09,38.89-60.28,45.18,0,0-5.17-88.32,93.46-95.23C348,394.42,360.58,477,360.58,477Z" style="fill: #332623"/>
            <path d="M250.37,389.65a55.27,55.27,0,0,0-34.75-14.45,1.17,1.17,0,0,0-.15,2.33,52.77,52.77,0,0,1,33.14,13.65C249.71,392.19,251.48,390.66,250.37,389.65Z" style="fill: #332623"/>
            <path d="M238.41,389.84a55.62,55.62,0,0,0-32.75-1.37c-1.45.38-1,2.68.47,2.29a53.36,53.36,0,0,1,31.51,1.29A1.17,1.17,0,0,0,238.41,389.84Z" style="fill: #332623"/>
            <path d="M141.73,579A168.61,168.61,0,0,1,130.67,530c-.11-1.49-2.4-1-2.29.47A170.53,170.53,0,0,0,139.64,580C140.19,581.39,142.28,580.35,141.73,579Z" style="fill: #332623"/>
            <path d="M127.12,557.39a69,69,0,0,0-18.74-33.31c-1.07-1.05-2.83.48-1.76,1.54a66.73,66.73,0,0,1,18.21,32.24A1.17,1.17,0,0,0,127.12,557.39Z" style="fill: #332623"/>
            <path d="M395.75,492.14a68.61,68.61,0,0,0-13.32,32.68c-.19,1.5,2.15,1.65,2.34.16a66,66,0,0,1,12.92-31.52C398.6,492.25,396.66,491,395.75,492.14Z" style="fill: #332623"/>
            <path d="M371.94,503.53c-.39-1.45-2.68-1-2.29.47a181.06,181.06,0,0,1,6.25,51.53c0,1.5,2.29,1.67,2.33.16A182.89,182.89,0,0,0,371.94,503.53Z" style="fill: #332623"/>
          </g>
        </g>
      </g>
    </g>
  </g>
</svg>
