<?xml version="1.0" encoding="utf-8"?>
<!-- Generator: Adobe Illustrator 24.0.2, SVG Export Plug-In . SVG Version: 6.00 Build 0)  -->
<svg version="1.1" id="Layer_1" xmlns="http://www.w3.org/2000/svg" xmlns:xlink="http://www.w3.org/1999/xlink" x="0px" y="0px"
	 viewBox="0 0 1500 871.3" style="enable-background:new 0 0 1500 871.3;" xml:space="preserve">
<style type="text/css">
	.st0{fill:url(#SVGID_1_);}
	.st1{fill:#A91B0D;}
	.st2{opacity:7.000000e-02;}
	.st3{fill:#FFFFFF;}
</style>
<title>shape-1</title>
<g id="Layer_2_1_">
	<g id="Layer_1-2">
		
			<linearGradient id="SVGID_1_" gradientUnits="userSpaceOnUse" x1="1326.8468" y1="452.8483" x2="181.7532" y2="1597.9517" gradientTransform="matrix(1 0 0 1 0 -626)">
			<stop  offset="6.811959e-08" style="stop-color:#7F0300"/>
			<stop  offset="1" style="stop-color:#A91B0D"/>
		</linearGradient>
		<path class="st0" d="M750,538.4c355-2.3,626.2,171.7,750,269V0H0v790.2C119,703.3,389.4,540.8,750,538.4z"/>
		<path class="st1" d="M1500,745.5c-215.9-140.1-473.4-221.4-750-221.4S215.9,605.4,0,745.5v125.8c189.7-196.1,455.6-318,750-318
			s560.3,121.9,750,318V745.5z"/>
		<g>
			<g class="st2">
				<path class="st3" d="M237.9,75.1v33c-8.6-0.1-16.9,3.6-22.6,10.1c-6.1,6.5-9.4,15-9.3,23.9h29.8c1-0.1,2,0.6,2.1,1.6
					c0,0.2,0,0.4,0,0.5v59.6c0.1,1-0.6,2-1.6,2.1c-0.2,0-0.3,0-0.5,0h-60.1c-1,0.1-2-0.6-2.1-1.6c0-0.2,0-0.3,0-0.5v-61.7
					c-0.1-11.9,3-23.7,9-34c5.7-9.9,13.8-18.3,23.7-24.2C215.8,78.1,226.7,75.1,237.9,75.1z M139,75.1v33
					c-8.6-0.1-16.9,3.6-22.6,10.1c-6.1,6.5-9.4,15-9.3,23.9h29.8c1-0.1,2,0.6,2.1,1.6c0,0.2,0,0.4,0,0.5v59.6c0.1,1-0.6,2-1.6,2.1
					c-0.2,0-0.3,0-0.5,0H76.8c-1,0.2-2-0.5-2.2-1.6c0-0.2,0-0.4,0-0.6V142c-0.1-11.9,3-23.7,9-34c5.7-10,13.8-18.3,23.7-24.2
					C116.8,78.1,127.8,75.1,139,75.1z"/>
			</g>
			<g class="st2">
				<path class="st3" d="M1262.1,450.1v-33c8.6,0.1,16.9-3.6,22.6-10.1c6.1-6.5,9.4-15,9.3-23.9h-29.8c-1,0.1-2-0.6-2.1-1.6
					c0-0.2,0-0.4,0-0.5v-59.5c-0.1-1,0.6-2,1.6-2.1c0.2,0,0.4,0,0.5,0h60.1c1-0.1,2,0.6,2.1,1.6c0,0.2,0,0.4,0,0.5v61.7
					c0.1,11.9-3,23.7-9,34c-5.7,9.9-13.8,18.3-23.7,24.2C1284.2,447.1,1273.3,450.1,1262.1,450.1z M1361,450.1v-33
					c8.7,0.1,16.9-3.6,22.6-10.1c6.1-6.5,9.4-15,9.3-23.9h-29.8c-1,0.1-2-0.6-2.1-1.6c0-0.2,0-0.4,0-0.5v-59.6c-0.1-1,0.6-2,1.6-2.1
					c0.2,0,0.4,0,0.5,0h60.1c1-0.1,2,0.6,2.1,1.6c0,0.2,0,0.4,0,0.5v61.7c0.1,11.9-3,23.7-9,34c-5.7,10-13.9,18.3-23.8,24.2
					C1383.1,447.1,1372.1,450.1,1361,450.1z"/>
			</g>
		</g>
	</g>
</g>
</svg>
