<svg xmlns="http://www.w3.org/2000/svg" viewBox="0 0 1280.82 83.29"><defs><style>.cls-1{fill:#fff;}</style></defs><title>border</title><g id="Layer_2" data-name="Layer 2"><g id="Layer_1-2" data-name="Layer 1"><path class="cls-1" d="M15,83.29V65.75C15,45.67,19.81,31.29,29.3,23,40.46,13.28,55,15.14,55.13,15.16l1.06-7.43L57.3.31c-.86-.12-21.2-3-37.65,11.22C6.61,22.77,0,41,0,65.75V83.29Z"/><path class="cls-1" d="M1257.67,27.36c10.29,11.91,7.92,29.1,7.9,29.24l-.09.57V83.29h15V58.24c.48-4,2.22-24.72-11.35-40.55C1259.07,6,1243.46,0,1222.73,0H1031.6V15h191.13C1238.82,15,1250.57,19.16,1257.67,27.36Z"/></g></g></svg>