<svg xmlns="http://www.w3.org/2000/svg" xmlns:xlink="http://www.w3.org/1999/xlink" viewBox="0 0 800.37 1000"><defs><style>.cls-1{fill:none;}.cls-2,.cls-3{fill:#fff;}.cls-12,.cls-3,.cls-8{opacity:0.07;}.cls-12,.cls-3{isolation:isolate;}.cls-4{fill:#ffdc85;}.cls-5{fill:#f7f7f7;}.cls-6{fill:#ce728a;}.cls-7{fill:#dd7691;}.cls-9{fill:#74cbed;}.cls-10{fill:#ffc20f;}.cls-11{fill:#f9a106;}.cls-13{fill:#ffe98d;}.cls-14{fill:#fdc726;}.cls-15{fill:#ffdf99;}.cls-16{fill:#482600;}.cls-17{clip-path:url(#clip-path);}.cls-18{fill:#ffd140;}.cls-19{fill:#34c8f4;}.cls-20{fill:#dcd2c9;}.cls-21{fill:#e8e1da;}.cls-22{fill:#cebfb2;}.cls-23{fill:#59c8ea;}.cls-24{fill:#dadbd9;}.cls-25{fill:#7f7f7f;}.cls-26{fill:#f48d8a;}.cls-27{fill:#f06162;}</style><clipPath id="clip-path"><path class="cls-1" d="M608.8,748.43c7.14-3.65,17.09-2.43,24.67-1.32,9.42,1.38,18.91,4.54,25.52,11.72,10.62,11.54,9.22,30.74-5.65,38.19-13.1,6.55-33.72.56-38.5-13.72l-2,3.32c.18.59.36,1.16.5,1.68.54,2-1.44,3.9-3.31,2.52C598.8,782.49,594.1,755.94,608.8,748.43Z"/></clipPath></defs><title>postcard-2-baby-boy</title><g id="OBJECTS"><g id="OBJECTS-2" data-name="OBJECTS"><rect class="cls-2" width="800" height="1000"/><path class="cls-3" d="M301.79,785.38a.89.89,0,0,0-.69,1.07.91.91,0,0,0,.88.71.9.9,0,0,0-.19-1.78Z"/><path class="cls-3" d="M305.79,779.27a2.32,2.32,0,1,0-2.06,2.56A2.36,2.36,0,0,0,305.79,779.27Z"/><path class="cls-3" d="M309.17,783.21a2,2,0,1,0-1.8,2.22,2,2,0,0,0,1.8-2.22Z"/><path class="cls-3" d="M308.34,777.67a1.31,1.31,0,0,0,.28,2.61,1.33,1.33,0,0,0,1.17-1.45,1.31,1.31,0,0,0-1.45-1.16Z"/><path class="cls-3" d="M312.06,785.36a.45.45,0,0,0,.1.9h0a.45.45,0,1,0-.1-.9Z"/><path class="cls-3" d="M314,781.22v-.09a1.37,1.37,0,1,0-1.13,1.87h.1a1.31,1.31,0,0,0,1.11-1.48A1.47,1.47,0,0,0,314,781.22Z"/><path class="cls-3" d="M308.13,785.75c-2.46.27-2.05,4.09.41,3.82A1.92,1.92,0,0,0,308.13,785.75Z"/><path class="cls-3" d="M301.14,781.29a1.36,1.36,0,0,0,.3,2.71,1.36,1.36,0,1,0-.3-2.71Z"/><path class="cls-3" d="M306.81,776.92a1,1,0,1,0-.21-2,1,1,0,0,0,.21,2Z"/><path class="cls-3" d="M304.9,786.28a.76.76,0,0,0-.64.86.77.77,0,0,0,.8.65.76.76,0,0,0-.16-1.51Z"/><path class="cls-4" d="M376.75,795.65a3,3,0,0,0-2.49,1.78,3.42,3.42,0,0,0,.73,3.78,3,3,0,0,0,2.11.79h.34a3.09,3.09,0,0,0,2.77-3.37s0-.08,0-.12a3.05,3.05,0,0,0-3.21-2.88Z"/><path class="cls-3" d="M357.63,842.34c2.7-.29,2.25-4.48-.45-4.19S354.94,842.63,357.63,842.34Z"/><path class="cls-5" d="M547.63,386.66a.72.72,0,0,0-.6.82.71.71,0,0,0,.76.61.72.72,0,0,0,.6-.82A.71.71,0,0,0,547.63,386.66Z"/><path class="cls-5" d="M550.85,381.75a1.87,1.87,0,1,0-1.66,2.06A1.91,1.91,0,0,0,550.85,381.75Z"/><path class="cls-5" d="M553.56,384.94a1.67,1.67,0,0,0-1.79-1.44,1.65,1.65,0,0,0-1.44,1.79,1.67,1.67,0,0,0,1.79,1.44A1.65,1.65,0,0,0,553.56,384.94Z"/><path class="cls-5" d="M552.89,380.47a1.06,1.06,0,1,0,1.07.86A1.06,1.06,0,0,0,552.89,380.47Z"/><path class="cls-5" d="M555.88,386.64a.36.36,0,0,0-.27.44.35.35,0,0,0,.35.29.38.38,0,0,0,.28-.45A.38.38,0,0,0,555.88,386.64Z"/><path class="cls-5" d="M557,383.58v-.08a1.1,1.1,0,1,0-2,.81,1.09,1.09,0,0,0,1.13.69h.08a1,1,0,0,0,.92-1.07A1.06,1.06,0,0,0,557,383.58Z"/><path class="cls-5" d="M552.72,387a1.54,1.54,0,1,0,1.63,1.31A1.54,1.54,0,0,0,552.72,387Z"/><path class="cls-5" d="M547.12,383.37a1.1,1.1,0,1,0,1.1.89A1.09,1.09,0,0,0,547.12,383.37Z"/><path class="cls-5" d="M551.67,379.87a.81.81,0,1,0-.86-.7A.81.81,0,0,0,551.67,379.87Z"/><path class="cls-5" d="M550.13,387.39a.59.59,0,0,0-.53.66.6.6,0,0,0,.66.54.61.61,0,0,0,.54-.67.61.61,0,0,0-.67-.53Z"/><path class="cls-5" d="M109.2,265.36c3.21-1.4,8.17-4.17,6.52-8.76a5.23,5.23,0,0,0-3.37-3.39c-2-.66-4.66-.26-7.49.71,2-3.1,3.62-7,1-10a4.86,4.86,0,0,0-4.55-1.81c-2.3.38-4.57,2.47-6.74,5.45-.07-3.34-.64-8.17-4.6-9.2a4.92,4.92,0,0,0-4.87,1c-1.7,1.59-2.42,4.57-2.57,8.24-2.16-3.08-5.43-6.52-9.32-4.78a5.09,5.09,0,0,0-3.15,3.75,8.37,8.37,0,0,0,.64,4.36c-2.18-.63-4.4-.65-6.2.83-2.06,1.69-2.24,3.42-2,4.58.27,1.53,1.4,3.08,3.39,4.68-2.64.37-5.24,1.39-6,4.15a4.9,4.9,0,0,0,.89,4.88c1.54,1.74,4.48,2.56,8.12,2.82-3.15,2.06-6.73,5.22-5.07,9.19a5.08,5.08,0,0,0,3.67,3.23,6.11,6.11,0,0,0,1.2.12,14.45,14.45,0,0,0,6.64-2.25c-1.19,2.92-2.71,7.78.78,10.27a5.4,5.4,0,0,0,3.18,1.11,4.49,4.49,0,0,0,1.66-.31c2.13-.81,3.94-3.17,5.5-6.35.67,3.34,2,7.73,6.06,8.12h.71a4.68,4.68,0,0,0,4-1.81c1.41-1.86,1.61-4.95,1.09-8.63,1.93,1.92,4.54,4,7.21,4a5.52,5.52,0,0,0,5.34-5.24c0-2.23-1.43-4.69-3.67-7.22a20.27,20.27,0,0,0,3.64.39c2.46,0,4.85-.66,6-2.95a4.9,4.9,0,0,0,.1-5C115.64,267.61,112.82,266.27,109.2,265.36Z"/><path class="cls-5" d="M157.75,615.72c-1.07-.72-2-1.81-1.44-3.37a2.67,2.67,0,0,1,1.69-1.68,4,4,0,0,1,1.76-.09,2.93,2.93,0,0,1,.4-3.2,2.48,2.48,0,0,1,2.32-.89,3.82,3.82,0,0,1,1.92,1.11,3,3,0,0,1,2-2.51,2.49,2.49,0,0,1,2.46.54,3.74,3.74,0,0,1,1,2,2.89,2.89,0,0,1,3.3-.82,2.53,2.53,0,0,1,1.57,1.9,2.9,2.9,0,0,1,0,.93,2.73,2.73,0,0,1,1.84.61,2.42,2.42,0,0,1,1,2.36,3,3,0,0,1-.65,1.29,2.59,2.59,0,0,1,1.63,1.72,2.5,2.5,0,0,1-.48,2.46,3.71,3.71,0,0,1-1.94,1,2.86,2.86,0,0,1,.91,3.28,2.5,2.5,0,0,1-1.85,1.61,3.05,3.05,0,0,1-.6.06,4.67,4.67,0,0,1-1.43-.29,2.89,2.89,0,0,1-1,3.17,2.6,2.6,0,0,1-1.39.54,2.44,2.44,0,0,1-1.44-.36,3.79,3.79,0,0,1-1.23-1.16,2.93,2.93,0,0,1-2.42,2.07h-.34a2.42,2.42,0,0,1-2-1,3.75,3.75,0,0,1-.62-2.15,3.62,3.62,0,0,1-2,.71,2.75,2.75,0,0,1-2.65-2.65,4,4,0,0,1,.61-1.9,2.94,2.94,0,0,1-2.79-1.45,2.46,2.46,0,0,1,0-2.54A3.81,3.81,0,0,1,157.75,615.72Z"/><path class="cls-5" d="M312.75,336.72c-1.07-.72-2-1.81-1.44-3.37a2.67,2.67,0,0,1,1.69-1.68,4,4,0,0,1,1.76-.09,2.93,2.93,0,0,1,.4-3.2,2.48,2.48,0,0,1,2.32-.89,3.82,3.82,0,0,1,1.92,1.11,3,3,0,0,1,2.05-2.51,2.49,2.49,0,0,1,2.46.54,3.74,3.74,0,0,1,1,2,2.89,2.89,0,0,1,3.3-.82,2.53,2.53,0,0,1,1.57,1.9,2.9,2.9,0,0,1,0,.93,2.73,2.73,0,0,1,1.84.61,2.42,2.42,0,0,1,1,2.36,3,3,0,0,1-.65,1.29,2.59,2.59,0,0,1,1.63,1.72,2.5,2.5,0,0,1-.48,2.46,3.71,3.71,0,0,1-1.94,1,2.86,2.86,0,0,1,.91,3.28,2.5,2.5,0,0,1-1.85,1.61,3.05,3.05,0,0,1-.6.06,4.67,4.67,0,0,1-1.43-.29,2.89,2.89,0,0,1-1,3.17,2.63,2.63,0,0,1-1.57.55,2.36,2.36,0,0,1-.87-.17,3.76,3.76,0,0,1-1.62-1.36,2.93,2.93,0,0,1-2.42,2.07h-.34a2.4,2.4,0,0,1-2-.95,3.75,3.75,0,0,1-.62-2.15,3.62,3.62,0,0,1-2,.71,2.75,2.75,0,0,1-2.65-2.65,4,4,0,0,1,.61-1.9,2.94,2.94,0,0,1-2.79-1.45,2.46,2.46,0,0,1,0-2.54A3.81,3.81,0,0,1,312.75,336.72Z"/><path class="cls-5" d="M650.93,599.24c4.08-1.84,9.89-5.33,7.84-11a6.68,6.68,0,0,0-4.34-4.36c-2.47-.82-5.65-.39-9.07.72,2.38-3.86,4.25-8.66,1-12.32a6.26,6.26,0,0,0-5.87-2.33c-2.83.48-5.62,2.95-8.29,6.53-.14-4.21-1-10-5.88-11.24a6.33,6.33,0,0,0-6.28,1.3c-2.09,2-3,5.55-3.26,10-2.75-3.81-6.8-7.82-11.63-5.66a6.5,6.5,0,0,0-4.06,4.84,10.25,10.25,0,0,0,.7,5.25c-2.68-.72-5.4-.67-7.63,1.16-2.65,2.19-2.89,4.42-2.61,5.92.34,1.88,1.68,3.79,4,5.75-3.24.51-6.37,1.84-7.36,5.27a6.34,6.34,0,0,0,1.15,6.29c1.9,2.13,5.43,3.19,9.82,3.56-3.89,2.62-8.08,6.56-6,11.49a6.55,6.55,0,0,0,4.72,4.16,8.48,8.48,0,0,0,1.59.15,17.34,17.34,0,0,0,8-2.58c-1.47,3.75-3,9.54,1.25,12.6a7,7,0,0,0,4.09,1.44,6,6,0,0,0,2.14-.4c2.62-1,4.86-3.82,6.8-7.64.88,4.18,2.67,9.39,7.66,9.86h.91a6.09,6.09,0,0,0,5.1-2.34c1.73-2.29,2-6,1.46-10.49,2.41,2.34,5.56,4.79,8.82,4.79a7,7,0,0,0,6.81-6.73c0-2.75-1.66-5.73-4.32-8.81a26,26,0,0,0,4.13.39c3.13,0,6.2-.84,7.74-3.8s.91-5.13.13-6.45C658.68,602.1,655.34,600.41,650.93,599.24Z"/><path class="cls-5" d="M698.59,499.49c1.5-.84,3.07-2.24,2.32-4.33a3.09,3.09,0,0,0-1.9-2,5.5,5.5,0,0,0-2.79,0c.69-1.42,1-3.06-.16-4.38a2.85,2.85,0,0,0-2.67-1,5.13,5.13,0,0,0-2.78,1.82c-.19-1.53-.76-3.18-2.51-3.64a2.86,2.86,0,0,0-2.85.61,5.25,5.25,0,0,0-1.27,3.1c-1.1-1.25-2.6-2.3-4.36-1.51a2.92,2.92,0,0,0-1.8,2.23,4,4,0,0,0,.09,1.53,3.27,3.27,0,0,0-2.61.68,2.75,2.75,0,0,0-1.17,2.71,3.84,3.84,0,0,0,1.09,1.9,3.16,3.16,0,0,0-2.36,2.16,2.87,2.87,0,0,0,.53,2.85,5.16,5.16,0,0,0,3,1.37c-1.29,1.07-2.38,2.53-1.63,4.33a2.93,2.93,0,0,0,2.13,1.86,4,4,0,0,0,.69.07,5.92,5.92,0,0,0,2.37-.59c-.43,1.48-.57,3.28.95,4.38a3.19,3.19,0,0,0,1.83.64,3.13,3.13,0,0,0,1-.18,5.32,5.32,0,0,0,2.31-2.24c.46,1.46,1.3,3,3.07,3.12h.4a2.77,2.77,0,0,0,2.31-1.08,5.18,5.18,0,0,0,.73-3.28,4.76,4.76,0,0,0,2.85,1.26,3,3,0,0,0,1.73-.58,2.85,2.85,0,0,0,1.34-2.47A5.09,5.09,0,0,0,697.3,506H698a3.48,3.48,0,0,0,3.36-1.71,2.86,2.86,0,0,0,0-2.91A5.19,5.19,0,0,0,698.59,499.49Z"/><path class="cls-5" d="M710.1,375.45a12.72,12.72,0,0,0-5.72.91,16.5,16.5,0,0,0,.4-3.36c0-4.13-2.64-9-7.63-9H697a7.78,7.78,0,0,0-7.14,4.45,13.35,13.35,0,0,0-1.23,6,11.67,11.67,0,0,0-2.29-1.28c-3.77-1.69-8.93-1-11.08,3.49-2.09,4.34.4,8.92,3.93,11.17a12.53,12.53,0,0,0,1.82.94,12.11,12.11,0,0,0-2.08,1.76c-2.8,3-3.86,8.07-.3,11.52a7.78,7.78,0,0,0,5.5,2.2,10.64,10.64,0,0,0,6.36-2.26,14.26,14.26,0,0,0,3.13-3.62,12.84,12.84,0,0,0,2.28,4.68,8.5,8.5,0,0,0,6.63,3.34,7.42,7.42,0,0,0,4.4-1.43,7.6,7.6,0,0,0,3.39-7.55,13,13,0,0,0-2.61-5.64,12.68,12.68,0,0,0,4.11-.94,8,8,0,0,0,4.7-10.17A7.58,7.58,0,0,0,710.1,375.45Z"/><path class="cls-5" d="M261.1,639.45a12.72,12.72,0,0,0-5.72.91,16.5,16.5,0,0,0,.4-3.36c0-4.13-2.64-9-7.63-9H248a7.78,7.78,0,0,0-7.14,4.45,13.35,13.35,0,0,0-1.23,6,11.67,11.67,0,0,0-2.29-1.28c-3.77-1.69-8.93-1-11.08,3.49s.4,8.92,3.93,11.17a12.53,12.53,0,0,0,1.82.94,12.11,12.11,0,0,0-2.08,1.76c-2.8,3-3.86,8.07-.3,11.52a7.78,7.78,0,0,0,5.5,2.2,10.64,10.64,0,0,0,6.36-2.26,14.26,14.26,0,0,0,3.13-3.62,12.84,12.84,0,0,0,2.28,4.68,8.5,8.5,0,0,0,6.63,3.34,7.42,7.42,0,0,0,4.4-1.43,7.6,7.6,0,0,0,3.39-7.55,13,13,0,0,0-2.61-5.64,12.68,12.68,0,0,0,4.11-.94,8,8,0,0,0,4.7-10.17A7.58,7.58,0,0,0,261.1,639.45Z"/><path class="cls-5" d="M473.57,649.82a13.41,13.41,0,0,0-6,1,12.22,12.22,0,0,0,.44-3c0-4.27-2.74-8.82-7.91-8.82H460c-4.29,0-6.39,2.16-7.41,4.07a13,13,0,0,0-1.28,6.08,13.36,13.36,0,0,0-2.48-1.51c-3.91-1.75-9.26-1.11-11.49,3.54s.42,9.22,4.08,11.56a11.32,11.32,0,0,0,2,1,12.43,12.43,0,0,0-2.23,1.87c-2.9,3.12-4,8.37-.32,11.94a8.05,8.05,0,0,0,5.71,2.27,11,11,0,0,0,6.6-2.34,15.25,15.25,0,0,0,3.31-3.85,13.76,13.76,0,0,0,2.39,5,8.81,8.81,0,0,0,6.88,3.46,7.62,7.62,0,0,0,4.56-1.48,7.86,7.86,0,0,0,3.51-7.82,13.41,13.41,0,0,0-2.75-5.93,13,13,0,0,0,4.34-1,8.32,8.32,0,0,0,4.88-10.54A7.89,7.89,0,0,0,473.57,649.82Z"/><path class="cls-5" d="M662,156.64a6.59,6.59,0,0,0,3.9-1.27,6.68,6.68,0,0,0,3-6.66,10.73,10.73,0,0,0-1.9-4.36,10.55,10.55,0,0,0,2.93-.76,7.08,7.08,0,0,0,4.14-9,6.67,6.67,0,0,0-5.66-4.6,10.24,10.24,0,0,0-4.32.57,10.92,10.92,0,0,0,.2-1.89c0-4.27-2.87-7.52-6.75-7.57a6.62,6.62,0,0,0-6.43,3.56,10.58,10.58,0,0,0-1,4.36,10.31,10.31,0,0,0-1.45-.81c-3.31-1.49-7.85-.92-9.76,3s.33,7.83,3.43,9.8a9.4,9.4,0,0,0,1,.51,10.26,10.26,0,0,0-1.3,1.16c-2.47,2.65-3.39,7.11-.24,10.16a6.88,6.88,0,0,0,4.86,1.94,9.25,9.25,0,0,0,5.55-2,11.74,11.74,0,0,0,2.26-2.51,10.76,10.76,0,0,0,1.74,3.34A7.53,7.53,0,0,0,662,156.64Z"/><path class="cls-5" d="M514,473.64a6.59,6.59,0,0,0,3.9-1.27,6.68,6.68,0,0,0,3-6.66,10.73,10.73,0,0,0-1.9-4.36,10.55,10.55,0,0,0,2.93-.76,7.08,7.08,0,0,0,4.14-9,6.67,6.67,0,0,0-5.66-4.6,10.24,10.24,0,0,0-4.32.57,10.92,10.92,0,0,0,.2-1.89c0-4.27-2.87-7.52-6.75-7.57a6.62,6.62,0,0,0-6.43,3.56,10.58,10.58,0,0,0-1,4.36,10.31,10.31,0,0,0-1.45-.81c-3.31-1.49-7.85-.92-9.76,3.05s.33,7.83,3.43,9.8a9.4,9.4,0,0,0,1,.51,10.26,10.26,0,0,0-1.3,1.16c-2.47,2.65-3.39,7.11-.24,10.16a6.88,6.88,0,0,0,4.86,1.94,9.25,9.25,0,0,0,5.55-2,11.74,11.74,0,0,0,2.26-2.51,10.76,10.76,0,0,0,1.74,3.34A7.53,7.53,0,0,0,514,473.64Z"/><path class="cls-5" d="M392.34,578.61a13.14,13.14,0,0,0-22.16,2.4,15,15,0,0,0,1.56,14.44,12.05,12.05,0,0,0,10.08,5,15.39,15.39,0,0,0,1.66-.09A12.28,12.28,0,0,0,393.89,593,15,15,0,0,0,392.34,578.61Z"/><path class="cls-5" d="M263.09,402.26a7.71,7.71,0,0,0-6.52,4.59,9.38,9.38,0,0,0,1,9,7.54,7.54,0,0,0,6.31,3.15h1a7.7,7.7,0,0,0,6.52-4.6,9.35,9.35,0,0,0-1-9A7.71,7.71,0,0,0,263.09,402.26Z"/><path class="cls-5" d="M100.06,651.51a12.29,12.29,0,0,0-10.42,7.33,15,15,0,0,0,1.56,14.45,12.05,12.05,0,0,0,10.08,5,13.09,13.09,0,0,0,1.66-.1,12.26,12.26,0,0,0,10.4-7.3,15,15,0,0,0-1.55-14.45A12.27,12.27,0,0,0,100.06,651.51Z"/><path class="cls-5" d="M186,446a15.25,15.25,0,0,0,1.66-.09,12.27,12.27,0,0,0,10.41-7.33,15,15,0,0,0-1.55-14.45,13.16,13.16,0,0,0-22.19,2.4A15,15,0,0,0,175.9,441,12.09,12.09,0,0,0,186,446Z"/><path class="cls-5" d="M752.94,593.26a12.27,12.27,0,0,0-11.74-4.94c-8.51.92-12.23,8.12-11.52,14.76.67,6.2,5.23,12,12.76,12a14.88,14.88,0,0,0,1.64-.09,12.29,12.29,0,0,0,10.41-7.34A15,15,0,0,0,752.94,593.26Z"/><path class="cls-5" d="M233.74,528.89a12.34,12.34,0,0,0,10.41-7.34,15,15,0,0,0-1.56-14.44,13.15,13.15,0,0,0-22.15,2.39A15,15,0,0,0,222,524a12.1,12.1,0,0,0,10.08,5A15.44,15.44,0,0,0,233.74,528.89Z"/><path class="cls-5" d="M129.13,123.21a15,15,0,0,0-1.55-14.45,12.31,12.31,0,0,0-11.74-4.94c-8.51.92-12.23,8.13-11.52,14.77.67,6.19,5.23,12,12.76,12a14.88,14.88,0,0,0,1.64-.09A12.3,12.3,0,0,0,129.13,123.21Z"/><path class="cls-5" d="M424.13,515.21a15,15,0,0,0-1.55-14.45,12.31,12.31,0,0,0-11.74-4.94c-8.51.92-12.23,8.13-11.52,14.77.67,6.19,5.23,12,12.76,12a14.88,14.88,0,0,0,1.64-.09A12.3,12.3,0,0,0,424.13,515.21Z"/><path class="cls-5" d="M411.82,410.51a6.91,6.91,0,0,0-.72-6.68,5.83,5.83,0,0,0-5.49-2.32,6.28,6.28,0,0,0,.57,12.49H407A5.85,5.85,0,0,0,411.82,410.51Z"/><path class="cls-5" d="M56.81,175.84A7,7,0,0,0,51,180a8.27,8.27,0,0,0,.86,8,6.86,6.86,0,0,0,5.67,2.82,6.55,6.55,0,0,0,.89-.05,7,7,0,0,0,5.82-4.11,8.24,8.24,0,0,0-.86-8A6.91,6.91,0,0,0,56.81,175.84Z"/><path class="cls-5" d="M316,576a5.19,5.19,0,0,0-4.32,3.06,6,6,0,0,0,.63,5.85,5.13,5.13,0,0,0,4.22,2.1h.65A5.53,5.53,0,1,0,316,576h0Z"/><path class="cls-5" d="M118,535.92a8.27,8.27,0,0,0-.86-8,7.32,7.32,0,0,0-12.38,1.34,8.27,8.27,0,0,0,.85,8,6.88,6.88,0,0,0,5.68,2.82,6.61,6.61,0,0,0,.89,0A7,7,0,0,0,118,535.92Z"/><path class="cls-5" d="M719.06,234.51a12.29,12.29,0,0,0-10.42,7.33,15,15,0,0,0,1.56,14.45,12.05,12.05,0,0,0,10.08,5,13.09,13.09,0,0,0,1.66-.1,12.26,12.26,0,0,0,10.4-7.3,15,15,0,0,0-1.55-14.45A12.27,12.27,0,0,0,719.06,234.51Z"/><path class="cls-5" d="M728,102.92a8.27,8.27,0,0,0-.86-8,7.32,7.32,0,0,0-12.38,1.34,8.27,8.27,0,0,0,.85,8,6.88,6.88,0,0,0,5.68,2.82,6.55,6.55,0,0,0,.89,0A7,7,0,0,0,728,102.92Z"/><path class="cls-5" d="M757,469.45a5.3,5.3,0,0,0,.48,10.55h.65A5.29,5.29,0,0,0,757,469.49Z"/><path class="cls-5" d="M744,307.45a5.3,5.3,0,0,0,.48,10.55h.65A5.29,5.29,0,0,0,744,307.49Z"/><path class="cls-5" d="M739,138.45a5.3,5.3,0,0,0,.48,10.55h.65A5.29,5.29,0,0,0,739,138.49Z"/><path class="cls-5" d="M94,401h.66a5.15,5.15,0,0,0,4.61-6.56,5.09,5.09,0,0,0-4.16-3.65A5.14,5.14,0,1,0,94,401Z"/><path class="cls-5" d="M72,50h.66a5.07,5.07,0,0,0,4.58-5.52c0-.1,0-.2,0-.3a5.15,5.15,0,0,0-10.28.69c0,.15,0,.29,0,.43A5.06,5.06,0,0,0,72,50Z"/><path class="cls-5" d="M167.49,75.14a5.37,5.37,0,0,0,.89,0A7,7,0,0,0,174.2,71a8.27,8.27,0,0,0-.86-8A7.35,7.35,0,0,0,161,64.31a8.3,8.3,0,0,0,.86,8A6.88,6.88,0,0,0,167.49,75.14Z"/><path class="cls-5" d="M194.41,367.88a4,4,0,0,0-.43-4,3.71,3.71,0,0,0-5.19-.68,3.8,3.8,0,0,0-1.09,1.36,4.08,4.08,0,0,0,.67,4.3,3.54,3.54,0,0,0,2.7,1.14h.39A3.53,3.53,0,0,0,194.41,367.88Z"/><path class="cls-5" d="M310.06,463a4.52,4.52,0,0,0-3.93,5.69,4.65,4.65,0,0,0,4.54,3.31H311a4.37,4.37,0,0,0,3.92-4.78l0-.22a4.31,4.31,0,0,0-4.57-4Z"/><path class="cls-5" d="M643.77,214a4.36,4.36,0,0,0,3.92-4.76l0-.24a4.29,4.29,0,0,0-4.53-4l-.33,0a4.2,4.2,0,0,0-3.52,2.5,4.84,4.84,0,0,0,.51,4.75,4.2,4.2,0,0,0,3.45,1.73Z"/><path class="cls-5" d="M536.56,642.21c-5.86.64-8.42,5.59-7.93,10.15.46,4.26,3.59,8.28,8.77,8.28.38,0,.76,0,1.14-.07,5.85-.63,8.42-5.58,7.92-10.14S542.43,641.58,536.56,642.21Z"/><path class="cls-5" d="M720,676a4.24,4.24,0,0,0-3.53,2.51,4.87,4.87,0,0,0,.52,4.75,4.17,4.17,0,0,0,3.44,1.72H721a4.53,4.53,0,1,0-1-9Z"/><path class="cls-5" d="M504,543a4.24,4.24,0,0,0-3.53,2.51,4.87,4.87,0,0,0,.52,4.75,4.17,4.17,0,0,0,3.44,1.72H505a4.53,4.53,0,0,0-1-9Z"/><path class="cls-5" d="M647,55a4.24,4.24,0,0,0-3.53,2.51,4.85,4.85,0,0,0,.83,5.13A4.25,4.25,0,0,0,647.5,64H648a4.5,4.5,0,1,0-1-9Z"/><path class="cls-5" d="M621.34,444.58h.39a3.09,3.09,0,1,0-.39,0Z"/><path class="cls-5" d="M367.58,646.65a3,3,0,0,1,2.49,1.77,3.43,3.43,0,0,1-.36,3.36,3,3,0,0,1-2.44,1.22h-.38a3.09,3.09,0,0,1-2.76-3.38s0-.08,0-.12a3,3,0,0,1,3.12-2.88Z"/><path class="cls-5" d="M665.07,670.22a4.43,4.43,0,0,0,4.4,3.78h.43a4.5,4.5,0,1,0-4.87-4.1A3.11,3.11,0,0,0,665.07,670.22Z"/><path class="cls-5" d="M547,389a4.24,4.24,0,0,0-3.53,2.51,4.87,4.87,0,0,0,.52,4.75,4.17,4.17,0,0,0,3.44,1.72H548a4.53,4.53,0,1,0-1-9Z"/><path class="cls-5" d="M583,495a4.24,4.24,0,0,0-3.53,2.51,4.87,4.87,0,0,0,.52,4.75,4.17,4.17,0,0,0,3.44,1.72H584a4.53,4.53,0,1,0-1-9Z"/><path class="cls-5" d="M492.31,373.1a4.56,4.56,0,0,0,4.3,2.9h.29a4.5,4.5,0,1,0-4.87-4.1A4.21,4.21,0,0,0,492.31,373.1Z"/><path class="cls-5" d="M422.34,315.42c6.38-.69,5.32-10.61-1.07-9.92S416,316.11,422.34,315.42Z"/><path class="cls-5" d="M739.83,44.87c7.63-.83,6.36-12.67-1.27-11.85S732.2,45.69,739.83,44.87Z"/><path class="cls-5" d="M253.72,576.41c7.62-.83,6.35-12.67-1.28-11.85S246.08,577.23,253.72,576.41Z"/><path class="cls-5" d="M590.69,687.42c3.81-.41,3.18-6.33-.64-5.92S586.87,687.83,590.69,687.42Z"/><path class="cls-5" d="M267.7,317.49c6.38-.68,5.32-10.6-1.07-9.91S261.31,318.18,267.7,317.49Z"/><path class="cls-5" d="M337.07,281.39c3.19-.35,2.66-5.31-.53-5S333.88,281.69,337.07,281.39Z"/><path class="cls-5" d="M524.76,338c3.19-.35,2.66-5.3-.54-5S521.56,338.33,524.76,338Z"/><path class="cls-5" d="M397.94,567.08c3.81-.41,3.18-6.33-.64-5.92S394.12,567.49,397.94,567.08Z"/><path class="cls-5" d="M203.46,662.61c3.19-.35,2.66-5.31-.53-5S200.27,662.91,203.46,662.61Z"/><path class="cls-5" d="M37.2,494.26c3.81-.41,3.18-6.33-.64-5.92S33.39,494.68,37.2,494.26Z"/><path class="cls-5" d="M674.34,353.05c3.19-.34,2.66-5.3-.54-4.95S671.14,353.4,674.34,353.05Z"/><path class="cls-5" d="M307.69,445.27c3.81-.41,3.17-6.34-.64-5.92S303.87,445.68,307.69,445.27Z"/><path class="cls-6" d="M414.34,726.59l-.36-.36"/><path class="cls-7" d="M414.34,726.55l-.34-.37c-.06-.08-.18,0-.1.1l.37.34Z"/><g class="cls-8"><path d="M390,735.9a14.34,14.34,0,0,0-3.45,2.38,4.85,4.85,0,0,0-1.51,3.77,1.66,1.66,0,0,0,.27.81c.56.76,1.76.47,2.56,0a13.52,13.52,0,0,0,4-4.38,3.84,3.84,0,0,0,.72-1.83,1.4,1.4,0,0,0-1-1.47,1.59,1.59,0,0,0-1,.21,8.74,8.74,0,0,0-3.09,3.24L385,742.32"/><path class="cls-7" d="M390,735.57c-2.68,1.15-6.94,3.75-5.52,7.39s6-.49,7.26-2.09c1-1.28,2.31-2.93,2.09-4.64a2.39,2.39,0,0,0-2.57-2.2,2.25,2.25,0,0,0-.36.06c-1.61.41-2.78,1.92-3.66,3.22s-2.77,3.34-2.59,5a.53.53,0,0,0,.53.53l.14,0c1.57-.45,2.47-2.6,3.35-3.86a7.22,7.22,0,0,1,1.73-2c.63-.38,1.41-.48.88.54a14,14,0,0,1-.8,1.26A13.37,13.37,0,0,1,388.6,741c-.56.53-2.19,2.16-2.47.65-.41-2.27,2.74-4.31,4.25-5.36a.39.39,0,0,0,.14-.52.38.38,0,0,0-.52-.14h0Z"/></g><g class="cls-8"><path d="M395.34,729.83a.21.21,0,0,0-.18-.32.71.71,0,0,0-.42.14,3.17,3.17,0,0,0-1.46,1.41c-.26.65.13,1.56.82,1.56.47,0,.84-.41,1.14-.78l.78-1a1,1,0,0,0,.22-.4.67.67,0,0,0-.57-.72,1.9,1.9,0,0,0-1,.15"/><path class="cls-7" d="M395.28,730a.36.36,0,0,0,.25-.18.39.39,0,0,0-.06-.46c-.48-.52-1.29-.1-1.82.14a2.34,2.34,0,0,0-1.41,1.9,2.08,2.08,0,0,0,.9,2,2,2,0,0,0,2.33-.36,6.42,6.42,0,0,0,1.53-1.94,1.59,1.59,0,0,0-.86-2.08l-.22-.07c-.75-.22-2.15.11-2,1.14a.9.9,0,0,0,.84.71c.08,0,.57.06.61,0l-.08-.27c0-.28-.05-.34-.14-.19a2,2,0,0,1-.27.32l-.48.61a4.51,4.51,0,0,0-.4.47c0,.08-.15,0,0,.06h0v-.22c0-.33.46-.76.67-1a1.26,1.26,0,0,1,.63-.48Z"/></g><g class="cls-8"><path d="M383.67,748.31a2.65,2.65,0,0,0-1.66,3.36,1.8,1.8,0,0,0,.08.21,1.47,1.47,0,0,0,1.39-.57,4.48,4.48,0,0,0,.68-1.43,1.44,1.44,0,0,0,.07-1c-.14-.31-.64-.45-.81-.16"/><path class="cls-7" d="M383.74,748c-.93-.38-2,1-2.36,1.69-.42.91-.45,2.88.9,2.92s2.22-1.36,2.57-2.58a1.79,1.79,0,0,0-.21-1.8,1.23,1.23,0,0,0-1.47-.24c-.7.31-.2,1.53.52,1.25-.25.1-.4.91-.54,1.18a1,1,0,0,1-1.06.68l.64.36a2.35,2.35,0,0,1,0-1.75,2.1,2.1,0,0,1,.52-.76c.22-.2.45-.28.61-.54a.29.29,0,0,0-.12-.39l-.05,0Z"/></g><g class="cls-8"><path d="M379.8,743.83a3.74,3.74,0,0,0-1.65,3.74,1,1,0,0,0,.26.59c.4.35,1,0,1.41-.32a8.25,8.25,0,0,0,2.11-2.41c.44-.85.46-2.16-.43-2.49a1.75,1.75,0,0,0-1.78.73,5.79,5.79,0,0,0-1.26,2.29"/><path class="cls-7" d="M379.8,743.81c-1.68-.33-2.56,2.75-2.29,3.94.61,2.68,3.41.16,4.28-.91s2-3.75,0-4.53c-1.8-.7-4.2,2.06-3.68,3.75a.41.41,0,0,0,.67.18c.82-.65,1-2.12,2-2.54.83-.34.86.54.7,1.09a4,4,0,0,1-.94,1.47,4.65,4.65,0,0,1-1.25,1.17c-.59.29-.56-.38-.54-.86a3.59,3.59,0,0,1,.51-1.63,3.32,3.32,0,0,0,.58-1.1h0Z"/></g><g class="cls-8"><path d="M396.6,734.73a17.88,17.88,0,0,1,4.69-4.65c.34-.24.86-.44,1.13-.13a.88.88,0,0,1,.09.74,6.31,6.31,0,0,1-6.45,4.75,6.72,6.72,0,0,1,4.13-3.54"/><path class="cls-7" d="M396.62,735a28.29,28.29,0,0,0,2.16-2.22,18.73,18.73,0,0,1,1.69-1.4c.48-.34,1.44-1.23,1.47,0s-1.59,2.44-2.34,2.93a5.88,5.88,0,0,1-3.54.91l.43.76a8.58,8.58,0,0,1,3.82-3.6c.18-.11.12-.45-.12-.42a6.15,6.15,0,0,0-4.57,3.51.51.51,0,0,0,.21.69.46.46,0,0,0,.23.06,6.75,6.75,0,0,0,4.69-1.61c1-.87,2.41-2.63,2.21-4.09s-1.95-.5-2.62.05c-1.33,1.08-3.25,2.73-3.76,4.43h0Z"/></g><path class="cls-9" d="M334.46,798.1a2.7,2.7,0,0,0-2.27-2.23c-13.09-3.11-25.92-.92-39,1.14-15,2.37-30.12,9.61-45.33,9a2.67,2.67,0,0,0-3,2.36,2.74,2.74,0,0,0,0,.64q5.46,39.76,11.6,79.43c.41,2.66,3.79,2.73,4.89.95,27.32-.17,54.14-5.82,80.84-11.12a2.67,2.67,0,0,0,2.23-3C340.58,849.66,336.72,823.93,334.46,798.1Z"/><path class="cls-10" d="M249.12,813.12,331,801.27a5,5,0,0,0,4.2-5.69,5.08,5.08,0,0,0-.67-1.85l-56-82a5,5,0,0,0-9,1l-25.86,93.83a5,5,0,0,0,3.18,6.31A4.94,4.94,0,0,0,249.12,813.12Z"/><path class="cls-11" d="M241.51,807.81c-2.19,2.87-.13,7.35,3.11,8.94s7,1.16,10.63.69l16.93-2.23,53.6-7c4-.53,8.32-1.16,11.48-3.73a8.85,8.85,0,0,0,1.86-2.14,5.21,5.21,0,0,0-5.32-7.79q-45.26,7.1-90.8,12"/><rect class="cls-12" x="248.51" y="821.86" width="28.09" height="10.53" rx="3.73" transform="translate(-115.83 46.17) rotate(-8.24)"/><rect class="cls-12" x="257.91" y="834.32" width="19.31" height="8.78" rx="2.64" transform="translate(-114.8 45.73) rotate(-8.05)"/><path class="cls-12" d="M339.34,855.26a3.63,3.63,0,0,0-4-3.19l-19.11,2.77a3.65,3.65,0,0,0-3,4.2l.44,3a3.64,3.64,0,0,0,4,3.18l19.11-2.76a3.64,3.64,0,0,0,2.92-4.2Z"/><rect class="cls-12" x="321.99" y="865.06" width="19.31" height="8.78" rx="2.64" transform="translate(-121.19 56.51) rotate(-8.24)"/><path class="cls-12" d="M338,845.89c-.14-.94-1-1.15-2-1l-9.43,1.32c-1,.14-2.61.71-2.47,1.65l.32,2.25c.14.94,1.92,1.46,2.9,1.31l9.47-1.37a1.77,1.77,0,0,0,1.54-2v0Z"/><path class="cls-10" d="M287.47,889.21s-9.05-41.31,8.09-43.79S317,884.93,317,884.93Z"/><path class="cls-13" d="M318.93,886.38l-32.82,4.75-.35-1.6c-.26-1.19-6.31-29.33,1.71-40.92a11.26,11.26,0,0,1,7.84-5,11.58,11.58,0,0,1,9,2.53c11.26,8.78,14.31,37.33,14.43,38.54Zm-29.93.8,26.19-3.79c-.82-6.18-4.25-27.72-12.9-34.46a8,8,0,0,0-6.35-1.82,7.73,7.73,0,0,0-5.45,3.5c-6.16,8.89-2.64,30.51-1.49,36.6Z"/><line class="cls-1" x1="295.08" y1="843.71" x2="301.62" y2="888.88"/><rect class="cls-13" x="293.84" y="844.73" width="3.51" height="45.63" transform="translate(-118.56 49.94) rotate(-8.05)"/><line class="cls-1" x1="284.96" y1="871.78" x2="312.75" y2="867.76"/><rect class="cls-13" x="284.82" y="868" width="28.09" height="3.51" transform="translate(-121.57 51.81) rotate(-8.24)"/><path class="cls-11" d="M298.39,756c2.06,4.61,4.79,9.39,9.41,11.43a2.78,2.78,0,0,0,2.32.19,2.11,2.11,0,0,0,.9-2.22,5.91,5.91,0,0,0-1.11-2.28c-2.35-3.51-4.81-7.12-8.34-9.44a2,2,0,0,0-1.61-.47,1.45,1.45,0,0,0-.95,1.44,4,4,0,0,0,.55,1.75,27,27,0,0,0,6.26,8"/><path class="cls-11" d="M297.71,756c1.83,4.88,4.77,11.67,10.43,13a3.55,3.55,0,0,0,4.45-2.32,1.68,1.68,0,0,0,.09-.32c.55-2.63-1.65-5.12-3-7.11-1.64-2.35-8-11.22-11.5-7-1.62,1.94-.13,4.38,1,6.14,1.63,2.58,3.51,5.18,6.5,6.17a.55.55,0,0,0,.69-.72c-1.2-2.68-3.94-4.67-4.86-7.45-.84-2.53,1.7.57,2.36,1.3a39.41,39.41,0,0,1,2.77,3.42c.4.54,2.8,3.34,2.6,3.89-.51,1.43-3.36-.93-3.95-1.39-2.71-2.15-4.54-5.2-6.16-8.2a.72.72,0,0,0-1-.38.73.73,0,0,0-.39,1h-.06Z"/><path class="cls-11" d="M313.78,770.26l2.13,2.32c.59.64,1.36,1.35,2.22,1.16a.49.49,0,0,0,.25-.12c.15-.16.06-.42,0-.62a9.07,9.07,0,0,0-3.41-3.67.51.51,0,0,0-.43-.1.43.43,0,0,0-.23.35,1.93,1.93,0,0,0,.87,1.67,4.54,4.54,0,0,1,1.39,1.37"/><path class="cls-11" d="M313.34,771c1.07,1.38,2.54,4.08,4.63,3.94,2.42-.17.63-2.82-.16-3.75-.66-.76-3-3.32-4-1.86a2,2,0,0,0,.34,2.25,11.29,11.29,0,0,0,2.23,1.65.29.29,0,0,0,.41-.06.31.31,0,0,0,0-.21,2.27,2.27,0,0,0-.49-1.21c-.18-.2-1.72-1.3-1.39-1.59l-.52.14c.67,0,1.61,1.13,2,1.58.22.25,1.37,1.52,1.23,1.83l.42-.43c-.71.34-1.52-.84-2-1.26-.65-.62-1.33-1.23-2-1.84-.49-.46-1.18.31-.79.82Z"/><path class="cls-11" d="M291.11,749a9.87,9.87,0,0,0,3.54,3.8.8.8,0,0,0,.56.15c.37-.11.34-.65.2-1a9.56,9.56,0,0,0-3.4-4.48.44.44,0,0,0-.38-.12.35.35,0,0,0-.2.18c-.52.85.09,1.94.73,2.7a23,23,0,0,0,1.82,2"/><path class="cls-11" d="M290.78,749c0,1.79,2.27,4.52,4,4.87a1.35,1.35,0,0,0,1.57-1.09,1.22,1.22,0,0,0,0-.33,6.08,6.08,0,0,0-1.31-3.07c-.74-1.1-3.45-4.46-4.56-2-.89,2,1.53,4.91,3.41,5.17a.34.34,0,0,0,.37-.31v-.07a3.73,3.73,0,0,0-1-1.91c-.22-.28-1.51-1.75-1.07-2.16l-.67.19c.43,0,1.43,1.26,1.82,1.77a21.6,21.6,0,0,1,1.3,2.23l.68-.19c-.68,0-1.73-1.09-2.22-1.54a12.48,12.48,0,0,0-1.79-1.77c-.19-.11-.52,0-.53.22Z"/><path class="cls-11" d="M299.15,748.38c.24.9,1.12,1.45,1.92,1.93a.76.76,0,0,0,.33.11.42.42,0,0,0,.37-.46,1.2,1.2,0,0,0-.26-.6,8.79,8.79,0,0,0-1.63-1.76.63.63,0,0,0-.41-.19c-.31,0-.44.42-.42.73a2.86,2.86,0,0,0,2.38,2.55"/><path class="cls-11" d="M299,748.35a1.8,1.8,0,0,0,.72,1.53c.39.39,1,1.06,1.63,1.1a1,1,0,0,0,1.07-.93,1.21,1.21,0,0,0,0-.19,3.34,3.34,0,0,0-1.2-2c-.46-.47-1.08-1.2-1.81-1.14a1.22,1.22,0,0,0-1,1.22,3.45,3.45,0,0,0,2.55,3.26.62.62,0,0,0,.8-.34.43.43,0,0,0,0-.16.63.63,0,0,0-.38-.65,2.38,2.38,0,0,1-1.27-.84c-.09-.12-.64-1.14-.4-1.21h-.52c.48.13.9.69,1.2,1s.31.39.46.59a2,2,0,0,1,.17.23c.08.17.15.14.23-.1-.11-.24-.89-.45-1.13-.63s-.59-.62-.91-.92c-.09-.09-.24,0-.26.11Z"/><path class="cls-11" d="M307.62,772a2.34,2.34,0,0,0,1.69,2.17.51.51,0,0,0,.3,0,.47.47,0,0,0,.19-.15,1.14,1.14,0,0,0,.12-1,3,3,0,0,0-.56-.94,2.07,2.07,0,0,0-.6-.58.71.71,0,0,0-.8.06.69.69,0,0,0-.15.66,1.93,1.93,0,0,0,.34.63,11.37,11.37,0,0,0,1.14,1.26"/><path class="cls-11" d="M307.21,772.14a2.53,2.53,0,0,0,2,3l.35,0a1.41,1.41,0,0,0,1.41-1.39v0a3,3,0,0,0-.84-1.89,2.28,2.28,0,0,0-1.51-1.18,1.3,1.3,0,0,0-1.42.85c-.41,1.15,1,3.21,2.24,3a.49.49,0,0,0,.42-.42c.07-.73-.4-1.09-.83-1.6-.16-.19-.66-.76-.12-.07.24.3.49.62.15.9l.76-.21c-.68,0-1.34-.71-1.67-1.27s-.9-.14-1,.28Z"/><path class="cls-11" d="M294.34,743.41a1.43,1.43,0,0,0,.57,1c.34.2.91-.1.78-.48-.06-.17-.24-.27-.37-.41s-.26-.5-.5-.63c-.4-.25-.94.3-.8.75a1,1,0,0,0,1.17.56"/><path class="cls-11" d="M294.18,743.21l-.07.06a.47.47,0,0,0-.16.39c.21.81.87,1.65,1.78,1.14s.27-1.47-.16-2.1a1.25,1.25,0,0,0-1.72-.39,1.26,1.26,0,0,0-.51.63c-.45,1,.54,1.93,1.52,2a.79.79,0,0,0,.87-.68,1,1,0,0,0-.06-.41.75.75,0,0,0-.62-.46c-.46,0-.59.12-.25.46.5.51.16-.22,0-.44s-.38-.41-.57-.22Z"/><path class="cls-11" d="M251,793.62a16.8,16.8,0,0,0-1.48,3.62,1.79,1.79,0,0,0-.05,1.12,1.34,1.34,0,0,0,.59.63,3,3,0,0,0,3.88-1.26,6.52,6.52,0,0,0,.61-4.38,1.79,1.79,0,0,0-.44-1.13,1.3,1.3,0,0,0-1.35-.19,3.51,3.51,0,0,0-1.14.85c-.91.92-1.77,2.12-1.54,3.39"/><path class="cls-11" d="M250.94,793.44c-1.15.54-1.74,2.13-2.12,3.27a2.35,2.35,0,0,0,.63,2.89c2.1,1.51,4.86-.14,5.7-2.26.7-1.78,1-6.23-1.78-6.29-2.22,0-4.91,3.38-3.75,5.43.2.36.83.47,1,0a6.4,6.4,0,0,1,2.13-3.37c1-.66,1,.79,1.06,1.5a5,5,0,0,1-.37,2.26c-.5,1.11-3.06,2.64-3,.49,0-1.31,1-2.42.82-3.76a.2.2,0,0,0-.25-.16h-.07Z"/><path class="cls-11" d="M251.17,786.46a1.21,1.21,0,0,0-.29,1.67c.08.11.2.21.33.17a.42.42,0,0,0,.2-.27,3.25,3.25,0,0,0,0-2"/><path class="cls-11" d="M250.14,785.69c-1.06.79-1.37,2.77,0,3.52,1.88,1.06,2.36-1.86,2-3a1.14,1.14,0,0,0-.94-.92A1.05,1.05,0,0,0,250,786a2,2,0,0,0,0,.85v.56c0,.19-.06.38.13.12l.8-.28c.84.1.12.3.43,0a1,1,0,0,0-1.23-1.54Z"/><path class="cls-11" d="M253,802.26a1.85,1.85,0,0,0-.42,1.22c.07.44.66.77,1,.45a.78.78,0,0,0,.18-.35,4.88,4.88,0,0,0,.16-1.47,1.2,1.2,0,0,0-1.24.59"/><path class="cls-11" d="M252.91,802a1.38,1.38,0,0,0-.83,1.75,1.41,1.41,0,0,0,.65.75c1.46.73,1.88-1.38,1.91-2.36a.8.8,0,0,0-.72-.87h-.16a1.77,1.77,0,0,0-1.66,1.14.59.59,0,0,0,.34.75.58.58,0,0,0,.55-.08.81.81,0,0,1,.78-.26l-.67-.66a3.86,3.86,0,0,1,0,.68c0,.15-.22,1,0,.37a3.11,3.11,0,0,0,.11-1.05c0-.13-.18-.2-.29-.16Z"/><path class="cls-11" d="M246.24,802.44a2.69,2.69,0,0,0-.72,1.87.93.93,0,0,0,.09.4.81.81,0,0,0,.86.28c1-.22,1.52-1.31,1.82-2.28.17-.55.22-1.32-.31-1.55s-.91.17-1.22.53a8.08,8.08,0,0,0-.95,1.36"/><path class="cls-11" d="M246,802.21c-.71.7-1.64,2.47-.47,3.2s2.54-.61,3-1.65.95-3-.62-3.27c-1.22-.23-3,1.62-2.6,2.78a.5.5,0,0,0,.52.29c.6-.14.74-.54,1.08-1,.12-.15.53-.85.78-.62s-.12.77-.17.9a2.47,2.47,0,0,1-1,1.48c-1.06.57-.32-1.31-.07-1.65s-.2-.73-.47-.45Z"/><path class="cls-11" d="M249.26,793.65a1,1,0,0,0,.42-1.35,1,1,0,0,0-.7-.52,1,1,0,0,0-.69,1.15A1,1,0,0,0,249.26,793.65Z"/><path class="cls-11" d="M255.81,787.85a1.11,1.11,0,1,0-1.26-.94,1.11,1.11,0,0,0,1.26.94Z"/><path class="cls-14" d="M608.8,748.43c7.14-3.65,17.09-2.43,24.67-1.32,9.42,1.38,18.91,4.54,25.52,11.72,10.62,11.54,9.22,30.74-5.65,38.19-13.1,6.55-33.72.56-38.5-13.72l-2,3.32c.18.59.36,1.16.5,1.68.54,2-1.44,3.9-3.31,2.52C598.8,782.49,594.1,755.94,608.8,748.43Z"/><path class="cls-14" d="M610.21,761.78c-4.7-.9-9.54-.43-14.32-.77s-9.82-1.71-12.9-5.38-3-10.11,1-12.6c4.53-2.77,10.29.66,14,4.44s7.71,8.4,13,8.3"/><path class="cls-14" d="M610,763c-9.51-1.27-35.17,1.41-30.91-16.37,1.29-5.37,6.46-7.78,11.62-6.52,3.42.84,6.3,3,8.87,5.28,1.8,1.61,3.39,3.44,5.33,4.9,2.2,1.66,4.58,2.17,7,3.28,1.64.75,2,3.71,0,4.28-3.74,1-6.66-.31-9.68-2.67-3.87-3-7.77-10.11-13-10.59s-7.78,4.38-5.35,8.82c1.78,3.26,5.55,4.81,9,5.53,5.74,1.19,11.7.51,17.48,1.5a1.29,1.29,0,1,1-.35,2.56Z"/><path class="cls-14" d="M625.34,753.27a37,37,0,0,0,12.44-19.43,5.15,5.15,0,0,0,0-3.38,4.34,4.34,0,0,0-3-2.13c-6.74-1.68-13,4.74-15.1,11.37s-1.68,13.87-4,20.43"/><path class="cls-14" d="M623,751.84c3-3.72,6.34-6.83,8.55-11.19.66-1.3,3.06-6,2.72-7.22-1.46-5.1-7.56-.41-9.09,1.25-6.8,7.44-3,18.76-8.78,26.4a1.57,1.57,0,0,1-2.75-.74c-.65-11.53,2.82-36.12,19.21-35.26,17.47.91.38,25.84-6.62,30-2.11,1.26-5-1.08-3.24-3.28Z"/><path class="cls-14" d="M612.86,751.06a106.29,106.29,0,0,0,.9-35.58"/><path class="cls-14" d="M611.84,750.92a132.58,132.58,0,0,0-.21-35.15c-.39-2.75,3.92-3.32,4.26-.58a97.85,97.85,0,0,1-2,36,1,1,0,1,1-2-.28Z"/><path class="cls-14" d="M608.25,753.85A110.26,110.26,0,0,0,590.86,719"/><path class="cls-14" d="M607,754.31a114.94,114.94,0,0,0-7.52-18.1c-3-5.69-7.42-10.91-9.8-16.85a1.13,1.13,0,0,1,1.72-1.31c9.57,7.91,14.58,23.8,17.82,35.3.41,1.45-1.73,2.41-2.22.92Z"/><path class="cls-14" d="M591.24,718.74a4.32,4.32,0,0,1,3,4.54c-.33,1.93-2.7,3.33-4.42,2.4a3.89,3.89,0,0,1-1.73-2.39c-.93-3.23,1.66-7.2,5-7s5.1,5.5,2.23,7.24c-3.11,1.7-7.12-2.79-5.26-5.81s7.4-1.87,8.14,1.59-3.38,6.8-6.71,5.57a5.38,5.38,0,0,1-3.4-4.24,5,5,0,0,1,3.89-5.52,4.35,4.35,0,0,1,4.89,3.73,3,3,0,0,1,0,.52"/><path class="cls-14" d="M591.59,717.59c2.16-.33,4.06,1.76,4.78,3.63a5.39,5.39,0,0,1-2,6.29c-4.81,3.5-9.8-1.68-9.2-6.69.55-4.52,5.23-8.84,9.92-7,3.89,1.54,6,7,3.43,10.58-3.07,4.19-9.06,2.2-11.08-1.92A6.5,6.5,0,0,1,593,713c4.64-.29,8.94,3.44,8.19,8.27a8.27,8.27,0,1,1-12.79-8.2c4.83-3.42,13.93,1,11.25,7.42a3,3,0,0,1-5.54,0c-.44-1-1.12-3.15-2.43-1.66a2,2,0,0,0,1.4,3.15c1.1,0,2.69-1.4,1.93-2.48-.41-.58-2.12-1-2.52-.23-.2.39.4,1.13.63,1.31s.87.34.72.45c.38-.27-.38-1.91-1.17-2-1.36-.07-2.55,2.64-1.89,3.68.43.67.86.45,1-.44.21-1.11-1-1.92-1.31-2.86a1.41,1.41,0,0,1,.81-1.84,1,1,0,0,1,.29-.08Z"/><path class="cls-15" d="M616.92,711.93c.26,1.44-2.55,1.26-2.72-.19s1.15-2.59,2.33-3.44a4.43,4.43,0,0,1,1.2,6.15l-.06.09-7.06-.94a5.17,5.17,0,0,1,4.83-5.49h.33a4.76,4.76,0,0,1,4.19,5.27,4.55,4.55,0,0,1-.19.89c-1.22,3.06-6.26,3.39-8,.56s.86-7.05,4.16-7,5.62,4.31,4,7.19"/><path class="cls-14" d="M615.34,714.59a3.54,3.54,0,0,1-3.26-3.09c-.28-2.31,1.35-4.09,2.94-5.52a2.5,2.5,0,0,1,2.56-.31,7,7,0,0,1,2.91,9.46,6.17,6.17,0,0,1-.55.88,2.79,2.79,0,0,1-2.61,1.06l-7.07-.84a3,3,0,0,1-2.52-2.51c-.31-5.47,4.89-10.62,10.46-8.38,4.88,2,6.75,9,2.4,12.47-3.62,2.9-9.78,2-11.7-2.48a7.93,7.93,0,0,1,5.88-10.63c6-1,11.28,6.68,7.17,11.57-1.46,1.72-4.76.65-4.29-1.81.24-1.21-.2-4.47-2.11-3.78-1,.35-1.71,2-.71,2.64s2.72-.17,2-1.53c-.91-1.77-3.35-.63-3.31,1.14L611,710.42l7.05,1-2.61,1.06A2,2,0,0,0,615,710h3.14a15.59,15.59,0,0,1-1.41,1l-.32.37c-.5-.62-.51-.81,0-.58,2.16.67,1.12,4.09-1,3.78Z"/><path class="cls-14" d="M518.65,846.6a18.54,18.54,0,0,1,1.68-1,26,26,0,0,1,11.31-6.24c7.23-2,14.78-1.05,21.72,1.56,5,1.89,9.58,5.17,15.29,3.74s9.72-6.83,12.53-11.78c5.59-9.85,9.23-21.39,12-32.31,2.48-9.88,2.8-20.51,5.74-30.21,3.31-10.88,18.51-20.29,25.26-6.6,1.76,3.57,2.2,7.85,2,12.23a18.51,18.51,0,0,0-3.16,3.62A16.92,16.92,0,0,0,622,781.4a1.63,1.63,0,0,0-.11.23,17.33,17.33,0,0,0-.77,1.7c-.08.19-.15.38-.21.56-.2.53-.37,1.06-.52,1.61-.06.21-.12.41-.17.62-.19.73-.34,1.48-.46,2.23a1.16,1.16,0,0,1,1.67,1.37,418.61,418.61,0,0,0-19,104.19c-.55,11,.09,23.69-12.25,28.09-10.29,3.67-20.52-1.84-26.74-10.06-4.41-5.82-5.24-13.81-14.72-11.12-5.45,1.55-10.5,6.54-15.46,9.23-8.17,4.43-17.67,5.36-24.7-1.78C492.41,891.91,501.34,858.28,518.65,846.6Z"/><path class="cls-14" d="M494.14,862.43a6.25,6.25,0,0,1,.72.17,34.47,34.47,0,0,1,28-11.88c.77,0,.77,1.32,0,1.37a33.27,33.27,0,0,0-18,6.43,38.59,38.59,0,0,0-6.57,5.87l-.23.28a6,6,0,0,1,1.48,4.92,6.36,6.36,0,1,1-5.45-7.16Z"/><path class="cls-16" d="M620,757.32c1.39,5.72-5.69,9.24-10.23,6.34-3-1.91-2.63-6.54-.9-9.18,1-1.49,3.13.21,2.16,1.69-.76,1.16-1.16,3.55-.27,4.73.76,1,2.6,1,3.73.88a3.12,3.12,0,0,0,2.93-3.3,3,3,0,0,0-.15-.79c-.42-1.72,2.31-2.08,2.73-.37Z"/><path class="cls-9" d="M608.91,767.38c3.31.45,5.68,3.21,5.28,6.16s-3.42,5-6.73,4.52-5.68-3.21-5.28-6.15S605.6,766.93,608.91,767.38Z"/><g class="cls-17"><path class="cls-9" d="M624.34,785c5-14.88,22.16-30.62,38.35-26.11,2.13.6,3.52.59,3.64,2.34a2.79,2.79,0,0,1,2.61,1.51c6.3,11.82,7,21-.7,32.24-6.93,10.18-21.72,19.84-34.53,16.8C621.34,808.88,620.68,795.82,624.34,785Z"/></g><path class="cls-14" d="M656.28,779.48s-3.23-6,.74-5.46C659,774.29,658.26,779.75,656.28,779.48Z"/><path class="cls-14" d="M637.8,781.6s-3.22-6,.74-5.45a2.76,2.76,0,1,1-.27,5.51A3.55,3.55,0,0,1,637.8,781.6Z"/><path class="cls-11" d="M601.34,791.92c.87.79.56,1.88.4,3a13.73,13.73,0,0,1-1.15,4.07c-.48,1-1.13,2.29-2.31,2.56A1.94,1.94,0,0,1,596,800a12,12,0,0,1,1.6-8.15c1.2-1.63,4.29-1.26,3.88,1.15a1.26,1.26,0,0,1-2.22.58q-.35-.37.15-.12c.36,0,.41.14.14.43a13.94,13.94,0,0,1-.6,2c-.08.35-.73,3.09-.4,3.33l-1-.28a11.65,11.65,0,0,0,1-1.7,16.22,16.22,0,0,0,1-2c.4-1,.33-2.56,1.31-3.22a.41.41,0,0,1,.51,0Z"/><path class="cls-11" d="M601,793.94l-.21,3.19c-.19,2.76-4.9,1.74-3.76-1l1.2-2.91A1.46,1.46,0,0,1,601,794Z"/><path class="cls-11" d="M596.23,802.73a2.41,2.41,0,0,1-.73,2.09c-1.06,1.37-3.43,0-2.66-1.56.36-.75.63-1.36,1.49-1.62a1.4,1.4,0,0,1,1.82.81,1.29,1.29,0,0,1,.08.28Z"/><path class="cls-11" d="M598.1,789.82a1.86,1.86,0,1,1,2.1-1.6,1.86,1.86,0,0,1-2.1,1.6Z"/><path class="cls-11" d="M599.64,808a13,13,0,0,1-.67,5.22c-.58,1.44-1.68,3.85-3,4.73a2.12,2.12,0,0,1-2.94-.59l-.06-.09c-1-1.53-.16-3.88.24-5.46.46-1.88,1.84-9.12,5.12-7,2.54,1.62,1.09,6.89-1.5,7.58a.75.75,0,0,1-.77-.44,3.69,3.69,0,0,1-.19-1.89c.06-.39,1-2.45.55-2.8l1.16-.26h.63a14.51,14.51,0,0,0-1.77,4.62c-.22.79-1.23,3.44-.76,4.14l-1-.6q-.64.4-.15-.15a11.6,11.6,0,0,0,.81-1.29c.38-.68.66-1.38,1-2.07.7-1.38,1.55-2.64,2.18-4,.23-.52,1.17-.49,1.19.4Z"/><path class="cls-11" d="M604.6,800a5.62,5.62,0,0,1-1.45,5.26c-1.73,1.68-3.75.32-3.66-1.89.08-1.56.7-4.17,2.26-5A1.83,1.83,0,0,1,604,799a2.45,2.45,0,0,1,.08,2.52c-.62,1.5-2.75.51-2.29-1l.11.11,1,.27c.35,0,.13,0,0,.31a5.62,5.62,0,0,0-.29,1,6.82,6.82,0,0,0-.08.79.86.86,0,0,0,0,.39c.06.44-.09.31-.46-.37h-1.25a12.81,12.81,0,0,0,.74-1.3,4.48,4.48,0,0,0,.52-1.7,1.26,1.26,0,0,1,2.47,0Z"/><path class="cls-11" d="M590.94,814.09c-.15,1.27.8,4.41-1.26,4.58a1,1,0,0,1-1-.79,5,5,0,0,1,1.25-4,1,1,0,0,1,1.78.76c0,1.18-.15,2.84-1.14,3.62a.63.63,0,0,1-.88-.13.7.7,0,0,1-.12-.28c-.23-1,.23-2.15.15-3.22l1.78.49a10.63,10.63,0,0,0-1,2.8c-.19-.32-.37-.65-.55-1l.21.08h-.68c.67-.23,1.27-2.32,1.27-2.9,0-.16.24-.16.22,0Z"/><path class="cls-11" d="M507.94,872c1,2.06.76,6.43-.54,8.36-1.14,1.69-3.66,1.79-4.45-.24s-.26-5.49.34-7.66a12.36,12.36,0,0,1,4.46-6.74,1.66,1.66,0,0,1,2.33.37,1.63,1.63,0,0,1,.31,1.17,54.28,54.28,0,0,1-1.52,7.25c-.61,2.16-1.07,4.4-2.73,6a1.25,1.25,0,0,1-1.74-.2,1.31,1.31,0,0,1-.26-.62c-.08-2,.83-3.63,1.39-5.5a48.79,48.79,0,0,0,1.56-7.35l2.64,1.54c-2.54,1.94-3.57,4.89-3.77,8,0,.84.51,1.85-.58,1.8s0-1.15.29-1.81c.67-1.47,1-3.14,2.07-4.36a.11.11,0,0,1,.15,0l0,0Z"/><path class="cls-11" d="M510,862.53a2,2,0,0,1-2.56,1.19.83.83,0,0,1-.51-.9c.3-1.73,2.13-5.69,4.47-4s-.74,4.48-2.26,5.27c-1.34.69-2.64-1.53-1.33-2.32a4,4,0,0,0,.95-.73c.22-.23.33-.68.52-.87,1.08.46,1.3.85.67,1.17a3.78,3.78,0,0,0-.58.55,5.32,5.32,0,0,0-.81,1.33l-.45-1.12a.55.55,0,0,0,.77-.13l.06-.11c.39-.64,1.26,0,1.06.62Z"/><path class="cls-11" d="M505.8,885.46a6.12,6.12,0,0,1,0,3.74c-.55,1.61-2.58,1.15-3.25,0-1-1.67-.59-4.11,1.56-4.44a.52.52,0,0,1,.58.45,8.88,8.88,0,0,0,.31,1c.07.27,0,.69.27.91l-2.84,1.15a25.33,25.33,0,0,1,.45-2.81C503.09,883.69,505.43,883.94,505.8,885.46Z"/><path class="cls-11" d="M513.11,866.21a.62.62,0,0,1-.53-.7.61.61,0,0,1,.69-.53h0a.62.62,0,0,1,.54.69.63.63,0,0,1-.7.54Z"/><path class="cls-11" d="M507.45,885.27a1.56,1.56,0,1,1,1.6-1.22A1.57,1.57,0,0,1,507.45,885.27Z"/><path class="cls-18" d="M496.61,768.37a4.84,4.84,0,0,0-5.7-3.57c-4.35.64-7.91,3.51-10.38,7-2.82,4-3.6,9.18-4,13.94a4.75,4.75,0,0,0,9.5.4,22,22,0,0,1,2-8.36,7.16,7.16,0,0,1,2.38-2.77c-.49.4.86-.48,1.05-.58l.18-.08a7.61,7.61,0,0,1,1.42-.29C495.62,773.7,497.16,770.74,496.61,768.37Z"/><path class="cls-9" d="M447.2,766.34a8,8,0,0,0-3.54-7.3,8.41,8.41,0,0,0,2.76-5.71c.22-3-1.41-5.11-3.63-6.58a8.43,8.43,0,0,0,4.19-6,8.23,8.23,0,0,0-3.29-7.75,8.08,8.08,0,0,0,2.77-7.36c-.88-5.59-6.43-8.69-11.76-7.4a1.67,1.67,0,0,0-1.7,1.64V720q-.27,28.59.17,57.17c0,2.18,0,4.37.13,6.55s1.58,3,3.51,3.27c3.31.47,6.62-1.83,8.24-4.54a7.71,7.71,0,0,0-1.43-9.58A9,9,0,0,0,447.2,766.34Z"/><path class="cls-9" d="M438,778.06v-8.82a113.75,113.75,0,0,0,1-17c0-5.69.09-11.35,0-17v-8.15c.18-2.87.39-6.37-2.46-8.1-2.12-1.29-4.53-1.29-6.94-1.32a68.31,68.31,0,0,0-7.57.41A60.25,60.25,0,0,0,408.82,721a65.38,65.38,0,0,0-24,14.18,64.66,64.66,0,0,0-19.94,50.73c.14,2.22,1.5,4.15,3.9,4.25a2.75,2.75,0,0,0,2.36-1.11h.2l33.77,1h25c3.29-.65,6.66-.65,8.16-4.19C439.24,783.57,438.75,780.45,438,778.06Z"/><path class="cls-9" d="M413.1,855.85a10.88,10.88,0,1,1-10.42-11.32h0A10.89,10.89,0,0,1,413.1,855.85Z"/><path class="cls-9" d="M461.54,857.89a10.87,10.87,0,1,1-10.41-11.32A10.87,10.87,0,0,1,461.54,857.89Z"/><path class="cls-9" d="M493.65,791.05c-.42-3.6-4-5.44-7.13-5.92A487.72,487.72,0,0,0,375,780.71c-4.16.32-7.77,2.79-8,7.32v.16c0,.15-.1.3-.14.45-2.79,9.88-.93,20.39,4.24,29.18,5.5,9.36,14.09,15.64,23.76,20.19,9.07,4.28,19.26,6.38,29.17,7.55a80.86,80.86,0,0,0,30.12-1.88A56.69,56.69,0,0,0,484.34,824,44.53,44.53,0,0,0,493.65,791.05Z"/><path class="cls-14" d="M487,782q-56-3.33-112-5.11a10.37,10.37,0,0,0-1.12,20.71h.24q56.06,1.77,112.05,5.1c7.31.31,13.17-7,9.85-14.92a9.7,9.7,0,0,0-9-5.79Z"/><path class="cls-18" d="M403.62,835.3a19.15,19.15,0,0,0-19.94,18.32h0c-.45,10.57,6.2,20.29,18.29,21,10.56.59,19.65-5.79,20-19.35A19.27,19.27,0,0,0,403.62,835.3ZM402.77,863a7.32,7.32,0,1,1,7.62-7h0a7.31,7.31,0,0,1-7.62,7Z"/><path class="cls-3" d="M416.82,845.15a15.92,15.92,0,0,0-13.19-6.8c-2.4,0-2.57,3.74-.16,3.74a12.31,12.31,0,0,1,10.34,5.23c2.54,3.72,2.22,8.1,1.43,12.32-.44,2.34,3.12,3.51,3.56,1.15C419.82,855.31,420.1,849.94,416.82,845.15Z"/><path class="cls-18" d="M450.94,837.29a19.17,19.17,0,0,0-20,18.3v0c-.44,10.57,6.21,20.29,18.29,21,10.56.58,19.65-5.8,20-19.35A19.29,19.29,0,0,0,450.94,837.29ZM450.08,865a7.32,7.32,0,1,1,7.62-7h0a7.31,7.31,0,0,1-7.61,7Z"/><path class="cls-3" d="M464.13,847.14a15.85,15.85,0,0,0-13.19-6.79c-2.4,0-2.57,3.73-.16,3.73a12.3,12.3,0,0,1,10.34,5.24c2.55,3.72,2.22,8.09,1.43,12.31-.44,2.34,3.12,3.51,3.56,1.15C467.13,857.3,467.41,851.94,464.13,847.14Z"/><path class="cls-9" d="M203.89,832.28l15-6.93a.62.62,0,0,0,.18-.14,6.4,6.4,0,0,0,.42-.49l.14-.18s.06-.11.11-.21a6.89,6.89,0,0,0,.49-.93c.17-.39.19-.43.06-.1,3.23-8.24-.23-18.65-3-26.53-2.31-6.49-2.35-6.86-8.64-7.32-4.61-.35-9.25-.38-13.86-.6-8.67-.42-17.21-1.8-25.77.82a.55.55,0,0,0-.37.65c.56,2.38,2,10.67-2.26,18.42-3.11,5.62-8.47,9.62-15.93,11.91l-.49.14h0c-12,3.41-20.09-1-24.73-5.35a31,31,0,0,1-6.9-9.71.54.54,0,0,0-.66-.31,66.39,66.39,0,0,0-12.34,4.68c-4.13,2.24-7.32,5.59-11,8.47-4.94,3.9-13.46,7.22-16.27,13.19-2,4.25,2.34,9.63,4.26,13.56,3,6.09,5.6,12.94,9.49,18.49.2.29.4.57.61.85a.54.54,0,0,0,.56.21L110.42,861c-.06.12-.12.22-.16.29a.68.68,0,0,0,0,.4c.54,2.16,5.18,20.46,10.3,35.36,2.52,7.34,5.17,13.82,7.26,18.6a15.48,15.48,0,0,0,11.89,9.12,43.34,43.34,0,0,1,13.77,4.32c8,4.23,14.7,13.14,16,14.92a.57.57,0,0,0,.61.21l32.13-9.86a.57.57,0,0,0,.39-.51,55.57,55.57,0,0,1,5.73-22.18,54,54,0,0,1,9-11.77,15.41,15.41,0,0,0,4-14.26c-1.44-6.21-3.61-14.93-6.21-23.43-3.44-11.19-4.3-14-10.75-29.44a.51.51,0,0,0-.22-.26Z"/><path class="cls-14" d="M174,933.4a2.92,2.92,0,1,0,3.65,1.94A2.91,2.91,0,0,0,174,933.4Z"/><path class="cls-14" d="M192.4,927.77a2.92,2.92,0,1,0,3.65,1.93h0A2.91,2.91,0,0,0,192.4,927.77Z"/><path class="cls-14" d="M166.72,790.14a1.81,1.81,0,0,0-1.28,2c.51,2.9,1.1,9.34-2.17,15.25-2.78,5-7.81,8.61-15,10.69h0c-17.32,4.82-25.41-7.86-27.68-12.36a1.82,1.82,0,0,0-2.27-.88L114,806.52h0A34.32,34.32,0,0,0,122,818.07c5.21,4.85,14.22,9.83,27.66,6.19h0l1-.29c8.49-2.61,14.57-7.16,18.1-13.54,5.31-9.59,2.85-19.92,2.43-21.49v-.19Zm-52.25,16.35.12.29Zm5.88,9.51a29.66,29.66,0,0,0,3.55,3.36,29,29,0,0,1-3.56-3.36Zm24.36,8.32a38.56,38.56,0,0,0,4.63-1A38.56,38.56,0,0,1,144.71,824.32Z"/><path class="cls-14" d="M176.2,840.21a16.85,16.85,0,0,0-6.81.53c-6,1.76-9.14,7.73-9.85,13.61a2.32,2.32,0,0,1-.07.69c.08-.9-3.17-3.18-3.77-3.64a15.19,15.19,0,0,0-7.49-3.17c-6.34-.66-13.2,4.09-15.51,9.9-4.77,12,8.2,21.13,17.17,26.18,7.28,4.09,18.37,6.45,21.13,6.88v.17l-.48-.36H171v0c1.23-1.56,9.1-9.73,12.83-17.2,2.94-5.87,5.67-12.65,5.5-19.39C189.14,846.8,183.83,841.21,176.2,840.21Z"/><path class="cls-14" d="M713.41,839.67a24.27,24.27,0,0,0-5.62-10.88,30.49,30.49,0,0,0-12.11-7.68c-6.62-2.54-14.31-3.37-21.15-1.25a24.44,24.44,0,0,0-15.59,13.76c-2.8,6.72-1.12,14.39,1.73,20.78.67,1.49,1.46,2.92,2.25,4.35A21.49,21.49,0,0,1,664,861c0-.11.24,1.57.23,1.16a8.87,8.87,0,0,1-.73,4,38.15,38.15,0,0,1-2.18,4.89,3.68,3.68,0,0,0,.49,3.77,3.92,3.92,0,0,0,1.7,4.2,53,53,0,0,0,14.56,5.16,9,9,0,0,0,7.21-1.2c2-1.27,3-4.3,3.88-6.33.39-.92.76-1.85,1.15-2.77a17.91,17.91,0,0,1,1-2.07,7.09,7.09,0,0,1,3.61-3.28c1.73-.82,3.58-1.36,5.33-2.14a23,23,0,0,0,5.57-3.63A23.87,23.87,0,0,0,713.41,839.67Z"/><path class="cls-19" d="M681.09,886.21a5.92,5.92,0,1,0-6.33,10l.14.08.47.33.29.29c.26.25.49.52.73.79h0a14.79,14.79,0,0,1,1,1.83c.15.44.27.9.39,1.35s.15.71.22,1.07v.11a18.23,18.23,0,0,1,0,2.56,10.88,10.88,0,0,1-.11,1.27.33.33,0,0,0,0,.14c-.84,4.72-2.87,9.91-7.34,12.46-5.21,3-12.18,1-17.06-1.71S645.35,908.61,646,903a12.88,12.88,0,0,1,7.13-9.94c.16-.08.54-.23.78-.34a9.76,9.76,0,0,1,1.12-.33c.37-.1.91-.22,1.37-.31L657,892a17,17,0,0,1,1.75,0h.56c3.16.59,6.34-.75,7.3-4,.83-2.88-.87-6.72-4-7.33a24,24,0,0,0-20.73,5.86c-9.65,8.6-11.71,26-1.74,35,7.78,7,19.54,11.6,30,9.65C688.75,927.73,698,897.34,681.09,886.21Z"/><path class="cls-9" d="M713.94,890.41c.26-3.46-2.29-5.77-5.46-6.34-1.92-.34-3.82-.72-5.73-1.09l.6.34c-9.11-2.46-18.31-4.75-27.12-8.14q-8.65-3.33-17-7.47l-1.59-.8-1.53-.8c-1.37-.73-2.72-1.47-4.07-2.22q-4.25-2.39-8.36-5a6,6,0,0,0-8.25,1.44c-1.77,2.53-1.29,6.53,1.45,8.24a203.16,203.16,0,0,0,19.49,10.79,4.4,4.4,0,0,0-.72,1.55l-1.05,4.3c-.61,2.48-.21,5.36,2.17,6.84a56.85,56.85,0,0,0,13.45,6.16c1.68.5,3.54,1.17,5.29.84a8.85,8.85,0,0,0,4.53-2.92,23.23,23.23,0,0,0,4-5.68,168.45,168.45,0,0,0,23.46,5.47C710.78,896.44,713.72,893.38,713.94,890.41Z"/><path class="cls-3" d="M479.28,817a10.45,10.45,0,0,0-5.5,7.83c-.13,1,.09,2.39,1.11,2.66a2.28,2.28,0,0,0,1.57-.34,12,12,0,0,0,6.26-8.8c.12-.83.06-1.85-.68-2.23a2,2,0,0,0-2.09.58,10,10,0,0,0-3.22,5"/><path class="cls-3" d="M479,816.54c-3.19,1.65-6.74,5.67-6.06,9.58.78,4.55,5.86.85,7.5-1s5.29-7.65,2.3-9.79-6.84,3.7-6.55,6.26a.53.53,0,0,0,.87.36,14.45,14.45,0,0,0,1.41-2c.35-.54,1.64-2.73,2.46-2.76,2.29-.06-1.27,6-1.81,6.6a7.56,7.56,0,0,1-2.57,2.2,1.54,1.54,0,0,1-2-.69c-.23-.52.15-1.44.29-2a10,10,0,0,1,4.67-6,.5.5,0,1,0-.51-.87Z"/><path class="cls-3" d="M486.42,815a1.21,1.21,0,1,0-1.21-1.21A1.22,1.22,0,0,0,486.42,815Z"/><path class="cls-3" d="M471.4,830.76a10.78,10.78,0,0,0-2.57,2.19c-.35.42-.69,1-.46,1.48a1.09,1.09,0,0,0,1,.56,3,3,0,0,0,1.17-.34,9.34,9.34,0,0,0,2-1.06,3.11,3.11,0,0,0,1.24-1.86,1.35,1.35,0,0,0-.37-1.28c-.59-.48-1.47-.07-2.07.4a12.43,12.43,0,0,0-2.55,2.72"/><path class="cls-3" d="M470.83,830.52c-1.45.67-4.7,2.92-2.94,4.8,1.46,1.54,4.54-.28,5.68-1.42s1.9-4.16-.47-4.51c-2.11-.31-4.21,2.3-4.73,4.06-.1.35.34.75.67.51a26.66,26.66,0,0,0,2.21-1.9c.37-.34.89-.94,1.4-.72s-.11,1.08-.48,1.4a6,6,0,0,1-1.38.82c-.21.09-1.18.64-1.41.5-.49-.32,1.76-2.45,2.06-2.74s-.11-1-.61-.8Z"/><path class="cls-3" d="M483.89,807.76a8.44,8.44,0,0,0-1.76,3.81,1.37,1.37,0,0,0,.06,1.2c.4.49,1.19.19,1.66-.22a5.21,5.21,0,0,0,1.75-4.2.71.71,0,0,0-.25-.61.7.7,0,0,0-.6,0,3.56,3.56,0,0,0-1.93,1.67,10.47,10.47,0,0,0-1,2.42.91.91,0,0,0,0,.65c.11.2.45.25.53,0"/><path class="cls-3" d="M484,807.35a6.09,6.09,0,0,0-2.14,2.91c-.45,1-1.1,2.31-.28,3.3,1.93,2.2,4.66-1.83,5.1-3.38.28-1,.52-2.68-.36-3.41s-2.4,0-3.18.72c-1.1,1-3.81,5.91-.93,6.1.89.06,1.1-1.44.21-1.56.36,0,.26-.13.39-.49a9.66,9.66,0,0,1,.43-1.1,4.92,4.92,0,0,1,1-1.52c.28-.24.75-.36,1-.58l-.24-.2v.37a11.59,11.59,0,0,1-.46,2,4.68,4.68,0,0,1-1,1.47c-.75.67-.62-.24-.53-.84a13.84,13.84,0,0,1,1.16-3.61c0-.1,0-.21-.15-.16Z"/><path class="cls-3" d="M638.27,894.91a6.76,6.76,0,0,0-1.66,7.87,11.9,11.9,0,0,0,2.94-8.33"/><path class="cls-3" d="M637.91,894.31a7.82,7.82,0,0,0-3.38,3.82c-.75,1.79-.23,3.86.51,5.57a1.81,1.81,0,0,0,2.49.63,1.54,1.54,0,0,0,.36-.27,12,12,0,0,0,2.82-9.93c-.19-1.44-2.27-.94-2.37.32a13.16,13.16,0,0,1-3,7l2.85.36a7.55,7.55,0,0,1,.71-6.59c.41-.6-.38-1.3-1-1Z"/><path class="cls-3" d="M640.34,889l-.26.17a2,2,0,0,0-.53,2.78,1.91,1.91,0,0,0,.53.53l.26.18a2.12,2.12,0,1,0,0-3.66Z"/><path class="cls-3" d="M639.57,908.82a1.82,1.82,0,1,0-1.82-1.82A1.82,1.82,0,0,0,639.57,908.82Z"/><path class="cls-3" d="M193.34,829.28c2.5,14.63,7.38,33.25,15.76,45.72a1,1,0,0,0,1.84-.78c-1.74-7.73-5.58-15.09-8.32-22.54s-5.14-15.23-8.11-22.72a.61.61,0,0,0-1.17.32Z"/><path class="cls-3" d="M179,793.79c6.75.28,14.48,1.62,21.07-.23a1,1,0,0,0,0-2c-6.59-1.85-14.32-.51-21.07-.24a1.21,1.21,0,0,0-1.21,1.21,1.22,1.22,0,0,0,1.21,1.21Z"/><path class="cls-11" d="M703.75,836.43c1.52.52,1.89,2.43,2.1,4s.8,3.51,2.38,3.75a2.55,2.55,0,0,0,2.64-2.06,5.83,5.83,0,0,0-.55-3.58,17.44,17.44,0,0,0-3.44-5.24,2.61,2.61,0,0,0-2.11-1.06c-1.43.21-1.62,2.21-1.26,3.61a17.81,17.81,0,0,0,3.83,7.36"/><path class="cls-11" d="M703.42,837c2.68,1.39,1.25,9.67,5.92,8.36,4.38-1.24,1.67-7.24.2-9.63-1.23-2-5-6.72-7-2.7-1.62,3.35,1.47,9.84,4.32,11.68.63.4,1.69-.29,1.37-1.06-1-2.33-2.76-4.16-3.63-6.6a5.52,5.52,0,0,1-.53-2.11,5.93,5.93,0,0,1,0-.94h2.11c1.12.42,2.33,2.76,2.91,3.79a12.67,12.67,0,0,1,1,2.11c.66,2,.73,2-1.47,2.77s-2,.76-2.49-1.12c-.11-.42-.14-.85-.22-1.28-.32-1.58-.78-3-2.33-3.73-.3-.15-.57.29-.26.46Z"/><path class="cls-11" d="M712.34,844.59a7.88,7.88,0,0,0,0,1.19,1.33,1.33,0,0,0,.16.59.46.46,0,0,0,.54.18.56.56,0,0,0,.23-.25,1.63,1.63,0,0,0-.16-1.76.46.46,0,0,0-.26-.19.36.36,0,0,0-.37.2.87.87,0,0,0-.06.45,2.63,2.63,0,0,0,.43,1.21"/><path class="cls-11" d="M712.34,845c-.3.62-.5,2.13.45,2.34s1.19-.9,1.19-1.53-.65-2.09-1.59-1.5-.26,2,.23,2.58c.23.29.78,0,.64-.36a3.07,3.07,0,0,1-.22-.6c-.08-.75-.08-.68,0,.19-.32.57-.55-.89-.64-1.12h-.06Z"/><path class="cls-11" d="M698.14,830.28a4,4,0,0,0,1.77,2.48,2,2,0,0,0,.82.3.94.94,0,0,0,.79-.31,1.25,1.25,0,0,0,.12-1,3.11,3.11,0,0,0-.95-1.64,2.14,2.14,0,0,0-1.8-.49.72.72,0,0,0-.51.32.85.85,0,0,0,.17.85c.17.26.4.68.61,1"/><path class="cls-11" d="M698.12,830.27c-.31,1.25.8,2.63,1.92,3.09,1.43.6,2.4-.54,2-1.92a2.93,2.93,0,0,0-3.23-2.32c-1.71.37-.76,2.19.23,2.83a.21.21,0,0,0,.28-.1.24.24,0,0,0,0-.08c0-.42-.65-1.48-.15-1.74.74-.38,1.9,1.09,1.92,1.67.07,1.61-1.4.39-1.86-.06s-.7-.95-1.11-1.38h0Z"/><path class="cls-11" d="M704.34,828.86c-.21.36.06.8.35,1.1a7.06,7.06,0,0,0,2.48,1.62.55.55,0,0,0,.36,0c.16-.07.2-.29.19-.47a2.44,2.44,0,0,0-1.06-1.86,3.43,3.43,0,0,0-1.49-.5,1,1,0,0,0-.59.06.42.42,0,0,0-.24.49"/><path class="cls-11" d="M704.28,828.82c-1.36,1.12,2.77,4.26,3.69,2.9.59-.87-.32-2.25-1-2.76s-2.15-1-2.89-.2a.43.43,0,0,0-.11.39.33.33,0,0,0,.08.26.3.3,0,0,0,.37.21.28.28,0,0,0,.18-.14c.12-.24.84-.19,1.08-.15a2,2,0,0,1,.75.34c.28.19,1.27,1.39.52,1.31-.36,0-.84-.5-1.13-.69a3.26,3.26,0,0,1-1.43-1.44.05.05,0,0,0-.08,0h0Z"/><path class="cls-11" d="M709,835v-.49c1.39-.44.5-.45,1,0v.06c-.28.13-.13.2,0,.16s.13-.09.16.27Z"/><path class="cls-11" d="M710,848.34a1.26,1.26,0,1,0-1.26-1.26,1.26,1.26,0,0,0,1.26,1.26Z"/><path class="cls-14" d="M0,943s351-155.55,800,.58V1000H0Z"/><path class="cls-11" d="M797.71,953.89a3.39,3.39,0,0,1-1-.18L791.85,952a2.13,2.13,0,0,1-1.54-2.59,1.42,1.42,0,0,1,.11-.33,2.85,2.85,0,0,1,3.46-1.2l4.9,1.74a2.11,2.11,0,0,1,1.52,2.58,2.06,2.06,0,0,1-.12.35A2.7,2.7,0,0,1,797.71,953.89ZM3,953.74a2.75,2.75,0,0,1-2.39-1.27,2.1,2.1,0,0,1,.86-2.84,2.14,2.14,0,0,1,.39-.16q2.22-.9,4.83-1.92a2.86,2.86,0,0,1,3.51,1.08,2.11,2.11,0,0,1-.88,2.84,2.38,2.38,0,0,1-.4.16c-1.72.67-3.32,1.31-4.78,1.9A3.16,3.16,0,0,1,3,953.74ZM783,949a3.08,3.08,0,0,1-1-.16l-4.91-1.67a2.14,2.14,0,0,1-1.58-2.58c0-.11.07-.22.11-.33a2.84,2.84,0,0,1,3.44-1.24L784,944.7a2.14,2.14,0,0,1,1.57,2.59,3,3,0,0,1-.11.32A2.7,2.7,0,0,1,783,949ZM17.48,948a2.67,2.67,0,0,1-2.42-1.33,2.11,2.11,0,0,1,1.35-2.94l4.89-1.8a2.85,2.85,0,0,1,3.48,1.16,2.12,2.12,0,0,1-1,2.81,1.48,1.48,0,0,1-.35.13l-4.84,1.78a3,3,0,0,1-1.07.19Zm750.73-4a3.37,3.37,0,0,1-1-.15l-4.87-1.61a2.15,2.15,0,0,1-1.63-2.57,3,3,0,0,1,.1-.32,2.81,2.81,0,0,1,3.42-1.28l5,1.62a2.14,2.14,0,0,1,1.6,2.57,1.7,1.7,0,0,1-.1.32,2.7,2.7,0,0,1-2.51,1.42ZM32.14,943a2.69,2.69,0,0,1-2.45-1.38,2.14,2.14,0,0,1,1.1-2.81l.33-.11,4.93-1.7a2.83,2.83,0,0,1,3.45,1.23A2.11,2.11,0,0,1,38.39,941a2.06,2.06,0,0,1-.35.12l-4.9,1.7a3,3,0,0,1-1,.17Zm721.2-4a3.21,3.21,0,0,1-.92-.14l-5-1.55a2.16,2.16,0,0,1-1.66-2.57,1.71,1.71,0,0,1,.09-.3,2.8,2.8,0,0,1,3.4-1.32l5,1.55a2.14,2.14,0,0,1,1.64,2.56,1.81,1.81,0,0,1-.09.31A2.68,2.68,0,0,1,753.34,939Zm-706.4-1.17a2.69,2.69,0,0,1-2.47-1.42,2.14,2.14,0,0,1,1.18-2.79,1.7,1.7,0,0,1,.32-.1c1.63-.54,3.28-1.08,5-1.62a2.81,2.81,0,0,1,3.37,1.31,2.14,2.14,0,0,1-1.2,2.78l-.33.1-4.94,1.61A3.22,3.22,0,0,1,46.94,937.83Zm691.4-3.43a2.93,2.93,0,0,1-.88-.13l-5-1.49a2.16,2.16,0,0,1-1.7-2.54c0-.1,0-.2.08-.3a2.77,2.77,0,0,1,3.37-1.37l5,1.49a2.15,2.15,0,0,1,1.69,2.54,1.68,1.68,0,0,1-.09.32A2.66,2.66,0,0,1,738.34,934.4Zm-676.5-1.32a2.68,2.68,0,0,1-2.5-1.47,2.16,2.16,0,0,1,1.28-2.77,1.71,1.71,0,0,1,.3-.09l5-1.53a2.79,2.79,0,0,1,3.42,1.34A2.17,2.17,0,0,1,68,931.34l-.29.08-5,1.52A3,3,0,0,1,61.84,933.08ZM723.34,930a3.06,3.06,0,0,1-.85-.12l-5-1.42a2.19,2.19,0,0,1-1.74-2.56,2.68,2.68,0,0,1,.07-.27,2.8,2.8,0,0,1,3.32-1.41l5,1.43a2.18,2.18,0,0,1,1.73,2.55,1.43,1.43,0,0,1-.07.28A2.67,2.67,0,0,1,723.34,930ZM76.85,928.57a2.63,2.63,0,0,1-2.5-1.5,2.17,2.17,0,0,1,1.32-2.77,1.68,1.68,0,0,1,.32-.09l5-1.45a2.76,2.76,0,0,1,3.35,1.45A2.17,2.17,0,0,1,83,927l-.3.08-5,1.44A2.9,2.9,0,0,1,76.85,928.57Zm631.36-2.8a3.16,3.16,0,0,1-.81-.11l-5-1.36a2.19,2.19,0,0,1-1.78-2.53,1.31,1.31,0,0,1,.06-.27,2.77,2.77,0,0,1,3.32-1.45l5.07,1.36a2.19,2.19,0,0,1,1.78,2.54,2.68,2.68,0,0,1-.07.27A2.63,2.63,0,0,1,708.21,925.77ZM92,924.3a2.66,2.66,0,0,1-2.51-1.54A2.19,2.19,0,0,1,90.86,920l.27-.07,5.07-1.38A2.78,2.78,0,0,1,99.53,920a2.2,2.2,0,0,1-1.46,2.75l-.26.06c-1.7.45-3.37.9-5,1.37A3.56,3.56,0,0,1,92,924.3ZM693,921.74a2.86,2.86,0,0,1-.77-.1l-5.07-1.29a2.2,2.2,0,0,1-1.83-2.52l.06-.26a2.75,2.75,0,0,1,3.29-1.5l5.09,1.3a2.2,2.2,0,0,1,1.82,2.52,1.31,1.31,0,0,1-.06.27A2.62,2.62,0,0,1,693,921.74Zm-585.88-1.53a2.61,2.61,0,0,1-2.52-1.58,2.19,2.19,0,0,1,1.47-2.73l.28-.06q2.52-.66,5.1-1.3a2.75,2.75,0,0,1,3.29,1.49,2.2,2.2,0,0,1-1.49,2.72l-.28.06-5.07,1.3A2.93,2.93,0,0,1,107.14,920.21ZM678,917.87a3.06,3.06,0,0,1-.74-.09l-5.09-1.23a2.22,2.22,0,0,1-1.82-2.76h0a2.72,2.72,0,0,1,3.27-1.53l5.11,1.23a2.2,2.2,0,0,1,1.86,2.51c0,.08,0,.17-.05.26a2.63,2.63,0,0,1-2.54,1.65Zm-556-1.49a2.64,2.64,0,0,1-2.55-1.61,2.21,2.21,0,0,1,1.57-2.72l.24,0,5.12-1.23a2.74,2.74,0,0,1,3.27,1.55,2.21,2.21,0,0,1-1.58,2.7l-.25.05-5.09,1.22a3.6,3.6,0,0,1-.73.13Zm540.42-2.15a3.33,3.33,0,0,1-.7-.07L656.61,913a2.21,2.21,0,0,1-1.91-2.49,2,2,0,0,1,0-.24,2.73,2.73,0,0,1,3.24-1.58l5.13,1.17a2.2,2.2,0,0,1,1.91,2.47,2.56,2.56,0,0,1,0,.27,2.63,2.63,0,0,1-2.54,1.68Zm-524.66-1.42a2.61,2.61,0,0,1-2.55-1.65,2.2,2.2,0,0,1,1.61-2.68l.25-.05,5.15-1.16a2.72,2.72,0,0,1,3.23,1.59,2.23,2.23,0,0,1-1.65,2.69l-.24,0-5.11,1.15A3.23,3.23,0,0,1,137.76,912.81Zm509.24-2a3.7,3.7,0,0,1-.66-.07l-5.14-1.1a2.25,2.25,0,0,1-2-2.49,1.43,1.43,0,0,1,0-.22,2.7,2.7,0,0,1,3.21-1.62l5.16,1.1a2.24,2.24,0,0,1,2,2.5,1.7,1.7,0,0,1,0,.22,2.63,2.63,0,0,1-2.56,1.71Zm-494-1.42a2.6,2.6,0,0,1-2.56-1.68,2.24,2.24,0,0,1,1.69-2.68l.23,0,5.16-1.08a2.69,2.69,0,0,1,3.2,1.63,2.23,2.23,0,0,1-1.67,2.66l-.26,0-5.14,1.08a2.84,2.84,0,0,1-.65.1Zm479-1.82a3.18,3.18,0,0,1-.62-.06l-5.15-1a2.25,2.25,0,0,1-2-2.68h0a2.71,2.71,0,0,1,3.18-1.67l5.17,1a2.24,2.24,0,0,1,2,2.42,2.51,2.51,0,0,1,0,.27A2.61,2.61,0,0,1,632,907.6Zm-463.35-1.36a2.6,2.6,0,0,1-2.57-1.73,2.23,2.23,0,0,1,1.75-2.64l.25,0,5.18-1a2.67,2.67,0,0,1,3.17,1.67,2.24,2.24,0,0,1-1.77,2.64l-.23,0-5.17,1A3.08,3.08,0,0,1,168.65,906.21ZM616,904.52a2.88,2.88,0,0,1-.59,0l-5.17-1a2.27,2.27,0,0,1-2-2.49.88.88,0,0,1,0-.17,2.68,2.68,0,0,1,3.15-1.7l5.2,1a2.26,2.26,0,0,1,2,2.47l0,.2a2.58,2.58,0,0,1-2.59,1.78Zm-432-1.28a2.58,2.58,0,0,1-2.59-1.75,2.27,2.27,0,0,1,1.83-2.64l.17,0,5.21-1a2.7,2.7,0,0,1,3.14,1.72,2.27,2.27,0,0,1-1.84,2.63l-.16,0-5.18.94a2.8,2.8,0,0,1-.58.09Zm417-1.54h-.54l-5.19-.89a2.29,2.29,0,0,1-2.09-2.48.88.88,0,0,1,0-.16,2.68,2.68,0,0,1,3.12-1.74l5.21.9a2.25,2.25,0,0,1,2,2.47.78.78,0,0,1,0,.16,2.56,2.56,0,0,1-2.53,1.78Zm-401-1.21a2.57,2.57,0,0,1-2.59-1.79,2.27,2.27,0,0,1,1.87-2.61l.2,0c1.73-.29,3.47-.59,5.22-.87a2.65,2.65,0,0,1,3.11,1.76,2.29,2.29,0,0,1-1.93,2.6l-.17,0q-2.61.42-5.19.87a3,3,0,0,1-.52.08Zm385-1.42h-.5l-5.2-.82a2.29,2.29,0,0,1-2.14-2.43c0-.06,0-.12,0-.17a2.62,2.62,0,0,1,3.08-1.79l5.23.83a2.27,2.27,0,0,1,2.12,2.43,1.1,1.1,0,0,1,0,.18,2.56,2.56,0,0,1-2.59,1.81ZM215,898a2.56,2.56,0,0,1-2.6-1.83,2.31,2.31,0,0,1,2-2.59h.15l5.24-.8a2.64,2.64,0,0,1,3.07,1.81,2.31,2.31,0,0,1-2,2.58h-.13l-5.21.79a2.67,2.67,0,0,1-.48.08Zm354-1.29h-.45l-5.23-.76a2.28,2.28,0,0,1-2.17-2.4,1,1,0,0,1,0-.17,2.65,2.65,0,0,1,3.05-1.83l5.24.76a2.31,2.31,0,0,1,2.16,2.59h0A2.58,2.58,0,0,1,569,896.7Zm-337.89-1a2.55,2.55,0,0,1-2.61-1.86,2.3,2.3,0,0,1,2-2.56h.16l5.25-.73a2.63,2.63,0,0,1,3,1.84,2.31,2.31,0,0,1-2,2.55h-.15l-5.23.73ZM553.52,894h-.42l-5.23-.69a2.31,2.31,0,0,1-2.23-2.39s0-.1,0-.15a2.64,2.64,0,0,1,3-1.87l5.26.69a2.31,2.31,0,0,1,2.19,2.56h0a2.54,2.54,0,0,1-2.58,1.85Zm-306.69-.46a2.55,2.55,0,0,1-2.61-1.89,2.31,2.31,0,0,1,2.07-2.53h.15l5.26-.67a2.61,2.61,0,0,1,3,1.89,2.32,2.32,0,0,1-2.1,2.52h-.13l-5.24.66ZM537.77,892h-.38c-1.75-.22-3.5-.42-5.24-.62a2.33,2.33,0,0,1-2.27-2.39s0-.09,0-.13a2.58,2.58,0,0,1,3-1.9c1.75.2,3.51.4,5.27.62a2.32,2.32,0,0,1,2.25,2.52h0a2.56,2.56,0,0,1-2.64,1.9Zm-275.17-.36a2.55,2.55,0,0,1-2.62-1.93,2.32,2.32,0,0,1,2.14-2.5h.13l5.27-.59a2.61,2.61,0,0,1,3,1.92,2.33,2.33,0,0,1-2.17,2.49h-.11l-5.25.59ZM522,891h-.34l-5.25-.55a2.33,2.33,0,0,1-2.31-2.37V888a2.58,2.58,0,0,1,2.94-2l5.31.54a2.34,2.34,0,0,1,2.29,2.4v.1a2.53,2.53,0,0,1-2.64,2ZM278.4,890a2.54,2.54,0,0,1-2.63-2,2.35,2.35,0,0,1,2.22-2.48h.1l5.29-.52a2.58,2.58,0,0,1,2.92,2,2.36,2.36,0,0,1-2.23,2.47H284c-1.76.16-3.51.34-5.26.51Zm227.77-1h-.29l-5.27-.48a2.35,2.35,0,0,1-2.35-2.37v-.08a2.55,2.55,0,0,1,2.91-2l5.29.48A2.36,2.36,0,0,1,508.8,887h0a2.53,2.53,0,0,1-2.63,2Zm-211.94-.53a2.52,2.52,0,0,1-2.63-2,2.37,2.37,0,0,1,2.28-2.44H294l5.3-.45a2.55,2.55,0,0,1,2.89,2,2.37,2.37,0,0,1-2.29,2.43h-.09l-5.27.45Zm196-.47H490l-5.5-.41a2.43,2.43,0,0,1-2.5-2.34v-.08a2.64,2.64,0,0,1,3-2l5.54.41A2.43,2.43,0,0,1,493,886V886a2.61,2.61,0,0,1-2.73,2Zm-180.17,0c-1.26-.7-2.39-1.56-2.64-2.79,0-1.32,2.36-2.21,2.36-2.21h.09l5.25-.37a2.51,2.51,0,0,1,2.82,2,2.35,2.35,0,0,1-2.33,2.39h-.05l-5.25,1ZM474,887h.26l-5.28-.73a2.39,2.39,0,0,1-2.45-2.33v-.06a2.51,2.51,0,0,1,2.81-2.07l5.31.33a2.28,2.28,0,0,1,2.35,2.37v0c-.15,1.24-1.27,2.12-3,2.05Zm-147.94-.7a2.43,2.43,0,0,1-2.55-2,2.31,2.31,0,0,1,2.32-2.29h.05l5.12-.3a2.47,2.47,0,0,1,2.71,2,2.32,2.32,0,0,1-2.33,2.29h-.05l-5.09.29ZM459,886h-.17l-5.28-.27a2.4,2.4,0,0,1-2.49-2.35h0a2.57,2.57,0,0,1,2.79-2.1l5.32.26a2.41,2.41,0,0,1,2.47,2.35v0A2.5,2.5,0,0,1,459,886Zm-117.14-1a2.47,2.47,0,0,1-2.64-2.11,2.41,2.41,0,0,1,2.47-2.35h0l5.31-.23a2.5,2.5,0,0,1,2.77,2.12,2.41,2.41,0,0,1-2.48,2.34h0L342,885ZM443,885h-.13c-1.77,0-3.53-.19-5.29-.25a2.43,2.43,0,0,1-2.53-2.33h0a2.49,2.49,0,0,1,2.75-2.16l5.32.19a2.47,2.47,0,0,1,2.52,2.39A2.53,2.53,0,0,1,443,885Zm-85.23,0a2.64,2.64,0,0,1-2.65-2.35,2.52,2.52,0,0,1,2.55-2.42L363,880a2.41,2.41,0,0,1,2.73,2s0,.07,0,.11a2.6,2.6,0,0,1-2.56,2.5l-5.29.35Zm69,0h-.09c-1.77,0-3.53-.4-5.29-.44a2.56,2.56,0,0,1-2.58-2.44,2.62,2.62,0,0,1,2.71-2.25c1.77,0,3.55,0,5.33.08a2.67,2.67,0,0,1,2.56,2.6A2.72,2.72,0,0,1,426.77,885Zm-53.08,0a2.82,2.82,0,0,1-2.65-2.59,2.6,2.6,0,0,1,2.59-2.49l5.31-.19c1.44.08,2.67.9,2.7,2.14a2.76,2.76,0,0,1-2.6,2.65l-5.29.48Zm37.31,0h0l-5.29-.52c-1.47,0-2.64-.76-2.62-2s1.19-2,2.64-2h0l5.32-.44a2.61,2.61,0,0,1,2.61,2.48,2.65,2.65,0,0,1-2.66,2.49Zm-21.39,0a2.89,2.89,0,0,1-2.65-2.72c0-1.24,1.17-2,2.63-2l5.32.24h0c1.46,0,2.65.48,2.65,1.72a2.66,2.66,0,0,1-2.64,2.48l-5.3.27Z"/><rect class="cls-20" x="374" y="58" width="55" height="68" rx="24.06"/><rect class="cls-20" x="204" y="80" width="396" height="21" rx="10.5"/><path class="cls-20" d="M400.93,0H391V66.1c0,7,4.72,12.74,10.5,12.74S412,73.14,412,66.1V0Z"/><path class="cls-21" d="M409.19,64.59a29,29,0,0,1,13.74,13.79c.89,1.86,3.65.24,2.76-1.61A31.66,31.66,0,0,0,410.8,61.83C409,60.94,407.33,63.7,409.19,64.59Z"/><path class="cls-21" d="M425.71,83.45a1.6,1.6,0,1,0-1.6-1.6A1.6,1.6,0,0,0,425.71,83.45Z"/><path class="cls-21" d="M212,84H374c2.05,0,2.06-2,0-2H212Z"/><path class="cls-21" d="M436,86H587.33c2.13,0,2.13-4,0-4H436Z"/><path class="cls-22" d="M376.93,101.39c-1,10.67,9.21,23.82,20.74,21.26,2-.45,1.16-3.53-.85-3.08-9.57,2.12-17.48-9.78-16.69-18.18.19-2-3-2-3.2,0Z"/><path class="cls-22" d="M400,120.57l.44-.7c-1.81,1-.2,3.75,1.61,2.76a2.12,2.12,0,0,0,1.15-2.06,1.65,1.65,0,0,0-1.6-1.6,1.6,1.6,0,0,0-1.6,1.6Z"/><rect class="cls-20" x="219" y="90" width="6" height="239"/><rect class="cls-20" x="400" y="112" width="6" height="213"/><rect class="cls-20" x="575" y="90" width="6" height="213"/><path class="cls-10" d="M227.39,203l11.27,21.85a6.34,6.34,0,0,0,4.81,3.33l25.16,3.49a6,6,0,0,1,3.54,10.4l-18.21,17a5.92,5.92,0,0,0-1.83,5.39l4.29,24c.89,5-4.57,8.78-9.25,6.43l-22.53-11.33a6.61,6.61,0,0,0-5.94,0l-22.49,11.32c-4.68,2.35-10.14-1.45-9.25-6.44l4.28-24a5.92,5.92,0,0,0-1.83-5.39l-18.21-17a6,6,0,0,1,3.55-10.4l25.15-3.44a6.31,6.31,0,0,0,4.8-3.34L216,203a6.5,6.5,0,0,1,11.43,0Z"/><path class="cls-16" d="M193,236.81c-2.29,5.84,4.68,10.56,9.89,8.16,3.43-1.59,3.71-6.52,2.26-9.56-.81-1.7-3.34-.22-2.53,1.48.63,1.33.72,3.91-.39,5s-2.89.69-4.06.4a3.33,3.33,0,0,1-2.62-3.9,3.46,3.46,0,0,1,.28-.82c.69-1.75-2.15-2.51-2.83-.78Z"/><path class="cls-16" d="M233,236.81c-2.29,5.84,4.68,10.56,9.89,8.16,3.43-1.59,3.71-6.52,2.26-9.56-.81-1.7-3.34-.22-2.53,1.48.63,1.33.72,3.91-.39,5-.95,1-2.89.69-4.06.4a3.33,3.33,0,0,1-2.62-3.9,3.46,3.46,0,0,1,.28-.82c.69-1.75-2.15-2.51-2.83-.78Z"/><path class="cls-16" d="M219.72,253c-1.15,2.92,2.35,5.29,5,4.09,1.72-.8,1.86-3.27,1.14-4.8-.41-.85-1.68-.11-1.27.74a2.6,2.6,0,0,1-.2,2.53c-.47.48-1.45.34-2,.19a1.67,1.67,0,0,1-1.31-1.95,2,2,0,0,1,.14-.41c.34-.88-1.08-1.27-1.42-.39Z"/><path class="cls-9" d="M196.48,251.36c-3.56,0-6.45,2.57-6.45,5.73s2.89,5.74,6.45,5.74,6.45-2.57,6.45-5.74S200,251.36,196.48,251.36Z"/><path class="cls-9" d="M245.83,251.36c-3.56,0-6.45,2.57-6.45,5.73s2.89,5.74,6.45,5.74,6.45-2.57,6.45-5.74S249.34,251.36,245.83,251.36Z"/><path class="cls-11" d="M227.34,214a17.19,17.19,0,0,0,1.59,4.67,7.79,7.79,0,0,0,1.72,2.35,3.57,3.57,0,0,0,2.7.92,1.29,1.29,0,0,0,.38-.12.93.93,0,0,0,.26-.39,3.56,3.56,0,0,0-.33-2.48,13.88,13.88,0,0,0-1.85-3.38,6.21,6.21,0,0,0-3.11-2.19,1.16,1.16,0,0,0-.64,0,.83.83,0,0,0-.49.79,2.49,2.49,0,0,0,.24,1c.36.88.72,1.77,1.09,2.65"/><path class="cls-11" d="M227.29,214.15c.55,2.87,1.73,7,4.77,8.16s3.51-1.48,2.58-3.77-3-6.09-5.8-6.19a1.81,1.81,0,0,0-1.84,1.78v0c-.08,1.51,1.19,2.85,2.2,3.77a.23.23,0,0,0,.32,0,.2.2,0,0,0,.06-.14,7.39,7.39,0,0,0-.08-2.1c-.08-.36-.24-.7-.32-1.06s-.43-.18,0-.2c2-.13,3.41,2.66,4.07,4.13a5,5,0,0,1,.52,1.34.67.67,0,0,1-.18.86c0,.64-.3.79-.8.46a3.77,3.77,0,0,1-2.38-2,16.46,16.46,0,0,1-2.1-5.35c-.14-.66-1.13-.37-1,.28Z"/><path class="cls-11" d="M228.75,210.05c-.1,0-.09.17,0,.27a2.52,2.52,0,0,0,1.42,1.26c.18-.67-.34-1.32-.83-1.82-.1-.1-.23-.21-.37-.18s-.24.32-.16.5a1.65,1.65,0,0,1,.23.55"/><path class="cls-11" d="M228.34,210a2.62,2.62,0,0,0,1.54,1.69.41.41,0,0,0,.61-.35c.1-.76-.6-2.49-1.6-2.39s-.51,1.23-.1,1.62c.12.11.38.08.41-.11a2.44,2.44,0,0,0,0-.54c-.31-.2-.31-.15,0,.14a1.49,1.49,0,0,1,.46,1.28l.52-.39a2,2,0,0,1-1.27-1.12c-.1-.39-.65-.21-.59.17Z"/><path class="cls-11" d="M235.34,222.53a3.19,3.19,0,0,0,1.45,2.29.17.17,0,0,0,.1,0,.1.1,0,0,0,.09-.07.92.92,0,0,0,.09-.85,2.48,2.48,0,0,0-.47-.76,1.81,1.81,0,0,0-.95-.75.83.83,0,0,0,0,.69"/><path class="cls-11" d="M235.07,222.38c-.67,1,1,3.77,2.2,3,1.57-.93-.43-3.17-1.47-3.52a.57.57,0,0,0-.7.39,1.15,1.15,0,0,0,.17,1.06.46.46,0,0,0,.63.12.47.47,0,0,0,.19-.34,3.41,3.41,0,0,1,.1-.54l-.7.4c.37.15.5.48.75.76,0,.38.15.47.33.28s.17-.21-.12-.34a3.71,3.71,0,0,0-1-1.41.3.3,0,0,0-.42.11Z"/><path class="cls-11" d="M224.7,208.79a3.43,3.43,0,0,0,.78,1.68,2,2,0,0,0,1.94,1,.27.27,0,0,0,.12-.06.33.33,0,0,0,0-.14,4.72,4.72,0,0,0-.74-2.58,2.49,2.49,0,0,0-1.08-1.25.78.78,0,0,0-.45-.07.72.72,0,0,0-.53.67,2,2,0,0,0,.21.89,10.83,10.83,0,0,0,.93,1.66"/><path class="cls-11" d="M224.68,208.78c-.54,1.07,1,2.79,2,3.07,1.88.53,1.42-1.66,1-2.71s-1.58-3.28-3-2.18.07,3.18,1.11,3.82c.22.14.43-.09.4-.31-.09-.6-.52-1.19-.57-1.76s.21-.66.59-.09a7.89,7.89,0,0,1,.44.81c.1.2.53.95.43,1.15-.28.54-1,0-1.23-.24-.49-.48-.63-1.13-1.12-1.57h0Z"/><path class="cls-11" d="M233.6,224.93a.94.94,0,1,0-.84-.84A1,1,0,0,0,233.6,224.93Z"/><path class="cls-11" d="M190.48,283.76a11,11,0,0,0-1.14,5.45,2.9,2.9,0,0,0,.36,1.41,1.18,1.18,0,0,0,1.26.54,1.64,1.64,0,0,0,.78-.78,10.85,10.85,0,0,0,1.12-4.77,4.73,4.73,0,0,0-.17-1.87,1.84,1.84,0,0,0-1.33-1.22.77.77,0,0,0-.45.05,1.15,1.15,0,0,0-.52.83,27.07,27.07,0,0,0-.87,7"/><path class="cls-11" d="M190.41,283.72c-.93,1.71-2.68,6-.62,7.61,2.31,1.75,3.37-3.16,3.56-4.45s.42-2.93-.42-4.08a2,2,0,0,0-2.4-.85c-1.16.6-1.18,2.74-1.33,3.82-.23,1.55-.62,3.38.08,4.83a.28.28,0,0,0,.38.09.22.22,0,0,0,.1-.09c.67-1.35.51-3,.77-4.47.06-.36.24-2.35.56-2.52,1.33-.69,1.14,2.41,1.11,2.84a10.47,10.47,0,0,1-.34,2.3,7.23,7.23,0,0,1-.54,1.4c-1.21-.09-1.75-.59-1.64-1.49a9.75,9.75,0,0,1,.88-4.88.08.08,0,0,0,0-.11.09.09,0,0,0-.11.05Z"/><path class="cls-11" d="M189,281.42a9.38,9.38,0,0,1,.95-4.23A.28.28,0,0,1,190,277a.27.27,0,0,1,.32.1,1.52,1.52,0,0,1,.29,1.2,10,10,0,0,1-.38,2.23,2.15,2.15,0,0,1-.69,1.21c-.14.1-.35.16-.47,0a.44.44,0,0,1-.1-.22,4.2,4.2,0,0,1,0-1.12"/><path class="cls-11" d="M189.09,281.46a13,13,0,0,0,.36-1.73,5,5,0,0,1,.57-1.9c.09-.37.17-.25.23.36a.88.88,0,0,1,.13.77,5.11,5.11,0,0,1-.27,1.09c-.07.25-.18.86-.37,1-.63.54-.48-.28-.51-.6s-.47-.4-.54-.08c-.13.69-.07,2.3,1,1.65s1.15-3.08,1.06-4.19c0-.62-.43-1.49-1.1-.88-1,.88-1.25,3.35-.87,4.49a.15.15,0,0,0,.17.1.14.14,0,0,0,.1-.1Z"/><path class="cls-11" d="M192.82,291.33a10.85,10.85,0,0,0-.56,2.33c0,.31,0,.68.21.85a.61.61,0,0,0,.67-.05,1.54,1.54,0,0,0,.41-.57,5.82,5.82,0,0,0,.52-2.85.75.75,0,0,0-.15-.46.56.56,0,0,0-.69,0,1.82,1.82,0,0,0-.59,1.24l-.39,2.25"/><path class="cls-11" d="M192.63,291.21c-.4.84-1.58,3.12-.28,3.73s2-1.7,2.15-2.59.12-3.13-1.47-2.52c-1.37.52-1.28,3.2-1.12,4.31,0,.31.52.34.65.09a7.88,7.88,0,0,0,.61-1.81,4,4,0,0,1,.26-.9.37.37,0,0,1,.24-.31c.26-.23.23-.15-.07.24-.06.48,0,2-.6,1.92-.38,0-.24-.14-.2-.51a14.69,14.69,0,0,1,.23-1.48c.05-.23-.29-.41-.4-.17Z"/><path class="cls-11" d="M190.27,293.9a.58.58,0,1,0-.58-.58.58.58,0,0,0,.58.58Z"/><path class="cls-11" d="M192.64,280a6.61,6.61,0,0,0,.25-2.65c-.2,0-.33.22-.36.42a11.42,11.42,0,0,0-.19,1.75,1.47,1.47,0,0,0,.06.59.55.55,0,0,0,.42.37c.36,0,.59-.37.68-.72a5.25,5.25,0,0,0,.14-1.63,1.4,1.4,0,0,0-.3-.88.59.59,0,0,0-.8-.1,1,1,0,0,0-.19.36,7.73,7.73,0,0,0-.34,2.66"/><path class="cls-11" d="M193.57,280a7.31,7.31,0,0,0-.3-2.75.4.4,0,0,0-.49-.28l-.09,0c-.55.28-.48,1-.55,1.56s-.29,1.45.15,1.94c.79.87,1.49-.36,1.63-1.06.18-.87.32-2.9-1.1-2.85s-1.3,2.69-1.25,3.61a.47.47,0,0,0,.93,0,8.14,8.14,0,0,1,.17-1.78c.06-.27.12-1.19.56-.49a4.21,4.21,0,0,1-.06,1.73c-1.06.5-.31-1.92-.28-1.92l-.4-.4a6.35,6.35,0,0,1-.66,2.17.93.93,0,1,0,1.62.91.82.82,0,0,0,.12-.43Z"/><path class="cls-11" d="M194.39,283a.88.88,0,1,0-.88-.88A.88.88,0,0,0,194.39,283Z"/><path class="cls-9" d="M448.09,221.75c-.16-1.65-4.52-41.54-41.23-41.54h0c-43.28,0-46.87,39.74-47,41.4l-9.63-.93c0-.51,4.28-51.12,56.63-51.12h0c45.46,0,50.79,50.45,50.84,51Z"/><path class="cls-10" d="M443,234.09c-.14-1.76-4-43.22-36.48-43.22h0C368,190.87,365,232.19,364.9,234l-9.65-1.36c0-.54,3.84-54.52,51.31-54.52h0c33,0,44.61,35.76,46.11,54.38Z"/><path class="cls-9" d="M437.34,241.61c-.13-1.76-3.44-44.35-31.13-44.35h0c-32.92,0-35.45,42.45-35.54,44.22l-8.23-1.93c0-.54,3.27-55.08,43.77-55.08h0c28.19,0,38.06,36.33,39.35,55Z"/><path class="cls-10" d="M429.17,246.66c-1.48,9.08,5.35,18.13,15.23,17.8,6.74-.23,8.52-4.8,13.78-6.55,6-2,10.9.24,16.59-4.06,10.75-8.14,7.93-21.15-3.47-26.38a26.3,26.3,0,0,0-7.19-1.93c-1.76-11.42-19.51-16.8-26-3.83-7.79-3.2-17,2.83-20.69,10.25C412.66,241.39,421.34,245.73,429.17,246.66Z"/><path class="cls-10" d="M339.7,246.66c-1.48,9.08,5.35,18.13,15.23,17.8,6.74-.23,8.52-4.8,13.79-6.55,6-2,10.89.24,16.58-4.06,10.75-8.14,7.94-21.15-3.47-26.38a26.3,26.3,0,0,0-7.19-1.93c-1.75-11.42-19.5-16.8-26-3.83-7.8-3.2-17,2.83-20.7,10.25C323.19,241.39,331.85,245.73,339.7,246.66Z"/><path class="cls-9" d="M236,148.26A15.1,15.1,0,1,1,221.68,138h0A14.9,14.9,0,0,1,236,148.26Z"/><path class="cls-9" d="M418.25,277.37A15.42,15.42,0,1,1,402.83,262a15.42,15.42,0,0,1,15.42,15.42Z"/><path class="cls-9" d="M593,217.42A15.43,15.43,0,1,1,577.56,202h0A15.42,15.42,0,0,1,593,217.42Z"/><path class="cls-10" d="M232.11,327.83a10.42,10.42,0,1,1-10.42-10.42A10.42,10.42,0,0,1,232.11,327.83Z"/><path class="cls-10" d="M413.25,324.26a10.42,10.42,0,1,1-10.42-10.42,10.42,10.42,0,0,1,10.42,10.42Z"/><path class="cls-9" d="M650.26,310.47c-.67-4.5-2.13-11-4.62-14.83-3.91-5.95-13.16-8.48-19.91-10.81-.45-18.11-6.28-28.09-18.46-35.23-13.6-8-31.12-7.9-45.79-3.18-8,2.56-15.51,6.94-21,13.38-5.31,6.28-7.92,24.16-7.9,24.45l0,.62c0,.67,0,1.34-.07,2a24.46,24.46,0,0,0-17.7,5.66c-6,4.86-9.06,12.52-9.89,20-.78,7.05.61,15.82,8,18.7,3.66,1.42,7.75,1.23,11.6,1.27q6.95.06,13.89,0,27.76,0,55.51-1.22,13.88-.58,27.73-1.45c4.48-.28,9-.5,13.45-.93,4-.39,10.56-1.66,13-5C650.91,320.21,650.91,314.83,650.26,310.47Z"/><path class="cls-10" d="M559.44,326.66a15.6,15.6,0,0,0-8.84-8.74,14.15,14.15,0,0,0-11.77.89,13.28,13.28,0,0,0-4.23,3.44,11.86,11.86,0,0,0-1.28,1.37,14.29,14.29,0,0,0-2.87,12.14c1.68,8.71,11.43,13.4,19.52,10.68C557.75,343.81,562.64,334.45,559.44,326.66Z"/><path class="cls-10" d="M619.34,326.66a15.6,15.6,0,0,0-8.84-8.74,14.15,14.15,0,0,0-11.77.89,13.28,13.28,0,0,0-4.23,3.44,12.89,12.89,0,0,0-1.29,1.37,14.32,14.32,0,0,0-2.87,12.14c1.68,8.71,11.43,13.4,19.52,10.68C617.62,343.81,622.51,334.45,619.34,326.66Z"/><path class="cls-10" d="M575.48,257.93a2.74,2.74,0,0,0-2.66-2.65,27.71,27.71,0,0,0-29.9,30.37c.32,3.21,4.78,3,7.08,2.75,8-.72,16-1.33,24.08-1.71a2.7,2.7,0,0,0,2.66-2.66A199.59,199.59,0,0,0,575.48,257.93Z"/><path class="cls-10" d="M583.59,258.53a2.76,2.76,0,0,1,2.56-2.76A27.7,27.7,0,0,1,617,279.93a27,27,0,0,1,.15,5.08c-.27,4.38-7.43,3.17-10.19,2.85-6.92-.81-14-.58-20.91-.65a2.7,2.7,0,0,1-2.75-2.55A198.12,198.12,0,0,1,583.59,258.53Z"/><path class="cls-10" d="M650.08,289.08a2.81,2.81,0,0,0-2.32-1.94,2.15,2.15,0,0,0-.48-.3,4.91,4.91,0,0,0-5.58.82c-1.57,1.44-1.85,4.57-.29,6.13.85.85,2.23.93,3.35,1.07a5.29,5.29,0,0,0,3-.56A4.48,4.48,0,0,0,650.08,289.08Z"/><path class="cls-10" d="M514,294.65a2.68,2.68,0,0,0-3.64,1c-.61,1.37-1.23,2.74-1.85,4.11a2.71,2.71,0,0,0,1,3.63,2.65,2.65,0,0,0,3.63-.95h0c.62-1.37,1.24-2.74,1.85-4.11A2.72,2.72,0,0,0,514,294.65Z"/><path class="cls-23" d="M551.79,331.82a7.24,7.24,0,0,0-7.66-6.81h0a6.82,6.82,0,0,0-4.52,2.27,6.91,6.91,0,0,0-2.3,5.46,7.27,7.27,0,0,0,7.77,6.73h0A7.36,7.36,0,0,0,551.79,331.82Z"/><path class="cls-23" d="M612.22,331.82a7.24,7.24,0,0,0-7.66-6.81h0a7.94,7.94,0,0,0-6.82,7.73,7.27,7.27,0,0,0,7.77,6.73h0A7.36,7.36,0,0,0,612.22,331.82Z"/><path class="cls-23" d="M577.14,294l-.7,29.65c-.1,2.52,3.9,2.52,3.9,0L581,294C581.12,291.51,577.2,291.51,577.14,294Z"/><path class="cls-10" d="M568.89,293H566a2,2,0,0,0-.81,4,2.21,2.21,0,0,0,.81,0h2.86a2,2,0,1,0,.81-4A2.21,2.21,0,0,0,568.89,293Z"/><path class="cls-10" d="M591.8,293.52l-3.08-.26a2,2,0,0,0,0,4l3.08.26a2,2,0,0,0,0-4Z"/><path class="cls-3" d="M620.64,268.37a33.12,33.12,0,0,0-32.47-22.05c-2.51.11-2.52,4,0,3.92a29.14,29.14,0,0,1,28.7,19.17C617.71,271.77,621.49,270.75,620.64,268.37Z"/><path class="cls-3" d="M646.77,308.52c-.67-2.43-4.45-1.39-3.78,1,1.12,4,.78,9.26-3.66,11.11-4.1,1.71-8.83.7-13.07,2-2.41.73-1.38,4.51,1,3.77,5.11-1.56,10.78-.1,15.47-3.22S648.2,313.67,646.77,308.52Z"/><path class="cls-11" d="M332.49,232.35a5.78,5.78,0,0,0-1.27,2.5,2,2,0,0,0,1.3,2.23,2.5,2.5,0,0,0,1.77-.49,9.22,9.22,0,0,0,3.78-4.78,1.89,1.89,0,0,0,.13-.88,1.64,1.64,0,0,0-1.32-1.16c-2.31-.6-4.67,1.19-5.69,3.35a2.6,2.6,0,0,0-.12,2.52c.5.73,1.95.6,2-.28"/><path class="cls-11" d="M332.21,232.07c-1,1.22-2,2.72-1.28,4.33a2.28,2.28,0,0,0,3,1.14l.13-.06a8.72,8.72,0,0,0,3.85-3.46c.79-1.23,1.75-3.05.57-4.33-2.62-2.85-7.15.08-8.46,2.75-.71,1.45-1,3.55.56,4.59a2.17,2.17,0,0,0,3.05-.42,2.07,2.07,0,0,0,.36-.71,1,1,0,0,0-.57-1.29,1,1,0,0,0-.95.12c-.58.39-.11-.89,0-1.07a6.35,6.35,0,0,1,1.19-1.67c.75-.78,4-2.48,3.55-.2a7.22,7.22,0,0,1-2.52,3.62c-.78.67-2.47,1.64-2.89,0-.27-1,.55-2.1,1.07-2.88.24-.37-.35-.84-.63-.48Z"/><path class="cls-11" d="M338.27,225.79c-.37-.39-.93.45-.56.83a1.54,1.54,0,0,0,1.5.13c.61-.16,1.34-.48,1.35-1.1s-.7-.94-1.26-.82a2.9,2.9,0,0,0-1.39,1"/><path class="cls-11" d="M339,225.72c-.33-.85-1.29-.18-1.36.5-.15,1.32,1.66,1.26,2.48,1,1.11-.3,2.22-1.42,1.29-2.56-1.06-1.31-2.67-.39-3.61.52-.79.76.48,2,1.2,1.2a3,3,0,0,1,.67-.67c.31-.15.65-.18.41.19-.1.17-.62.31-.79.34l-.39.08c-.42,0-.47-.16-.14-.31a.25.25,0,0,0,.24-.32Z"/><path class="cls-11" d="M341.44,230a6.17,6.17,0,0,0,2.7-.25c.49-.16,1-.54.93-1s-.77-.61-1.29-.6c-.9,0-2,.17-2.29,1s.78,1.71,1.68,1.55a2.85,2.85,0,0,0,1.89-1.81"/><path class="cls-11" d="M341.34,230c1.14.18,4.6.33,4.3-1.69-.23-1.6-2.95-1.37-4-.8a2,2,0,0,0,.44,3.55c1.41.53,4.46-1.07,3.44-2.8a.63.63,0,0,0-.68-.27c-.59.1-.7.51-1.06.93-.22.26-.55.66-.95.65-.63,0-.84-.51-.33-.88a2,2,0,0,1,.8-.21c.35,0,.61-.16.73.18.21.64-2.31.71-2.65.7s-.45.58-.08.64Z"/><path class="cls-11" d="M384.6,239.08a15.32,15.32,0,0,0,.31,4.16c.26,1.2,1.14,2.65,2.32,2.31a2.06,2.06,0,0,0,.89-.65,5.64,5.64,0,0,0-.22-7.44c-.86-.87-2.55-1.29-3.13-.21a2.48,2.48,0,0,0-.13,1.4l.63,5.75"/><path class="cls-11" d="M384.14,239c-.32,2.14-.7,7.33,2.58,7.59,2.83.23,3.87-4,3.6-6.12s-2.28-5.51-5-4.7c-1.35.4-1.66,1.67-1.54,2.92.19,1.91.25,4.26,1.18,5.95a.4.4,0,0,0,.55.14.38.38,0,0,0,.18-.23c.52-1.76,0-3.74-.1-5.54-.21-2.85,2.34-.31,2.72,1.08a4.88,4.88,0,0,1,0,2.4c-.13.53-.59,1.95-1.23,2.1-1.63.39-1.94-4.63-2-5.47,0-.49-.85-.68-.93-.12Z"/><path class="cls-11" d="M387,248.94l-.26-.27"/><path class="cls-11" d="M386.73,249.67a1,1,0,1,0-1-1A1,1,0,0,0,386.73,249.67Z"/><path class="cls-11" d="M386.86,233.49a1.25,1.25,0,0,0,1.23,1.17,2.58,2.58,0,0,0-.7-1.73c-.49-.4-1.46-.16-1.45.48a1.47,1.47,0,0,0,.23.6c.37.6,1,1.3,1.63,1.08"/><path class="cls-11" d="M386.69,233.9a1.92,1.92,0,0,0,1.72,1.35.59.59,0,0,0,.59-.57v0a3,3,0,0,0-1-2.29,1.62,1.62,0,0,0-1.93.12c-1.31,1.19.78,3.28,2.12,3,.46-.1.37-.89-.11-.84a1.2,1.2,0,0,1-1-.65c-.13-.31-.24-.71.22-.5s.44.94.5,1.31l.58-.76a.76.76,0,0,1-.71-.58c-.25-.57-1.22-.16-1,.42Z"/><path class="cls-11" d="M383,247.86a1.61,1.61,0,0,0-1.74,1.48,1.09,1.09,0,0,0,0,.18,2,2,0,0,0,2.47.09c.64-.62.09-2.05-.77-1.81"/><path class="cls-11" d="M382.53,247.15a2.38,2.38,0,0,0-2,2.1c-.09,1.18,1.5,1.61,2.45,1.52a1.91,1.91,0,0,0,1.8-2h0c0-.81-.68-1.79-1.59-1.69-.58.07-.95.88-.33,1.21.29.15.63.44.25.77s-1.1,0-1.44-.24l.38.66a.94.94,0,0,1,.88-1h0c.92-.18.52-1.54-.39-1.4Z"/><path class="cls-11" d="M419.26,235.62a5.11,5.11,0,0,0,4,5.85,1.16,1.16,0,0,0,.64,0c.39-.2.43-.74.41-1.18a9.39,9.39,0,0,0-.58-3.4,3.19,3.19,0,0,0-2.6-2,2,2,0,0,0-2.06,1.94,1.93,1.93,0,0,0,0,.24"/><path class="cls-11" d="M419,235.44a5.82,5.82,0,0,0,2.24,5.85c1.64,1.22,4.31,1.68,4.34-1,0-2.28-.59-5.27-3.05-6.11-1.76-.6-4.91,1-3.54,3.16a.61.61,0,0,0,.84.19.57.57,0,0,0,.26-.33c.5-1.4,1.72-2,2.84-.69.53.61,1.52,3.32.8,4s-2.23-1.06-2.62-1.63a4.4,4.4,0,0,1-.74-3.17c.1-.77-1.23-1-1.37-.18Z"/><path class="cls-11" d="M420.56,233.85a1.43,1.43,0,1,0-1.31-1.31A1.44,1.44,0,0,0,420.56,233.85Z"/><path class="cls-11" d="M427,243.31a.5.5,0,0,0,.5-.5.5.5,0,0,0-1,0A.5.5,0,0,0,427,243.31Z"/><path class="cls-11" d="M477,239.35a15.46,15.46,0,0,0-.29,2.8,1.5,1.5,0,0,0,.51,1.39c.69.4,1.47-.4,1.73-1.15a5.6,5.6,0,0,0-1.24-5.59,1,1,0,0,0-.8-.41c-.4,0-.63.47-.77.85a13.14,13.14,0,0,0-.74,5.73c.1,1,.67,2.22,1.64,2a1.67,1.67,0,0,0,1-.91,8.36,8.36,0,0,0,1.17-3.39"/><path class="cls-11" d="M477,239.21c-.48,1.08-1,3.29-.28,4.38a1.54,1.54,0,0,0,2.13.37,1.62,1.62,0,0,0,.37-.37c1.09-1.23,1.06-3.29.6-4.77-.32-1-1.3-3.07-2.65-3s-1.77,2.51-1.95,3.54c-.28,1.59-.54,3.74.3,5.22,1.92,3.38,4.93-1.79,4.34-4a.39.39,0,0,0-.48-.25.45.45,0,0,0-.2.16,7.63,7.63,0,0,0-.74,1.77,7.3,7.3,0,0,1-.67,1.48c-.9.53-1.39.36-1.46-.52a9.07,9.07,0,0,1,.4-5c.62-1.4,1.06-1,1.61.09a5.09,5.09,0,0,1,.55,2.6,3.23,3.23,0,0,1-.63,1.87q-1-.33-.75-1.2a20.87,20.87,0,0,1,.07-2.24c0-.27-.43-.45-.56-.15Z"/><path class="cls-11" d="M476.76,234.72a.7.7,0,1,0-.7-.7A.7.7,0,0,0,476.76,234.72Z"/><path class="cls-11" d="M478.28,248c.62-.24,1.09-.64,1-1.37a1.2,1.2,0,0,0-1.35-1l-.14,0c-1.46.42-.78,2.86.5,2.37Z"/><path class="cls-11" d="M474.14,247.9a.38.38,0,0,0,.17.52l.07,0a.62.62,0,0,0,.62-.23,1.59,1.59,0,0,0,.26-.63.86.86,0,0,0,0-.39.53.53,0,0,0-.56-.35,1.08,1.08,0,0,0-.63.31.93.93,0,0,0-.36.73.62.62,0,0,0,.66.56.61.61,0,0,0,.52-.4"/><path class="cls-11" d="M474,247.74a1.12,1.12,0,0,0,1.65,1.3c1-.54,1.22-2.41.05-2.87a1.82,1.82,0,0,0-2.23,1.28,1.86,1.86,0,0,0-.06.34,1.35,1.35,0,0,0,2.31,1c.53-.46,0-1.5-.71-1.22.06.11.12.21.17.32a.6.6,0,0,0-1.18-.16Z"/><path class="cls-11" d="M476.22,249.41c0,.77-.84,1.26-1.17,2a.65.65,0,0,0,0,.66.54.54,0,0,0,.53.12,1.32,1.32,0,0,0,.48-.29,2.82,2.82,0,0,0,.88-1,1,1,0,0,0-.21-1.2c-.1.22-.54,0-.67.18a.33.33,0,0,0,0,.14l-.06.65"/><path class="cls-11" d="M476,249.35c-.3.88-1.42,1.27-1.55,2.25a1,1,0,0,0,.83,1.15h.31c1.42-.16,2.58-2.28,1.48-3.38a.48.48,0,0,0-.65,0c-.18.15-.51,0-.72.3a1.09,1.09,0,0,0,.09,1.1.2.2,0,0,0,.28,0l0,0c.07-.08.45-.72.31-.63a1.28,1.28,0,0,0,.55-.09l-.55-.07a.7.7,0,0,1-.19,1l0,0a4.36,4.36,0,0,1-.65.48c0-.18.33-.53.41-.66a2.35,2.35,0,0,0,.5-1.46.23.23,0,0,0-.45-.06Z"/><path class="cls-22" d="M394,0V52h4V0Z"/></g><path class="cls-24" d="M469.72,80.68c-.27-11.71-1.8-19.46-4.82-24.39a22.38,22.38,0,0,0-2.67-3.53,16.65,16.65,0,0,0-12.49-5.64,21.8,21.8,0,0,0-9.64,2,12,12,0,0,0-6.47-1.83,26.83,26.83,0,0,0-3.85.27l-.06-.12a14.63,14.63,0,0,0-1-1.44,4.25,4.25,0,0,0-.37-.47A47.52,47.52,0,0,0,419,40.45c-.59-.1-1.19-.17-1.77-.21-.09-.2-.2-.39-.29-.57a44.17,44.17,0,0,0-19.5-2.17,8.06,8.06,0,0,0-.31,1.31,33.26,33.26,0,0,0-14.47,4.34l-.42.25a7.86,7.86,0,0,0-.53-1.18,9.36,9.36,0,0,0-8.36-5.07c-3.07,0-5.78,1.22-13.85,7.83a10.32,10.32,0,0,0-6.38-7.09,14.73,14.73,0,0,0-5.36-.87c-5.59,0-11.17.58-14.24,4.69,0,0,0,0,0,0l-.28.41c-1.42,2.09-2.08,4.7-2.12,8.46,0,4.25-.1,8.79-.23,13.47-.22,6.42-.33,13.18-.33,20.09,0,18,1.23,23.75,5.74,26.75a11.78,11.78,0,0,0,4.68,1.76,11.94,11.94,0,0,0,1.26.18l0,0a11.16,11.16,0,0,0-2.61,3.81,12.51,12.51,0,0,0-.84,3,10.53,10.53,0,0,0-.11,1.48,10.22,10.22,0,0,0,2.82,7.12,11.22,11.22,0,0,0,5.6,3.25,14.34,14.34,0,0,0,3.43.44,13.33,13.33,0,0,0,1.41-.08,9.8,9.8,0,0,0,3.6,5.7,19.14,19.14,0,0,0,12.21,3.87,19.56,19.56,0,0,0,10.47-2.88c.48-.29.91-.61,1.35-.93a17,17,0,0,0,10.26,3.11,9.37,9.37,0,0,0,7.68-3.73,15.07,15.07,0,0,0,3.5.45,15.4,15.4,0,0,0,6.32-1.34,9.64,9.64,0,0,0,1.28,1,12.34,12.34,0,0,0,6.73,1.63,11,11,0,0,0,7.31-2.49,3.25,3.25,0,0,1,.29.23,15.64,15.64,0,0,0,9.14,2.86,16.52,16.52,0,0,0,14.31-7.8,14.54,14.54,0,0,0,3.21.39,12.59,12.59,0,0,0,8.57-3.15,10.71,10.71,0,0,0,3.54-8.13,11.06,11.06,0,0,0-1.93-6.39s0,0,0,0a9,9,0,0,0-.73-.93,11.79,11.79,0,0,0-9-4,13,13,0,0,0-2.93.34l-.43.12a16.26,16.26,0,0,0-1-2.35c-.07-.13-.13-.26-.21-.39a16.43,16.43,0,0,0-1.94-2.77s-1-.91-2-1.9L439,100.09a9.72,9.72,0,0,1,.85-.68,14.26,14.26,0,0,0,1.35-1.11c.44.56,1.18,1.48,2.08,2.52,1.9,2.17,4.47,4.84,6.33,5.91a4.08,4.08,0,0,0,1.09.42,21.65,21.65,0,0,0,2.52.33l.66,0,2.81,0a21.56,21.56,0,0,0,4.2-.36l.16,0a10.63,10.63,0,0,0,7.53-6.19c.87-2,1.25-4.5,1.25-8.36V86.94C469.8,84.94,469.77,82.84,469.72,80.68Zm-20.15,35.61h.3a4.32,4.32,0,0,1,.68.26h0a.16.16,0,0,1,0,.07h0a6.49,6.49,0,0,0-1-.32Z"/><path class="cls-2" d="M468.17,78.47c-.27-11.49-1.77-19.1-4.74-23.94q-.57-.93-1.2-1.77a16.78,16.78,0,0,0-13.68-7.24,21.34,21.34,0,0,0-9.47,2,11.7,11.7,0,0,0-6.35-1.8A25.52,25.52,0,0,0,429,46h0l-.61-.43A47.52,47.52,0,0,0,419,40.45c-.69-.28-1.38-.54-2.06-.78a44.17,44.17,0,0,0-19.5-2.17,48.27,48.27,0,0,0-13.77,3.58c-.47.25-.94.51-1.39.79a.88.88,0,0,0-.05-.15h0v0a9.76,9.76,0,0,0-1.43-2.48,9.24,9.24,0,0,0-7.25-3.48c-2.81,0-5.18.79-13.59,7.68a10.17,10.17,0,0,0-6.28-7,14.43,14.43,0,0,0-5.26-.86c-5.66,0-11.32.62-14.26,5a7.9,7.9,0,0,0-.63,1.09s0,0,0,0a15.77,15.77,0,0,0-1.44,7.21c0,4.18-.1,8.63-.24,13.23-.2,6.33-.31,13-.31,19.73,0,17.66,1.2,23.3,5.64,26.27a13.16,13.16,0,0,0,5.82,1.9h0l0,0a11.51,11.51,0,0,0-3.49,8.18,10,10,0,0,0,2.76,7,11.12,11.12,0,0,0,5.5,3.2,14.85,14.85,0,0,0,3.37.42,12.63,12.63,0,0,0,1.38-.07,9.61,9.61,0,0,0,3.53,5.58,18.76,18.76,0,0,0,12,3.81,19.29,19.29,0,0,0,10.29-2.82q.69-.44,1.32-.9a16.66,16.66,0,0,0,10.06,3,9.21,9.21,0,0,0,7.55-3.64,14.89,14.89,0,0,0,9.64-.87,9.86,9.86,0,0,0,1.25,1,12,12,0,0,0,6.62,1.61,10.73,10.73,0,0,0,7.16-2.44l.3.22a15.14,15.14,0,0,0,9,2.8,16.24,16.24,0,0,0,14.08-7.64,14.23,14.23,0,0,0,3.13.37,12.38,12.38,0,0,0,8.4-3.08,10.52,10.52,0,0,0,3.48-8,10.68,10.68,0,0,0-2.61-7.19,11.56,11.56,0,0,0-8.86-3.91,12.77,12.77,0,0,0-2.87.33l-.41.11a16.18,16.18,0,0,0-3.1-5.4l0,0a8.65,8.65,0,0,0,.84-.89l0,0a9.91,9.91,0,0,0,6.17,3.69,20.57,20.57,0,0,0,3.12.35c.5,0,1.42,0,2.75,0a21,21,0,0,0,4.28-.38,10.41,10.41,0,0,0,7.4-6.08c.85-2,1.22-4.42,1.22-8.2V84.62Q468.23,81.68,468.17,78.47ZM347.28,62.65v0s0,0,0,0Z"/><path class="cls-25" d="M346.9,102.48h-1.06c-2.16,0-3.64-.26-4.43-.78q-2.16-1.42-2.15-19.81,0-10.06.3-19.48.21-7,.24-13.43a8.18,8.18,0,0,1,.75-4q1.09-1.64,7.88-1.63a7.12,7.12,0,0,1,2.49.34c1.23.45,1.84,1.63,1.84,3.54v7.37c0,2.3.31,3.44.92,3.44l.51,0a7.8,7.8,0,0,0,2.43-1.67l4.53-3.82q10.64-9,12.41-9a1.48,1.48,0,0,1,1.22.58,2.35,2.35,0,0,1,.46,1.47,5,5,0,0,1-.69,2.28q-1,1.95-10.84,9.24a5,5,0,0,0-2.25,4.1,6.86,6.86,0,0,0,.75,3l3,6.18q5.71,11.92,10.74,20.25,1.84,3,1.84,4.37a2.33,2.33,0,0,1-.65,1.64A14.52,14.52,0,0,1,375.34,98q-2.7,1.9-4.2,1.91a2.82,2.82,0,0,1-2.08-.92q-2-2.11-6-10.3-2.64-5.46-7.34-16-1.93-4.37-3-4.37c-.57,0-.85,1.36-.85,4.06L352,97.44c0,2-.32,3.28-.94,4S349,102.48,346.9,102.48Z"/><path class="cls-25" d="M456.85,58.56q3.25,5.32,3.6,20.09c.05,2.07.07,4,.07,6v5.56a14.76,14.76,0,0,1-.58,5.12,2.7,2.7,0,0,1-2,1.64,14.39,14.39,0,0,1-2.62.2l-2.58,0a13.19,13.19,0,0,1-1.94-.24,2.16,2.16,0,0,1-1.73-1.34,5.67,5.67,0,0,1-.34-2c0-.52.08-1.91.24-4.16q.56-8.05.55-14a50.44,50.44,0,0,0-.89-9.79q-1-5.46-4.5-5.46-3.75,0-5.8,5.7a22,22,0,0,0-.89,7.16q0,4.74.41,11.53c.19,3.14.28,5.7.28,7.71a6.71,6.71,0,0,1-.69,3.51A3.73,3.73,0,0,1,434.67,97a38.63,38.63,0,0,1-4.95.33c-1.59,0-2.57-.42-2.93-1.26a6.19,6.19,0,0,1-.48-2.56q0-5.65.48-36.49c0-1.64.56-2.66,1.6-3.05a12.52,12.52,0,0,1,4.33-.6q3.28,0,4.23,3.79c.25,1,.54,1.5.86,1.5s.75-.48,1.36-1.44q2.65-4,9.38-4Q453.59,53.24,456.85,58.56Z"/><path class="cls-25" d="M448.4,121.16a7.49,7.49,0,0,1-1.6-.22,3.43,3.43,0,0,1-1.68-1,2.67,2.67,0,0,1-.61-2,3.75,3.75,0,0,1,1.09-2.24,4.29,4.29,0,0,1,2.06-1.11,5.07,5.07,0,0,1,1.15-.13,3.84,3.84,0,0,1,3.06,1.27,3.12,3.12,0,0,1,.7,2.11,2.87,2.87,0,0,1-.9,2.25A4.77,4.77,0,0,1,448.4,121.16Zm0-1.54a2.66,2.66,0,0,0,1.42-.43,2,2,0,0,0,.85-1.25,2.31,2.31,0,0,0,.09-.61,1.56,1.56,0,0,0-.23-.85,1.84,1.84,0,0,0-1.68-.85,2.27,2.27,0,0,0-1.82.82,2.18,2.18,0,0,0-.47,1.47,1.51,1.51,0,0,0,.54,1.29A2.12,2.12,0,0,0,448.38,119.62Z"/><path class="cls-25" d="M351.12,121.16a7.49,7.49,0,0,1-1.6-.22,3.43,3.43,0,0,1-1.68-1,2.33,2.33,0,0,1-.63-1.68c0-.12,0-.24,0-.37a3.75,3.75,0,0,1,1.09-2.24,4.29,4.29,0,0,1,2.06-1.11,5.07,5.07,0,0,1,1.15-.13,3.84,3.84,0,0,1,3.06,1.27,3.07,3.07,0,0,1,.7,2.11,2.87,2.87,0,0,1-.9,2.25A4.77,4.77,0,0,1,351.12,121.16Zm0-1.54a2.63,2.63,0,0,0,1.42-.43,2,2,0,0,0,.85-1.25,2.31,2.31,0,0,0,.09-.61,1.56,1.56,0,0,0-.23-.85,1.82,1.82,0,0,0-1.68-.85,2.28,2.28,0,0,0-1.82.82,2.18,2.18,0,0,0-.47,1.47,1.51,1.51,0,0,0,.54,1.29A2.14,2.14,0,0,0,351.1,119.62Z"/><path class="cls-25" d="M368,130.47a11.21,11.21,0,0,1-7.19-2.13,1.89,1.89,0,0,1-.84-1.53,1.06,1.06,0,0,1,.31-.79,1.15,1.15,0,0,1,.82-.3,1.88,1.88,0,0,1,.87.24,11,11,0,0,0,5.1,1.2q6.07,0,6.07-3.45c0-1.43-1.13-2.67-3.39-3.7q-3.13-1.44-4.77-2.35a9.25,9.25,0,0,1-4.89-6.13,7.87,7.87,0,0,1-.23-1.85,8.51,8.51,0,0,1,3.9-7.42,10.44,10.44,0,0,1,6-1.69,9.7,9.7,0,0,1,6.58,2.13,2,2,0,0,1,.75,1.53,1.07,1.07,0,0,1-.29.79,1,1,0,0,1-.74.31,1.63,1.63,0,0,1-.8-.24,9.27,9.27,0,0,0-4.66-1.2c-2.08,0-3.54.54-4.36,1.63a3.6,3.6,0,0,0-.76,2.22,4.28,4.28,0,0,0,.19,1.2,4.91,4.91,0,0,0,2,2.69,34.25,34.25,0,0,0,4.13,2.31,12.71,12.71,0,0,1,5.29,4.24,6.92,6.92,0,0,1,1.24,3.86q0,4.24-4.09,6.75A11.62,11.62,0,0,1,368,130.47Z"/><path class="cls-25" d="M389.7,129.79q-8.18,0-8.6-8.69,0-.72,0-3.18c0-1-.35-1.43-1-1.43-1,0-1.43-.41-1.43-1.2,0-.63.37-1,1.12-1a2.54,2.54,0,0,0,1.19-.25c.28-.16.44-.57.47-1.22l.29-6.12a3,3,0,0,1,.59-1.83c.35-.43,1.17-.64,2.45-.64a10.43,10.43,0,0,1,2.12.15,1.16,1.16,0,0,1,.87.76,3.09,3.09,0,0,1,.16,1.12l0,6.11a2.78,2.78,0,0,0,.19,1.18c.2.39.77.62,1.72.69a1.72,1.72,0,0,1,1.39.64,1,1,0,0,1,.19.6c0,.43-.48.69-1.43.77l-.92.07a1.84,1.84,0,0,0-1.1.43c-.3.25-.45,1-.45,2.32l0,1.89c0,3.27,1,5.42,2.87,6.44a1.42,1.42,0,0,1,.89,1.23Q391.2,129.79,389.7,129.79Z"/><path class="cls-25" d="M400.69,126.57a9.28,9.28,0,0,1-3.16-.69,7,7,0,0,1-3.33-3.19,10.27,10.27,0,0,1-1.25-5.32c0-.38,0-.77.05-1.17a15.64,15.64,0,0,1,2.15-7.11,8.39,8.39,0,0,1,4.09-3.52,6.57,6.57,0,0,1,2.28-.43c2.56,0,4.58,1.35,6,4a13.91,13.91,0,0,1,1.4,6.71,12.32,12.32,0,0,1-1.79,7.13A7.59,7.59,0,0,1,400.69,126.57Zm0-4.89a3.9,3.9,0,0,0,2.81-1.36,7.26,7.26,0,0,0,1.69-4,12.64,12.64,0,0,0,.17-1.94,7.52,7.52,0,0,0-.44-2.7c-.71-1.8-1.83-2.7-3.34-2.7s-2.68.87-3.6,2.6a10,10,0,0,0-.93,4.69,6.35,6.35,0,0,0,1.07,4.07A3.23,3.23,0,0,0,400.66,121.68Z"/><path class="cls-25" d="M414.76,127.85a5.05,5.05,0,0,1-2.47-.41,1.3,1.3,0,0,1-.64-1.17c0-.25,0-.53,0-.85.13-2.64.24-5.29.3-7.93q.15-4.63.4-10.32a1.59,1.59,0,0,1,1.32-1.65,8.55,8.55,0,0,1,1.68-.17c.77,0,1.35.86,1.74,2.59.08.35.19.52.33.52s.26-.17.46-.52q1.93-3.31,4.82-3.31a1.7,1.7,0,0,1,1,.29,1.32,1.32,0,0,1,.53,1.17v.36c0,.83-.7,1.42-2.11,1.75-2.09.5-3.48,2.35-4.15,5.53a28.74,28.74,0,0,0-.69,6.06c0,.78,0,1.54.1,2.29.14,1.48.21,2.65.21,3.48C417.63,127.08,416.67,127.85,414.76,127.85Z"/><path class="cls-25" d="M431.19,128.43a7.59,7.59,0,0,1-4.5-1.37,8.56,8.56,0,0,1-2.95-4,15,15,0,0,1-1-5.41,17.32,17.32,0,0,1,1.06-6,12.12,12.12,0,0,1,3-4.65,7.65,7.65,0,0,1,5.46-2.13,5.43,5.43,0,0,1,4.29,1.94,8.9,8.9,0,0,1,2.13,6.06q0,2.84-3.6,3.94-2.58.78-5.14,1.59a2.5,2.5,0,0,0-1.46.84.85.85,0,0,0-.08.42,5.1,5.1,0,0,0,.15,1.13q.94,3.89,3.74,3.88c2.39,0,4-.77,5-2.32q.85-1.44,1.8-1.44a.71.71,0,0,1,.69.45,1.15,1.15,0,0,1,.08.44,3.33,3.33,0,0,1-.46,1.46Q436.71,128.43,431.19,128.43Zm-2.45-12.23a34.44,34.44,0,0,0,6-2.08,1.69,1.69,0,0,0,1.25-1.61,6.48,6.48,0,0,0-.34-2,5.3,5.3,0,0,0-1.44-2.65,2.56,2.56,0,0,0-1.48-.58,2.18,2.18,0,0,0-.74.13,5.24,5.24,0,0,0-2.46,2.08,12.53,12.53,0,0,0-1.39,5,5.27,5.27,0,0,0-.05.63,2.2,2.2,0,0,0,.11.73A.48.48,0,0,0,428.74,116.2Z"/><path class="cls-26" d="M421,61l-.33-1a24.35,24.35,0,0,0-3.23-6,22,22,0,0,0-2.07-2.45l-.07-.06a20.47,20.47,0,0,0-4.51-2.81,16.31,16.31,0,0,0-4.94-1.35q-.61-.07-1.23-.09h-.77a17,17,0,0,0-2.63.24h0a21,21,0,0,0-2.87.7,34.13,34.13,0,0,0-7.85,3.37,24.08,24.08,0,0,0-2.94,2.06,22.37,22.37,0,0,0-7.6,11.78,27.14,27.14,0,0,0-.61,2.69,42.07,42.07,0,0,0,0,12.75c.08.44.18.88.29,1.32a32,32,0,0,0,2.6,7,20.24,20.24,0,0,0,9.34,8.91,28.34,28.34,0,0,0,3.32.84,22.33,22.33,0,0,0,7.48.24,19.65,19.65,0,0,0,9.26-4l.24-.19.31-.25a30.26,30.26,0,0,0,5.65-6.36c.21-.32.43-.64.64-1a30.94,30.94,0,0,0,4.05-13.08c.07-1.09.1-2.17.09-3.23A34.19,34.19,0,0,0,421,61ZM400.14,87.37q-4.9.41-8.95-4.76a14.23,14.23,0,0,1-2-6.86,18.23,18.23,0,0,1,1.25-7A13.35,13.35,0,0,1,399.57,61c3.41-1,6.27-.61,8.55,1.27a10.36,10.36,0,0,1,2,2.25c.23.34.46.69.68,1.08a15,15,0,0,1,1.11,8.58A18.66,18.66,0,0,1,408.79,82c-.19.26-.38.5-.58.74a14.38,14.38,0,0,1-5.49,4A9.64,9.64,0,0,1,400.14,87.37Z"/><path class="cls-27" d="M422.68,71c0,1,0,2.13-.08,3.22a30.94,30.94,0,0,1-4,13c-.21.34-.43.65-.64,1q-5.18,7.61-12,10a27.25,27.25,0,0,0,8.43-8.32c.21-.32.43-.64.64-1a31,31,0,0,0,4.05-13c.06-1.09.09-2.16.08-3.22a34.06,34.06,0,0,0-1.58-10c-.1-.33-.21-.64-.33-.95a23.76,23.76,0,0,0-3.22-6A20.93,20.93,0,0,0,412,53.22l-.07-.07a20.5,20.5,0,0,0-4.5-2.8A16.46,16.46,0,0,0,402.47,49c-.4,0-.81-.07-1.23-.09a17,17,0,0,0-3.39.23h0a20.66,20.66,0,0,0-2.87.7c-1.14.34-2.22.71-3.26,1.12a34.63,34.63,0,0,1,6.79-2.76,20.53,20.53,0,0,1,2.86-.7h0a17.11,17.11,0,0,1,3.4-.23q.62,0,1.23.09a16.38,16.38,0,0,1,4.92,1.34,20.47,20.47,0,0,1,4.51,2.81l.07.06A23,23,0,0,1,417.56,54a23.7,23.7,0,0,1,3.22,6c.12.31.22.63.33,1A34.07,34.07,0,0,1,422.68,71Z"/></g></svg>