<?xml version="1.0" encoding="utf-8"?>
<!-- Generator: Adobe Illustrator 24.0.2, SVG Export Plug-In . SVG Version: 6.00 Build 0)  -->
<svg version="1.1" id="Layer_1" xmlns="http://www.w3.org/2000/svg" xmlns:xlink="http://www.w3.org/1999/xlink" x="0px" y="0px"
	 viewBox="0 0 800.3 1001" style="enable-background:new 0 0 800.3 1001;" xml:space="preserve">
<style type="text/css">
	.st0{fill:#FFFFFF;}
	.st1{opacity:7.000000e-02;fill:#FFFFFF;enable-background:new    ;}
	.st2{fill:#FFDC85;}
	.st3{fill:#F7F7F7;}
	.st4{fill:#CE728A;}
	.st5{fill:#DD7691;}
	.st6{opacity:7.000000e-02;}
	.st7{fill:#F272A6;}
	.st8{fill:#FFC20F;}
	.st9{fill:#F9A106;}
	.st10{opacity:7.000000e-02;enable-background:new    ;}
	.st11{fill:#FFE98D;}
	.st12{fill:none;}
	.st13{fill:#FDC726;}
	.st14{fill:#FFDF99;}
	.st15{fill:#482600;}
	.st16{clip-path:url(#SVGID_2_);}
	.st17{fill:#FFD140;}
	.st18{fill:#D3627D;}
	.st19{fill:#DCD2C9;}
	.st20{fill:#E8E1DA;}
	.st21{fill:#CEBFB2;}
	.st22{fill:#F06499;}
	.st23{fill:#DADBD9;}
	.st24{fill:#7F7F7F;}
	.st25{fill:#F48D8A;}
	.st26{fill:#F06162;}
</style>
<title>postcard-2-baby-girl</title>
<g id="OBJECTS">
	<g id="OBJECTS-2">
		<rect x="0.4" y="1.5" class="st0" width="799.8" height="999"/>
		<path class="st1" d="M301.5,785.4c-0.5,0.1-0.8,0.6-0.7,1.1c0.1,0.4,0.5,0.7,0.9,0.7c0.5-0.1,0.8-0.6,0.7-1.1
			C302.3,785.7,301.9,785.4,301.5,785.4z"/>
		<path class="st1" d="M305.5,779.3c-0.1-1.3-1.3-2.2-2.6-2.1c-1.3,0.1-2.2,1.3-2.1,2.6s1.3,2.2,2.6,2.1
			C304.7,781.7,305.6,780.6,305.5,779.3z"/>
		<path class="st1" d="M308.8,783.2c-0.1-1.1-1.1-1.9-2.2-1.8c-1.1,0.1-1.9,1.1-1.8,2.2c0.1,1.1,1.1,1.9,2.2,1.8
			C308.1,785.4,308.9,784.4,308.8,783.2C308.8,783.3,308.8,783.3,308.8,783.2z"/>
		<path class="st1" d="M308,777.7c-0.7,0.1-1.2,0.7-1.2,1.4c0.1,0.7,0.7,1.2,1.4,1.2c0.7-0.1,1.2-0.7,1.2-1.4S308.7,777.7,308,777.7
			z"/>
		<path class="st1" d="M311.7,785.4c-0.2,0-0.4,0.3-0.4,0.5s0.3,0.4,0.5,0.4l0,0c0.2,0,0.4-0.3,0.4-0.5
			C312.2,785.5,312,785.4,311.7,785.4z"/>
		<path class="st1" d="M313.3,781.9L313.3,781.9c-0.3-0.8-1.1-1.1-1.8-0.9s-1,1.1-0.8,1.8c0.2,0.6,0.8,0.9,1.4,0.9h0.1
			c0.7-0.1,1.2-0.8,1.1-1.5C313.4,782.1,313.3,782,313.3,781.9z"/>
		<path class="st1" d="M307.8,785.8c-2.5,0.3-2,4.1,0.4,3.8c1.1-0.1,1.8-1.1,1.7-2.1C309.8,786.4,308.9,785.7,307.8,785.8z"/>
		<path class="st1" d="M300.8,781.3c-0.7,0.1-1.3,0.8-1.2,1.5s0.8,1.3,1.5,1.2s1.3-0.7,1.2-1.5l0,0
			C302.2,781.8,301.6,781.3,300.8,781.3L300.8,781.3z"/>
		<path class="st1" d="M306.5,777c0.6-0.1,1-0.6,0.9-1.1c-0.1-0.6-0.6-1-1.1-0.9c-0.6,0.1-1,0.6-0.9,1.1
			C305.4,776.6,305.9,777,306.5,777z"/>
		<path class="st1" d="M304.6,786.3c-0.4,0.1-0.7,0.4-0.6,0.9c0.1,0.4,0.4,0.7,0.8,0.6c0.4-0.1,0.7-0.4,0.6-0.9
			C305.3,786.6,305,786.3,304.6,786.3z"/>
		<path class="st2" d="M376.4,795.4c-1.1,0.1-2,0.8-2.5,1.8c-0.6,1.3-0.3,2.8,0.7,3.8c0.6,0.5,1.3,0.8,2.1,0.8h0.3
			c1.7-0.2,2.9-1.7,2.8-3.4l0,0v-0.1c-0.1-1.7-1.5-3-3.2-2.9L376.4,795.4z"/>
		<path class="st1" d="M357.3,842.3c2.7-0.3,2.2-4.5-0.4-4.2C354.1,838.4,354.6,842.7,357.3,842.3z"/>
		<path class="st3" d="M547.2,387.1c-0.4,0-0.7,0.4-0.7,0.8s0.4,0.7,0.8,0.7s0.7-0.4,0.7-0.8c0,0,0,0,0-0.1
			C547.9,387.4,547.6,387.1,547.2,387.1z"/>
		<path class="st3" d="M550.4,382.2c-0.1-1-1-1.8-2.1-1.7c-1,0.1-1.8,1-1.7,2.1c0.1,1,1,1.8,2.1,1.7
			C549.8,384.1,550.5,383.2,550.4,382.2z"/>
		<path class="st3" d="M553.2,385.4c-0.1-0.9-0.9-1.5-1.8-1.4c-0.9,0.1-1.5,0.9-1.4,1.8s0.9,1.5,1.8,1.4
			C552.6,387.1,553.2,386.3,553.2,385.4L553.2,385.4z"/>
		<path class="st3" d="M552.5,380.9c-0.6,0.1-0.9,0.7-0.8,1.2c0.1,0.5,0.5,0.9,1.1,0.9c0.6-0.1,0.9-0.7,0.8-1.2
			C553.5,381.3,553,380.9,552.5,380.9z"/>
		<path class="st3" d="M555.5,387.1c-0.2,0-0.3,0.2-0.3,0.4c0,0.2,0.2,0.3,0.4,0.3s0.3-0.2,0.3-0.4
			C555.8,387.2,555.6,387.1,555.5,387.1L555.5,387.1z"/>
		<path class="st3" d="M557.2,383.7L557.2,383.7c-0.1-0.7-0.7-1.1-1.3-1s-1,0.7-0.9,1.3c0,0.1,0.1,0.3,0.2,0.4
			c0.2,0.5,0.6,0.7,1.1,0.7h0.1c0.5,0,1-0.5,0.9-1.1C557.3,383.9,557.3,383.8,557.2,383.7z"/>
		<path class="st3" d="M552.3,387.4c-0.8,0.1-1.4,0.9-1.3,1.7l0,0c0.1,0.8,0.8,1.4,1.6,1.3s1.4-0.9,1.3-1.7
			C553.8,387.9,553.1,387.3,552.3,387.4z"/>
		<path class="st3" d="M546.7,383.8c-0.6,0-1.1,0.5-1.1,1.1s0.5,1.1,1.1,1.1s1.1-0.5,1.1-1.1c0-0.1,0-0.1,0-0.2
			C547.7,384.2,547.3,383.8,546.7,383.8z"/>
		<path class="st3" d="M551.3,380.3c0.4-0.1,0.7-0.5,0.7-0.9c-0.1-0.4-0.5-0.7-0.9-0.7c-0.4,0.1-0.7,0.5-0.7,0.9
			C550.5,380,550.8,380.3,551.3,380.3z"/>
		<path class="st3" d="M549.7,387.8c-0.3,0-0.6,0.3-0.5,0.7c0,0.3,0.3,0.6,0.7,0.5c0.3,0,0.6-0.3,0.5-0.6l0,0
			C550.3,388,550.1,387.8,549.7,387.8L549.7,387.8z"/>
		<path class="st3" d="M108.9,265.6c3.2-1.4,8.2-4.2,6.5-8.8c-0.5-1.6-1.8-2.9-3.4-3.4c-2-0.7-4.7-0.3-7.5,0.7c2-3.1,3.6-7,1-10
			c-1.1-1.4-2.8-2.1-4.5-1.8c-2.3,0.4-4.6,2.5-6.7,5.4c-0.1-3.3-0.6-8.2-4.6-9.2c-1.7-0.6-3.5-0.2-4.9,1c-1.7,1.6-2.4,4.6-2.6,8.2
			c-2.2-3.1-5.4-6.5-9.3-4.8c-1.6,0.6-2.8,2-3.1,3.7c-0.2,1.5,0,3,0.6,4.4c-2.2-0.6-4.4-0.6-6.2,0.8c-2.1,1.7-2.2,3.4-2,4.6
			c0.3,1.5,1.4,3.1,3.4,4.7c-2.6,0.4-5.2,1.4-6,4.1c-0.6,1.7-0.3,3.5,0.9,4.9c1.5,1.7,4.5,2.6,8.1,2.8c-3.1,2.1-6.7,5.2-5.1,9.2
			c0.6,1.6,2,2.8,3.7,3.2c0.4,0.1,0.8,0.1,1.2,0.1c2.4-0.2,4.7-1,6.7-2.2c-1.2,2.9-2.7,7.8,0.8,10.3c0.9,0.7,2,1.1,3.2,1.1
			c0.6,0,1.1-0.1,1.7-0.3c2.1-0.8,3.9-3.2,5.5-6.3c0.7,3.3,2,7.7,6.1,8.1H93c1.6,0.1,3-0.6,4-1.8c1.4-1.9,1.6-4.9,1.1-8.6
			c1.9,1.9,4.5,4,7.2,4c2.9-0.1,5.2-2.4,5.3-5.2c0-2.2-1.4-4.7-3.7-7.2c1.2,0.2,2.4,0.4,3.6,0.4c2.5,0,4.8-0.7,6-2.9
			c0.9-1.5,1-3.4,0.1-5C115.4,267.8,112.5,266.5,108.9,265.6z"/>
		<path class="st3" d="M157.5,616.6c-1.1-0.7-2-1.8-1.4-3.4c0.3-0.8,0.9-1.4,1.7-1.7c0.6-0.2,1.2-0.2,1.8-0.1
			c-0.5-1-0.4-2.3,0.4-3.2c0.6-0.7,1.4-1,2.3-0.9c0.7,0.2,1.4,0.6,1.9,1.1c0.1-1.2,0.9-2.1,2-2.5c0.9-0.3,1.8-0.1,2.5,0.5
			c0.5,0.6,0.9,1.2,1,2c0.8-1,2.1-1.3,3.3-0.8c0.8,0.3,1.4,1,1.6,1.9c0.1,0.3,0.1,0.6,0,0.9c0.7,0,1.3,0.2,1.8,0.6
			c0.8,0.5,1.1,1.4,1,2.4c-0.1,0.5-0.3,0.9-0.6,1.3c0.8,0.3,1.4,0.9,1.6,1.7c0.3,0.8,0.1,1.8-0.5,2.5c-0.5,0.5-1.2,0.9-1.9,1
			c1,0.8,1.4,2.1,0.9,3.3c-0.3,0.8-1,1.4-1.8,1.6c-0.2,0-0.4,0.1-0.6,0.1c-0.5,0-1-0.1-1.4-0.3c0.4,1.2,0,2.4-1,3.2
			c-0.4,0.3-0.9,0.5-1.4,0.5s-1-0.1-1.4-0.4c-0.5-0.3-0.9-0.7-1.2-1.2c-0.3,1.1-1.3,1.9-2.4,2.1h-0.3c-0.8,0-1.5-0.4-2-1
			c-0.4-0.6-0.6-1.4-0.6-2.1c-0.6,0.4-1.3,0.7-2,0.7c-1.4,0-2.6-1.2-2.6-2.6c0-0.7,0.2-1.3,0.6-1.9c-1.1,0.1-2.2-0.5-2.8-1.4
			c-0.5-0.8-0.5-1.8,0-2.5C156.1,617.3,156.7,616.8,157.5,616.6z"/>
		<path class="st3" d="M312.4,337.9c-1.1-0.7-2-1.8-1.4-3.4c0.3-0.8,0.9-1.4,1.7-1.7c0.6-0.2,1.2-0.2,1.8-0.1
			c-0.5-1-0.4-2.3,0.4-3.2c0.6-0.7,1.4-1,2.3-0.9c0.7,0.2,1.4,0.6,1.9,1.1c0.1-1.2,0.9-2.1,2-2.5c0.9-0.3,1.8-0.1,2.5,0.5
			c0.5,0.6,0.9,1.2,1,2c0.8-1,2.1-1.3,3.3-0.8c0.8,0.3,1.4,1,1.6,1.9c0.1,0.3,0.1,0.6,0,0.9c0.7,0,1.3,0.2,1.8,0.6
			c0.8,0.5,1.1,1.4,1,2.4c-0.1,0.5-0.3,0.9-0.6,1.3c0.8,0.3,1.4,0.9,1.6,1.7c0.3,0.8,0.1,1.8-0.5,2.5c-0.5,0.5-1.2,0.9-1.9,1
			c1,0.8,1.4,2.1,0.9,3.3c-0.3,0.8-1,1.4-1.8,1.6c-0.2,0-0.4,0.1-0.6,0.1c-0.5,0-1-0.1-1.4-0.3c0.4,1.2,0,2.4-1,3.2
			c-0.4,0.3-1,0.5-1.6,0.5c-0.3,0-0.6-0.1-0.9-0.2c-0.7-0.3-1.2-0.8-1.6-1.4c-0.3,1.1-1.3,1.9-2.4,2.1H320c-0.8,0-1.5-0.3-2-0.9
			c-0.4-0.6-0.6-1.4-0.6-2.1c-0.6,0.4-1.3,0.7-2,0.7c-1.4,0-2.6-1.2-2.6-2.6c0-0.7,0.2-1.3,0.6-1.9c-1.1,0.1-2.2-0.5-2.8-1.4
			c-0.5-0.8-0.5-1.8,0-2.5C311,338.6,311.7,338.1,312.4,337.9z"/>
		<path class="st3" d="M650.5,599.1c4.1-1.8,9.9-5.3,7.8-11c-0.7-2.1-2.3-3.7-4.3-4.4c-2.5-0.8-5.6-0.4-9.1,0.7
			c2.4-3.9,4.2-8.7,1-12.3c-1.4-1.8-3.6-2.7-5.9-2.3c-2.8,0.5-5.6,2.9-8.3,6.5c-0.1-4.2-1-10-5.9-11.2c-2.2-0.7-4.6-0.2-6.3,1.3
			c-2.1,2-3,5.5-3.3,10c-2.7-3.8-6.8-7.8-11.6-5.7c-2.1,0.8-3.6,2.6-4.1,4.8c-0.2,1.8,0,3.6,0.7,5.2c-2.7-0.7-5.4-0.7-7.6,1.2
			c-2.6,2.2-2.9,4.4-2.6,5.9c0.3,1.9,1.7,3.8,4,5.7c-3.2,0.5-6.4,1.8-7.4,5.3c-0.8,2.1-0.3,4.5,1.1,6.3c1.9,2.1,5.4,3.2,9.8,3.6
			c-3.9,2.6-8.1,6.6-6,11.5c0.8,2.1,2.5,3.7,4.7,4.2c0.5,0.1,1.1,0.2,1.6,0.1c2.8-0.2,5.6-1.1,8-2.6c-1.5,3.7-3,9.5,1.2,12.6
			c1.2,0.9,2.6,1.4,4.1,1.4c0.7,0,1.5-0.1,2.1-0.4c2.6-1,4.9-3.8,6.8-7.6c0.9,4.2,2.7,9.4,7.7,9.9h0.9c2,0.1,3.9-0.8,5.1-2.3
			c1.7-2.3,2-6,1.5-10.5c2.4,2.3,5.6,4.8,8.8,4.8c3.7-0.1,6.7-3,6.8-6.7c0-2.7-1.7-5.7-4.3-8.8c1.4,0.2,2.7,0.4,4.1,0.4
			c3.1,0,6.2-0.8,7.7-3.8s0.9-5.1,0.1-6.4C658.2,602,654.9,600.3,650.5,599.1z"/>
		<path class="st3" d="M698.1,499.5c1.5-0.8,3.1-2.2,2.3-4.3c-0.3-0.9-1-1.7-1.9-2c-0.9-0.2-1.9-0.2-2.8,0c0.7-1.4,1-3.1-0.2-4.4
			c-0.6-0.8-1.7-1.2-2.7-1c-1.1,0.3-2.1,0.9-2.8,1.8c-0.2-1.5-0.8-3.2-2.5-3.6c-1-0.3-2.1-0.1-2.8,0.6c-0.8,0.9-1.2,2-1.3,3.1
			c-1.1-1.2-2.6-2.3-4.4-1.5c-0.9,0.4-1.6,1.2-1.8,2.2c-0.1,0.5,0,1,0.1,1.5c-0.9-0.2-1.9,0.1-2.6,0.7c-0.9,0.6-1.3,1.7-1.2,2.7
			c0.2,0.7,0.6,1.4,1.1,1.9c-1.1,0.2-2,1.1-2.4,2.2c-0.4,1-0.2,2.1,0.5,2.8c0.8,0.8,1.9,1.3,3,1.4c-1.3,1.1-2.4,2.5-1.6,4.3
			c0.3,0.9,1.1,1.6,2.1,1.9c0.2,0,0.5,0.1,0.7,0.1c0.8,0,1.6-0.2,2.4-0.6c-0.4,1.5-0.6,3.3,1,4.4c0.5,0.4,1.2,0.6,1.8,0.6
			c0.3,0,0.7-0.1,1-0.2c1-0.5,1.8-1.3,2.3-2.2c0.4,1.5,1.3,3,3.1,3.1h0.4c0.9,0,1.8-0.4,2.3-1.1c0.6-1,0.9-2.1,0.7-3.3
			c0.8,0.7,1.7,1.2,2.8,1.3c0.6,0,1.2-0.2,1.7-0.6c0.8-0.5,1.4-1.5,1.3-2.5c-0.1-1-0.5-2-1.1-2.8h0.7c1.4,0.1,2.7-0.5,3.3-1.7
			c0.5-0.9,0.5-2,0-2.9C700.2,500.5,699.2,499.8,698.1,499.5z"/>
		<path class="st3" d="M709.6,376.6c-2-0.1-3.9,0.2-5.7,0.9c0.2-1.1,0.4-2.2,0.4-3.4c0-4.1-2.6-9-7.6-9h-0.2c-3,0-5.8,1.7-7.1,4.4
			c-0.9,1.9-1.3,3.9-1.2,6c-0.7-0.5-1.5-0.9-2.3-1.3c-3.8-1.7-8.9-1-11.1,3.5c-2.1,4.3,0.4,8.9,3.9,11.2c0.6,0.4,1.2,0.7,1.8,0.9
			c-0.8,0.5-1.5,1.1-2.1,1.8c-2.8,3-3.9,8.1-0.3,11.5c1.5,1.4,3.4,2.2,5.5,2.2c2.3,0,4.5-0.8,6.4-2.3c1.2-1,2.3-2.2,3.1-3.6
			c0.4,1.7,1.2,3.3,2.3,4.7c1.6,2.1,4,3.3,6.6,3.3c1.6,0,3.1-0.5,4.4-1.4c2.5-1.6,3.8-4.6,3.4-7.5c-0.4-2.1-1.3-4-2.6-5.6
			c1.4-0.1,2.8-0.4,4.1-0.9c4.1-1.5,6.2-6.1,4.7-10.2C715.1,378.9,712.6,376.9,709.6,376.6z"/>
		<path class="st3" d="M260.8,640.3c-2-0.1-3.9,0.2-5.7,0.9c0.2-1.1,0.4-2.2,0.4-3.4c0-4.1-2.6-9-7.6-9h-0.1c-3,0-5.8,1.7-7.1,4.4
			c-0.9,1.9-1.3,3.9-1.2,6c-0.7-0.5-1.5-0.9-2.3-1.3c-3.8-1.7-8.9-1-11.1,3.5c-2.1,4.5,0.4,8.9,3.9,11.2c0.6,0.4,1.2,0.7,1.8,0.9
			c-0.8,0.5-1.5,1.1-2.1,1.8c-2.8,3-3.9,8.1-0.3,11.5c1.5,1.4,3.4,2.2,5.5,2.2c2.3,0,4.5-0.8,6.4-2.3c1.2-1,2.3-2.2,3.1-3.6
			c0.4,1.7,1.2,3.3,2.3,4.7c1.6,2.1,4,3.3,6.6,3.3c1.6,0,3.1-0.5,4.4-1.4c2.5-1.6,3.8-4.6,3.4-7.5c-0.4-2.1-1.3-4-2.6-5.6
			c1.4-0.1,2.8-0.4,4.1-0.9c4.1-1.5,6.2-6.1,4.7-10.2C266.3,642.7,263.8,640.6,260.8,640.3z"/>
		<path class="st3" d="M473.2,650.7c-2-0.1-4.1,0.2-6,1c0.3-1,0.4-2,0.4-3c0-4.3-2.7-8.8-7.9-8.8h-0.1c-4.3,0-6.4,2.2-7.4,4.1
			c-0.9,1.9-1.4,4-1.3,6.1c-0.8-0.6-1.6-1.1-2.5-1.5c-3.9-1.7-9.3-1.1-11.5,3.5s0.4,9.2,4.1,11.5c0.6,0.4,1.3,0.7,2,1
			c-0.8,0.5-1.6,1.2-2.2,1.9c-2.9,3.1-4,8.4-0.3,11.9c1.5,1.5,3.6,2.3,5.7,2.3c2.4,0,4.7-0.9,6.6-2.3c1.3-1.1,2.4-2.4,3.3-3.8
			c0.4,1.8,1.3,3.5,2.4,5c1.6,2.1,4.2,3.4,6.9,3.5c1.6,0,3.2-0.5,4.6-1.5c2.6-1.7,4-4.7,3.5-7.8c-0.4-2.2-1.4-4.2-2.7-5.9
			c1.5-0.1,3-0.4,4.3-1c4.2-1.6,6.4-6.3,4.9-10.5C478.9,653.2,476.3,651,473.2,650.7z"/>
		<path class="st3" d="M661.5,157.3c1.4,0,2.8-0.4,3.9-1.3c2.2-1.4,3.4-4,3-6.7c-0.3-1.6-0.9-3.1-1.9-4.4c1-0.1,2-0.4,2.9-0.8
			c3.6-1.4,5.4-5.4,4.1-9c-0.8-2.5-3-4.3-5.7-4.6c-1.5-0.1-2.9,0.1-4.3,0.6c0.1-0.6,0.2-1.3,0.2-1.9c0-4.3-2.9-7.5-6.7-7.6
			c-2.7-0.2-5.2,1.2-6.4,3.6c-0.6,1.4-1,2.8-1,4.4c-0.5-0.3-0.9-0.6-1.4-0.8c-3.3-1.5-7.8-0.9-9.8,3c-2,3.9,0.3,7.8,3.4,9.8
			c0.3,0.2,0.7,0.4,1,0.5c-0.5,0.3-0.9,0.7-1.3,1.2c-2.5,2.6-3.4,7.1-0.2,10.1c1.3,1.3,3,2,4.9,1.9c2,0,4-0.7,5.5-2
			c0.9-0.7,1.6-1.6,2.3-2.5c0.4,1.2,1,2.3,1.7,3.3C657.1,156.2,659.2,157.3,661.5,157.3z"/>
		<path class="st3" d="M513.6,474c1.4,0,2.8-0.4,3.9-1.3c2.2-1.4,3.4-4,3-6.7c-0.3-1.6-0.9-3.1-1.9-4.4c1-0.1,2-0.4,2.9-0.8
			c3.6-1.4,5.4-5.4,4.1-9c-0.8-2.5-3-4.3-5.7-4.6c-1.5-0.1-2.9,0.1-4.3,0.6c0.1-0.6,0.2-1.3,0.2-1.9c0-4.3-2.9-7.5-6.7-7.6
			c-2.7-0.2-5.2,1.2-6.4,3.6c-0.6,1.4-1,2.8-1,4.4c-0.5-0.3-0.9-0.6-1.4-0.8c-3.3-1.5-7.8-0.9-9.8,3c-1.9,4,0.3,7.8,3.4,9.8
			c0.3,0.2,0.7,0.4,1,0.5c-0.5,0.3-0.9,0.7-1.3,1.2c-2.5,2.6-3.4,7.1-0.2,10.1c1.3,1.3,3,2,4.9,1.9c2,0,4-0.7,5.5-2
			c0.9-0.7,1.6-1.6,2.3-2.5c0.4,1.2,1,2.3,1.7,3.3C509.2,472.9,511.3,474,513.6,474z"/>
		<path class="st3" d="M392,578.9c-4.5-5.7-12.7-6.7-18.4-2.2c-1.6,1.2-2.8,2.8-3.7,4.6c-2,4.8-1.4,10.2,1.6,14.4
			c2.3,3.2,6.1,5.1,10.1,5c0.6,0,1.1,0,1.7-0.1c4.6-0.3,8.6-3.1,10.4-7.3C395.5,588.5,395,583.1,392,578.9z"/>
		<path class="st3" d="M262.8,402.4c-2.9,0.2-5.4,2-6.5,4.6c-1.2,3-0.9,6.4,1,9c1.5,2,3.8,3.2,6.3,3.1h1c2.9-0.2,5.4-2,6.5-4.6
			c1.2-3,0.9-6.4-1-9C268.4,403.2,265.6,402,262.8,402.4z"/>
		<path class="st3" d="M99.8,651.7c-4.6,0.3-8.6,3.1-10.4,7.3c-2,4.8-1.4,10.2,1.6,14.4c2.3,3.2,6.1,5.1,10.1,5c0.6,0,1.1,0,1.7-0.1
			c4.6-0.3,8.6-3.1,10.4-7.3c2-4.8,1.4-10.2-1.5-14.4C108.8,652.9,104.3,651,99.8,651.7z"/>
		<path class="st3" d="M185.7,446.4c0.6,0,1.1,0,1.7-0.1c4.6-0.3,8.6-3.1,10.4-7.3c2-4.8,1.4-10.2-1.5-14.4
			c-4.5-5.7-12.8-6.7-18.5-2.2c-1.6,1.2-2.8,2.8-3.7,4.6c-2,4.8-1.4,10.2,1.6,14.4C177.9,444.6,181.7,446.5,185.7,446.4z"/>
		<path class="st3" d="M752.5,593.5c-2.7-3.7-7.2-5.6-11.7-4.9c-8.5,0.9-12.2,8.1-11.5,14.7c0.7,6.2,5.2,12,12.8,12
			c0.5,0,1.1,0,1.6-0.1c4.6-0.3,8.6-3.1,10.4-7.3C756,603.1,755.4,597.7,752.5,593.5z"/>
		<path class="st3" d="M233.4,529.2c4.6-0.3,8.6-3.1,10.4-7.3c2-4.8,1.4-10.2-1.6-14.4c-4.5-5.7-12.8-6.7-18.5-2.2
			c-1.6,1.2-2.8,2.8-3.7,4.6c-2,4.8-1.4,10.2,1.5,14.4c2.3,3.2,6.1,5.1,10.1,5C232.3,529.3,232.9,529.2,233.4,529.2z"/>
		<path class="st3" d="M128.9,123.9c2-4.8,1.4-10.2-1.5-14.4c-2.7-3.7-7.2-5.6-11.7-4.9c-8.5,0.9-12.2,8.1-11.5,14.8
			c0.7,6.2,5.2,12,12.8,12c0.5,0,1.1,0,1.6-0.1C123,130.9,127,128.1,128.9,123.9z"/>
		<path class="st3" d="M423.8,515.5c2-4.8,1.4-10.2-1.5-14.4c-2.7-3.7-7.2-5.6-11.7-4.9c-8.5,0.9-12.2,8.1-11.5,14.8
			c0.7,6.2,5.2,12,12.8,12c0.5,0,1.1,0,1.6-0.1C417.9,522.5,421.9,519.7,423.8,515.5z"/>
		<path class="st3" d="M411.5,411.6c0.9-2.2,0.7-4.7-0.7-6.7c-1.3-1.7-3.4-2.6-5.5-2.3c-3.4,0.5-5.8,3.7-5.3,7.1
			c0.4,3,2.9,5.2,5.9,5.4h0.8C408.7,414.9,410.6,413.6,411.5,411.6z"/>
		<path class="st3" d="M56.6,176.5c-2.5,0.2-4.8,1.8-5.8,4.1c-1.1,2.6-0.8,5.7,0.9,8c1.3,1.8,3.4,2.9,5.7,2.8c0.3,0,0.6,0,0.9,0
			c2.5-0.2,4.8-1.8,5.8-4.1c1.1-2.6,0.8-5.7-0.9-8C61.6,177.2,59.1,176.1,56.6,176.5z"/>
		<path class="st3" d="M315.3,576.9c-1.9,0.2-3.5,1.3-4.3,3.1c-0.8,1.9-0.6,4.1,0.6,5.8c1,1.3,2.6,2.1,4.2,2.1h0.6
			c3-0.3,5.2-3,4.9-6.1S318.3,576.6,315.3,576.9L315.3,576.9L315.3,576.9z"/>
		<path class="st3" d="M117.7,536.2c1.1-2.6,0.8-5.7-0.9-8c-2.5-3.2-7.1-3.7-10.3-1.2c-0.9,0.7-1.6,1.6-2.1,2.6
			c-1.1,2.6-0.8,5.7,0.8,8c1.3,1.8,3.4,2.9,5.7,2.8c0.3,0,0.6,0,0.9,0C114.4,540.2,116.7,538.6,117.7,536.2z"/>
		<path class="st3" d="M718.6,235.1c-4.6,0.3-8.6,3.1-10.4,7.3c-2,4.8-1.4,10.2,1.6,14.4c2.3,3.2,6.1,5.1,10.1,5
			c0.6,0,1.1,0,1.7-0.1c4.6-0.3,8.6-3.1,10.4-7.3c2-4.8,1.4-10.2-1.5-14.4C727.6,236.3,723.1,234.4,718.6,235.1z"/>
		<path class="st3" d="M727.5,103.6c1.1-2.6,0.8-5.7-0.9-8c-2.5-3.2-7.1-3.7-10.3-1.2c-0.9,0.7-1.6,1.6-2.1,2.6
			c-1.1,2.6-0.8,5.7,0.8,8c1.3,1.8,3.4,2.9,5.7,2.8c0.3,0,0.6,0,0.9,0C724.2,107.6,726.5,106,727.5,103.6z"/>
		<path class="st3" d="M756.2,470.5c-2.9,0.4-4.9,3-4.6,5.9c0.3,2.6,2.5,4.5,5,4.6h0.6c2.9-0.4,4.9-3.1,4.4-6
			C761.3,472.3,758.9,470.3,756.2,470.5L756.2,470.5z"/>
		<path class="st3" d="M743.2,308.6c-2.9,0.4-4.9,3-4.6,5.9c0.3,2.6,2.5,4.5,5,4.6h0.6c2.9-0.4,4.9-3.1,4.4-6
			C748.3,310.5,745.9,308.5,743.2,308.6L743.2,308.6z"/>
		<path class="st3" d="M738.2,139.8c-2.9,0.4-4.9,3-4.6,5.9c0.3,2.6,2.5,4.5,5,4.6h0.6c2.9-0.4,4.9-3.1,4.4-6
			C743.3,141.6,740.9,139.7,738.2,139.8L738.2,139.8z"/>
		<path class="st3" d="M93.8,401.1h0.7c2.8-0.2,5-2.6,4.8-5.5c0-0.4-0.1-0.7-0.2-1.1c-0.8-2.7-3.6-4.3-6.4-3.5
			c-2.7,0.8-4.3,3.6-3.5,6.4C89.8,399.5,91.6,401,93.8,401.1z"/>
		<path class="st3" d="M71.8,50.4h0.7c2.8-0.3,4.8-2.7,4.6-5.5l0,0c0-0.1,0-0.2,0-0.3c-0.2-2.8-2.6-5-5.5-4.8
			c-2.8,0.2-5,2.6-4.8,5.5c0,0.1,0,0.3,0,0.4C66.9,48.4,69.1,50.5,71.8,50.4z"/>
		<path class="st3" d="M167.2,75.9c0.3,0,0.6,0,0.9,0c2.5-0.2,4.8-1.8,5.8-4.1c1.1-2.6,0.8-5.7-0.9-8c-2.5-3.2-7.1-3.7-10.3-1.2
			c-0.9,0.7-1.6,1.6-2.1,2.6c-1.1,2.6-0.8,5.7,0.9,8C162.9,74.9,165,75.9,167.2,75.9z"/>
		<path class="st3" d="M194.1,369c0.6-1.3,0.4-2.8-0.4-4c-1.2-1.6-3.5-1.9-5.2-0.7c-0.5,0.4-0.9,0.8-1.1,1.4
			c-0.6,1.4-0.4,3.1,0.7,4.3c0.7,0.7,1.7,1.2,2.7,1.1h0.4C192.5,371,193.6,370.2,194.1,369z"/>
		<path class="st3" d="M309.7,463c-2.5,0.2-4.3,2.4-4.1,4.9c0,0.3,0.1,0.5,0.1,0.8c0.6,2,2.4,3.3,4.5,3.3h0.4
			c2.4-0.2,4.2-2.4,3.9-4.8V467c-0.2-2.4-2.2-4.2-4.6-4H309.7z"/>
		<path class="st3" d="M643.3,214.6c2.4-0.2,4.2-2.4,3.9-4.8l0,0v-0.2c-0.2-2.4-2.2-4.1-4.5-4h-0.3c-1.5,0.1-2.9,1.1-3.5,2.5
			c-0.7,1.6-0.5,3.4,0.5,4.7c0.8,1.1,2.1,1.8,3.4,1.7L643.3,214.6z"/>
		<path class="st3" d="M536.2,642.4c-5.9,0.6-8.4,5.6-7.9,10.1c0.5,4.3,3.6,8.3,8.8,8.3c0.4,0,0.8,0,1.1-0.1
			c5.8-0.6,8.4-5.6,7.9-10.1C545.6,646,542,641.8,536.2,642.4z"/>
		<path class="st3" d="M719.5,676.8c-1.5,0.1-2.9,1.1-3.5,2.5c-0.7,1.6-0.5,3.4,0.5,4.7c0.8,1.1,2.1,1.7,3.4,1.7h0.5
			c2.5-0.2,4.4-2.4,4.2-4.9s-2.4-4.4-4.9-4.2C719.7,676.8,719.6,676.8,719.5,676.8L719.5,676.8z"/>
		<path class="st3" d="M503.6,544c-1.5,0.1-2.9,1.1-3.5,2.5c-0.7,1.6-0.5,3.4,0.5,4.7c0.8,1.1,2.1,1.7,3.4,1.7h0.5
			c2.5-0.4,4.2-2.6,3.8-5.1C508.1,545.4,505.9,543.7,503.6,544L503.6,544z"/>
		<path class="st3" d="M646.5,56.4c-1.5,0.1-2.9,1.1-3.5,2.5c-0.7,1.7-0.4,3.7,0.8,5.1c0.8,0.9,2,1.4,3.2,1.4h0.5
			c2.5-0.3,4.3-2.5,4-5C651.2,58,649,56.2,646.5,56.4L646.5,56.4z"/>
		<path class="st3" d="M620.9,445c0.1,0,0.3,0,0.4,0c1.7-0.1,3-1.6,2.9-3.3c-0.1-1.7-1.6-3-3.3-2.9s-3,1.6-2.9,3.3
			C618.1,443.6,619.4,444.9,620.9,445z"/>
		<path class="st3" d="M367.2,646.5c1.1,0.1,2,0.8,2.5,1.8c0.5,1.1,0.3,2.4-0.4,3.4c-0.6,0.8-1.5,1.2-2.4,1.2h-0.4
			c-1.7-0.2-2.9-1.7-2.8-3.4l0,0v-0.1c0.1-1.7,1.5-2.9,3.1-2.9H367.2z"/>
		<path class="st3" d="M664.6,671c0.3,2.2,2.2,3.8,4.4,3.8h0.4c2.5-0.2,4.3-2.4,4.1-4.9s-2.4-4.3-4.9-4.1s-4.3,2.4-4.1,4.9
			C664.6,670.8,664.6,670.9,664.6,671z"/>
		<path class="st3" d="M546.6,390.1c-1.5,0.1-2.9,1.1-3.5,2.5c-0.7,1.6-0.5,3.4,0.5,4.7c0.8,1.1,2.1,1.7,3.4,1.7h0.5
			c2.5-0.2,4.4-2.4,4.2-4.9s-2.4-4.4-4.9-4.2C546.7,390.1,546.6,390.1,546.6,390.1L546.6,390.1z"/>
		<path class="st3" d="M582.6,496c-1.5,0.1-2.9,1.1-3.5,2.5c-0.7,1.6-0.5,3.4,0.5,4.7c0.8,1.1,2.1,1.7,3.4,1.7h0.5
			c2.5-0.2,4.4-2.4,4.2-4.9s-2.4-4.4-4.9-4.2C582.7,496,582.6,496,582.6,496L582.6,496z"/>
		<path class="st3" d="M492,374.2c0.7,1.8,2.4,2.9,4.3,2.9h0.3c2.5-0.2,4.3-2.4,4.1-4.9s-2.4-4.3-4.9-4.1c-2.5,0.2-4.3,2.4-4.1,4.9
			C491.7,373.4,491.8,373.8,492,374.2z"/>
		<path class="st3" d="M422,315.9c6.4-0.7,5.3-10.6-1.1-9.9S415.6,316.6,422,315.9z"/>
		<path class="st3" d="M739.4,45.6c7.6-0.8,6.4-12.7-1.3-11.8C730.5,34.6,731.7,46.5,739.4,45.6z"/>
		<path class="st3" d="M253.4,576.7c7.6-0.8,6.3-12.7-1.3-11.8C244.5,565.6,245.8,577.5,253.4,576.7z"/>
		<path class="st3" d="M590.3,687.6c3.8-0.4,3.2-6.3-0.6-5.9C585.8,682,586.5,688,590.3,687.6z"/>
		<path class="st3" d="M267.4,318c6.4-0.7,5.3-10.6-1.1-9.9C259.9,308.8,261,318.7,267.4,318z"/>
		<path class="st3" d="M336.7,281.9c3.2-0.3,2.7-5.3-0.5-5C333,277.2,333.5,282.2,336.7,281.9z"/>
		<path class="st3" d="M524.4,338.5c3.2-0.3,2.7-5.3-0.5-5C520.6,333.8,521.2,338.8,524.4,338.5z"/>
		<path class="st3" d="M397.6,567.3c3.8-0.4,3.2-6.3-0.6-5.9C393.1,561.8,393.8,567.7,397.6,567.3z"/>
		<path class="st3" d="M203.2,662.8c3.2-0.3,2.7-5.3-0.5-5S200,663.1,203.2,662.8z"/>
		<path class="st3" d="M37,494.6c3.8-0.4,3.2-6.3-0.6-5.9C32.5,489.1,33.1,495,37,494.6z"/>
		<path class="st3" d="M673.9,353.5c3.2-0.3,2.7-5.3-0.5-4.9C670.2,348.9,670.7,353.9,673.9,353.5z"/>
		<path class="st3" d="M307.4,445.6c3.8-0.4,3.2-6.3-0.6-5.9S303.5,446.1,307.4,445.6z"/>
		<path class="st4" d="M414,726.7l-0.4-0.4"/>
		<path class="st5" d="M414,726.6l-0.3-0.4c-0.1-0.1-0.2,0-0.1,0.1L414,726.6L414,726.6z"/>
		<g class="st6">
			<path d="M389.6,736c-1.3,0.6-2.4,1.4-3.4,2.4s-1.6,2.4-1.5,3.8c0,0.3,0.1,0.6,0.3,0.8c0.6,0.8,1.8,0.5,2.6,0c1.6-1.1,3-2.6,4-4.4
				c0.4-0.5,0.6-1.2,0.7-1.8c0.1-0.7-0.4-1.3-1-1.5c-0.3,0-0.7,0-1,0.2c-1.3,0.8-2.4,1.9-3.1,3.2l-2.5,3.7"/>
			<path class="st5" d="M389.3,735.7c-2.7,1.1-6.9,3.7-5.5,7.4c1.4,3.6,6-0.5,7.3-2.1c1-1.3,2.3-2.9,2.1-4.6
				c-0.1-1.3-1.3-2.3-2.6-2.2c-0.1,0-0.2,0-0.4,0c-1.6,0.4-2.8,1.9-3.7,3.2c-0.9,1.3-2.8,3.3-2.6,5c0,0.3,0.2,0.5,0.5,0.5l0,0h0.1
				c1.6-0.4,2.5-2.6,3.3-3.9c0.4-0.8,1-1.4,1.7-2c0.6-0.4,1.4-0.5,0.9,0.5c-0.2,0.4-0.5,0.9-0.8,1.3c-0.5,0.8-1.2,1.6-1.9,2.2
				c-0.6,0.5-2.2,2.2-2.5,0.6c-0.4-2.3,2.7-4.3,4.2-5.4c0.2-0.1,0.2-0.3,0.1-0.5C389.7,735.6,389.5,735.6,389.3,735.7L389.3,735.7
				L389.3,735.7z"/>
		</g>
		<g class="st6">
			<path d="M395,729.9c0.1-0.1,0-0.2-0.1-0.3h-0.1c-0.2,0-0.3,0-0.4,0.1c-0.6,0.3-1.1,0.8-1.5,1.4c-0.3,0.6,0.1,1.6,0.8,1.6
				c0.5,0,0.8-0.4,1.1-0.8l0.8-1c0.1-0.1,0.2-0.3,0.2-0.4c0-0.3-0.2-0.7-0.6-0.7c-0.3,0-0.7,0-1,0.1"/>
			<path class="st5" d="M394.6,730c0.1,0,0.2-0.1,0.2-0.2c0.1-0.1,0.1-0.3-0.1-0.5c-0.5-0.5-1.3-0.1-1.8,0.1
				c-0.8,0.3-1.3,1.1-1.4,1.9c-0.1,0.8,0.2,1.6,0.9,2c0.8,0.4,1.7,0.3,2.3-0.4c0.6-0.5,1.2-1.2,1.5-1.9c0.3-0.8-0.1-1.7-0.9-2.1
				l-0.2-0.1c-0.7-0.2-2.1,0.1-2,1.1c0.1,0.4,0.4,0.7,0.8,0.7c0.1,0,0.6,0.1,0.6,0l-0.1-0.3c0-0.3,0-0.3-0.1-0.2s-0.2,0.2-0.3,0.3
				l-0.5,0.6c-0.1,0.1-0.3,0.3-0.4,0.5c0,0.1-0.1,0,0,0.1l0,0v-0.2c0-0.3,0.5-0.8,0.7-1C394.1,730.4,394.3,730.2,394.6,730
				L394.6,730z"/>
		</g>
		<g class="st6">
			<path d="M383.3,748.4c-1.4,0.5-2.1,2-1.7,3.4l0,0c0,0.1,0,0.1,0.1,0.2c0.5,0.1,1.1-0.1,1.4-0.6c0.3-0.4,0.5-0.9,0.7-1.4
				c0.1-0.3,0.2-0.7,0.1-1s-0.6-0.4-0.8-0.2"/>
			<path class="st5" d="M383.4,748.1c-0.9-0.4-2,1-2.4,1.7c-0.4,0.9-0.4,2.9,0.9,2.9s2.2-1.4,2.6-2.6c0.2-0.6,0.2-1.3-0.2-1.8
				c-0.4-0.4-1-0.5-1.5-0.2c-0.7,0.3-0.2,1.5,0.5,1.2c-0.2,0.1-0.4,0.9-0.5,1.2c-0.1,0.4-0.6,0.7-1.1,0.7l0.6,0.4
				c-0.2-0.6-0.2-1.2,0-1.7c0.1-0.3,0.3-0.6,0.5-0.8s0.4-0.3,0.6-0.5C383.6,748.4,383.6,748.2,383.4,748.1L383.4,748.1L383.4,748.1
				L383.4,748.1z"/>
		</g>
		<g class="st6">
			<path d="M379.4,743.9c-1.2,0.8-1.9,2.3-1.6,3.7c0,0.2,0.1,0.4,0.3,0.6c0.4,0.3,1,0,1.4-0.3c0.9-0.7,1.6-1.5,2.1-2.4
				c0.4-0.8,0.5-2.2-0.4-2.5c-0.7-0.1-1.4,0.2-1.8,0.7c-0.6,0.7-1,1.4-1.3,2.3"/>
			<path class="st5" d="M379.4,743.9c-1.7-0.3-2.6,2.7-2.3,3.9c0.6,2.7,3.4,0.2,4.3-0.9c0.9-1.1,2-3.7,0-4.5
				c-1.8-0.7-4.2,2.1-3.7,3.7c0.1,0.2,0.3,0.3,0.5,0.3l0,0c0.1,0,0.1-0.1,0.2-0.1c0.8-0.6,1-2.1,2-2.5c0.8-0.3,0.9,0.5,0.7,1.1
				c-0.2,0.6-0.5,1.1-0.9,1.5c-0.3,0.5-0.8,0.9-1.2,1.2c-0.6,0.3-0.6-0.4-0.5-0.9c0-0.6,0.2-1.1,0.5-1.6
				C379.2,744.7,379.4,744.3,379.4,743.9L379.4,743.9L379.4,743.9z"/>
		</g>
		<g class="st6">
			<path d="M396.2,734.8c1.3-1.8,2.9-3.4,4.7-4.6c0.3-0.2,0.9-0.4,1.1-0.1c0.1,0.2,0.2,0.5,0.1,0.7c-0.7,2.9-3.4,4.9-6.4,4.7
				c0.8-1.7,2.3-3,4.1-3.5"/>
			<path class="st5" d="M396.3,734.8c0.8-0.7,1.5-1.4,2.2-2.2c0.5-0.5,1.1-1,1.7-1.4c0.5-0.3,1.4-1.2,1.5,0c0,1.2-1.6,2.4-2.3,2.9
				c-1.1,0.7-2.3,1-3.5,0.9l0.4,0.8c0.9-1.6,2.2-2.8,3.8-3.6c0.2-0.1,0.1-0.4-0.1-0.4c-2,0.3-3.7,1.7-4.6,3.5
				c-0.1,0.2,0,0.5,0.2,0.7l0,0c0.1,0,0.1,0.1,0.2,0.1c1.7,0.1,3.4-0.5,4.7-1.6c1-0.9,2.4-2.6,2.2-4.1s-2-0.5-2.6,0
				C398.7,731.4,396.7,733.1,396.3,734.8L396.3,734.8L396.3,734.8z"/>
		</g>
		<path class="st7" d="M334.1,798.1c-0.2-1.2-1.1-2.1-2.3-2.2c-13.1-3.1-25.9-0.9-39,1.1c-15,2.4-30.1,9.6-45.3,9
			c-1.5-0.2-2.8,0.9-2.9,2.4l0,0c0,0.2,0,0.4,0,0.6c3.6,26.5,7.5,52.9,11.6,79.4c0.4,2.7,3.8,2.7,4.9,1c27.3-0.2,54.1-5.8,80.8-11.1
			c1.4-0.2,2.4-1.6,2.2-3C340.2,849.7,336.4,823.9,334.1,798.1z"/>
		<path class="st8" d="M248.8,813.1l81.8-11.8c2.7-0.4,4.6-3,4.2-5.7l0,0c-0.1-0.7-0.3-1.3-0.7-1.8l-56-81.9
			c-1.4-2.3-4.5-3.1-6.9-1.6c-1,0.6-1.7,1.6-2.1,2.7l-25.9,93.7c-0.9,2.6,0.6,5.4,3.2,6.3l0,0C247.2,813.2,248,813.2,248.8,813.1z"
			/>
		<path class="st9" d="M241.2,807.8c-2.2,2.9-0.1,7.3,3.1,8.9c3.2,1.6,7,1.2,10.6,0.7l16.9-2.2l53.6-7c4-0.5,8.3-1.2,11.5-3.7
			c0.7-0.6,1.4-1.3,1.9-2.1c1.5-2.5,0.6-5.7-1.8-7.1c-1-0.6-2.3-0.8-3.5-0.7c-30.2,4.7-60.4,8.7-90.8,12"/>
		<path class="st10" d="M251.3,823.4l20.4-3c2-0.3,3.9,1.1,4.2,3.2l0.4,3c0.3,2-1.1,3.9-3.2,4.2l-20.4,3c-2,0.3-3.9-1.1-4.2-3.2
			l-0.4-3C247.8,825.6,249.2,823.7,251.3,823.4z"/>
		<path class="st10" d="M259.7,835.3l13.9-2c1.4-0.2,2.8,0.8,3,2.2l0.5,3.5c0.2,1.4-0.8,2.8-2.2,3l-13.9,2c-1.4,0.2-2.8-0.8-3-2.2
			l-0.5-3.5C257.3,836.9,258.3,835.5,259.7,835.3z"/>
		<path class="st10" d="M339,855.2c-0.2-2-2-3.4-4-3.2l-19.1,2.8c-2,0.3-3.3,2.2-3,4.2l0.4,3c0.2,2,2,3.4,4,3.2l19.1-2.8
			c2-0.4,3.3-2.2,2.9-4.2L339,855.2z"/>
		<path class="st10" d="M323.7,866.1l13.9-2c1.4-0.2,2.8,0.8,3,2.2l0.5,3.5c0.2,1.4-0.8,2.8-2.2,3l-13.9,2c-1.4,0.2-2.8-0.8-3-2.2
			l-0.5-3.5C321.3,867.6,322.3,866.3,323.7,866.1z"/>
		<path class="st10" d="M337.6,845.9c-0.1-0.9-1-1.1-2-1l-9.4,1.3c-1,0.1-2.6,0.7-2.5,1.6l0.3,2.2c0.1,0.9,1.9,1.5,2.9,1.3l9.5-1.4
			c1-0.1,1.7-1,1.5-2l0,0l0,0L337.6,845.9z"/>
		<path class="st8" d="M287.1,889.1c0,0-9-41.3,8.1-43.7c17.1-2.5,21.4,39.5,21.4,39.5L287.1,889.1z"/>
		<path class="st11" d="M318.6,886.3l-32.8,4.7l-0.3-1.6c-0.3-1.2-6.3-29.3,1.7-40.9c1.8-2.7,4.6-4.5,7.8-5c3.2-0.5,6.5,0.5,9,2.5
			c11.3,8.8,14.3,37.3,14.4,38.5L318.6,886.3z M288.3,887.1l26.2-3.8c-0.8-6.2-4.2-27.7-12.9-34.4c-1.8-1.5-4.1-2.2-6.3-1.8
			c-2.2,0.3-4.2,1.6-5.4,3.5C283.6,859.5,287.2,881.1,288.3,887.1L288.3,887.1z"/>
		<line class="st12" x1="294.8" y1="843.7" x2="301.3" y2="888.8"/>
		
			<rect x="293.5" y="844.8" transform="matrix(0.9902 -0.1399 0.1399 0.9902 -118.4632 49.832)" class="st11" width="3.5" height="45.6"/>
		<line class="st12" x1="284.6" y1="871.7" x2="312.4" y2="867.7"/>
		
			<rect x="284.5" y="867.9" transform="matrix(0.9897 -0.1432 0.1432 0.9897 -121.4584 51.7114)" class="st11" width="28.1" height="3.5"/>
		<path class="st9" d="M298,756.1c2.1,4.6,4.8,9.4,9.4,11.4c0.7,0.4,1.6,0.5,2.3,0.2c0.7-0.5,1.1-1.4,0.9-2.2s-0.6-1.6-1.1-2.3
			c-2.3-3.5-4.8-7.1-8.3-9.4c-0.4-0.4-1-0.6-1.6-0.5c-0.6,0.2-1,0.8-1,1.4c0,0.6,0.2,1.2,0.5,1.7c1.6,3,3.7,5.7,6.3,7.9"/>
		<path class="st9" d="M297.4,756.7c1.8,4.9,4.8,11.7,10.4,13c1.9,0.6,3.9-0.5,4.4-2.3c0-0.1,0.1-0.2,0.1-0.3c0.5-2.6-1.6-5.1-3-7.1
			c-1.6-2.3-8-11.2-11.5-7c-1.6,1.9-0.1,4.4,1,6.1c1.6,2.6,3.5,5.2,6.5,6.2c0.3,0.1,0.6-0.1,0.7-0.3l0,0c0-0.1,0-0.3,0-0.4
			c-1.2-2.7-3.9-4.7-4.9-7.4c-0.8-2.5,1.7,0.6,2.4,1.3c1,1.1,1.9,2.2,2.8,3.4c0.4,0.5,2.8,3.3,2.6,3.9c-0.5,1.4-3.4-0.9-3.9-1.4
			c-2.7-2.1-4.5-5.2-6.2-8.2c-0.2-0.4-0.6-0.5-1-0.4S297.3,756.4,297.4,756.7L297.4,756.7L297.4,756.7z"/>
		<path class="st9" d="M313.4,770.3l2.1,2.3c0.6,0.6,1.4,1.3,2.2,1.2c0.1,0,0.2-0.1,0.2-0.1c0.1-0.2,0.1-0.4,0-0.6
			c-0.8-1.5-2-2.8-3.4-3.7c-0.1-0.1-0.3-0.1-0.4-0.1c-0.1,0.1-0.2,0.2-0.2,0.3c0,0.7,0.3,1.3,0.9,1.7s1,0.8,1.4,1.4"/>
		<path class="st9" d="M313,770.7c1.1,1.4,2.5,4.1,4.6,3.9c2.4-0.2,0.6-2.8-0.2-3.7c-0.7-0.8-3-3.3-4-1.9c-0.4,0.7-0.2,1.6,0.3,2.2
			c0.7,0.6,1.4,1.2,2.2,1.6c0.1,0.1,0.3,0.1,0.4-0.1l0,0c0-0.1,0.1-0.1,0.1-0.2c0-0.4-0.2-0.9-0.5-1.2c-0.2-0.2-1.7-1.3-1.4-1.6
			l-0.5,0.1c0.7,0,1.6,1.1,2,1.6c0.2,0.2,1.4,1.5,1.2,1.8l0.4-0.4c-0.7,0.3-1.5-0.8-2-1.3c-0.6-0.6-1.3-1.2-2-1.8
			C313.3,769.5,312.6,770.2,313,770.7L313,770.7z"/>
		<path class="st9" d="M290.8,749.1c0.8,1.6,2,2.9,3.5,3.8c0.2,0.1,0.4,0.2,0.6,0.1c0.4-0.1,0.3-0.6,0.2-1c-0.7-1.8-1.8-3.4-3.4-4.5
			c-0.1-0.1-0.2-0.1-0.4-0.1c-0.1,0-0.2,0.1-0.2,0.2c-0.5,0.8,0.1,1.9,0.7,2.7c0.6,0.7,1.2,1.4,1.8,2"/>
		<path class="st9" d="M290.5,749.1c0,1.8,2.3,4.5,4,4.9c0.7,0.1,1.4-0.3,1.6-1.1l0,0c0-0.1,0-0.2,0-0.3c-0.1-1.1-0.6-2.2-1.3-3.1
			c-0.7-1.1-3.4-4.5-4.6-2c-0.9,2,1.5,4.9,3.4,5.2c0.2,0,0.3-0.1,0.4-0.3v-0.1c-0.2-0.7-0.5-1.4-1-1.9c-0.2-0.3-1.5-1.7-1.1-2.2
			l-0.7,0.2c0.4,0,1.4,1.3,1.8,1.8c0.5,0.7,0.9,1.5,1.3,2.2l0.7-0.2c-0.7,0-1.7-1.1-2.2-1.5c-0.5-0.6-1.1-1.2-1.8-1.8
			C290.8,748.7,290.4,748.9,290.5,749.1L290.5,749.1z"/>
		<path class="st9" d="M298.8,748.5c0.2,0.9,1.1,1.4,1.9,1.9c0.1,0.1,0.2,0.1,0.3,0.1c0.2,0,0.4-0.2,0.4-0.5c0-0.2-0.1-0.4-0.3-0.6
			c-0.5-0.7-1-1.2-1.6-1.8c-0.1-0.1-0.3-0.2-0.4-0.2c-0.3,0-0.4,0.4-0.4,0.7c0.1,1.3,1.1,2.3,2.4,2.5"/>
		<path class="st9" d="M298.7,748.1c0,0.6,0.2,1.2,0.7,1.5c0.4,0.4,1,1.1,1.6,1.1c0.5,0,1-0.4,1.1-0.9c0-0.1,0-0.1,0-0.2
			c-0.2-0.8-0.6-1.5-1.2-2c-0.5-0.5-1.1-1.2-1.8-1.1c-0.6,0.1-1,0.6-1,1.2c0,1.5,1.1,2.9,2.5,3.3c0.3,0.1,0.7,0,0.8-0.3
			c0-0.1,0-0.1,0-0.2c0-0.3-0.1-0.5-0.4-0.6c-0.5-0.1-1-0.4-1.3-0.8c-0.1-0.1-0.6-1.1-0.4-1.2h-0.5c0.5,0.1,0.9,0.7,1.2,1
			s0.3,0.4,0.5,0.6c0.1,0.1,0.1,0.1,0.2,0.2c0.1,0.2,0.1,0.1,0.2-0.1c-0.1-0.2-0.9-0.4-1.1-0.6c-0.2-0.2-0.6-0.6-0.9-0.9
			C298.8,747.8,298.6,747.9,298.7,748.1L298.7,748.1z"/>
		<path class="st9" d="M307.3,772c0,1,0.7,1.9,1.7,2.2c0.1,0,0.2,0,0.3,0c0.1,0,0.1-0.1,0.2-0.1c0.2-0.3,0.2-0.7,0.1-1
			s-0.3-0.7-0.6-0.9c-0.2-0.2-0.4-0.4-0.6-0.6c-0.3-0.1-0.6-0.1-0.8,0.1c-0.2,0.2-0.2,0.4-0.1,0.7c0.1,0.2,0.2,0.4,0.3,0.6
			c0.3,0.5,0.7,0.9,1.1,1.3"/>
		<path class="st9" d="M306.5,772.2c-0.3,1.4,0.6,2.7,2,3l0,0c0.1,0,0.2,0,0.3,0c0.8,0,1.4-0.6,1.4-1.4l0,0v-0.1
			c0-0.7-0.3-1.4-0.8-1.9c-0.3-0.6-0.9-1-1.5-1.2c-0.6-0.1-1.2,0.3-1.4,0.8c-0.4,1.1,1,3.2,2.2,3c0.2,0,0.4-0.2,0.4-0.4
			c0.1-0.7-0.4-1.1-0.8-1.6c-0.2-0.2-0.7-0.8-0.1-0.1c0.2,0.3,0.5,0.6,0.1,0.9l0.8-0.2c-0.7,0-1.3-0.7-1.7-1.3
			C307.1,771.3,306.5,771.7,306.5,772.2L306.5,772.2z"/>
		<path class="st9" d="M294,743.5c0,0.4,0.2,0.8,0.6,1c0.3,0.2,0.9-0.1,0.8-0.5c-0.1-0.2-0.2-0.3-0.4-0.4c-0.1-0.1-0.3-0.5-0.5-0.6
			c-0.4-0.2-0.9,0.3-0.8,0.7c0.2,0.4,0.7,0.7,1.2,0.6"/>
		<path class="st9" d="M293.9,743.3L293.9,743.3c-0.2,0.2-0.2,0.3-0.2,0.4c0.2,0.8,0.9,1.6,1.8,1.1s0.3-1.5-0.2-2.1
			c-0.4-0.6-1.1-0.7-1.7-0.4c-0.2,0.1-0.4,0.4-0.5,0.6c-0.4,1,0.5,1.9,1.5,2c0.4,0,0.8-0.3,0.9-0.7c0-0.1,0-0.3-0.1-0.4
			c-0.1-0.3-0.3-0.4-0.6-0.5c-0.5,0-0.6,0.1-0.2,0.5c0.5,0.5,0.2-0.2,0-0.4C294.3,743.3,294.1,743.1,293.9,743.3L293.9,743.3z"/>
		<path class="st9" d="M250.7,793.6c-0.6,1.1-1.1,2.4-1.5,3.6c-0.1,0.4-0.2,0.8,0,1.1c0.1,0.3,0.3,0.5,0.6,0.6
			c1.4,0.7,3.1,0.1,3.9-1.3c0.7-1.3,0.9-2.9,0.6-4.4c0-0.4-0.2-0.8-0.4-1.1c-0.4-0.3-0.9-0.4-1.3-0.2c-0.4,0.2-0.8,0.5-1.1,0.8
			c-0.9,0.9-1.8,2.1-1.5,3.4"/>
		<path class="st9" d="M250.6,793.5c-1.1,0.5-1.7,2.1-2.1,3.3c-0.5,1-0.2,2.2,0.6,2.9c2.1,1.5,4.9-0.1,5.7-2.3
			c0.7-1.8,1-6.2-1.8-6.3c-2.2,0-4.9,3.4-3.7,5.4c0.2,0.4,0.8,0.5,1,0c0.3-1.3,1.1-2.5,2.1-3.4c1-0.7,1,0.8,1.1,1.5
			c0,0.8-0.1,1.5-0.4,2.3c-0.5,1.1-3.1,2.6-3,0.5c0-1.3,1-2.4,0.8-3.8C250.9,793.5,250.8,793.4,250.6,793.5L250.6,793.5L250.6,793.5
			z"/>
		<path class="st9" d="M250.9,786.5c-0.5,0.4-0.7,1.1-0.3,1.7c0.1,0.1,0.2,0.2,0.3,0.2c0.1-0.1,0.2-0.2,0.2-0.3c0.2-0.6,0.2-1.3,0-2
			"/>
		<path class="st9" d="M250.5,785.7c-1.1,0.8-1.4,2.8,0,3.5c1.9,1.1,2.4-1.9,2-3c-0.1-0.5-0.5-0.8-0.9-0.9c-0.5-0.1-1,0.2-1.1,0.7
			c-0.1,0.3-0.1,0.6,0,0.8v0.6c0,0.2-0.1,0.4,0.1,0.1l0.8-0.3c0.8,0.1,0.1,0.3,0.4,0c0.4-0.4,0.4-1,0-1.4
			C251.3,785.5,250.8,785.5,250.5,785.7L250.5,785.7z"/>
		<path class="st9" d="M252.7,802.3c-0.3,0.3-0.4,0.8-0.4,1.2c0.1,0.4,0.7,0.8,1,0.4c0.1-0.1,0.2-0.2,0.2-0.3c0.1-0.5,0.2-1,0.2-1.5
			c-0.5-0.1-1,0.2-1.2,0.6"/>
		<path class="st9" d="M252.6,801.7c-0.7,0.3-1.1,1-0.8,1.8c0.1,0.3,0.3,0.6,0.6,0.7c1.5,0.7,1.9-1.4,1.9-2.4c0-0.4-0.3-0.8-0.7-0.9
			h-0.2c-0.7,0-1.4,0.5-1.7,1.1c-0.1,0.3,0,0.6,0.3,0.7c0.2,0.1,0.4,0,0.6-0.1c0.2-0.2,0.5-0.3,0.8-0.3l-0.7-0.7c0,0.2,0,0.4,0,0.7
			s-0.2,1,0,0.4c0.1-0.3,0.1-0.7,0.1-1C252.9,801.7,252.7,801.7,252.6,801.7L252.6,801.7z"/>
		<path class="st9" d="M245.9,802.5c-0.5,0.5-0.7,1.2-0.7,1.9c0,0.1,0,0.3,0.1,0.4c0.2,0.3,0.5,0.4,0.9,0.3c1-0.2,1.5-1.3,1.8-2.3
			c0.2-0.5,0.2-1.3-0.3-1.5s-0.9,0.2-1.2,0.5c-0.4,0.4-0.7,0.9-1,1.4"/>
		<path class="st9" d="M245.7,802.2c-0.7,0.7-1.6,2.5-0.5,3.2c1.2,0.7,2.5-0.6,3-1.6s1-3-0.6-3.3c-1.2-0.2-3,1.6-2.6,2.8
			c0.1,0.2,0.3,0.3,0.5,0.3c0.6-0.1,0.7-0.5,1.1-1c0.1-0.1,0.5-0.8,0.8-0.6c0.2,0.2-0.1,0.8-0.2,0.9c-0.1,0.6-0.5,1.1-1,1.5
			c-1.1,0.6-0.3-1.3-0.1-1.6C246.4,802.3,246,802,245.7,802.2L245.7,802.2z"/>
		<path class="st9" d="M248.9,793.7c0.5-0.3,0.7-0.9,0.4-1.3c-0.1-0.3-0.4-0.5-0.7-0.5c-0.5,0.1-0.8,0.6-0.7,1.2
			C248.1,793.4,248.5,793.7,248.9,793.7z"/>
		<path class="st9" d="M255.5,787.9c0.6-0.1,1-0.7,0.9-1.3s-0.7-1-1.3-0.9s-1,0.7-0.9,1.3C254.3,787.5,254.9,788,255.5,787.9
			L255.5,787.9z"/>
		<path class="st13" d="M608.4,748.5c7.1-3.6,17.1-2.4,24.7-1.3c9.4,1.4,18.9,4.5,25.5,11.7c10.6,11.5,9.2,30.7-5.6,38.2
			c-13.1,6.5-33.7,0.6-38.5-13.7l-2,3.3c0.2,0.6,0.4,1.2,0.5,1.7c0.5,2-1.4,3.9-3.3,2.5C598.4,782.5,593.7,756,608.4,748.5z"/>
		<path class="st13" d="M609.8,761.8c-4.7-0.9-9.5-0.4-14.3-0.8c-4.8-0.3-9.8-1.7-12.9-5.4c-3.1-3.7-3-10.1,1-12.6
			c4.5-2.8,10.3,0.7,14,4.4c3.7,3.8,7.7,8.4,13,8.3"/>
		<path class="st13" d="M609.6,762.7c-9.5-1.3-35.2,1.4-30.9-16.4c1.3-5.4,6.5-7.8,11.6-6.5c3.4,0.8,6.3,3,8.9,5.3
			c1.8,1.6,3.4,3.4,5.3,4.9c2.2,1.7,4.6,2.2,7,3.3c1.6,0.7,2,3.7,0,4.3c-3.7,1-6.7-0.3-9.7-2.7c-3.9-3-7.8-10.1-13-10.6
			s-7.8,4.4-5.3,8.8c1.8,3.3,5.5,4.8,9,5.5c5.7,1.2,11.7,0.5,17.5,1.5c0.7,0.1,1.2,0.7,1.1,1.5C611,762.3,610.3,762.8,609.6,762.7
			L609.6,762.7L609.6,762.7z"/>
		<path class="st13" d="M624.9,753.3c6.1-5,10.5-11.8,12.4-19.4c0.4-1.1,0.4-2.3,0-3.4c-0.6-1.1-1.7-1.9-3-2.1
			c-6.7-1.7-13,4.7-15.1,11.4c-2.1,6.6-1.7,13.9-4,20.4"/>
		<path class="st13" d="M623.2,751.9c3-3.7,6.3-6.8,8.5-11.2c0.7-1.3,3.1-6,2.7-7.2c-1.5-5.1-7.6-0.4-9.1,1.2
			c-6.8,7.4-3,18.7-8.8,26.4c-0.5,0.7-1.5,0.8-2.2,0.2c-0.3-0.3-0.5-0.6-0.5-1c-0.6-11.5,2.8-36.1,19.2-35.2
			c17.5,0.9,0.4,25.8-6.6,30C624.3,756.4,621.4,754,623.2,751.9L623.2,751.9z"/>
		<path class="st13" d="M612.4,751.1c2.3-11.7,2.6-23.7,0.9-35.5"/>
		<path class="st13" d="M611.4,751c1.5-11.7,1.4-23.5-0.2-35.1c-0.4-2.7,3.9-3.3,4.3-0.6c1.6,12,0.9,24.2-2,36
			c-0.1,0.6-0.6,0.9-1.1,0.9C611.8,752,611.4,751.5,611.4,751L611.4,751z"/>
		<path class="st13" d="M607.8,753.9c-3.7-12.6-9.6-24.3-17.4-34.8"/>
		<path class="st13" d="M607.2,754.4c-2-6.2-4.5-12.3-7.5-18.1c-3-5.7-7.4-10.9-9.8-16.8c-0.2-0.6,0.1-1.2,0.7-1.4
			c0.4-0.1,0.8-0.1,1.1,0.1c9.6,7.9,14.6,23.8,17.8,35.3C609.8,754.9,607.7,755.8,607.2,754.4L607.2,754.4z"/>
		<path class="st13" d="M590.8,718.8c1.9,0.6,3.2,2.5,3,4.5c-0.3,1.9-2.7,3.3-4.4,2.4c-0.9-0.5-1.5-1.4-1.7-2.4
			c-0.9-3.2,1.7-7.2,5-7s5.1,5.5,2.2,7.2c-3.1,1.7-7.1-2.8-5.3-5.8c1.9-3,7.4-1.9,8.1,1.6c0.7,3.5-3.4,6.8-6.7,5.6
			c-1.8-0.7-3.1-2.3-3.4-4.2c-0.3-2.6,1.4-5,3.9-5.5c2.4-0.3,4.6,1.3,4.9,3.7c0,0.2,0,0.3,0,0.5"/>
		<path class="st13" d="M591.2,717.7c2.2-0.3,4.1,1.8,4.8,3.6c0.8,2.3,0,4.9-2,6.3c-4.8,3.5-9.8-1.7-9.2-6.7c0.5-4.5,5.2-8.8,9.9-7
			c3.9,1.5,6,7,3.4,10.6c-3.1,4.2-9.1,2.2-11.1-1.9c-1.6-3.2-0.3-7.1,2.9-8.7l0,0c0.8-0.4,1.8-0.7,2.7-0.7c4.6-0.3,8.9,3.4,8.2,8.3
			c-0.7,4.5-5,7.5-9.5,6.8s-7.6-5-6.8-9.5c0.4-2.2,1.6-4.2,3.5-5.5c4.8-3.4,13.9,1,11.2,7.4c-0.6,1.5-2.4,2.3-3.9,1.6
			c-0.7-0.3-1.3-0.9-1.6-1.6c-0.4-1-1.1-3.1-2.4-1.7c-0.6,0.9-0.4,2.1,0.5,2.8c0.3,0.2,0.6,0.3,0.9,0.4c1.1,0,2.7-1.4,1.9-2.5
			c-0.4-0.6-2.1-1-2.5-0.2c-0.2,0.4,0.4,1.1,0.6,1.3s0.9,0.3,0.7,0.4c0.4-0.3-0.4-1.9-1.2-2c-1.4-0.1-2.5,2.6-1.9,3.7
			c0.4,0.7,0.9,0.4,1-0.4c0.2-1.1-1-1.9-1.3-2.9c-0.3-0.7,0.1-1.6,0.8-1.8C591,717.7,591.1,717.7,591.2,717.7L591.2,717.7z"/>
		<path class="st14" d="M616.5,712c0.3,1.4-2.5,1.3-2.7-0.2s1.1-2.6,2.3-3.4c2,1.4,2.6,4.1,1.2,6.1l0,0l-0.1,0.1l-7.1-0.9
			c-0.2-2.8,2-5.3,4.8-5.5l0,0h0.3c2.6,0.3,4.5,2.7,4.2,5.3l0,0c0,0.3-0.1,0.6-0.2,0.9c-1.2,3.1-6.3,3.4-8,0.6c-1.7-2.8,0.9-7,4.2-7
			s5.6,4.3,4,7.2"/>
		<path class="st13" d="M614.9,715.4c-1.7-0.1-3.1-1.4-3.3-3.1c-0.3-2.3,1.3-4.1,2.9-5.5c0.7-0.6,1.7-0.7,2.6-0.3
			c3.4,1.8,4.7,6,2.9,9.5c-0.2,0.3-0.3,0.6-0.5,0.9c-0.6,0.8-1.6,1.2-2.6,1.1l-7.1-0.8c-1.3-0.2-2.3-1.2-2.5-2.5
			c-0.3-5.5,4.9-10.6,10.5-8.4c4.9,2,6.7,9,2.4,12.5c-3.6,2.9-9.8,2-11.7-2.5c-1.6-4.1,0.5-8.7,4.6-10.2c0.4-0.2,0.9-0.3,1.3-0.4
			c6-1,11.3,6.7,7.2,11.6c-1.5,1.7-4.8,0.6-4.3-1.8c0.2-1.2-0.2-4.5-2.1-3.8c-1,0.3-1.7,2-0.7,2.6s2.7-0.2,2-1.5
			c-0.9-1.8-3.3-0.6-3.3,1.1l-2.5-2.5l7,1l-2.6,1.1c0.4-0.8,0.2-1.9-0.5-2.5h3.1c-0.5,0.4-0.9,0.7-1.4,1l-0.3,0.4
			c-0.5-0.6-0.5-0.8,0-0.6C618.1,712.2,617.1,715.7,614.9,715.4L614.9,715.4z"/>
		<path class="st13" d="M518.3,846.6c0.5-0.4,1.1-0.7,1.7-1c3.2-3,7.1-5.1,11.3-6.2c7.2-2,14.8-1,21.7,1.6c5,1.9,9.6,5.2,15.3,3.7
			c5.7-1.4,9.7-6.8,12.5-11.8c5.6-9.8,9.2-21.4,12-32.3c2.5-9.9,2.8-20.5,5.7-30.2c3.3-10.9,18.5-20.3,25.3-6.6
			c1.8,3.6,2.2,7.8,2,12.2c-1.2,1.1-2.3,2.3-3.2,3.6c-0.4,0.6-0.7,1.2-1.1,1.8c0,0.1-0.1,0.1-0.1,0.2c-0.3,0.5-0.5,1.1-0.8,1.7
			c-0.1,0.2-0.1,0.4-0.2,0.6c-0.2,0.5-0.4,1.1-0.5,1.6c-0.1,0.2-0.1,0.4-0.2,0.6c-0.2,0.7-0.3,1.5-0.5,2.2c0.6-0.3,1.3-0.1,1.6,0.4
			c0.2,0.3,0.2,0.6,0.1,0.9c-10.7,33.8-17.1,68.7-19,104.1c-0.5,11,0.1,23.7-12.2,28.1c-10.3,3.7-20.5-1.8-26.7-10
			c-4.4-5.8-5.2-13.8-14.7-11.1c-5.4,1.5-10.5,6.5-15.5,9.2c-8.2,4.4-17.7,5.4-24.7-1.8C492,891.8,501,858.2,518.3,846.6z"/>
		<path class="st13" d="M493.8,862.4c0.2,0,0.5,0.1,0.7,0.2c7-8.1,17.3-12.5,28-11.9c0.8,0,0.8,1.3,0,1.4c-6.5,0.3-12.8,2.6-18,6.4
			c-2.4,1.7-4.6,3.7-6.6,5.9l-0.2,0.3c1.2,1.3,1.7,3.1,1.5,4.9c-0.5,3.5-3.7,5.9-7.2,5.4s-5.9-3.7-5.4-7.2
			C487,864.4,490.2,861.9,493.8,862.4L493.8,862.4z"/>
		<path class="st15" d="M619.5,757.4c1.4,5.7-5.7,9.2-10.2,6.3c-3-1.9-2.6-6.5-0.9-9.2c1-1.5,3.1,0.2,2.2,1.7
			c-0.8,1.2-1.2,3.5-0.3,4.7c0.8,1,2.6,1,3.7,0.9c1.7-0.1,3-1.6,2.9-3.3l0,0c0-0.3-0.1-0.5-0.1-0.8
			C616.4,756,619.1,755.7,619.5,757.4L619.5,757.4z"/>
		<path class="st7" d="M608.5,767.4c3.3,0.4,5.7,3.2,5.3,6.2c-0.4,2.9-3.4,5-6.7,4.5s-5.7-3.2-5.3-6.1S605.2,767,608.5,767.4z"/>
		<g>
			<g>
				<defs>
					<path id="SVGID_1_" d="M608.4,748.5c7.1-3.6,17.1-2.4,24.7-1.3c9.4,1.4,18.9,4.5,25.5,11.7c10.6,11.5,9.2,30.7-5.6,38.2
						c-13.1,6.5-33.7,0.6-38.5-13.7l-2,3.3c0.2,0.6,0.4,1.2,0.5,1.7c0.5,2-1.4,3.9-3.3,2.5C598.4,782.5,593.7,756,608.4,748.5z"/>
				</defs>
				<clipPath id="SVGID_2_">
					<use xlink:href="#SVGID_1_"  style="overflow:visible;"/>
				</clipPath>
				<g class="st16">
					<path class="st7" d="M623.9,785.1c5-14.9,22.2-30.6,38.3-26.1c2.1,0.6,3.5,0.6,3.6,2.3c1.1-0.1,2.1,0.5,2.6,1.5
						c6.3,11.8,7,21-0.7,32.2c-6.9,10.2-21.7,19.8-34.5,16.8C620.9,808.9,620.3,795.8,623.9,785.1z"/>
				</g>
			</g>
		</g>
		<path class="st13" d="M655.8,779.5c0,0-3.2-6,0.7-5.5C658.6,774.3,657.8,779.8,655.8,779.5z"/>
		<path class="st13" d="M637.4,781.6c0,0-3.2-6,0.7-5.4c1.5,0.1,2.7,1.4,2.6,2.9c-0.1,1.5-1.4,2.7-2.9,2.6
			C637.7,781.7,637.5,781.7,637.4,781.6z"/>
		<path class="st9" d="M600.9,791.9c0.9,0.8,0.6,1.9,0.4,3c-0.2,1.4-0.6,2.8-1.1,4.1c-0.5,1-1.1,2.3-2.3,2.6c-1,0.2-2-0.5-2.2-1.5
			l0,0c-0.5-2.8,0.1-5.7,1.6-8.1c1.2-1.6,4.3-1.3,3.9,1.1c-0.1,0.7-0.8,1.1-1.5,1c-0.3-0.1-0.6-0.2-0.8-0.4s-0.2-0.3,0.1-0.1
			c0.4,0,0.4,0.1,0.1,0.4c-0.1,0.7-0.4,1.3-0.6,2c-0.1,0.3-0.7,3.1-0.4,3.3l-1-0.3c0.4-0.5,0.7-1.1,1-1.7c0.4-0.6,0.7-1.3,1-2
			c0.4-1,0.3-2.6,1.3-3.2C600.6,791.9,600.8,791.9,600.9,791.9L600.9,791.9z"/>
		<path class="st9" d="M601.2,794l-0.2,3.2c-0.2,2.8-4.9,1.7-3.8-1l1.2-2.9c0.3-0.7,1.2-1,1.9-0.7
			C600.9,792.8,601.3,793.4,601.2,794L601.2,794z"/>
		<path class="st9" d="M595.8,802.7c0.1,0.8-0.2,1.5-0.7,2.1c-1.1,1.4-3.4,0-2.7-1.6c0.4-0.7,0.6-1.4,1.5-1.6
			c0.7-0.3,1.5,0.1,1.8,0.8C595.8,802.6,595.8,802.7,595.8,802.7L595.8,802.7z"/>
		<path class="st9" d="M597.7,789.9c-1-0.1-1.7-1.1-1.6-2.1c0.1-1,1.1-1.7,2.1-1.6c1,0.1,1.7,1.1,1.6,2.1l0,0
			C599.6,789.3,598.7,790,597.7,789.9z"/>
		<path class="st9" d="M599.2,807.7c0.2,1.9-0.1,3.8-0.7,5.5c-0.6,1.4-1.7,3.8-3,4.7c-1,0.7-2.3,0.4-2.9-0.6l-0.1-0.1
			c-1-1.5-0.2-3.9,0.2-5.5c0.5-1.9,1.8-9.1,5.1-7c2.5,1.6,1.1,6.9-1.5,7.6c-0.3,0-0.6-0.1-0.8-0.4c-0.2-0.6-0.3-1.3-0.2-1.9
			c0.1-0.4,1-2.4,0.5-2.8l1.2-0.6h-0.4l1,0.3c-0.8,1.4-1.4,3-1.8,4.6c-0.2,0.8-1.2,3.4-0.8,4.1l-1-0.6c-0.4,0.3-0.5,0.2-0.1-0.1
			c0.3-0.4,0.6-0.9,0.8-1.3c0.4-0.7,0.7-1.4,1-2.1c0.7-1.4,1.5-2.6,2.2-4C598.3,807.1,599.3,807.1,599.2,807.7L599.2,807.7z"/>
		<path class="st9" d="M604.2,800.7c0.5,1.9-0.1,3.9-1.4,5.3c-1.7,1.7-3.8,0.3-3.7-1.9c0.1-1.6,0.7-4.2,2.3-5
			c0.8-0.4,1.7-0.1,2.2,0.6c0.5,0.8,0.5,1.7,0.1,2.5c-0.6,1.5-2.7,0.5-2.3-1l0.1,0.1l1,0.3c0.4,0,0.1,0,0,0.3s-0.2,0.7-0.3,1
			s-0.1,0.5-0.1,0.8c0,0.1,0,0.3,0,0.4c0.1,0.4-0.1,0.3-0.5-0.4h-1.2c0.3-0.4,0.5-0.8,0.7-1.3c0.3-0.5,0.5-1.1,0.5-1.7
			c0.1-0.7,0.8-1.1,1.5-1C603.6,799.7,604,800.1,604.2,800.7L604.2,800.7z"/>
		<path class="st9" d="M590.5,814.8c-0.1,1.3,0.8,4.4-1.3,4.6c-0.5,0-0.9-0.3-1-0.8c-0.2-1.5,0.3-2.9,1.2-4c0.3-0.4,1-0.5,1.4-0.2
			c0.3,0.2,0.4,0.6,0.4,0.9c0,1.2-0.1,2.8-1.1,3.6c-0.3,0.2-0.7,0.2-0.9-0.1l0,0c-0.1-0.1-0.1-0.2-0.1-0.3c-0.2-1,0.2-2.1,0.1-3.2
			l1.8,0.5c-0.5,0.9-0.8,1.8-1,2.8c-0.2-0.3-0.4-0.6-0.5-1l0.2,0.1H589c0.7-0.2,1.3-2.3,1.3-2.9
			C590.3,814.6,590.6,814.6,590.5,814.8L590.5,814.8z"/>
		<path class="st9" d="M507.5,872c1,2.1,0.8,6.4-0.5,8.4c-1.1,1.7-3.7,1.8-4.4-0.2s-0.3-5.5,0.3-7.7c0.7-2.7,2.3-5,4.5-6.7
			c0.7-0.5,1.8-0.4,2.3,0.4c0.2,0.3,0.3,0.8,0.3,1.2c-0.3,2.4-0.8,4.9-1.5,7.2c-0.6,2.2-1.1,4.4-2.7,6c-0.5,0.4-1.3,0.3-1.7-0.2l0,0
			c-0.1-0.2-0.2-0.4-0.3-0.6c-0.1-2,0.8-3.6,1.4-5.5c0.7-2.4,1.2-4.9,1.6-7.3l2.6,1.5c-2.5,1.9-3.6,4.9-3.8,8c0,0.8,0.5,1.8-0.6,1.8
			s0-1.1,0.3-1.8c0.7-1.5,1-3.1,2.1-4.4C507.4,871.9,507.4,871.9,507.5,872L507.5,872L507.5,872L507.5,872z"/>
		<path class="st9" d="M510.2,862.5c-0.4,1-1.5,1.6-2.6,1.2c-0.4-0.1-0.6-0.5-0.5-0.9c0.3-1.7,2.1-5.7,4.5-4
			c2.3,1.7-0.7,4.5-2.3,5.3c-1.3,0.7-2.6-1.5-1.3-2.3c0.4-0.2,0.7-0.4,0.9-0.7c0.2-0.2,0.3-0.7,0.5-0.9c1.1,0.5,1.3,0.8,0.7,1.2
			c-0.2,0.2-0.4,0.3-0.6,0.5c-0.3,0.4-0.6,0.8-0.8,1.3l-0.4-1.1c0.2,0.2,0.6,0.1,0.8-0.1l0.1-0.1
			C509.6,861.2,510.4,861.8,510.2,862.5L510.2,862.5z"/>
		<path class="st9" d="M505.4,885.4c0.4,1.2,0.4,2.5,0,3.7c-0.5,1.6-2.6,1.1-3.2,0c-1-1.7-0.6-4.1,1.6-4.4c0.3,0,0.5,0.2,0.6,0.4
			c0.1,0.3,0.2,0.7,0.3,1c0.1,0.3,0,0.7,0.3,0.9l-2.8,1.1c0.1-0.9,0.2-1.9,0.4-2.8C502.7,883.6,505,883.9,505.4,885.4z"/>
		<path class="st9" d="M512.7,866.2c-0.3,0-0.6-0.4-0.5-0.7c0-0.3,0.4-0.6,0.7-0.5l0,0c0.3,0,0.6,0.4,0.5,0.7l0,0
			C513.4,866,513.1,866.2,512.7,866.2L512.7,866.2L512.7,866.2z"/>
		<path class="st9" d="M507.1,885.2c-0.9,0-1.5-0.8-1.5-1.6c0-0.9,0.8-1.5,1.6-1.5c0.9,0,1.5,0.8,1.5,1.6c0,0.1,0,0.2,0,0.3
			C508.5,884.7,507.8,885.2,507.1,885.2z"/>
		<path class="st17" d="M496.2,768.4c-0.6-2.5-3.1-4.1-5.7-3.6c-4.3,0.6-7.9,3.5-10.4,7c-2.8,4-3.6,9.2-4,13.9
			c-0.1,2.6,1.9,4.8,4.5,4.9c2.6,0.1,4.8-1.9,4.9-4.5c0.1-2.9,0.8-5.7,2-8.4c0.5-1.1,1.4-2.1,2.4-2.8c-0.5,0.4,0.9-0.5,1-0.6
			l0.2-0.1c0.5-0.1,0.9-0.2,1.4-0.3C495.2,773.7,496.8,770.8,496.2,768.4z"/>
		<path class="st7" d="M446.5,766.4c0.2-2.9-1.1-5.7-3.5-7.3c1.6-1.5,2.6-3.5,2.8-5.7c0.2-3-1.4-5.1-3.6-6.6c2.2-1.3,3.8-3.5,4.2-6
			c0.4-3-0.9-6-3.3-7.7c2.1-1.8,3.2-4.6,2.8-7.4c-0.9-5.6-6.4-8.7-11.8-7.4c-0.9,0-1.7,0.7-1.7,1.6l0,0v0.1
			c-0.2,19-0.1,38.1,0.2,57.1c0,2.2,0,4.4,0.1,6.5c0.1,2.2,1.6,3,3.5,3.3c3.3,0.5,6.6-1.8,8.2-4.5c1.8-3.1,1.2-7.1-1.4-9.6
			C444.9,771.3,446.2,769,446.5,766.4z"/>
		<path class="st7" d="M438.3,778.1v-8.8c0.3-5.6,0.3-11.3,0.3-17s0.1-11.3,0.6-17v-8.1c-0.4-2.9-0.2-6.4-3.1-8.1
			c-2.1-1.3-4.5-1.3-6.9-1.3c-2.5,0-5.1,0.1-7.6,0.4c-4.5,0.5-8.9,1.4-13.2,2.9c-8.9,2.9-17.1,7.8-24,14.2
			c-13.8,13.1-21.1,31.7-19.9,50.7c0.1,2.2,1.5,4.1,3.9,4.2c1,0.1,1.9-0.5,2.4-1.4h0.2l33.8,1h25c3.3-0.3,6.7-0.3,8.2-3.9
			C438.9,783.6,438.4,780.5,438.3,778.1z"/>
		<path class="st7" d="M412.7,855.8c-0.2,6-5.3,10.7-11.3,10.4s-10.7-5.3-10.4-11.3c0.2-6,5.3-10.7,11.3-10.4l0,0l0,0
			C408.3,844.8,413,849.8,412.7,855.8z"/>
		<path class="st7" d="M461.2,857.9c-0.3,6-5.3,10.6-11.3,10.4c-6-0.3-10.7-5.3-10.4-11.3c0.3-6,5.3-10.6,11.3-10.4
			C456.8,846.8,461.4,851.9,461.2,857.9C461.2,857.8,461.2,857.8,461.2,857.9z"/>
		<path class="st7" d="M493.3,791.1c-0.4-3.6-4-5.4-7.1-5.9c-36.9-5.7-74.3-7.2-111.5-4.4c-4.2,0.3-7.8,2.8-8,7.3c0,0.1,0,0.1,0,0.2
			c0,0.1-0.1,0.3-0.1,0.4c-2.8,9.9-0.9,20.4,4.2,29.2c5.5,9.4,14.1,15.6,23.8,20.2c9.1,4.3,19.3,6.4,29.2,7.5
			c10.1,1.3,20.3,0.7,30.1-1.8c11.9-3.1,22.5-10,30.2-19.7C491.3,814.7,494.7,802.8,493.3,791.1z"/>
		<path class="st13" d="M486.6,781.7c-37.3-2.2-74.6-3.9-112-5.1c-5.7-0.3-10.6,4.1-10.9,9.8s4.1,10.6,9.8,10.9h0.2
			c37.4,1.2,74.7,2.9,112,5.1c7.3,0.3,13.2-7,9.8-14.9C494,783.9,490.4,781.7,486.6,781.7L486.6,781.7z"/>
		<path class="st17" d="M403.3,835.3c-10.6-0.4-19.5,7.8-19.9,18.3c0,0,0,0,0,0.1l0,0c-0.4,10.6,6.2,20.3,18.3,21
			c10.6,0.6,19.6-5.8,20-19.3C422,844.7,413.8,835.8,403.3,835.3z M402.4,863c-4-0.2-7.2-3.6-7-7.6s3.6-7.2,7.6-7s7.2,3.6,7,7.6l0,0
			l0,0C409.8,860,406.4,863.1,402.4,863z"/>
		<path class="st1" d="M416.5,845.1c-3-4.3-7.9-6.8-13.2-6.8c-2.4,0-2.6,3.7-0.2,3.7c4.1-0.1,8,1.9,10.3,5.2
			c2.5,3.7,2.2,8.1,1.4,12.3c-0.4,2.3,3.1,3.5,3.6,1.1C419.5,855.3,419.7,849.9,416.5,845.1z"/>
		<path class="st17" d="M450.6,837.3c-10.6-0.5-19.5,7.7-20,18.3l0,0l0,0c-0.4,10.6,6.2,20.3,18.3,21c10.6,0.6,19.6-5.8,20-19.3
			C469.2,846.7,461.1,837.8,450.6,837.3z M449.7,865c-4-0.2-7.2-3.6-7-7.6s3.6-7.2,7.6-7s7.2,3.6,7,7.6l0,0l0,0
			C457.2,862,453.7,865.1,449.7,865L449.7,865L449.7,865z"/>
		<path class="st1" d="M463.8,847.1c-3-4.3-7.9-6.8-13.2-6.8c-2.4,0-2.6,3.7-0.2,3.7c4.1-0.1,8,1.9,10.3,5.2
			c2.5,3.7,2.2,8.1,1.4,12.3c-0.4,2.3,3.1,3.5,3.6,1.1C466.7,857.3,467,851.9,463.8,847.1z"/>
		<path class="st7" d="M203.6,832.3l15-6.9c0.1,0,0.1-0.1,0.2-0.1c0.2-0.2,0.3-0.3,0.4-0.5l0.1-0.2c0,0,0.1-0.1,0.1-0.2
			c0.2-0.3,0.3-0.6,0.5-0.9c0.2-0.4,0.2-0.4,0.1-0.1c3.2-8.2-0.2-18.6-3-26.5c-2.3-6.5-2.3-6.9-8.6-7.3c-4.6-0.3-9.2-0.4-13.9-0.6
			c-8.7-0.4-17.2-1.8-25.8,0.8c-0.3,0.1-0.4,0.4-0.4,0.6c0.6,2.4,2,10.7-2.3,18.4c-3.1,5.6-8.5,9.6-15.9,11.9l-0.5,0.1l0,0
			c-12,3.4-20.1-1-24.7-5.3c-2.9-2.8-5.3-6-6.9-9.7c-0.1-0.3-0.4-0.4-0.7-0.3c-4.2,1.2-8.4,2.7-12.3,4.7c-4.1,2.2-7.3,5.6-11,8.5
			c-4.9,3.9-13.5,7.2-16.3,13.2c-2,4.2,2.3,9.6,4.3,13.5c3,6.1,5.6,12.9,9.5,18.5c0.2,0.3,0.4,0.6,0.6,0.8c0.1,0.2,0.3,0.3,0.6,0.2
			l17.4-3.9c-0.1,0.1-0.1,0.2-0.2,0.3s-0.1,0.3,0,0.4c0.5,2.2,5.2,20.4,10.3,35.3c2.5,7.3,5.2,13.8,7.3,18.6
			c2.1,4.9,6.6,8.3,11.9,9.1c4.8,0.7,9.4,2.1,13.8,4.3c8,4.2,14.7,13.1,16,14.9c0.1,0.2,0.4,0.3,0.6,0.2l32.1-9.9
			c0.2-0.1,0.4-0.3,0.4-0.5c0.4-7.7,2.3-15.2,5.7-22.1c2.4-4.3,5.5-8.3,9-11.8c3.7-3.8,5.2-9.1,4-14.2c-1.4-6.2-3.6-14.9-6.2-23.4
			c-3.4-11.2-4.3-14-10.7-29.4c0-0.1-0.1-0.2-0.2-0.3L203.6,832.3z"/>
		<path class="st13" d="M173.8,933.3c-1.5,0.5-2.4,2.1-1.9,3.6s2.1,2.4,3.6,1.9s2.4-2.1,1.9-3.6
			C176.9,933.7,175.3,932.8,173.8,933.3z"/>
		<path class="st13" d="M192.1,927.7c-1.5,0.5-2.4,2.1-1.9,3.6s2.1,2.4,3.6,1.9s2.4-2.1,1.9-3.6l0,0l0,0
			C195.2,928.1,193.6,927.2,192.1,927.7z"/>
		<path class="st13" d="M166.4,790.2c-0.9,0.3-1.4,1.1-1.3,2c0.5,2.9,1.1,9.3-2.2,15.2c-2.8,5-7.8,8.6-15,10.7l0,0
			c-17.3,4.8-25.4-7.9-27.7-12.3c-0.4-0.8-1.4-1.2-2.3-0.9l-4.3,1.7l0,0c1.9,4.4,4.6,8.3,8.1,11.5c5.2,4.8,14.2,9.8,27.7,6.2l0,0
			l1-0.3c8.5-2.6,14.6-7.2,18.1-13.5c5.3-9.6,2.8-19.9,2.4-21.5v-0.2L166.4,790.2z M114.2,806.5l0.1,0.3L114.2,806.5z M120.1,815.7
			c1.1,1.2,2.3,2.3,3.5,3.4C122.4,818,121.2,816.9,120.1,815.7z M144.4,824.3c1.6-0.2,3.1-0.6,4.6-1
			C147.5,823.7,146,824.1,144.4,824.3L144.4,824.3z"/>
		<path class="st13" d="M175.9,840.2c-2.3-0.3-4.6-0.1-6.8,0.5c-6,1.8-9.1,7.7-9.8,13.6c0,0.2,0,0.5-0.1,0.7
			c0.1-0.9-3.2-3.2-3.8-3.6c-2.2-1.7-4.8-2.8-7.5-3.2c-6.3-0.7-13.2,4.1-15.5,9.9c-4.8,12,8.2,21.1,17.2,26.2
			c7.3,4.1,18.4,6.4,19.8,6.9v0.2l0.9,0.3h0.1V891c1.6-1.6,9.5-9.7,13.2-17.2c2.9-5.9,5.7-12.6,5.5-19.4
			C188.8,846.8,183.5,841.2,175.9,840.2z"/>
		<path class="st13" d="M713,839.7c-0.9-4-2.9-7.8-5.6-10.9c-3.4-3.5-7.5-6.1-12.1-7.7c-6.6-2.5-14.3-3.4-21.1-1.2
			c-7,2-12.7,7.1-15.6,13.7c-2.8,6.7-1.1,14.4,1.7,20.8c0.7,1.5,1.5,2.9,2.2,4.3c0.4,0.7,0.8,1.5,1.1,2.3c0-0.1,0.2,1.6,0.2,1.2
			c0.1,1.4-0.2,2.7-0.7,4c-0.6,1.7-1.3,3.3-2.1,4.9c-0.5,1.2-0.4,2.7,0.5,3.8c-0.4,1.6,0.3,3.3,1.7,4.2c4.6,2.4,9.5,4.2,14.6,5.2
			c2.5,0.6,5.1,0.2,7.2-1.2c2-1.3,3-4.3,3.9-6.3c0.4-0.9,0.8-1.8,1.1-2.8c0.3-0.7,0.6-1.4,1-2.1c0.8-1.5,2.1-2.7,3.6-3.3
			c1.7-0.8,3.6-1.4,5.3-2.1c2-0.9,3.9-2.2,5.6-3.6C711.9,857,714.8,848.2,713,839.7z"/>
		<path class="st18" d="M680.3,886.8c-2.7-1.8-6.4-1.1-8.2,1.6s-1.1,6.4,1.6,8.2c0.1,0.1,0.2,0.1,0.3,0.2l0.1,0.1l0.5,0.3l0.3,0.3
			c0.3,0.2,0.5,0.5,0.7,0.8l0,0c0.4,0.6,0.7,1.2,1,1.8c0.1,0.4,0.3,0.9,0.4,1.3c0.1,0.4,0.1,0.7,0.2,1.1v0.1c0.1,0.9,0.1,1.7,0,2.6
			c0,0.4,0,0.8-0.1,1.3v0.1c-0.8,4.7-2.9,9.9-7.3,12.4c-5.2,3-12.2,1-17.1-1.7c-4.9-2.7-8.1-8.2-7.5-13.8c0.5-4.3,3.2-8,7.1-9.9
			c0.2-0.1,0.5-0.2,0.8-0.3c0.4-0.1,0.7-0.2,1.1-0.3c0.4-0.1,0.9-0.2,1.4-0.3l0.6-0.1c0.6,0,1.2,0,1.7,0h0.6c3.2,0.6,6.3-0.7,7.3-4
			c0.8-2.9-0.9-6.7-4-7.3c-7.4-1.4-15.1,0.7-20.7,5.9c-9.6,8.6-11.7,26-1.7,35c7.8,7,19.5,11.6,30,9.6
			C687.9,928.3,697.2,897.9,680.3,886.8z"/>
		<path class="st7" d="M713.5,890.3c0.3-3.5-2.3-5.8-5.5-6.3c-1.9-0.3-3.8-0.7-5.7-1.1l0.6,0.3c-9.1-2.5-18.3-4.7-27.1-8.1
			c-5.8-2.2-11.4-4.7-17-7.5l-1.6-0.8l-1.5-0.8c-1.4-0.7-2.7-1.5-4.1-2.2c-2.8-1.6-5.6-3.2-8.4-5c-2.7-1.8-6.3-1.2-8.2,1.4
			c-1.8,2.5-1.3,6.5,1.4,8.2c6.3,4,12.8,7.5,19.5,10.8c-0.3,0.5-0.6,1-0.7,1.5l-1,4.3c-0.6,2.5-0.2,5.4,2.2,6.8
			c4.2,2.6,8.7,4.7,13.4,6.2c1.7,0.5,3.5,1.2,5.3,0.8c1.8-0.5,3.4-1.5,4.5-2.9c1.6-1.7,3-3.6,4-5.7c7.7,2.4,15.5,4.2,23.5,5.5
			C710.3,896.4,713.3,893.3,713.5,890.3z"/>
		<path class="st1" d="M478.9,817c-3,1.6-5,4.5-5.5,7.8c-0.1,1,0.1,2.4,1.1,2.7c0.5,0.1,1.1,0,1.6-0.3c3.4-1.8,5.7-5,6.3-8.8
			c0.1-0.8,0.1-1.8-0.7-2.2c-0.7-0.2-1.6,0-2.1,0.6c-1.6,1.3-2.7,3-3.2,5"/>
		<path class="st1" d="M478.2,816.5c-3.2,1.6-6.7,5.7-6.1,9.6c0.8,4.5,5.9,0.8,7.5-1s5.3-7.6,2.3-9.8c-3-2.1-6.8,3.7-6.5,6.3
			c0,0.3,0.3,0.5,0.5,0.5l0,0c0.1,0,0.2-0.1,0.3-0.1c0.5-0.6,1-1.3,1.4-2c0.3-0.5,1.6-2.7,2.5-2.8c2.3-0.1-1.3,6-1.8,6.6
			c-0.7,0.9-1.6,1.7-2.6,2.2c-0.7,0.3-1.6,0-2-0.7c-0.2-0.5,0.1-1.4,0.3-2c0.7-2.5,2.4-4.7,4.7-6c0.2-0.1,0.3-0.4,0.2-0.7
			c-0.1-0.2-0.4-0.3-0.7-0.2L478.2,816.5L478.2,816.5z"/>
		<path class="st1" d="M486,815c0.7,0,1.2-0.5,1.2-1.2l0,0c0-0.7-0.5-1.2-1.2-1.2s-1.2,0.5-1.2,1.2C484.8,814.4,485.4,815,486,815
			L486,815z"/>
		<path class="st1" d="M471,830.7c-1,0.6-1.8,1.3-2.6,2.2c-0.3,0.4-0.7,1-0.5,1.5c0.2,0.4,0.6,0.6,1,0.6s0.8-0.1,1.2-0.3
			c0.7-0.3,1.4-0.6,2-1.1c0.6-0.4,1.1-1.1,1.2-1.9c0.1-0.5,0-0.9-0.4-1.3C472.4,830,471.5,830.4,471,830.7c-1,0.9-1.9,1.8-2.6,2.8"
			/>
		<path class="st1" d="M470.4,830.5c-1.4,0.7-4.7,2.9-2.9,4.8c1.5,1.5,4.5-0.3,5.7-1.4c1.1-1.1,1.9-4.2-0.5-4.5
			c-2.1-0.3-4.2,2.3-4.7,4.1c-0.1,0.3,0.3,0.7,0.7,0.5c0.8-0.6,1.5-1.2,2.2-1.9c0.4-0.3,0.9-0.9,1.4-0.7s-0.1,1.1-0.5,1.4
			c-0.4,0.3-0.9,0.6-1.4,0.8c-0.2,0.1-1.2,0.6-1.4,0.5c-0.5-0.3,1.8-2.4,2.1-2.7C471.4,831,470.9,830.3,470.4,830.5L470.4,830.5z"/>
		<path class="st1" d="M483.5,807.8c-0.9,1.1-1.5,2.4-1.8,3.8c-0.2,0.4-0.1,0.8,0.1,1.2c0.4,0.5,1.2,0.2,1.7-0.2
			c1.2-1.1,1.8-2.6,1.7-4.2c0-0.2-0.1-0.5-0.2-0.6c-0.2-0.1-0.4-0.1-0.6,0c-0.8,0.3-1.5,0.9-1.9,1.7s-0.8,1.6-1,2.4
			c-0.1,0.2-0.1,0.4,0,0.6c0.1,0.2,0.4,0.2,0.5,0"/>
		<path class="st1" d="M483.2,807.4c-1,0.7-1.7,1.7-2.1,2.9c-0.4,1-1.1,2.3-0.3,3.3c1.9,2.2,4.7-1.8,5.1-3.4c0.3-1,0.5-2.7-0.4-3.4
			s-2.4,0-3.2,0.7c-1.1,1-3.8,5.9-0.9,6.1c0.9,0.1,1.1-1.4,0.2-1.6c0.4,0,0.3-0.1,0.4-0.5s0.3-0.7,0.4-1.1c0.2-0.6,0.6-1.1,1-1.5
			c0.3-0.2,0.7-0.4,1-0.6l-0.2-0.2v0.4c-0.1,0.7-0.3,1.3-0.5,2c-0.2,0.6-0.6,1.1-1,1.5c-0.7,0.7-0.6-0.2-0.5-0.8
			c0.2-1.3,0.6-2.5,1.2-3.6C483.4,807.5,483.4,807.3,483.2,807.4L483.2,807.4z"/>
		<path class="st1" d="M637.8,894.8c-2.2,2-2.9,5.2-1.7,7.9c2-2.3,3.1-5.3,2.9-8.3"/>
		<path class="st1" d="M637.5,894.2c-1.5,0.9-2.7,2.2-3.4,3.8c-0.7,1.8-0.2,3.9,0.5,5.6c0.5,0.9,1.6,1.2,2.5,0.6l0,0
			c0.1-0.1,0.3-0.2,0.4-0.3c2.4-2.7,3.4-6.4,2.8-9.9c-0.2-1.4-2.3-0.9-2.4,0.3c-0.3,2.6-1.3,5-3,7l2.8,0.4c-0.8-2.2-0.5-4.6,0.7-6.6
			C638.9,894.5,638.1,893.8,637.5,894.2L637.5,894.2z"/>
		<path class="st1" d="M639.9,889l-0.3,0.2c-0.9,0.6-1.2,1.9-0.5,2.8l0,0c0.1,0.2,0.3,0.4,0.5,0.5l0.3,0.2c1,0.6,2.3,0.2,2.9-0.8
			c0.6-1,0.2-2.3-0.8-2.9C641.4,888.6,640.6,888.6,639.9,889z"/>
		<path class="st1" d="M639.1,908.7c1,0,1.8-0.8,1.8-1.8s-0.8-1.8-1.8-1.8s-1.8,0.8-1.8,1.8S638.1,908.7,639.1,908.7L639.1,908.7z"
			/>
		<path class="st1" d="M193.1,829.3c2.5,14.6,7.4,33.2,15.8,45.7c0.2,0.5,0.8,0.7,1.3,0.5s0.7-0.8,0.5-1.3
			c-1.7-7.7-5.6-15.1-8.3-22.5s-5.1-15.2-8.1-22.7c-0.1-0.3-0.5-0.5-0.8-0.3C193.2,828.7,193,829,193.1,829.3L193.1,829.3z"/>
		<path class="st1" d="M179.3,793.8c6.7,0.3,14.5,1.6,21.1-0.2c0.6,0,1-0.4,1-1s-0.4-1-1-1c-6.6-1.8-14.3-0.5-21.1-0.2
			c-0.7,0-1.2,0.5-1.2,1.2S178.7,793.8,179.3,793.8L179.3,793.8L179.3,793.8z"/>
		<path class="st9" d="M703.3,836.4c1.5,0.5,1.9,2.4,2.1,4s0.8,3.5,2.4,3.7c1.3,0.1,2.4-0.8,2.6-2.1c0.2-1.2,0-2.5-0.5-3.6
			c-0.8-1.9-2-3.7-3.4-5.2c-0.5-0.7-1.3-1.1-2.1-1.1c-1.4,0.2-1.6,2.2-1.3,3.6c0.7,2.7,2,5.2,3.8,7.4"/>
		<path class="st9" d="M703,836.7c2.7,1.4,1.2,9.7,5.9,8.4c4.4-1.2,1.7-7.2,0.2-9.6c-1.2-2-5-6.7-7-2.7c-1.6,3.3,1.5,9.8,4.3,11.7
			c0.6,0.4,1.7-0.3,1.4-1.1c-1-2.3-2.8-4.2-3.6-6.6c-0.3-0.7-0.5-1.4-0.5-2.1c0-0.3,0-0.6,0.1-0.9h2.1c1.1,0.4,2.3,2.8,2.9,3.8
			c0.4,0.7,0.7,1.4,1,2.1c0.6,2,0.7,2-1.5,2.8s-2,0.8-2.5-1.1c-0.1-0.4-0.1-0.8-0.2-1.3c-0.3-1.6-0.8-3-2.3-3.7
			C702.9,836.1,702.6,836.5,703,836.7L703,836.7z"/>
		<path class="st9" d="M711.9,844.6c0,0.4,0,0.8,0,1.2c0,0.2,0.1,0.4,0.2,0.6c0.1,0.2,0.3,0.3,0.5,0.2c0.1-0.1,0.2-0.1,0.2-0.2
			c0.3-0.6,0.2-1.3-0.2-1.8c-0.1-0.1-0.2-0.2-0.3-0.2C712.1,844.4,712,844.5,711.9,844.6c-0.1,0.1-0.1,0.3-0.1,0.4
			c0,0.4,0.2,0.9,0.4,1.2"/>
		<path class="st9" d="M711.9,844.7c-0.3,0.6-0.5,2.1,0.4,2.3s1.2-0.9,1.2-1.5s-0.6-2.1-1.6-1.5c-0.9,0.6-0.3,2,0.2,2.6
			c0.2,0.3,0.8,0,0.6-0.4c-0.1-0.2-0.2-0.4-0.2-0.6c-0.1-0.7-0.1-0.7,0,0.2C712.3,846.3,712.1,844.9,711.9,844.7L711.9,844.7
			L711.9,844.7z"/>
		<path class="st9" d="M697.7,830.3c0.2,1,0.9,1.9,1.8,2.5c0.2,0.2,0.5,0.3,0.8,0.3s0.6-0.1,0.8-0.3c0.2-0.3,0.2-0.7,0.1-1
			c-0.1-0.6-0.5-1.2-0.9-1.6c-0.5-0.4-1.2-0.6-1.8-0.5c-0.2,0-0.4,0.1-0.5,0.3c-0.1,0.3,0,0.6,0.2,0.8c0.2,0.3,0.4,0.7,0.6,1"/>
		<path class="st9" d="M697.7,830.3c-0.3,1.2,0.8,2.6,1.9,3.1c1.4,0.6,2.4-0.5,2-1.9c-0.3-1.5-1.7-2.5-3.2-2.3
			c-1.7,0.4-0.8,2.2,0.2,2.8c0.1,0,0.2,0,0.3-0.1l0,0v-0.1c0-0.4-0.6-1.5-0.2-1.7c0.7-0.4,1.9,1.1,1.9,1.7c0.1,1.6-1.4,0.4-1.9-0.1
			C698.3,831.2,698.1,830.6,697.7,830.3L697.7,830.3L697.7,830.3z"/>
		<path class="st9" d="M703.9,828.9c-0.2,0.4,0.1,0.8,0.3,1.1c0.7,0.7,1.5,1.3,2.5,1.6c0.1,0.1,0.2,0.1,0.4,0s0.2-0.3,0.2-0.5
			c-0.1-0.7-0.4-1.4-1.1-1.9c-0.5-0.3-1-0.4-1.5-0.5c-0.2,0-0.4,0-0.6,0.1c-0.2,0.1-0.3,0.3-0.2,0.5"/>
		<path class="st9" d="M703.8,828.8c-1.4,1.1,2.8,4.3,3.7,2.9c0.6-0.9-0.3-2.2-1-2.8c-0.7-0.5-2.1-1-2.9-0.2
			c-0.1,0.1-0.1,0.2-0.1,0.4c0,0.1,0,0.2,0.1,0.3c0,0.2,0.2,0.3,0.3,0.2l0,0c0.1,0,0.1-0.1,0.2-0.1c0.1-0.2,0.8-0.2,1.1-0.1
			c0.3,0.1,0.5,0.2,0.7,0.3c0.3,0.2,1.3,1.4,0.5,1.3c-0.4,0-0.8-0.5-1.1-0.7c-0.6-0.3-1.1-0.8-1.4-1.4
			C703.9,828.8,703.9,828.8,703.8,828.8L703.8,828.8L703.8,828.8L703.8,828.8z"/>
		<path class="st9" d="M710.2,834.7v-0.2c-0.2-0.4-1.1-0.4-1,0v0.1c0.1,0.1,0.2,0.2,0.4,0.2c0.1,0,0.1-0.1,0.2,0L710.2,834.7z"/>
		<path class="st9" d="M709.5,848.3c0.7,0,1.3-0.6,1.3-1.3s-0.6-1.3-1.3-1.3s-1.3,0.6-1.3,1.3S708.8,848.3,709.5,848.3L709.5,848.3z
			"/>
		<path class="st13" d="M0.4,943.8c0,0,350.9-156,799.8,0.6v56.6H0.4V943.8z"/>
		<path class="st9" d="M797.2,953.8c-0.3,0-0.7-0.1-1-0.2l-4.9-1.7c-1.1-0.3-1.8-1.4-1.5-2.6c0-0.1,0.1-0.2,0.1-0.3
			c0.7-1.2,2.2-1.7,3.5-1.2l4.9,1.7c1.1,0.3,1.8,1.4,1.5,2.6c0,0.1-0.1,0.2-0.1,0.3C799.2,953.3,798.2,953.8,797.2,953.8z
			 M2.8,953.6c-1,0-1.9-0.5-2.4-1.3c-0.5-1-0.1-2.2,0.9-2.8c0.1-0.1,0.3-0.1,0.4-0.2c1.5-0.6,3.1-1.2,4.8-1.9
			c1.3-0.5,2.8-0.1,3.5,1.1c0.5,1,0.1,2.2-0.8,2.8c-0.1,0.1-0.3,0.1-0.4,0.2c-1.7,0.7-3.3,1.3-4.8,1.9
			C3.6,953.5,3.2,953.6,2.8,953.6z M782.5,948.6c-0.3,0-0.7-0.1-1-0.2l-4.9-1.7c-1.1-0.3-1.9-1.4-1.6-2.6c0-0.1,0.1-0.2,0.1-0.3
			c0.7-1.2,2.1-1.7,3.4-1.3l4.9,1.7c1.1,0.3,1.8,1.4,1.6,2.6l0,0c0,0.1-0.1,0.2-0.1,0.3C784.5,948,783.5,948.6,782.5,948.6
			L782.5,948.6z M17.2,947.6c-1,0-1.9-0.5-2.4-1.3c-0.5-1.1-0.1-2.3,1-2.8c0.1-0.1,0.2-0.1,0.3-0.1l4.9-1.8c1.3-0.5,2.8,0,3.5,1.2
			c0.5,1.1,0.1,2.3-1,2.8c-0.1,0.1-0.3,0.1-0.4,0.1l-4.8,1.8C17.9,947.5,17.6,947.5,17.2,947.6L17.2,947.6z M767.7,943.6
			c-0.3,0-0.7,0-1-0.1l-4.8-1.6c-1.2-0.3-1.9-1.4-1.6-2.6l0,0c0-0.1,0.1-0.2,0.1-0.3c0.7-1.2,2.1-1.8,3.4-1.3l5,1.6
			c1.2,0.3,1.9,1.4,1.6,2.6l0,0c0,0.1-0.1,0.2-0.1,0.3C769.8,943.1,768.8,943.6,767.7,943.6L767.7,943.6z M31.9,942.6
			c-1,0-2-0.5-2.4-1.4c-0.5-1.1,0-2.3,1.1-2.8l0.3-0.1l4.9-1.7c1.3-0.5,2.8,0,3.4,1.2c0.4,1.1-0.1,2.3-1.1,2.8
			c-0.1,0-0.2,0.1-0.3,0.1l-4.9,1.7C32.5,942.5,32.2,942.5,31.9,942.6L31.9,942.6z M752.9,938.9c-0.3,0-0.6,0-0.9-0.1l-5-1.5
			c-1.2-0.2-1.9-1.4-1.7-2.6c0-0.1,0-0.2,0.1-0.3c0.7-1.2,2.1-1.8,3.4-1.3l5,1.5c1.2,0.3,1.9,1.4,1.6,2.6c0,0.1,0,0.2-0.1,0.3
			C754.9,938.3,753.9,938.9,752.9,938.9z M46.7,937.7c-1,0-2-0.5-2.5-1.4c-0.4-1.1,0.1-2.3,1.2-2.8l0,0l0.3-0.1
			c1.6-0.5,3.3-1.1,5-1.6c1.3-0.4,2.7,0.1,3.4,1.3c0.4,1.1-0.1,2.3-1.2,2.8c-0.1,0-0.2,0.1-0.3,0.1l-5,1.6
			C47.3,937.7,47,937.7,46.7,937.7L46.7,937.7z M737.9,934.3c-0.3,0-0.6,0-0.9-0.1l-5-1.5c-1.2-0.2-1.9-1.4-1.7-2.5
			c0-0.1,0-0.2,0.1-0.3c0.6-1.2,2.1-1.8,3.4-1.4l5,1.5c1.2,0.2,1.9,1.4,1.7,2.5c0,0.1,0,0.2-0.1,0.3
			C739.9,933.7,738.9,934.3,737.9,934.3z M61.6,933c-1,0-2-0.5-2.5-1.5c-0.4-1.1,0.2-2.4,1.3-2.8l0.3-0.1l5-1.5
			c1.3-0.5,2.8,0.1,3.4,1.3c0.4,1.1-0.2,2.4-1.3,2.8l-0.3,0.1l-5,1.5C62.2,932.9,61.9,933,61.6,933z M722.9,929.9
			c-0.3,0-0.6,0-0.8-0.1l-5-1.4c-1.2-0.2-2-1.4-1.7-2.5l0,0c0-0.1,0-0.2,0.1-0.3c0.6-1.2,2-1.8,3.3-1.4l5,1.4c1.2,0.2,2,1.4,1.7,2.5
			c0,0.1,0,0.2-0.1,0.3C724.9,929.3,723.9,929.9,722.9,929.9z M76.6,928.5c-1.1,0.1-2-0.5-2.5-1.5c-0.4-1.1,0.2-2.4,1.3-2.8l0,0
			l0.3-0.1l5-1.4c1.3-0.4,2.8,0.2,3.4,1.4c0.4,1.1-0.2,2.4-1.4,2.7c-0.1,0-0.2,0.1-0.3,0.1l-5,1.4C77.2,928.4,76.9,928.5,76.6,928.5
			z M707.8,925.7c-0.3,0-0.6,0-0.8-0.1l-5-1.4c-1.2-0.2-2-1.3-1.8-2.5c0-0.1,0-0.2,0.1-0.3c0.6-1.2,2-1.9,3.3-1.4l5.1,1.4
			c1.2,0.2,2,1.3,1.8,2.5c0,0.1,0,0.2-0.1,0.3C709.8,925.1,708.8,925.7,707.8,925.7z M91.7,924.2c-1.1,0-2.1-0.6-2.5-1.5
			c-0.4-1.2,0.3-2.4,1.4-2.7l0.3-0.1l5.1-1.4c1.3-0.4,2.7,0.2,3.3,1.4c0.4,1.2-0.3,2.4-1.5,2.7c-0.1,0-0.2,0-0.3,0.1
			c-1.7,0.5-3.4,0.9-5,1.4C92.3,924.2,92,924.2,91.7,924.2z M692.6,921.6c-0.3,0-0.5,0-0.8-0.1l-5.1-1.3c-1.2-0.2-2-1.3-1.8-2.5l0,0
			c0-0.1,0-0.2,0.1-0.3c0.6-1.3,2-1.9,3.3-1.5l5.1,1.3c1.2,0.2,2,1.3,1.8,2.5l-0.1,0.3C694.7,921.1,693.7,921.7,692.6,921.6
			L692.6,921.6z M106.9,920.1c-1.1,0.1-2.1-0.6-2.5-1.6c-0.3-1.2,0.3-2.4,1.5-2.7l0,0l0.3-0.1c1.7-0.4,3.4-0.9,5.1-1.3
			c1.3-0.4,2.7,0.2,3.3,1.5c0.3,1.2-0.3,2.4-1.5,2.7c-0.1,0-0.2,0-0.3,0.1l-5.1,1.3C107.4,920.1,107.1,920.1,106.9,920.1
			L106.9,920.1z M677.2,917.8c-0.2,0-0.5,0-0.7-0.1l-5.1-1.2c-1.2-0.2-2-1.3-1.9-2.5c0-0.1,0-0.2,0.1-0.3l0,0
			c0.5-1.3,1.9-1.9,3.3-1.5l5.1,1.2c1.2,0.2,2,1.3,1.9,2.5c0,0.1,0,0.2,0,0.3C679.3,917.2,678.3,917.9,677.2,917.8L677.2,917.8z
			 M122.4,916.3c-1.1,0.1-2.1-0.6-2.5-1.6c-0.3-1.2,0.4-2.4,1.6-2.7l0,0h0.2l5.1-1.2c1.3-0.4,2.7,0.3,3.3,1.5
			c0.3,1.2-0.4,2.4-1.6,2.7l0,0h-0.2l-5.1,1.2C122.8,916.3,122.6,916.3,122.4,916.3L122.4,916.3z M662,914.1c-0.2,0-0.5,0-0.7-0.1
			l-5.1-1.2c-1.2-0.2-2.1-1.3-1.9-2.5l0,0c0-0.1,0-0.2,0-0.2c0.5-1.3,1.9-1.9,3.2-1.6l5.1,1.2c1.2,0.2,2.1,1.3,1.9,2.5
			c0,0.1,0,0.2,0,0.3C664.1,913.5,663.1,914.2,662,914.1L662,914.1z M137.5,912.7c-1.1,0.1-2.1-0.6-2.5-1.6
			c-0.3-1.2,0.4-2.4,1.6-2.7h0.3l5.1-1.2c1.3-0.4,2.7,0.3,3.2,1.6c0.3,1.2-0.5,2.4-1.6,2.7h-0.2l-5.1,1.1
			C137.9,912.7,137.7,912.7,137.5,912.7z M646.2,910.7c-0.2,0-0.4,0-0.7-0.1l-5.1-1.1c-1.2-0.1-2.1-1.2-2-2.5l0,0c0-0.1,0-0.1,0-0.2
			c0.5-1.3,1.9-2,3.2-1.6l5.2,1.1c1.2,0.1,2.1,1.2,2,2.5l0,0c0,0.1,0,0.1,0,0.2C648.4,910.1,647.3,910.8,646.2,910.7L646.2,910.7z
			 M153.3,909.3c-1.1,0.1-2.2-0.6-2.6-1.7c-0.3-1.2,0.5-2.4,1.7-2.7l0,0h0.2l5.2-1.1c1.3-0.3,2.7,0.4,3.2,1.6
			c0.3,1.2-0.5,2.4-1.7,2.7l0,0h-0.2l-5.1,1.1C153.8,909.3,153.6,909.3,153.3,909.3L153.3,909.3z M631.2,907.5c-0.2,0-0.4,0-0.6-0.1
			l-5.1-1c-1.2-0.1-2.1-1.2-2-2.4c0-0.1,0-0.2,0-0.2l0,0c0.5-1.3,1.8-2,3.2-1.7l5.2,1c1.2,0.1,2.1,1.2,2,2.4c0,0.1,0,0.2,0,0.3
			C633.4,906.9,632.4,907.6,631.2,907.5L631.2,907.5z M168.3,906.1c-1.1,0.1-2.2-0.6-2.6-1.7c-0.3-1.2,0.5-2.4,1.7-2.6l0,0h0.3
			l5.2-1c1.3-0.3,2.7,0.4,3.2,1.7c0.2,1.2-0.5,2.4-1.8,2.6l0,0h-0.2l-5.2,1C168.8,906.1,168.6,906.1,168.3,906.1L168.3,906.1z
			 M615.2,904.4c-0.2,0-0.4,0-0.6,0l-5.2-1c-1.2-0.1-2.1-1.3-2-2.5v-0.2c0.5-1.3,1.8-2,3.1-1.7l5.2,1c1.2,0.1,2.1,1.2,2,2.5v0.2
			C617.4,903.8,616.4,904.5,615.2,904.4L615.2,904.4z M184.3,903.2c-1.2,0.1-2.2-0.6-2.6-1.7c-0.2-1.2,0.6-2.4,1.8-2.6h0.2l5.2-0.9
			c1.3-0.3,2.7,0.4,3.1,1.7c0.2,1.2-0.6,2.4-1.8,2.6h-0.1l-5.2,0.9C184.7,903.2,184.5,903.2,184.3,903.2L184.3,903.2z M600.2,901.6
			c-0.2,0-0.4,0-0.5,0l-5.2-0.9c-1.3-0.1-2.2-1.2-2.1-2.5l0,0c0-0.1,0-0.1,0-0.2c0.4-1.3,1.8-2,3.1-1.7l5.2,0.9
			c1.2,0.1,2.1,1.2,2,2.5v0.1C602.4,901,601.3,901.7,600.2,901.6L600.2,901.6z M199.3,900.4c-1.2,0.1-2.2-0.7-2.6-1.8
			c-0.2-1.2,0.6-2.4,1.8-2.6l0,0h0.2c1.7-0.3,3.5-0.6,5.2-0.9c1.3-0.3,2.7,0.5,3.1,1.8c0.2,1.2-0.7,2.4-1.9,2.6H205
			c-1.7,0.3-3.5,0.6-5.2,0.9C199.7,900.4,199.5,900.4,199.3,900.4L199.3,900.4z M584.2,899c-0.2,0-0.3,0-0.5,0l-5.2-0.8
			c-1.3-0.1-2.2-1.2-2.1-2.4c0-0.1,0-0.1,0-0.2c0.4-1.3,1.7-2.1,3.1-1.8l5.2,0.8c1.3,0.1,2.2,1.2,2.1,2.4c0,0.1,0,0.1,0,0.2
			C586.5,898.4,585.4,899.1,584.2,899L584.2,899z M215.3,897.9c-1.2,0.1-2.3-0.7-2.6-1.8c-0.2-1.3,0.7-2.4,2-2.6l0,0h0.1l5.2-0.9
			c1.3-0.3,2.7,0.5,3.1,1.8c0.2,1.3-0.7,2.4-2,2.6H221l-5.2,0.8C215.7,897.8,215.5,897.9,215.3,897.9L215.3,897.9z M569.2,896.6
			c-0.1,0-0.3,0-0.4,0l-5.2-0.8c-1.3-0.1-2.2-1.1-2.2-2.4l0,0c0,0,0-0.1,0-0.2c0.4-1.3,1.7-2.1,3-1.8l5.2,0.8
			c1.3,0.1,2.3,1.2,2.2,2.5v0.1l0,0C571.5,895.9,570.4,896.7,569.2,896.6L569.2,896.6z M230.8,895.6c-1.2,0.1-2.3-0.7-2.6-1.9
			c-0.2-1.3,0.7-2.4,2-2.5l0,0h0.2l5.2-0.7c1.3-0.2,2.6,0.5,3,1.8c0.1,1.3-0.8,2.4-2,2.5l0,0h-0.1l-5.2,0.7L230.8,895.6z
			 M553.1,894.6h-0.4l-5.2-0.7c-1.3,0-2.3-1.1-2.2-2.4l0,0v-0.1c0.4-1.3,1.7-2.1,3-1.9l5.3,0.7c1.3,0.1,2.3,1.1,2.2,2.4v0.1l0,0
			C555.4,893.9,554.3,894.6,553.1,894.6L553.1,894.6z M246.5,893.4c-1.2,0.1-2.3-0.7-2.6-1.9c-0.1-1.3,0.8-2.4,2.1-2.5h0.2l5.3-0.7
			c1.3-0.2,2.6,0.6,3,1.9c0.1,1.3-0.8,2.4-2.1,2.5h-0.1l-5.2,0.7H246.5z M537.4,892.6H537c-1.7-0.2-3.5-0.4-5.2-0.6
			c-1.3,0-2.3-1.1-2.3-2.4l0,0v-0.1c0.3-1.3,1.7-2.2,3-1.9c1.7,0.2,3.5,0.4,5.3,0.6c1.3,0,2.3,1.1,2.3,2.4v0.1l0,0
			C539.7,891.9,538.5,892.7,537.4,892.6L537.4,892.6z M262.3,891.6c-1.2,0.1-2.3-0.7-2.6-1.9c-0.1-1.3,0.9-2.4,2.1-2.5h0.1l5.3-0.6
			c1.3-0.2,2.7,0.6,3,1.9c0.1,1.3-0.9,2.4-2.2,2.5h-0.1l-5.2,0.6H262.3z M521.6,890.6h-0.3l-5.2-0.5c-1.3,0-2.3-1.1-2.3-2.4v-0.1
			c0.3-1.3,1.6-2.2,2.9-2l5.3,0.5c1.3,0,2.3,1.1,2.3,2.4v0.1C524,889.9,522.8,890.7,521.6,890.6L521.6,890.6z M278,889.9
			c-1.3,0.1-2.4-0.8-2.6-2c-0.1-1.3,0.9-2.4,2.2-2.5h0.1l5.3-0.5c1.3-0.2,2.6,0.7,2.9,2c0.1,1.3-0.9,2.4-2.2,2.5h-0.1
			c-1.8,0.2-3.5,0.3-5.3,0.5H278z M505.8,888.6h-0.3l-5.3-0.5c-1.3,0-2.3-1.1-2.3-2.3l0,0v-0.1c0.3-1.3,1.6-2.2,2.9-2l5.3,0.5
			c1.3,0,2.4,1.1,2.3,2.4v0.1l0,0C508.1,887.8,507,888.7,505.8,888.6L505.8,888.6z M293.9,888.4c-1.3,0.1-2.4-0.8-2.6-2
			c0-1.3,1-2.4,2.3-2.4l0,0h0.1l5.3-0.4c1.3-0.2,2.6,0.7,2.9,2c0,1.3-1,2.4-2.3,2.4h-0.1l-5.3,0.4H293.9z M490.5,887.6h-0.3
			l-5.5-0.4c-1.3,0-2.5-1-2.5-2.3l0,0v-0.1c0.3-1.4,1.6-2.2,3-2l5.5,0.4c1.3,0,2.5,1,2.5,2.4l0,0l0,0
			C493,886.9,491.8,887.7,490.5,887.6L490.5,887.6z M309.6,886.6c-1.1,0.1-2.2-0.7-2.4-1.8c0-1.2,0.9-2.2,2.1-2.2h0.2l5.2-0.4
			c1.3-0.2,2.6,0.7,2.8,2c0,1.3-1,2.4-2.3,2.4l0,0H309.6L309.6,886.6z M474.2,886.6h-0.4l-5.3-0.4c-1.3,0-2.4-1-2.4-2.3l0,0v-0.1
			c0.2-1.3,1.5-2.2,2.8-2.1l5.3,0.3c1.4,0.1,2.6,1.1,3,2.4l0,0c-0.6,1.1-1.7,1.9-3,2V886.6z M325.7,885.9c-1.2,0.1-2.3-0.8-2.5-2
			c0-1.3,1-2.3,2.3-2.3h0.1l5.1-0.3c1.3-0.1,2.5,0.7,2.7,2c0,1.3-1.1,2.3-2.3,2.3l0,0l0,0l-5.1,0.3H325.7z M458.3,885.6h-0.2
			l-5.3-0.3c-1.3,0-2.4-1-2.5-2.3l0,0l0,0c0.2-1.3,1.5-2.2,2.8-2.1l5.3,0.3c1.3,0,2.4,1,2.5,2.3l0,0
			C460.7,884.8,459.5,885.7,458.3,885.6L458.3,885.6z M341.5,885.6c-1.3,0.1-2.5-0.8-2.6-2.1c0-1.3,1.1-2.4,2.5-2.3l0,0l0,0l5.3-0.2
			c1.3-0.2,2.6,0.8,2.8,2.1c0,1.3-1.1,2.4-2.5,2.3l0,0l0,0l-5.3,0.2H341.5z M442.3,884.6h-0.1c-1.8,0-3.5-0.2-5.3-0.2
			c-1.3,0.1-2.5-1-2.5-2.3l0,0l0,0c0.2-1.4,1.4-2.3,2.7-2.2l0,0l5.3,0.2c1.4,0,2.5,1,2.5,2.4C444.7,883.7,443.6,884.7,442.3,884.6
			L442.3,884.6z M357.4,884.6c-1.4,0-2.5-1-2.6-2.3c0.1-1.4,1.2-2.4,2.5-2.4l5.3-0.2c1.3-0.2,2.5,0.7,2.7,2v0.1
			c-0.1,1.4-1.2,2.5-2.6,2.5L357.4,884.6L357.4,884.6z M426.4,884.6L426.4,884.6c-1.9,0-3.6-0.4-5.4-0.4c-1.4,0-2.5-1.1-2.6-2.4
			c0.2-1.3,1.4-2.3,2.7-2.2c1.8,0,3.5,0,5.3,0.1c1.4,0.1,2.5,1.2,2.6,2.6C428.9,883.5,427.8,884.6,426.4,884.6L426.4,884.6z
			 M373.3,884.6c-1.4-0.1-2.5-1.2-2.6-2.6c0.1-1.4,1.2-2.5,2.6-2.5l5.3-0.2c1.4,0.1,2.7,0.9,2.7,2.1c-0.1,1.4-1.2,2.6-2.6,2.6
			L373.3,884.6L373.3,884.6z M410.3,885L410.3,885l-5.3-0.5c-1.5,0-2.6-0.8-2.6-2s1.2-2,2.6-2l0,0l5.3-0.4c1.4,0,2.5,1.1,2.5,2.5
			C412.8,883.9,411.6,885,410.3,885L410.3,885L410.3,885z M389.3,885c-1.4-0.1-2.6-1.3-2.6-2.7c0-1.2,1.2-2,2.6-2l5.3,0.2l0,0
			c1.5,0,2.6,0.5,2.6,1.7c-0.1,1.4-1.2,2.5-2.6,2.5L389.3,885L389.3,885z"/>
		<path class="st19" d="M398.3,58.4h6.9c13.3,0,24.1,10.8,24.1,24v19.9c0,13.3-10.8,24-24.1,24h-6.9c-13.3,0-24.1-10.8-24.1-24V82.5
			C374.3,69.2,385,58.4,398.3,58.4z"/>
		<path class="st19" d="M213.8,80.4h374.9c5.8,0,10.5,4.7,10.5,10.5l0,0c0,5.8-4.7,10.5-10.5,10.5H213.8c-5.8,0-10.5-4.7-10.5-10.5
			l0,0C203.3,85.1,208,80.4,213.8,80.4z"/>
		<path class="st19" d="M401.2,0h-9.9v67.3c0,7.1,4.7,13,10.5,13s10.5-5.8,10.5-13V0H401.2z"/>
		<path class="st20" d="M408.8,65.3c6,2.9,10.9,7.7,13.7,13.8c0.9,1.9,3.6,0.2,2.8-1.6c-3.1-6.5-8.4-11.8-14.9-14.9
			C408.6,61.7,407,64.4,408.8,65.3z"/>
		<path class="st20" d="M425.3,84.2c0.9,0,1.6-0.7,1.6-1.6s-0.7-1.6-1.6-1.6s-1.6,0.7-1.6,1.6S424.5,84.2,425.3,84.2L425.3,84.2z"/>
		<path class="st20" d="M212.3,84.4h161.9c2,0,2.1-2,0-2H212.3V84.4z"/>
		<path class="st20" d="M435.3,86.4h151.3c2.1,0,2.1-4,0-4H435.3V86.4z"/>
		<path class="st21" d="M376.6,102.1c-1,10.7,9.2,23.8,20.7,21.2c2-0.4,1.2-3.5-0.8-3.1c-9.6,2.1-17.5-9.8-16.7-18.2
			C380,100.1,376.8,100.1,376.6,102.1L376.6,102.1z"/>
		<path class="st21" d="M399.6,121.3l0.4-0.7c-1.8,1-0.2,3.7,1.6,2.8c0.8-0.4,1.2-1.2,1.1-2.1c0-0.9-0.7-1.6-1.6-1.6
			C400.3,119.7,399.6,120.4,399.6,121.3L399.6,121.3L399.6,121.3z"/>
		<rect x="218.3" y="90.4" class="st19" width="6" height="238.8"/>
		<rect x="399.3" y="112.4" class="st19" width="6" height="212.8"/>
		<rect x="574.2" y="90.4" class="st19" width="6" height="212.8"/>
		<path class="st8" d="M227.1,203.6l11.3,21.8c1,1.8,2.8,3.1,4.8,3.3l25.2,3.5c3.3,0.3,5.7,3.2,5.5,6.5c-0.1,1.5-0.8,2.9-1.9,3.9
			l-18.2,17c-1.5,1.4-2.2,3.4-1.8,5.4l4.3,24c0.9,5-4.6,8.8-9.2,6.4l-22.5-11.3c-1.9-0.9-4.1-0.9-5.9,0l-22.5,11.3
			c-4.7,2.3-10.1-1.4-9.2-6.4l4.3-24c0.3-2-0.3-4-1.8-5.4l-18.2-17c-2.4-2.2-2.6-6-0.4-8.5l0,0c1-1.1,2.4-1.8,3.9-1.9l25.1-3.4
			c2.1-0.3,3.8-1.5,4.8-3.3l11.3-21.8c1.7-3.2,5.6-4.3,8.8-2.6C225.6,201.6,226.5,202.5,227.1,203.6z"/>
		<path class="st15" d="M192.3,237.4c-2.3,5.8,4.7,10.5,9.9,8.2c3.4-1.6,3.7-6.5,2.3-9.6c-0.8-1.7-3.3-0.2-2.5,1.5
			c0.6,1.3,0.7,3.9-0.4,5c-1.1,1.1-2.9,0.7-4.1,0.4c-1.8-0.4-3-2.1-2.6-3.9l0,0c0.1-0.3,0.2-0.6,0.3-0.8
			C195.9,236.4,193,235.6,192.3,237.4L192.3,237.4z"/>
		<path class="st15" d="M232.3,237.4c-2.3,5.8,4.7,10.5,9.9,8.2c3.4-1.6,3.7-6.5,2.3-9.6c-0.8-1.7-3.3-0.2-2.5,1.5
			c0.6,1.3,0.7,3.9-0.4,5c-0.9,1-2.9,0.7-4.1,0.4c-1.8-0.4-3-2.1-2.6-3.9l0,0c0.1-0.3,0.2-0.6,0.3-0.8
			C235.8,236.4,233,235.6,232.3,237.4L232.3,237.4z"/>
		<path class="st15" d="M219.4,253.2c-1.1,2.9,2.3,5.3,5,4.1c1.7-0.8,1.9-3.3,1.1-4.8c-0.4-0.8-1.7-0.1-1.3,0.7s0.3,1.8-0.2,2.5
			c-0.5,0.5-1.4,0.3-2,0.2c-0.9-0.2-1.5-1-1.3-1.9l0,0c0-0.1,0.1-0.3,0.1-0.4C221.3,252.8,219.8,252.4,219.4,253.2L219.4,253.2z"/>
		<path class="st7" d="M196.2,251.9c-3.6,0-6.4,2.6-6.4,5.7c0,3.2,2.9,5.7,6.4,5.7s6.4-2.6,6.4-5.7
			C202.6,254.5,199.7,251.9,196.2,251.9z"/>
		<path class="st7" d="M245.5,251.9c-3.6,0-6.4,2.6-6.4,5.7c0,3.2,2.9,5.7,6.4,5.7s6.4-2.6,6.4-5.7C252,254.5,249,251.9,245.5,251.9
			z"/>
		<path class="st9" d="M227.1,214.6c0.3,1.6,0.8,3.2,1.6,4.7c0.4,0.9,1,1.7,1.7,2.3c0.7,0.7,1.7,1,2.7,0.9c0.1,0,0.3-0.1,0.4-0.1
			c0.1-0.1,0.2-0.2,0.3-0.4c0.2-0.8,0.1-1.7-0.3-2.5c-0.5-1.2-1.1-2.3-1.8-3.4c-0.8-1-1.9-1.8-3.1-2.2c-0.2-0.1-0.4-0.1-0.6,0
			c-0.3,0.1-0.5,0.5-0.5,0.8s0.1,0.7,0.2,1c0.4,0.9,0.7,1.8,1.1,2.6"/>
		<path class="st9" d="M226.6,214.8c0.5,2.9,1.7,7,4.8,8.2c3,1.2,3.5-1.5,2.6-3.8s-3-6.1-5.8-6.2c-1,0-1.8,0.8-1.8,1.8l0,0l0,0
			c-0.1,1.5,1.2,2.8,2.2,3.8c0.1,0.1,0.2,0.1,0.3,0l0,0l0.1-0.1c0.1-0.7,0-1.4-0.1-2.1c-0.1-0.4-0.2-0.7-0.3-1.1
			c-0.1-0.4-0.4-0.2,0-0.2c2-0.1,3.4,2.7,4.1,4.1c0.2,0.4,0.4,0.9,0.5,1.3c0.2,0.3,0.1,0.7-0.2,0.9c0,0.6-0.3,0.8-0.8,0.5
			c-1-0.3-1.9-1-2.4-2c-1-1.6-1.7-3.5-2.1-5.3C227.5,213.8,226.5,214.1,226.6,214.8L226.6,214.8z"/>
		<path class="st9" d="M228.4,210.7c-0.1,0-0.1,0.2,0,0.3c0.3,0.6,0.8,1,1.4,1.3c0.2-0.7-0.3-1.3-0.8-1.8c-0.1-0.1-0.2-0.2-0.4-0.2
			S228.4,210.5,228.4,210.7c0.2,0.2,0.2,0.4,0.3,0.6"/>
		<path class="st9" d="M228.1,211.3c0.2,0.8,0.8,1.4,1.5,1.7c0.2,0.1,0.4,0,0.6-0.2c0-0.1,0.1-0.1,0.1-0.2c0.1-0.8-0.6-2.5-1.6-2.4
			s-0.5,1.2-0.1,1.6c0.1,0.1,0.4,0.1,0.4-0.1c0-0.2,0-0.4,0-0.5c-0.3-0.2-0.3-0.1,0,0.1c0.4,0.3,0.5,0.8,0.5,1.3l0.5-0.4
			c-0.6-0.2-1-0.6-1.3-1.1C228.5,210.7,228,210.9,228.1,211.3L228.1,211.3z"/>
		<path class="st9" d="M235.1,223.1c0.1,0.9,0.7,1.8,1.4,2.3h0.1c0,0,0.1,0,0.1-0.1c0.2-0.3,0.2-0.6,0.1-0.8
			c-0.1-0.3-0.3-0.5-0.5-0.8c-0.2-0.4-0.6-0.6-1-0.7c-0.1,0.2-0.1,0.5,0,0.7"/>
		<path class="st9" d="M234.8,223c-0.7,1,1,3.8,2.2,3c1.6-0.9-0.4-3.2-1.5-3.5c-0.3-0.1-0.6,0.1-0.7,0.4c-0.1,0.4-0.1,0.8,0.2,1.1
			c0.1,0.2,0.4,0.3,0.6,0.1c0.1-0.1,0.2-0.2,0.2-0.3c0-0.2,0.1-0.4,0.1-0.5l-0.7,0.4c0.4,0.1,0.5,0.5,0.7,0.8c0,0.4,0.1,0.5,0.3,0.3
			s0.2-0.2-0.1-0.3c-0.2-0.5-0.6-1-1-1.4C235,222.8,234.8,222.8,234.8,223L234.8,223z"/>
		<path class="st9" d="M224.4,209.4c0.1,0.6,0.4,1.2,0.8,1.7c0.4,0.7,1.2,1.1,1.9,1c0,0,0.1,0,0.1-0.1v-0.1c0-0.9-0.2-1.8-0.7-2.6
			c-0.2-0.5-0.6-1-1.1-1.2c-0.1-0.1-0.3-0.1-0.4-0.1c-0.3,0.1-0.5,0.4-0.5,0.7s0.1,0.6,0.2,0.9c0.3,0.6,0.6,1.1,0.9,1.7"/>
		<path class="st9" d="M224.4,209.4c-0.5,1.1,1,2.8,2,3.1c1.9,0.5,1.4-1.7,1-2.7s-1.6-3.3-3-2.2s0.1,3.2,1.1,3.8
			c0.2,0.1,0.4-0.1,0.4-0.3c-0.1-0.6-0.5-1.2-0.6-1.8c0-0.6,0.2-0.7,0.6-0.1c0.2,0.3,0.3,0.5,0.4,0.8c0.1,0.3,0.5,0.9,0.4,1.1
			c-0.3,0.5-1,0-1.2-0.2C225.1,210.5,224.9,209.8,224.4,209.4L224.4,209.4L224.4,209.4z"/>
		<path class="st9" d="M233.3,225.5c0.5-0.1,0.9-0.5,0.8-1c0-0.5-0.4-0.8-0.9-0.8s-0.8,0.4-0.8,0.9c0,0.1,0,0.1,0,0.2
			C232.5,225.1,232.9,225.5,233.3,225.5z"/>
		<path class="st9" d="M190.2,284.3c-0.8,1.7-1.2,3.6-1.1,5.4c0,0.5,0.1,1,0.4,1.4c0.3,0.4,0.8,0.6,1.3,0.5c0.3-0.2,0.6-0.4,0.8-0.8
			c0.7-1.5,1.1-3.1,1.1-4.8c0.1-0.6,0-1.3-0.2-1.9s-0.7-1.1-1.3-1.2c-0.2,0-0.3,0-0.4,0c-0.3,0.2-0.5,0.5-0.5,0.8
			c-0.6,2.3-0.9,4.6-0.9,7"/>
		<path class="st9" d="M190.1,284.2c-0.9,1.7-2.7,6-0.6,7.6c2.3,1.7,3.4-3.2,3.6-4.4c0.2-1.3,0.4-2.9-0.4-4.1
			c-0.5-0.8-1.5-1.2-2.4-0.8c-1.2,0.6-1.2,2.7-1.3,3.8c-0.2,1.5-0.6,3.4,0.1,4.8c0.1,0.1,0.2,0.2,0.4,0.1l0.1-0.1
			c0.7-1.3,0.5-3,0.8-4.5c0.1-0.4,0.2-2.3,0.6-2.5c1.3-0.7,1.1,2.4,1.1,2.8c0,0.8-0.1,1.5-0.3,2.3c-0.1,0.5-0.3,1-0.5,1.4
			c-1.2-0.1-1.7-0.6-1.6-1.5c-0.1-1.7,0.2-3.4,0.9-4.9v-0.1C190.2,284.1,190.2,284.1,190.1,284.2
			C190.2,284.2,190.2,284.2,190.1,284.2L190.1,284.2z"/>
		<path class="st9" d="M188.7,282c0-1.5,0.3-2.9,1-4.2c0-0.1,0.1-0.1,0.1-0.2c0.1,0,0.2,0,0.3,0.1c0.3,0.3,0.4,0.8,0.3,1.2
			c0,0.8-0.2,1.5-0.4,2.2c-0.1,0.5-0.3,0.9-0.7,1.2c-0.1,0.1-0.3,0.2-0.5,0c-0.1-0.1-0.1-0.1-0.1-0.2c0-0.4,0-0.7,0-1.1"/>
		<path class="st9" d="M188.8,282c0.2-0.6,0.3-1.1,0.4-1.7c0.1-0.7,0.3-1.3,0.6-1.9c0.1-0.4,0.2-0.2,0.2,0.4
			c0.2,0.2,0.2,0.5,0.1,0.8c0,0.4-0.1,0.7-0.3,1.1c-0.1,0.2-0.2,0.9-0.4,1c-0.6,0.5-0.5-0.3-0.5-0.6c0-0.3-0.5-0.4-0.5-0.1
			c-0.1,0.7-0.1,2.3,1,1.6c1.1-0.6,1.1-3.1,1.1-4.2c0-0.6-0.4-1.5-1.1-0.9c-1,0.9-1.2,3.3-0.9,4.5
			C188.5,282.1,188.6,282.1,188.8,282C188.7,282.1,188.7,282,188.8,282L188.8,282z"/>
		<path class="st9" d="M192.5,291.9c-0.3,0.8-0.5,1.5-0.6,2.3c0,0.3,0,0.7,0.2,0.8c0.2,0.1,0.5,0.1,0.7,0c0.2-0.2,0.3-0.3,0.4-0.6
			c0.4-0.9,0.6-1.9,0.5-2.8c0-0.2-0.1-0.3-0.1-0.5c-0.2-0.2-0.5-0.2-0.7,0c-0.3,0.3-0.6,0.8-0.6,1.2l-0.4,2.2"/>
		<path class="st9" d="M192.3,291.7c-0.4,0.8-1.6,3.1-0.3,3.7s2-1.7,2.1-2.6s0.1-3.1-1.5-2.5c-1.4,0.5-1.3,3.2-1.1,4.3
			c0,0.3,0.5,0.3,0.6,0.1c0.3-0.6,0.5-1.2,0.6-1.8c0.1-0.3,0.1-0.6,0.3-0.9c0-0.1,0.1-0.3,0.2-0.3c0.3-0.2,0.2-0.1-0.1,0.2
			c-0.1,0.5,0,2-0.6,1.9c-0.4,0-0.2-0.1-0.2-0.5s0.1-1,0.2-1.5C192.8,291.7,192.4,291.5,192.3,291.7L192.3,291.7z"/>
		<path class="st9" d="M190,294.4c0.3,0,0.6-0.3,0.6-0.6s-0.3-0.6-0.6-0.6s-0.6,0.3-0.6,0.6l0,0C189.4,294.2,189.7,294.4,190,294.4z
			"/>
		<path class="st9" d="M192.3,280.5c0.3-0.9,0.3-1.8,0.2-2.6c-0.2,0-0.3,0.2-0.4,0.4c-0.1,0.6-0.2,1.2-0.2,1.7c0,0.2,0,0.4,0.1,0.6
			s0.2,0.3,0.4,0.4c0.4,0,0.6-0.4,0.7-0.7c0.1-0.5,0.2-1.1,0.1-1.6c0-0.3-0.1-0.6-0.3-0.9c-0.2-0.2-0.5-0.3-0.8-0.1
			c-0.1,0.1-0.2,0.2-0.2,0.4c-0.3,0.9-0.4,1.8-0.3,2.7"/>
		<path class="st9" d="M193.3,280.5c0.1-0.9,0-1.9-0.3-2.7c-0.1-0.2-0.3-0.3-0.5-0.3l0,0h-0.1c-0.5,0.3-0.5,1-0.5,1.6
			s-0.3,1.4,0.1,1.9c0.8,0.9,1.5-0.4,1.6-1.1c0.2-0.9,0.3-2.9-1.1-2.8c-1.4,0-1.3,2.7-1.2,3.6c0,0.3,0.3,0.4,0.5,0.4
			s0.4-0.2,0.4-0.4c0-0.6,0-1.2,0.2-1.8c0.1-0.3,0.1-1.2,0.6-0.5c0.1,0.6,0.1,1.2-0.1,1.7c-1.1,0.5-0.3-1.9-0.3-1.9l-0.4-0.4
			c-0.1,0.8-0.3,1.5-0.7,2.2c-0.3,0.4-0.1,1,0.3,1.3c0.4,0.3,1,0.1,1.3-0.3c0,0,0,0,0-0.1C193.2,280.8,193.3,280.6,193.3,280.5
			L193.3,280.5z"/>
		<path class="st9" d="M194.1,283.5c0.5,0,0.9-0.4,0.9-0.9s-0.4-0.9-0.9-0.9s-0.9,0.4-0.9,0.9C193.2,283.1,193.6,283.5,194.1,283.5
			L194.1,283.5z"/>
		<path class="st7" d="M447.7,222.3c-0.2-1.6-4.5-41.5-41.2-41.5l0,0c-43.3,0-46.9,39.7-47,41.4l-9.6-0.9c0-0.5,4.3-51.1,56.6-51.1
			l0,0c45.4,0,50.8,50.4,50.8,50.9L447.7,222.3z"/>
		<path class="st8" d="M442.7,234.7c-0.1-1.8-4-43.2-36.5-43.2l0,0c-38.6,0-41.5,41.3-41.6,43l-9.6-1.4c0-0.5,3.8-54.5,51.3-54.5
			l0,0c33,0,44.6,35.7,46.1,54.3L442.7,234.7z"/>
		<path class="st7" d="M437,242.2c-0.1-1.8-3.4-44.3-31.1-44.3l0,0c-32.9,0-35.4,42.4-35.5,44.2l-8.2-1.9c0-0.5,3.3-55,43.8-55l0,0
			c28.2,0,38,36.3,39.3,54.9L437,242.2z"/>
		<path class="st8" d="M428.8,247.3c-1.5,9.1,5.3,18.1,15.2,17.8c6.7-0.2,8.5-4.8,13.8-6.5c6-2,10.9,0.2,16.6-4.1
			c10.7-8.1,7.9-21.1-3.5-26.4c-2.3-1-4.7-1.6-7.2-1.9c-1.8-11.4-19.5-16.8-26-3.8c-7.8-3.2-17,2.8-20.7,10.2
			C412.3,242,421,246.3,428.8,247.3z"/>
		<path class="st8" d="M339.4,247.3c-1.5,9.1,5.3,18.1,15.2,17.8c6.7-0.2,8.5-4.8,13.8-6.5c6-2,10.9,0.2,16.6-4.1
			c10.7-8.1,7.9-21.1-3.5-26.4c-2.3-1-4.7-1.6-7.2-1.9c-1.7-11.4-19.5-16.8-26-3.8c-7.8-3.2-17,2.8-20.7,10.2
			C322.9,242,331.5,246.3,339.4,247.3z"/>
		<path class="st7" d="M235.7,148.6c2.7,7.9-1.6,16.5-9.5,19.1c-7.9,2.7-16.5-1.6-19.2-9.5s1.6-16.5,9.5-19.1
			c1.6-0.5,3.2-0.8,4.8-0.8l0,0C227.9,138.3,233.7,142.4,235.7,148.6z"/>
		<path class="st7" d="M417.9,277.9c0,8.5-6.9,15.4-15.4,15.4s-15.4-6.9-15.4-15.4s6.9-15.4,15.4-15.4S417.9,269.4,417.9,277.9
			L417.9,277.9z"/>
		<path class="st7" d="M592.6,217.7c0,8.5-6.9,15.4-15.4,15.4s-15.4-6.9-15.4-15.4s6.9-15.4,15.4-15.4l0,0
			C585.7,202.3,592.6,209.2,592.6,217.7L592.6,217.7z"/>
		<path class="st8" d="M231.8,328.3c0,5.7-4.7,10.4-10.4,10.4c-5.8,0-10.4-4.7-10.4-10.4c0-5.7,4.7-10.4,10.4-10.4
			S231.8,322.6,231.8,328.3L231.8,328.3z"/>
		<path class="st8" d="M412.9,324.8c0,5.7-4.7,10.4-10.4,10.4c-5.8,0-10.4-4.7-10.4-10.4c0-5.7,4.7-10.4,10.4-10.4
			C408.2,314.3,412.9,319,412.9,324.8L412.9,324.8z"/>
		<path class="st7" d="M649.8,311c-0.7-4.5-2.1-11-4.6-14.8c-3.9-5.9-13.2-8.5-19.9-10.8c-0.4-18.1-6.3-28.1-18.5-35.2
			c-13.6-8-31.1-7.9-45.8-3.2c-8,2.6-15.5,6.9-21,13.4c-5.3,6.3-7.9,24.1-7.9,24.4v0.6c0,0.7,0,1.3-0.1,2
			c-6.4-0.5-12.8,1.5-17.7,5.7c-6,4.9-9.1,12.5-9.9,20c-0.8,7,0.6,15.8,8,18.7c3.7,1.4,7.7,1.2,11.6,1.3c4.6,0,9.3,0,13.9,0
			c18.5,0,37-0.4,55.5-1.2c9.3-0.4,18.5-0.9,27.7-1.4c4.5-0.3,9-0.5,13.4-0.9c4-0.4,10.6-1.7,13-5
			C650.5,320.7,650.5,315.3,649.8,311z"/>
		<path class="st8" d="M559,327.2c-1.6-4-4.8-7.2-8.8-8.7c-3.9-1.4-8.2-1.1-11.8,0.9c-1.6,0.8-3.1,2-4.2,3.4
			c-0.5,0.4-0.9,0.9-1.3,1.4c-2.8,3.4-3.8,7.9-2.9,12.1c1.7,8.7,11.4,13.4,19.5,10.7C557.3,344.3,562.2,334.9,559,327.2z"/>
		<path class="st8" d="M618.9,327.2c-1.6-4-4.8-7.2-8.8-8.7c-3.9-1.4-8.2-1.1-11.8,0.9c-1.6,0.8-3.1,2-4.2,3.4
			c-0.5,0.4-0.9,0.9-1.3,1.4c-2.8,3.4-3.8,7.8-2.9,12.1c1.7,8.7,11.4,13.4,19.5,10.7C617.2,344.3,622.1,334.9,618.9,327.2z"/>
		<path class="st8" d="M575.1,258.5c-0.1-1.4-1.2-2.6-2.7-2.6c-15.2-1.3-28.6,10-29.9,25.3c-0.1,1.7-0.1,3.4,0,5.1
			c0.3,3.2,4.8,2.9,7.1,2.7c8-0.7,16-1.3,24.1-1.7c1.5,0,2.6-1.2,2.7-2.7C576.5,275.9,576.1,267.2,575.1,258.5z"/>
		<path class="st8" d="M583.2,259.1c0-1.4,1.1-2.7,2.6-2.8c15.2-1.8,29,9,30.8,24.1l0,0c0.2,1.7,0.3,3.4,0.1,5.1
			c-0.3,4.4-7.4,3.2-10.2,2.8c-6.9-0.8-14-0.6-20.9-0.6c-1.5,0-2.7-1.1-2.7-2.5C582.4,276.5,582.5,267.8,583.2,259.1z"/>
		<path class="st8" d="M649.6,289.6c-0.3-1-1.2-1.8-2.3-1.9c-0.1-0.1-0.3-0.2-0.5-0.3c-1.8-0.9-4.1-0.6-5.6,0.8
			c-1.6,1.4-1.8,4.6-0.3,6.1c0.8,0.8,2.2,0.9,3.3,1.1c1,0.1,2.1-0.1,3-0.6C649.3,293.9,650.2,291.7,649.6,289.6z"/>
		<path class="st8" d="M513.6,295.2c-1.3-0.7-2.9-0.3-3.6,1c-0.6,1.4-1.2,2.7-1.8,4.1c-0.7,1.3-0.3,2.9,1,3.6s2.9,0.3,3.6-0.9l0,0
			l0,0c0.6-1.4,1.2-2.7,1.8-4.1C515.3,297.6,514.9,296,513.6,295.2z"/>
		<path class="st22" d="M551.4,332.3c-0.2-4-3.7-7-7.7-6.8l0,0c-3.9,0.5-6.8,3.8-6.8,7.7c0.3,4,3.7,7,7.7,6.7l0,0l0,0
			C548.6,339.6,551.6,336.2,551.4,332.3z"/>
		<path class="st22" d="M611.8,332.3c-0.2-4-3.7-7-7.7-6.8l0,0c-3.9,0.5-6.8,3.8-6.8,7.7c0.3,4,3.7,7,7.7,6.7l0,0l0,0
			C609,339.6,612,336.3,611.8,332.3z"/>
		<path class="st22" d="M576.7,294.6l-0.7,29.6c-0.1,2.5,3.9,2.5,3.9,0l0.7-29.6C580.7,292,576.8,292,576.7,294.6z"/>
		<path class="st8" d="M568.5,293.2h-2.9c-1.1-0.2-2.2,0.5-2.4,1.6s0.5,2.2,1.6,2.4c0.3,0,0.5,0,0.8,0h2.9c1.1,0.2,2.2-0.5,2.4-1.6
			s-0.5-2.2-1.6-2.4C569,293.2,568.7,293.2,568.5,293.2z"/>
		<path class="st8" d="M591.4,294l-3.1-0.3c-1.1,0-2,0.9-2,2s0.9,2,2,2l3.1,0.3c1.1,0,2-0.9,2-2S592.5,294,591.4,294z"/>
		<path class="st1" d="M620.2,268.9c-4.8-13.6-18-22.6-32.5-22c-2.5,0.1-2.5,4,0,3.9c12.7-0.6,24.3,7.2,28.7,19.2
			C617.3,272.3,621.1,271.3,620.2,268.9z"/>
		<path class="st1" d="M646.3,309c-0.7-2.4-4.4-1.4-3.8,1c1.1,4,0.8,9.3-3.7,11.1c-4.1,1.7-8.8,0.7-13.1,2c-2.4,0.7-1.4,4.5,1,3.8
			c5.1-1.6,10.8-0.1,15.5-3.2C647,320.6,647.8,314.2,646.3,309z"/>
		<path class="st9" d="M332.2,232.9c-0.6,0.7-1.1,1.6-1.3,2.5c-0.2,1,0.4,1.9,1.3,2.2c0.6,0.1,1.3-0.1,1.8-0.5
			c1.8-1.1,3.1-2.8,3.8-4.8c0.1-0.3,0.2-0.6,0.1-0.9c-0.2-0.6-0.7-1.1-1.3-1.2c-2.3-0.6-4.7,1.2-5.7,3.3c-0.5,0.8-0.5,1.7-0.1,2.5
			c0.5,0.7,2,0.6,2-0.3"/>
		<path class="st9" d="M331.9,232.7c-1,1.2-2,2.7-1.3,4.3c0.5,1.1,1.9,1.7,3,1.2l0,0l0.1-0.1c1.6-0.7,2.9-1.9,3.8-3.5
			c0.8-1.2,1.7-3,0.6-4.3c-2.6-2.8-7.1,0.1-8.5,2.7c-0.7,1.4-1,3.5,0.6,4.6c0.9,0.7,2.3,0.5,3-0.4c0.2-0.2,0.3-0.5,0.4-0.7
			c0.2-0.5-0.1-1.1-0.6-1.3c-0.3-0.1-0.7-0.1-0.9,0.1c-0.6,0.4-0.1-0.9,0-1.1c0.3-0.6,0.7-1.2,1.2-1.7c0.7-0.8,4-2.5,3.5-0.2
			c-0.4,1.4-1.3,2.7-2.5,3.6c-0.8,0.7-2.5,1.6-2.9,0c-0.3-1,0.5-2.1,1.1-2.9C332.7,232.7,332.1,232.3,331.9,232.7L331.9,232.7z"/>
		<path class="st9" d="M337.9,226.4c-0.4-0.4-0.9,0.4-0.6,0.8c0.4,0.3,1,0.4,1.5,0.1c0.6-0.2,1.3-0.5,1.3-1.1s-0.7-0.9-1.3-0.8
			c-0.6,0.2-1,0.5-1.4,1"/>
		<path class="st9" d="M338.3,226.3c-0.3-0.8-1.3-0.2-1.4,0.5c-0.1,1.3,1.7,1.3,2.5,1c1.1-0.3,2.2-1.4,1.3-2.6
			c-1.1-1.3-2.7-0.4-3.6,0.5c-0.8,0.8,0.5,2,1.2,1.2c0.2-0.3,0.4-0.5,0.7-0.7c0.3-0.1,0.6-0.2,0.4,0.2c-0.1,0.2-0.6,0.3-0.8,0.3
			l-0.4,0.1c-0.4,0-0.5-0.2-0.1-0.3C338.2,226.6,338.3,226.5,338.3,226.3L338.3,226.3L338.3,226.3z"/>
		<path class="st9" d="M341.1,230.6c0.9,0.1,1.8,0,2.7-0.2c0.5-0.2,1-0.5,0.9-1s-0.8-0.6-1.3-0.6c-0.9,0-2,0.2-2.3,1
			s0.8,1.7,1.7,1.5c0.9-0.3,1.6-0.9,1.9-1.8"/>
		<path class="st9" d="M341,231.3c1.1,0.2,4.6,0.3,4.3-1.7c-0.2-1.6-2.9-1.4-4-0.8c-0.9,0.6-1.2,1.9-0.6,2.8c0.2,0.4,0.6,0.6,1,0.8
			c1.4,0.5,4.5-1.1,3.4-2.8c-0.1-0.2-0.4-0.3-0.7-0.3c-0.6,0.1-0.7,0.5-1.1,0.9c-0.2,0.3-0.5,0.7-0.9,0.6c-0.6,0-0.8-0.5-0.3-0.9
			c0.2-0.1,0.5-0.2,0.8-0.2s0.6-0.2,0.7,0.2c0.2,0.6-2.3,0.7-2.6,0.7C340.7,230.6,340.6,231.2,341,231.3L341,231.3z"/>
		<path class="st9" d="M384.2,239.7c-0.1,1.4,0,2.8,0.3,4.2c0.3,1.2,1.1,2.6,2.3,2.3c0.3-0.1,0.7-0.4,0.9-0.6
			c1.8-2.2,1.7-5.4-0.2-7.4c-0.9-0.9-2.5-1.3-3.1-0.2c-0.2,0.4-0.2,0.9-0.1,1.4l0.6,5.7"/>
		<path class="st9" d="M383.8,239.3c-0.3,2.1-0.7,7.3,2.6,7.6c2.8,0.2,3.9-4,3.6-6.1s-2.3-5.5-5-4.7c-1.3,0.4-1.7,1.7-1.5,2.9
			c0.2,1.9,0.2,4.3,1.2,5.9c0.1,0.2,0.3,0.3,0.5,0.2l0,0c0.1,0,0.2-0.1,0.2-0.2c0.5-1.8,0-3.7-0.1-5.5c-0.2-2.8,2.3-0.3,2.7,1.1
			c0.2,0.8,0.2,1.6,0,2.4c-0.1,0.5-0.6,1.9-1.2,2.1c-1.6,0.4-1.9-4.6-2-5.5C384.7,238.9,383.9,238.7,383.8,239.3L383.8,239.3z"/>
		<path class="st9" d="M386.6,249.5l-0.3-0.3"/>
		<path class="st9" d="M386.4,250.3c0.6,0,1-0.4,1-1s-0.4-1-1-1s-1,0.4-1,1S385.8,250.3,386.4,250.3z"/>
		<path class="st9" d="M386.5,234.1c0,0.7,0.6,1.2,1.2,1.2c0-0.6-0.3-1.3-0.7-1.7c-0.5-0.4-1.5-0.2-1.4,0.5c0,0.2,0.1,0.4,0.2,0.6
			c0.4,0.6,1,1.3,1.6,1.1"/>
		<path class="st9" d="M386,234.5c0.2,0.8,0.9,1.3,1.7,1.3c0.3,0,0.6-0.2,0.6-0.6l0,0l0,0c0-0.9-0.3-1.7-1-2.3
			c-0.6-0.4-1.4-0.3-1.9,0.1c-1.3,1.2,0.8,3.3,2.1,3c0.5-0.1,0.4-0.9-0.1-0.8c-0.4,0-0.8-0.3-1-0.6c-0.1-0.3-0.2-0.7,0.2-0.5
			c0.5,0.2,0.4,0.9,0.5,1.3l0.6-0.8c-0.3,0-0.6-0.2-0.7-0.6C386.7,233.5,385.8,233.9,386,234.5L386,234.5z"/>
		<path class="st9" d="M382.6,248.4c-0.9-0.1-1.7,0.6-1.7,1.5l0,0v0.2c0.7,0.6,1.7,0.6,2.5,0.1C384,249.6,383.5,248.1,382.6,248.4"
			/>
		<path class="st9" d="M382.2,247.7c-1.1,0.2-1.9,1-2,2.1c-0.1,1.2,1.5,1.6,2.4,1.5c1,0,1.8-0.9,1.8-2l0,0l0,0
			c0-0.8-0.7-1.8-1.6-1.7c-0.6,0.1-0.9,0.9-0.3,1.2c0.3,0.1,0.6,0.4,0.2,0.8c-0.4,0.3-1.1,0-1.4-0.2l0.4,0.7c0-0.5,0.4-1,0.9-1l0,0
			C383.5,248.9,383.1,247.5,382.2,247.7L382.2,247.7z"/>
		<path class="st9" d="M418.9,236.2c-0.5,2.7,1.3,5.3,4,5.8c0.2,0.1,0.4,0.1,0.6,0c0.4-0.2,0.4-0.7,0.4-1.2c0-1.2-0.2-2.3-0.6-3.4
			c-0.4-1.1-1.4-1.9-2.6-2c-1.1,0-2,0.8-2.1,1.9l0,0c0,0.1,0,0.2,0,0.2"/>
		<path class="st9" d="M418.3,236c-0.5,2.2,0.4,4.5,2.2,5.8c1.6,1.2,4.3,1.7,4.3-1c0-2.3-0.6-5.3-3-6.1c-1.8-0.6-4.9,1-3.5,3.2
			c0.2,0.3,0.6,0.4,0.8,0.2l0,0c0.1-0.1,0.2-0.2,0.3-0.3c0.5-1.4,1.7-2,2.8-0.7c0.5,0.6,1.5,3.3,0.8,4s-2.2-1.1-2.6-1.6
			c-0.6-0.9-0.9-2.1-0.7-3.2C419.7,235.5,418.4,235.3,418.3,236L418.3,236z"/>
		<path class="st9" d="M420.2,234.4c0.8-0.1,1.4-0.8,1.3-1.5s-0.6-1.2-1.3-1.3c-0.8,0.1-1.4,0.8-1.3,1.5
			C418.9,233.8,419.5,234.4,420.2,234.4z"/>
		<path class="st9" d="M426.6,243.9c0.3,0,0.5-0.2,0.5-0.5s-0.2-0.5-0.5-0.5s-0.5,0.2-0.5,0.5S426.3,243.9,426.6,243.9z"/>
		<path class="st9" d="M476.6,239.9c-0.2,0.9-0.3,1.9-0.3,2.8c-0.1,0.5,0.1,1.1,0.5,1.4c0.7,0.4,1.5-0.4,1.7-1.1
			c0.6-1.9,0.2-4.1-1.2-5.6c-0.2-0.3-0.5-0.4-0.8-0.4c-0.4,0-0.6,0.5-0.8,0.8c-0.7,1.8-0.9,3.8-0.7,5.7c0.1,1,0.7,2.2,1.6,2
			c0.4-0.2,0.8-0.5,1-0.9c0.6-1,1-2.2,1.2-3.4"/>
		<path class="st9" d="M476.2,239.8c-0.5,1.1-1,3.3-0.3,4.4c0.5,0.7,1.4,0.9,2.1,0.4l0,0c0.1-0.1,0.3-0.2,0.4-0.4
			c1.1-1.2,1.1-3.3,0.6-4.8c-0.3-1-1.3-3.1-2.6-3c-1.3,0.1-1.8,2.5-1.9,3.5c-0.3,1.6-0.5,3.7,0.3,5.2c1.9,3.4,4.9-1.8,4.3-4
			c-0.1-0.2-0.3-0.3-0.5-0.2c-0.1,0-0.2,0.1-0.2,0.1c-0.3,0.6-0.6,1.2-0.7,1.8c-0.2,0.5-0.4,1-0.7,1.5c-0.9,0.5-1.4,0.4-1.5-0.5
			c-0.3-1.7-0.2-3.4,0.4-5c0.6-1.4,1.1-1,1.6,0.1c0.4,0.8,0.6,1.7,0.5,2.6c0,0.7-0.2,1.3-0.6,1.9c-0.7-0.2-0.9-0.6-0.7-1.2
			c0-0.7,0-1.5,0.1-2.2C476.8,239.7,476.4,239.5,476.2,239.8L476.2,239.8z"/>
		<path class="st9" d="M476.4,235.3c0.4,0,0.7-0.3,0.7-0.7s-0.3-0.7-0.7-0.7c-0.4,0-0.7,0.3-0.7,0.7S476,235.3,476.4,235.3
			L476.4,235.3z"/>
		<path class="st9" d="M477.9,248.3c0.6-0.2,1.1-0.6,1-1.4c-0.1-0.6-0.7-1.1-1.3-1h-0.1C475.9,246.3,476.6,248.7,477.9,248.3
			L477.9,248.3z"/>
		<path class="st9" d="M473.8,248.5c-0.1,0.2,0,0.4,0.2,0.5h0.1c0.2,0,0.5,0,0.6-0.2s0.2-0.4,0.3-0.6c0-0.1,0-0.3,0-0.4
			c-0.1-0.2-0.3-0.4-0.6-0.3c-0.2,0-0.5,0.1-0.6,0.3c-0.2,0.2-0.4,0.4-0.4,0.7s0.3,0.6,0.7,0.6l0,0c0.2,0,0.4-0.2,0.5-0.4"/>
		<path class="st9" d="M473.2,248.3c-0.2,0.6,0.1,1.2,0.7,1.4c0.3,0.1,0.6,0.1,0.9-0.1c1-0.5,1.2-2.4,0-2.9c-1-0.3-2,0.3-2.2,1.3
			c0,0.1,0,0.2-0.1,0.3c0,0.7,0.6,1.4,1.3,1.4c0.4,0,0.7-0.1,1-0.4c0.5-0.5,0-1.5-0.7-1.2c0.1,0.1,0.1,0.2,0.2,0.3
			c0-0.3-0.3-0.6-0.6-0.6C473.6,247.9,473.3,248,473.2,248.3L473.2,248.3z"/>
		<path class="st9" d="M475.8,250c0,0.8-0.8,1.3-1.2,2c-0.1,0.2-0.1,0.5,0,0.7c0.1,0.1,0.3,0.2,0.5,0.1c0.2-0.1,0.3-0.2,0.5-0.3
			c0.4-0.3,0.7-0.6,0.9-1c0.2-0.4,0.1-0.9-0.2-1.2c-0.1,0.2-0.5,0-0.7,0.2v0.1l-0.1,0.6"/>
		<path class="st9" d="M475.2,249.9c-0.3,0.9-1.4,1.3-1.5,2.2c-0.1,0.5,0.3,1.1,0.8,1.1c0.1,0,0.2,0,0.3,0c1.4-0.2,2.6-2.3,1.5-3.4
			c-0.2-0.2-0.5-0.2-0.6,0c-0.2,0.1-0.5,0-0.7,0.3c-0.2,0.4-0.1,0.8,0.1,1.1c0.1,0.1,0.2,0.1,0.3,0l0,0l0,0c0,0,0.4-0.7,0.3-0.6
			c0.2,0,0.4,0,0.5-0.1l-0.5-0.1c0.2,0.3,0.2,0.8-0.2,1l0,0l0,0c-0.2,0.2-0.4,0.3-0.6,0.5c0-0.2,0.3-0.5,0.4-0.7
			c0.3-0.4,0.5-0.9,0.5-1.5c0-0.1-0.1-0.2-0.2-0.2C475.4,249.7,475.3,249.8,475.2,249.9L475.2,249.9z"/>
		<path class="st21" d="M393.3,0v52.4h4V0H393.3z"/>
	</g>
	<path class="st23" d="M469.6,80.1c-0.3-11.7-1.8-19.4-4.8-24.4c-0.8-1.3-1.7-2.4-2.7-3.5c-3.2-3.6-7.7-5.6-12.5-5.6
		c-3.3-0.1-6.6,0.6-9.6,2c-1.9-1.2-4.2-1.8-6.5-1.8c-1.3,0-2.6,0.1-3.8,0.3l-0.1-0.1c-0.3-0.5-0.6-1-1-1.4c-0.1-0.2-0.2-0.3-0.4-0.5
		c-2.9-2-6-3.7-9.3-5.1c-0.6-0.1-1.2-0.2-1.8-0.2c-0.1-0.2-0.2-0.4-0.3-0.6c-6.2-2.2-12.9-2.9-19.5-2.2c-0.1,0.4-0.2,0.9-0.3,1.3
		c-5.1,0.3-10,1.8-14.5,4.3l-0.4,0.2c-0.2-0.4-0.3-0.8-0.5-1.2c-1.6-3.1-4.8-5.1-8.4-5.1c-3.1,0-5.8,1.2-13.8,7.8
		c-0.8-3.3-3.2-5.9-6.4-7.1c-1.7-0.6-3.5-0.9-5.4-0.9c-5.6,0-11.2,0.6-14.2,4.7l0,0l-0.3,0.4c-1.4,2.1-2.1,4.7-2.1,8.5
		c0,4.2-0.1,8.8-0.2,13.5c-0.2,6.4-0.3,13.2-0.3,20.1c0,18,1.2,23.7,5.7,26.7c1.4,0.9,3,1.5,4.7,1.8c0.4,0.1,0.8,0.1,1.3,0.2l0,0
		c-1.1,1.1-2,2.4-2.6,3.8c-0.4,1-0.7,2-0.8,3c-0.1,0.5-0.1,1-0.1,1.5c0,2.6,1,5.2,2.8,7.1c1.5,1.6,3.4,2.7,5.6,3.2
		c1.1,0.3,2.3,0.4,3.4,0.4c0.5,0,0.9,0,1.4-0.1c0.5,2.3,1.8,4.3,3.6,5.7c3.5,2.6,7.8,4,12.2,3.9c3.7,0,7.3-0.9,10.5-2.9
		c0.5-0.3,0.9-0.6,1.3-0.9c3,2.1,6.6,3.2,10.3,3.1c3,0.1,5.9-1.3,7.7-3.7c1.1,0.3,2.3,0.4,3.5,0.4c2.2,0,4.3-0.5,6.3-1.3
		c0.4,0.4,0.8,0.7,1.3,1c2,1.2,4.4,1.7,6.7,1.6c2.7,0.1,5.3-0.8,7.3-2.5c0.1,0.1,0.2,0.2,0.3,0.2c2.7,1.9,5.9,2.9,9.1,2.9
		c5.8,0.1,11.2-2.9,14.3-7.8c1.1,0.2,2.1,0.4,3.2,0.4c3.1,0.1,6.2-1.1,8.6-3.1c2.3-2.1,3.6-5,3.5-8.1c0-2.3-0.6-4.5-1.9-6.4l0,0
		c-0.2-0.3-0.5-0.6-0.7-0.9c-2.3-2.6-5.6-4-9-4c-1,0-2,0.1-2.9,0.3l-0.4,0.1c-0.3-0.8-0.6-1.6-1-2.3l-0.2-0.4
		c-0.5-1-1.2-1.9-1.9-2.8c0,0-1-0.9-2-1.9l-2.5-2.4c0.3-0.2,0.5-0.5,0.8-0.7c0.5-0.3,0.9-0.7,1.4-1.1c0.4,0.6,1.2,1.5,2.1,2.5
		c1.9,2.2,4.5,4.8,6.3,5.9c0.3,0.2,0.7,0.3,1.1,0.4c0.8,0.2,1.7,0.3,2.5,0.3h0.7h2.8c1.4,0,2.8-0.1,4.2-0.4h0.2
		c3.4-0.7,6.2-3,7.5-6.2c0.9-2,1.2-4.5,1.2-8.4v-5.5C469.7,84.3,469.7,82.3,469.6,80.1z M449.5,115.7h0.3c0.2,0.1,0.5,0.2,0.7,0.3
		l0,0c0,0,0,0,0,0.1l0,0C450.2,115.9,449.8,115.8,449.5,115.7L449.5,115.7z"/>
	<path class="st0" d="M468.1,77.9c-0.3-11.5-1.8-19.1-4.7-23.9c-0.4-0.6-0.8-1.2-1.2-1.8c-3.1-4.5-8.2-7.2-13.7-7.2
		c-3.3-0.1-6.5,0.6-9.5,2c-1.9-1.2-4.1-1.8-6.3-1.8c-1.3,0-2.5,0.1-3.8,0.3l0,0l-0.6-0.4c-2.9-2-6-3.7-9.3-5.1
		c-0.7-0.3-1.4-0.5-2.1-0.8c-6.2-2.2-12.9-2.9-19.5-2.2c-4.7,0.5-9.4,1.7-13.8,3.6c-0.5,0.2-0.9,0.5-1.4,0.8v-0.1l0,0l0,0
		c-0.4-0.9-0.8-1.7-1.4-2.5c-1.8-2.2-4.4-3.5-7.2-3.5c-2.8,0-5.2,0.8-13.6,7.7c-0.8-3.2-3.2-5.8-6.3-7c-1.7-0.6-3.5-0.9-5.3-0.9
		c-5.7,0-11.3,0.6-14.3,5c-0.2,0.3-0.4,0.7-0.6,1.1l0,0c-1.1,2.3-1.6,4.7-1.6,7.3c0,4.2-0.1,8.6-0.2,13.2c-0.2,6.3-0.3,13-0.3,19.7
		c0,17.6,1.2,23.3,5.6,26.2c1.8,1.1,3.8,1.7,5.8,1.9l0,0l0,0c-2.2,2.1-3.5,5.1-3.5,8.2c0,2.6,1,5.1,2.8,7c1.5,1.6,3.4,2.7,5.5,3.2
		c1.1,0.3,2.2,0.4,3.4,0.4c0.5,0,0.9,0,1.4-0.1c0.5,2.2,1.7,4.2,3.5,5.6c3.4,2.6,7.7,4,12,3.8c3.6,0,7.2-0.9,10.3-2.8
		c0.5-0.3,0.9-0.6,1.3-0.9c2.9,2.1,6.5,3.1,10.1,3c3,0.1,5.8-1.3,7.5-3.6c3.2,0.8,6.6,0.5,9.6-0.9c0.4,0.4,0.8,0.7,1.2,1
		c2,1.2,4.3,1.7,6.6,1.6c2.6,0.1,5.1-0.8,7.2-2.4l0.3,0.2c2.6,1.9,5.8,2.8,9,2.8c5.7,0.1,11.1-2.8,14.1-7.6c1,0.2,2.1,0.4,3.1,0.4
		c3.1,0.1,6.1-1,8.4-3.1c2.3-2,3.5-5,3.5-8c0-2.6-0.9-5.2-2.6-7.2c-2.2-2.5-5.5-4-8.9-3.9c-1,0-1.9,0.1-2.9,0.3l-0.4,0.1
		c-0.7-2-1.7-3.8-3.1-5.4l0,0c0.3-0.3,0.6-0.6,0.8-0.9l0,0c1.5,2,3.7,3.3,6.2,3.7c1,0.2,2.1,0.3,3.1,0.3c0.5,0,1.4,0,2.7,0
		c1.4,0,2.9-0.1,4.3-0.4c3.3-0.7,6.1-3,7.4-6.1c0.8-2,1.2-4.4,1.2-8.2V84C468.2,82.1,468.1,80,468.1,77.9z M347.2,62.1L347.2,62.1
		L347.2,62.1z"/>
	<path class="st24" d="M346.9,101.9h-1c-1.5,0.1-3.1-0.1-4.4-0.8c-1.4-0.9-2.1-7.5-2.1-19.8c0-6.7,0.1-13.2,0.3-19.5
		c0.1-4.7,0.2-9.1,0.2-13.4c-0.1-1.4,0.2-2.8,0.7-4c0.7-1.1,3.3-1.6,7.9-1.6c0.8,0,1.7,0.1,2.5,0.3c1.2,0.4,1.8,1.6,1.8,3.5V54
		c0,2.3,0.3,3.4,0.9,3.4h0.5c0.9-0.4,1.7-1,2.4-1.7l4.5-3.8c7.1-6,11.2-9,12.4-9c0.5,0,0.9,0.2,1.2,0.6c0.3,0.4,0.5,0.9,0.5,1.5
		c0,0.8-0.3,1.6-0.7,2.3c-0.7,1.3-4.3,4.4-10.8,9.2c-1.4,0.9-2.2,2.4-2.2,4.1c0,1,0.3,2.1,0.7,3l3,6.2c3.8,7.9,7.4,14.7,10.7,20.2
		c1.2,2,1.8,3.5,1.8,4.4c0,0.6-0.2,1.2-0.6,1.6c-0.6,0.5-1.1,1-1.8,1.4c-1.8,1.3-3.2,1.9-4.2,1.9c-0.8,0-1.5-0.3-2.1-0.9
		c-1.3-1.4-3.3-4.8-6-10.3c-1.7-3.6-4.2-9-7.3-16c-1.3-2.9-2.3-4.4-3-4.4c-0.6,0-0.8,1.4-0.8,4.1l0.1,25c0,2-0.3,3.3-0.9,4
		S349,101.9,346.9,101.9z"/>
	<path class="st24" d="M456.8,58c2.2,3.5,3.4,10.2,3.6,20.1c0,2.1,0.1,4,0.1,6v5.6c0.1,1.7-0.1,3.5-0.6,5.1c-0.3,0.9-1.1,1.5-2,1.6
		s-1.7,0.2-2.6,0.2h-2.6c-0.7,0-1.3-0.1-1.9-0.2c-0.8-0.1-1.4-0.6-1.7-1.3c-0.2-0.6-0.4-1.3-0.3-2c0-0.5,0.1-1.9,0.2-4.2
		c0.4-5.4,0.5-10,0.5-14c0-3.3-0.3-6.6-0.9-9.8c-0.7-3.6-2.2-5.5-4.5-5.5c-2.5,0-4.4,1.9-5.8,5.7c-0.7,2.3-1,4.7-0.9,7.2
		c0,3.2,0.1,7,0.4,11.5c0.2,3.1,0.3,5.7,0.3,7.7c0.1,1.2-0.1,2.4-0.7,3.5c-0.7,0.8-1.7,1.3-2.8,1.3c-1.6,0.2-3.3,0.3-4.9,0.3
		s-2.6-0.4-2.9-1.3c-0.3-0.8-0.5-1.7-0.5-2.6c0-3.8,0.2-15.9,0.5-36.5c0-1.6,0.6-2.7,1.6-3c1.4-0.5,2.9-0.7,4.3-0.6
		c2.2,0,3.6,1.3,4.2,3.8c0.2,1,0.5,1.5,0.8,1.5s0.7-0.5,1.4-1.4c1.8-2.7,4.9-4,9.4-4C451.8,52.7,454.6,54.5,456.8,58z"/>
	<path class="st24" d="M448.3,120.5c-0.5,0-1.1-0.1-1.6-0.2c-0.6-0.2-1.2-0.5-1.7-1c-0.4-0.4-0.7-1.1-0.6-1.7c0-0.1,0-0.2,0-0.4
		c0.1-0.8,0.5-1.6,1.1-2.2s1.3-0.9,2.1-1.1c0.4-0.1,0.8-0.1,1.1-0.1c1.2-0.1,2.3,0.4,3,1.3c0.5,0.6,0.7,1.3,0.7,2.1
		c0,0.8-0.3,1.7-0.9,2.2C450.7,120.2,449.5,120.6,448.3,120.5z M448.3,119c0.5,0,1-0.2,1.4-0.4c0.4-0.3,0.7-0.7,0.8-1.2
		c0.1-0.2,0.1-0.4,0.1-0.6c0-0.3-0.1-0.6-0.2-0.8c-0.4-0.6-1-0.9-1.7-0.8c-0.7,0-1.4,0.3-1.8,0.8c-0.3,0.4-0.5,0.9-0.5,1.5
		c0,0.5,0.2,1,0.5,1.3C447.4,118.9,447.9,119,448.3,119L448.3,119z"/>
	<path class="st24" d="M351.1,120.5c-0.5,0-1.1-0.1-1.6-0.2c-0.6-0.2-1.2-0.5-1.7-1c-0.5-0.6-0.7-1.3-0.6-2c0.1-0.8,0.5-1.6,1.1-2.2
		s1.3-0.9,2.1-1.1c0.4-0.1,0.8-0.1,1.1-0.1c1.2-0.1,2.3,0.4,3.1,1.3c0.5,0.6,0.7,1.3,0.7,2.1c0,0.8-0.3,1.7-0.9,2.2
		C353.4,120.2,352.3,120.6,351.1,120.5z M351.1,119c0.5,0,1-0.2,1.4-0.4c0.4-0.3,0.7-0.7,0.8-1.2c0.1-0.2,0.1-0.4,0.1-0.6
		c0-0.3-0.1-0.6-0.2-0.8c-0.4-0.6-1-0.9-1.7-0.8c-0.7,0-1.4,0.3-1.8,0.8c-0.3,0.4-0.5,0.9-0.5,1.5c0,0.5,0.2,1,0.5,1.3
		C350.2,118.9,350.6,119,351.1,119L351.1,119z"/>
	<path class="st24" d="M368,129.8c-2.6,0.1-5.1-0.6-7.2-2.1c-0.5-0.3-0.8-0.9-0.8-1.5c0-0.3,0.1-0.6,0.3-0.8
		c0.2-0.2,0.5-0.3,0.8-0.3s0.6,0.1,0.9,0.2c1.6,0.8,3.3,1.2,5.1,1.2c4,0,6.1-1.1,6.1-3.4c0-1.4-1.1-2.7-3.4-3.7
		c-2.1-1-3.7-1.7-4.8-2.3c-2.5-1.2-4.3-3.5-4.9-6.1c-0.1-0.6-0.2-1.2-0.2-1.8c-0.1-3,1.4-5.8,3.9-7.4c1.8-1.2,3.9-1.7,6-1.7
		c2.4-0.1,4.7,0.6,6.6,2.1c0.5,0.4,0.7,0.9,0.7,1.5c0,0.3-0.1,0.6-0.3,0.8c-0.2,0.2-0.5,0.3-0.7,0.3c-0.3,0-0.6-0.1-0.8-0.2
		c-1.4-0.8-3-1.2-4.6-1.2c-2.1,0-3.5,0.5-4.4,1.6c-0.5,0.6-0.8,1.4-0.8,2.2c0,0.4,0.1,0.8,0.2,1.2c0.3,1.1,1,2.1,2,2.7
		c1.3,0.9,2.7,1.6,4.1,2.3c2.1,0.9,3.9,2.4,5.3,4.2c0.8,1.1,1.2,2.5,1.2,3.9c0,2.8-1.4,5.1-4.1,6.7
		C372.4,129.3,370.2,129.9,368,129.8z"/>
	<path class="st24" d="M389.7,129.2c-5.4,0-8.3-2.9-8.6-8.7c0-0.5,0-1.5,0-3.2c0-1-0.3-1.4-1-1.4c-1,0-1.4-0.4-1.4-1.2
		c0-0.6,0.4-1,1.1-1c0.4,0,0.8-0.1,1.2-0.2c0.3-0.2,0.4-0.6,0.5-1.2l0.3-6.1c0-0.7,0.2-1.3,0.6-1.8c0.3-0.4,1.2-0.6,2.4-0.6
		c0.7,0,1.4,0,2.1,0.1c0.4,0.1,0.7,0.4,0.9,0.8c0.1,0.4,0.2,0.7,0.1,1.1v6.1c0,0.4,0,0.8,0.2,1.2c0.2,0.4,0.8,0.6,1.7,0.7
		c0.5,0,1.1,0.2,1.4,0.6c0.1,0.2,0.2,0.4,0.2,0.6c0,0.4-0.5,0.7-1.4,0.8l-0.9,0.1c-0.4,0-0.8,0.2-1.1,0.4c-0.3,0.2-0.4,1-0.4,2.3
		v1.9c0,3.3,1,5.4,2.9,6.4c0.5,0.2,0.9,0.7,0.9,1.2C391.2,128.8,390.7,129.2,389.7,129.2z"/>
	<path class="st24" d="M400.6,125.9c-1.1,0-2.2-0.3-3.2-0.7c-1.4-0.7-2.6-1.8-3.3-3.2c-0.9-1.6-1.3-3.5-1.2-5.3c0-0.4,0-0.8,0-1.2
		c0.1-2.5,0.9-4.9,2.1-7.1c0.9-1.6,2.4-2.8,4.1-3.5c0.7-0.3,1.5-0.4,2.3-0.4c2.6,0,4.6,1.3,6,4c1,2.1,1.5,4.4,1.4,6.7
		c0.1,2.5-0.5,5-1.8,7.1C405.7,124.6,403.3,125.9,400.6,125.9z M400.6,121.1c1.1,0,2.1-0.5,2.8-1.4c1-1.1,1.5-2.5,1.7-4
		c0.1-0.6,0.2-1.3,0.2-1.9c0-0.9-0.1-1.8-0.4-2.7c-0.7-1.8-1.8-2.7-3.3-2.7s-2.7,0.9-3.6,2.6c-0.7,1.5-1,3.1-0.9,4.7
		c-0.1,1.4,0.3,2.9,1.1,4.1C398.7,120.5,399.6,121,400.6,121.1L400.6,121.1z"/>
	<path class="st24" d="M414.7,127.2c-0.8,0.1-1.7-0.1-2.5-0.4c-0.4-0.2-0.6-0.7-0.6-1.2c0-0.2,0-0.5,0-0.8c0.1-2.6,0.2-5.3,0.3-7.9
		c0.1-3.1,0.2-6.5,0.4-10.3c-0.1-0.8,0.5-1.5,1.3-1.6c0.6-0.1,1.1-0.2,1.7-0.2c0.8,0,1.3,0.9,1.7,2.6c0.1,0.3,0.2,0.5,0.3,0.5
		c0.1,0,0.3-0.2,0.5-0.5c1.3-2.2,2.9-3.3,4.8-3.3c0.4,0,0.7,0.1,1,0.3c0.4,0.3,0.6,0.7,0.5,1.2v0.4c0,0.8-0.7,1.4-2.1,1.7
		c-2.1,0.5-3.5,2.3-4.2,5.5c-0.4,2-0.7,4-0.7,6.1c0,0.8,0,1.5,0.1,2.3c0.1,1.5,0.2,2.6,0.2,3.5C417.6,126.4,416.6,127.2,414.7,127.2
		z"/>
	<path class="st24" d="M431.1,127.8c-1.6,0-3.2-0.4-4.5-1.4c-1.4-1-2.4-2.4-2.9-4c-0.7-1.7-1-3.6-1-5.4c0-2,0.4-4.1,1.1-6
		c0.6-1.8,1.7-3.3,3-4.6c1.5-1.4,3.4-2.2,5.5-2.1c1.7,0,3.2,0.7,4.3,1.9c1.4,1.7,2.2,3.8,2.1,6.1c0,1.9-1.2,3.2-3.6,3.9
		c-1.7,0.5-3.4,1-5.1,1.6c-0.6,0.1-1.1,0.4-1.5,0.8c-0.1,0.1-0.1,0.3-0.1,0.4c0,0.4,0.1,0.8,0.2,1.1c0.6,2.6,1.9,3.9,3.7,3.9
		c2.4,0,4-0.8,5-2.3c0.6-1,1.2-1.4,1.8-1.4c0.3,0,0.6,0.2,0.7,0.4c0.1,0.1,0.1,0.3,0.1,0.4c0,0.5-0.2,1-0.5,1.5
		C437.5,126.1,434.8,127.8,431.1,127.8z M428.7,115.6c2.1-0.5,4.1-1.2,6-2.1c0.7-0.2,1.2-0.9,1.3-1.6c0-0.7-0.1-1.4-0.3-2
		c-0.2-1-0.7-1.9-1.4-2.6c-0.4-0.3-0.9-0.6-1.5-0.6c-0.2,0-0.5,0-0.7,0.1c-1,0.4-1.9,1.1-2.5,2.1c-0.8,1.5-1.3,3.3-1.4,5
		c0,0.2,0,0.4,0,0.6s0,0.5,0.1,0.7C428.2,115.5,428.4,115.6,428.7,115.6z"/>
	<path class="st25" d="M420.9,60.4c-0.1-0.3-0.2-0.6-0.3-1c-0.8-2.1-1.9-4.2-3.2-6c-0.6-0.9-1.3-1.7-2.1-2.4l-0.1-0.1
		c-1.4-1.1-2.9-2.1-4.5-2.8s-3.2-1.2-4.9-1.3c-0.4,0-0.8-0.1-1.2-0.1h-0.8c-0.9,0-1.8,0.1-2.6,0.2l0,0c-1,0.2-1.9,0.4-2.9,0.7
		c-2.7,0.8-5.4,1.9-7.8,3.4c-1,0.6-2,1.3-2.9,2.1c-3.7,3-6.4,7.1-7.6,11.8c-0.3,0.9-0.5,1.8-0.6,2.7c-0.7,4.2-0.7,8.5,0,12.7
		c0.1,0.4,0.2,0.9,0.3,1.3c0.6,2.4,1.5,4.8,2.6,7c2.1,3.9,5.3,7,9.3,8.9c1.1,0.3,2.2,0.6,3.3,0.8c2.5,0.5,5,0.6,7.5,0.2
		c3.4-0.5,6.6-1.9,9.3-4l0.2-0.2l0.3-0.2c2.2-1.8,4.1-4,5.6-6.4c0.2-0.3,0.4-0.6,0.6-1c2.3-4,3.7-8.5,4-13.1
		c0.1-1.1,0.1-2.2,0.1-3.2C422.5,67.1,422,63.7,420.9,60.4z M400.1,86.8c-3.3,0.3-6.2-1.3-8.9-4.8c-1.2-2.1-1.9-4.4-2-6.9
		c0-2.4,0.4-4.8,1.2-7c1.6-3.9,5-6.7,9.1-7.7c3.4-1,6.3-0.6,8.5,1.3c0.8,0.6,1.5,1.4,2,2.2c0.2,0.3,0.5,0.7,0.7,1.1
		c1.2,2.7,1.6,5.7,1.1,8.6c-0.4,2.8-1.5,5.5-3.1,7.8c-0.2,0.3-0.4,0.5-0.6,0.7c-1.5,1.7-3.4,3.1-5.5,4
		C401.8,86.5,401,86.7,400.1,86.8z"/>
	<path class="st26" d="M422.6,70.4c0,1,0,2.1-0.1,3.2c-0.4,4.6-1.7,9-4,13c-0.2,0.3-0.4,0.6-0.6,1c-3.4,5.1-7.4,8.4-12,10
		c3.4-2.1,6.3-5,8.4-8.3c0.2-0.3,0.4-0.6,0.6-1c2.3-4,3.6-8.4,4-13c0.1-1.1,0.1-2.2,0.1-3.2c0-3.4-0.6-6.8-1.6-10
		c-0.1-0.3-0.2-0.6-0.3-1c-0.8-2.1-1.9-4.2-3.2-6c-0.6-0.9-1.3-1.7-2.1-2.4l-0.1-0.1c-1.4-1.1-2.9-2.1-4.5-2.8
		c-1.5-0.7-3.2-1.2-4.9-1.4c-0.4,0-0.8-0.1-1.2-0.1c-1.1,0-2.3,0-3.4,0.2l0,0c-1,0.2-1.9,0.4-2.9,0.7c-1.1,0.3-2.2,0.7-3.3,1.1
		c2.2-1.2,4.4-2.1,6.8-2.8c0.9-0.3,1.9-0.5,2.9-0.7l0,0c1.1-0.2,2.3-0.3,3.4-0.2c0.4,0,0.8,0,1.2,0.1c1.7,0.2,3.4,0.6,4.9,1.3
		c1.6,0.7,3.1,1.7,4.5,2.8l0.1,0.1c0.7,0.8,1.4,1.6,2,2.4c1.4,1.8,2.4,3.8,3.2,6c0.1,0.3,0.2,0.6,0.3,1
		C422.1,63.7,422.6,67,422.6,70.4z"/>
</g>
</svg>
