<svg xmlns="http://www.w3.org/2000/svg" viewBox="0 0 1279.76 181.61"><defs><style>.cls-1{fill:#fff;}</style></defs><title>border</title><g id="Layer_2" data-name="Layer 2"><g id="Layer_1-2" data-name="Layer 1"><path class="cls-1" d="M.22,181.61h15V43.28l-.06-.45c0-.14-1.63-14.24,5.41-22.19C23.94,16.85,28.88,15,35.69,15V0C24.45,0,15.56,3.63,9.27,10.77c-10.6,12.06-9.39,30-9,33.4Z"/><path class="cls-1" d="M1098.11,15.11c.75,0,76-3.59,124.67,42.5,27.85,26.37,42,64.1,42,112.14v11.86h15V169.75c0-52.37-15.74-93.79-46.76-123.12C1180.42-3.07,1103.17-.16,1097.49.12H187.27v15h910.84Z"/></g></g></svg>