<?xml version="1.0" encoding="utf-8"?>
<!-- Generator: Adobe Illustrator 24.0.2, SVG Export Plug-In . SVG Version: 6.00 Build 0)  -->
<svg version="1.1" id="Layer_1" xmlns="http://www.w3.org/2000/svg" xmlns:xlink="http://www.w3.org/1999/xlink" x="0px" y="0px"
	 viewBox="0 0 113.8 24" style="enable-background:new 0 0 113.8 24;" xml:space="preserve">
<style type="text/css">
	.st0{fill:#FFFFFF;}
</style>
<title>artwork-1-social-media-icon</title>
<g id="Layer_2_1_">
</g>
<g>
	<g id="Layer_1-2-2">
		<path class="st0" d="M41.9,0c-6.6,0-12,5.4-12,12s5.4,12,12,12s12-5.4,12-12S48.6,0,41.9,0z M44.9,8.3h-0.9
			c-0.5-0.1-1,0.3-1.1,0.9c0,0,0,0,0,0c0,0.1,0,0.1,0,0.2v1.3h2l-0.3,2h-1.7v4.9h-2.2v-4.9h-1.8v-2h1.8V9.1
			c-0.1-1.4,0.8-2.6,2.2-2.7c0,0,0,0,0,0c0.1,0,0.3,0,0.4,0c0.5,0,1,0.1,1.6,0.1L44.9,8.3z"/>
	</g>
	<g id="Layer_1-2-3">
		<path class="st0" d="M12,0C5.4,0,0,5.4,0,12s5.4,12,12,12s12-5.4,12-12S18.6,0,12,0z M17.6,14.3c0,0.5-0.1,0.9-0.3,1.4
			c-0.3,0.7-0.9,1.3-1.6,1.6c-0.4,0.2-0.9,0.2-1.4,0.3H9.7c-0.5,0-0.9-0.1-1.4-0.3C7.6,17,7,16.4,6.7,15.7c-0.2-0.4-0.2-0.9-0.3-1.4
			V9.7c0-0.5,0.1-0.9,0.3-1.4C7,7.6,7.6,7,8.3,6.7c0.4-0.2,0.9-0.2,1.4-0.3h4.6c0.5,0,0.9,0.1,1.4,0.3C16.4,7,17,7.6,17.3,8.4
			c0.2,0.4,0.2,0.9,0.3,1.4V12C17.6,13.5,17.6,13.7,17.6,14.3z"/>
		<path class="st0" d="M16.4,8.7c-0.1-0.2-0.2-0.5-0.4-0.6c-0.2-0.2-0.4-0.3-0.6-0.4c-0.3-0.1-0.7-0.2-1-0.2H9.8
			c-0.3,0-0.7,0.1-1,0.2C8.5,7.7,8.2,7.8,8,8C7.8,8.2,7.7,8.4,7.6,8.7C7.5,9,7.4,9.3,7.4,9.7v4.5c0,0.4,0.1,0.7,0.2,1.1
			c0.2,0.5,0.6,0.9,1.1,1.1c0.3,0.1,0.7,0.2,1,0.2h4.5c0.3,0,0.7-0.1,1-0.2c0.2-0.1,0.5-0.2,0.6-0.4c0.2-0.2,0.3-0.4,0.4-0.6
			c0.1-0.3,0.2-0.7,0.2-1V9.7C16.5,9.4,16.4,9,16.4,8.7z M12,14.9c-1.6,0-2.9-1.3-2.9-2.9s1.3-2.9,2.9-2.9s2.9,1.3,2.9,2.9
			S13.6,14.9,12,14.9L12,14.9z M15,9.7c-0.4,0-0.7-0.3-0.7-0.7c0-0.4,0.3-0.7,0.7-0.7c0.4,0,0.7,0.3,0.7,0.7
			C15.7,9.4,15.4,9.7,15,9.7C15,9.7,15,9.7,15,9.7z"/>
		<circle class="st0" cx="12" cy="12" r="1.9"/>
	</g>
	<g id="Layer_1-2-4">
		<path class="st0" d="M101.8,0c-6.6,0-12,5.4-12,12c0,6.6,5.4,12,12,12c6.6,0,12-5.4,12-12C113.8,5.4,108.5,0,101.8,0L101.8,0z
			 M106.8,7.2c0.2,0,0.3,0,0.5,0.1c0.1,0.1,0.2,0.2,0.2,0.3c0,0.2,0,0.3,0,0.5c-0.2,1.9-1,6.5-1.4,8.6c-0.2,0.9-0.5,1.2-0.8,1.2
			c-0.7,0.1-1.2-0.5-1.9-0.9c-1-0.7-1.7-1.1-2.7-1.8s-0.4-1.2,0.3-1.9c0.2-0.2,3.3-3,3.3-3.2c0-0.1,0-0.2-0.1-0.2
			c-0.1,0-0.2,0-0.3,0c-0.1,0-1.8,1.1-5.1,3.3c-0.4,0.3-0.8,0.5-1.3,0.5c-0.6-0.1-1.3-0.2-1.9-0.4c-0.8-0.3-1.3-0.4-1.3-0.8
			c0-0.2,0.3-0.4,0.9-0.7c3.5-1.5,5.8-2.5,7-3C105.6,7.5,106.3,7.2,106.8,7.2L106.8,7.2z"/>
	</g>
	<g id="Layer_1-2-5">
		<path class="st0" d="M71.9,0c-6.6,0-12,5.4-12,12s5.4,12,12,12s12-5.4,12-12S78.5,0,71.9,0z M76.8,11.1c-0.7,0-1.4-0.2-2-0.4
			c-0.3-0.1-0.5-0.3-0.8-0.4v4.1c0,0.7-0.3,1.3-0.6,1.8c-0.6,0.9-1.7,1.5-2.8,1.5c-0.7,0-1.3-0.1-1.9-0.5c-1-0.6-1.6-1.6-1.7-2.7
			v-0.7c0.2-1.9,1.9-3.3,3.8-3.2c0,0,0,0,0,0h0.3v2.1c-0.5-0.2-1-0.1-1.4,0.2c-0.3,0.2-0.5,0.5-0.6,0.8C69,14,68.9,14.2,69,14.5
			c0.1,0.9,1,1.5,1.8,1.3c0.5-0.1,0.9-0.3,1.1-0.7c0.1-0.1,0.2-0.3,0.2-0.5c0-0.8,0-1.7,0-2.5V6.4h1.8c0,0.7,0.3,1.5,0.8,2
			c0.6,0.5,1.3,0.8,2,0.8L76.8,11.1z"/>
	</g>
</g>
</svg>
