<?xml version="1.0" encoding="utf-8"?>
<!-- Generator: Adobe Illustrator 24.0.2, SVG Export Plug-In . SVG Version: 6.00 Build 0)  -->
<svg version="1.1" id="Layer_1" xmlns="http://www.w3.org/2000/svg" xmlns:xlink="http://www.w3.org/1999/xlink" x="0px" y="0px"
	 viewBox="0 0 500 750" style="enable-background:new 0 0 500 750;" xml:space="preserve">
<style type="text/css">
	.st0{fill:#78CFFF;}
	.st1{fill:url(#SVGID_1_);}
	.st2{fill:#E89E36;}
	.st3{fill:#FFCD6D;}
	.st4{fill:#FDE9DF;}
	.st5{fill:url(#SVGID_2_);}
	.st6{fill:url(#SVGID_3_);}
	.st7{fill:#2167D8;}
	.st8{fill:#4080FF;}
	.st9{fill:url(#SVGID_4_);}
	.st10{fill:url(#SVGID_5_);}
	.st11{fill:url(#SVGID_6_);}
	.st12{fill:none;}
	.st13{fill:#504B66;}
	.st14{clip-path:url(#SVGID_8_);}
	.st15{fill:#FFFFFF;}
	.st16{clip-path:url(#SVGID_10_);}
	.st17{clip-path:url(#SVGID_12_);}
	.st18{clip-path:url(#SVGID_14_);}
	.st19{fill:#55B9E5;}
	.st20{fill:#EFEAE4;}
	.st21{fill:#EAE4D8;}
	.st22{fill:#43B3FF;}
	.st23{fill:url(#SVGID_15_);}
	.st24{fill:url(#SVGID_16_);}
	.st25{fill:url(#SVGID_17_);}
	.st26{fill:url(#SVGID_18_);}
	.st27{fill:url(#SVGID_19_);}
	.st28{fill:url(#SVGID_20_);}
	.st29{fill:url(#SVGID_21_);}
	.st30{clip-path:url(#SVGID_23_);}
	.st31{clip-path:url(#SVGID_25_);}
	.st32{clip-path:url(#SVGID_27_);}
	.st33{clip-path:url(#SVGID_29_);}
	.st34{clip-path:url(#SVGID_31_);}
	.st35{clip-path:url(#SVGID_33_);}
	.st36{clip-path:url(#SVGID_35_);}
	.st37{clip-path:url(#SVGID_37_);}
	.st38{clip-path:url(#SVGID_39_);}
	.st39{clip-path:url(#SVGID_41_);}
</style>
<title>background</title>
<g id="BACKGROUND">
	<rect y="0.1" class="st0" width="500" height="500"/>
</g>
<g id="OBJECTS">
	<g>
		<g>
			
				<linearGradient id="SVGID_1_" gradientUnits="userSpaceOnUse" x1="438.7727" y1="460.26" x2="438.7727" y2="389.6998" gradientTransform="matrix(1 0 0 -1 0 752)">
				<stop  offset="0" style="stop-color:#FFFFFF"/>
				<stop  offset="0.86" style="stop-color:#FFFFFF;stop-opacity:0"/>
			</linearGradient>
			<path class="st1" d="M431.2,348.8c0.1-6.6,1.8-13.2,5-19c7.1-12.5,8.5-22,8.4-27.7c-0.1-6.2-1.8-9.5-1.8-9.5l1.5-0.8
				c0.1,0.1,2,3.6,2,10.2c0.1,6-1.3,15.8-8.6,28.8c-5.5,9.6-5.4,21.2-4,30.6c0.1,0.5-0.2,0.9-0.7,1c0,0,0,0,0,0l0,0
				c-0.5,0.1-0.9-0.2-1-0.7C431.4,357.4,431.1,353.1,431.2,348.8z"/>
			<g>
				<path class="st2" d="M464.2,239.9c1.7,1.2,3.2,2.6,4.6,4.1c2.8,3.2,4.8,7,5.9,11.1c1,3.6,1.3,7.3,0.9,11c-0.1,0.7-0.2,1.4-0.3,2
					c-0.5,3.2-1.6,6.3-3.1,9.2c-2.4,4.6-6.1,8.5-10.6,11.1c-4,2.3-8.5,3.5-13.1,3.4C472.3,274.8,468.7,252.2,464.2,239.9z"/>
				<path class="st3" d="M424.3,269c-0.5-3.2-0.4-6.4,0.1-9.6c0.1-0.6,0.3-1.3,0.4-1.9c0.8-3.6,2.3-7,4.4-10
					c2.4-3.5,5.5-6.4,9.1-8.5c4.9-2.9,10.7-3.9,16.3-3c3.4,0.6,6.7,1.9,9.5,3.9c4.5,12.3,8,34.9-15.8,51.9c0.1,2.3,0.2,4.3,0.2,4.3
					l-2.2-0.4l-0.4-1.9l-1.8,2.5l-1.4-0.2l-0.2-2.8l-0.6,0.8l-0.9,1.7l-1.2-0.2l2.1-5c-4.6-1.5-8.7-4.3-11.8-8.1
					C427.1,278.7,425,274,424.3,269z"/>
			</g>
			<path class="st4" d="M453.8,240.5c-0.2-0.5-0.7-0.8-1.2-0.8c-6.4,0.4-12.3,3.2-16.7,7.8c-4.2,4.4-6.4,10.4-6,16.4
				c0,0.7,0.6,1.2,1.3,1.2s1.2-0.6,1.2-1.3c-0.4-5.4,1.6-10.7,5.4-14.5c4-4.1,9.4-6.6,15.1-7c0.7,0,1.2-0.6,1.2-1.3c0,0,0,0,0,0
				C453.9,240.8,453.9,240.6,453.8,240.5z"/>
		</g>
		<g>
			
				<linearGradient id="SVGID_2_" gradientUnits="userSpaceOnUse" x1="121.1368" y1="598.5" x2="121.1368" y2="548.7335" gradientTransform="matrix(1 0 0 -1 0 752)">
				<stop  offset="0" style="stop-color:#FFFFFF"/>
				<stop  offset="0.86" style="stop-color:#FFFFFF;stop-opacity:0"/>
			</linearGradient>
			<path class="st5" d="M126.5,193.8c-0.1-4.7-1.3-9.3-3.5-13.4c-5-8.8-6-15.5-5.9-19.6c-0.1-2.3,0.4-4.6,1.3-6.7l-1.1-0.6
				c-1,2.3-1.5,4.7-1.4,7.2c-0.1,4.2,0.9,11.2,6.1,20.3c3.8,6.8,3.8,14.9,2.8,21.6c0,0.3,0.2,0.6,0.5,0.7l0,0c0.3,0,0.6-0.2,0.7-0.5
				C126.4,199.8,126.6,196.8,126.5,193.8z"/>
			<g>
				<path class="st2" d="M103.2,117c-1.2,0.8-2.3,1.8-3.3,2.9c-2,2.3-3.4,4.9-4.1,7.8c-0.7,2.5-0.9,5.2-0.6,7.8c0,0.5,0.1,1,0.2,1.4
					c0.4,2.3,1.1,4.4,2.2,6.5c1.7,3.3,4.3,6,7.5,7.9c2.8,1.6,6,2.5,9.3,2.4C97.5,141.6,100.1,125.6,103.2,117z"/>
				<path class="st3" d="M131.4,137.4c0.3-2.2,0.3-4.5-0.1-6.8c-0.1-0.4-0.2-0.9-0.3-1.3c-0.6-2.5-1.6-4.9-3.1-7
					c-1.7-2.5-3.9-4.5-6.4-6c-3.5-2-7.5-2.8-11.5-2.2c-2.4,0.4-4.7,1.4-6.7,2.8c-3.2,8.7-5.7,24.6,11.2,36.6
					c-0.1,1.6-0.2,3.1-0.2,3.1l1.5-0.3l0.3-1.3l1.3,1.8l1-0.2l0.1-1.9l0.4,0.6l0.6,1.2l0.8-0.1l-1.5-3.5c3.3-1,6.2-3,8.3-5.7
					C129.5,144.3,130.9,141,131.4,137.4z"/>
			</g>
			<path class="st4" d="M110.6,117.4c0.1-0.3,0.5-0.6,0.9-0.5c4.5,0.3,8.7,2.3,11.8,5.5c3,3.1,4.5,7.3,4.3,11.6
				c0,0.5-0.5,0.9-0.9,0.8c-0.5,0-0.9-0.5-0.8-0.9c0.3-3.8-1.1-7.5-3.7-10.3c-2.8-2.9-6.6-4.7-10.7-5c-0.5,0-0.9-0.5-0.8-0.9
				c0,0,0,0,0,0C110.5,117.5,110.5,117.4,110.6,117.4z"/>
		</g>
		<g>
			<g>
				
					<linearGradient id="SVGID_3_" gradientUnits="userSpaceOnUse" x1="375.9911" y1="601.71" x2="375.9911" y2="545.7044" gradientTransform="matrix(1 0 0 -1 0 752)">
					<stop  offset="0" style="stop-color:#FFFFFF"/>
					<stop  offset="0.86" style="stop-color:#FFFFFF;stop-opacity:0"/>
				</linearGradient>
				<path class="st6" d="M370.9,195.7c-0.2-5.2,0.9-10.4,3.2-15.1c5.1-10.1,5.8-17.6,5.6-22.2c0-2.6-0.7-5.1-1.8-7.4l1.2-0.7
					c0.1,0.1,1.7,2.8,2,7.9c0.3,4.7-0.4,12.5-5.7,23c-3.9,7.8-3.5,16.9-1.9,24.3c0.1,0.4-0.1,0.7-0.5,0.8c0,0,0,0,0,0l0,0
					c-0.4,0.1-0.7-0.2-0.8-0.5c0,0,0,0,0,0C371.4,202.5,371,199.1,370.9,195.7z"/>
				<g>
					<path class="st7" d="M401.5,120.3c-1-3.2-2.7-6.1-5-8.5c-2.2-2.2-4.8-3.9-7.8-4.9c-2.2-0.8-4.6-1.1-6.9-1
						c2.3,1,4.3,2.5,6.1,4.3c2.3,2.4,4,5.3,5,8.5c0.9,2.8,1.3,5.7,1.1,8.6c0,0.5-0.1,1.1-0.1,1.6c-0.3,2.5-1,5-2.1,7.3
						c-1.7,3.7-4.5,6.9-7.9,9.2c-2.9,1.9-6.2,3-9.7,3.1c1,0.4,2,0.8,3,1.1l-1.5,4l0.9,0.1l0.6-1.4l0.4-0.7l0.3,2.2l1.1,0.1l1.4-2.1
						l0.4,1.5l1.7,0.2c0,0-0.1-1.6-0.3-3.4h0.1c3.6-0.1,7.1-1.2,10.1-3.2c3.4-2.3,6.2-5.4,7.9-9.2c1.1-2.3,1.8-4.8,2.1-7.3
						c0.1-0.6,0.1-1.1,0.1-1.6C402.8,126,402.4,123.1,401.5,120.3z"/>
					<path class="st8" d="M391.7,136.2c1.1-2.3,1.8-4.8,2.1-7.3c0.1-0.6,0.1-1.1,0.1-1.6c0.2-2.9-0.2-5.8-1.1-8.6
						c-1-3.2-2.7-6.1-5-8.5c-1.7-1.8-3.8-3.2-6.1-4.3c-3.4,0.2-6.7,1.2-9.5,3.1c-2.8,1.8-5.1,4.2-6.9,7c-1.5,2.5-2.5,5.2-3.1,8
						c-0.1,0.5-0.2,1-0.2,1.5c-0.3,2.5-0.2,5.1,0.3,7.5c0.7,3.9,2.5,7.6,5.2,10.6c1.8,2,4.1,3.7,6.5,4.8c3.4-0.2,6.8-1.2,9.7-3.1
						C387.3,143.1,390,139.9,391.7,136.2z"/>
				</g>
			</g>
			<path class="st4" d="M380.1,110.2c-0.3-0.3-0.7-0.5-1.1-0.4c-4.8,1.4-8.9,4.6-11.5,8.9c-2.5,4.1-3.2,9.1-1.8,13.7
				c0.2,0.5,0.8,0.7,1.3,0.5c0.4-0.2,0.6-0.6,0.6-1c-1.2-4.1-0.6-8.5,1.6-12.1c2.3-3.9,6-6.7,10.4-8c0.5-0.2,0.8-0.7,0.7-1.2
				C380.2,110.4,380.1,110.3,380.1,110.2z"/>
		</g>
		<g>
			<g>
				
					<linearGradient id="SVGID_4_" gradientUnits="userSpaceOnUse" x1="57.5178" y1="415.91" x2="57.5178" y2="365.5699" gradientTransform="matrix(1 0 0 -1 0 752)">
					<stop  offset="0" style="stop-color:#FFFFFF"/>
					<stop  offset="0.86" style="stop-color:#FFFFFF;stop-opacity:0"/>
				</linearGradient>
				<path class="st9" d="M65.1,376.4c-0.7-4.8-2.6-9.4-5.4-13.4c-6.3-8.5-8.3-15.2-8.8-19.4c-0.4-2.4-0.2-4.8,0.4-7.1l-1.2-0.5
					c-0.7,2.5-0.9,5.1-0.5,7.6c0.5,4.4,2.5,11.4,9,20.1c4.9,6.5,6,14.9,5.8,21.9c0,0.3,0.3,0.6,0.6,0.7l0,0c0.4,0,0.7-0.3,0.7-0.6
					C65.7,382.7,65.6,379.5,65.1,376.4z"/>
				<g>
					<path class="st7" d="M53.7,333.6c-3.3,0.5-6.7,0.1-9.8-1.2c-3.5-1.5-6.6-4-8.8-7.1c-1.4-1.9-2.4-4.1-3.1-6.4
						c-0.2-0.5-0.3-1-0.4-1.5c-0.6-2.6-0.8-5.4-0.4-8.1c0.4-3.1,1.5-6,3.2-8.6c1.2-1.8,2.8-3.4,4.5-4.7c-0.5,0.1-1,0.2-1.5,0.4
						c-1.1,0.4-2.2,0.8-3.3,1.4c-2.5,1.4-4.7,3.4-6.3,5.8c-1.7,2.6-2.8,5.5-3.2,8.6c-0.4,2.7-0.2,5.4,0.4,8.1c0.1,0.5,0.2,1,0.4,1.5
						c0.7,2.3,1.8,4.4,3.1,6.4c2.2,3.1,5.3,5.6,8.8,7.1c3.1,1.3,6.5,1.7,9.8,1.2h0.1c0.1,1.7,0.3,3.2,0.3,3.2l1.5-0.5l0.1-1.4
						l1.6,1.7l1-0.3l-0.1-2l0.5,0.5l0.8,1.1l0.8-0.3l-2-3.4c0.7-0.3,1.4-0.7,2-1.2L53.7,333.6L53.7,333.6z"/>
					<path class="st8" d="M59.5,328.2c1.9-3.2,3-6.8,3-10.6c0-2.4-0.3-4.7-1-7c-0.1-0.5-0.3-0.9-0.5-1.3c-0.9-2.5-2.3-4.8-4.1-6.8
						c-2-2.3-4.6-4.2-7.5-5.4c-3.4-1.4-7.1-1.8-10.6-1c-1.8,1.3-3.3,2.9-4.5,4.7c-1.7,2.6-2.8,5.5-3.2,8.6c-0.4,2.7-0.2,5.4,0.4,8.1
						c0.1,0.5,0.2,1,0.4,1.5c0.7,2.3,1.8,4.4,3.1,6.4c2.2,3.1,5.3,5.6,8.8,7.1c3.1,1.3,6.5,1.7,9.8,1.2h0.1v0.4
						C56.1,332.6,58.1,330.5,59.5,328.2z"/>
				</g>
			</g>
			<path class="st4" d="M42.5,299.5c0.2-0.4,0.5-0.6,0.9-0.5c4.6,0.5,8.9,2.7,12,6.3c3,3.3,4.4,7.8,3.9,12.3c-0.1,0.5-0.5,0.9-1,0.8
				s-0.9-0.5-0.8-1l0,0c0.4-3.9-0.8-7.9-3.5-10.8c-2.8-3.2-6.7-5.2-10.9-5.6c-0.5-0.1-0.9-0.5-0.8-1
				C42.4,299.7,42.5,299.6,42.5,299.5z"/>
		</g>
		<g>
			
				<linearGradient id="SVGID_5_" gradientUnits="userSpaceOnUse" x1="142.3955" y1="457.53" x2="142.3955" y2="405.9585" gradientTransform="matrix(1 0 0 -1 0 752)">
				<stop  offset="0" style="stop-color:#FFFFFF"/>
				<stop  offset="0.86" style="stop-color:#FFFFFF;stop-opacity:0"/>
			</linearGradient>
			<path class="st10" d="M147.5,336.3c0-4.8-1.1-9.6-3.3-13.9c-4.9-9.3-5.8-16.2-5.6-20.4c0-2.4,0.5-4.7,1.5-6.9l-1.1-0.6
				c-1.1,2.3-1.7,4.8-1.7,7.4c-0.2,4.4,0.7,11.5,5.8,21.1c3.8,7.1,3.6,15.5,2.3,22.4c-0.1,0.3,0.2,0.7,0.5,0.7l0,0
				c0.3,0.1,0.7-0.2,0.7-0.5c0,0,0,0,0,0C147.2,342.5,147.5,339.4,147.5,336.3z"/>
			<g>
				<path class="st2" d="M125.5,256.4c-1.3,0.8-2.4,1.8-3.4,2.9c-2.1,2.3-3.6,5-4.5,7.9c-0.8,2.6-1.1,5.3-0.8,8c0,0.5,0.1,1,0.2,1.5
					c0.3,2.3,1,4.6,2.1,6.7c1.7,3.4,4.3,6.3,7.5,8.3c2.8,1.8,6.1,2.7,9.5,2.7C119,281.6,122,265.3,125.5,256.4z"/>
				<path class="st3" d="M154,278.3c0.4-2.3,0.4-4.7,0.1-7c-0.1-0.5-0.2-0.9-0.3-1.4c-0.5-2.6-1.6-5.1-3-7.4
					c-1.7-2.6-3.9-4.8-6.5-6.4c-3.5-2.2-7.7-3.1-11.8-2.5c-2.5,0.4-4.9,1.3-7,2.7c-3.5,8.9-6.5,25.2,10.5,38.1
					c-0.1,1.6-0.2,3.1-0.2,3.1l1.6-0.2l0.3-1.4l1.3,1.9l1-0.1l0.2-2l0.4,0.6l0.6,1.2l0.9-0.1l-1.4-3.6c3.4-1,6.4-2.9,8.7-5.6
					C151.8,285.3,153.4,281.9,154,278.3z"/>
			</g>
			<path class="st4" d="M133.1,257c0.2-0.3,0.5-0.6,0.9-0.5c4.6,0.4,8.9,2.6,12,6c3,3.3,4.5,7.7,4.1,12.1c0,0.5-0.5,0.9-1,0.8
				s-0.9-0.5-0.8-1c0.4-3.9-0.9-7.8-3.6-10.7c-2.8-3.1-6.7-5-10.9-5.4c-0.5-0.1-0.9-0.5-0.8-1C133,257.2,133,257.1,133.1,257z"/>
		</g>
		<g>
			<g>
				
					<linearGradient id="SVGID_6_" gradientUnits="userSpaceOnUse" x1="406.8643" y1="544.9561" x2="406.8643" y2="505.9861" gradientTransform="matrix(0.99 0.15 0.15 -0.99 -128.18 763.76)">
					<stop  offset="0" style="stop-color:#FFFFFF"/>
					<stop  offset="0.86" style="stop-color:#FFFFFF;stop-opacity:0"/>
				</linearGradient>
				<path class="st11" d="M348.2,315.4c0.4-3.6,1.7-7.1,3.8-10.1c4.6-6.4,5.9-11.5,6.1-14.7c0.2-1.8,0.1-3.6-0.5-5.3l0.9-0.4
					c0.6,1.8,0.8,3.8,0.6,5.7c-0.3,3.3-1.6,8.6-6.3,15.2c-3.5,5-4.1,11.3-3.8,16.5c0,0.3-0.2,0.5-0.4,0.5c0,0,0,0,0,0l0,0
					c-0.3,0-0.5-0.2-0.5-0.5C347.8,320.1,347.9,317.7,348.2,315.4z"/>
				<g>
					<path class="st7" d="M377.1,266.6c-0.4-2.3-1.3-4.5-2.6-6.4c-1.2-1.8-2.9-3.2-4.8-4.2c-0.8-0.4-1.6-0.8-2.5-1
						c-0.7-0.2-1.5-0.3-2.2-0.4c1.5,0.9,2.7,2.1,3.7,3.6c1.3,1.9,2.2,4.1,2.6,6.4c0.3,2,0.3,4-0.1,6c-0.1,0.4-0.2,0.7-0.3,1.1
						c-0.5,1.7-1.2,3.3-2.2,4.8c-1.6,2.4-3.8,4.3-6.4,5.5c-2.2,1-4.6,1.4-7,1.1c0.6,0.4,1.3,0.8,2,1.1l-1.4,2.6l0.6,0.2l0.6-0.9
						l0.4-0.4l0,1.5l0.7,0.2l1.1-1.3l0.1,1.1l1.2,0.3c0,0,0.1-1.1,0.1-2.4h0c2.5,0.3,5-0.1,7.3-1.1c2.6-1.2,4.8-3.1,6.4-5.5
						c1-1.5,1.7-3.1,2.2-4.8c0.1-0.4,0.2-0.7,0.3-1.1C377.4,270.7,377.4,268.6,377.1,266.6z"/>
					<path class="st8" d="M368.7,276.6c1-1.5,1.7-3.1,2.2-4.8c0.1-0.4,0.2-0.7,0.3-1.1c0.4-2,0.5-4,0.1-6c-0.4-2.3-1.3-4.5-2.6-6.4
						c-1-1.4-2.3-2.6-3.7-3.6c-2.4-0.2-4.7,0.2-6.9,1.1c-2.1,0.9-4,2.3-5.4,4.1c-1.3,1.5-2.3,3.3-2.9,5.2c-0.1,0.3-0.2,0.7-0.3,1
						c-0.5,1.7-0.7,3.5-0.6,5.2c0.1,2.8,1,5.5,2.5,7.8c1,1.6,2.4,3,4,4c2.4,0.2,4.8-0.1,7-1.1C364.9,280.9,367.2,279,368.7,276.6z"
						/>
				</g>
			</g>
			<path class="st4" d="M363.4,257.5c-0.1-0.3-0.4-0.4-0.7-0.4c-3.5,0.5-6.6,2.2-8.9,4.9c-2.1,2.6-3.1,5.9-2.6,9.2
				c0.1,0.4,0.4,0.6,0.8,0.6c0.4-0.1,0.6-0.4,0.6-0.8l0,0c-0.4-2.9,0.5-5.9,2.4-8.2c2-2.4,4.9-4,8-4.4c0.4-0.1,0.6-0.4,0.6-0.8
				C363.5,257.7,363.4,257.6,363.4,257.5z"/>
		</g>
	</g>
	<g>
		<g>
			<g>
				<path class="st7" d="M406.4,349.2c-1,0.3-2,0.5-3,0.6l-3.1-1.8c0-1.3,0.3-2.5,0.7-3.7C403.6,344.5,405.8,346.5,406.4,349.2z"/>
				<path class="st8" d="M404.7,342.9c0,0,1.4-1.3,2.6-0.3s-0.1,3.1-0.1,3.1s3.8-0.2,2,1.8c-0.8,0.8-1.8,1.4-2.8,1.7
					c-0.5-2.7-2.8-4.7-5.5-4.9c0.7-2.2,1.9-4.2,2.7-4.1C404.9,340.2,404.7,342.9,404.7,342.9z"/>
				<path class="st8" d="M391,366.2c-0.7,2-1.8,3.6-2.5,3.6c-1.4-0.1-1.1-2.8-1.1-2.8s-1.4,1.3-2.6,0.3s0.1-3.1,0.1-3.1
					s-3.8,0.3-2-1.8c1.2-1.1,2.6-1.8,4.1-2C387.3,362.9,388.8,365.1,391,366.2z"/>
				<path class="st7" d="M391.9,362c-0.1,1.5-0.4,2.9-0.9,4.3c-2.2-1.2-3.7-3.4-4-5.9c0.6-0.1,1.1-0.2,1.7-0.2L391.9,362z"/>
			</g>
			<g>
				<g>
					<polygon class="st12" points="403.3,347.1 403.3,347.1 403.3,347.1 					"/>
					<path class="st8" d="M394,351.4c2.3-2.7,5.7-4.3,9.3-4.4l0,0v0.1l0.1-0.1c2.5,2.4,2.2,7.6-0.9,12.1c-3.3,4.8-8.5,6.9-11.5,4.8
						c-0.6-0.4-1.1-1-1.4-1.6C389.7,360.5,390.8,355.2,394,351.4z"/>
					<path class="st13" d="M403.3,347.1L403.3,347.1l-0.1,0.1L403.3,347.1z"/>
					<path class="st7" d="M391.2,351.5c3.3-4.8,8.5-6.9,11.5-4.8c0.2,0.1,0.3,0.3,0.5,0.4c-3.6,0-7,1.6-9.3,4.4
						c-3.3,3.8-4.3,9.1-4.6,10.9C388,359.7,388.6,355.3,391.2,351.5z"/>
				</g>
				<g>
					<defs>
						<path id="SVGID_7_" d="M402.8,346.7c-3.1-2.1-8.3,0-11.5,4.8s-3.5,10.4-0.4,12.5s8.3,0,11.5-4.8S405.9,348.8,402.8,346.7z"/>
					</defs>
					<clipPath id="SVGID_8_">
						<use xlink:href="#SVGID_7_"  style="overflow:visible;"/>
					</clipPath>
					<g class="st14">
						<g>
							<polygon class="st15" points="412.5,358.3 399.8,336.4 398.9,337.1 411.6,359 							"/>
							<polygon class="st15" points="409.6,360.8 396.9,338.9 396,339.6 408.8,361.5 							"/>
							<polygon class="st15" points="406.7,363.3 394,341.4 393.2,342.1 405.9,364 							"/>
							<polygon class="st15" points="403.9,365.8 391.1,343.9 390.3,344.6 403,366.5 							"/>
							<polygon class="st15" points="401,368.3 388.3,346.3 387.4,347.1 400.1,369 							"/>
							<polygon class="st15" points="398.1,370.8 385.4,348.8 384.5,349.5 397.3,371.5 							"/>
							<polygon class="st15" points="395.2,373.3 382.5,351.3 381.7,352 394.4,374 							"/>
						</g>
					</g>
				</g>
			</g>
		</g>
		<g>
			<g>
				<path class="st7" d="M124.8,357.7c0.7-0.2,1.3-0.3,2-0.3l2,1.3c-0.1,0.8-0.2,1.6-0.6,2.4C126.4,360.9,125,359.5,124.8,357.7z"/>
				<path class="st8" d="M125.7,361.8c0,0-0.9,0.8-1.7,0.1s0.1-2,0.1-2s-2.5,0.1-1.2-1.2c0.5-0.5,1.2-0.8,1.9-1
					c0.3,1.8,1.7,3.1,3.4,3.4c-0.5,1.4-1.3,2.7-1.9,2.6C125.4,363.6,125.7,361.8,125.7,361.8z"/>
				<path class="st8" d="M135.2,347.1c0.5-1.3,1.2-2.3,1.7-2.2c0.9,0.1,0.6,1.9,0.6,1.9s0.9-0.8,1.7-0.1s-0.1,2-0.1,2s2.5,0,1.2,1.2
					c-0.8,0.7-1.7,1.1-2.8,1.2C137.5,349.3,136.6,347.9,135.2,347.1z"/>
				<path class="st7" d="M134.5,349.8c0.1-1,0.3-1.9,0.7-2.8c1.4,0.8,2.3,2.3,2.4,3.9c-0.4,0.1-0.7,0.1-1.1,0.1L134.5,349.8z"/>
			</g>
			<g>
				<g>
					<polygon class="st12" points="126.7,359.2 126.7,359.2 126.7,359.2 					"/>
					<path class="st8" d="M132.8,356.6c-1.6,1.7-3.8,2.7-6.1,2.6l0,0v-0.1v0.1c-1.6-1.6-1.2-5,0.9-7.8c2.3-3,5.7-4.3,7.6-2.8
						c0.4,0.3,0.7,0.7,0.9,1.1C135.7,352.2,134.5,354.6,132.8,356.6z"/>
					<path class="st13" d="M126.7,359.2L126.7,359.2L126.7,359.2L126.7,359.2z"/>
					<path class="st7" d="M134.6,356.6c-2.3,3-5.7,4.3-7.6,2.8c-0.1-0.1-0.2-0.2-0.3-0.3c2.3,0.1,4.6-0.9,6.1-2.6
						c1.7-2,2.8-4.4,3.3-7C137,351.4,136.5,354.2,134.6,356.6z"/>
				</g>
				<g>
					<defs>
						<path id="SVGID_9_" d="M127,359.5c1.9,1.5,5.4,0.2,7.6-2.8s2.6-6.7,0.6-8.1s-5.4-0.2-7.6,2.8S125.1,358,127,359.5z"/>
					</defs>
					<clipPath id="SVGID_10_">
						<use xlink:href="#SVGID_9_"  style="overflow:visible;"/>
					</clipPath>
					<g class="st16">
						<g>
							<polygon class="st15" points="121,351.6 128.7,366.3 129.3,365.8 121.6,351.2 							"/>
							<polygon class="st15" points="123,350.1 130.6,364.7 131.2,364.3 123.5,349.6 							"/>
							<polygon class="st15" points="124.9,348.5 132.6,363.2 133.1,362.7 125.5,348.1 							"/>
							<polygon class="st15" points="126.8,347 134.5,361.6 135.1,361.2 127.4,346.5 							"/>
							<polygon class="st15" points="128.8,345.4 136.4,360.1 137,359.6 129.3,345 							"/>
							<polygon class="st15" points="130.7,343.9 138.4,358.5 138.9,358.1 131.3,343.5 							"/>
							<polygon class="st15" points="132.7,342.4 140.3,357 140.9,356.5 133.2,341.9 							"/>
						</g>
					</g>
				</g>
			</g>
		</g>
		<g>
			<g>
				<path class="st2" d="M109.3,306.4c0.1,0.7,0.1,1.3,0.1,2l-1.5,1.9c-0.8-0.2-1.6-0.4-2.3-0.8
					C105.9,307.7,107.5,306.5,109.3,306.4z"/>
				<path class="st3" d="M105,306.8c0,0-0.7-1,0.1-1.7s2,0.4,2,0.4s0.2-2.5,1.3-1.1c0.4,0.6,0.7,1.3,0.8,2c-1.8,0.1-3.3,1.3-3.8,3
					c-1.3-0.7-2.5-1.7-2.4-2.2C103.3,306.4,105,306.8,105,306.8z"/>
				<path class="st3" d="M118.7,318.1c1.2,0.7,2.2,1.5,2,2c-0.2,0.9-2,0.4-2,0.4s0.7,1-0.1,1.7s-2-0.4-2-0.4s-0.2,2.5-1.4,1.1
					c-0.6-0.9-0.9-1.9-0.9-2.9C116,320.2,117.7,319.4,118.7,318.1z"/>
				<path class="st2" d="M116,317.1c0.9,0.2,1.8,0.5,2.7,1c-1,1.3-2.6,2.1-4.2,2c0-0.4,0-0.8,0-1.1L116,317.1z"/>
			</g>
			<g>
				<g>
					<polygon class="st12" points="107.6,308.2 107.6,308.2 107.6,308.2 					"/>
					<path class="st3" d="M109.4,314.6c-1.5-1.8-2.2-4.1-1.8-6.4l0,0h0.1l-0.1-0.1c1.8-1.4,5.1-0.6,7.7,1.9c2.7,2.6,3.6,6.2,1.9,8
						c-0.3,0.3-0.7,0.6-1.2,0.8C113.5,317.9,111.2,316.5,109.4,314.6z"/>
					<path class="st13" d="M107.6,308.2L107.6,308.2L107.6,308.2L107.6,308.2z"/>
					<path class="st2" d="M109.2,316.4c-2.7-2.6-3.6-6.2-1.9-8c0.1-0.1,0.2-0.2,0.3-0.3c-0.4,2.3,0.3,4.7,1.8,6.4
						c1.8,1.9,4.1,3.3,6.6,4.1C114.1,319.4,111.4,318.5,109.2,316.4z"/>
				</g>
				<g>
					<defs>
						<path id="SVGID_11_" d="M107.3,308.4c-1.7,1.8-0.8,5.3,1.9,8s6.3,3.3,8,1.6s0.8-5.3-1.9-8S109,306.7,107.3,308.4z"/>
					</defs>
					<clipPath id="SVGID_12_">
						<use xlink:href="#SVGID_11_"  style="overflow:visible;"/>
					</clipPath>
					<g class="st17">
						<g>
							<polygon class="st15" points="115.8,303.4 100.3,309.3 100.7,309.9 116.2,304 							"/>
							<polygon class="st15" points="117.1,305.5 101.6,311.4 102,312 117.5,306.1 							"/>
							<polygon class="st15" points="118.4,307.6 102.9,313.6 103.3,314.2 118.8,308.2 							"/>
							<polygon class="st15" points="119.7,309.7 104.2,315.7 104.6,316.3 120.1,310.4 							"/>
							<polygon class="st15" points="121,311.9 105.5,317.8 105.9,318.4 121.4,312.5 							"/>
							<polygon class="st15" points="122.3,314 106.8,319.9 107.2,320.5 122.7,314.6 							"/>
							<polygon class="st15" points="123.7,316.1 108.2,322 108.5,322.6 124,316.7 							"/>
						</g>
					</g>
				</g>
			</g>
		</g>
		<g>
			<g>
				<path class="st2" d="M364.5,306.6c0.6-0.5,1.3-0.9,2.1-1.2l2.8,0.5c0.3,0.9,0.4,1.9,0.4,2.9
					C367.8,309.4,365.6,308.5,364.5,306.6z"/>
				<path class="st3" d="M367.4,310.8c0,0-0.7,1.3-1.9,0.9s-0.7-2.3-0.7-2.3s-2.8,1.1-1.9-0.8c0.4-0.8,0.9-1.5,1.7-2
					c1.1,1.9,3.3,2.8,5.3,2.2c0,1.8-0.3,3.6-1,3.8C367.9,312.9,367.4,310.8,367.4,310.8z"/>
				<path class="st3" d="M371.5,290c0-1.6,0.4-3.1,1-3.3c1-0.3,1.5,1.8,1.5,1.8s0.7-1.3,1.9-0.9s0.7,2.3,0.7,2.3s2.8-1.1,1.9,0.8
					c-0.6,1.1-1.5,2-2.6,2.5C375.2,291.5,373.5,290.3,371.5,290z"/>
				<path class="st2" d="M372,293.4c-0.3-1.1-0.5-2.3-0.4-3.4c1.9,0.3,3.6,1.5,4.4,3.3c-0.4,0.2-0.8,0.4-1.2,0.6L372,293.4z"/>
			</g>
			<g>
				<g>
					<polygon class="st12" points="367.3,307.4 367.3,307.4 367.3,307.4 					"/>
					<path class="st3" d="M373.1,301.8c-1,2.6-3.1,4.7-5.7,5.6l0,0v-0.1v0.1c-2.5-1.1-3.6-5.1-2.4-9.2c1.2-4.4,4.5-7.3,7.3-6.5
						c0.6,0.2,1.1,0.4,1.5,0.8C374.3,295.6,374.1,298.8,373.1,301.8z"/>
					<path class="st13" d="M367.3,307.4L367.3,307.4v-0.1V307.4z"/>
					<path class="st2" d="M375.1,301c-1.2,4.4-4.5,7.3-7.3,6.5c-0.2,0-0.3-0.1-0.5-0.2c2.6-0.9,4.7-3,5.7-5.6c1-3,1.2-6.2,0.6-9.3
						C375.4,294.1,376.1,297.5,375.1,301z"/>
				</g>
				<g>
					<defs>
						<path id="SVGID_13_" d="M367.8,307.5c2.8,0.8,6.1-2.1,7.3-6.5s-0.1-8.6-2.9-9.4s-6.1,2.1-7.3,6.5S365,306.8,367.8,307.5z"/>
					</defs>
					<clipPath id="SVGID_14_">
						<use xlink:href="#SVGID_13_"  style="overflow:visible;"/>
					</clipPath>
					<g class="st18">
						<g>
							<polygon class="st15" points="357.6,301.4 372.7,314.4 373.1,313.7 358.1,300.7 							"/>
							<polygon class="st15" points="359.1,298.8 374.2,311.8 374.6,311.1 359.5,298.1 							"/>
							<polygon class="st15" points="360.6,296.2 375.7,309.2 376.1,308.5 361,295.5 							"/>
							<polygon class="st15" points="362.1,293.7 377.2,306.6 377.6,305.9 362.5,292.9 							"/>
							<polygon class="st15" points="363.6,291.1 378.6,304.1 379.1,303.3 364,290.3 							"/>
							<polygon class="st15" points="365.1,288.5 380.1,301.5 380.6,300.7 365.5,287.8 							"/>
							<polygon class="st15" points="366.6,285.9 381.6,298.9 382,298.2 367,285.2 							"/>
						</g>
					</g>
				</g>
			</g>
		</g>
	</g>
	<g>
		<ellipse class="st19" cx="249.6" cy="436.7" rx="127.5" ry="40.4"/>
		<g>
			<path class="st15" d="M249.6,389.7l-103.5-25.1v68.1c0,0,10.7,27,103.5,27c22.2,0,39.6-1.5,53.4-3.9v-79.1L249.6,389.7z"/>
			<path class="st20" d="M303,376.8v79.1c43.9-7.5,50.1-23.1,50.1-23.1v-68.1L303,376.8z"/>
		</g>
		<ellipse class="st21" cx="249.6" cy="364.6" rx="103.5" ry="25.1"/>
		<g>
			<path class="st15" d="M249.6,323l-68-20.1v54.2c0,0,7.8,13,68,13c10.8,0.1,21.5-0.4,32.2-1.6v-55L249.6,323z"/>
			<path class="st20" d="M281.8,313.5v55c31-3.4,35.8-11.4,35.8-11.4v-54.2L281.8,313.5z"/>
		</g>
		<path class="st21" d="M316.7,299.6c-5.3-9.5-33.3-16.8-67.1-16.8c-37.6,0-68,9-68,20.1c0,2.9,2,5.6,5.6,8
			c10.5,7.1,34.5,12.1,62.4,12.1c37.6,0,68-9,68-20.1C317.6,301.8,317.3,300.6,316.7,299.6z"/>
		<path class="st8" d="M316,338.1c-11.9,14.3-27.5,6.7-28.1,6.3c-1.7-0.9-3.8-0.6-5.2,0.6c-13.9,12-29.7,1.5-30.4,1h-0.1l-0.3-0.2
			l-0.2-0.1l-0.2-0.1l-0.2-0.1l-0.2-0.1l-0.3-0.1h-0.2l-0.3-0.1h-0.2h-0.3h-0.9h-0.2h-0.2l-0.3,0l-0.2,0.1l-0.2,0.1l-0.2,0.1
			l-0.2,0.1l-0.3,0.1l-0.1,0.1L247,346h-0.1c-0.2,0.1-16.3,11.1-30.4-1c-1.5-1.2-3.5-1.5-5.2-0.6c-3,1.4-6.2,2.1-9.5,2.3
			c-7.3,0.3-13.5-2.6-18.6-8.6c-0.4-0.5-1-1-1.6-1.3v12.7c5.9,4.6,13.2,7,20.6,6.5c3.6-0.2,7.1-0.9,10.5-2.1
			c5.4,4,11.9,6.2,18.7,6.2c2.5,0,5-0.3,7.5-0.8c3.7-0.8,7.3-2.2,10.7-4c3.4,1.8,7,3.2,10.7,4c2.5,0.5,5,0.8,7.5,0.8
			c6.7,0,13.3-2.1,18.7-6.1c3.4,1.2,6.9,1.9,10.5,2.1c7.4,0.4,14.8-1.9,20.6-6.5v-12.7C317,337.1,316.4,337.6,316,338.1z"/>
		<path class="st22" d="M316,332.2c-11.9,14.3-27.5,6.7-28.1,6.3c-1.7-0.9-3.8-0.6-5.2,0.6c-13.9,12-29.7,1.5-30.4,1h-0.1L252,340
			l-0.2-0.1l-0.2-0.1l-0.2-0.1l-0.2-0.1l-0.3-0.1h-0.2l-0.3-0.1h-0.2h-0.3h-0.9h-0.2h-0.2l-0.3,0h-0.2l-0.2,0.1l-0.2,0.1l-0.2,0.1
			l-0.3,0.1l-0.1,0.1l-0.3,0.2H247c-0.2,0.1-16.3,11.1-30.4-1c-1.5-1.2-3.5-1.5-5.2-0.6c-3,1.4-6.2,2.1-9.5,2.3
			c-7.3,0.4-13.5-2.6-18.6-8.6c-0.4-0.5-1-1-1.6-1.3v12.7c5.9,4.6,13.2,7,20.6,6.5c3.6-0.2,7.1-0.9,10.5-2.1
			c5.4,4,11.9,6.2,18.7,6.1c2.5,0,5-0.3,7.5-0.8c3.7-0.8,7.3-2.2,10.7-4c3.4,1.8,7,3.2,10.7,4c2.5,0.5,5,0.8,7.5,0.8
			c6.7,0,13.3-2.1,18.7-6.1c3.4,1.2,6.9,1.9,10.5,2.1c7.4,0.4,14.8-1.9,20.6-6.5V331C317,331.3,316.5,331.7,316,332.2z"/>
		<path class="st22" d="M316,326.4c-11.9,14.3-27.5,6.6-28.1,6.3c-1.7-0.9-3.8-0.6-5.2,0.6c-13.9,12-29.7,1.5-30.4,1h-0.1l-0.3-0.2
			l-0.2-0.1l-0.2-0.1l-0.2-0.1l-0.2-0.1l-0.3-0.1h-0.2l-0.3-0.1h-0.2h-0.3h-0.7h-0.2h-0.2h-0.2l-0.3,0.1l-0.2,0l-0.2,0.1l-0.2,0.1
			l-0.2,0.1l-0.3,0.1l-0.1,0.1l-0.3,0.2H247c-0.2,0.1-16.3,11.1-30.4-1c-1.5-1.3-3.5-1.5-5.2-0.6c-3,1.4-6.2,2.1-9.5,2.3
			c-7.3,0.3-13.5-2.6-18.6-8.6c-0.4-0.5-1-1-1.6-1.3v12.7c5.9,4.6,13.2,7,20.6,6.5c3.6-0.2,7.1-0.9,10.5-2.1
			c5.4,4,11.9,6.2,18.7,6.2c2.5,0,5-0.3,7.5-0.8c3.7-0.8,7.3-2.2,10.7-4c3.4,1.8,7,3.2,10.7,4c2.5,0.5,5,0.8,7.5,0.8
			c6.7,0,13.3-2.1,18.7-6.2c3.4,1.2,6.9,1.9,10.5,2.1c7.4,0.4,14.8-1.9,20.6-6.5v-12.7C317,325.5,316.4,325.9,316,326.4z"/>
		<path class="st21" d="M248.5,386c0.1,0,0.1-0.1,0.2-0.1C248.6,385.9,248.5,386,248.5,386z"/>
		<path class="st21" d="M251.1,386.3l0.1,0.2L251.1,386.3z"/>
		<path class="st21" d="M250.9,386.1l-0.1-0.1L250.9,386.1L250.9,386.1z"/>
		<path class="st21" d="M249.2,385.7c0.1,0,0.1,0,0.2,0C249.4,385.7,249.3,385.7,249.2,385.7z"/>
		<path class="st21" d="M249.6,385.7L249.6,385.7z"/>
		<path class="st21" d="M248.8,385.8l0.2-0.1L248.8,385.8z"/>
		<path class="st21" d="M250,385.7h0.2H250z"/>
		<path class="st21" d="M250.4,385.8l0.2,0.1L250.4,385.8z"/>
		<path class="st21" d="M248.1,386.3l0.2-0.1L248.1,386.3z"/>
		<path class="st21" d="M249,385.7h0.2H249z"/>
		<path class="st21" d="M248.4,386.1L248.4,386.1l0.1-0.1C248.4,386,248.4,386,248.4,386.1z"/>
		<path class="st21" d="M249.4,385.7L249.4,385.7z"/>
		<path class="st21" d="M248.7,385.9l0.2-0.1L248.7,385.9z"/>
		<path class="st21" d="M248,386.4l0.1-0.1L248,386.4z"/>
		<path class="st21" d="M249.8,385.7h0.2H249.8z"/>
		<path class="st21" d="M250.9,386.1l0.1,0.1L250.9,386.1z"/>
		<path class="st21" d="M250.6,385.9l0.2,0.1L250.6,385.9z"/>
		<path class="st21" d="M250.2,385.7l0.2,0.1L250.2,385.7z"/>
		<path class="st12" d="M159.4,389.4c6.9,4,16.8,2.5,29.5-4.4c-19.8-3.5-34.3-8.6-40.1-14.6C149.9,376.8,152.5,385.5,159.4,389.4z"
			/>
		<path class="st12" d="M225.8,399.6h0.2c6.9-0.1,13.4-3.4,19.3-9.9c-15-0.1-30.1-1.1-45-3C205.3,391.7,215,399.6,225.8,399.6z"/>
		<path class="st12" d="M339.9,389.4c6.9-3.9,9.5-12.6,10.6-19c-5.8,6-20.3,11.1-40.1,14.6C323,391.9,332.9,393.4,339.9,389.4z"/>
		<path class="st12" d="M273.3,399.6h0.2c10.8,0,20.5-7.9,25.6-12.9c-14.9,1.9-30,2.9-45,3C259.9,396.2,266.4,399.5,273.3,399.6z"/>
		<path class="st8" d="M350.8,373.4c-0.3,0.3-0.5,0.7-0.5,1.1c-1.1,6.3-3.8,14.6-10.5,18.4c-6.9,4-16.8,2.5-29.5-4.4
			c-1.6-0.9-3.2-1.8-4.9-2.8l0,0c-0.9-0.6-2.1-0.3-2.7,0.5l0,0c-1.2,1.4-2.4,2.8-3.7,4c-5.1,5-14.7,12.9-25.6,12.9h-0.2
			c-6.9,0-13.4-3.4-19.3-9.9c-0.3-0.3-0.5-0.6-0.8-0.9c-0.6-0.8-1.3-1.5-1.9-2.4l0,0l-0.1-0.2l-0.1-0.1l-0.2-0.1l-0.2-0.1l-0.2-0.1
			l-0.2-0.1h-0.2h-0.2h-0.4c-0.1,0-0.1,0-0.2,0h-0.2l-0.2,0.1l-0.2,0.1c-0.1,0-0.1,0.1-0.2,0.1l-0.1,0.1l-0.2,0.1l-0.1,0.1v0
			c-0.6,0.8-1.3,1.6-1.9,2.4l-0.8,0.9c-5.9,6.5-12.4,9.8-19.3,9.9h-0.2c-10.8,0-20.5-7.9-25.6-12.9c-1.3-1.3-2.6-2.6-3.7-4l0,0
			c-0.7-0.8-1.8-1.1-2.7-0.5l0,0c-1.7,1-3.3,2-4.9,2.8c-12.7,6.9-22.6,8.4-29.5,4.4c-6.6-3.8-9.4-12.1-10.5-18.4
			c-0.1-0.4-0.3-0.8-0.5-1.1c-1.4-1.4-2.2-3.3-2.3-5.3v12.3c0,0.2,0,0.4,0.1,0.6c1.8,5.9,5.1,12,11.1,15.5c8.6,5,20.6,3.1,35.7-5.5
			c0.8-0.5,1.9-0.3,2.6,0.4c4.8,5.1,16.4,15.9,30.3,15.9h0.1c8.1,0,15.5-3.7,22.1-11c0.8-0.8,2.1-0.9,2.9-0.1c0,0,0.1,0.1,0.1,0.1
			c6.6,7.2,14.1,10.9,22.1,11h0.2c13.8,0,25.5-10.7,30.3-15.9c0.7-0.7,1.7-0.9,2.6-0.4c15.1,8.6,27.1,10.5,35.7,5.5
			c6-3.5,9.3-9.6,11.1-15.5c0.1-0.2,0.1-0.4,0.1-0.6v-12.4C353,370.1,352.2,372,350.8,373.4z"/>
		<path class="st8" d="M148.9,374.5l-0.1-4.1c0,0-2.7-2.4-2.7-5.4v4l0.5,4.5L148.9,374.5z"/>
		<path class="st8" d="M350.3,374.5l0.1-4.1c0,0,2.7-2.4,2.7-5.4v4l-0.5,4.5L350.3,374.5z"/>
		<path class="st8" d="M152.6,411.8c0-2.5,2-4.5,4.5-4.5s4.5,2,4.5,4.5c0,2.5-2,4.5-4.5,4.5c0,0,0,0,0,0
			C154.6,416.3,152.6,414.3,152.6,411.8z"/>
		<path class="st8" d="M187.3,436.7c0-2.5,2-4.5,4.5-4.5s4.5,2,4.5,4.5s-2,4.5-4.5,4.5l0,0C189.3,441.2,187.3,439.2,187.3,436.7
			C187.3,436.7,187.3,436.7,187.3,436.7z"/>
		<path class="st22" d="M178,416.3c0-1.7,1.3-3,3-3s3,1.3,3,3s-1.3,3-3,3S178,417.9,178,416.3z"/>
		<path class="st22" d="M162.2,432.6c0-1.3,1-2.3,2.3-2.3c1.3,0,2.3,1,2.3,2.3c0,1.3-1,2.3-2.3,2.3c0,0,0,0,0,0
			C163.2,434.9,162.2,433.8,162.2,432.6L162.2,432.6z"/>
		<path class="st22" d="M206,423c0-1.3,1-2.3,2.3-2.3s2.3,1,2.3,2.3c0,1.3-1,2.3-2.3,2.3c0,0,0,0,0,0C207,425.3,206,424.3,206,423z"
			/>
		<path class="st22" d="M240.7,442.7c0-1.3,1-2.3,2.3-2.3c1.3,0,2.3,1,2.3,2.3c0,1.3-1,2.3-2.3,2.3c0,0,0,0,0,0
			C241.7,445,240.7,444,240.7,442.7z"/>
		<path class="st22" d="M284.5,430.6c0-1.3,1-2.3,2.3-2.3c1.3,0,2.3,1,2.3,2.3c0,1.3-1,2.3-2.3,2.3c0,0,0,0,0,0
			C285.5,432.9,284.5,431.9,284.5,430.6C284.5,430.6,284.5,430.6,284.5,430.6z"/>
		<path class="st22" d="M316.5,424.5c0-1.3,1-2.3,2.3-2.3c1.3,0,2.3,1,2.3,2.3c0,1.3-1,2.3-2.3,2.3c0,0,0,0,0,0
			C317.5,426.8,316.5,425.8,316.5,424.5C316.5,424.5,316.5,424.5,316.5,424.5z"/>
		<path class="st22" d="M344.2,422.3c0-1.3,1-2.3,2.3-2.3c1.3,0,2.3,1,2.3,2.3c0,1.3-1,2.3-2.3,2.3c0,0,0,0,0,0
			C345.2,424.5,344.2,423.5,344.2,422.3C344.2,422.3,344.2,422.3,344.2,422.3z"/>
		<path class="st22" d="M212.6,442.7c0-1.7,1.3-3,3-3s3,1.3,3,3s-1.3,3-3,3l0,0C213.9,445.7,212.6,444.4,212.6,442.7z"/>
		<path class="st22" d="M260.8,427.6c0-1.7,1.3-3,3-3s3,1.3,3,3s-1.3,3-3,3S260.8,429.2,260.8,427.6z"/>
		<path class="st22" d="M304.3,439.7c0-1.7,1.3-3,3-3s3,1.3,3,3s-1.3,3-3,3S304.3,441.3,304.3,439.7z"/>
		<path class="st22" d="M327.3,412.2c0-1.7,1.3-3,3-3s3,1.3,3,3s-1.3,3-3,3S327.3,413.9,327.3,412.2z"/>
		<path class="st8" d="M231.7,423c0-2.5,2-4.5,4.5-4.5s4.5,2,4.5,4.5s-2,4.5-4.5,4.5l0,0C233.7,427.5,231.7,425.5,231.7,423
			C231.7,423,231.7,423,231.7,423z"/>
		<path class="st8" d="M268.8,445.7c0-2.5,2-4.5,4.5-4.5c2.5,0,4.5,2,4.5,4.5c0,2.5-2,4.5-4.5,4.5c0,0,0,0,0,0
			C270.9,450.3,268.8,448.2,268.8,445.7C268.8,445.7,268.8,445.7,268.8,445.7z"/>
		<path class="st8" d="M296.1,418.5c0-2.5,2-4.5,4.5-4.5s4.5,2,4.5,4.5c0,2.5-2,4.5-4.5,4.5c0,0,0,0,0,0
			C298.1,423,296.1,421,296.1,418.5z"/>
		<path class="st8" d="M330.4,432.2c0-2.5,2-4.5,4.5-4.5s4.5,2,4.5,4.5c0,2.5-2,4.5-4.5,4.5c0,0,0,0,0,0
			C332.4,436.7,330.4,434.7,330.4,432.2z"/>
		<g>
			<path class="st22" d="M232.7,271.2h3.5l0,0v19.6c0,0.4-0.3,0.7-0.7,0.7l0,0h-2.1c-0.4,0-0.7-0.3-0.7-0.7l0,0V271.2L232.7,271.2z"
				/>
			<g>
				<path class="st3" d="M234.4,258.8c0,0-8.8,13.6,0,13.6S234.4,258.8,234.4,258.8z"/>
				
					<linearGradient id="SVGID_15_" gradientUnits="userSpaceOnUse" x1="234.39" y1="479.57" x2="234.39" y2="485.59" gradientTransform="matrix(1 0 0 -1 0 752)">
					<stop  offset="0" style="stop-color:#FFEA6C;stop-opacity:0.67"/>
					<stop  offset="0.19" style="stop-color:#FFEA6C;stop-opacity:0.56"/>
					<stop  offset="0.6" style="stop-color:#FFEA6C;stop-opacity:0.29"/>
					<stop  offset="1" style="stop-color:#FFEA6C;stop-opacity:0"/>
				</linearGradient>
				<path class="st23" d="M234.4,266.4c0,0-3.9,6,0,6S234.4,266.4,234.4,266.4z"/>
			</g>
		</g>
		<g>
			<path class="st22" d="M260.5,271.2h3.5l0,0v19.6c0,0.4-0.3,0.7-0.7,0.7l0,0h-2.1c-0.4,0-0.7-0.3-0.7-0.7l0,0L260.5,271.2
				L260.5,271.2z"/>
			<g>
				<path class="st3" d="M262.3,258.8c0,0-8.8,13.6,0,13.6C271.1,272.4,262.3,258.8,262.3,258.8z"/>
				
					<linearGradient id="SVGID_16_" gradientUnits="userSpaceOnUse" x1="262.26" y1="479.57" x2="262.26" y2="485.59" gradientTransform="matrix(1 0 0 -1 0 752)">
					<stop  offset="0" style="stop-color:#FFEA6C;stop-opacity:0.67"/>
					<stop  offset="0.19" style="stop-color:#FFEA6C;stop-opacity:0.56"/>
					<stop  offset="0.6" style="stop-color:#FFEA6C;stop-opacity:0.29"/>
					<stop  offset="1" style="stop-color:#FFEA6C;stop-opacity:0"/>
				</linearGradient>
				<path class="st24" d="M262.3,266.4c0,0-3.9,6,0,6S262.3,266.4,262.3,266.4z"/>
			</g>
		</g>
		<g>
			<path class="st22" d="M224.4,291.9h4.1l0,0v23c0,0.6-0.4,1-1,1h-2.1c-0.6,0-1-0.4-1-1L224.4,291.9L224.4,291.9z"/>
			<g>
				<path class="st3" d="M226.4,277.3c0,0-10.4,16,0,16S226.4,277.3,226.4,277.3z"/>
				
					<linearGradient id="SVGID_17_" gradientUnits="userSpaceOnUse" x1="226.39" y1="458.65" x2="226.39" y2="465.76" gradientTransform="matrix(1 0 0 -1 0 752)">
					<stop  offset="0" style="stop-color:#FFEA6C;stop-opacity:0.67"/>
					<stop  offset="0.19" style="stop-color:#FFEA6C;stop-opacity:0.56"/>
					<stop  offset="0.6" style="stop-color:#FFEA6C;stop-opacity:0.29"/>
					<stop  offset="1" style="stop-color:#FFEA6C;stop-opacity:0"/>
				</linearGradient>
				<path class="st25" d="M226.4,286.2c0,0-4.6,7.1,0,7.1S226.4,286.2,226.4,286.2z"/>
			</g>
		</g>
		<g>
			<path class="st22" d="M273.8,315.8h-2.2c-0.6,0-1-0.4-1-1v-23l0,0h4.1l0,0v23C274.7,315.3,274.3,315.8,273.8,315.8z"/>
			<g>
				<path class="st3" d="M272.7,277.3c0,0,10.4,16,0,16S272.7,277.3,272.7,277.3z"/>
				
					<linearGradient id="SVGID_18_" gradientUnits="userSpaceOnUse" x1="272.73" y1="458.65" x2="272.73" y2="465.76" gradientTransform="matrix(1 0 0 -1 0 752)">
					<stop  offset="0" style="stop-color:#FFEA6C;stop-opacity:0.67"/>
					<stop  offset="0.19" style="stop-color:#FFEA6C;stop-opacity:0.56"/>
					<stop  offset="0.6" style="stop-color:#FFEA6C;stop-opacity:0.29"/>
					<stop  offset="1" style="stop-color:#FFEA6C;stop-opacity:0"/>
				</linearGradient>
				<path class="st26" d="M272.7,286.2c0,0,4.6,7.1,0,7.1S272.7,286.2,272.7,286.2z"/>
			</g>
		</g>
		<g>
			<path class="st22" d="M247.6,294.1h4.1l0,0v23c0,0.6-0.4,1-1,1h-2.2c-0.6,0-1-0.4-1-1L247.6,294.1L247.6,294.1z"/>
			<g>
				<path class="st3" d="M249.6,279.5c0,0-10.4,16,0,16C260,295.6,249.6,279.5,249.6,279.5z"/>
				
					<linearGradient id="SVGID_19_" gradientUnits="userSpaceOnUse" x1="249.65" y1="456.44" x2="249.65" y2="463.54" gradientTransform="matrix(1 0 0 -1 0 752)">
					<stop  offset="0" style="stop-color:#FFEA6C;stop-opacity:0.67"/>
					<stop  offset="0.19" style="stop-color:#FFEA6C;stop-opacity:0.56"/>
					<stop  offset="0.6" style="stop-color:#FFEA6C;stop-opacity:0.29"/>
					<stop  offset="1" style="stop-color:#FFEA6C;stop-opacity:0"/>
				</linearGradient>
				<path class="st27" d="M249.6,288.5c0,0-4.6,7.1,0,7.1S249.6,288.5,249.6,288.5z"/>
			</g>
		</g>
		<g>
			<path class="st22" d="M205.7,285.4h4.1l0,0v23c0,0.6-0.4,1-1,1h-2.2c-0.6,0-1-0.4-1-1L205.7,285.4L205.7,285.4z"/>
			<g>
				<path class="st3" d="M207.8,270.8c0,0-10.4,16,0,16S207.8,270.8,207.8,270.8z"/>
				
					<linearGradient id="SVGID_20_" gradientUnits="userSpaceOnUse" x1="207.75" y1="465.12" x2="207.75" y2="472.23" gradientTransform="matrix(1 0 0 -1 0 752)">
					<stop  offset="0" style="stop-color:#FFEA6C;stop-opacity:0.67"/>
					<stop  offset="0.19" style="stop-color:#FFEA6C;stop-opacity:0.56"/>
					<stop  offset="0.6" style="stop-color:#FFEA6C;stop-opacity:0.29"/>
					<stop  offset="1" style="stop-color:#FFEA6C;stop-opacity:0"/>
				</linearGradient>
				<path class="st28" d="M207.8,279.8c0,0-4.6,7.1,0,7.1S207.8,279.8,207.8,279.8z"/>
			</g>
		</g>
		<g>
			<path class="st22" d="M292.5,309.4h-2.2c-0.6,0-1-0.4-1-1v-23l0,0h4.1l0,0v23C293.4,308.9,293,309.3,292.5,309.4z"/>
			<g>
				<path class="st3" d="M291.4,270.8c0,0,10.4,16,0,16S291.4,270.8,291.4,270.8z"/>
				
					<linearGradient id="SVGID_21_" gradientUnits="userSpaceOnUse" x1="291.38" y1="465.12" x2="291.38" y2="472.23" gradientTransform="matrix(1 0 0 -1 0 752)">
					<stop  offset="0" style="stop-color:#FFEA6C;stop-opacity:0.67"/>
					<stop  offset="0.19" style="stop-color:#FFEA6C;stop-opacity:0.56"/>
					<stop  offset="0.6" style="stop-color:#FFEA6C;stop-opacity:0.29"/>
					<stop  offset="1" style="stop-color:#FFEA6C;stop-opacity:0"/>
				</linearGradient>
				<path class="st29" d="M291.4,279.8c0,0,4.6,7.1,0,7.1S291.4,279.8,291.4,279.8z"/>
			</g>
		</g>
	</g>
	<g>
		<g>
			<g>
				<path class="st8" d="M410.4,243.9c-0.1,0-0.2,0.1-0.3,0.2c-0.5,1.4,9,7.7,21.8,12.1c3.4,1.1,6.8,2.1,10.3,2.8l13.6-72.4
					L410.4,243.9z"/>
				<path class="st7" d="M456.6,259.9L456.6,259.9L456.6,259.9l-0.8-73.2l-13.6,72.4C450.3,260.8,456.3,260.9,456.6,259.9
					L456.6,259.9L456.6,259.9z"/>
			</g>
			<g>
				<g>
					<defs>
						<path id="SVGID_22_" d="M456.6,259.9L456.6,259.9L456.6,259.9l-0.8-73.2l-45.5,57.3c-0.1,0-0.2,0.1-0.3,0.2
							c-0.5,1.4,9,7.7,21.8,12.1S456.1,261.3,456.6,259.9L456.6,259.9L456.6,259.9z"/>
					</defs>
					<clipPath id="SVGID_23_">
						<use xlink:href="#SVGID_22_"  style="overflow:visible;"/>
					</clipPath>
					<g class="st30">
						<g>
							<polygon class="st15" points="461.7,257.4 407.5,253.6 408.5,250.6 462.7,254.4 							"/>
							<polygon class="st15" points="465.2,247 411,243.2 412,240.2 466.2,244 							"/>
							<polygon class="st15" points="468.7,236.6 414.5,232.8 415.6,229.8 469.8,233.7 							"/>
							<polygon class="st15" points="472.3,226.3 418.1,222.4 419.1,219.5 473.3,223.3 							"/>
							<polygon class="st15" points="475.8,215.9 421.6,212.1 422.6,209.1 476.8,212.9 							"/>
							<polygon class="st15" points="479.3,205.5 425.1,201.7 426.1,198.7 480.3,202.5 							"/>
							<polygon class="st15" points="482.8,195.1 428.6,191.3 429.6,188.3 483.8,192.2 							"/>
						</g>
					</g>
				</g>
				<path class="st15" d="M458.6,179.3l-0.1,4.7c0,0.1,0.1,0.3,0.2,0.3l4.4,1.5c0.2,0.1,0.3,0.2,0.2,0.4c0,0.1-0.1,0.2-0.2,0.2
					l-4.5,1.4c-0.1,0-0.2,0.2-0.2,0.3l0,4.7c0,0.2-0.1,0.3-0.3,0.3c-0.1,0-0.2-0.1-0.3-0.1l-2.7-3.8c-0.1-0.1-0.2-0.2-0.4-0.1
					l-4.5,1.4c-0.2,0.1-0.4,0-0.4-0.2c0-0.1,0-0.2,0.1-0.3l2.8-3.8c0.1-0.1,0.1-0.3,0-0.4L450,182c-0.1-0.2-0.1-0.4,0.1-0.5
					c0.1-0.1,0.2-0.1,0.3,0l4.4,1.5c0.1,0,0.3,0,0.4-0.1l2.8-3.7c0.1-0.1,0.4-0.2,0.5,0C458.5,179.2,458.6,179.2,458.6,179.3z"/>
			</g>
		</g>
		<g>
			<g>
				<path class="st8" d="M99.8,260.6c0.1,0,0.2,0.1,0.3,0.2c0.5,1.4-9,7.7-21.8,12.1c-3.4,1.1-6.8,2.1-10.3,2.8l-13.6-72.4
					L99.8,260.6z"/>
				<path class="st7" d="M53.6,276.5L53.6,276.5L53.6,276.5l0.8-73.2l13.6,72.4C59.9,277.5,53.9,277.6,53.6,276.5L53.6,276.5
					L53.6,276.5z"/>
			</g>
			<g>
				<g>
					<defs>
						<path id="SVGID_24_" d="M53.6,276.5L53.6,276.5L53.6,276.5l0.8-73.2l45.5,57.2c0.1,0,0.2,0.1,0.3,0.2c0.5,1.4-9,7.7-21.8,12.1
							S54,278,53.6,276.5L53.6,276.5L53.6,276.5z"/>
					</defs>
					<clipPath id="SVGID_25_">
						<use xlink:href="#SVGID_24_"  style="overflow:visible;"/>
					</clipPath>
					<g class="st31">
						<g>
							<polygon class="st15" points="48.5,274 102.6,270.2 101.6,267.2 47.5,271 							"/>
							<polygon class="st15" points="44.9,263.7 99.1,259.8 98.1,256.9 43.9,260.7 							"/>
							<polygon class="st15" points="41.4,253.3 95.6,249.5 94.6,246.5 40.4,250.3 							"/>
							<polygon class="st15" points="37.9,242.9 92.1,239.1 91.1,236.1 36.9,239.9 							"/>
							<polygon class="st15" points="34.4,232.5 88.6,228.7 87.6,225.7 33.4,229.6 							"/>
							<polygon class="st15" points="30.9,222.2 85.1,218.3 84.1,215.4 29.9,219.2 							"/>
							<polygon class="st15" points="27.4,211.8 81.6,208 80.5,205 26.4,208.8 							"/>
						</g>
					</g>
				</g>
				<path class="st15" d="M51.6,196l0.1,4.7c0,0.1-0.1,0.3-0.2,0.3l-4.4,1.5c-0.2,0.1-0.3,0.2-0.2,0.4c0,0.1,0.1,0.2,0.2,0.2
					l4.5,1.4c0.1,0,0.2,0.2,0.2,0.3l0.1,4.7c0,0.2,0.2,0.3,0.3,0.3c0.1,0,0.2-0.1,0.3-0.1l2.7-3.8c0.1-0.1,0.2-0.2,0.4-0.1l4.5,1.4
					c0.2,0.1,0.4,0,0.4-0.2c0-0.1,0-0.2-0.1-0.3l-2.8-3.7c-0.1-0.1-0.1-0.3,0-0.4l2.7-3.8c0.1-0.2,0.1-0.4-0.1-0.5
					c-0.1-0.1-0.2-0.1-0.3,0l-4.4,1.5c-0.1,0-0.3,0-0.4-0.1l-2.8-3.7c-0.1-0.2-0.3-0.2-0.5-0.1C51.6,195.7,51.6,195.9,51.6,196z"/>
			</g>
		</g>
	</g>
	<g>
		<g>
			<ellipse class="st19" cx="113.8" cy="431" rx="15.1" ry="3.3"/>
			<ellipse class="st19" cx="131" cy="453.6" rx="15.1" ry="3.3"/>
			<ellipse class="st19" cx="277.9" cy="484.8" rx="33.5" ry="7.3"/>
			<path class="st19" d="M399,455.7c0,2.8-10.5,5.1-23.5,5.1s-23.5-2.3-23.5-5.1s10.5-5.1,23.5-5.1S399,452.8,399,455.7z"/>
			<path class="st19" d="M413,425.8c0,1.8-6.8,3.3-15.1,3.3s-15.1-1.5-15.1-3.3s6.8-3.3,15.1-3.3S413,424,413,425.8z"/>
			<ellipse class="st19" cx="177.9" cy="477.7" rx="44.9" ry="7.3"/>
		</g>
		<g>
			<g>
				<g>
					<path class="st2" d="M274.6,467c1.1,1,2.1,2,3,3.2l0.2,5.2c-1.6,0.9-3.2,1.6-5,1.9C270.6,472.2,272.7,468.8,274.6,467z"/>
					<path class="st3" d="M268.3,473.6c0,0-2.6-0.7-2.3-2.9s3.9-2.2,3.9-2.2s-3.1-4.4,0.7-3.7c1.5,0.4,3,1.1,4.1,2.2
						c-2,1.9-4,5.3-1.9,10.3c-3.2,0.8-6.5,0.9-7.1-0.2C264.8,475.4,268.3,473.6,268.3,473.6z"/>
					<path class="st3" d="M306.8,472.8c2.9-0.6,5.7-0.6,6.2,0.4c0.9,1.7-2.6,3.5-2.6,3.5s2.6,0.7,2.3,2.9s-3.9,2.2-3.9,2.2
						s3.1,4.4-0.7,3.7c-2.2-0.4-4.2-2.1-5.5-3.5C306.4,478.8,307,475.4,306.8,472.8z"/>
					<path class="st2" d="M300.9,475c1.8-1,3.8-1.7,5.9-2.1c0.2,2.5-0.4,6-4.1,9.2c-0.6-0.6-1.1-1.2-1.6-1.9L300.9,475z"/>
				</g>
				<g>
					<g>
						<polygon class="st12" points="274.4,472.2 274.4,472.2 274.4,472.2 						"/>
						<path class="st3" d="M286.6,480.2c-5-0.7-9.5-3.7-12.2-8l0,0l0.2-0.1h-0.2c1-4.8,7.6-8.3,15.3-7.9c8.3,0.4,14.7,5.1,14.5,10.4
							c-0.1,1.1-0.4,2.1-0.9,3C300.8,478.7,293.6,481.3,286.6,480.2z"/>
						<path class="st13" d="M274.4,472.2C274.4,472.2,274.4,472.2,274.4,472.2l0.2,0L274.4,472.2z"/>
						<path class="st2" d="M288.7,483.5c-8.3-0.4-14.7-5.1-14.5-10.4c0-0.3,0-0.6,0.1-0.9c2.7,4.3,7.1,7.3,12.2,8
							c7,1.1,14.2-1.5,16.7-2.6C301.1,481.4,295.4,483.9,288.7,483.5z"/>
					</g>
					<g>
						<defs>
							
								<ellipse id="SVGID_26_" transform="matrix(5.059297e-02 -0.9987 0.9987 5.059297e-02 -198.7256 738.7643)" cx="289.2" cy="473.9" rx="9.6" ry="15"/>
						</defs>
						<clipPath id="SVGID_27_">
							<use xlink:href="#SVGID_26_"  style="overflow:visible;"/>
						</clipPath>
						<g class="st32">
							<g>
								<polygon class="st15" points="281.1,452.7 264,484.5 265.5,485 282.6,453.2 								"/>
								<polygon class="st15" points="286.3,454.3 269.2,486.1 270.7,486.6 287.8,454.8 								"/>
								<polygon class="st15" points="291.5,455.9 274.4,487.8 275.8,488.2 293,456.4 								"/>
								<polygon class="st15" points="296.6,457.5 279.5,489.4 281,489.9 298.1,458 								"/>
								<polygon class="st15" points="301.8,459.2 284.7,491 286.2,491.5 303.3,459.6 								"/>
								<polygon class="st15" points="307,460.8 289.9,492.6 291.4,493.1 308.5,461.3 								"/>
								<polygon class="st15" points="312.2,462.4 295,494.3 296.5,494.7 313.6,462.9 								"/>
							</g>
						</g>
					</g>
				</g>
			</g>
			<g>
				<g>
					<path class="st2" d="M387.5,419.1c0.8,0.4,1.6,0.9,2.3,1.5l0.9,3.2c-0.8,0.8-1.8,1.5-2.8,2
						C386.3,423.9,386.1,421.2,387.5,419.1z"/>
					<path class="st3" d="M384.6,424.2c0,0-1.7,0-1.9-1.5s2-2,2-2s-2.6-2.3-0.1-2.4c1,0,2,0.2,2.9,0.7c-1.4,2.1-1.2,4.8,0.4,6.7
						c-1.9,1-3.9,1.5-4.4,0.9C382.7,425.8,384.6,424.2,384.6,424.2z"/>
					<path class="st3" d="M408.3,417.9c1.7-0.8,3.4-1.2,3.9-0.7c0.8,0.9-1.1,2.5-1.1,2.5s1.7,0,1.9,1.5s-2,2-2,2s2.6,2.3,0.1,2.4
						c-1.4,0-2.8-0.5-4-1.3C408.6,422.4,409,420,408.3,417.9z"/>
					<path class="st2" d="M405,420c1-0.9,2.1-1.7,3.3-2.2c0.7,2.2,0.3,4.5-1.2,6.3c-0.4-0.3-0.9-0.6-1.3-0.9L405,420z"/>
				</g>
				<g>
					<g>
						<polygon class="st12" points="388.2,422.4 388.2,422.4 388.2,422.4 						"/>
						<path class="st3" d="M396.9,425.5c-3.2,0.3-6.4-0.8-8.8-3.1l0,0l0.1-0.1h-0.1c-0.1-3.1,3.4-6.3,8.3-7.2
							c5.2-1,9.9,0.9,10.5,4.2c0.1,0.7,0.1,1.4-0.1,2C405.5,422.4,401.4,425.1,396.9,425.5z"/>
						<path class="st13" d="M388.2,422.4L388.2,422.4h0.1H388.2z"/>
						<path class="st2" d="M398.8,427.2c-5.2,1-9.9-0.9-10.5-4.2c0-0.2-0.1-0.4-0.1-0.6c2.3,2.3,5.5,3.4,8.8,3.1
							c4.5-0.4,8.6-3.1,9.9-4.1C406.1,424,402.9,426.4,398.8,427.2z"/>
					</g>
					<g>
						<defs>
							<path id="SVGID_28_" d="M388.2,423c0.6,3.3,5.4,5.2,10.5,4.2s8.8-4.5,8.2-7.9s-5.4-5.2-10.5-4.2S387.6,419.6,388.2,423z"/>
						</defs>
						<clipPath id="SVGID_29_">
							<use xlink:href="#SVGID_28_"  style="overflow:visible;"/>
						</clipPath>
						<g class="st33">
							<g>
								<polygon class="st15" points="389.4,409.3 383.6,431.6 384.6,431.7 390.4,409.4 								"/>
								<polygon class="st15" points="392.8,409.5 387.1,431.8 388.1,431.9 393.8,409.6 								"/>
								<polygon class="st15" points="396.3,409.7 390.5,432 391.5,432.1 397.3,409.8 								"/>
								<polygon class="st15" points="399.7,409.9 394,432.2 395,432.3 400.7,410 								"/>
								<polygon class="st15" points="403.2,410.1 397.4,432.5 398.4,432.5 404.1,410.2 								"/>
								<polygon class="st15" points="406.6,410.4 400.9,432.7 401.9,432.7 407.6,410.4 								"/>
								<polygon class="st15" points="410.1,410.6 404.3,432.9 405.3,432.9 411,410.6 								"/>
							</g>
						</g>
					</g>
				</g>
			</g>
			<g>
				<g>
					<path class="st2" d="M121.6,447c0.8,0.4,1.6,0.9,2.4,1.5l0.9,3.2c-0.8,0.8-1.8,1.5-2.8,2C120.5,451.8,120.3,449.1,121.6,447z"
						/>
					<path class="st3" d="M118.7,452c0,0-1.7,0-1.9-1.5s2-2,2-2s-2.6-2.3-0.2-2.4c1,0,2,0.2,2.9,0.7c-1.4,2.1-1.2,4.8,0.4,6.7
						c-1.9,1-3.9,1.5-4.4,0.9C116.8,453.6,118.7,452,118.7,452z"/>
					<path class="st3" d="M142.4,445.7c1.7-0.8,3.4-1.2,3.9-0.7c0.8,0.9-1.1,2.5-1.1,2.5s1.7,0,1.9,1.5s-2,2-2,2s2.6,2.3,0.1,2.4
						c-1.4,0-2.8-0.5-3.9-1.3C142.8,450.3,143.2,447.9,142.4,445.7z"/>
					<path class="st2" d="M139.1,447.9c1-0.9,2.1-1.7,3.3-2.2c0.7,2.2,0.3,4.5-1.1,6.3c-0.4-0.3-0.9-0.6-1.3-0.9L139.1,447.9z"/>
				</g>
				<g>
					<g>
						<polygon class="st12" points="122.3,450.3 122.3,450.3 122.3,450.3 						"/>
						<path class="st3" d="M131,453.3c-3.2,0.3-6.4-0.8-8.8-3.1l0,0l0.1-0.1h-0.1c-0.1-3.1,3.4-6.3,8.3-7.2c5.2-1,9.9,0.9,10.5,4.2
							c0.1,0.7,0.1,1.4-0.1,2C139.6,450.2,135.6,453,131,453.3z"/>
						<path class="st13" d="M122.3,450.3L122.3,450.3h0.1H122.3z"/>
						<path class="st2" d="M132.9,455.1c-5.2,1-9.9-0.9-10.5-4.2c0-0.2-0.1-0.4-0.1-0.6c2.3,2.3,5.5,3.4,8.8,3.1
							c4.5-0.4,8.6-3.1,9.9-4.1C140.2,451.8,137,454.3,132.9,455.1z"/>
					</g>
					<g>
						<defs>
							
								<ellipse id="SVGID_30_" transform="matrix(0.9819 -0.1896 0.1896 0.9819 -82.7488 33.1225)" cx="131.7" cy="449" rx="9.5" ry="6.1"/>
						</defs>
						<clipPath id="SVGID_31_">
							<use xlink:href="#SVGID_30_"  style="overflow:visible;"/>
						</clipPath>
						<g class="st34">
							<g>
								<polygon class="st15" points="123.5,437.1 117.8,459.4 118.8,459.5 124.5,437.2 								"/>
								<polygon class="st15" points="126.9,437.3 121.2,459.6 122.2,459.7 127.9,437.4 								"/>
								<polygon class="st15" points="130.4,437.6 124.7,459.9 125.6,459.9 131.4,437.6 								"/>
								<polygon class="st15" points="133.8,437.8 128.1,460.1 129.1,460.1 134.8,437.8 								"/>
								<polygon class="st15" points="137.3,438 131.5,460.3 132.5,460.4 138.3,438 								"/>
								<polygon class="st15" points="140.7,438.2 135,460.5 136,460.6 141.7,438.3 								"/>
								<polygon class="st15" points="144.2,438.4 138.4,460.7 139.4,460.8 145.2,438.5 								"/>
							</g>
						</g>
					</g>
				</g>
			</g>
			<g>
				<g>
					<path class="st7" d="M106.3,423.2c0.6,0.5,1.2,1.2,1.7,1.9l0.1,3c-0.9,0.5-1.9,0.9-2.9,1.1
						C104.2,427.2,104.6,424.8,106.3,423.2z"/>
					<path class="st8" d="M102.6,427c0,0-1.5-0.4-1.3-1.7s2.2-1.3,2.2-1.3s-1.8-2.5,0.4-2.1c0.9,0.2,1.7,0.6,2.4,1.3
						c-1.6,1.5-2.1,3.9-1.1,5.9c-1.8,0.4-3.7,0.5-4-0.1C100.6,428,102.6,427,102.6,427z"/>
					<path class="st8" d="M124.7,426.6c1.7-0.3,3.3-0.3,3.6,0.2c0.5,1-1.5,2-1.5,2s1.5,0.4,1.3,1.7s-2.2,1.3-2.2,1.3
						s1.8,2.5-0.4,2.1c-1.2-0.3-2.3-1-3.2-2C123.9,430.7,124.8,428.7,124.7,426.6z"/>
					<path class="st7" d="M121.3,427.8c1-0.6,2.2-1,3.3-1.2c0.1,2-0.7,4-2.4,5.3c-0.3-0.3-0.6-0.7-0.9-1.1L121.3,427.8z"/>
				</g>
				<g>
					<g>
						<polygon class="st12" points="106.1,426.3 106.1,426.3 106.1,426.3 						"/>
						<path class="st8" d="M113.1,430.8c-2.9-0.4-5.4-2.1-7-4.6l0,0h0.1h-0.1c0.6-2.8,4.3-4.8,8.8-4.5c4.7,0.2,8.4,2.9,8.3,6
							c0,0.6-0.2,1.2-0.5,1.7C119.6,430.7,116.3,431.2,113.1,430.8z"/>
						<path class="st13" d="M106.1,426.3L106.1,426.3h0.1H106.1z"/>
						<path class="st7" d="M114.3,432.7c-4.7-0.2-8.4-2.9-8.3-6c0-0.2,0-0.3,0.1-0.5c1.6,2.5,4.1,4.1,7,4.6c3.3,0.3,6.6-0.2,9.6-1.5
							C121.4,431.5,118.1,432.9,114.3,432.7z"/>
					</g>
					<g>
						<defs>
							<path id="SVGID_32_" d="M106.1,426.8c-0.2,3,3.6,5.7,8.3,6s8.7-2,8.8-5.1s-3.6-5.7-8.3-6S106.2,423.7,106.1,426.8z"/>
						</defs>
						<clipPath id="SVGID_33_">
							<use xlink:href="#SVGID_32_"  style="overflow:visible;"/>
						</clipPath>
						<g class="st35">
							<g>
								<polygon class="st15" points="110,415.1 100.2,433.3 101,433.6 110.8,415.3 								"/>
								<polygon class="st15" points="112.9,416 103.1,434.2 104,434.5 113.8,416.3 								"/>
								<polygon class="st15" points="115.9,416.9 106.1,435.1 106.9,435.4 116.8,417.2 								"/>
								<polygon class="st15" points="118.9,417.9 109.1,436.1 109.9,436.3 119.7,418.1 								"/>
								<polygon class="st15" points="121.8,418.8 112,437 112.9,437.3 122.7,419 								"/>
								<polygon class="st15" points="124.8,419.7 115,437.9 115.8,438.2 125.6,420 								"/>
								<polygon class="st15" points="127.7,420.6 117.9,438.9 118.8,439.1 128.6,420.9 								"/>
							</g>
						</g>
					</g>
				</g>
			</g>
			<g>
				<g>
					<path class="st7" d="M252,476.4c1.2,0.6,2.4,1.3,3.4,2.1l1.4,4.5c-1.2,1.2-2.5,2.2-4,2.9C249.8,482,250.8,478.6,252,476.4z"/>
					<path class="st8" d="M248,483.9c0,0-2.5,0-2.8-2s2.9-2.9,2.9-2.9s-3.9-3.2-0.3-3.5c1.5,0,2.9,0.3,4.2,1
						c-1.3,2.1-2.3,5.6,0.9,9.6c-2.7,1.5-5.6,2.4-6.3,1.5C245.4,486.3,248,483.9,248,483.9z"/>
					<path class="st8" d="M282,473.8c2.5-1.2,4.9-1.9,5.6-1.1c1.2,1.3-1.5,3.7-1.5,3.7s2.5,0,2.8,2s-2.9,2.9-2.9,2.9
						s3.9,3.2,0.3,3.5c-2.1,0-4.1-0.6-5.8-1.8C283.1,479.2,282.8,476,282,473.8z"/>
					<path class="st7" d="M277.3,477.1c1.4-1.4,2.9-2.5,4.7-3.3c0.8,2.2,1.1,5.4-1.4,9.2c-0.6-0.4-1.3-0.8-1.9-1.3L277.3,477.1z"/>
				</g>
				<g>
					<g>
						<polygon class="st12" points="253.1,481.2 253.1,481.2 253.1,481.2 						"/>
						<path class="st8" d="M265.9,485.3c-4.6,0.6-9.3-0.9-12.8-4.1l0,0l0.2-0.1l-0.2,0c-0.3-4.5,4.7-9.2,11.7-10.8
							c7.4-1.6,14.3,0.9,15.4,5.7c0.2,0.9,0.2,1.9-0.1,2.9C278.1,480.5,272.3,484.6,265.9,485.3z"/>
						<path class="st13" d="M253.1,481.2L253.1,481.2l0.2-0.1L253.1,481.2z"/>
						<path class="st7" d="M268.6,487.7c-7.4,1.6-14.3-0.9-15.4-5.7c-0.1-0.3-0.1-0.5-0.1-0.8c3.4,3.2,8.1,4.7,12.8,4.1
							c6.5-0.7,12.2-4.8,14.2-6.3C279,482.8,274.5,486.4,268.6,487.7z"/>
					</g>
					<g>
						<defs>
							<path id="SVGID_34_" d="M253.2,482c1.1,4.8,7.9,7.4,15.4,5.7s12.6-6.8,11.5-11.6s-7.9-7.4-15.4-5.7S252.2,477.2,253.2,482z"
								/>
						</defs>
						<clipPath id="SVGID_35_">
							<use xlink:href="#SVGID_34_"  style="overflow:visible;"/>
						</clipPath>
						<g class="st36">
							<g>
								<polygon class="st15" points="254.4,462.2 246.9,494.6 248.3,494.6 255.8,462.2 								"/>
								<polygon class="st15" points="259.4,462.4 251.9,494.8 253.3,494.8 260.8,462.4 								"/>
								<polygon class="st15" points="264.3,462.5 256.9,495 258.3,495 265.8,462.6 								"/>
								<polygon class="st15" points="269.3,462.7 261.9,495.1 263.3,495.2 270.7,462.8 								"/>
								<polygon class="st15" points="274.3,462.9 266.8,495.3 268.3,495.4 275.7,463 								"/>
								<polygon class="st15" points="279.3,463.1 271.8,495.5 273.2,495.6 280.7,463.1 								"/>
								<polygon class="st15" points="284.3,463.3 276.8,495.7 278.2,495.7 285.7,463.3 								"/>
							</g>
						</g>
					</g>
				</g>
			</g>
			<g>
				<g>
					<path class="st7" d="M362.1,446.3c1.2,0.6,2.3,1.3,3.3,2.2l1.2,4.5c-1.2,1.1-2.5,2-3.9,2.7
						C359.8,451.7,360.8,448.4,362.1,446.3z"/>
					<path class="st8" d="M358,453.4c0,0-2.4,0-2.6-2s2.9-2.8,2.9-2.8s-3.6-3.2-0.2-3.4c1.4,0,2.8,0.3,4,1c-1.3,2-2.4,5.4,0.6,9.4
						c-2.6,1.3-5.5,2.1-6.2,1.3C355.4,455.7,358,453.4,358,453.4z"/>
					<path class="st8" d="M391.3,444.6c2.4-1.1,4.8-1.7,5.5-1c1.1,1.3-1.5,3.5-1.5,3.5s2.4,0.1,2.6,2S395,452,395,452
						s3.6,3.2,0.2,3.4c-2-0.1-3.9-0.7-5.5-1.9C392.2,449.9,392,446.8,391.3,444.6z"/>
					<path class="st7" d="M386.6,447.7c1.4-1.3,2.9-2.3,4.6-3.1c0.7,2.1,0.9,5.3-1.6,8.9c-0.6-0.4-1.2-0.8-1.8-1.3L386.6,447.7z"/>
				</g>
				<g>
					<g>
						<polygon class="st12" points="363,451 363,451 363,451 						"/>
						<path class="st8" d="M375.3,455.3c-4.5,0.4-9-1.1-12.3-4.3l0,0l0.2-0.1H363c-0.2-4.4,4.8-8.8,11.6-10.1
							c7.3-1.4,13.9,1.3,14.8,6c0.2,0.9,0.1,1.9-0.1,2.8C387.3,451,381.6,454.8,375.3,455.3z"/>
						<path class="st13" d="M363,451L363,451l0.2,0L363,451z"/>
						<path class="st7" d="M377.9,457.7c-7.3,1.4-13.9-1.3-14.8-6c-0.1-0.3-0.1-0.5-0.1-0.8c3.3,3.2,7.7,4.8,12.3,4.3
							c6.3-0.5,12-4.3,14-5.8C388.2,453.2,383.7,456.6,377.9,457.7z"/>
					</g>
					<g>
						<defs>
							<path id="SVGID_36_" d="M363.1,451.8c0.9,4.7,7.5,7.4,14.8,6s12.4-6.3,11.5-11s-7.5-7.4-14.8-6S362.2,447.1,363.1,451.8z"/>
						</defs>
						<clipPath id="SVGID_37_">
							<use xlink:href="#SVGID_36_"  style="overflow:visible;"/>
						</clipPath>
						<g class="st37">
							<g>
								<polygon class="st15" points="364.8,432.5 356.6,463.8 358,463.9 366.2,432.6 								"/>
								<polygon class="st15" points="369.6,432.9 361.5,464.1 362.9,464.2 371,433 								"/>
								<polygon class="st15" points="374.4,433.2 366.3,464.4 367.7,464.5 375.8,433.3 								"/>
								<polygon class="st15" points="379.3,433.5 371.1,464.8 372.5,464.8 380.6,433.6 								"/>
								<polygon class="st15" points="384.1,433.8 376,465.1 377.4,465.1 385.5,433.9 								"/>
								<polygon class="st15" points="388.9,434.1 380.8,465.4 382.2,465.5 390.3,434.2 								"/>
								<polygon class="st15" points="393.8,434.4 385.6,465.7 387,465.8 395.1,434.5 								"/>
							</g>
						</g>
					</g>
				</g>
			</g>
			<g>
				<g>
					<path class="st3" d="M214.9,474.4c0.1,0.1,0.2,0.3,0.2,0.5c0,2.2-16.7,6.6-37.2,6.6c-5.4,0-10.8-0.4-16.2-1l16.2-110.5
						L214.9,474.4z"/>
					<path class="st2" d="M140.8,474.5l0.1-0.1l0,0l37.1-104.4l-16.2,110.5C149.3,478.9,140.8,476.1,140.8,474.5
						C140.8,474.5,140.8,474.5,140.8,474.5L140.8,474.5z"/>
				</g>
				<g>
					<g>
						<defs>
							<path id="SVGID_38_" d="M140.8,474.5l0.1-0.1l0,0l37.1-104.4l37,104.5c0.1,0.1,0.2,0.3,0.2,0.5c0,2.2-16.7,6.6-37.2,6.6
								S140.8,476.8,140.8,474.5C140.8,474.5,140.8,474.5,140.8,474.5L140.8,474.5z"/>
						</defs>
						<clipPath id="SVGID_39_">
							<use xlink:href="#SVGID_38_"  style="overflow:visible;"/>
						</clipPath>
						<g class="st38">
							<g>
								<g>
									<polygon class="st2" points="149.2,450.8 165.4,455.2 167.1,443.8 153,440 									"/>
									<polygon class="st2" points="154.6,435.6 167.8,439.2 169.4,427.8 158.4,424.8 									"/>
									<polygon class="st2" points="143.8,466 163.1,471.2 164.8,459.8 147.6,455.2 									"/>
									<path class="st2" d="M140.8,474.3L140.8,474.3l-0.1,0.1l0,0c0,0,0,0,0,0.1c0,1.6,8.6,4.4,21,5.9l0.7-4.6l-20.2-5.4
										L140.8,474.3z"/>
									<polygon class="st2" points="159.9,420.5 170.1,423.2 171.8,411.8 163.8,409.6 									"/>
									<polygon class="st2" points="169.2,394.5 165.3,405.3 172.5,407.2 174.1,395.8 									"/>
									<polygon class="st2" points="177.9,369.9 170.7,390.1 174.8,391.2 									"/>
									<polygon class="st22" points="134.7,463.6 134.7,468.4 142.2,470.4 143.8,466 									"/>
									<polygon class="st22" points="214.3,489.6 214.3,484.8 163.1,471.2 162.4,475.8 									"/>
									<polygon class="st8" points="142.2,470.4 162.4,475.8 163.1,471.2 143.8,466 									"/>
									<polygon class="st22" points="214.3,473 214.4,468.2 165.4,455.2 164.8,459.8 									"/>
									<polygon class="st22" points="134.8,447 134.8,451.8 147.6,455.2 149.2,450.8 									"/>
									<polygon class="st8" points="147.6,455.2 164.8,459.8 165.4,455.2 149.2,450.8 									"/>
									<polygon class="st22" points="134.8,430.4 134.8,435.2 153,440 154.6,435.6 									"/>
									<polygon class="st22" points="214.4,456.4 214.4,451.6 167.8,439.2 167.1,443.8 									"/>
									<polygon class="st8" points="153,440 167.1,443.8 167.8,439.2 154.6,435.6 									"/>
									<polygon class="st22" points="214.5,439.8 214.5,435 170.1,423.2 169.4,427.8 									"/>
									<polygon class="st22" points="134.9,413.8 134.9,418.6 158.4,424.8 159.9,420.5 									"/>
									<polygon class="st8" points="158.4,424.8 169.4,427.8 170.1,423.2 159.9,420.5 									"/>
									<polygon class="st22" points="135,397.2 135,402 163.8,409.6 165.3,405.3 									"/>
									<polygon class="st22" points="214.5,423.2 214.6,418.4 172.5,407.2 171.8,411.8 									"/>
									<polygon class="st8" points="163.8,409.6 171.8,411.8 172.5,407.2 165.3,405.3 									"/>
									<polygon class="st22" points="135.1,380.6 135,385.3 169.2,394.5 170.7,390.1 									"/>
									<polygon class="st22" points="214.6,406.5 214.6,401.8 174.8,391.2 174.1,395.8 									"/>
									<polygon class="st8" points="174.8,391.2 170.7,390.1 169.2,394.5 174.1,395.8 									"/>
								</g>
								<polygon class="st2" points="135.1,368.7 214.7,390 214.7,385.2 135.1,364 								"/>
							</g>
						</g>
					</g>
					<path class="st3" d="M177.6,358l-2.2,6.7c-0.1,0.2-0.3,0.4-0.5,0.4h-7.1c-0.3,0-0.5,0.2-0.5,0.5c0,0.2,0.1,0.3,0.2,0.4l5.7,4.2
						c0.2,0.1,0.3,0.4,0.2,0.6l-2.2,6.7c-0.1,0.3,0.1,0.6,0.3,0.6c0.1,0,0.3,0,0.4-0.1l5.8-4.1c0.2-0.1,0.4-0.1,0.6,0l5.7,4.2
						c0.2,0.2,0.6,0.1,0.7-0.1c0.1-0.1,0.1-0.3,0.1-0.4l-2.2-6.7c-0.1-0.2,0-0.4,0.2-0.6l5.7-4.1c0.2-0.2,0.3-0.5,0.1-0.7
						c-0.1-0.1-0.3-0.2-0.4-0.2h-7.1c-0.2,0-0.4-0.1-0.5-0.4l-2.2-6.8c-0.1-0.3-0.4-0.4-0.6-0.3C177.8,357.7,177.7,357.8,177.6,358z
						"/>
				</g>
			</g>
		</g>
	</g>
	<g>
		<defs>
			<rect id="SVGID_40_" y="0.4" width="500" height="500"/>
		</defs>
		<clipPath id="SVGID_41_">
			<use xlink:href="#SVGID_40_"  style="overflow:visible;"/>
		</clipPath>
		<g class="st39">
			<g>
				<g>
					<polygon class="st8" points="2.7,46.2 22.9,80.8 26.8,40 					"/>
					<polygon class="st22" points="30.4,39.7 54.5,70.1 53.9,31.2 					"/>
					<polygon class="st3" points="56,29.6 80.3,52.9 78.5,18.2 					"/>
					<polygon class="st8" points="79.4,18.1 110.9,40.7 110.9,40.7 100,3 					"/>
					<path class="st15" d="M-6.2,49.3c-0.6,0-1-0.4-1.1-1C-7.4,47.6-7,47-6.4,46.9c0.8-0.1,77.8-13.8,110.2-50.6
						c0.3-0.4,1-0.5,1.4-0.2c0.1,0,0.1,0.1,0.2,0.2c0.4,0.5,0.4,1.2,0,1.7C72.6,35.4-5.2,49.1-6,49.3L-6.2,49.3z"/>
				</g>
				<g>
					<polygon class="st8" points="497.3,46.2 479.9,80.7 473.2,40 					"/>
					<polygon class="st22" points="469.6,39.7 449.3,73 446.1,31.2 					"/>
					<polygon class="st3" points="444,29.6 418.5,59.3 421.5,18.2 					"/>
					<polygon class="st8" points="420.5,18.1 388.4,39 400,3 					"/>
					<path class="st15" d="M506.2,49.3c0.6,0,1-0.4,1.1-1c0.1-0.6-0.3-1.2-0.9-1.4c-0.8-0.1-77.9-13.8-110.2-50.6
						c-0.3-0.4-1-0.5-1.4-0.2c-0.1,0-0.1,0.1-0.2,0.2c-0.4,0.5-0.4,1.2,0,1.7C427.4,35.4,505.2,49.1,506,49.3L506.2,49.3z"/>
				</g>
				<g>
					<g>
						<polygon class="st8" points="240.3,28.5 227,65.7 215.6,26.9 						"/>
						<polygon class="st22" points="215.1,25.9 195.7,61.6 190.7,22 						"/>
						<polygon class="st22" points="265.7,29.1 254.7,65.7 240.9,29 						"/>
						<polygon class="st3" points="190.1,22 171.2,54.8 166.3,14.9 						"/>
						<polygon class="st8" points="166.1,15 140.5,42.7 140.5,42.7 143.4,4 						"/>
						<path class="st15" d="M253.1,29.9c0.6-0.1,0.9-0.6,0.9-1.2c0-0.6-0.5-1.2-1.1-1.2c0,0,0,0,0,0c-0.8,0-78.8,0.2-116.1-30.4
							c-0.4-0.4-1-0.3-1.4,0.1c-0.1,0.1-0.1,0.1-0.1,0.2c-0.4,0.5-0.3,1.3,0.2,1.7c37.8,31.1,116.6,30.9,117.4,30.9L253.1,29.9z"/>
					</g>
					<g>
						<polygon class="st8" points="266.2,28.6 280.2,66.8 290.9,26.6 						"/>
						<polygon class="st22" points="291.6,26.5 312.3,60.4 316,22.1 						"/>
						<polygon class="st3" points="316.9,21.7 341.6,53.1 340.7,14.2 						"/>
						<polygon class="st8" points="341.6,14.2 369.3,41.3 364.1,2.8 						"/>
						<path class="st15" d="M252.7,29.8c-0.6-0.1-0.9-0.6-0.9-1.2c0-0.6,0.5-1.2,1.1-1.2c0,0,0,0,0,0c0.8,0,78.8,0.3,116.1-30.3
							c0.4-0.4,1-0.3,1.4,0.1c0,0.1,0.1,0.1,0.1,0.2c0.4,0.5,0.3,1.3-0.2,1.7c-37.9,31.1-116.7,30.8-117.5,30.8L252.7,29.8z"/>
					</g>
				</g>
			</g>
		</g>
	</g>
	<rect y="495.5" class="st0" width="500" height="254.5"/>
</g>
</svg>
