<?xml version="1.0" encoding="utf-8"?>
<!-- Generator: Adobe Illustrator 24.0.2, SVG Export Plug-In . SVG Version: 6.00 Build 0)  -->
<svg version="1.1" id="Layer_1" xmlns="http://www.w3.org/2000/svg" xmlns:xlink="http://www.w3.org/1999/xlink" x="0px" y="0px"
	 viewBox="0 0 396.9 595.3" style="enable-background:new 0 0 396.9 595.3;" xml:space="preserve">
<style type="text/css">
	.st0{fill:#FAD7DE;}
	.st1{fill:#F5B3C2;}
	.st2{fill:#FFFFFF;}
	.st3{fill:#FFE4B8;}
	.st4{opacity:0.5;fill:#E69362;enable-background:new    ;}
	.st5{opacity:0.5;fill:#FAC7A9;enable-background:new    ;}
	.st6{fill:#E69362;}
	.st7{fill:#8B1E32;}
	.st8{fill:#F5A373;}
	.st9{fill:#FAC7A9;}
	.st10{fill:#F9CAC8;}
	.st11{fill:none;stroke:#8B1E32;stroke-width:0.6339;stroke-linecap:round;stroke-linejoin:round;}
	.st12{opacity:0.5;fill:#F9CAC8;enable-background:new    ;}
	.st13{fill:#F5AEAB;}
	.st14{fill:#F39995;}
	.st15{clip-path:url(#SVGID_2_);}
	.st16{fill:#F5A8A2;}
</style>
<title>background</title>
<g>
	<g id="PRINT">
		<g>
			<rect x="0" y="-0.1" class="st0" width="396.9" height="595.3"/>
			<g>
				<rect x="31.1" y="0" class="st1" width="30.3" height="595.3"/>
				<rect x="92" y="0" class="st1" width="30.3" height="595.3"/>
				<rect x="152.8" y="0" class="st1" width="30.3" height="595.3"/>
				<rect x="213.7" y="0" class="st1" width="30.3" height="595.3"/>
				<rect x="274.6" y="0" class="st1" width="30.3" height="595.3"/>
				<rect x="335.5" y="0" class="st1" width="30.3" height="595.3"/>
			</g>
		</g>
		<g>
			<path class="st2" d="M371.7,138.4v357.9c0,47.8-35.9,86.6-80.2,86.6H105.3c-44.3,0-80.2-38.8-80.2-86.6V138.4
				c0-47.8,35.9-86.6,80.2-86.6h186.2C335.8,51.7,371.7,90.5,371.7,138.4z"/>
			<path class="st3" d="M291.5,51.7H105.3c-44.3,0-80.2,38.8-80.2,86.6v357.9c0,47.8,35.9,86.6,80.2,86.6h186.2
				c44.3,0,80.2-38.8,80.2-86.6V138.4C371.7,90.5,335.8,51.7,291.5,51.7z M366.4,194.7c-8.1,3.8-11.5,13.5-7.6,21.5
				c1.6,3.3,4.3,6,7.6,7.6c-8.1,3.8-11.5,13.5-7.6,21.5c1.6,3.3,4.3,6,7.6,7.6c-8,3.8-11.5,13.5-7.6,21.5c1.6,3.3,4.3,6,7.6,7.6
				c-8.1,3.8-11.5,13.5-7.6,21.5c1.6,3.3,4.3,6,7.6,7.6c-8.1,3.8-11.5,13.5-7.6,21.5c1.6,3.3,4.3,6,7.6,7.6
				c-8.1,3.8-11.5,13.5-7.6,21.5c1.6,3.3,4.3,6,7.6,7.6c-8,3.8-11.5,13.5-7.6,21.5c1.6,3.3,4.3,6,7.6,7.6
				c-8.1,3.8-11.5,13.5-7.6,21.5c1.6,3.3,4.3,6,7.6,7.6c-8.1,3.8-11.5,13.5-7.6,21.5c1.6,3.3,4.3,6,7.6,7.6
				c-8,3.8-11.5,13.5-7.6,21.5c1.6,3.3,4.3,6,7.6,7.6c-5.5,2.4-9.1,7.8-9.2,13.8c-0.3,5.3,2,10.4,6.2,13.7c-5.1,1-9.3,4.6-11,9.5
				c-1.9,5-1.3,10.7,1.7,15.2c-5-0.9-10.1,1-13.3,5c-3.4,4.2-4.5,9.7-3.1,14.9c-4.3-2.6-9.8-2.6-14.1,0c-4.5,2.8-7.3,7.6-7.5,12.9
				c-3.2-4-8.3-5.9-13.3-5c-5.3,1.1-9.7,5.1-11.3,10.3c-2.7-7.3-10.8-11.1-18.1-8.4c-4.1,1.5-7.3,4.9-8.6,9.1
				c-2.3-7.5-10.3-11.6-17.7-9.3c-4.4,1.4-7.9,4.9-9.3,9.3c-2.3-7.5-10.3-11.6-17.7-9.3c-4.4,1.4-7.9,4.8-9.3,9.3
				c-2.3-7.5-10.3-11.6-17.7-9.3c-4.4,1.4-7.9,4.9-9.3,9.3c-2.3-7.5-10.3-11.6-17.7-9.3c-4.4,1.4-7.9,4.9-9.3,9.3
				c-2.3-7.5-10.3-11.6-17.7-9.3c-4.4,1.4-7.9,4.8-9.3,9.3c-2.3-7.4-10.2-11.6-17.7-9.3c-4.1,1.3-7.4,4.3-9,8.4
				c-1.5-5.2-5.6-9.2-10.9-10.4c-5-1-10.1,0.7-13.4,4.6c0-5.3-2.7-10.2-7.1-13.2c-4.2-2.8-9.7-3-14.1-0.5c1.6-5.1,0.6-10.7-2.7-15
				c-3.1-4.1-8.1-6.2-13.2-5.5c3.1-4.4,3.8-10,2.1-15.1c-1.6-4.9-5.7-8.7-10.8-9.8c4.3-3.1,6.7-8.1,6.6-13.4
				c0-6.1-3.6-11.7-9.2-14.2c8-3.8,11.5-13.5,7.6-21.5c-1.6-3.3-4.3-6-7.6-7.6c8.1-3.8,11.5-13.5,7.6-21.5c-1.6-3.3-4.3-6-7.6-7.6
				c8.1-3.8,11.5-13.5,7.6-21.5c-1.6-3.3-4.3-6-7.6-7.6c8.1-3.8,11.5-13.5,7.6-21.5c-1.6-3.3-4.3-6-7.6-7.6
				c8-3.8,11.5-13.5,7.6-21.5c-1.6-3.3-4.3-6-7.6-7.6c8.1-3.8,11.5-13.5,7.6-21.5c-1.6-3.3-4.3-6-7.6-7.6
				c8.1-3.8,11.5-13.5,7.6-21.5c-1.6-3.3-4.3-6-7.6-7.6c8.1-3.8,11.5-13.5,7.6-21.5c-1.6-3.3-4.3-6-7.6-7.6
				c8-3.8,11.5-13.5,7.6-21.5c-1.6-3.3-4.3-6-7.6-7.6c8.1-3.8,11.5-13.5,7.6-21.5c-1.6-3.3-4.3-6-7.6-7.6
				c8.1-3.8,11.5-13.5,7.6-21.5c-1.6-3.3-4.3-6-7.6-7.6c8.1-3.9,11.5-13.5,7.6-21.6c-1.4-3-3.7-5.4-6.6-7.1c5-1.9,8.7-6.2,9.7-11.5
				c1.1-5.2-0.4-10.7-4-14.6c5.1-0.1,9.9-2.9,12.3-7.4c2.7-4.7,2.9-10.3,0.7-15.2c4.8,1.8,10.1,0.8,13.9-2.6c4-3.6,6-8.8,5.3-14.1
				c3.8,3.4,9.2,4.3,13.9,2.5c4.9-2,8.4-6.3,9.3-11.5c2.5,4.5,7.2,7.3,12.3,7.4h0.3c6.1-0.1,11.5-4.1,13.5-9.9
				c2.3,7.5,10.3,11.6,17.7,9.3c4.4-1.4,7.9-4.9,9.3-9.3c2.3,7.5,10.3,11.6,17.7,9.3c4.4-1.4,7.9-4.9,9.3-9.3
				c2.3,7.5,10.3,11.6,17.7,9.3c4.4-1.4,7.9-4.9,9.3-9.3c2.3,7.5,10.3,11.6,17.7,9.3c4.4-1.4,7.9-4.9,9.3-9.3
				c2.3,7.5,10.3,11.6,17.7,9.3c4.4-1.4,7.9-4.9,9.3-9.3c2.3,7.5,10.3,11.6,17.7,9.3c4.4-1.4,7.9-4.9,9.3-9.3c1.9,5.7,7,9.6,13,9.9
				c5.1,0.1,9.9-2.5,12.6-7c0.8,5.2,4.2,9.6,9,11.7c4.7,2,10.1,1.2,14-2.1c-0.8,5.3,1,10.6,4.9,14.3c3.7,3.5,9,4.7,13.8,3
				c-2.4,4.8-2.3,10.5,0.3,15.2c2.4,4.6,7,7.5,12.1,7.8c-3.7,3.8-5.4,9.2-4.4,14.5c0.9,5.4,4.5,9.9,9.6,11.9
				c-7.8,4.3-10.7,14.1-6.4,22c1.6,3,4.2,5.4,7.2,6.8c-8.1,3.8-11.5,13.5-7.6,21.5C360.4,190.5,363.1,193.1,366.4,194.7L366.4,194.7
				z"/>
		</g>
		<path class="st4" d="M197.8,273.4c0.4,0.3,0.9,0.5,1.4,0.7C198.6,274,198.1,273.8,197.8,273.4z"/>
		<path class="st5" d="M198.6,263.4c-0.1,0.1-0.2,0.2-0.4,0.2C198.4,263.5,198.5,263.4,198.6,263.4z"/>
		<g>
			<g>
				<g>
					<path class="st6" d="M201,320.1c-24.9,2.1-31.5-11.9-33-16.9c-0.2-0.5-0.3-1.1-0.4-1.7c-0.5-12.8,4.7-19.1,7.4-21.7
						c0.5-0.4,1-0.9,1.5-1.4c0,0,33.8-4.8,41.1,2.4c0.6,0.6,1.2,1.3,1.7,2c3.9,5.5,5.3,14.2,5.8,19c0.2,2.1,0.3,3.4,0.3,3.4
						S231.1,317.6,201,320.1z"/>
					<path class="st4" d="M176,301.8v5.3l-8-3.9c-0.2-0.5-0.3-1.1-0.4-1.7c-0.5-12.8,4.7-19.1,7.4-21.7c0.1,0,0.2,0,0.3,0
						c0,0-6.7,11.9-4.7,19.1C170.5,299.1,175.2,299.1,176,301.8z"/>
					<path class="st4" d="M225,301.8l-10.4,3.4c0.3-6.1,5-6.4,5-6.4c0.8-4.1-0.5-16-0.5-16l0.1,0C223.1,288.4,224.5,297,225,301.8z"
						/>
				</g>
				<g>
					<path class="st6" d="M195.7,297c0,0-0.2,6.9-0.6,13.3c-0.2,4.2-0.5,8.2-0.9,9.9c-0.2,1.3-1.2,2.4-2.4,2.8
						c-2.6,1-7,0.4-11.6-1.1c-2.6-0.8-3.7-4.8-4.1-9.4c-0.2-1.9-0.3-3.9-0.2-5.8c0-3.5,0.3-6.9,0.5-8.9c0.1-1.3,0.2-2,0.2-2h0.5h0.2
						l17.9,1.3H195.7z"/>
					<path class="st4" d="M191.9,323c-2.6,1-7,0.4-11.6-1.1c-2.6-0.8-3.7-4.8-4.1-9.4l-0.2-5.8l-0.1-1.8c-0.2-2.4,0-4.8,0.6-7.1
						c0.2-0.7,0.4-1.4,0.7-2c0.1-0.1,0.1-0.2,0.2-0.3c0,0.1,0,0.2,0,0.3c0.1,3.6,1.3,7.1,3.3,10c1.7,2.4,4,4.8,4,7.7
						c0,1.5-0.6,3,0,4.4c0.6,1,1.7,1.7,2.9,2c1.2,0.3,2.3,0.7,3.3,1.4C191.3,321.8,191.6,322.4,191.9,323z"/>
					<path class="st7" d="M194.4,320.4l-0.1-9.1c0-1.5-0.1-3-0.1-4.5s-0.2-3-0.3-4.5c0.4,1.5,0.7,3,0.9,4.5c0.2,1.5,0.3,3,0.3,4.6
						s0,3-0.1,4.6C194.8,317.3,194.7,318.9,194.4,320.4z"/>
					<path class="st7" d="M176,304.9c-0.4-1.7-0.5-3.4-0.4-5.1c0.1-1.8,0.6-3.5,1.5-4.9c-0.2,0.8-0.4,1.6-0.5,2.5
						c-0.1,0.8-0.2,1.7-0.3,2.5C176.2,301.5,176.2,303.2,176,304.9z"/>
				</g>
				<g>
					<path class="st6" d="M210,321.9c-4.8,1.6-9.4,2.2-12,0.9c-1.1-0.5-1.8-1.5-2.1-2.6c-0.3-1.7-0.6-5.7-0.9-9.9
						c-0.4-6.4-0.6-13.3-0.6-13.3h0.6l16.9-1.1l1-0.1l0.6,0c0,0,0,0.4,0.1,1C214.3,301.4,216,320,210,321.9z"/>
					<path class="st4" d="M210,321.9c-4.8,1.6-9.4,2.2-12,0.9c0.2-0.4,0.5-0.8,0.9-1.1c1-0.7,2.1-1.4,3.2-2c3-1.8,4.9-4.9,5.4-8.3
						c0-1.1,0.2-2.2,0.5-3.3c0.6-1.3,1.4-2.6,2.3-3.7c1.4-2,0.9-7.3,1.7-8.6c0.2-0.4,0.6-0.4,1-0.1h0.1c0.3,0.3,0.5,0.6,0.7,0.9
						C214.3,301.4,216,320,210,321.9z"/>
					<path class="st7" d="M195.9,320.2c-0.3-1.5-0.5-3-0.6-4.5c-0.1-1.5-0.2-3-0.2-4.5c0-1.5,0.1-3,0.3-4.5c0.1-1.5,0.5-3,1.1-4.4
						c-0.3,1.5-0.5,2.9-0.5,4.4c0,1.5-0.1,3-0.1,4.5v4.5C195.9,317.2,195.9,318.7,195.9,320.2z"/>
					<path class="st7" d="M214.4,304.9c-0.1-1.5-0.1-3.1-0.2-4.6c-0.1-1.5-0.3-3-0.6-4.5c0.9,1.3,1.3,2.9,1.4,4.4
						C215,301.8,214.8,303.4,214.4,304.9z"/>
				</g>
				<g>
					<path class="st8" d="M178,313c0,6.6-5.4,12-12,12s-12-5.4-12-12c0-6.6,3.2-13.9,9.8-14C173.6,298.8,178,306.4,178,313z"/>
					
						<ellipse transform="matrix(0.2289 -0.9735 0.9735 0.2289 -178.2771 404.2849)" class="st9" cx="166" cy="314.7" rx="7.1" ry="7.1"/>
					<path class="st9" d="M166,303.4c0,1.7-1.4,3.1-3.1,3.1c-1.7,0-3.1-1.4-3.1-3.1c0-1.7,1.4-3.1,3.1-3.1
						C164.6,300.3,166,301.6,166,303.4C166,303.3,166,303.3,166,303.4z"/>
					<circle class="st9" cx="170.4" cy="304.6" r="2.1"/>
					<circle class="st9" cx="157.9" cy="308" r="2.1"/>
				</g>
				<g>
					<path class="st8" d="M212.3,313c0,6.6,5.4,12,12,12s12-5.4,12-12c0-6.6-3.2-13.9-9.8-14C216.6,298.8,212.3,306.4,212.3,313z"/>
					
						<ellipse transform="matrix(0.9735 -0.2289 0.2289 0.9735 -66.056 59.6748)" class="st9" cx="224.3" cy="314.6" rx="7.1" ry="7.1"/>
					<path class="st9" d="M224.3,303.4c0,1.7,1.4,3.1,3.1,3.1c1.7,0,3.1-1.4,3.1-3.1c0-1.7-1.4-3.1-3.1-3.1S224.3,301.7,224.3,303.4
						L224.3,303.4z"/>
					<circle class="st9" cx="219.9" cy="304.6" r="2.1"/>
					<circle class="st9" cx="232.4" cy="308" r="2.1"/>
				</g>
				<g>
					<path class="st9" d="M207,296.2c0,2.5-3.8,5.4-8.8,6c-3.5,0.5-7.1-0.3-10.2-2.1c-5.9-3.5-4.8-11.2-3.4-16
						c0.4-1.4,0.9-2.8,1.5-4.1l19.8-0.8C205.9,279.2,207,292.1,207,296.2z"/>
					<path class="st5" d="M199.4,301.1c-0.3,0.5-0.7,0.9-1.2,1.1c-3.5,0.5-7.1-0.3-10.2-2.1c-5.9-3.5-4.8-11.2-3.4-16
						c0,0,0.1,0,0.1-0.1c0.9-0.4,3.1-0.3,3.6,0.7c0.3,0.5-0.1,1.1-0.2,1.6c-0.1,0.7-0.1,1.4,0.2,2.1c0.2,0.5,0.5,0.9,1,1.2
						c0.7,0.4,1.6,0.4,2.4,0c0.7-0.4,1.4-0.9,2-1.5c0.1,1.2,0.4,2.4,0.9,3.5c0.2,0.6,0.5,1.2,0.8,1.9c0.1,0.3,0.3,0.5,0.4,0.8
						c0.3,0.8,0.8,1.6,1.4,2.2c0.7,0.6,1.6,0.8,2.2,1.5C200,299,200,300.2,199.4,301.1z"/>
					<path class="st5" d="M201.4,291.1c0.4,0,0.7,0,1.1-0.2c0.5-0.3,0.9-0.8,0.9-1.4c0-0.6-0.4-1.2-0.9-1.6
						c-0.5-0.3-1.2-0.5-1.8-0.6c-0.4-0.1-0.9,0-1.3,0.2C197.9,288.6,200.3,291,201.4,291.1z"/>
					<path class="st7" d="M187,285.7c-0.2,1-0.3,2-0.3,2.9c0,1,0.4,1.9,1.1,2.6c0.7,0.6,1.6,0.9,2.5,0.7c0.9-0.2,1.6-0.9,1.9-1.7
						l0.6,0.2c-0.2,0.7,0,1.5,0.5,2.1c0.5,0.6,1.2,1,2,0.9c0.8,0,1.5-0.4,1.9-1.1c0.5-0.7,0.8-1.4,1.1-2.2l0,0
						c0.1-0.2,0.2-0.3,0.4-0.2c0.1,0.1,0.2,0.2,0.2,0.3c0.1,0.8,0.5,1.6,1.3,2c0.8,0.5,1.7,0.5,2.5,0c0.7-0.6,1.2-1.4,1.3-2.3
						c0.1-1,0-1.9-0.2-2.8c0.3,0.9,0.5,1.9,0.5,2.9c0,1-0.5,2-1.3,2.7c-0.9,0.6-2.1,0.7-3,0.2c-0.5-0.2-0.9-0.6-1.2-1
						c-0.3-0.4-0.5-1-0.5-1.6l0.6,0.1c-0.3,0.9-0.7,1.7-1.2,2.4c-0.6,0.8-1.5,1.3-2.5,1.4c-1,0-2-0.4-2.6-1.2
						c-0.6-0.8-0.9-1.8-0.6-2.8c0.1-0.2,0.2-0.3,0.4-0.2c0,0,0,0,0,0c0.2,0.1,0.3,0.2,0.2,0.4c0,0,0,0,0,0l0,0c-0.4,1-1.3,1.8-2.4,2
						c-1.1,0.2-2.2-0.2-2.9-1c-0.7-0.8-1-1.8-1-2.9C186.6,287.6,186.7,286.6,187,285.7z"/>
					<path class="st7" d="M190,293.3c-0.3,0.7-0.3,1.4,0,2c0.2,0.6,0.8,1.1,1.4,1.3c0.6,0.2,1.3,0.2,1.9-0.1c0.6-0.3,1-0.8,1.1-1.5
						c0.1-0.2,0.3-0.3,0.5-0.2c0.1,0,0.1,0.1,0.2,0.1l0,0c0.6,1.4,2.1,2.2,3.6,2c1.6-0.3,2.7-1.6,2.9-3.2c0.1,1.8-1.1,3.3-2.8,3.8
						c-0.9,0.2-1.8,0.1-2.6-0.4c-0.8-0.4-1.4-1.1-1.8-1.9l0.7-0.1c-0.2,0.8-0.8,1.5-1.5,1.9c-0.7,0.4-1.6,0.4-2.4,0
						c-0.7-0.3-1.3-1-1.5-1.7C189.4,294.7,189.6,294,190,293.3z"/>
				</g>
			</g>
			<g>
				<g>
					<g>
						<g>
							<path class="st6" d="M219.6,243.4c0,0,8.1-10.1,17.6-4.7s7.9,25.3-12.2,19.5L219.6,243.4z"/>
							<path class="st9" d="M224.7,255.7l-4.1-11.1c0.3-0.4,0.7-0.8,1.1-1.2c2.1-2,6.8-5.4,12.1-2.3c1,0.6,1.9,1.4,2.6,2.4
								C240.3,249.1,237.5,259.4,224.7,255.7z"/>
						</g>
						<path class="st5" d="M236.4,243.5c-1.3-0.2-3.2-0.6-3.9,0.2c-0.8,1-1.3,2.1-1.5,3.4c-0.2,1.2-0.6,2.4-1.3,3.5
							c-0.6,1.1-1.9,1.7-3.1,1.6c-1.5-3-3.1-5.9-4.9-8.7c2.1-2,6.8-5.4,12.1-2.3C234.9,241.7,235.8,242.5,236.4,243.5z"/>
						<path class="st7" d="M223.5,245.9c0.1-0.7,0.4-1.3,0.8-1.8c0.4-0.6,1-1,1.7-1.1c0.7-0.2,1.5,0,2.1,0.5
							c0.6,0.5,0.8,1.4,0.6,2.1l-0.6-0.3c0.5-0.6,1.3-1,2.1-0.9c0.8,0.1,1.6,0.5,2,1.3c0.2,0.4,0.3,0.8,0.3,1.2
							c0,0.4-0.1,0.8-0.2,1.1c-0.1,0.3-0.2,0.6-0.3,0.9c0,0.3,0,0.6,0.2,0.8c0.2,0.3,0.3,0.7,0.4,1c0.1,0.4,0.1,0.8,0.1,1.1
							c-0.1,0.8-0.3,1.5-0.8,2.1c-1,1.2-2.6,1.6-4,1c1.3,0.4,2.8-0.1,3.6-1.2c0.4-0.5,0.6-1.2,0.6-1.8c0-0.7-0.2-1.3-0.5-1.9
							c-0.2-0.4-0.3-0.8-0.2-1.2c0.1-0.4,0.2-0.7,0.3-1.1c0.3-0.5,0.3-1.2,0-1.7c-0.3-0.5-0.8-0.9-1.4-0.9c-0.6-0.1-1.2,0.2-1.6,0.6
							l0,0c-0.1,0.1-0.3,0.2-0.5,0c-0.1-0.1-0.1-0.2-0.1-0.4c0.2-0.5,0-1.1-0.4-1.5c-0.4-0.4-1-0.6-1.6-0.5
							c-0.6,0.1-1.2,0.4-1.6,0.9C224.1,244.7,223.7,245.3,223.5,245.9z"/>
					</g>
					<g>
						<g>
							<path class="st6" d="M173.3,243.8c0,0-12.1-4.5-9.9-15.3s21.6-15.3,22.3,5.6L173.3,243.8z"/>
							<path class="st9" d="M183.4,235.1l-9.3,7.3c0,0-9.1-3.4-7.4-11.5c0.8-3.2,3.3-5.7,6.4-6.5c4.4-1.2,9.4,1.1,10.2,9.4
								C183.3,234.2,183.4,234.7,183.4,235.1z"/>
						</g>
						<path class="st5" d="M183.3,233.8c-1.5,0.6-2.9,1.4-4,2.5c-0.4,0.3-0.9,0.5-1.3,0.8c-0.9,0.6-1.8,1.8-2.7,2.3
							c1.3-2.7,1.8-5.6,0.2-8.4c-0.8-1.2-1.6-2.4-2.3-3.6c-0.4-0.9-0.5-2-0.1-3C177.5,223.2,182.6,225.5,183.3,233.8z"/>
						<path class="st7" d="M174.5,240.5c-0.8-0.8-1.3-1.9-1.6-3c-0.1-0.6,0-1.3,0.5-1.8c0.3-0.3,0.6-0.4,1-0.3
							c0.4,0,0.8,0.3,0.9,0.7c0.1,0.2,0,0.4-0.2,0.4c0,0,0,0,0,0c-0.2,0.1-0.4,0-0.4-0.2l0,0c-0.2-0.6-0.4-1.2-0.5-1.8
							c-0.1-0.7,0-1.4,0.4-2c0.4-0.6,1.1-1,1.8-1c0.7,0,1.4,0.4,1.8,1l-0.6,0.1c0.2-0.6,0.7-1,1.3-1.1c0.6,0,1.2,0.2,1.5,0.7
							c0.4,0.4,0.6,0.9,0.6,1.5c0,0.5,0,1-0.2,1.5c0.1-0.5,0.1-1,0-1.5c-0.1-0.5-0.3-0.9-0.6-1.2c-0.3-0.3-0.7-0.5-1.1-0.4
							c-0.4,0.1-0.7,0.4-0.8,0.8c0,0.2-0.2,0.3-0.4,0.2c0,0,0,0,0,0c-0.1,0-0.1-0.1-0.2-0.1l0,0c-0.3-0.4-0.7-0.7-1.2-0.7
							c-0.5,0-0.9,0.2-1.2,0.7c-0.3,0.4-0.4,1-0.3,1.5c0.1,0.6,0.2,1.1,0.4,1.7l-0.6,0.2c0-0.2-0.6-0.4-0.9-0.1
							c-0.3,0.3-0.5,0.8-0.4,1.3C173.5,238.5,173.9,239.6,174.5,240.5z"/>
					</g>
					<g>
						<g>
							<path class="st6" d="M228.4,263.3c-0.1,10.3-4,16.1-8.6,19.3c-5,3.4-10.9,3.9-14.4,3.7l-3.1-0.2l0,0
								c-5.3-0.3-14.6-1.2-22.8-4.3l0,0c-1.4-0.5-2.9-1.2-4.2-1.9c-5.7-3-10.2-7.3-11.4-13.8c-1.3-6.7,0.9-13.3,4.9-19
								c5.5-7.9,14.2-14,21.5-16.3c2-0.7,4-1,6.1-0.9c1.6,0.1,3.3,0.2,4.9,0.5c2.8,0.8,5.5,1.9,8.1,3.3l0,0c0.1,0.1,0.2,0.3,0.3,0.5
								C209.6,234.1,228.7,241.9,228.4,263.3z"/>
							<path class="st4" d="M228.4,263.3c-0.1,10.3-4,16.1-8.6,19.3c-5.1,2-10.5,3.2-15.9,3.5h-1.5l0,0c-7.6,0.1-15.9-0.9-22.8-4.3
								l0,0l-0.9-0.4c2.1,0.8,5.6,0.5,7.4,0.4c3.2,0,6.3-0.4,9.4-0.5c4.9-0.2,9.7,0.1,14.5-0.8c4.3-0.8,9.2-2.6,11.9-6.3
								s3.6-8.9,3.6-13.5c0.1-6.2-1.9-12.3-5.6-17.3c-7.8,1.1-15.7,0.3-23.1-2.3c-2.6-0.9-5.1-2.1-6.8-4.3c-1.4-1.8-1.3-4.4,0.3-6.1
								c2-0.7,4-1,6.1-0.9c1.6,0.1,3.3,0.2,4.9,0.5c2.8,0.8,5.5,1.9,8.1,3.3l0,0c0.1,0.1,0.2,0.3,0.3,0.5
								C209.6,234,228.7,241.9,228.4,263.3z"/>
							<g>
								<g>
									<g>
										<path class="st7" d="M205,257.7c1-0.5,2.2-0.7,3.3-0.7c1.2,0,2.3,0.4,3.3,0.9c0.3,0.1,0.5,0.3,0.7,0.5l0.4,0.3l0.3,0.3
											c0.2,0.2,0.4,0.4,0.6,0.6l0.5,0.7c0.2,0.2,0.3,0.4,0.5,0.7l0.4,0.7c0.2,0.5,0.4,1,0.6,1.5c0.1,0.2,0,0.5-0.3,0.6
											c-0.2,0.1-0.4,0-0.5-0.1v0c-0.3-0.4-0.6-0.8-0.9-1.2s-0.6-0.8-1-1.1c-0.7-0.7-1.4-1.3-2.3-1.7c-0.8-0.4-1.7-0.7-2.6-0.9
											c-1-0.1-1.9-0.2-2.9-0.1h-0.1c-0.3,0-0.5-0.1-0.5-0.4C204.7,258,204.8,257.8,205,257.7L205,257.7z"/>
										<path class="st7" d="M219.3,262.4l-0.2,0.1l-0.1,0.1l-0.2,0.1l-0.4,0.2c-0.3,0.2-0.6,0.3-0.9,0.4
											c-0.7,0.2-1.4,0.4-2.1,0.3c-0.2,0-0.4-0.2-0.4-0.5c0,0,0,0,0,0c0-0.3,0.2-0.5,0.5-0.4c0,0,0,0,0,0l0,0
											c0.6,0,1.2-0.1,1.7-0.3c0.3-0.1,0.6-0.2,0.9-0.3l0.4-0.2l0.2-0.1l0.1-0.1c0,0,0.1,0,0,0c0.2-0.2,0.4-0.2,0.6,0
											c0,0,0,0,0,0C219.4,262,219.5,262.2,219.3,262.4C219.3,262.4,219.3,262.4,219.3,262.4z"/>
										<path class="st7" d="M217.9,260.7c0,0-0.1,0.1-0.2,0.1l-0.1,0.1l-0.2,0.1l-0.5,0.2c-0.3,0.1-0.6,0.2-0.9,0.3
											c-0.7,0.2-1.4,0.3-2.1,0.2c-0.2,0-0.4-0.2-0.4-0.5c0,0,0,0,0,0c0-0.3,0.2-0.4,0.5-0.4l0,0c0.6,0,1.2,0,1.7-0.2
											c0.3-0.1,0.6-0.2,0.9-0.3l0.4-0.2l0.2-0.1l0.1,0c0,0,0.1,0,0,0c0.2-0.1,0.4-0.1,0.6,0.1
											C218.1,260.3,218,260.5,217.9,260.7L217.9,260.7z"/>
										<path class="st7" d="M216,259c-0.1,0-0.1,0.1-0.2,0.1l-0.1,0.1l-0.2,0.1l-0.5,0.2c-0.3,0.1-0.6,0.2-1,0.3
											c-0.7,0.2-1.4,0.2-2.1,0.1c-0.3,0-0.4-0.3-0.4-0.5c0,0,0,0,0,0c0-0.2,0.3-0.4,0.5-0.4c0,0,0,0,0,0l0,0
											c0.6,0.1,1.2,0.1,1.8,0c0.3-0.1,0.6-0.1,0.9-0.2l0.4-0.1l0.2-0.1h0.1c0,0,0.1,0,0,0c0.2-0.1,0.4-0.1,0.6,0.1
											C216.1,258.7,216.1,258.9,216,259L216,259z"/>
									</g>
									<g>
										<path class="st7" d="M188.3,254.1c-0.5-1-1.3-1.9-2.3-2.6c-1-0.7-2.1-1.1-3.2-1.3c-0.3,0-0.6-0.1-0.9-0.1h-0.4h-0.4
											c-0.3,0-0.6,0-0.9,0.1l-0.8,0.2c-0.3,0.1-0.6,0.1-0.8,0.3l-0.8,0.3c-0.5,0.2-1,0.5-1.4,0.8c-0.2,0.1-0.3,0.4-0.1,0.6
											c0,0,0,0,0,0c0.1,0.2,0.3,0.2,0.5,0.2h0.1c0.5-0.1,1-0.3,1.5-0.4s1-0.2,1.4-0.3c0.9-0.1,1.9-0.1,2.8,0
											c0.9,0.2,1.8,0.5,2.6,0.9c0.8,0.5,1.6,1,2.4,1.7v0.1c0.2,0.2,0.5,0.2,0.6,0C188.4,254.5,188.4,254.3,188.3,254.1z"/>
										<path class="st7" d="M174.1,249.2c0,0.1,0,0.1,0.1,0.2v0.1l0.1,0.2c0.1,0.2,0.1,0.3,0.2,0.5c0.2,0.3,0.3,0.6,0.5,0.9
											c0.4,0.6,0.9,1.1,1.4,1.5c0.2,0.2,0.5,0.1,0.6-0.1s0.1-0.5-0.1-0.6c0,0,0,0,0,0l0,0c-0.5-0.3-0.9-0.8-1.2-1.3
											c-0.2-0.2-0.3-0.5-0.5-0.8l-0.2-0.4l-0.1-0.2v-0.1c0,0,0-0.1,0,0c0-0.2-0.2-0.4-0.5-0.3S174.1,249,174.1,249.2
											L174.1,249.2L174.1,249.2z"/>
										<path class="st7" d="M176.2,248.6c0,0.1,0,0.1,0.1,0.2l0.1,0.1l0.1,0.2l0.2,0.4c0.2,0.3,0.4,0.6,0.6,0.9
											c0.4,0.6,0.9,1.1,1.5,1.4c0.2,0.1,0.5,0.1,0.6-0.1c0.1-0.2,0.1-0.5-0.1-0.6l0,0c-0.5-0.3-0.9-0.7-1.3-1.2
											c-0.2-0.2-0.4-0.5-0.5-0.8c-0.1-0.1-0.1-0.3-0.2-0.4l-0.1-0.2v-0.1c0,0,0-0.1,0,0c-0.1-0.2-0.3-0.4-0.5-0.3
											C176.4,248.2,176.2,248.4,176.2,248.6C176.2,248.6,176.2,248.6,176.2,248.6z"/>
										<path class="st7" d="M178.7,248.4c0,0.1,0,0.1,0.1,0.2l0.1,0.1l0.1,0.2c0.1,0.1,0.2,0.3,0.3,0.4c0.2,0.3,0.4,0.5,0.6,0.8
											c0.4,0.5,1,1,1.6,1.3c0.2,0.1,0.5,0,0.6-0.2s0-0.5-0.2-0.6l0,0c-0.5-0.3-1-0.6-1.4-1.1c-0.2-0.2-0.4-0.5-0.6-0.7l-0.3-0.4
											l-0.1-0.2v-0.1c0,0,0-0.1,0,0c-0.1-0.2-0.3-0.3-0.5-0.3C178.8,248,178.7,248.2,178.7,248.4
											C178.7,248.4,178.7,248.4,178.7,248.4z"/>
									</g>
								</g>
								<g>
									<path class="st9" d="M219.4,253.9c-0.4,0.5-2,0.1-3.6-1s-2.7-2.5-2.3-3s2-0.1,3.6,1S219.8,253.4,219.4,253.9z"/>
									<path class="st9" d="M187.1,241.4c0.1,0.7-1.5,1.3-3.5,1.5s-3.6-0.2-3.7-0.9s1.5-1.3,3.5-1.5S187,240.7,187.1,241.4z"/>
								</g>
								<g>
									<path class="st10" d="M217.9,269.5c-0.4,1.1-2.8,1.2-5.5,0.3s-4.5-2.5-4.1-3.6s2.8-1.2,5.5-0.3S218.2,268.5,217.9,269.5z"
										/>
									<path class="st10" d="M181.2,260.2c-0.4,1.1-2.8,1.2-5.5,0.3s-4.5-2.5-4.1-3.6s2.8-1.2,5.5-0.3
										C179.7,257.5,181.6,259.1,181.2,260.2z"/>
								</g>
								<g>
									<path class="st9" d="M204.8,266.7c-0.7,2.8-3.4,4.6-6.8,5c-1.3,0.1-2.6,0-3.9-0.3c-5-1.2-8.3-5.3-7.4-9
										c0.7-2.7,3.3-4.5,6.6-4.9c1.4-0.2,2.8-0.1,4.1,0.3C202.4,258.9,205.7,262.9,204.8,266.7z"/>
									<g>
										<path class="st7" d="M194.9,259.3c1.3-0.2,2.5,0.2,3.6,0.9c0.3,0.2,0.4,0.6,0.2,0.9c-0.2,0.5-0.5,1-0.9,1.5
											c-0.5,0.6-1.3,0.8-2.1,0.6c-0.5-0.2-0.9-0.6-1.1-1.2c-0.3-0.7-0.4-1.4-0.3-2.1C194.3,259.6,194.6,259.3,194.9,259.3z"/>
										<path class="st11" d="M195.9,262.6c0.1,1.8,1.6,3.1,3.4,3.1c1-0.1,1.9-0.5,2.4-1.3"/>
										<path class="st11" d="M189.9,262.3c0.5,1.7,2.3,2.7,4,2.2c0.9-0.3,1.7-0.9,2.1-1.8"/>
									</g>
									<path class="st5" d="M198,271.6c-1.3,0.1-2.6,0-3.9-0.3c-5-1.2-8.3-5.3-7.4-9c0.7-2.7,3.3-4.5,6.6-4.9
										c-3,3.9-2.4,9.4,1.5,12.5c0.9,0.7,1.9,1.2,3,1.5C197.8,271.5,197.9,271.6,198,271.6z"/>
								</g>
							</g>
							<path class="st4" d="M176.5,276.8c0,1.2-0.4,2.3-1.3,3.1c-5.7-3-10.2-7.3-11.4-13.8c-1.3-6.7,0.9-13.3,4.9-19
								c-1.2,3.4-2.9,6.4-3.3,10.1c-0.6,4.9,0.8,10.3,4.7,13.2c1.3,1,2.7,1.6,4,2.5C175.3,273.8,176.2,275.2,176.5,276.8z"/>
						</g>
						<g>
							<path class="st7" d="M175.1,279.9c1.8,0.7,3.5,1.4,5.3,2s3.6,1.1,5.4,1.6c3.7,0.9,7.4,1.6,11.1,1.9c0.9,0.1,1.9,0.2,2.8,0.2
								l2.8,0c0.9,0,1.9-0.1,2.8-0.1s1.9-0.1,2.8-0.2l2.8-0.3l2.8-0.6l1.4-0.3l1.4-0.4l2.7-0.8c-3.5,1.5-7.2,2.5-11,3
								c-3.8,0.5-7.6,0.6-11.4,0.3c-3.8-0.4-7.6-1.1-11.2-2.1C182.1,283,178.5,281.6,175.1,279.9z"/>
							<path class="st7" d="M172.5,242.6c0.8-1.1,1.6-2.1,2.6-3c0.9-0.9,1.9-1.8,2.9-2.6c1-0.8,2.1-1.6,3.3-2.2
								c1.1-0.7,2.4-1.2,3.6-1.5c-1.1,0.6-2.3,1.3-3.3,2c-1.1,0.7-2.1,1.5-3.1,2.3s-2,1.6-3,2.5L172.5,242.6z"/>
							<path class="st7" d="M220.9,242.4c1.1,1,2.1,2.2,2.9,3.4c0.9,1.2,1.6,2.5,2.3,3.9c0.6,1.4,1.1,2.8,1.5,4.3
								c0.4,1.5,0.6,3,0.6,4.5c-0.2-0.7-0.3-1.5-0.5-2.2l-0.3-1.1l-0.3-1.1c-0.5-1.4-1-2.8-1.6-4.1c-0.6-1.3-1.3-2.6-2.1-3.9
								S221.7,243.6,220.9,242.4z"/>
						</g>
					</g>
				</g>
				<g>
					<g>
						<path class="st3" d="M219.7,240.2v0.6c0,0.7-0.6,1.3-1.3,1.3c-2.7,0.1-5.4,0-8-0.4c-2.8-0.4-5.5-1.1-8.1-2
							c-4.1-1.5-7.9-3.7-11.1-6.5c-0.5-0.4-0.6-1.1-0.2-1.7c0.7-1.1,1.4-2.3,2.2-3.4c0.9-1.3,1.8-2.6,2.7-3.8s1.7-2.2,2.5-3.3
							c1-1.2,1.9-2.4,2.9-3.5s2-2.3,2.9-3.3c1.1-1.2,2.1-2.3,3.1-3.3c2-2,3.6-3.5,4.6-4.4c0.5-0.5,1.4-0.4,1.9,0.1
							c0.1,0.1,0.1,0.1,0.1,0.2c0.3,0.4,0.5,0.9,0.7,1.3c1.5,3.3,2.6,6.8,3.3,10.4c0.4,1.8,0.7,3.6,0.9,5.3c0.3,2.1,0.5,4.1,0.6,6
							c0.1,1.7,0.2,3.3,0.3,4.8C219.7,237,219.7,238.9,219.7,240.2z"/>
						<path class="st10" d="M213,207.1c0,0-4.2-7.9-8-8.2S208.2,207.6,213,207.1z"/>
						<path class="st10" d="M213.1,207.2c0,0,4.3-7.9,2.5-11.2S210.1,203.5,213.1,207.2z"/>
						<path class="st10" d="M213.1,207.4c0,0,9-0.7,10.8-4S214.6,202.8,213.1,207.4z"/>
						<path class="st10" d="M212.8,206.8c0,0,5.4,7.1,9.2,6.9S217.4,205.5,212.8,206.8z"/>
						<path class="st10" d="M218.6,224c-5.4-2.3-10.4-5.6-14.6-9.7c1.1-1.2,2.1-2.3,3.1-3.3c3.2,3,6.7,5.6,10.6,7.6
							C218.1,220.4,218.4,222.2,218.6,224z"/>
						<path class="st10" d="M219.6,234.7c-8.2-2.5-15.6-7.3-21.3-13.7c1-1.2,1.9-2.4,2.9-3.5c4.9,5.6,11.2,9.8,18.1,12.4
							C219.4,231.6,219.5,233.2,219.6,234.7z"/>
						<path class="st10" d="M219.7,240.2v0.6c0,0.7-0.6,1.3-1.3,1.3c-2.7,0.1-5.4,0-8-0.4c-6.7-3.2-12.7-7.8-17.3-13.6
							c0.9-1.3,1.8-2.6,2.7-3.8C197.6,226.8,205.9,237,219.7,240.2z"/>
					</g>
					<path class="st12" d="M219.7,240.2v0.6c0,0.7-0.6,1.3-1.3,1.3c-2.7,0.1-5.4,0-8-0.4c-2.8-0.4-5.5-1.1-8.1-2c0-0.1,0-0.2,0-0.4
						c0.1-1.3,1.4-2.1,2.6-2.5s2.6-0.4,3.6-1.2s1.4-2.6,0.3-3.2c-0.4-0.2-1-0.3-1.3-0.6c-0.5-0.6,0-1.4,0.6-1.8
						c0.7-0.3,1.4-0.4,2.1-0.6c1.3-0.5,2.3-1.6,2.8-2.9c0.4-1.3,0.6-2.7,0.6-4.1c0.1-2.2,0.1-4.5-0.1-6.7c-0.1-2-0.8-4.5-0.5-6.4
						c0.2-1.4,0.8-1.5,1.5-1c1.5,3.3,2.6,6.8,3.3,10.4c0.4,1.8,0.7,3.6,0.9,5.3c0.3,2.1,0.5,4.1,0.6,6c0.1,1.7,0.2,3.3,0.3,4.8
						C219.7,237,219.7,238.9,219.7,240.2z"/>
				</g>
			</g>
		</g>
		<g>
			<path class="st1" d="M136.3,290.9c-1.9,0.1-3.6,1-3.6,2.9l0,0c-0.9-1.6-2.8-1.6-4.5-0.8c-1.6,0.9-2.4,2.9-1.7,4.6
				c0.7,1.7,2.1,3,3.9,3.6c1.2,0.5,2.4,0.9,3.7,1.1c0.4,0.1,0.9-0.1,1.2-0.3c1.2-0.8,2.2-1.7,3.1-2.8c1.3-1.3,1.9-3.2,1.7-5
				C139.8,292.3,138.2,290.9,136.3,290.9z"/>
			<path class="st10" d="M148.1,264.9c-1.4,0.1-2.7,0.8-2.8,2.2l0,0c-0.7-1.2-2.1-1.2-3.4-0.6c-1.3,0.7-1.8,2.2-1.3,3.5
				c0.5,1.3,1.6,2.3,2.9,2.7c0.9,0.4,1.8,0.7,2.8,0.8c0.4,0,0.7,0,1-0.2c0.9-0.6,1.7-1.3,2.3-2.1c1-1,1.4-2.4,1.3-3.8
				C150.8,265.9,149.6,264.9,148.1,264.9z"/>
			<path class="st10" d="M253.5,300.9c-1-1-2.4-1.5-3.5-0.6l0,0c0.4-1.4-0.5-2.4-1.8-3c-1.3-0.5-2.8,0.1-3.5,1.3
				c-0.6,1.2-0.7,2.7-0.1,4c0.3,0.9,0.7,1.8,1.2,2.7c0.2,0.3,0.5,0.5,0.8,0.6c1,0.3,2.1,0.4,3.2,0.4c1.4,0.1,2.8-0.5,3.7-1.5
				C254.4,303.6,254.4,302,253.5,300.9z"/>
			<path class="st1" d="M246.1,274.8c-1-1-2.4-1.5-3.5-0.6l0,0c0.4-1.4-0.5-2.4-1.8-3c-1.3-0.5-2.8,0.1-3.5,1.3
				c-0.6,1.2-0.7,2.7-0.1,4c0.3,0.9,0.7,1.8,1.2,2.7c0.2,0.3,0.5,0.5,0.8,0.6c1,0.3,2.1,0.4,3.2,0.4c1.4,0.1,2.8-0.5,3.7-1.5
				C247,277.5,247,275.9,246.1,274.8z"/>
			<path class="st1" d="M282.6,299.8c-1-1-2.4-1.5-3.5-0.6l0,0c0.5-1.4-0.5-2.4-1.8-3c-1.3-0.5-2.9,0.1-3.5,1.3
				c-0.6,1.2-0.7,2.7-0.1,4c0.3,0.9,0.7,1.8,1.2,2.7c0.2,0.3,0.5,0.5,0.8,0.6c1,0.3,2.1,0.4,3.2,0.4c1.4,0.1,2.8-0.5,3.7-1.5
				C283.5,302.4,283.5,300.8,282.6,299.8z"/>
			<path class="st10" d="M270.3,266.2c-1-1-2.4-1.5-3.5-0.6l0,0c0.5-1.4-0.5-2.4-1.8-3c-1.3-0.5-2.8,0.1-3.5,1.3
				c-0.6,1.2-0.7,2.7-0.1,4c0.3,0.9,0.7,1.8,1.2,2.7c0.2,0.3,0.5,0.5,0.8,0.6c1,0.3,2.1,0.4,3.2,0.4c1.4,0.1,2.8-0.5,3.7-1.5
				C271.2,268.9,271.2,267.3,270.3,266.2z"/>
			<path class="st10" d="M246.1,229.3c-1-1-2.4-1.5-3.5-0.6l0,0c0.4-1.4-0.5-2.4-1.8-3c-1.3-0.5-2.9,0.1-3.5,1.3
				c-0.6,1.2-0.7,2.7-0.1,4c0.3,0.9,0.7,1.8,1.2,2.7c0.2,0.3,0.5,0.5,0.8,0.6c1,0.3,2.1,0.4,3.2,0.4c1.4,0.1,2.8-0.5,3.7-1.5
				C247,232,247,230.4,246.1,229.3z"/>
			<path class="st1" d="M296.8,261c-1-1-2.4-1.5-3.5-0.6l0,0c0.5-1.4-0.5-2.4-1.8-3c-1.3-0.5-2.9,0.1-3.5,1.3
				c-0.6,1.2-0.7,2.7-0.1,4c0.3,0.9,0.7,1.8,1.2,2.7c0.2,0.3,0.5,0.5,0.8,0.6c1,0.3,2.1,0.4,3.2,0.4c1.4,0.1,2.8-0.5,3.7-1.5
				C297.7,263.7,297.7,262.1,296.8,261z"/>
			<path class="st1" d="M277.4,227c-1-1-2.4-1.5-3.5-0.6l0,0c0.5-1.4-0.5-2.4-1.8-3c-1.3-0.5-2.9,0.1-3.5,1.3
				c-0.6,1.2-0.7,2.7-0.1,4c0.3,0.9,0.7,1.8,1.2,2.7c0.2,0.3,0.5,0.5,0.8,0.6c1,0.3,2.1,0.4,3.2,0.4c1.4,0.1,2.8-0.5,3.7-1.5
				C278.3,229.7,278.3,228.1,277.4,227z"/>
			<path class="st10" d="M107.3,257.9c-1.4,0-2.8,0.6-2.9,2l0,0c-0.6-1.2-2-1.3-3.4-0.8c-1.3,0.6-1.9,2.1-1.5,3.4
				c0.5,1.3,1.5,2.3,2.8,2.8c0.9,0.5,1.8,0.8,2.8,1c0.3,0.1,0.7,0,1-0.2c0.9-0.6,1.7-1.2,2.5-2c1-0.9,1.6-2.3,1.5-3.6
				C109.9,259,108.7,257.9,107.3,257.9z"/>
			<path class="st1" d="M131.1,240.7c-1.4,0-2.8,0.6-2.9,2l0,0c-0.7-1.2-2-1.3-3.4-0.8c-1.3,0.6-1.9,2-1.5,3.4
				c0.4,1.3,1.5,2.4,2.8,2.8c0.9,0.5,1.8,0.8,2.8,1c0.3,0.1,0.7,0,1-0.2c0.9-0.5,1.7-1.2,2.5-2c1-0.9,1.6-2.3,1.5-3.6
				C133.7,241.9,132.6,240.8,131.1,240.7z"/>
			<path class="st10" d="M152.4,216.4c-1.4,0-2.8,0.6-2.9,2l0,0c-0.6-1.2-2-1.3-3.4-0.8c-1.3,0.6-1.9,2-1.5,3.4
				c0.5,1.3,1.5,2.4,2.8,2.8c0.9,0.5,1.8,0.8,2.7,1c0.3,0.1,0.7,0,1-0.2c0.9-0.5,1.8-1.2,2.5-2c1-0.9,1.6-2.3,1.5-3.6
				C155,217.6,153.8,216.5,152.4,216.4z"/>
			<path class="st1" d="M113.2,211.2c-1.4,0-2.8,0.6-2.9,2l0,0c-0.6-1.2-2-1.3-3.4-0.8c-1.3,0.6-1.9,2-1.5,3.4
				c0.5,1.3,1.5,2.3,2.8,2.8c0.9,0.5,1.8,0.8,2.8,1c0.3,0.1,0.7,0,1-0.2c0.9-0.6,1.7-1.2,2.5-2c1-0.9,1.6-2.3,1.5-3.6
				C115.8,212.4,114.7,211.3,113.2,211.2z"/>
		</g>
		<path class="st3" d="M334.4,517.7h-0.4c-0.5,0-0.9-0.4-0.9-0.9c0-0.5,0.4-0.9,0.9-0.9h0.4c0.5,0,0.9,0.4,0.9,0.9
			C335.2,517.3,334.8,517.7,334.4,517.7z M327.8,517.7h-6.2c-0.5,0-0.9-0.4-0.9-0.9c0-0.5,0.4-0.9,0.9-0.9h6.2
			c0.5,0,0.9,0.4,0.9,0.9C328.6,517.3,328.2,517.7,327.8,517.7z M315.4,517.7h-6.2c-0.5,0-0.9-0.4-0.9-0.9c0-0.5,0.4-0.9,0.9-0.9
			h6.2c0.5,0,0.9,0.4,0.9,0.9C316.3,517.3,315.9,517.7,315.4,517.7z M303.1,517.7h-6.2c-0.5,0-0.9-0.4-0.9-0.9
			c0-0.5,0.4-0.9,0.9-0.9h6.2c0.5,0,0.9,0.4,0.9,0.9C304,517.3,303.6,517.7,303.1,517.7z M290.7,517.7h-6.2c-0.5,0-0.9-0.4-0.9-0.9
			c0-0.5,0.4-0.9,0.9-0.9h6.2c0.5,0,0.9,0.4,0.9,0.9C291.6,517.3,291.2,517.7,290.7,517.7z M278.4,517.7h-6.2
			c-0.5,0-0.9-0.4-0.9-0.9c0-0.5,0.4-0.9,0.9-0.9h6.2c0.5,0,0.9,0.4,0.9,0.9C279.3,517.3,278.9,517.7,278.4,517.7z M266.1,517.7
			h-6.2c-0.5,0-0.9-0.4-0.9-0.9c0-0.5,0.4-0.9,0.9-0.9h6.2c0.5,0,0.9,0.4,0.9,0.9C266.9,517.3,266.5,517.7,266.1,517.7z
			 M253.7,517.7h-6.2c-0.5,0-0.9-0.4-0.9-0.9c0-0.5,0.4-0.9,0.9-0.9h6.2c0.5,0,0.9,0.4,0.9,0.9C254.6,517.3,254.2,517.7,253.7,517.7
			z M241.4,517.7h-6.2c-0.5,0-0.9-0.4-0.9-0.9c0-0.5,0.4-0.9,0.9-0.9h6.2c0.5,0,0.9,0.4,0.9,0.9
			C242.3,517.3,241.9,517.7,241.4,517.7L241.4,517.7z M229.1,517.7h-6.2c-0.5,0-0.9-0.4-0.9-0.9c0-0.5,0.4-0.9,0.9-0.9h6.2
			c0.5,0,0.9,0.4,0.9,0.9C229.9,517.3,229.5,517.7,229.1,517.7z M216.7,517.7h-6.2c-0.5,0-0.9-0.4-0.9-0.9c0-0.5,0.4-0.9,0.9-0.9
			h6.2c0.5,0,0.9,0.4,0.9,0.9C217.6,517.3,217.2,517.7,216.7,517.7z M204.4,517.7h-6.2c-0.5,0-0.9-0.4-0.9-0.9
			c0-0.5,0.4-0.9,0.9-0.9h6.2c0.5,0,0.9,0.4,0.9,0.9C205.3,517.3,204.9,517.7,204.4,517.7L204.4,517.7z M192,517.7h-6.2
			c-0.5,0-0.9-0.4-0.9-0.9c0-0.5,0.4-0.9,0.9-0.9h6.1c0.5,0,0.9,0.4,0.9,0.9C192.9,517.3,192.5,517.7,192,517.7L192,517.7z
			 M179.7,517.7h-6.2c-0.5,0-0.9-0.4-0.9-0.9c0-0.5,0.4-0.9,0.9-0.9h6.2c0.5,0,0.9,0.4,0.9,0.9C180.6,517.3,180.2,517.7,179.7,517.7
			L179.7,517.7z M167.4,517.7h-6.2c-0.5,0-0.9-0.4-0.9-0.9c0-0.5,0.4-0.9,0.9-0.9h6.2c0.5,0,0.9,0.4,0.9,0.9
			C168.2,517.3,167.8,517.7,167.4,517.7z M155,517.7h-6.2c-0.5,0-0.9-0.4-0.9-0.9c0-0.5,0.4-0.9,0.9-0.9h6.1c0.5,0,0.9,0.4,0.9,0.9
			C155.9,517.3,155.5,517.7,155,517.7L155,517.7z M142.7,517.7h-6.2c-0.5,0-0.9-0.4-0.9-0.9c0-0.5,0.4-0.9,0.9-0.9h6.2
			c0.5,0,0.9,0.4,0.9,0.9C143.6,517.3,143.2,517.7,142.7,517.7L142.7,517.7z M130.4,517.7h-6.2c-0.5,0-0.9-0.4-0.9-0.9
			c0-0.5,0.4-0.9,0.9-0.9h6.2c0.5,0,0.9,0.4,0.9,0.9C131.2,517.3,130.8,517.7,130.4,517.7z M118,517.7h-6.2c-0.5,0-0.9-0.4-0.9-0.9
			c0-0.5,0.4-0.9,0.9-0.9l0,0h6.2c0.5,0,0.9,0.4,0.9,0.9C118.9,517.3,118.5,517.7,118,517.7L118,517.7z M105.7,517.7h-6.2
			c-0.5,0-0.9-0.4-0.9-0.9c0-0.5,0.4-0.9,0.9-0.9l0,0h6.2c0.5,0,0.9,0.4,0.9,0.9C106.6,517.3,106.2,517.7,105.7,517.7L105.7,517.7
			L105.7,517.7z M93.3,517.7h-6.2c-0.5,0-0.9-0.4-0.9-0.9c0-0.5,0.4-0.9,0.9-0.9h6.2c0.5,0,0.9,0.4,0.9,0.9
			C94.2,517.3,93.8,517.7,93.3,517.7L93.3,517.7z M81,517.7h-6.2c-0.5,0-0.9-0.4-0.9-0.9c0-0.5,0.4-0.9,0.9-0.9H81
			c0.5,0,0.9,0.4,0.9,0.9C81.9,517.3,81.5,517.7,81,517.7L81,517.7z M68.7,517.7h-6.2c-0.5,0-0.9-0.4-0.9-0.9c0-0.5,0.4-0.9,0.9-0.9
			h6.2c0.5,0,0.9,0.4,0.9,0.9C69.5,517.3,69.1,517.7,68.7,517.7L68.7,517.7L68.7,517.7z"/>
		<path class="st13" d="M106.9,351.7H65.8c-1.5,0-2.7,1.2-2.7,2.7c0,0.5,0.1,1,0.4,1.4l13.4,21.4L61,398.2c-0.9,1.2-0.7,2.9,0.5,3.8
			c0.5,0.4,1,0.6,1.6,0.6l59.8,0.7L106.9,351.7z"/>
		<path class="st14" d="M94.6,383.7c0,0,6.7,10.9,28.3,19.7v-23.2L94.6,383.7z"/>
		<path class="st13" d="M290,351.7h41.1c1.5,0,2.7,1.2,2.7,2.7c0,0.5-0.1,1-0.4,1.4L320,377.3l15.9,20.9c0.9,1.2,0.7,2.9-0.5,3.8
			c-0.5,0.4-1,0.6-1.6,0.6l-59.8,0.7L290,351.7z"/>
		<path class="st14" d="M302.3,383.7c0,0-6.7,10.9-28.3,19.7v-23.2L302.3,383.7z"/>
		<path class="st10" d="M302.9,344.2c-0.5-1.8-2.1-3-3.9-3h-201c-1.8,0-3.4,1.2-3.9,3c-3.3,12.3-3.4,25.3-0.1,37.6l0.2,0.7
			c0.5,1.8,2.1,3,3.9,3h200.8c1.8,0,3.4-1.2,3.9-3l0.2-0.7C306.2,369.5,306.2,356.5,302.9,344.2z"/>
		<g>
			<path class="st7" d="M278.4,385.6c3.3-0.2,6.7-0.3,10-0.3c3.3-0.1,6.7-0.1,10-0.1l0,0c0.2,0,0.4,0.2,0.4,0.4c0,0,0,0,0,0
				c0,0,0,0.1,0,0.1c-0.4,1.3-0.9,2.5-1.7,3.6c-0.4,0.6-0.7,1.1-1.1,1.6c-0.4,0.5-0.8,1-1.3,1.5c-1.8,1.9-3.9,3.5-6.1,4.8
				c-1.1,0.7-2.3,1.3-3.4,1.9s-2.3,1.1-3.5,1.6s-2.4,0.9-3.6,1.3s-2.5,0.7-3.7,1.1c1.2-0.5,2.4-0.9,3.6-1.4l3.5-1.5
				c1.1-0.6,2.3-1.1,3.4-1.7s2.2-1.3,3.3-2c2.1-1.3,4.1-2.9,5.8-4.8c0.9-0.9,1.6-1.9,2.4-2.9c0.7-1,1.2-2.1,1.6-3.3l0.5,0.6
				c-3.3,0-6.7,0-10-0.1S281.8,385.7,278.4,385.6z"/>
			<path class="st7" d="M116.9,385.6c-3.3,0.2-6.7,0.3-10,0.3c-3.3,0.1-6.7,0.1-10,0.1l0.4-0.6c0.4,1.2,0.9,2.3,1.6,3.3
				c0.7,1,1.5,2,2.3,2.9c1.7,1.8,3.7,3.4,5.8,4.8c1,0.7,2.2,1.3,3.3,2s2.3,1.2,3.4,1.7l3.5,1.5c1.2,0.5,2.4,0.9,3.6,1.4
				c-1.2-0.4-2.5-0.7-3.7-1.1s-2.4-0.9-3.6-1.3s-2.4-1-3.5-1.6s-2.3-1.2-3.4-1.9c-2.2-1.4-4.3-3-6.1-4.8c-0.5-0.5-0.9-1-1.3-1.5
				c-0.4-0.5-0.8-1-1.2-1.6c-0.8-1.1-1.3-2.3-1.7-3.6c-0.1-0.2,0.1-0.5,0.3-0.5h0.1c3.3,0,6.7,0,10,0.1S113.6,385.4,116.9,385.6z"/>
			<path class="st7" d="M92,352.3c0,1.4,0,2.7,0,4s0,2.7,0.1,4c0.1,2.7,0.2,5.4,0.4,8.1s0.5,5.4,0.9,8c0.1,0.7,0.2,1.3,0.3,2
				s0.3,1.3,0.4,2s0.3,1.3,0.5,2s0.4,1.3,0.6,1.9c-1.2-2.5-2.1-5-2.6-7.7c-0.6-2.7-0.9-5.4-1.1-8.1c-0.2-2.7-0.3-5.4-0.2-8.1
				C91.4,357.7,91.6,355,92,352.3z"/>
			<path class="st7" d="M304.9,352.3c0.4,2.7,0.6,5.4,0.7,8.1c0.1,2.7,0,5.4-0.2,8.1c-0.2,2.7-0.6,5.4-1.1,8.1
				c-0.6,2.7-1.4,5.2-2.6,7.7c0.2-0.7,0.4-1.3,0.6-1.9s0.3-1.3,0.5-2s0.3-1.3,0.4-2s0.3-1.3,0.4-2c0.4-2.6,0.7-5.3,0.9-8
				s0.3-5.4,0.4-8.1c0-1.3,0.1-2.7,0.1-4S304.9,353.7,304.9,352.3z"/>
		</g>
		<g>
			<defs>
				<rect id="SVGID_1_" x="-19.8" y="-8.4" width="436.5" height="603.6"/>
			</defs>
			<clipPath id="SVGID_2_">
				<use xlink:href="#SVGID_1_"  style="overflow:visible;"/>
			</clipPath>
			<g class="st15">
				<g>
					<g>
						<polygon class="st16" points="55.1,73.8 53.3,78.7 50.1,87.3 47.9,93.5 44.9,101.5 42.8,107.3 39.1,102.9 34.1,96.9 
							29.5,91.4 23.9,84.8 19.9,79.9 						"/>
						<g>
							<path class="st10" d="M53.3,78.7l-3.2,8.7c-7.4,3.5-15.7,4-20.7,4l-5.5-6.6C34.1,85.7,44.3,83.6,53.3,78.7z"/>
							<path class="st10" d="M47.9,93.5l-3,8c-1.9,0.6-3.9,1-5.8,1.3l-5-6C38.8,96.3,43.4,95.2,47.9,93.5z"/>
						</g>
					</g>
					<g>
						<polygon class="st16" points="91.4,63.4 90.3,68.4 89.4,72.4 88.3,77.4 87.4,81.4 86.8,83.8 85,92.2 83.6,98.2 79.3,94.3 
							77.9,93 73.7,89 69.2,84.9 68.3,84.1 62,78.3 57.4,74.1 						"/>
						<g>
							<path class="st10" d="M89.4,72.4l-1.1,5l-0.9,4c-0.6,0.2-1.1,0.2-1.7,0.2c-2.9-0.1-5.2-2.6-5.1-5.5c0.1-2.9,2.6-5.2,5.5-5.1
								C87.3,71.1,88.5,71.6,89.4,72.4L89.4,72.4z"/>
							<path class="st10" d="M71.3,77.6c0,1-0.9,1.9-2,1.8c-1,0-1.9-0.9-1.8-2s0.9-1.9,2-1.8C70.5,75.7,71.3,76.6,71.3,77.6z"/>
							<path class="st10" d="M79.6,89.1c0,1.5-0.6,2.9-1.6,3.9l-4.3-4l-4.5-4.1c1.2-1.3,2.9-2.1,4.7-2C77.1,83,79.7,85.8,79.6,89.1z
								"/>
						</g>
					</g>
					<g>
						<polygon class="st16" points="126.7,44.1 126.6,49.3 126.4,58.5 126.3,65 126.1,73.6 126,79.8 121,76.8 114.4,72.8 108.2,69 
							100.8,64.6 95.4,61.3 						"/>
						<g>
							<path class="st10" d="M126.6,49.3l-0.2,9.2c-5.9,5.7-13.5,8.9-18.2,10.5l-7.4-4.4C110.7,62.2,119.7,56.8,126.6,49.3z"/>
							<path class="st10" d="M126.3,65l-0.2,8.6c-1.6,1.2-3.3,2.2-5.1,3.2l-6.6-4C118.7,70.7,122.7,68.1,126.3,65z"/>
						</g>
					</g>
					<g>
						<polygon class="st16" points="155.5,20.6 156.3,25.7 156.9,29.7 157.6,34.8 158.2,38.9 158.6,41.3 159.8,49.8 160.7,55.9 
							155.3,53.7 153.5,53 148.1,50.9 142.4,48.6 141.4,48.2 133.4,45 127.5,42.7 						"/>
						<g>
							<path class="st10" d="M156.9,29.7l0.8,5.1l0.6,4c-0.5,0.4-1,0.6-1.5,0.8c-2.8,0.9-5.8-0.6-6.7-3.4c-0.9-2.8,0.6-5.8,3.4-6.7
								C154.5,29.3,155.7,29.3,156.9,29.7L156.9,29.7z"/>
							<path class="st10" d="M141.8,41.1c0.3,1-0.2,2.1-1.2,2.4s-2.1-0.2-2.4-1.2c-0.3-1,0.2-2.1,1.2-2.4
								C140.4,39.6,141.4,40.1,141.8,41.1C141.8,41.1,141.8,41.1,141.8,41.1z"/>
							<path class="st10" d="M153.6,48.8c0.5,1.4,0.4,2.9-0.1,4.2l-5.4-2.2l-5.7-2.3c0.6-1.7,2-3,3.6-3.5
								C149.2,44,152.6,45.7,153.6,48.8z"/>
						</g>
					</g>
					<path class="st16" d="M0,83.8v-2.4c22.4-0.9,44.6-4.4,66.2-10.6c32.9-9.4,77.2-29.4,102-70.8l2.1,1.3
						c-25.2,42.2-70.2,62.4-103.5,71.9C45.1,79.4,22.6,83,0,83.8z"/>
				</g>
				<g>
					<g>
						<polygon class="st16" points="271.6,31.6 267.2,33.7 259.3,37.3 253.8,39.9 246.4,43.3 241.1,45.8 241.6,40.3 242.3,33 
							242.9,26.2 243.6,18.1 244.1,12.3 						"/>
						<g>
							<path class="st10" d="M267.2,33.7l-7.9,3.7c-7.2-2.6-13.1-7.7-16.5-11.1l0.7-8.1C249.8,25.6,258,31,267.2,33.7z"/>
							<path class="st10" d="M253.8,39.9l-7.3,3.4c-1.7-0.9-3.3-1.9-4.8-3l0.7-7.3C245.8,35.8,249.6,38.2,253.8,39.9z"/>
						</g>
					</g>
					<g>
						<polygon class="st16" points="302.8,48.9 298.7,51.5 295.5,53.6 291.4,56.2 288.1,58.3 286.2,59.5 279.3,63.8 274.4,66.9 
							274.2,61.4 274.1,59.6 273.9,54.1 273.7,48.4 273.6,47.3 273.3,39.2 273,33.3 						"/>
						<g>
							<path class="st10" d="M295.5,53.6l-4.1,2.6l-3.3,2.1c-0.5-0.3-0.9-0.6-1.3-1c-1.9-2-1.8-5.2,0.2-7.1s5.2-1.8,7.1,0.2
								C294.9,51.3,295.4,52.4,295.5,53.6z"/>
							<path class="st10" d="M279.9,45c-0.7,0.7-1.9,0.6-2.5-0.1c-0.7-0.7-0.6-1.9,0.1-2.5s1.9-0.6,2.5,0.1c0,0,0,0,0,0
								C280.7,43.2,280.6,44.3,279.9,45z"/>
							<path class="st10" d="M277.8,58.1c-1,0.9-2.3,1.5-3.7,1.5l-0.2-5.5l-0.2-5.7c1.7-0.1,3.3,0.5,4.4,1.8
								C280.2,52.4,280.1,56,277.8,58.1z"/>
						</g>
					</g>
					<g>
						<polygon class="st16" points="339.2,59.5 335.7,62.9 329.4,68.9 325,73.2 319.1,78.8 315,82.8 313.6,77.5 311.9,70.4 
							310.2,63.8 308.3,55.9 306.9,50.2 						"/>
						<g>
							<path class="st10" d="M335.7,62.9l-6.3,6c-7.7-0.1-14.9-3-19.2-5.1l-2-7.9C316.5,60.9,326,63.4,335.7,62.9z"/>
							<path class="st10" d="M325,73.2l-5.8,5.6c-1.9-0.3-3.7-0.7-5.5-1.3l-1.8-7.1C316.1,72,320.5,72.9,325,73.2z"/>
						</g>
					</g>
					<g>
						<polygon class="st16" points="374.1,63.1 371.2,67 368.9,70.1 366,74 363.7,77.1 362.3,78.9 357.5,85.4 354,90.1 351.9,85 
							351.1,83.4 349,78.3 346.7,73.1 346.3,72.1 343,64.6 340.7,59.2 						"/>
						<g>
							<path class="st10" d="M368.9,70.1L366,74l-2.3,3.1c-0.5-0.1-1.1-0.2-1.6-0.5c-2.5-1.2-3.5-4.2-2.3-6.7
								c1.2-2.5,4.2-3.5,6.7-2.3C367.6,68.2,368.4,69,368.9,70.1L368.9,70.1z"/>
							<path class="st10" d="M351.3,67.6c-0.4,0.9-1.5,1.3-2.4,0.8c-0.9-0.4-1.3-1.5-0.8-2.4c0.4-0.9,1.5-1.3,2.4-0.8
								C351.3,65.6,351.7,66.7,351.3,67.6C351.3,67.6,351.3,67.6,351.3,67.6z"/>
							<path class="st10" d="M354,80.6c-0.6,1.2-1.6,2.2-2.9,2.7l-2.2-5l-2.2-5.4c2.8-1.3,6.2,0,7.4,2.8
								C354.8,77.3,354.8,79.1,354,80.6L354,80.6z"/>
						</g>
					</g>
					<path class="st16" d="M228.3,1.6l1.6-1.6c15.5,14.4,32.7,26.8,51.2,37.1c28.2,15.6,71.1,31.9,115.2,20.8l0.6,2.2
						c-44.9,11.3-88.4-5.2-116.9-21C261.3,28.7,243.9,16.1,228.3,1.6z"/>
				</g>
			</g>
		</g>
	</g>
</g>
</svg>
