<svg xmlns="http://www.w3.org/2000/svg" viewBox="0 0 1626.12 389.61"><defs><style>.cls-1{fill:#0a254d;}.cls-2{fill:#61c3f5;}.cls-3{fill:#eb4655;}.cls-4{fill:#725bd2;}</style></defs><title>maplaet-logo</title><g id="Layer_2" data-name="Layer 2"><g id="Layer_1-2" data-name="Layer 1"><path class="cls-1" d="M547.31,101.38c-12.55-16-31.57-24.51-55-24.51-27.51,0-49.35,14.86-62,26.23-9.79-13.57-26.75-26.23-56-26.23-23.45,0-41.79,10.2-53.88,19.81l-.07-.59a21.9,21.9,0,0,0-21.78-19.22,21.67,21.67,0,0,0-21.45,21.84V287.83a24.15,24.15,0,0,0,48.29,0V142.12c9.39-8.42,23-17.34,38.51-17.34,20.45,0,33.12,6.76,33.12,40.43V288.59c0,13.11,10.61,23.38,24.15,23.38a24.18,24.18,0,0,0,24.15-24.14V157.91a116,116,0,0,0-1.26-16.67c12.78-10.93,25.49-16.46,37.84-16.46,16.76,0,33.9,4.8,33.9,40.43V288.59c0,12.68,11,23.38,24.14,23.38a24.18,24.18,0,0,0,24.15-24.14V157.91C564.12,135,558.3,115.42,547.31,101.38Z"/><path class="cls-1" d="M743.75,97.76c-14.25-13.86-35.48-20.89-63.1-20.89-28.86,0-51.86,8.21-62.78,15.24-7.52,4.83-11.34,11.32-11.34,19.29a22.53,22.53,0,0,0,22.23,22.22,29,29,0,0,0,9.79-2.16c14.66-5.87,28-8.6,42.1-8.6,31.56,0,35.82,13.83,35.82,27.36v4.08c-19.45.74-49,4.24-74.4,17.22-30,15.33-45.91,39.86-45.91,70.95,0,41.57,29.78,69.5,74.11,69.5,21,0,37.8-5.24,51.86-16.29,2.66,10,10.58,16.29,20.79,16.29a21.67,21.67,0,0,0,21.84-21.45V156.75C764.76,131.17,757.69,111.32,743.75,97.76Zm-26.9,98.69v49.72c-4.21,9.51-18.45,23.28-41.58,23.28-14.22,0-30.82-7.07-30.82-27C644.45,206,686.44,197.66,716.85,196.45Z"/><path class="cls-1" d="M958.13,101c-13.57-15.8-33.9-24.15-58.78-24.15-19.86,0-37.25,7.68-49.67,16.89l-.38-1.12a22.08,22.08,0,0,0-21.06-15.77c-11.62,0-21.45,9.65-21.45,21.08V365.47a24.15,24.15,0,0,0,48.29,0V298.39A80.3,80.3,0,0,0,899.35,312c24.88,0,45.21-8.35,58.78-24.14,13.24-15.4,20-37.13,20-64.58V165.59C978.08,138.14,971.37,116.42,958.13,101Zm-103,149.53V138.29c11.71-10.38,24-15.43,37.35-15.43,27.23,0,37.36,12.21,37.36,45v53c0,32.84-10.13,45.05-37.36,45.05C879,266,866.79,260.93,855.08,250.55Z"/><path class="cls-1" d="M1036.57,0c-13.65,0-23.58,9.78-24.14,23.79v264a24.15,24.15,0,0,0,48.29,0V24.15A24.17,24.17,0,0,0,1036.57,0Z"/><path class="cls-1" d="M1240.35,97.76c-14.25-13.86-35.48-20.89-63.1-20.89-28.86,0-51.86,8.21-62.79,15.24-7.51,4.83-11.33,11.32-11.33,19.29a22.53,22.53,0,0,0,22.23,22.22,29,29,0,0,0,9.79-2.16c14.66-5.87,28-8.6,42.1-8.6,31.56,0,35.81,13.83,35.81,27.36v4.08c-19.44.74-49,4.24-74.39,17.22-30,15.33-45.91,39.86-45.91,70.95,0,41.57,29.78,69.5,74.11,69.5,21,0,37.79-5.24,51.86-16.29,2.66,10,10.58,16.29,20.79,16.29a21.67,21.67,0,0,0,21.84-21.45V156.75C1261.36,131.17,1254.29,111.32,1240.35,97.76Zm-26.9,98.69v49.72c-4.21,9.51-18.45,23.28-41.58,23.28-14.22,0-30.82-7.07-30.82-27C1141.05,206,1183,197.66,1213.45,196.45Z"/><path class="cls-1" d="M1438.23,214c12.68,0,23-10,23-22.23V165.59c0-27.79-6.74-49.5-20-64.52-14.2-16-35.51-24.2-63.31-24.2-27.28,0-48.55,8.27-63.22,24.58-13.86,15.41-20.89,37-20.89,64.14v64.58c0,52,31.36,81.8,86,81.8,29.34,0,53.41-10.7,66.21-20.76,6-4.8,9.06-10.73,9.06-17.61,0-12.88-9.39-22.6-21.84-22.6a23.31,23.31,0,0,0-13.11,4c-11.38,7.11-21.17,11-40.32,11-25,0-37.74-9.86-37.74-29.29V214Zm-60.34-91.1c22.11,0,35.81,7.53,35.81,45v3.15h-71.63V167.9C1342.07,130.39,1355.77,122.86,1377.89,122.86Z"/><path class="cls-1" d="M1603.9,261.76a39.19,39.19,0,0,0-8.17,1,60.37,60.37,0,0,1-13.36,1.31c-18.59,0-23.13-4.84-23.13-24.67v-115h38.51c11.84,0,21.84-10.18,21.84-22.23A22.06,22.06,0,0,0,1597.75,80h-38.51V58c0-13.55-9.72-23.76-22.61-23.76-12.7,0-21.35,8.36-22.57,21.81l-1.78,24.58-20.19,1.69h-.15c-11.85,1.18-19.81,9.63-19.81,21a20.61,20.61,0,0,0,21.07,21.07H1511V235.55c0,26.12,4.75,43.82,14.94,55.72,11,12.81,27.7,18.78,52.64,18.78,14.09,0,25.63-1.93,34.28-5.74l.1,0c8.52-3.88,13.21-11.08,13.21-20.29A22,22,0,0,0,1603.9,261.76Z"/><rect class="cls-2" x="93.4" y="-16.53" width="48.29" height="235.1" rx="24.15" transform="translate(16.53 218.57) rotate(-90)"/><rect class="cls-3" x="93.4" y="170.28" width="48.29" height="235.1" rx="24.15" transform="translate(-170.28 405.37) rotate(-90)"/><rect class="cls-4" x="93.4" y="78.9" width="48.29" height="235.1" rx="24.15" transform="translate(-78.9 313.99) rotate(-90)"/></g></g></svg>