<svg id="Layer_1" data-name="Layer 1" xmlns="http://www.w3.org/2000/svg" viewBox="0 0 1913.68 1913.68"><defs><style>.cls-1{fill:#c9ccd1;}.cls-2{fill:#fff;}</style></defs><title>user-profile</title><rect class="cls-1" width="1913.68" height="1913.68"/><path class="cls-2" d="M956.84,1150.65c243.67,0,441.15-197.48,441.15-441.15S1200.51,268.35,956.84,268.35,515.69,465.83,515.69,709.5,713.17,1150.65,956.84,1150.65Zm308.8,110.29h-57.55a600.66,600.66,0,0,1-251.25,55.14c-89.61,0-174.39-20-251.25-55.14H648c-255.73,0-463.21,207.47-463.21,463.2v143.38A165.47,165.47,0,0,0,350.26,2033H1563.42a165.47,165.47,0,0,0,165.43-165.43V1724.14C1728.85,1468.41,1521.37,1260.94,1265.64,1260.94Z"/></svg>