<svg xmlns="http://www.w3.org/2000/svg" viewBox="0 0 1298.02 221.49"><defs><style>.cls-1{fill:#fff;}</style></defs><title>border-bottom</title><g id="Layer_2" data-name="Layer 2"><g id="Layer_1-2" data-name="Layer 1"><path class="cls-1" d="M325,97.37c.08.81,2,20.18,13.8,45a173.85,173.85,0,0,0,51.62,63.49c-93.78-4.28-140.25-31.65-163-54.91-26.26-26.88-27.07-54.17-27.08-54.4l-.06-7.43H93.8A78.9,78.9,0,0,1,15,10.36V.5H0v9.86a93.92,93.92,0,0,0,93.8,93.81h92.3c1.85,11.32,8.15,33.89,29.64,56.34,17.12,17.89,40.45,32.1,69.34,42.23,35.51,12.44,79.67,18.75,131.26,18.75h28.79L420,207.44c-30.31-16.94-53-40.79-67.41-70.88a149.2,149.2,0,0,1-11.26-32.39h688.31v-15H324.19Z"/><path class="cls-1" d="M1283,0V10.36a78.9,78.9,0,0,1-78.8,78.81h-25.4v15h25.4A93.92,93.92,0,0,0,1298,10.36V0Z"/></g></g></svg>