<?xml version="1.0" encoding="utf-8"?>
<!-- Generator: Adobe Illustrator 24.0.2, SVG Export Plug-In . SVG Version: 6.00 Build 0)  -->
<svg version="1.1" id="Layer_1" xmlns="http://www.w3.org/2000/svg" xmlns:xlink="http://www.w3.org/1999/xlink" x="0px" y="0px"
	 viewBox="0 0 1283.9 1925.8" style="enable-background:new 0 0 1283.9 1925.8;" xml:space="preserve">
<style type="text/css">
	.st0{fill:#C5E2D4;}
	.st1{clip-path:url(#SVGID_2_);}
	.st2{fill:#FAE7D6;}
	.st3{fill:#FDC8A0;}
	.st4{clip-path:url(#SVGID_4_);}
	.st5{fill:#FFDEEF;}
	.st6{fill:#F7CAB5;}
	.st7{fill:#5C5D5C;}
	.st8{fill:#C6C6C6;}
	.st9{fill:#FAEADC;}
	.st10{fill:#C5A694;}
	.st11{fill:#3E251D;}
	.st12{fill:#000100;}
	.st13{fill:#FFFFFF;}
	.st14{fill:#FCC8A0;}
	.st15{fill:#9C8273;}
	.st16{fill:#DE85B4;}
	.st17{fill:#F4C4C0;}
	.st18{fill:#DA87A5;}
	.st19{fill:none;stroke:#FEF3EF;stroke-width:1.6412;stroke-miterlimit:10;}
	.st20{fill:none;stroke:#FEF3EF;stroke-width:1.8488;stroke-miterlimit:10;}
	.st21{fill:#E27DA6;}
</style>
<title>background</title>
<g id="BACKGROUND">
	<rect x="-1.9" class="st0" width="1287.7" height="1925.8"/>
</g>
<g id="OBJECTS">
	<g>
		<defs>
			<rect id="SVGID_1_" y="2.9" width="1283.9" height="1920"/>
		</defs>
		<clipPath id="SVGID_2_">
			<use xlink:href="#SVGID_1_"  style="overflow:visible;"/>
		</clipPath>
		<g class="st1">
			<path d="M606.3,1085.7c-3,10.7-2.5,22.2-1,33.1c0.2,1.2,3.8,1.1,3.7,0.1c-1.5-10.9-2-22.4,1-33.1
				C610.2,1085,606.7,1084.5,606.3,1085.7L606.3,1085.7z"/>
			<path class="st2" d="M610.6,1034.8c-6.9,10-13.3,22.1-15.3,35.7c-1,10,1,24.2,13.8,24.2c13.8,0.5,13.8-15.8,11.8-26.3
				S610.6,1034.8,610.6,1034.8z"/>
			<path class="st3" d="M608.1,1055.8c-4,7.2-6.7,15.1-7.7,23.2c-0.5,6.5,0.5,15.7,7,15.7c7,0.3,7-10.2,6-17.1
				S608.1,1055.8,608.1,1055.8z"/>
			<path class="st3" d="M603.2,1176.7c-0.5-14.7-3.5-28.9-3.9-43.6c-0.5-5.3-3.5-20.5-0.5-24.7c2.5-3.2,12.8-4.7,16.3-5.8
				c1,25.2-0.5,49.4,4.9,74.1H603.2z"/>
			<g>
				<defs>
					<path id="SVGID_3_" d="M603.2,1176.7c-0.5-14.7-3.5-28.9-3.9-43.6c-0.5-5.3-3.5-20.5-0.5-24.7c2.5-3.2,12.8-4.7,16.3-5.8
						c1,25.2-0.5,49.4,4.9,74.1H603.2z"/>
				</defs>
				<clipPath id="SVGID_4_">
					<use xlink:href="#SVGID_3_"  style="overflow:visible;"/>
				</clipPath>
				<g class="st4">
					<path class="st5" d="M621,1084.5c-1.5,16-18.9,30.3-31.5,37c-3.7,2,6.3,5.7,8.8,4.3c13.3-7.1,31.7-21.8,33.3-39
						C632.1,1083.2,621.3,1081.4,621,1084.5L621,1084.5z"/>
					<path class="st5" d="M621,1099.6c-1.5,16-18.9,30.3-31.5,37c-3.7,2,6.3,5.7,8.8,4.3c13.3-7.1,31.7-21.8,33.3-39
						C632.1,1098.3,621.3,1096.5,621,1099.6L621,1099.6z"/>
					<path class="st5" d="M621,1117.7c-1.5,16-18.9,30.3-31.5,37c-3.7,2,6.3,5.7,8.8,4.3c13.3-7.1,31.7-21.9,33.3-39
						C632.1,1116.5,621.3,1114.6,621,1117.7L621,1117.7z"/>
					<path class="st5" d="M621,1135.8c-1.5,16-18.9,30.3-31.5,37c-3.7,2,6.3,5.7,8.8,4.3c13.3-7.1,31.7-21.8,33.3-39
						C632.1,1134.6,621.3,1132.7,621,1135.8L621,1135.8z"/>
				</g>
			</g>
			<path class="st6" d="M455,1229.8c-2,24.5-1.3,49.8-1.3,75c0,17.5,0.7,34.3,1.3,51.8c0.6,12.6-5.3,38.5,0.6,49.7v3.5
				c17.7,2.8,40.1-2.1,57.8-2.1c32.8,0,66.3-0.7,99.1-4.2c24.9-2.1,50.5-4.9,76.2-2.1c19,2.1,38.1,6.3,57.1,7.7
				c13.8,0.7,26.3,5.6,40.1,7c-0.7-16.1-5.9-34.3-9.2-49.7c-2.6-17.5-4.6-34.3-7.9-51.2s-3.9-34.3-7.2-51.1
				c-1.3-9.1-4.6-18.2-6.6-26.6c-1.3-6.3-1.3-22.4-4.6-26.6c-5.3-7-44-2.8-55.2-3.5c-17.7-1.4-36.1-2.8-53.8-1.4
				c-39.4,2.1-80.1,2.1-119.5,7.7c-13.8,2.1-28.9,1.4-42.7,4.2c-6,1.4-12.2,2.1-18.3,2.1c-2.6,0-12.5-2.1-7.9,0L455,1229.8z"/>
			<path class="st5" d="M470.8,1170.9c-19,0-25.6,16.8-31.5,34.3c-5.3,14.7-11.2,30.1-14.4,44.8c-3.3,17.5,1.3,35.7,18.4,17.5
				c11.2-11.9,22.3-32.9,40-35.7s28.2,21.7,36.1,35c11.8,18.2,22.3,25.9,38.1,7.7c11.2-14,20.3-32.9,37.4-39.9
				c19.7-7.7,26.9,11.2,35.5,25.9c10.5,18.2,25,32.9,37.4,9.1c8.5-15.4,13.8-36.4,32.2-43.4c19-7,30.9,12.6,42.7,24.5
				c8.5,8.4,26.3,29.4,37.4,15.4c9.8-11.9,0.7-35-3.3-46.9c-8.5-26.6-15.8-54.7-46-54.7L470.8,1170.9z"/>
			<path class="st7" d="M921.5,1653.8c-7.8,24-125.2,46.4-279.6,46.4s-271.9-22.3-279.6-46.4c-16.4-51.1,125.2-46.5,279.6-46.5
				S938.8,1600.7,921.5,1653.8z"/>
			<path class="st8" d="M921.5,1639.9c0,25.7-125.2,46.4-279.6,46.4s-279.6-20.8-279.6-46.4s125.2-46.5,279.6-46.5
				S921.5,1614.2,921.5,1639.9z"/>
			<path class="st7" d="M881.7,1641.4c0,17.4-107.4,33.1-239.8,35.2S402,1666.1,402,1648.7s107.4-33.1,239.8-35.2
				S881.7,1624,881.7,1641.4z"/>
			<path class="st9" d="M437,1434.4c1,35.7-3.9,73.6-5.9,109.3c-1,22.1-2,44.1-3,66.2c-1,22.1-6.3,35,12.8,41
				c167.4,52.6,410.7-3.2,410.7-26.3c0-22.1-8.9-48.3-10.8-70.4c-3.9-27.3-7.9-54.7-11.8-82c-2-14.7-2-32.6-6.9-46.2L437,1434.4z"/>
			<path class="st10" d="M483.9,1394.4c-21.7,0-35.5-1.4-50.5,18.2c-11.8,16.1-15.8,27.3-19.7,46.9c-2.6,12.6-7.9,47.6,15.1,35.7
				c11.8-7,19.7-37.8,34.1-35s17.7,37.8,32.8,45.5c18.4,8.4,33.5-2.1,45.3-16.1c13.8-17.5,23.6-25.9,39.4-4.2
				c9.2,12.6,24.3,36.4,42.7,29.4c17.1-7,23-32.9,38.1-43.4c32.8-23.8,49.2,51.8,83.4,32.9c15.1-9.1,8.5-38.5,25.6-43.4
				c13.1-3.5,32.2,17.5,42.7,23.8c13.8,8.4,16.1,14.7,31.5,4.9c5.5-3.5,1.3-24.5-1.3-38.5c-6.6-32.2-13.8-56.8-51.9-55.3
				L483.9,1394.4z"/>
			<path class="st5" d="M460.7,1377.9c-3.8,0-8.8-1.6-13.3-8.3c-1.8-2.6-1.2-6.2,1.3-8.2c2.3-1.8,5.6-1.4,7.4,0.9
				c0.1,0.1,0.2,0.3,0.3,0.4c2.4,3.6,4.1,3.4,4.6,3.4c2.9-0.3,11.2-4.4,26.1-37.4l0.6-1.4c8.4-16.4,20.9-26.3,33.7-26.7h0.9
				c10.7,0,20.4,6.6,27.5,18.6c9.8,17.1,19.6,26.9,26.9,26.9l0,0c4.2,0,8.3-3.4,12.2-10.2c1.5-2.7,3.1-5.7,4.8-9
				c9.1-17.4,22.9-43.6,45.6-36.6c15.1,4.8,21.2,18.8,26.5,31.2c3.3,7.8,6.5,15.2,11.5,19.9c7.9,7.9,16.7,11.5,22.6,9.3
				s8.2-9.7,9.1-15.7c2-14.4,8.7-32.6,21-36.6c5.1-1.7,13.2-1.4,22.4,9.4c4.3,5,7.3,11.9,10.2,18.5c4.6,10.4,8.9,20.2,17.2,22
				c3.1,0.8,4.9,3.8,4.3,6.9c-0.5,3-3.3,5.1-6.3,4.6c0,0-0.1,0-0.1,0c-13.7-3-19.7-16.6-24.9-28.5c-2.7-6.1-5.2-11.8-8.4-15.6
				c-3-3.5-7.3-7.3-11.1-6.1c-5.6,1.8-11.4,13.8-13.3,27.2c-2.5,16.6-10.3,22.7-16.4,24.9c-10,3.6-22.5-0.7-33.5-11.7
				c-6.7-6.2-10.5-15.1-14.2-23.7c-5-11.6-9.3-21.6-19.6-24.8c-13.2-4.1-22.7,11.7-32.9,31.1c-1.8,3.4-3.5,6.7-5.1,9.4
				c-6,10.4-13.3,15.8-21.5,15.8l0,0c-11.6,0-23.8-10.9-36.2-32.4c-5.2-8.8-11.8-13.4-18.8-13.1c-8.8,0.3-17.9,7.9-24.3,20.4
				l-0.5,1.1c-9,19.8-21,42.7-35.1,44C461.5,1377.9,461.1,1377.9,460.7,1377.9z"/>
			<path class="st11" d="M556.1,1527.7c0.5-2,1.6-3.8,3.3-5.1c1.6-1.3,3.4-2.1,5.4-2.5c2-0.4,4.1-0.3,6,0.3c2,0.6,3.7,2,4.6,3.9
				c-1.6-0.6-3.3-0.9-5.1-0.9c-1.6,0-3.2,0.2-4.8,0.5c-1.6,0.3-3.2,0.8-4.7,1.3C559.2,1525.8,557.6,1526.6,556.1,1527.7z"/>
			<path class="st11" d="M693.9,1523.7c1.3-1.4,3.1-2.2,4.9-2.4c1.9-0.2,3.8,0.1,5.5,0.8c3.6,1.6,6.1,5,6.5,8.9
				c-2.3-2.2-5-4-7.9-5.3c-1.3-0.6-2.8-1.1-4.2-1.4C697.2,1524,695.6,1523.8,693.9,1523.7z"/>
			<path class="st12" d="M614.4,1618.7c0.6,7.9,0.5,16.1,3.6,22.8c1.4,3.2,3.9,5.8,7.1,7.2c3.2,1.3,6.7,1.9,10.1,1.6
				c3.4,0,6.6-1.2,9.2-3.3c2.5-2.2,4.1-5.6,5-9.2c1.8-7.3,1.3-15.4,1.8-23.3c0.9,7.8,2.5,15.8,1,24c-0.6,4.3-2.5,8.2-5.5,11.3
				c-3.1,2.8-7.2,4.3-11.4,4.4c-4,0.2-8-0.5-11.7-2.2c-3.8-2-6.7-5.3-8.2-9.3C612.4,1634.7,613.7,1626.4,614.4,1618.7z"/>
			<path class="st12" d="M542.3,1570.8c2.5-4.5,7.1-7.1,11.7-8.4c9.5-2.5,19.5-0.1,26.9,6.4c3.6,3.3,6.7,8.1,6.6,13.4
				c-3.4-2.3-7.1-4.2-11-5.5c-3.5-1.2-7.1-2.2-10.7-3.1c-3.6-0.8-7.3-1.6-11-2.1C550.6,1570.9,546.4,1570.7,542.3,1570.8z"/>
			<path class="st12" d="M726.3,1570.8c-4.1-0.1-8.3,0.1-12.3,0.8c-3.8,0.5-7.4,1.3-11,2.1c-3.6,0.8-7.2,1.9-10.7,3.1
				c-3.9,1.3-7.6,3.1-11,5.5c-0.1-5.2,3-10,6.6-13.4c7.3-6.5,17.4-8.9,26.9-6.4C719.2,1563.7,723.8,1566.3,726.3,1570.8z"/>
			<path class="st10" d="M497.4,1614.5c0-18.2,13.8-33,30.9-33s30.9,14.8,30.9,33s-13.8,33-30.9,33S497.4,1632.7,497.4,1614.5z"/>
			<path class="st10" d="M709.4,1614.5c0-18.2,13.8-33,30.9-33s30.9,14.8,30.9,33s-13.8,33-30.9,33S709.4,1632.7,709.4,1614.5z"/>
			<path class="st13" d="M641.5,16.5c0.7,6-4.5,11.3-11.5,11.7s-13.2-4.1-13.9-10.1s4.5-11.3,11.5-11.7S640.9,10.5,641.5,16.5z"/>
			<path class="st13" d="M609.2,66.5c0.7,6-4.5,11.3-11.5,11.7s-13.2-4.1-13.9-10.1s4.5-11.3,11.5-11.7S608.6,60.4,609.2,66.5z"/>
			<path class="st13" d="M485.8,156.3c0.7,6-4.5,11.3-11.5,11.7s-13.2-4.1-13.9-10.1s4.5-11.3,11.5-11.7S485.1,150.3,485.8,156.3z"
				/>
			<path class="st13" d="M425.5,172.9c0.7,6-4.5,11.3-11.5,11.7s-13.2-4.1-13.9-10.1s4.5-11.3,11.5-11.7S424.8,166.9,425.5,172.9z"
				/>
			<path class="st13" d="M264.9,173.5c0.7,6-4.5,11.3-11.5,11.7s-13.2-4.1-13.9-10.1s4.5-11.3,11.5-11.7S264.3,167.5,264.9,173.5z"
				/>
			<path class="st13" d="M825.5,86.5c0.7,6-4.5,11.3-11.5,11.7s-13.2-4.1-13.9-10.1s4.5-11.3,11.5-11.7S824.8,80.5,825.5,86.5z"/>
			<path class="st13" d="M1071.6,96.5c0.7,6-4.5,11.3-11.5,11.7s-13.2-4.1-13.9-10.1s4.5-11.3,11.5-11.7S1070.9,90.5,1071.6,96.5z"
				/>
			<path class="st13" d="M1220.2,53.6c0.7,6-4.5,11.3-11.5,11.7s-13.2-4.1-13.9-10.1s4.5-11.3,11.5-11.7S1219.6,47.6,1220.2,53.6z"
				/>
			<path class="st13" d="M1259.5,25.8c0.7,6-4.5,11.3-11.5,11.7s-13.2-4.1-13.9-10.1s4.5-11.3,11.5-11.7S1258.8,19.7,1259.5,25.8z"
				/>
			<path class="st13" d="M191.7,155.2c0.7,6-4.5,11.3-11.5,11.7s-13.2-4.1-13.9-10.1s4.5-11.3,11.5-11.7S191,149.2,191.7,155.2z"/>
			<path class="st13" d="M1034.1,188.1c-2.7,2.7-8.1,2.8-12,0.2s-4.9-7-2.2-9.7s8.1-2.8,12-0.2S1036.8,185.4,1034.1,188.1z"/>
			<path class="st13" d="M1029.2,144.1c-2.7,2.7-8.1,2.8-12,0.2s-4.9-7-2.2-9.7s8.1-2.8,12-0.2S1032,141.4,1029.2,144.1z"/>
			<path class="st7" d="M911,117c-2.9,2.7-7.2,3.2-10.6,1.1c-2.6-1.6-3.4-5-1.8-7.6c0.3-0.4,0.6-0.8,1-1.2c2.9-2.8,7.2-3.2,10.6-1.1
				c2.6,1.6,3.4,5,1.8,7.6C911.7,116.3,911.4,116.7,911,117z"/>
			<path class="st7" d="M542.1,137.5c-2.9,2.7-7.2,3.2-10.6,1.1c-2.6-1.6-3.4-5-1.8-7.6c0.3-0.4,0.6-0.9,1-1.2
				c2.9-2.7,7.2-3.2,10.6-1.1c2.6,1.6,3.4,5,1.8,7.6C542.8,136.7,542.5,137.1,542.1,137.5z"/>
			<path class="st7" d="M937.7,138.6c-2.9,2.7-7.2,3.2-10.6,1.1c-2.6-1.6-3.4-5-1.8-7.6c0.3-0.4,0.6-0.9,1-1.2
				c2.9-2.7,7.2-3.2,10.6-1.1c2.6,1.6,3.4,5,1.8,7.6C938.4,137.8,938,138.2,937.7,138.6z"/>
			<path class="st7" d="M585.4,141c-2.9,2.8-7.2,3.2-10.6,1.1c-2.6-1.6-3.4-5-1.8-7.6c0.3-0.5,0.6-0.9,1-1.2
				c2.9-2.7,7.2-3.2,10.6-1.1c2.6,1.6,3.4,5,1.8,7.6C586.1,140.2,585.8,140.6,585.4,141z"/>
			<path class="st7" d="M558.6,165.6c-2.9,2.7-7.2,3.2-10.6,1.1c-2.6-1.6-3.4-5-1.8-7.6c0.3-0.4,0.6-0.8,1-1.2
				c2.9-2.7,7.2-3.2,10.6-1.1c2.6,1.6,3.4,5,1.8,7.6C559.3,164.8,559,165.2,558.6,165.6z"/>
			<path class="st7" d="M60.5,122.3c-2.9,2.7-7.2,3.2-10.6,1.1c-2.6-1.6-3.4-5-1.8-7.6c0.3-0.4,0.6-0.8,1-1.2
				c2.9-2.7,7.2-3.2,10.6-1.1c2.6,1.6,3.4,5,1.8,7.6C61.3,121.5,60.9,121.9,60.5,122.3z"/>
			<path class="st7" d="M90,130.5c-2.9,2.7-7.2,3.2-10.6,1.1c-2.6-1.6-3.4-5-1.8-7.6c0.3-0.4,0.6-0.8,1-1.2
				c2.9-2.7,7.2-3.2,10.6-1.1c2.6,1.6,3.4,5,1.8,7.6C90.7,129.7,90.4,130.2,90,130.5z"/>
			<path class="st7" d="M69.2,157.7c-2.9,2.8-7.2,3.2-10.6,1.1c-2.6-1.6-3.4-5-1.8-7.6c0.3-0.4,0.6-0.8,1-1.2
				c2.9-2.7,7.2-3.2,10.6-1.1c2.6,1.6,3.4,5,1.8,7.6C69.9,156.9,69.6,157.3,69.2,157.7z"/>
			<path class="st7" d="M909.3,160c-2.9,2.8-7.2,3.2-10.6,1.1c-2.6-1.6-3.4-5-1.8-7.6c0.3-0.4,0.6-0.8,1-1.2
				c2.9-2.7,7.2-3.2,10.6-1.1c2.6,1.6,3.4,5,1.8,7.6C910,159.2,909.7,159.6,909.3,160z"/>
			<path class="st7" d="M941.6,174.9c-2.9,2.8-7.2,3.2-10.6,1.1c-2.6-1.6-3.4-5-1.8-7.6c0.3-0.4,0.6-0.8,1-1.2
				c2.9-2.7,7.2-3.2,10.6-1.1c2.6,1.6,3.4,5,1.8,7.6C942.4,174.1,942,174.5,941.6,174.9z"/>
			<polygon class="st13" points="1033.3,226.8 1030.3,226.9 1016.6,102 1019.5,101.8 			"/>
			<path class="st13" d="M1078.8,243.3c1.3-3.6-13.7-3.1-32.1-0.9c-4.8-9.3-9.6-16.8-13.5-19.4c-5.2-3.5-10.1,8-14.2,23.4
				c-16.2,2.8-30.5,5.9-34.4,7.9c-4.8,2.4,8.6,8.1,26.8,18c-1.8,11.3-3,22.7-3.4,34.2c-1.1,7.6,12.8-3,28.6-17.7
				c13.9,6.8,29,16.3,31.6,16.5c3.6,0.3-2.9-18-9.6-35.5C1069.7,258.3,1077.7,246.1,1078.8,243.3z"/>
			<path class="st13" d="M943.7,200.5c-5.5,0.3-16-14.6-22.4-24.7c-5.8,3.5-27.9,16.7-33.2,20.3c-0.6,0.4-1.5,0.5-2.2,0.2
				c-1.5-0.6-4-1.7-0.7-50.2c1.6-23.6,3.9-47.2,3.9-47.4l3,0.2c-3.2,33.2-7.1,86.4-4.8,94.5c7.7-5,32.6-19.9,33.7-20.6l1.4-0.8
				l0.8,1.3c8.2,13,17.2,24,20,24.6c3.5-4.9,8.4-58.8,10.7-92.2l3,0.2c-3,42.3-7.5,93.1-12.6,94.4
				C944.1,200.5,943.9,200.5,943.7,200.5z"/>
			<path class="st13" d="M563.2,191.7c-5.7,0.4-33-35.8-48.8-57.4l2.5-1.2c18.4,25.1,39.8,52.2,45.4,55.8
				c2.5-7.5,12.1-32.2,12.5-33.3l0.5-1.4l1.6,0.7c15.9,6.7,31,11.4,33.6,10.5c-0.3-5.1-29.2-44.3-47.7-68.2l2.5-1.3
				c19.2,24.8,50.9,67.1,47.7,70.8s-23.2-3.8-36-9.1c-2.2,5.6-10.5,27.1-12.2,32.6C564.7,191.1,564,191.7,563.2,191.7L563.2,191.7z"
				/>
			<path class="st13" d="M66.6,178.3c-1.5,0.1-3-0.3-4.4-1c-7.2-3.9-11.5-18.7-12.8-23.8c-3.7,1.7-12,5.4-18.3,5.8
				c-0.8,0.1-1.6-0.2-2.2-0.8c-5.2-5.2,10.8-53.1,14.1-62.7l2.9,0.7c-9.3,27.2-17.3,56.9-14.8,60.3c7.4-0.6,18.5-6.3,18.6-6.3l1.9-1
				l0.4,1.9c1.2,5.5,5.6,20.6,11.9,23.9c1,0.6,2.1,0.7,3.2,0.5c7.4-1.6,23.4-33,31.8-52.4l2.8,0.8c-2.3,5.3-22.4,51.6-33.8,54
				C67.5,178.2,67,178.3,66.6,178.3z"/>
			<polygon class="st13" points="141.9,216 139,216 137.7,140 140.7,140 			"/>
			<path class="st13" d="M173.2,221.6c1.5-2.9-8.4-2-21.2,0.3c-4.6-7.2-9-12.8-11.7-13.8c-3.6-1.2-7.7,7.6-11.4,18.5
				c-12.2,2.8-22.8,5.5-25,6.3c-2.4,0.9,7.4,5.1,20.2,10c-3,11.1-5,20.6-5,20.6c-0.9,4,10.7-3.8,23.3-13.8
				c13.5,4.9,25.8,9.3,27.9,10.6c2.7,1.7-3.1-11.5-10.6-25.1C166.8,229,172.2,223.7,173.2,221.6z"/>
			<path class="st14" d="M696.9,48.6l-55.5,19.3c2-6,4.1-11.7,6-16.9l30.8-10.1C683.9,43.3,690.2,45.9,696.9,48.6z"/>
			<path class="st14" d="M735.5,62.8L631.4,99c1.4-5.2,3.2-11,5.2-17.1l79.4-26C722.2,58.2,728.8,60.5,735.5,62.8z"/>
			<path class="st14" d="M736.1,75.8c-2.2,4.4-4.9,10-7.9,16.1l-65.1,22.6c-12.7,1.8-29.1,4-33.8,3.9c-1.2,0-1.5-2-1-5.5L736.1,75.8
				z"/>
			<path class="st14" d="M718.9,110.3c-2.9,5.7-5.9,11.2-8.8,16.5l-28,9.7c-0.8-4.4-1.4-9-1.8-12.9L718.9,110.3z"/>
			<path class="st13" d="M690.6,155.7c-0.7,0-1.4-0.1-2-0.3c-2.1-0.9-5.3-3.8-8-18.7c-0.9-5-1.5-9.8-1.8-13c-0.5-4.4-0.7-8.1-0.9-10
				l-14.5,2.1c-12.9,1.8-29.2,4-34.1,3.9c-0.6,0-1.3-0.2-1.7-0.7c-0.7-0.6-1.4-1.9-0.8-6.2c0.7-4.8,1.7-9.5,3.1-14.1
				c1.4-5.2,3.3-11.1,5.2-17.1c1.8-5.3,3.3-9.9,4.8-14c2-6,4.1-11.7,6-16.9c4.3-11.7,7.6-20.4,7.7-20.5l2.8,0.8
				c0,0.1-3.4,8.8-7.6,20.5c-1.8,5.2-3.9,11-6,16.9c-1.5,4.1-3,8.7-4.8,14c-2,6-3.8,11.9-5.2,17c-1.4,4.5-2.4,9.1-3.1,13.8
				c-0.4,2.6-0.2,3.7,0,4.1c4.1-0.1,15.8-1.4,33.1-3.9c9-1.3,16.2-2.4,16.2-2.4l1.7-0.3l0.1,1.4c0,0.1,0.2,5,0.9,11.4
				c0.3,3.1,0.9,7.9,1.8,12.9c2.5,13.9,5.3,16.4,6.3,16.9c0.3,0.1,0.7,0.1,1-0.1c1.3-0.6,5.6-4.4,17.9-26.9
				c2.9-5.3,5.9-10.8,8.8-16.5c3.2-6.3,6.4-12.5,9.3-18.4c3-6.1,5.7-11.7,7.9-16.1c3.3-6.7,5.3-11,5.3-11l2.8,0.9c0,0-2,4.3-5.3,11
				c-2.2,4.4-4.9,10-7.9,16.1c-2.9,5.8-6.1,12.1-9.4,18.4c-2.9,5.7-5.9,11.2-8.8,16.5c-14,25.7-17.9,27.4-19.1,28
				C691.8,155.6,691.2,155.7,690.6,155.7z"/>
			<path class="st15" d="M1119.2,83.9l-10.5,34.5c-1.6-4.6-3-9-4.3-12.8l0,0l6.1-19.3C1113.3,85.5,1116.3,84.7,1119.2,83.9z"/>
			<path class="st15" d="M1143.5,76.3l-24.4,71.9c-1.9-5-3.8-10.4-5.6-15.7l18.2-52.3C1135.6,78.9,1139.6,77.6,1143.5,76.3z"/>
			<path class="st15" d="M1165.7,68.1l-2.4,7.4l-32.4,98.8c-1.4-1.1-3.8-6.1-6.7-13l0,0l29.5-88.6c2.3-0.8,4.7-1.7,7-2.6
				C1162.4,69.4,1164,68.8,1165.7,68.1z"/>
			<path class="st15" d="M1177.3,106l-14.2,43c-3.8-1.4-7.1-2.7-9.6-3.7l17.6-52.8C1173.1,96.8,1175.2,101.3,1177.3,106z"/>
			<path class="st15" d="M1192.3,139L1192.3,139l-5.9,17.9c-3.1-0.9-6.4-1.9-9.8-3l9.5-28.5C1188.3,130.1,1190.4,134.8,1192.3,139z"
				/>
			<path class="st13" d="M1131.6,175.8h-0.2c-0.5-0.1-1.1-0.3-1.5-0.6c-1.1-0.9-2.9-3.1-7.2-13.6l-0.1-0.2c-1.4-3.4-3-7.4-5-12.9
				l-0.1-0.3c-1.7-4.5-3.6-9.8-5.6-15.6l-4.9-14.3c-0.8-2.2-1.5-4.5-2.3-6.7c-0.7-2.1-1.3-4-2-5.9l-0.1-0.3
				c-3.1-9.2-5.1-15.7-5.1-15.7l2.9-0.6c0,0,2,6.5,5.1,15.9l0.1,0.3c0.6,1.6,1.2,3.6,1.9,5.7c0.8,2.2,1.5,4.6,2.3,6.9l4.8,14
				c2,5.7,3.9,11,5.6,15.7l0.1,0.3c2.1,5.4,3.6,9.4,5,12.8l0.1,0.2c3.6,8.6,5.3,11.4,6,12.2c3.2-1.7,10.7-16.5,16.1-29.9l0.5-1.3
				l1.5,0.6c0,0,1.7,0.7,4.3,1.7l1,0.4c2.3,0.9,5.3,2.1,8.6,3.3c4.1,1.5,8.7,3.2,13.4,4.8c3.7,1.3,6.9,2.2,9.7,3
				c10.2,2.9,11.8,2.1,11.9,2.1c-0.5-1.2-2.1-5.4-7.9-18.4l-6.2-13.7c-2.9-6.3-5.9-13-8.8-19.4c-2.2-4.6-4.2-9.2-6.1-13.4
				c-3.2-6.9-6-12.9-7.9-17.1c-1.2-2.6-2.1-4.5-2.6-5.4c-0.2-0.4-0.3-0.7-0.3-0.7l2.8-0.7c0,0,0.1,0.2,0.3,0.6
				c0.4,0.9,1.3,2.8,2.6,5.4c1.9,4.2,4.7,10.2,7.9,17.1c1.9,4.2,4,8.7,6.1,13.4c2.9,6.4,6,13.1,8.8,19.4l6.2,13.8
				c4.7,10.4,7.3,16.7,7.8,18.6c0.3,0.9,0,1.8-0.8,2.3c-1.3,1-4,1.5-14.8-1.6c-2.8-0.8-6.1-1.8-9.9-3.1c-4.8-1.6-9.5-3.3-13.6-4.8
				c-3.3-1.2-6.3-2.4-8.6-3.3l-1-0.4l-2.8-1.1C1145.3,157.2,1137,175.4,1131.6,175.8z"/>
			<polygon class="st16" points="267.6,198.5 268.1,200.9 267.9,201 			"/>
			<path class="st17" d="M323,181l-22.6,13.7c0.1-5,0.2-9.2,0.3-11.9l5-2.8C311.4,180.4,317.2,180.7,323,181z"/>
			<polygon class="st16" points="278.8,212.2 279.3,214.5 279.1,214.7 			"/>
			<path class="st17" d="M356.7,180.9l-56.2,34c-0.1-4.2-0.2-8.3-0.2-12.2l38.5-21.5C344.8,181.3,350.7,181.2,356.7,180.9z"/>
			<polygon class="st16" points="290.6,224.4 291.2,226.8 290.9,226.9 			"/>
			<path class="st17" d="M370.7,182.3c0.2,2,0.4,5.1,0.7,9.1l-69.8,42.2c-0.4-3.8-0.7-8-0.9-12.3l0,0L370.7,182.3z"/>
			<polygon class="st16" points="295.9,240.6 296.4,242.9 296.1,243.1 			"/>
			<path class="st17" d="M372.1,200.6c0.2,3,0.4,6.1,0.6,9.4l0,0l-33.6,20.3l-0.9,0.5h0l-32.6,19.7c-1.4-2.3-2.4-6.1-3.2-11.1
				L372.1,200.6z"/>
			<polygon class="st16" points="309.8,252.6 310.4,255 310.1,255.1 			"/>
			<path class="st17" d="M373.3,219.8c0.2,3.5,0.3,6.9,0.5,10.1l-20,12.1c-3-2.2-6-4.5-8.4-6.5L373.3,219.8z"/>
			<polygon class="st16" points="328.1,277.5 328.8,279.8 328.5,280 			"/>
			<path class="st17" d="M374,237.8c0.1,3.6-0.1,7.2-0.6,10.8c0,0.2-0.1,0.3-0.1,0.5l-2.7,1.6c-2.6-0.1-6.7-2.1-11-4.9L374,237.8z"
				/>
			<path class="st13" d="M371,252h-0.4c-2.8-0.1-6.8-1.8-12-5.1c-2-1.3-4-2.6-5.8-4c-2.5-1.8-5.2-3.9-8.5-6.6
				c-2.3-1.8-4.1-3.4-5.2-4.4c-5,5.4-19.9,20.7-30.1,21.9c-2,0.2-3.5-0.7-4.8-2.7c-1.4-2.2-2.5-6-3.3-11.5c-0.4-2-0.6-3.9-0.8-5.9
				c-0.4-3.9-0.7-8.2-0.9-12.3c-0.1-2.2-0.2-4.3-0.2-6.5c-0.1-3.3-0.1-6.7-0.2-9.9v-2.3c0-2.9,0-5.6,0.1-8.2
				c0.1-4.7,0.2-8.7,0.3-11.4v-0.5c0.1-2.1,0.1-3.2,0.1-3.2l3,0.1c0,0,0,1.2-0.1,3.2v0.5c-0.1,2.7-0.2,6.7-0.3,11.4
				c0,2.5-0.1,5.3-0.1,8.1v2.3c0,3.2,0.1,6.5,0.2,9.9c0,2.2,0.1,4.3,0.2,6.4c0.2,4.1,0.4,8.3,0.9,12.3c0.2,1.9,0.4,3.9,0.8,5.8
				c0.8,5.2,1.8,8.7,3,10.7c0.4,0.7,1,1.4,1.6,1.4l0,0c7.4-0.8,19.9-12,28.4-21.3c0.5-0.5,0.7-0.7,0.7-0.8l1.3-1.6l1.2,1.6
				c0.7,0.6,3,2.6,6.2,5.1s5.9,4.7,8.4,6.5c1.8,1.3,3.7,2.6,5.6,3.9c4.5,2.9,8.1,4.6,10.1,4.6c0.7,0,1.1-0.2,1.3-0.8l0.1-0.3
				c0.5-3.6,0.6-7.1,0.5-10.7v-2c0-1.9-0.1-3.9-0.1-5.9c-0.1-3.2-0.3-6.6-0.5-10v-0.4c-0.2-3.1-0.4-6.3-0.5-9.4
				c-0.1-1.8-0.3-3.5-0.4-5.2c-0.1-1.4-0.2-2.8-0.3-4.2c-0.3-3.3-0.5-6.4-0.7-9.1l-0.7-9.1c-0.1-1.4-0.2-2.1-0.2-2.1l3-0.2
				c0,0,0.1,0.8,0.2,2.2l0.7,9.1c0.2,2.7,0.4,5.8,0.7,9.1c0.1,1.4,0.2,2.8,0.3,4.2c0.1,1.7,0.2,3.4,0.4,5.1c0.1,3.2,0.3,6.4,0.5,9.4
				v0.4c0.2,3.5,0.3,6.9,0.5,10.1c0.1,2.1,0.1,4.1,0.1,5.9v2c0.1,3.7-0.1,7.4-0.6,11c0,0.3-0.1,0.5-0.2,0.7
				C374.1,251,372.6,252,371,252z"/>
			<path class="st13" d="M364.6,181.8c-2.6,0.2-5.1,0.3-7.7,0.4c-7.1,0.3-12.8,0.4-18,0.3s-10.7-0.1-15.9-0.3
				c-6.1-0.3-11.9-0.6-17.4-1.1C145.8,168.6,1.4,72.3,0,71.3l1.9-1.9c1.4,1,145.1,96.8,303.9,109.3c5.5,0.4,11.2,0.8,17.3,1
				c5.2,0.2,10.5,0.3,15.8,0.3s10.9-0.1,17.8-0.3c114.9-4.9,206.1-59.7,270.9-163l0.8-1.2l1.4,0.8c0.1,0,9.5,5.3,26,13.1
				c7.9,3.7,15.4,7.1,23.1,10.4c6.4,2.7,12.4,5.2,18.3,7.6l0.4,0.1c6,2.4,12.4,4.8,19,7.3c6,2.2,12.4,4.5,19.2,6.8l0.4,0.1
				c1.9,0.7,3.9,1.3,5.9,2c90.7,30.2,228.3,58.4,368,21.4c2.9-0.8,5.8-1.6,8.8-2.4c3.9-1.1,8.1-2.4,12.4-3.7
				c3.6-1.1,7.3-2.3,11.8-3.8c3.4-1.2,6.8-2.4,10.2-3.6c2.3-0.8,4.7-1.7,7-2.6l4.9-2c41-16.2,83.6-39.6,116.8-64.1l2,1.8
				c-33.5,24.7-76.3,48.2-117.5,64.5l-5,2c-2.4,0.9-4.7,1.7-7.1,2.6c-3.4,1.3-6.8,2.5-10.3,3.7c-4.5,1.5-8.3,2.7-11.8,3.8
				c-4.4,1.4-8.6,2.6-12.5,3.8c-2.9,0.8-5.9,1.6-8.8,2.4c-140.6,37.2-278.8,8.8-370-21.5l-5.6-1.9l-0.3,0c-6.9-2.4-13.5-4.7-19.6-7
				c-6.5-2.4-12.8-4.8-18.7-7.2l-0.4-0.1c-6.1-2.4-12.2-5-18.8-7.8c-7.7-3.3-15.3-6.7-23.2-10.4c-13-6.1-21.6-10.7-24.8-12.4
				C565.6,120,476.6,174.8,364.6,181.8z"/>
			<path class="st7" d="M1021,283.2c0,0,4.2-46.6,9.1-43.9s23.5,43.6,21.3,43.8s-48.7-24.5-46.8-25s57.4-10.8,54.6-6.5
				S1020.5,288.3,1021,283.2z"/>
			<path class="st13" d="M1113.8,1526.2c0,0-50.2-28.8-36.6-41.9s28.2,10.2,28.2,10.2s2.3-27.2,21.4-19.1
				S1113.8,1526.2,1113.8,1526.2z"/>
			<path class="st13" d="M132.1,669.3c0,0-50.2-28.8-36.6-41.9s28.2,10.2,28.2,10.2s2.3-27.2,21.4-19.1S132.1,669.3,132.1,669.3z"/>
			<path class="st13" d="M177.6,1000.8c0,0-50.2-28.8-36.6-41.9s28.2,10.2,28.2,10.2s2.3-27.2,21.4-19.1S177.6,1000.8,177.6,1000.8z
				"/>
			<path class="st13" d="M891,1063.1c0,0-1.3-51.1,19.3-49.4s6.5,25.2,6.5,25.2s27.7-14.3,30.9,3.5S891,1063.1,891,1063.1z"/>
			<path class="st13" d="M1145.3,642.4c0,0-7.4-50.8,13.3-50.8s9.5,24.5,9.5,24.5s25.9-16.5,31.2,0.9S1145.3,642.4,1145.3,642.4z"/>
			<path class="st13" d="M360,1033.8c0-5.1,4.9-9.2,10.9-9.2s10.9,4.1,10.9,9.2s-4.9,9.2-10.9,9.2S360,1038.8,360,1033.8z"/>
			<path class="st18" d="M1096.4,1668.7c0-5.1,4.9-9.2,10.9-9.2s10.9,4.1,10.9,9.2s-4.9,9.2-10.9,9.2S1096.4,1673.8,1096.4,1668.7z"
				/>
			<path class="st14" d="M72.2,1677.3c3.6,2.8,4.3,7.9,1.5,11.5c-0.4,0.6-0.9,1.1-1.5,1.5c-4.5,3.6-10.9,3.6-15.5,0
				c-3.6-2.8-4.3-7.9-1.5-11.5c0.4-0.6,0.9-1.1,1.5-1.5C61.3,1673.7,67.7,1673.7,72.2,1677.3z"/>
			<path class="st14" d="M115.6,764.7c3.6,2.8,4.3,7.9,1.5,11.5c-0.4,0.6-0.9,1.1-1.5,1.5c-4.5,3.6-10.9,3.6-15.5,0
				c-3.6-2.8-4.3-7.9-1.5-11.5c0.4-0.6,0.9-1.1,1.5-1.5C104.6,761.1,111.1,761.1,115.6,764.7z"/>
			<path class="st14" d="M1182.5,279.2c3.4,2.8,3.9,7.7,1.1,11.1c-0.5,0.6-1.1,1.1-1.7,1.5c-4.7,3.3-11,3-15.3-0.6
				c-3.4-2.8-3.9-7.7-1.1-11.1c0.5-0.6,1-1.1,1.7-1.5C1171.9,275.2,1178.2,275.5,1182.5,279.2z"/>
			<path class="st18" d="M188.2,1079.3c3.6,2.8,4.3,7.9,1.5,11.5c-0.4,0.6-0.9,1.1-1.5,1.5c-4.5,3.6-10.9,3.6-15.5,0
				c-3.6-2.8-4.3-7.9-1.5-11.5c0.4-0.6,0.9-1.1,1.5-1.5C177.2,1075.7,183.7,1075.7,188.2,1079.3z"/>
			<path class="st18" d="M203.4,66.5c3.4,2.8,3.9,7.7,1.1,11.1c-0.5,0.6-1.1,1.1-1.7,1.5c-4.7,3.3-11,3-15.3-0.7
				c-3.4-2.8-3.9-7.7-1.1-11.1c0.5-0.6,1.1-1.1,1.7-1.5C192.8,62.6,199.1,62.8,203.4,66.5z"/>
			<path class="st14" d="M911,1231.2c3.6,2.8,4.3,7.9,1.5,11.5c-0.4,0.6-0.9,1.1-1.5,1.5c-4.5,3.6-10.9,3.6-15.5,0
				c-3.6-2.8-4.3-7.9-1.5-11.5c0.4-0.6,0.9-1.1,1.5-1.5C900.1,1227.6,906.5,1227.6,911,1231.2z"/>
			<path class="st14" d="M98.9,376.3c3.6,2.8,4.3,7.9,1.5,11.5c-0.4,0.6-0.9,1.1-1.5,1.5c-4.5,3.6-10.9,3.6-15.5,0
				c-3.6-2.8-4.3-7.9-1.5-11.5c0.4-0.6,0.9-1.1,1.5-1.5C88,372.7,94.4,372.7,98.9,376.3z"/>
			<path class="st18" d="M1128,774.7c0-5.1,4.9-9.2,10.9-9.2s10.9,4.1,10.9,9.2s-4.9,9.2-10.9,9.2S1128,779.7,1128,774.7z"/>
			<path class="st18" d="M807,260.5c0.2-4.9,5.2-8.7,11.2-8.5s10.6,4.5,10.4,9.4s-5.2,8.7-11.2,8.5S806.8,265.4,807,260.5z"/>
			<path class="st13" d="M306.4,1483.1c0-5.1,4.9-9.2,10.9-9.2s10.9,4.1,10.9,9.2s-4.9,9.2-10.9,9.2S306.4,1488.1,306.4,1483.1z"/>
			<path class="st13" d="M356,70.4c0.2-4.9,5.3-8.7,11.2-8.5s10.6,4.5,10.4,9.4s-5.2,8.7-11.2,8.5S355.7,75.3,356,70.4z"/>
			<path class="st13" d="M1018.9,1347c0-5.1,4.9-9.2,10.9-9.2c6,0,10.9,4.1,10.9,9.2s-4.9,9.2-10.9,9.2S1018.9,1352.1,1018.9,1347z"
				/>
			<path class="st19" d="M135.4,1405.1c0.3,17.9-21.7,30.9-25.6,48.5c-5.1,22.7,21.1,45.2,13.2,67.3c-4.3,12-17.6,20.1-25,31
				c-10,14.6-7.8,34.4,5.1,47.3"/>
			<path class="st14" d="M249.1,1290.2c-0.1,1-0.3,2.1-0.5,3.1c-2.1,11.7-5.8,23-10.9,33.7c-2.5,5.3-5.3,10.5-8.5,15.6
				c-6.4,10.3-14,19.7-22.7,28.2c-5.8,5.7-12.1,10.9-18.8,15.5l-0.1,0.1c-15.1,10.3-29.6,15.1-43.3,15.6c1.8,6.2,2.1,13.7,2.7,17.2
				c0.5,3-26.9-0.7-29.2-1.7c0.5-4,3.2-11.7,6.9-17.6c-8.7-2.3-17-6.2-24.3-11.4c-2.4-1.6-4.7-3.4-6.9-5.3
				c-5.7-4.8-10.8-10.1-15.4-15.9c-7.1-8.9-12.9-18.8-17.3-29.3c-2.1-4.8-3.8-9.8-5.2-14.8c-2.8-9.5-4-19.4-3.5-29.3
				c0.1-1.4,0.2-2.8,0.4-4.2c0.5-4.6,1.2-9.1,2.3-13.6c2.7-12.2,7.8-23.8,15-34c3.2-4.5,6.9-8.6,10.9-12.4c3.5-3.3,7.3-6.3,11.3-9
				c23.6-15.8,57.2-22.8,87.8-17.4c0.4,0.1,0.9,0.1,1.3,0.2c20.3,3.8,39.7,13.9,52.2,27.6c3.7,3.9,6.8,8.3,9.3,13
				c0.1,0.2,0.2,0.3,0.3,0.5c5.3,10.5,7.8,22.2,7.4,33.9C250,1282.4,249.7,1286.3,249.1,1290.2z"/>
			<path class="st13" d="M242.8,1244.6c-4.6,0.6-9.1,1.1-13.7,1.5c-24.1,2.4-48.4,3.4-72.6,3c-25.2-0.2-50.5-2.1-75.5-5.5l-11.2-1.6
				c3.2-4.5,6.9-8.6,10.9-12.4c1.3,0.2,2.6,0.3,3.9,0.5c23.3,2.6,46.7,4.4,70.1,4.7c24.4,0.3,48.8-0.7,73.1-3.1
				c1.8-0.2,3.6-0.4,5.4-0.6c3.7,3.9,6.8,8.3,9.3,13C242.7,1244.2,242.7,1244.4,242.8,1244.6z"/>
			<path class="st13" d="M249.1,1290.2c-0.1,1-0.3,2.1-0.5,3.1c-7.4,1-14.9,1.9-22.4,2.7c-24.1,2.4-48.4,3.4-72.6,3
				c-25.3-0.2-50.5-2.1-75.5-5.5c-8.3-1.2-17-2.4-25.6-3.9c0.5-4.6,1.2-9.1,2.3-13.6c8.9,1.5,17.9,3,27,4
				c23.3,2.6,46.7,4.4,70.2,4.7c24.4,0.3,48.8-0.7,73.1-3.1c8.4-0.8,16.9-1.8,25.2-3C250.1,1282.4,249.7,1286.3,249.1,1290.2z"/>
			<path class="st13" d="M237.7,1327c-2.5,5.3-5.3,10.5-8.5,15.6c-1.3,0.1-2.5,0.3-3.7,0.4c-24.1,2.4-48.4,3.4-72.6,3
				c-25.3-0.2-50.5-2.1-75.5-5.5c-5.4-0.8-11-1.6-16.6-2.4c-2.1-4.8-3.8-9.8-5.2-14.8c8.4,1.4,16.9,2.8,25.5,3.7
				c23.3,2.6,46.7,4.4,70.1,4.7c24.4,0.3,48.8-0.7,73.1-3.1C228.8,1328.1,233.2,1327.5,237.7,1327z"/>
			<path class="st13" d="M206.5,1370.8c-5.8,5.7-12.1,10.9-18.8,15.5l-0.1,0.1c-11.5,0.4-23,0.6-34.6,0.4
				c-19.9-0.3-39.8-1.3-59.5-3.5c-5.7-4.8-10.8-10.1-15.4-15.9c1,0.1,2.1,0.3,3.1,0.4c23.3,2.6,46.7,4.4,70.1,4.7
				C169.8,1372.7,188.2,1372.1,206.5,1370.8z"/>
			<path class="st20" d="M1136,1111.6c-0.3,20.2,24.4,34.8,28.8,54.6c5.7,25.6-23.8,50.9-14.8,75.8c4.8,13.5,19.8,22.6,28.2,34.9
				c11.3,16.5,8.8,38.8-5.8,53.3"/>
			<path class="st14" d="M1007.8,982.1c0.2,1.2,0.4,2.3,0.6,3.5c2.4,13.2,6.6,25.9,12.3,38c2.8,6,6,11.9,9.5,17.5
				c7.2,11.6,15.8,22.2,25.6,31.8c6.5,6.4,13.6,12.3,21.2,17.4c0,0,0.1,0.1,0.1,0.1c17,11.6,33.4,17,48.7,17.6c-2,7-2.3,15.4-3,19.4
				c-0.6,3.3,30.3-0.8,32.9-1.9c-0.6-4.5-3.6-13.2-7.8-19.8c9.8-2.6,19.1-7,27.4-12.8c2.7-1.8,5.3-3.8,7.8-5.9
				c6.4-5.4,12.2-11.4,17.3-17.9c8-10.1,14.5-21.2,19.5-33c2.3-5.4,4.3-11,5.9-16.7c3.1-10.7,4.5-21.9,3.9-33.1
				c-0.1-1.6-0.3-3.2-0.4-4.8c-0.5-5.2-1.3-10.3-2.5-15.4c-3-13.8-8.8-26.8-17-38.3c-3.6-5-7.8-9.7-12.3-13.9
				c-4-3.7-8.2-7.1-12.7-10.1c-26.6-17.8-64.4-25.7-98.9-19.6c-0.5,0.1-1,0.2-1.4,0.3c-22.9,4.3-44.7,15.7-58.8,31.1
				c-4.1,4.4-7.6,9.3-10.4,14.7c-0.1,0.2-0.2,0.4-0.3,0.6c-5.9,11.8-8.8,25-8.3,38.2C1006.7,973.4,1007.1,977.8,1007.8,982.1z"/>
			<path class="st13" d="M1015,930.7c5.2,0.6,10.3,1.2,15.4,1.7c27.2,2.7,54.5,3.8,81.8,3.4c28.4-0.3,56.8-2.3,85-6.2l12.6-1.8
				c-3.6-5-7.8-9.7-12.3-13.9c-1.5,0.2-2.9,0.4-4.4,0.5c-26.2,2.9-52.6,4.9-79,5.3c-27.5,0.4-55-0.8-82.3-3.5
				c-2-0.2-4.1-0.4-6.1-0.7c-4.1,4.4-7.6,9.3-10.4,14.7C1015.2,930.3,1015.1,930.5,1015,930.7z"/>
			<path class="st13" d="M1007.8,982.1c0.2,1.2,0.4,2.3,0.6,3.5c8.4,1.2,16.8,2.2,25.3,3c27.2,2.7,54.5,3.8,81.8,3.4
				c28.4-0.3,56.8-2.3,85-6.2c9.4-1.4,19.1-2.7,28.8-4.4c-0.5-5.2-1.3-10.3-2.5-15.4c-10.1,1.7-20.2,3.3-30.4,4.5
				c-26.2,2.9-52.6,4.9-79,5.3c-27.5,0.4-55-0.8-82.3-3.5c-9.5-0.9-19-2.1-28.4-3.4C1006.8,973.3,1007.2,977.7,1007.8,982.1z"/>
			<path class="st13" d="M1020.7,1023.6c2.8,6,6,11.9,9.5,17.5c1.4,0.2,2.8,0.3,4.2,0.4c27.2,2.7,54.5,3.8,81.8,3.4
				c28.4-0.3,56.8-2.3,85-6.2c6.1-0.9,12.4-1.8,18.7-2.8c2.3-5.4,4.3-11,5.9-16.7c-9.5,1.6-19.1,3.1-28.7,4.2
				c-26.2,2.9-52.6,4.9-79,5.3c-27.5,0.4-55-0.8-82.3-3.5C1030.8,1024.7,1025.8,1024.2,1020.7,1023.6z"/>
			<path class="st13" d="M1055.8,1072.9c6.5,6.4,13.6,12.3,21.2,17.4c0,0,0.1,0.1,0.1,0.1c13,0.5,26,0.6,39,0.5
				c22.4-0.3,44.8-1.5,67.1-4c6.4-5.4,12.2-11.4,17.3-17.9c-1.2,0.2-2.3,0.3-3.5,0.4c-26.2,2.9-52.6,4.9-79,5.3
				C1097.2,1075,1076.5,1074.3,1055.8,1072.9z"/>
		</g>
	</g>
	<path class="st21" d="M645.8,1749.5c110.5-0.7,440.6-12.1,441.9,2.6s-30.1,53.3-30.1,53.3s36,47.9,25.5,51.9s-881.3,9.4-887.8,0.1
		s32.7-52.8,32.7-52.8s-39.3-62.2-26.9-62S534.6,1750.1,645.8,1749.5z"/>
	<path class="st21" d="M519.5,1869.9c-331.6,0-334.7-4.4-335.7-5.9c-6.8-9.8,30.5-54.6,37.4-62.6c-8.6-11.4-43.9-58.5-40-66.8
		c0.5-1.1,1.6-1.7,2.8-1.6c12.8,0.2,35.8,1.6,36,1.6c1.9,0,201.6-1.6,408.1-1.6c472.2,0,472.9,7.7,473.1,11
		c1.3,14.6-26.4,50-30.8,55.6c5.5,7.9,35.6,51.5,32.4,62.3c-0.3,1.2-1.2,2.1-2.3,2.6C1093.4,1867.1,756.5,1869.9,519.5,1869.9z
		 M185.5,1862.5c6.6,3.2,128.2,5,333.9,5c257.9,0,572.4-2.9,580.3-5.3c0.4-0.2,0.8-0.5,0.9-1c2.5-8.5-22.7-46.9-32.6-60.9l-0.5-0.7
		l0.6-0.7c0.3-0.4,31.8-39.5,30.9-54.3c-4.9-3.4-73.7-9.1-470.9-9.1c-206.5,0-406.2,1.6-408.2,1.6c-0.3,0-23.2-1.4-35.9-1.6l0,0
		c-0.6,0-0.7,0.2-0.8,0.3c-2.6,5.5,23.3,42.8,40.3,65l0.6,0.8l-0.6,0.7C206.5,1822,181.4,1855.7,185.5,1862.5L185.5,1862.5z"/>
</g>
</svg>
