<svg xmlns="http://www.w3.org/2000/svg" viewBox="0 0 1200 1199.89"><defs><style>.cls-1{fill:#fff;}.cls-2{fill:#2857a5;}</style></defs><title>kumnit-tech</title><g id="Layer_2" data-name="Layer 2"><g id="Layer_1-2" data-name="Layer 1"><path class="cls-1" d="M1200,612.21c-5.48,282.78-211.27,530.64-500.36,579.27-285.88,48.1-558.52-114.54-659-374.84Z"/><path class="cls-2" d="M1199.88,612.32,40.5,816.75A601.79,601.79,0,0,1,8.41,699.52C-46.56,372.8,173.74,63.38,500.46,8.41s636.17,165.33,691.13,492.07A601,601,0,0,1,1199.88,612.32Z"/><path class="cls-1" d="M354.67,494.91c-44.73,7.52-66,29.74-75.74,46.54-10.2,17.67-15.74,40.38-11.85,63.5,8.18,48.61,34.89,77.21,71.7,75.88,0,0-2-11.47,2.8-27.31a43.18,43.18,0,0,1,15.61-22.38c9.09-6.71,15.79-8.54,15.79-8.54-7.46-7.1-19.52-9.39-35.05-6.78-8.8,1.49-17.83,6.33-21.43,9.32-4.5-18.54-4-38.83,2.84-55.67s20.77-30,42.21-33.63,38.83,4.25,50.9,18c28.44,32.34,29.32,94.75-2.1,115.6l10.79-1.81c41.73-7,61.18-44.64,52.31-97.36-3.89-23.12-16.56-42.77-32-56.13C426.81,501.4,399.4,487.38,354.67,494.91Z"/><path class="cls-1" d="M339.13,402.53a55.75,55.75,0,1,0-64.23-45.72A55.74,55.74,0,0,0,339.13,402.53Zm-12.36-73.45a18.73,18.73,0,1,1-15.37,21.58A18.73,18.73,0,0,1,326.77,329.08Z"/><path class="cls-1" d="M679.16,499.84c-18.35-8.85-41-12.82-64.48-15.18-24.3-2.45-37.61-3-49.19-4.76-22.51-3.47-29.79-11.43-30.75-17.14-3.38-20.07,22.15-34.37,49.17-38.92,18.61-3.13,38.57-3.78,57.91,4.22,0,0-11.64,5.4-7.21,23.47,4.46,18.24,33.15,24.11,48.78,9.91,16.78-15.24,13.13-36.18,13.13-36.18S657.66,368.93,583,381.49c-29.6,5-51.68,18.95-66.72,34.74-15.59,16.39-23.77,38.21-17.1,61.83,6.15,21.75,33.73,30.67,71.46,33.15,39.75,2.63,67,4.17,83.46,10.29,15.3,5.66,24.48,15.56,26.94,23.31,2,6.43.87,14.34-5.07,21.17-4.7,5.42-9.22,9.07-18.61,10.66-4.46.75-9.21-.4-13.92-2.71-7.64-3.74-15.17-10.62-21.24-17.91-.13-.17-.27-.33-.4-.49q-1.73-2.1-3.27-4.2c-.06-.09-.11-.17-.18-.26-.9-1.24-1.74-2.48-2.53-3.7l-.63-1c-.81-1.29-1.57-2.56-2.24-3.77v0h0c-.48,1.58-1,3.22-1.6,4.87l-.38,1c-1.22,3.39-2.63,6.85-4.23,10.27l-.36.77a96.44,96.44,0,0,1-5.59,10.22l-.21.34a62.27,62.27,0,0,1-6.85,9l-.11.12a40.09,40.09,0,0,1-3.84,3.59h0A23.23,23.23,0,0,1,579.2,588a21.13,21.13,0,0,1-13.28-1.93h0a23.4,23.4,0,0,1-2.63-1.57l-.37-.26a22.16,22.16,0,0,1-2.39-1.93l0,0a38.28,38.28,0,0,1-4.6-5.21c-8.38-11.29-13.11-28.67-10.5-41.87a28,28,0,0,1,2.42-7.31h0c-2.38,2-4.57,4-6.65,6-.38.37-.78.73-1.15,1.1q-2.88,2.87-5.39,5.74c-.39.45-.75.9-1.13,1.34-1.57,1.88-3.06,3.76-4.39,5.64-.27.37-.5.74-.75,1.11-1.12,1.63-2.14,3.25-3.1,4.88-.37.64-.75,1.28-1.11,1.92q-1.36,2.5-2.49,5c-.38.84-.72,1.67-1.06,2.51-.45,1.11-.85,2.21-1.23,3.32-.49,1.45-.93,2.89-1.31,4.33-.19.73-.38,1.45-.54,2.17a57.71,57.71,0,0,0-1.43,10.88v0a56.17,56.17,0,0,0,.24,7.48,0,0,0,0,0,0,0h0a56.68,56.68,0,0,0,16.26,34.35,53.5,53.5,0,0,0,46.79,15.39c38.32-6.45,41.27-53.7,41.27-53.7s17.61,43,65.69,35c26.74-4.5,41-36.88,36.36-64.26C717.28,525.84,708.5,514,679.16,499.84Z"/><path class="cls-1" d="M548.1,254.35c-59,11.38-97.82,68-69.22,117.82C579.53,332.78,697.5,367,697.5,367s-.73-52.51-49.28-89C614.64,252.82,578.07,248.55,548.1,254.35Zm44,69.91c-29.5-.66-64.24,2.7-84.57,8.25,4.26-23.57,19.66-37.95,40.61-42.14,20.78-4.16,43.71-2.88,62.87,6.93,14.72,7.54,26,18.77,34.84,32.3A359.36,359.36,0,0,0,592.08,324.26Z"/><path class="cls-1" d="M237.79,441.52c5.55,33,57,51.84,115,42.09s100.43-44.4,94.88-77.39L342.72,423.87Z"/><path class="cls-1" d="M839.42,401.74c58-9.75,100.43-44.4,94.88-77.39L829.37,342,724.44,359.65C730,392.64,781.47,411.49,839.42,401.74Z"/><path class="cls-1" d="M841.32,413c-44.73,7.52-66,29.74-75.74,46.54-10.2,17.67-15.74,40.39-11.85,63.51C762.6,575.81,793.29,605,835,598a84.67,84.67,0,0,0,9.65-2.16,45.43,45.43,0,1,0-44.44-76.9A83.46,83.46,0,0,1,806,487.6c6.91-16.91,20.76-30,42.2-33.63s38.83,4.25,50.9,18c28.44,32.34,29.33,94.74-2.1,115.6l10.8-1.81c41.73-7,61.17-44.64,52.3-97.36-3.89-23.12-16.55-42.77-32-56.13C913.46,419.53,886.05,405.51,841.32,413ZM826.17,534.12A19,19,0,1,1,810.6,556,19,19,0,0,1,826.17,534.12Z"/><path class="cls-2" d="M395.69,836.92l-36.83,6.49-4.44-25.16,102.11-18L461,825.41l-36.83,6.49,18.33,103.93-28.44,5Z"/><path class="cls-2" d="M472,797.52l87.7-15.47,4.63,26.26L505.1,818.76l4.24,24.06,56-9.87,4.63,26.26-56,9.87,4.63,26.25,62.54-11,4.62,26.25-91,16Z"/><path class="cls-2" d="M676.12,796.12a28.23,28.23,0,0,0-11.68-6,34.77,34.77,0,0,0-14.61-.25,35.88,35.88,0,0,0-24.64,16.47,41,41,0,0,0-5.51,14.6,48.39,48.39,0,0,0,.1,17.09,47.9,47.9,0,0,0,5.77,16.19A42.17,42.17,0,0,0,635.61,866a35.72,35.72,0,0,0,13.11,6.62,34.06,34.06,0,0,0,14.86.57,32.53,32.53,0,0,0,14.85-6.38,31.22,31.22,0,0,0,9.32-12.17l26.82,13.51a50.18,50.18,0,0,1-17.79,20.62,65.4,65.4,0,0,1-24.93,10,80.94,80.94,0,0,1-28.73.17,64.87,64.87,0,0,1-24.46-9.69,62.53,62.53,0,0,1-18.27-18.87,79.6,79.6,0,0,1-9.9-56.15,62.45,62.45,0,0,1,10.72-24,65,65,0,0,1,19.66-17.48,80.76,80.76,0,0,1,27.06-9.65,68.94,68.94,0,0,1,11.58-1,62.7,62.7,0,0,1,12.23,1.13,53.3,53.3,0,0,1,12.06,3.89,44.7,44.7,0,0,1,11.05,7.26Z"/><path class="cls-2" d="M710.68,755.43l28.45-5,8.48,48.13,55.25-9.74-8.49-48.13,28.44-5,22.77,129.09-28.45,5L807.3,814l-55.25,9.74,9.84,55.8-28.44,5Z"/></g></g></svg>