<?xml version="1.0" encoding="utf-8"?>
<!-- Generator: Adobe Illustrator 24.0.2, SVG Export Plug-In . SVG Version: 6.00 Build 0)  -->
<svg version="1.1" id="Layer_1" xmlns="http://www.w3.org/2000/svg" xmlns:xlink="http://www.w3.org/1999/xlink" x="0px" y="0px"
	 viewBox="0 0 1500 1200" style="enable-background:new 0 0 1500 1200;" xml:space="preserve">
<style type="text/css">
	.st0{fill:#33C3DB;}
	.st1{fill:#5DD7F4;}
	.st2{fill:#FFFFFF;}
	.st3{fill:none;}
	.st4{fill:#FFE363;}
	.st5{opacity:5.000000e-02;fill:#292929;enable-background:new    ;}
	.st6{fill:#34C8F4;}
	.st7{opacity:0.15;}
	.st8{opacity:5.000000e-02;enable-background:new    ;}
	.st9{fill:#FFC32A;}
	.st10{fill:#514E4F;}
	.st11{fill:#D9DAD8;}
	.st12{fill:#7F7F7F;}
	.st13{fill:#F38B89;}
	.st14{fill:#EF6162;}
</style>
<title>postcard-1</title>
<rect y="0" class="st0" width="1500" height="1200"/>
<path class="st1" d="M228,694.2c-14.1,0-14.1,21.9,0,21.9C242.1,716.1,242.1,694.2,228,694.2z"/>
<path class="st1" d="M551.9,847.4c-14.1,0-14.1,21.9,0,21.9C566,869.3,566,847.4,551.9,847.4z"/>
<path class="st1" d="M1000.6,637.3c-14.1,0-14.1,21.9,0,21.9C1014.7,659.2,1014.7,637.3,1000.6,637.3z"/>
<path class="st1" d="M1274.2,479.8c-14.1,0-14.1,21.9,0,21.9C1288.2,501.7,1288.3,479.8,1274.2,479.8z"/>
<path class="st1" d="M1125.3,845.3c-14.1,0-14.1,21.9,0,21.9C1139.4,867.1,1139.4,845.3,1125.3,845.3z"/>
<path class="st1" d="M648.2,700.3c-9.2,0-9.2,14.2,0,14.2S657.4,700.3,648.2,700.3z"/>
<path class="st1" d="M333.1,923.5c-9.2,0-9.2,14.2,0,14.2C342.2,937.7,342.2,923.5,333.1,923.5z"/>
<path class="st1" d="M635.1,1100.8c-9.2,0-9.2,14.2,0,14.2S644.3,1100.8,635.1,1100.8z"/>
<path class="st1" d="M1002.8,807.5c-9.2,0-9.2,14.2,0,14.2C1011.9,821.7,1011.9,807.5,1002.8,807.5z"/>
<path class="st1" d="M1287.3,1048.2c-9.2,0-9.2,14.2,0,14.2C1296.4,1062.5,1296.5,1048.2,1287.3,1048.2z"/>
<path class="st1" d="M783.9,927.3c-7,0-7.1,10.9,0,10.9C791,938.3,791,927.3,783.9,927.3z"/>
<path class="st1" d="M838.6,640.6c-7,0-7.1,10.9,0,10.9C845.7,651.6,845.7,640.6,838.6,640.6z"/>
<path class="st1" d="M99.6,540.9c-7,0-7.1,10.9,0,10.9C106.7,551.8,106.7,540.9,99.6,540.9z"/>
<path class="st1" d="M1410.9,419.1c-7,0-7.1,10.9,0,10.9S1418,419.1,1410.9,419.1z"/>
<path class="st1" d="M304.6,1084.9c-7,0-7.1,10.9,0,10.9C311.7,1095.9,311.7,1084.9,304.6,1084.9z"/>
<path class="st1" d="M1081.6,1069.6c-7,0-7.1,10.9,0,10.9C1088.6,1080.5,1088.6,1069.6,1081.6,1069.6z"/>
<path class="st1" d="M1346.4,726c-7,0-7.1,10.9,0,10.9C1353.4,736.9,1353.4,726,1346.4,726z"/>
<path class="st2" d="M749.6,85c-14.1,0-14.1,21.9,0,21.9C763.7,106.9,763.7,85,749.6,85z"/>
<path class="st1" d="M632.6,233.3c-9.2,0-9.2,14.2,0,14.2C641.7,247.5,641.8,233.3,632.6,233.3z"/>
<path class="st1" d="M320.5,132.2c-7,0-7.1,10.9,0,10.9C327.6,143.2,327.6,132.2,320.5,132.2z"/>
<path class="st1" d="M976.2,151.8c-7,0-7.1,10.9,0,10.9C983.2,162.7,983.2,151.8,976.2,151.8z"/>
<path class="st3" d="M1045.6,783.1c0,0,0.2-0.1,0.7-0.2c4.9-2.6,9.4-6.1,13.1-10.3c2.8-3.1,5.8-6.8,7-10.9c0.7-2.5,0.1-4.8-1-7
	c-1.5-1.5-3.4-2.6-5.7-3c-4-0.6-7.9,1.3-10,4.5c-1-3.7-4-6.7-8.1-7.3c-5.4-0.9-10.5,2.8-11.4,8.3
	C1028.1,771.9,1045.6,783.1,1045.6,783.1z"/>
<path class="st2" d="M447.3,454.7c-2-4-5.2-7.7-9.3-9.7c-4.4-2.1-9.4-1.9-14.1-1.4c-1.1,0.1-2.2,0.3-3.3,0.5c-1.8-3.6-4.5-6.6-8-8.7
	c-4.2-2.6-9.7-4.2-14.6-3.8c-1.8,0.1-3.6,0.5-5.4,1.1c-0.3-0.4-0.6-0.9-1-1.3c-2.2-2.9-4.7-5.4-7.7-7.3c-2.7-1.7-5.9-2.9-9-3.5
	c-12.9-2.1-27.3,4.7-33.4,16.4c-1.2,2.2-1.8,4.5-2.1,6.8c-1.2,0.4-2.4,0.8-3.5,1.3c-6.2,2.8-12,7.6-15.3,13.6
	c-3.6,6.4-3.4,14.4,0.2,20.7c3.4,6,10.4,10.1,17,11.6c3.8,0.9,7.9,1.3,11.8,0.8c1.7-0.2,3.4-0.5,5-1c2.9,1.4,6,2.4,9.1,3.4
	c2.2,0.7,4.6,0.8,6.9,1c2.5,0.2,4.9,0.1,7.3-0.4c5.3-1,9.9-3.6,13.8-7.3c0.5-0.4,0.9-0.9,1.4-1.4c0.4,0.2,0.7,0.3,1.1,0.5
	c3.9,1.6,8.3,2.2,12.4,2.7c8.7,1.1,17.2-0.1,25.2-3.7c3.9-1.8,7.6-3.9,10.5-7.2c2.5-2.8,4.2-6.2,5.5-9.7
	C449.3,463.8,449.6,459.2,447.3,454.7z"/>
<path class="st4" d="M797.4,412.9c-0.5-0.7-1.3-1.1-2.2-1l-16.3,2.1l-11-12.2c-0.6-0.6-1.5-0.9-2.3-0.7c-0.8,0.2-1.5,0.9-1.6,1.8
	l-3,16.2l-15,6.7c-0.8,0.3-1.3,1.1-1.3,2s0.4,1.7,1.2,2.1l14.4,7.9l1.7,16.3c0.1,0.9,0.7,1.6,1.5,1.9c0.2,0.1,0.5,0.1,0.7,0.1
	c0.6,0,1.2-0.2,1.6-0.6l11.9-11.3l16.1,3.4c0.8,0.2,1.7-0.1,2.2-0.8c0.5-0.7,0.6-1.6,0.3-2.4l-7-14.8l8.2-14.2
	C797.9,414.5,797.9,413.6,797.4,412.9z"/>
<path class="st3" d="M795.7,447c0.1-0.1,0.2-0.2,0.3-0.3c0.2-0.3,0.4-0.7,0.5-1C796.3,446.2,796,446.6,795.7,447z"/>
<path class="st3" d="M775,444.3c1.6-0.8,3.3-0.7,5.1-0.6c1.9,0.1,3.7,0.1,5.6,0c1.6-0.1,3.2-0.2,4.9-0.4c0.1,0,0.1,0,0.2,0
	c-0.1-0.5-0.3-1-0.4-1.3c-1.2-3.1-2.7-6-4.5-8.8c-1.9-3.1-1.2-5.3,1-8c2.8-3.4,8.8-8.2,8.5-13.3c-0.1,0-0.1,0-0.2,0l-16.3,2.1
	l-11-12.2c-0.6-0.6-1.5-0.9-2.3-0.7c-0.8,0.2-1.5,0.9-1.6,1.8l-3,16.2l-15,6.7c-0.8,0.3-1.3,1.1-1.3,2s0.4,1.7,1.2,2.1l14.4,7.9
	l1.7,16.3c0.1,0.9,0.7,1.6,1.5,1.9h0.1c1.5-1.7,3-3.3,4.5-5C770.1,448.6,772.2,445.7,775,444.3z"/>
<path class="st5" d="M796.3,444.3l-7-14.8l8.2-14.2c0.4-0.7,0.4-1.7-0.1-2.4c-0.4-0.7-1.2-1.1-2-1c0.3,5.1-5.7,9.8-8.5,13.3
	c-2.2,2.7-2.9,4.9-1,8c1.7,2.8,3.3,5.7,4.5,8.8c0.1,0.3,0.2,0.8,0.4,1.3c-0.1,0-0.1,0-0.2,0c-1.6,0.2-3.2,0.3-4.9,0.4
	c-1.9,0.1-3.7,0.1-5.6,0c-1.8-0.1-3.4-0.2-5.1,0.6c-2.8,1.4-5,4.3-7,6.6c-1.5,1.6-3,3.3-4.5,5c0.2,0.1,0.4,0.1,0.6,0.1
	c0.6,0,1.2-0.2,1.6-0.6l11.9-11.3l16.1,3.4c0.7,0.2,1.4,0,1.9-0.5c0.4-0.4,0.6-0.8,0.8-1.4C796.5,445.2,796.5,444.7,796.3,444.3z"/>
<path class="st4" d="M542.7,550.8c-0.1-0.6-0.4-1.1-1-1.4l-10.9-4.2l-2.7-11.4c-0.1-0.6-0.6-1.1-1.2-1.2c-0.6-0.1-1.2,0.1-1.6,0.5
	l-7.4,9l-11.6-1c-0.6-0.1-1.2,0.3-1.5,0.8s-0.3,1.2,0,1.7l6.3,9.8l-4.5,10.8c-0.2,0.6-0.1,1.2,0.3,1.7c0.1,0.1,0.3,0.3,0.4,0.3
	c0.4,0.2,0.8,0.3,1.2,0.2l11.3-3l8.9,7.6c0.5,0.4,1.1,0.5,1.7,0.3c0.6-0.2,0.9-0.8,1-1.4l0.7-11.7l10-6.1
	C542.4,552,542.7,551.4,542.7,550.8z"/>
<path class="st3" d="M530,571.5c0.1,0,0.2,0,0.3-0.1c0.3-0.1,0.5-0.3,0.6-0.5C530.6,571.2,530.3,571.4,530,571.5z"/>
<path class="st3" d="M518,562.8c1.3,0.1,2.3,0.7,3.4,1.4c1.1,0.7,2.3,1.3,3.5,1.9c1,0.5,2.1,1,3.2,1.4h0.1c0.1-0.3,0.2-0.7,0.2-0.9
	c0.3-2.3,0.3-4.7,0.2-7c-0.1-2.6,1-3.7,3.4-4.7c2.9-1.2,8.3-2.1,9.8-5.4c0,0-0.1,0-0.1-0.1l-10.9-4.2l-2.7-11.4
	c-0.1-0.6-0.6-1.1-1.2-1.2c-0.6-0.1-1.2,0.1-1.6,0.5l-7.4,9l-11.6-1c-0.6-0.1-1.2,0.3-1.5,0.8s-0.3,1.2,0,1.7l6.3,9.8l-4.5,10.8
	c-0.2,0.6-0.1,1.2,0.3,1.7c0,0,0,0,0.1,0.1c1.5-0.5,3-1.1,4.5-1.6C513.4,563.8,515.8,562.7,518,562.8z"/>
<path class="st5" d="M531.2,570l0.7-11.7l10-6.1c0.5-0.3,0.8-0.9,0.8-1.5c-0.1-0.6-0.4-1.1-0.9-1.3c-1.5,3.3-6.9,4.2-9.8,5.4
	c-2.3,0.9-3.5,2.1-3.4,4.7c0.1,2.3,0.1,4.7-0.2,7c0,0.2-0.1,0.6-0.2,0.9h-0.1c-1.1-0.4-2.1-0.9-3.2-1.4c-1.2-0.6-2.4-1.2-3.5-1.9
	c-1.1-0.6-2.1-1.3-3.4-1.4c-2.2-0.1-4.6,1-6.6,1.7c-1.5,0.5-3,1-4.5,1.6c0.1,0.1,0.2,0.2,0.4,0.3c0.4,0.2,0.8,0.3,1.2,0.2l11.3-3
	l8.9,7.6c0.4,0.3,0.9,0.5,1.4,0.4c0.4-0.1,0.7-0.3,0.9-0.6C531.1,570.7,531.2,570.4,531.2,570z"/>
<path class="st2" d="M1211.6,516.4c-2-4-5.2-7.7-9.3-9.7c-4.4-2.1-9.4-1.9-14.1-1.4c-1.1,0.1-2.2,0.3-3.3,0.5
	c-1.8-3.6-4.5-6.6-8-8.7c-4.2-2.6-9.7-4.2-14.6-3.8c-1.8,0.1-3.6,0.5-5.4,1.1c-0.3-0.4-0.6-0.9-1-1.3c-2.2-2.9-4.7-5.4-7.7-7.3
	c-2.7-1.7-5.9-2.9-9-3.5c-12.9-2.1-27.3,4.7-33.4,16.4c-1.2,2.2-1.8,4.5-2.1,6.8c-1.2,0.4-2.4,0.8-3.5,1.3
	c-6.2,2.8-12,7.6-15.3,13.6c-3.6,6.4-3.4,14.4,0.2,20.7c3.4,6,10.4,10.1,17,11.6c3.8,0.9,7.9,1.3,11.8,0.8c1.7-0.2,3.4-0.5,5-1
	c2.9,1.4,6,2.4,9.1,3.4c2.2,0.7,4.6,0.8,6.9,1c2.5,0.2,4.9,0.1,7.3-0.4c5.3-1,9.9-3.7,13.8-7.3c0.5-0.4,0.9-0.9,1.4-1.4
	c0.4,0.2,0.7,0.3,1.1,0.5c3.9,1.6,8.3,2.2,12.4,2.7c8.7,1.1,17.2-0.1,25.2-3.7c3.9-1.8,7.6-3.9,10.5-7.2c2.5-2.8,4.2-6.2,5.5-9.7
	C1213.5,525.5,1213.8,520.9,1211.6,516.4z"/>
<path class="st3" d="M294.7,648.7c0,0,0.1-0.1,0.3-0.4c1.6-3.5,2.7-7.3,3-11.2c0.3-2.9,0.4-6.2-0.6-9c-0.6-1.7-1.9-2.7-3.4-3.5
	c-1.5-0.3-3,0-4.4,0.7c-2.5,1.3-3.9,4-3.7,6.7c-2.1-1.7-5-2-7.6-0.7c-3.4,1.8-4.7,6-2.9,9.3C280.3,649.7,294.7,648.7,294.7,648.7z"
	/>
<path class="st3" d="M830,727.7c0,0,0.2,0,0.5-0.1c3.6-1.5,7-3.5,9.8-6.1c2.2-1.9,4.5-4.3,5.7-7c0.7-1.7,0.4-3.3-0.1-4.9
	c-0.9-1.2-2.2-2.1-3.7-2.5c-2.7-0.7-5.5,0.3-7.2,2.4c-0.4-2.6-2.3-4.9-5-5.7c-3.7-1-7.5,1.2-8.5,4.9
	C818.7,718.7,830,727.7,830,727.7z"/>
<path class="st4" d="M189.3,498.4c-0.3-0.5-0.9-0.8-1.6-0.7l-11.6,1.6l-7.9-8.6c-0.4-0.5-1-0.6-1.6-0.5c-0.6,0.2-1,0.7-1.1,1.3
	l-2,11.5l-10.6,4.8c-0.6,0.3-0.9,0.8-0.9,1.4s0.3,1.2,0.9,1.5l10.3,5.5l1.3,11.6c0.1,0.6,0.5,1.1,1.1,1.3c0.2,0.1,0.4,0.1,0.5,0.1
	c0.4,0,0.8-0.2,1.1-0.5l8.4-8.1L187,523c0.6,0.1,1.2-0.1,1.6-0.6c0.4-0.5,0.4-1.1,0.2-1.7l-5.1-10.5l5.8-10.2
	C189.7,499.5,189.7,498.9,189.3,498.4z"/>
<path class="st3" d="M188.4,522.7c0.1-0.1,0.2-0.1,0.2-0.2c0.2-0.2,0.3-0.5,0.3-0.7C188.8,522.1,188.6,522.4,188.4,522.7z"/>
<path class="st3" d="M173.6,520.9c1.2-0.6,2.4-0.5,3.6-0.5c1.3,0,2.7,0,4,0c1.2-0.1,2.3-0.2,3.5-0.3h0.1c-0.1-0.3-0.2-0.7-0.3-0.9
	c-0.9-2.2-2-4.3-3.2-6.2c-1.4-2.2-0.9-3.8,0.6-5.7c1.9-2.4,6.2-5.9,5.9-9.5h-0.1l-11.6,1.6l-7.9-8.6c-0.4-0.5-1-0.6-1.6-0.5
	c-0.6,0.2-1,0.7-1.1,1.3l-2,11.5l-10.6,4.8c-0.6,0.3-0.9,0.8-0.9,1.4s0.3,1.2,0.9,1.5l10.3,5.5l1.3,11.6c0.1,0.6,0.5,1.1,1.1,1.3
	h0.1c1-1.2,2.1-2.4,3.1-3.6C170.1,524,171.7,521.9,173.6,520.9z"/>
<path class="st5" d="M188.8,520.8l-5.1-10.5l5.8-10.2c0.3-0.5,0.3-1.2-0.1-1.7c-0.3-0.5-0.9-0.7-1.4-0.7c0.3,3.6-4,7-5.9,9.5
	c-1.5,2-2,3.5-0.6,5.7c1.2,2,2.4,4.1,3.2,6.2c0.1,0.2,0.2,0.6,0.3,0.9h-0.1c-1.1,0.2-2.3,0.3-3.5,0.3c-1.3,0.1-2.7,0.1-4,0
	c-1.2,0-2.5-0.1-3.6,0.5c-2,1-3.5,3.1-5,4.7c-1.1,1.2-2.1,2.4-3.1,3.6c0.1,0,0.3,0.1,0.4,0.1c0.4,0,0.8-0.2,1.1-0.5l8.4-8.1L187,523
	c0.5,0.1,1,0,1.4-0.4c0.2-0.3,0.4-0.6,0.5-1C188.9,521.4,188.9,521.1,188.8,520.8z"/>
<path class="st4" d="M1303.9,556.9c0.1-0.6-0.1-1.2-0.6-1.6l-9.3-7l0.5-11.7c0-0.6-0.3-1.2-0.8-1.5s-1.2-0.3-1.7,0.1l-9.6,6.7
	l-10.9-4.1c-0.6-0.2-1.2-0.1-1.7,0.3c-0.4,0.4-0.6,1.1-0.4,1.6l3.4,11.2l-7.3,9.1c-0.4,0.5-0.5,1.1-0.2,1.7c0.1,0.2,0.2,0.3,0.3,0.4
	c0.3,0.3,0.7,0.5,1.1,0.5l11.7,0.2l6.5,9.7c0.3,0.5,0.9,0.8,1.5,0.7s1.1-0.5,1.3-1.1l3.8-11l11.3-3.1
	C1303.4,558,1303.8,557.5,1303.9,556.9z"/>
<path class="st3" d="M1286.1,573.4c0.1,0,0.2,0,0.3,0c0.3,0,0.5-0.1,0.7-0.3C1286.8,573.2,1286.4,573.3,1286.1,573.4z"/>
<path class="st3" d="M1276.9,561.7c1.2,0.4,2,1.3,2.9,2.2c0.9,1,1.9,1.9,2.8,2.8c0.9,0.8,1.8,1.5,2.7,2.2l0.1,0.1
	c0.2-0.3,0.4-0.6,0.5-0.8c0.9-2.2,1.6-4.4,2.1-6.7c0.6-2.5,2-3.3,4.5-3.6c3.1-0.4,8.6,0.2,10.9-2.5l-0.1-0.1l-9.3-7l0.5-11.7
	c0-0.6-0.3-1.2-0.8-1.5s-1.2-0.3-1.7,0.1l-9.6,6.7l-10.9-4.1c-0.6-0.2-1.2-0.1-1.7,0.3c-0.4,0.4-0.6,1.1-0.4,1.6l3.4,11.2l-7.3,9.1
	c-0.4,0.5-0.5,1.1-0.2,1.7c0,0,0,0,0,0.1c1.6-0.1,3.2-0.2,4.8-0.3C1272.2,561.4,1274.8,561,1276.9,561.7z"/>
<path class="st5" d="M1287.7,572.3l3.8-11l11.3-3.1c0.6-0.2,1-0.6,1.2-1.2c0.1-0.6-0.1-1.1-0.5-1.5c-2.3,2.7-7.8,2.2-10.9,2.5
	c-2.5,0.3-3.9,1-4.5,3.6c-0.5,2.3-1.2,4.5-2.1,6.7c-0.1,0.2-0.3,0.5-0.5,0.8l-0.1-0.1c-0.9-0.7-1.8-1.4-2.7-2.2
	c-1-0.9-1.9-1.8-2.8-2.8c-0.9-0.9-1.7-1.8-2.9-2.2c-2.1-0.7-4.7-0.3-6.8-0.2c-1.6,0.1-3.2,0.2-4.8,0.3c0.1,0.1,0.2,0.3,0.3,0.4
	c0.3,0.3,0.7,0.5,1.1,0.5l11.7,0.2l6.5,9.7c0.3,0.4,0.7,0.7,1.2,0.7c0.4,0,0.7-0.1,1.1-0.3C1287.4,572.9,1287.6,572.6,1287.7,572.3z
	"/>
<path class="st6" d="M1191.9,112.3c-2.7-0.7-5.5,0.3-7.2,2.4c-0.4-2.6-2.3-4.9-5-5.7c-3.7-1-7.5,1.2-8.5,4.9
	c-2.7,10,8.6,19.1,8.6,19.1s14.4-2.6,17-12.1C1197.8,117.1,1195.6,113.3,1191.9,112.3z"/>
<path class="st3" d="M1179.8,132.9c0,0,0.2,0,0.5-0.1c3.6-1.5,7-3.5,9.8-6.1c2.2-1.9,4.5-4.3,5.7-7c0.7-1.7,0.4-3.3-0.1-4.9
	c-0.9-1.2-2.2-2.1-3.7-2.5c-2.7-0.7-5.5,0.3-7.2,2.4c-0.4-2.6-2.3-4.9-5-5.7c-3.7-1-7.5,1.2-8.5,4.9
	C1168.5,123.8,1179.8,132.9,1179.8,132.9z"/>
<path class="st5" d="M1195.8,119.7c-1.1,2.7-3.5,5.1-5.7,7c-2.9,2.6-6.2,4.7-9.8,6.1c2.5-0.5,14.2-3.5,16.5-12
	c0.6-2.2,0.1-4.3-1.2-6C1196.2,116.3,1196.5,118,1195.8,119.7z"/>
<path class="st6" d="M284.3,1.4v261c0,1.9,3,1.9,3,0V1.4C287.3-0.5,284.3-0.5,284.3,1.4z"/>
<path class="st6" d="M492.6,1.4v175.5c0,1.9,3,1.9,3,0V1.4C495.6-0.5,492.6-0.5,492.6,1.4z"/>
<path class="st6" d="M608.3,1.4v485c0,1.9,3,1.9,3,0V1.4C611.3-0.5,608.3-0.5,608.3,1.4z"/>
<path class="st6" d="M885,1.2v303.6c0,1.6,3,1.6,3,0V1.2C888-0.4,885-0.4,885,1.2z"/>
<path class="st6" d="M1065.8,1.4v156c0,1.9,3,1.9,3,0V1.4C1068.8-0.5,1065.8-0.5,1065.8,1.4z"/>
<path class="st6" d="M1237.6,1.4v339c0,1.9,3,1.9,3,0V1.4C1240.6-0.5,1237.6-0.5,1237.6,1.4z"/>
<path class="st6" d="M999.8,1.4v460.5c0,1.9,3,1.9,3,0V1.4C1002.8-0.5,999.8-0.5,999.8,1.4z"/>
<g>
	<g class="st7">
		<path d="M1298.8,348c-7,0-7.1,10.9,0,10.9S1305.9,348,1298.8,348z"/>
		<path d="M1279.3,284.6l-69.3,29.3c9,25.5,6,53.8-1.1,79.9c-2.1,7.5-4.5,14.9-4.9,22.6c-0.5,7.7,1.3,15.9,6.5,21.6
			c5.1,5.5,12.8,7.9,20.2,8.5c14.1,1.1,28.9-3.7,38.9-13.7c12.8-12.8,16.6-31.7,24.2-48.1c7-15.2,17.8-30.3,15.2-46.8
			C1305.7,317.6,1283.3,304.8,1279.3,284.6z"/>
		<path d="M1242.1,419.7c-7.8-3.7-16-5.8-24.5-6.4c-4.8-0.3-9.3,0.2-13.6,1.4c-0.1,0.6-0.1,1.1-0.1,1.7c-0.5,7.7,1.3,15.9,6.5,21.6
			c5.1,5.5,12.8,7.9,20.2,8.5c12,1,24.3-2.3,33.9-9.4C1258.4,429.8,1250.8,423.9,1242.1,419.7z"/>
		<path d="M1265.9,338c-0.1,9.5,5.4,18.2,11.2,25.3c5.5,6.6,11.6,12.4,18.4,17.5c6.9-13.9,15.8-27.9,13.4-43
			c-2.1-13.1-12.2-23-20.1-33.9c-2.6,2.7-5.1,5.5-7.6,8.2C1274.1,319.7,1266.1,326.9,1265.9,338z"/>
		<path class="st8" d="M1254.4,313.3c9.9-6,19-13.4,27-21.7c-1-2.2-1.7-4.6-2.2-7l-10.9,4.6c-5.5,5.1-11.5,9.7-17.8,13.7
			c-11.2,7.1-24.9,15-38.6,12.7c-0.5-0.1-1-0.1-1.4-0.1c1.2,3.6,2.2,7.3,2.9,11C1228.2,327.6,1242,320.9,1254.4,313.3z"/>
		<path d="M1275.6,274.5c-2.6,1.1-4.2,4.9-7,4.4c-1-0.2-1.8-1-2.8-1.4c-3.2-1.4-6.5,1.5-8.7,4.3s-4.9,6-8.4,5.3
			c-2.1-0.4-3.9-2.3-6.1-2.3c-4.5,0-5.3,7.3-9.6,8.6c-2,0.6-4.2-0.4-6.3-0.6c-4.1-0.4-8.4,2.4-9.6,6.4c-0.5,1.5-0.6,3.2-1.7,4.2
			c-3,2.9-9.1-1.8-11.8,1.3c-0.7,0.8-0.9,2-0.8,3.1c-0.9,3.9,0.8,7.9,4.1,10.2c4.3,3.1,9.8,3,14.7,1.8c6.8-1.8,13.2-5,19.3-8.7
			c2.7-1.2,5.3-2.4,8-3.6c6.3-2.9,12.6-5.9,18.9-8.8c4.1-1.9,8.3-3.9,11.5-7.2c3.2-3.3,5.1-8.2,3.7-12.5
			C1282,275.8,1278.6,273.2,1275.6,274.5z M1214.2,318.7c0.3,0,0.7,0,1,0c0,0,0,0,0,0.1C1214.9,318.7,1214.5,318.7,1214.2,318.7z"/>
		<path d="M1215.5,303.4c-0.5,0.5-1.2,0.8-1.9,0.9c2.8,5.2,5.8,10.3,9,15.2c1.3-0.4,2.5-0.7,3.8-1.2c-3.5-5.4-6.8-11-9.9-16.7
			C1216.3,302.3,1216,302.9,1215.5,303.4z"/>
		<path d="M1233.1,293.4c-0.7,0.2-1.4,0.2-2.1,0.2c1.8,6.7,3.6,13.4,5.4,20.1c1.2-0.6,2.3-1.3,3.4-2c-1.7-6.4-3.4-12.8-5.2-19.1
			C1234.2,293,1233.7,293.3,1233.1,293.4z"/>
		<path d="M1251.9,286.7c-1,0.4-2,0.6-3.1,0.4c-0.3-0.1-0.6-0.1-0.9-0.2c2,6.1,3.1,12.3,3.2,18.7c0,0.3,0,0.5,0,0.8
			c1.3-0.6,2.5-1.2,3.8-1.8c0-0.1,0-0.2,0-0.3C1254.7,298.4,1253.6,292.4,1251.9,286.7z"/>
		<path d="M1273,276.6c-1,1-2,2-3.2,2.3c1.8,5.7,2.8,11.6,2.8,17.5c1.3-0.7,2.5-1.4,3.7-2.3C1276,288.2,1274.9,282.3,1273,276.6z"/>
	</g>
	<g>
		<g>
			<path class="st2" d="M1296,345.2c-7,0-7.1,10.9,0,10.9S1303.1,345.2,1296,345.2z"/>
			<path class="st1" d="M1276.5,281.8l-69.3,29.3c9,25.5,6,53.8-1.1,79.9c-2.1,7.5-4.5,14.9-4.9,22.6c-0.5,7.7,1.3,15.9,6.5,21.6
				c5.1,5.5,12.8,7.9,20.2,8.5c14.1,1.1,28.9-3.7,38.9-13.7c12.8-12.8,16.6-31.7,24.2-48.1c7-15.2,17.8-30.3,15.2-46.8
				C1302.9,314.8,1280.5,302,1276.5,281.8z"/>
			<path class="st6" d="M1239.3,416.9c-7.8-3.7-16-5.8-24.5-6.4c-4.8-0.3-9.3,0.2-13.6,1.4c-0.1,0.6-0.1,1.1-0.1,1.7
				c-0.5,7.7,1.3,15.9,6.5,21.6c5.1,5.5,12.8,7.9,20.2,8.5c12,1,24.3-2.3,33.9-9.4C1255.6,427,1248,421.1,1239.3,416.9z"/>
			<path class="st6" d="M1263.1,335.2c-0.1,9.5,5.4,18.2,11.2,25.3c5.5,6.6,11.6,12.4,18.4,17.5c6.9-13.9,15.8-27.9,13.4-43
				c-2.1-13.1-12.2-23-20.1-33.9c-2.6,2.7-5.1,5.5-7.6,8.2C1271.3,316.9,1263.3,324.1,1263.1,335.2z"/>
			<path class="st5" d="M1251.6,310.5c9.9-6,19-13.4,27-21.7c-1-2.2-1.7-4.6-2.2-7l-10.9,4.6c-5.5,5.1-11.5,9.7-17.8,13.7
				c-11.2,7.1-24.9,15-38.6,12.7c-0.5-0.1-1-0.1-1.4-0.1c1.2,3.6,2.2,7.3,2.9,11C1225.4,324.8,1239.2,318.1,1251.6,310.5z"/>
			<path class="st6" d="M1272.8,271.7c-2.6,1.1-4.2,4.9-7,4.4c-1-0.2-1.8-1-2.8-1.4c-3.2-1.4-6.5,1.5-8.7,4.3s-4.9,6-8.4,5.3
				c-2.1-0.4-3.9-2.3-6.1-2.3c-4.5,0-5.3,7.3-9.6,8.6c-2,0.6-4.2-0.4-6.3-0.6c-4.1-0.4-8.4,2.4-9.6,6.4c-0.5,1.5-0.6,3.2-1.7,4.2
				c-3,2.9-9.1-1.8-11.8,1.3c-0.7,0.8-0.9,2-0.8,3.1c-0.9,3.9,0.8,7.9,4.1,10.2c4.3,3.1,9.8,3,14.7,1.8c6.8-1.8,13.2-5,19.3-8.7
				c2.7-1.2,5.3-2.4,8-3.6c6.3-2.9,12.6-5.9,18.9-8.8c4.1-1.9,8.3-3.9,11.5-7.2c3.2-3.3,5.1-8.2,3.7-12.5
				C1279.2,273,1275.8,270.4,1272.8,271.7z M1211.4,315.9c0.3,0,0.7,0,1,0c0,0,0,0,0,0.1C1212.1,315.9,1211.7,315.9,1211.4,315.9z"
				/>
			<path class="st1" d="M1212.7,300.6c-0.5,0.5-1.2,0.8-1.9,0.9c2.8,5.2,5.8,10.3,9,15.2c1.3-0.4,2.5-0.7,3.8-1.2
				c-3.5-5.4-6.8-11-9.9-16.7C1213.5,299.5,1213.2,300.1,1212.7,300.6z"/>
			<path class="st1" d="M1230.3,290.6c-0.7,0.2-1.4,0.2-2.1,0.2c1.8,6.7,3.6,13.4,5.4,20.1c1.2-0.6,2.3-1.3,3.4-2
				c-1.7-6.4-3.4-12.8-5.2-19.1C1231.4,290.2,1230.9,290.5,1230.3,290.6z"/>
			<path class="st1" d="M1249.1,283.9c-1,0.4-2,0.6-3.1,0.4c-0.3-0.1-0.6-0.1-0.9-0.2c2,6.1,3.1,12.3,3.2,18.7c0,0.3,0,0.5,0,0.8
				c1.3-0.6,2.5-1.2,3.8-1.8c0-0.1,0-0.2,0-0.3C1251.9,295.6,1250.8,289.6,1249.1,283.9z"/>
			<path class="st1" d="M1270.2,273.8c-1,1-2,2-3.2,2.3c1.8,5.7,2.8,11.6,2.8,17.5c1.3-0.7,2.5-1.4,3.7-2.3
				C1273.2,285.4,1272.1,279.5,1270.2,273.8z"/>
		</g>
	</g>
</g>
<path class="st3" d="M918.1,485.8L918.1,485.8c0.2,0,0.3-0.1,0.4-0.2C918.4,485.7,918.3,485.8,918.1,485.8z"/>
<g>
	<g class="st7">
		<path d="M1135,408.9c-13.6-4.6-38.8-7.6-98.2,16.2c-1.7-0.8-3.5-1.6-5.2-2.3c-9.7-3.9-19.3-8.3-29.6-11.1
			c-4.9-1.3-10-2.4-15.1-3.4c-4.3-0.8-8.6-0.9-12.9-0.1c-6,1.2-14.2,5.1-14.4,11.7c-0.1,2.4,1.1,4.6,2.2,6.7
			c1.3,2.3,2.8,4.6,4.6,6.5c3.8,3.9,8.8,6.8,13.1,10.1c2.3,1.8,4.3,3.7,6.5,5.5c0.5,0.4,1.1,0.8,1.6,1.3
			c-15.4,9.9-25.5,18.9-31.2,24.6c-2.8-1.5-5.7-2.9-8.7-4.1c-5.8-2.3-12-4.7-18.2-5.8c-5.9-1.1-12.1-2.1-18.1-2.6
			c-1.8-0.1-3.8,0-5.6,0.6c-5.7,0.9-8.6,5.3-4.5,16.3c10.8,29.1,33.2,46.9,52.2,51.6c44,11,130.5-41.2,163.3-67.8
			C1149.5,436.5,1148.7,413.6,1135,408.9z"/>
		<path d="M1031.4,469.3c-15.8,8.6-19.4,17.9-26.9,45c-7.4,27.1-2,43.1,17.8,30.4c19.9-12.7,50.2-60.7,45-71.6
			C1062.2,462.3,1045.1,461.9,1031.4,469.3z"/>
		<path class="st8" d="M1054.8,440.1c0.6,1.9-0.7,3.3-2.8,2.9c-1.6-0.3-2.7-2.5-2.5-3.9c0.3-3.6-5.4-4.3-5.8-0.7
			c-0.5,5.1,3.1,10.4,8.9,10.1c2.8-0.1,5.3-1.1,6.9-3.4s1.5-4.8,0.7-7.3C1059.2,434.4,1053.8,436.6,1054.8,440.1z"/>
		<path class="st8" d="M1036.9,444.7c-1.4-3.3-6.8-1.1-5.5,2.2c0.4,1.1,1,2.2,1.1,3.4c0.1,1.3-1,1.6-2.3,1.8c-1.2,0.2-2.5,0.2-3-1
			c-0.4-1.1-0.3-2.9,0.2-4c1.4-3.4-3.9-5.5-5.3-2.1c-1.2,2.9-1.3,6.7,0.2,9.4c1.6,2.7,4.7,3.5,7.8,3.2c3.1-0.2,6.3-1.7,7.6-4.7
			C1039.1,450.3,1038,447.2,1036.9,444.7z"/>
		<path class="st8" d="M1014.8,453.8c-2.2-2.8-6.9,0.7-4.7,3.5c1,1.3,1.3,5.4-1,5.6c-1.1,0.1-1.9-0.2-2.4-1
			c-0.3-0.5-0.5-1.2-0.5-1.8c-0.1-0.4-0.1-0.7,0.1-1.1v-0.1c1.6-2.8-2.6-5.7-4.8-2.9c-1.9,2.4-1.1,6.3,0.1,8.7
			c1.4,2.8,4.7,4,7.8,3.8c3.5-0.2,5.9-2.3,6.9-5.6C1017.2,460.1,1016.6,456.2,1014.8,453.8z"/>
		<path d="M1054.9,431.2c-0.1-0.1-0.2-0.1-0.4-0.2c-4-1.8-8.5,0.3-10.1,4.3c-1.5,4,0.7,8.3,4.8,9.5c4.5,1.4,10.6-2,10.3-7.1
			C1059.3,434.8,1057.5,432,1054.9,431.2z"/>
		<path d="M1028,440c-1.4,0.2-2.6,0.9-3.6,1.8c-1.1,0.6-2,1.6-2.6,3c-0.2,0.4-0.4,0.7-0.5,1.1c-0.6,1.8-0.4,3.7,0.3,5.2
			c0.3,1.2,1,2.3,2,3.1c2.1,1.7,5.1,1.7,7.6,0.4c1.4-0.7,2.5-1.8,3.3-3.1C1038.7,446.8,1034.8,438.9,1028,440z"/>
		<path d="M1011.7,452.9c-1.7-1.5-4.1-2.2-6.4-1.9c-0.4,0.1-0.8,0.2-1.2,0.3c-0.8,0.2-1.5,0.6-2.2,1.1c-1,0.5-1.8,1.3-2.3,2.6
			c-0.6,1.3-0.6,2.9-0.1,4.2c0.1,0.9,0.4,1.9,0.9,2.7c0.6,1.9,1.7,3.4,3.7,4.1c2.4,0.8,5.2,0.3,7.2-1.3
			C1014.9,461.7,1015.1,456,1011.7,452.9z"/>
		<path class="st8" d="M1077.9,434.4c8.2,2.8,18,3.1,26.5,0.8c4.8-1.3,9.6-2.8,14.2-4.7c2.5-1,4.7-2.3,6.8-3.8
			c0.2,0,0.5-0.1,0.7-0.2c2.2-1,4.1-2.9,5.8-4.8c2.9-2.5,5.3-5.4,7.4-8.5c0.2-0.4,0.5-0.8,0.7-1.2c-1.4-1.4-3.1-2.4-5-3.1
			c-1-0.3-2.1-0.7-3.2-1c-2.8,4.4-5.7,8.8-8.3,13.3c-2.7,1.9-5.3,3.6-8.6,4.9c-3.6,1.5-7.5,2.6-11.3,3.7
			c-14.6,4.2-32.5-0.6-38.4-14.6c0-0.1-0.1-0.2-0.1-0.2c-1.8,0.6-3.6,1.2-5.5,1.8c0,0.2,0.1,0.4,0.2,0.7
			C1062.8,424.8,1070,431.7,1077.9,434.4z"/>
		<path d="M1074.2,427.4c12.3,6.5,27.9,7.8,40.7,0.4c6-3.5,11.1-8.7,15.6-13.8c1.5-1.7,2.6-3.6,3.2-5.5c-11.9-3.7-32.3-5.8-74.1,8.2
			c2,2.1,4.2,4.1,6.4,5.9C1068.5,424.7,1071.3,425.9,1074.2,427.4z"/>
		<path d="M999.2,437.7c5.1-3,10.4-5.4,15.7-8c4.5-2.2,9.2-4.4,13.9-5.9c0.9-0.3,1.7-0.6,2.5-1c-9.7-3.9-19.3-8.3-29.5-11
			c-4.9-1.3-10-2.4-15.1-3.4c-4.3-0.8-8.6-0.9-12.9-0.1c-6,1.2-14.2,5.1-14.4,11.7c-0.1,2.4,1.1,4.6,2.2,6.7
			c1.3,2.3,2.8,4.6,4.6,6.5c3.8,3.9,8.8,6.8,13.1,10.1c1.5,1.2,2.9,2.4,4.3,3.7l0.1-0.1C989,444,994,440.8,999.2,437.7z"/>
		<path class="st8" d="M1017.6,433.2c4.5-2.2,9.1-4.1,13.8-5.7c2-0.7,3.8-1.6,5.7-2.5c-0.1,0.1-0.3,0.1-0.4,0.2
			c-1.7-0.8-3.5-1.6-5.2-2.3h-0.1c-0.8,0.3-1.7,0.7-2.5,1c-4.8,1.5-9.4,3.7-13.9,5.9c-5.3,2.6-10.7,5-15.7,8
			c-5.2,3.1-10.2,6.3-15.4,9.4c-0.1,0-0.1,0.1-0.1,0.1c0.7,0.6,1.5,1.3,2.2,1.9c0.4,0.4,0.9,0.7,1.3,1c4.6-2.7,9.1-5.6,13.7-8.3
			C1006.3,438.5,1012,435.9,1017.6,433.2z"/>
		<path d="M927.3,479.6c0-0.3-0.2-0.5-0.4-0.6l-4.8-2.2l-0.9-5.2c0-0.3-0.2-0.5-0.5-0.6s-0.6,0-0.7,0.2l-3.6,3.9l-5.3-0.8
			c-0.3,0-0.5,0.1-0.7,0.3c-0.2,0.2-0.2,0.5,0,0.8l2.6,4.6l-2.3,4.8c-0.1,0.2-0.1,0.5,0.1,0.8c0.1,0.1,0.1,0.1,0.2,0.2
			c0.2,0.1,0.4,0.1,0.5,0.1l5.2-1l3.8,3.7c0.2,0.2,0.5,0.3,0.8,0.2c0.3-0.1,0.4-0.3,0.5-0.6l0.6-5.3l4.7-2.5
			C927.1,480.1,927.3,479.9,927.3,479.6z"/>
	</g>
	<g>
		<g>
			<path class="st6" d="M1132.2,406.1c-13.6-4.6-38.8-7.6-98.2,16.2c-1.7-0.8-3.5-1.6-5.2-2.3c-9.7-3.9-19.3-8.3-29.6-11.1
				c-4.9-1.3-10-2.4-15.1-3.4c-4.3-0.8-8.6-0.9-12.9-0.1c-6,1.2-14.2,5.1-14.4,11.7c-0.1,2.4,1.1,4.6,2.2,6.7
				c1.3,2.3,2.8,4.6,4.6,6.5c3.8,3.9,8.8,6.8,13.1,10.1c2.3,1.8,4.3,3.7,6.5,5.5c0.5,0.4,1.1,0.8,1.6,1.3
				c-15.4,9.9-25.5,18.9-31.2,24.6c-2.8-1.5-5.7-2.9-8.7-4.1c-5.8-2.3-12-4.7-18.2-5.8c-5.9-1.1-12.1-2.1-18.1-2.6
				c-1.8-0.1-3.8,0-5.6,0.6c-5.7,0.9-8.6,5.3-4.5,16.3c10.8,29.1,33.2,46.9,52.2,51.6c44,11,130.5-41.2,163.3-67.8
				C1146.7,433.7,1145.9,410.8,1132.2,406.1z"/>
			<path class="st6" d="M1028.6,466.5c-15.8,8.6-19.4,17.9-26.9,45c-7.4,27.1-2,43.1,17.8,30.4c19.9-12.7,50.2-60.7,45-71.6
				C1059.4,459.5,1042.3,459.1,1028.6,466.5z"/>
			<path class="st5" d="M1052,437.3c0.6,1.9-0.7,3.3-2.8,2.9c-1.6-0.3-2.7-2.5-2.5-3.9c0.3-3.6-5.4-4.3-5.8-0.7
				c-0.5,5.1,3.1,10.4,8.9,10.1c2.8-0.1,5.3-1.1,6.9-3.4s1.5-4.8,0.7-7.3C1056.4,431.6,1051,433.8,1052,437.3z"/>
			<path class="st5" d="M1034.1,441.9c-1.4-3.3-6.8-1.1-5.5,2.2c0.4,1.1,1,2.2,1.1,3.4c0.1,1.3-1,1.6-2.3,1.8c-1.2,0.2-2.5,0.2-3-1
				c-0.4-1.1-0.3-2.9,0.2-4c1.4-3.4-3.9-5.5-5.3-2.1c-1.2,2.9-1.3,6.7,0.2,9.4c1.6,2.7,4.7,3.5,7.8,3.2c3.1-0.2,6.3-1.7,7.6-4.7
				C1036.3,447.5,1035.2,444.4,1034.1,441.9z"/>
			<path class="st5" d="M1012,451c-2.2-2.8-6.9,0.7-4.7,3.5c1,1.3,1.3,5.4-1,5.6c-1.1,0.1-1.9-0.2-2.4-1c-0.3-0.5-0.5-1.2-0.5-1.8
				c-0.1-0.4-0.1-0.7,0.1-1.1v-0.1c1.6-2.8-2.6-5.7-4.8-2.9c-1.9,2.4-1.1,6.3,0.1,8.7c1.4,2.8,4.7,4,7.8,3.8
				c3.5-0.2,5.9-2.3,6.9-5.6C1014.4,457.3,1013.8,453.4,1012,451z"/>
			<path class="st2" d="M1052.1,428.4c-0.1-0.1-0.2-0.1-0.4-0.2c-4-1.8-8.5,0.3-10.1,4.3c-1.5,4,0.7,8.3,4.8,9.5
				c4.5,1.4,10.6-2,10.3-7.1C1056.5,432,1054.7,429.2,1052.1,428.4z"/>
			<path class="st2" d="M1025.2,437.2c-1.4,0.2-2.6,0.9-3.6,1.8c-1.1,0.6-2,1.6-2.6,3c-0.2,0.4-0.4,0.7-0.5,1.1
				c-0.6,1.8-0.4,3.7,0.3,5.2c0.3,1.2,1,2.3,2,3.1c2.1,1.7,5.1,1.7,7.6,0.4c1.4-0.7,2.5-1.8,3.3-3.1
				C1035.9,444,1032,436.1,1025.2,437.2z"/>
			<path class="st2" d="M1008.9,450.1c-1.7-1.5-4.1-2.2-6.4-1.9c-0.4,0.1-0.8,0.2-1.2,0.3c-0.8,0.2-1.5,0.6-2.2,1.1
				c-1,0.5-1.8,1.3-2.3,2.6c-0.6,1.3-0.6,2.9-0.1,4.2c0.1,0.9,0.4,1.9,0.9,2.7c0.6,1.9,1.7,3.4,3.7,4.1c2.4,0.8,5.2,0.3,7.2-1.3
				C1012.1,458.9,1012.3,453.2,1008.9,450.1z"/>
			<path class="st5" d="M1075.1,431.6c8.2,2.8,18,3.1,26.5,0.8c4.8-1.3,9.6-2.8,14.2-4.7c2.5-1,4.7-2.3,6.8-3.8
				c0.2,0,0.5-0.1,0.7-0.2c2.2-1,4.1-2.9,5.8-4.8c2.9-2.5,5.3-5.4,7.4-8.5c0.2-0.4,0.5-0.8,0.7-1.2c-1.4-1.4-3.1-2.4-5-3.1
				c-1-0.3-2.1-0.7-3.2-1c-2.8,4.4-5.7,8.8-8.3,13.3c-2.7,1.9-5.3,3.6-8.6,4.9c-3.6,1.5-7.5,2.6-11.3,3.7
				c-14.6,4.2-32.5-0.6-38.4-14.6c0-0.1-0.1-0.2-0.1-0.2c-1.8,0.6-3.6,1.2-5.5,1.8c0,0.2,0.1,0.4,0.2,0.7
				C1060,422,1067.2,428.9,1075.1,431.6z"/>
			<path class="st2" d="M1071.4,424.6c12.3,6.5,27.9,7.8,40.7,0.4c6-3.5,11.1-8.7,15.6-13.8c1.5-1.7,2.6-3.6,3.2-5.5
				c-11.9-3.7-32.3-5.8-74.1,8.2c2,2.1,4.2,4.1,6.4,5.9C1065.7,421.9,1068.5,423.1,1071.4,424.6z"/>
			<path class="st6" d="M996.4,434.9c5.1-3,10.4-5.4,15.7-8c4.5-2.2,9.2-4.4,13.9-5.9c0.9-0.3,1.7-0.6,2.5-1
				c-9.7-3.9-19.3-8.3-29.5-11c-4.9-1.3-10-2.4-15.1-3.4c-4.3-0.8-8.6-0.9-12.9-0.1c-6,1.2-14.2,5.1-14.4,11.7
				c-0.1,2.4,1.1,4.6,2.2,6.7c1.3,2.3,2.8,4.6,4.6,6.5c3.8,3.9,8.8,6.8,13.1,10.1c1.5,1.2,2.9,2.4,4.3,3.7l0.1-0.1
				C986.2,441.2,991.2,438,996.4,434.9z"/>
			<path class="st5" d="M1014.8,430.4c4.5-2.2,9.1-4.1,13.8-5.7c2-0.7,3.8-1.6,5.7-2.5c-0.1,0.1-0.3,0.1-0.4,0.2
				c-1.7-0.8-3.5-1.6-5.2-2.3h-0.1c-0.8,0.3-1.7,0.7-2.5,1c-4.8,1.5-9.4,3.7-13.9,5.9c-5.3,2.6-10.7,5-15.7,8
				c-5.2,3.1-10.2,6.3-15.4,9.4c-0.1,0-0.1,0.1-0.1,0.1c0.7,0.6,1.5,1.3,2.2,1.9c0.4,0.4,0.9,0.7,1.3,1c4.6-2.7,9.1-5.6,13.7-8.3
				C1003.5,435.7,1009.2,433.1,1014.8,430.4z"/>
			<path class="st4" d="M924.5,476.8c0-0.3-0.2-0.5-0.4-0.6l-4.8-2.2l-0.9-5.2c0-0.3-0.2-0.5-0.5-0.6s-0.6,0-0.7,0.2l-3.6,3.9
				l-5.3-0.8c-0.3,0-0.5,0.1-0.7,0.3c-0.2,0.2-0.2,0.5,0,0.8l2.6,4.6l-2.3,4.8c-0.1,0.2-0.1,0.5,0.1,0.8c0.1,0.1,0.1,0.1,0.2,0.2
				c0.2,0.1,0.4,0.1,0.5,0.1l5.2-1l3.8,3.7c0.2,0.2,0.5,0.3,0.8,0.2c0.3-0.1,0.4-0.3,0.5-0.6l0.6-5.3l4.7-2.5
				C924.3,477.3,924.5,477.1,924.5,476.8z"/>
		</g>
	</g>
</g>
<path class="st5" d="M918.7,485.2l0.6-5.3l4.7-2.5c0.2-0.1,0.4-0.4,0.4-0.7c0-0.3-0.1-0.5-0.4-0.6c-0.8,1.4-3.3,1.7-4.6,2.2
	c-1.1,0.4-1.6,0.8-1.6,2c0,1.1-0.1,2.1-0.3,3.2c0,0.1-0.1,0.3-0.1,0.4c0,0,0,0-0.1,0c-0.5-0.2-0.9-0.5-1.4-0.7c-0.5-0.3-1-0.6-1.5-1
	c-0.5-0.3-0.9-0.6-1.5-0.7c-1-0.1-2.1,0.3-3.1,0.6c-0.7,0.2-1.4,0.4-2.1,0.6c0,0.1,0.1,0.1,0.2,0.1c0.2,0.1,0.4,0.1,0.5,0.1l5.2-1
	l3.8,3.7c0.2,0.2,0.4,0.2,0.6,0.2c0.2,0,0.3-0.1,0.4-0.2C918.7,485.5,918.7,485.4,918.7,485.2z"/>
<g>
	<g class="st7">
		<path d="M234,299.6c-0.7,1.4-49.4,100.5-28.8,113.2c20.7,12.7,70.6,29.1,88.7,18.2c18-10.9,27-112.9,24.9-119
			C316.7,305.8,240.5,286.1,234,299.6z"/>
		<path class="st8" d="M277.5,328.5c13.4,1.6,28.1,1.2,41.3-3c0.3-4.9,0.4-8.8,0.3-11.2c-12.2,4.7-26.7,5.4-39.2,3.9
			c-14.9-1.7-33.1-5.5-42.8-17.9c-0.6-0.8-1.4-1.4-2.2-1.9c-0.3,0.4-0.6,0.7-0.8,1.2c-0.1,0.2-1.7,3.4-4,8.5
			C241.8,321.4,260.2,326.5,277.5,328.5z"/>
		<path class="st8" d="M241,351.2c1.4-6.2,3-12.7,1.4-19c-0.4-1.7-3.1-2.4-4.2-1c-14.7,19.4-23.4,42.6-25,66.8
			c-0.1,0.8,0.2,1.4,0.7,1.8c0.2,2,2.6,3.4,4.2,1.7c8.7-9,14.2-20.3,18-32.2C238.1,363.4,239.6,357.3,241,351.2z M234,359.3
			c-0.1-0.1-0.1-0.2-0.2-0.3c0.4-1.1,0.7-2.1,1.1-3.2C234.5,356.9,234.3,358.1,234,359.3z M220.5,390.6c0.2-0.1,0.4-0.3,0.6-0.5
			c-0.2,0.3-0.4,0.6-0.6,0.9C220.5,390.9,220.5,390.8,220.5,390.6z M221.4,389.6c0.1-0.1,0.1-0.3,0.2-0.4c0,0,0.1,0,0.1,0.1
			c-0.2,0.2-0.3,0.5-0.5,0.7C221.3,389.9,221.3,389.8,221.4,389.6z"/>
		<path class="st8" d="M314.9,350.8c-0.2,22.9-8.6,45.9-23.8,63.1c-5.4,6.1-11.7,11.5-18.8,15.5c-3.4,1.4-6.9,2.6-10.4,3.7
			c13.2,2.2,25.1,2.2,32.1-2.1c11.8-7.2,19.8-53.5,23.2-86.2C315.7,346.4,314.9,348.5,314.9,350.8z"/>
		<path d="M320.8,304.4c-0.3-4.4-2.8-8.4-6-11.3c-3.4-3.1-7.7-5-12-6.5c-1.7-0.6-3.7-1.1-5.1-2.3c-1.7-1.4-0.9-3.5-0.2-5.3
			c3.1-8.1,5.1-18.9-1-26.2c-2.9-3.4-7.4-4.6-11.3-2.2c-0.2,0.1-0.4,0.2-0.5,0.3c-5.5,1.8-8.6,9.9-9.5,14.9
			c-0.6,3.6,0.2,7.7-1.1,11.2c-0.6,1.7-2,2.7-3.6,3.4c-1.2-0.1-2.4-0.4-3.6-0.6c-4.2-1.1-8.2-1.7-12.6-0.7
			c-3.9,0.9-7.6,2.9-10.5,5.7c-1.4,1.4-2.6,2.9-3.6,4.7c0,0.1-0.1,0.2-0.1,0.2c-1,1.4-1.7,2.9-1.6,4.6c0.2,2.3,2.1,3.5,3.9,4.7
			c3.8,2.6,7.9,4.6,12.2,6.1c9.3,3.3,19.2,4.8,28.9,6.3c5.2,0.8,10.5,1.5,15.7,2.1c5,0.6,10.3,1.3,15.4,0.4
			C319.3,313.2,321.1,308.8,320.8,304.4z"/>
		<path class="st8" d="M292.2,265.9c-0.8,6.1-3.3,12.4-1.6,18.7c1.8,6.8,7.5,8.4,13,11.4c5.3,2.9,9.6,7.2,12.7,12.4
			c0.8,1.4,1.9,2.1,3,2.5c1.2-1.8,1.6-4.1,1.4-6.5c-0.3-4.4-2.8-8.4-6-11.3c-3.4-3.1-7.7-5-12-6.5c-1.7-0.6-3.7-1.1-5.1-2.3
			c-1.7-1.4-0.9-3.5-0.2-5.3c3.1-8.1,5.1-18.9-1-26.2c-1.2-1.4-2.7-2.5-4.3-3C292.8,255.2,292.9,260.6,292.2,265.9z"/>
		<path d="M253.2,319.5c-11.3-4.6-24-11.6-23.2-19.7c0.7-8.1,4.2-12.4,10.2-10.7c6,1.7,18,16.2,46,14.8c27.9-1.4,35-2.4,36.9,0.4
			s6.4,10.7-1.6,16.7s-32.7,6.8-44.7,4.6C264.8,323.4,253.2,319.5,253.2,319.5z"/>
		<path d="M246.2,297.7c-1.9,3.5-3.5,7.1-4.6,10.8c-0.5,1.5,1.9,2.3,2.3,0.8c1.1-3.6,2.5-7,4.3-10.3
			C249,297.7,247,296.3,246.2,297.7z"/>
		<path d="M256.2,302.4c-1.1,3.7-2,7.4-2.6,11.2c-0.3,1.6,2.2,1.7,2.5,0.2c0.6-3.6,1.4-7.1,2.5-10.5
			C259,301.7,256.6,300.9,256.2,302.4z"/>
		<path d="M267.1,305.7c-0.5,3.6-1,7.1-1.5,10.7c-0.2,1.6,2.3,1.7,2.5,0.2c0.5-3.6,1-7.1,1.5-10.7
			C269.8,304.3,267.3,304.1,267.1,305.7z"/>
		<path d="M281.9,308.3c0-1.6-2.5-1.8-2.5-0.2c0,3.9-0.2,7.9-0.5,11.8c-0.1,1.6,2.4,1.8,2.5,0.2
			C281.7,316.2,281.9,312.2,281.9,308.3z"/>
		<path d="M295.4,319.4c-0.3-3.4-0.3-6.7,0-10.1c0.1-1.6-2.4-1.8-2.5-0.2c-0.2,3.6-0.2,7.1,0.1,10.7
			C293.1,321.5,295.6,321,295.4,319.4z"/>
		<path d="M303.2,310.3c-0.5,3.2-0.9,6.3-1.4,9.5c-0.2,1.6,2.3,1.7,2.5,0.2c0.5-3.2,0.9-6.3,1.4-9.5
			C305.9,308.8,303.4,308.7,303.2,310.3z"/>
		<path d="M316.7,309.2c-0.1-1.6-2.5-1.8-2.5-0.2c0.2,3.6-0.1,7.2-0.8,10.8c-0.3,1.6,2.2,1.7,2.5,0.2
			C316.6,316.4,316.8,312.9,316.7,309.2z"/>
	</g>
	<g>
		<g>
			<path class="st1" d="M231.2,296.8c-0.7,1.4-49.4,100.5-28.8,113.2c20.7,12.7,70.6,29.1,88.7,18.2c18-10.9,27-112.9,24.9-119
				C313.9,303,237.7,283.3,231.2,296.8z"/>
			<path class="st5" d="M274.7,325.7c13.4,1.6,28.1,1.2,41.3-3c0.3-4.9,0.4-8.8,0.3-11.2c-12.2,4.7-26.7,5.4-39.2,3.9
				c-14.9-1.7-33.1-5.5-42.8-17.9c-0.6-0.8-1.4-1.4-2.2-1.9c-0.3,0.4-0.6,0.7-0.8,1.2c-0.1,0.2-1.7,3.4-4,8.5
				C239,318.6,257.4,323.7,274.7,325.7z"/>
			<path class="st5" d="M238.2,348.4c1.4-6.2,3-12.7,1.4-19c-0.4-1.7-3.1-2.4-4.2-1c-14.7,19.4-23.4,42.6-25,66.8
				c-0.1,0.8,0.2,1.4,0.7,1.8c0.2,2,2.6,3.4,4.2,1.7c8.7-9,14.2-20.3,18-32.2C235.3,360.6,236.8,354.5,238.2,348.4z M231.2,356.5
				c-0.1-0.1-0.1-0.2-0.2-0.3c0.4-1.1,0.7-2.1,1.1-3.2C231.7,354.1,231.5,355.3,231.2,356.5z M217.7,387.8c0.2-0.1,0.4-0.3,0.6-0.5
				c-0.2,0.3-0.4,0.6-0.6,0.9C217.7,388.1,217.7,388,217.7,387.8z M218.6,386.8c0.1-0.1,0.1-0.3,0.2-0.4c0,0,0.1,0,0.1,0.1
				c-0.2,0.2-0.3,0.5-0.5,0.7C218.5,387.1,218.5,387,218.6,386.8z"/>
			<path class="st5" d="M312.1,348c-0.2,22.9-8.6,45.9-23.8,63.1c-5.4,6.1-11.7,11.5-18.8,15.5c-3.4,1.4-6.9,2.6-10.4,3.7
				c13.2,2.2,25.1,2.2,32.1-2.1C303,421,311,374.7,314.4,342C312.9,343.6,312.1,345.7,312.1,348z"/>
			<path class="st2" d="M318,301.6c-0.3-4.4-2.8-8.4-6-11.3c-3.4-3.1-7.7-5-12-6.5c-1.7-0.6-3.7-1.1-5.1-2.3
				c-1.7-1.4-0.9-3.5-0.2-5.3c3.1-8.1,5.1-18.9-1-26.2c-2.9-3.4-7.4-4.6-11.3-2.2c-0.2,0.1-0.4,0.2-0.5,0.3
				c-5.5,1.8-8.6,9.9-9.5,14.9c-0.6,3.6,0.2,7.7-1.1,11.2c-0.6,1.7-2,2.7-3.6,3.4c-1.2-0.1-2.4-0.4-3.6-0.6
				c-4.2-1.1-8.2-1.7-12.6-0.7c-3.9,0.9-7.6,2.9-10.5,5.7c-1.4,1.4-2.6,2.9-3.6,4.7c0,0.1-0.1,0.2-0.1,0.2c-1,1.4-1.7,2.9-1.6,4.6
				c0.2,2.3,2.1,3.5,3.9,4.7c3.8,2.6,7.9,4.6,12.2,6.1c9.3,3.3,19.2,4.8,28.9,6.3c5.2,0.8,10.5,1.5,15.7,2.1
				c5,0.6,10.3,1.3,15.4,0.4C316.5,310.4,318.3,306,318,301.6z"/>
			<path class="st5" d="M289.4,263.1c-0.8,6.1-3.3,12.4-1.6,18.7c1.8,6.8,7.5,8.4,13,11.4c5.3,2.9,9.6,7.2,12.7,12.4
				c0.8,1.4,1.9,2.1,3,2.5c1.2-1.8,1.6-4.1,1.4-6.5c-0.3-4.4-2.8-8.4-6-11.3c-3.4-3.1-7.7-5-12-6.5c-1.7-0.6-3.7-1.1-5.1-2.3
				c-1.7-1.4-0.9-3.5-0.2-5.3c3.1-8.1,5.1-18.9-1-26.2c-1.2-1.4-2.7-2.5-4.3-3C290,252.4,290.1,257.8,289.4,263.1z"/>
			<path class="st6" d="M250.4,316.7c-11.3-4.6-24-11.6-23.2-19.7c0.7-8.1,4.2-12.4,10.2-10.7c6,1.7,18,16.2,46,14.8
				c27.9-1.4,35-2.4,36.9,0.4s6.4,10.7-1.6,16.7S286,325,274,322.8C262,320.6,250.4,316.7,250.4,316.7z"/>
			<path class="st1" d="M243.4,294.9c-1.9,3.5-3.5,7.1-4.6,10.8c-0.5,1.5,1.9,2.3,2.3,0.8c1.1-3.6,2.5-7,4.3-10.3
				C246.2,294.9,244.2,293.5,243.4,294.9z"/>
			<path class="st1" d="M253.4,299.6c-1.1,3.7-2,7.4-2.6,11.2c-0.3,1.6,2.2,1.7,2.5,0.2c0.6-3.6,1.4-7.1,2.5-10.5
				C256.2,298.9,253.8,298.1,253.4,299.6z"/>
			<path class="st1" d="M264.3,302.9c-0.5,3.6-1,7.1-1.5,10.7c-0.2,1.6,2.3,1.7,2.5,0.2c0.5-3.6,1-7.1,1.5-10.7
				C267,301.5,264.5,301.3,264.3,302.9z"/>
			<path class="st1" d="M279.1,305.5c0-1.6-2.5-1.8-2.5-0.2c0,3.9-0.2,7.9-0.5,11.8c-0.1,1.6,2.4,1.8,2.5,0.2
				C278.9,313.4,279.1,309.4,279.1,305.5z"/>
			<path class="st1" d="M292.6,316.6c-0.3-3.4-0.3-6.7,0-10.1c0.1-1.6-2.4-1.8-2.5-0.2c-0.2,3.6-0.2,7.1,0.1,10.7
				C290.3,318.7,292.8,318.2,292.6,316.6z"/>
			<path class="st1" d="M300.4,307.5c-0.5,3.2-0.9,6.3-1.4,9.5c-0.2,1.6,2.3,1.7,2.5,0.2c0.5-3.2,0.9-6.3,1.4-9.5
				C303.1,306,300.6,305.9,300.4,307.5z"/>
			<path class="st1" d="M313.9,306.4c-0.1-1.6-2.5-1.8-2.5-0.2c0.2,3.6-0.1,7.2-0.8,10.8c-0.3,1.6,2.2,1.7,2.5,0.2
				C313.8,313.6,314,310.1,313.9,306.4z"/>
		</g>
	</g>
</g>
<g>
	<g class="st7">
		<path d="M1053.2,216.5c6.1,6.1,12.4,12.2,18.7,18.1c2.6,2.5,7.4,1.3,9.4-1.4c2.4-3.2,1.3-6.9-1.4-9.4c-2.8-2.6-5.6-5.3-8.3-7.9
			c-2-2.6-4.1-5.2-6.2-7.8l0,0c-0.2-0.4-0.5-0.7-0.7-1.1c-0.6-1-1.2-2-1.8-3c-0.5-0.9-1.1-1.8-1.6-2.7c-1.2-2.1-2.3-4.2-3.3-6.3
			c-0.7-1.5-1.2-3.1-1.6-4.6c-2.3-9.6,3.9-17.5,12-21.9c8.9-4.8,19.7-6.1,28.5-0.5c7.1,4.5,11.9,11.4,15.9,18.7
			c1.7,4.3,3.5,8.6,5.2,12.9c3.3,8,15.6,2.8,12.3-5.2c-5.5-13.4-9.9-28.8-19.3-40.1c-8.6-10.3-20.9-15-34.2-12.6
			c-25,4.6-49.7,29.6-38.3,56.4C1041.5,205.3,1047.6,210.9,1053.2,216.5z"/>
		<path class="st8" d="M1071.9,234.5c0.4,0.4,0.8,0.6,1.3,0.8c2.8-3.1,5.6-6.2,8.6-9.1c-0.5-0.9-1.1-1.8-1.9-2.5
			c-2.1-1.9-4.1-3.9-6.2-5.9c-3.2,3.1-6.3,6.3-9.2,9.6C1066.9,229.9,1069.4,232.2,1071.9,234.5z"/>
		<path class="st8" d="M1117.9,199.5c0.3,0.6,0.6,1.2,0.9,1.6c3.8-1.5,7.8-2.7,11.9-3.5c0.1-1,0-2.2-0.5-3.4c-1-2.6-2.1-5.2-3.1-7.9
			c-4.5,1-8.8,2.3-13,4C1115.4,193.4,1116.6,196.4,1117.9,199.5z"/>
		<path d="M1121.4,297.5c8.3,1.8,18.6,0.6,26.3-3.2c7.9-3.9,14.6-11.2,18.7-19c4.1-7.7,4.8-16.7,1.5-24.8
			c-3.9-9.7-12-16.7-20.3-22.6c-4.6-3.3-9.4-6.4-13.7-10.1c-3.7-3.1-6.8-6.6-9.6-10.5c0-0.1,0-0.3-0.1-0.4c-0.9-4.9-5.1-7.8-10-7.5
			c-4.7,0.3-9.4,2.8-13.4,5.1c-4.3,2.5-8.1,5.7-11.4,9.3c-3,3.2-6.6,7.6-4.9,12.3c0.7,2,2.2,3.5,3.3,5.2c1.4,2.1,2.7,4.4,3.8,6.7
			c2,4.5,3.2,9.2,4,14.1c1.4,9.5,1.6,19.4,5.6,28.3C1105,289.2,1112,295.4,1121.4,297.5z"/>
		<path class="st8" d="M1113.1,280.1c-3.1-4.4-4.2-9.3-5.1-14.5c-2.8-17.2-8.9-34.9-23.4-45c-0.7,1.8-0.9,3.6-0.2,5.6
			c0.7,2,2.2,3.5,3.3,5.2c1.4,2.1,2.7,4.4,3.8,6.7c2,4.5,3.2,9.2,4,14.1c1.4,9.5,1.6,19.4,5.6,28.3c3.9,8.8,10.9,14.9,20.4,17
			c4.4,0.9,9.3,1.1,14.1,0.4c-4.1-1.8-7.9-4.4-11.4-7.1C1120.1,287.7,1116,284.3,1113.1,280.1z"/>
		<path d="M1057.8,255c2.5,2.5,7.1,2.9,9.2,0.1c20.9-27.5,49.2-49.5,84-54.8c3.4-0.5,5.1-4.9,4.1-8.2c-1.2-3.9-4.8-5.6-8.2-5
			c-36.8,5.6-67.6,29.2-89.8,58.3C1055.1,248.1,1055,252.2,1057.8,255z"/>
	</g>
	<g>
		<g>
			<path class="st6" d="M1050.4,213.7c6.1,6.1,12.4,12.2,18.7,18.1c2.6,2.5,7.4,1.3,9.4-1.4c2.4-3.2,1.3-6.9-1.4-9.4
				c-2.8-2.6-5.6-5.3-8.3-7.9c-2-2.6-4.1-5.2-6.2-7.8l0,0c-0.2-0.4-0.5-0.7-0.7-1.1c-0.6-1-1.2-2-1.8-3c-0.5-0.9-1.1-1.8-1.6-2.7
				c-1.2-2.1-2.3-4.2-3.3-6.3c-0.7-1.5-1.2-3.1-1.6-4.6c-2.3-9.6,3.9-17.5,12-21.9c8.9-4.8,19.7-6.1,28.5-0.5
				c7.1,4.5,11.9,11.4,15.9,18.7c1.7,4.3,3.5,8.6,5.2,12.9c3.3,8,15.6,2.8,12.3-5.2c-5.5-13.4-9.9-28.8-19.3-40.1
				c-8.6-10.3-20.9-15-34.2-12.6c-25,4.6-49.7,29.6-38.3,56.4C1038.7,202.5,1044.8,208.1,1050.4,213.7z"/>
			<path class="st5" d="M1069.1,231.7c0.4,0.4,0.8,0.6,1.3,0.8c2.8-3.1,5.6-6.2,8.6-9.1c-0.5-0.9-1.1-1.8-1.9-2.5
				c-2.1-1.9-4.1-3.9-6.2-5.9c-3.2,3.1-6.3,6.3-9.2,9.6C1064.1,227.1,1066.6,229.4,1069.1,231.7z"/>
			<path class="st5" d="M1115.1,196.7c0.3,0.6,0.6,1.2,0.9,1.6c3.8-1.5,7.8-2.7,11.9-3.5c0.1-1,0-2.2-0.5-3.4
				c-1-2.6-2.1-5.2-3.1-7.9c-4.5,1-8.8,2.3-13,4C1112.6,190.6,1113.8,193.6,1115.1,196.7z"/>
			<path class="st2" d="M1118.6,294.7c8.3,1.8,18.6,0.6,26.3-3.2c7.9-3.9,14.6-11.2,18.7-19c4.1-7.7,4.8-16.7,1.5-24.8
				c-3.9-9.7-12-16.7-20.3-22.6c-4.6-3.3-9.4-6.4-13.7-10.1c-3.7-3.1-6.8-6.6-9.6-10.5c0-0.1,0-0.3-0.1-0.4c-0.9-4.9-5.1-7.8-10-7.5
				c-4.7,0.3-9.4,2.8-13.4,5.1c-4.3,2.5-8.1,5.7-11.4,9.3c-3,3.2-6.6,7.6-4.9,12.3c0.7,2,2.2,3.5,3.3,5.2c1.4,2.1,2.7,4.4,3.8,6.7
				c2,4.5,3.2,9.2,4,14.1c1.4,9.5,1.6,19.4,5.6,28.3C1102.2,286.4,1109.2,292.6,1118.6,294.7z"/>
			<path class="st5" d="M1110.3,277.3c-3.1-4.4-4.2-9.3-5.1-14.5c-2.8-17.2-8.9-34.9-23.4-45c-0.7,1.8-0.9,3.6-0.2,5.6
				c0.7,2,2.2,3.5,3.3,5.2c1.4,2.1,2.7,4.4,3.8,6.7c2,4.5,3.2,9.2,4,14.1c1.4,9.5,1.6,19.4,5.6,28.3c3.9,8.8,10.9,14.9,20.4,17
				c4.4,0.9,9.3,1.1,14.1,0.4c-4.1-1.8-7.9-4.4-11.4-7.1C1117.3,284.9,1113.2,281.5,1110.3,277.3z"/>
			<path class="st1" d="M1055,252.2c2.5,2.5,7.1,2.9,9.2,0.1c20.9-27.5,49.2-49.5,84-54.8c3.4-0.5,5.1-4.9,4.1-8.2
				c-1.2-3.9-4.8-5.6-8.2-5c-36.8,5.6-67.6,29.2-89.8,58.3C1052.3,245.3,1052.2,249.4,1055,252.2z"/>
		</g>
	</g>
</g>
<g>
	<g class="st7">
		<path d="M938.6,315.3c0.4-8,0.7-16.1-0.4-24.1c-1.2-8.2-3.9-18.4-13.4-18.9h-0.1l0,0c-0.4,0-0.7,0-1.1,0c-0.6-0.1-1.3-0.2-1.9-0.2
			c-1.2,0-2.4,0.2-3.4,0.9c-1.4,0.6-2.7,1.5-3.7,2.7c-3.7,4.2-3.6,10.1-4.6,15.2c-1.1,5.7-3.3,11.4-7.8,15.4c-8,7.1-19.7,7.6-28.1,1
			c-4.5-3.5-7.3-8.6-8.3-14.2c-1-5.5-0.3-10.8-0.4-16.3c0-2.3-0.6-4.5-1.7-6.2c-1.2-3.5-5.1-5.9-8.8-6c-0.4,0-0.8,0-1.2,0
			c-2.1-0.1-4.2,0.3-5.8,1.3c-1.8,0.6-3.2,2-4.3,3.8c-0.1,0.1-0.1,0.1-0.2,0.2c-0.1,0.1-0.2,0.2-0.3,0.4c-0.3,0.2-0.6,0.5-0.8,1
			c-0.1,0.2-0.2,0.4-0.2,0.6c-0.1,0.1-0.2,0.3-0.3,0.4c-0.5,0.4-0.7,0.9-0.8,1.4c-1.3,2.5-2.3,5.2-2.8,8c-2.2,6-4.3,12.1-6.1,18.2
			c-2.8,9.4-5.9,19.2-6.3,29c-0.6,16.4,9,30.4,23.1,38.2c8,4.5,17.1,6.8,26.1,7.7c8.4,0.8,17.2,0.8,25.6-0.8
			c7.5-1.4,15-4.1,20.9-9.1c0.1-0.1,0.2-0.2,0.3-0.3c1.3-0.9,2.5-1.9,3.7-3.1c5.9-5.8,8.9-13.4,10.6-21.4
			C937.8,332.2,938.1,323.7,938.6,315.3z"/>
		<path class="st8" d="M853,272.2c4.8,5.1,3.2,14.1,4.5,20.6c1.7,8.7,5.4,15.5,12.2,21.3c7,6,18.8,9.3,28.2,6.2
			c8.5-2.8,14.7-9.3,17.7-17.5c3.4-9.3,1.3-22.2,7-30.6c-0.3,0-0.6-0.1-0.8-0.1c-1.2,0-2.4,0.2-3.4,0.9c-1.4,0.6-2.7,1.5-3.7,2.7
			c-3.7,4.2-3.6,10.1-4.6,15.2c-1.1,5.7-3.3,11.4-7.8,15.4c-8,7.1-19.7,7.6-28.1,1c-4.5-3.5-7.3-8.6-8.3-14.2
			c-1-5.5-0.3-10.8-0.4-16.3c0-2.3-0.6-4.5-1.7-6.2c-1.2-3.5-5.1-5.9-8.8-6c-0.1,0-0.2,0-0.4,0c-0.2,0.1-0.4,0.4-0.6,0.4
			C850.8,264.9,851.1,270.1,853,272.2z"/>
		<path d="M985.1,293c-4.3-3-10.5-3.3-14.2-7.1c-3.3-3.5-3.5-9-5.8-13.1c-2.2-3.9-6.1-6.6-10.6-7c-0.3,0-0.6,0-0.9-0.1
			c-2.5-3.3-7.1-4.6-11.1-4.9c-9.7-0.6-18.8,4-25.2,11.1c-3.2,3.5-5.6,7.8-7.1,12.3c-1.8,5.7-2.1,12.2-5.3,17.4
			c-5.9,9.5-21.2,14.1-29.3,4.6c-7.4-8.8-6.4-22.4-10.1-32.8c-1.9-5.5-5.6-10.2-10.2-13.8c-2.2-1.8-4.8-3-7.2-4.5
			c1-0.8,1.8-1.9,2.3-3.1c1.7-3.7,0.3-8.7-3.4-10.5c-4.2-2-8.5,0.8-9.1,5.2c-0.3,2.4,0.3,4.7,1.6,6.7c-1.7,0-3.5-0.4-5-0.8
			c-6.3-1.7-14.9-4.5-15.6-12.1c-0.3-3.1-5-2.4-4.7,0.7c0.5,5.1,3.7,9.1,8,11.7c4.8,2.9,11.3,5.1,16.9,5.3c1.5,0,3-0.1,4.4-0.5
			c0.4,0.3,0.8,0.6,1.2,0.9c4.7,3.2,9.4,5.3,12.6,10.3c3.1,4.9,4.5,10.7,5.7,16.2c2.2,10.2,4.4,23.3,14.5,28.8
			c9,4.9,20.5,2.1,27.6-4.8c3.7-3.6,5.9-8,7.2-13c1.5-5.6,2.2-11.3,5.3-16.4c5.1-8.4,14.7-14.9,24.8-14c1.5,0.1,3.4,0.4,5.1,1.1
			c-1.9,0.8-3.5,2.1-4,4.1c-1.1,4.2,3.2,8,7.2,6.7c3.2-1,4.7-3.9,4.7-6.9c4.9,1.2,6.6,6.3,8.1,11c1.8,5.3,4.7,9.1,9.9,11.3
			c4.4,1.9,14,3.9,12.3,10.6c-0.7,3,4,3.6,4.8,0.6C991.5,299.6,988.7,295.5,985.1,293z M843,246.2c1.4-1.9,3.2,0.3,3.4,1.8
			s-0.6,2.8-1.7,3.7c-0.1,0.1-0.2,0.1-0.3,0.2C842.9,250.1,841.8,248,843,246.2z M950.2,272.2c-0.9,1.1-2.8,0.7-1.7-0.7
			c0.4-0.5,1.2-0.8,2-0.9C950.6,271.1,950.5,271.8,950.2,272.2z"/>
		<path d="M939.6,329.2c0.7-0.6,1.3-1.4,1.8-2c1.4-1.8,2.2-3.9,2.6-6.1c0.8-3.8-0.3-7.4-2.1-10.8c-0.5-0.9-1.3-2-1.4-2.8
			c0.2,0.2,1.3-1.6,1.4-1.7c2.3-3.1,3.6-6.5,3.5-10.4c-0.1-3.7-1.9-7-4.8-9.2c-1.1-0.8-2.4-1.5-3.8-2.1c0.5,2.1,0.9,4.2,1.2,6.2
			c1.1,8,0.9,16.1,0.4,24.1c-0.5,8.4-0.8,16.9-2.6,25.1c-1.8,8-4.7,15.6-10.6,21.4c-1.1,1.1-2.4,2.1-3.7,3.1
			c-0.1,0.1-0.2,0.2-0.3,0.3c-5.9,5-13.4,7.7-20.9,9.1c-8.4,1.5-17.1,1.6-25.6,0.8c-9-0.9-18.1-3.2-26.1-7.7
			c-14-7.8-23.3-21.8-22.8-38.2c0.4-9.8,3.6-19.4,6.4-28.7c1.8-6.1,4.4-12.4,6.6-18.4c0.6-2.8,1.5-5.5,2.8-8c0.1-0.5,0.3-1,0.8-1.4
			c0.1-0.1,0.2-0.3,0.3-0.4c0.1-0.2,0.2-0.4,0.2-0.6c0.2-0.5,0.5-0.8,0.8-1c0.1-0.1,0.2-0.2,0.3-0.4c0.1-0.1,0.1-0.2,0.2-0.2
			c0.5-0.7,1-1.4,1.5-2c-0.3,0-0.7,0-1.1,0.1c-7,1.1-14.4,5.2-13.3,13.2c0.1,0.7,0.2,1.6,0.4,2.4c-3.4,1.7-5.9,4.3-6.6,8.2
			c-0.5,3.1,0.2,6.1,1.3,9c0.4,1.1,0.9,2.2,0.9,3.2c0,0.1-0.2,0.2-0.3,0.5c-0.2,0.3-0.5,0.6-0.8,0.9c-0.1,0.1-0.2,0.2-0.2,0.3
			c-0.4,0.4-0.9,0.8-1.3,1.2c-0.9,0.9-1.9,1.8-2.8,2.9c-2,2.3-3.1,5.2-3,8.2c0.1,3.2,1.7,5.8,3.6,8.3c0.1,0.1,0.7,0.6,0.8,0.8
			c0,0,0,0,0,0.1c0,0-0.1,0-0.1-0.1c0,0,0.1,0,0.1,0.1l0,0c-0.1,0.3-0.3,0.6-0.4,0.9c0.2-0.4-0.6,0.9-0.6,1
			c-0.3,0.4-0.6,0.9-0.9,1.3c-0.8,1.2-1.6,2.4-2.4,3.7c-1.4,2.4-2.1,5.2-1.7,7.9c0.5,3.3,2.5,5.9,5,7.9c0.8,0.7,1.9,1.2,2.2,1.9
			c-0.1-0.1-0.1,1.6-0.1,2c-0.2,6.9,2.3,13.6,9.1,16.5c1.5,0.6,3.1,1,4.7,1.2c1.1,0.1,1,0,1.6,0.4c0.9,0.7,1.6,2.1,2.4,3
			c1.2,1.4,2.6,2.7,4.1,3.8c6.1,4.3,12.6,4.8,19.8,4.1c2.9-0.3,4.6,0.7,7.3,2c3.2,1.5,6.4,2.6,10,2.3c5.7-0.4,10.1-4.7,14.7-6.6
			c1.6-0.7,4.3-0.6,6.6-0.5c3.6,0,7.1-0.3,10.3-2.2c3.1-1.8,5.2-4.4,6-7.9c0.1-0.3,0.2-0.7,0.2-1c0.1,0,0.2,0,0.2,0
			c7,0.1,13.5-4.3,14.4-11.7c0.2-1.6,0-3.2-0.3-4.7c0-0.1-0.1-0.4-0.2-0.7c0.6-0.3,1.1-0.5,1.3-0.6c1.4-0.5,2.8-1.2,3.9-2.2
			C946.7,342.9,943.5,334.1,939.6,329.2z M921.3,366.6C921.3,365.6,921.9,365.8,921.3,366.6L921.3,366.6z M939.3,329.4
			c0.1,0,0.1-0.1,0.2-0.1C939.4,329.7,938.4,330,939.3,329.4z"/>
		<path class="st8" d="M916.3,343.5c-8.9,7.8-18.7,15.1-28.7,21.4c-5.9,3.7-12.1,7-18.7,9.2c2,0.4,4.1,0.6,6.1,0.8
			c8.4,0.8,17.2,0.8,25.6-0.8c7.5-1.4,15-4.1,20.9-9.1c0.1-0.1,0.2-0.2,0.3-0.3c1.3-0.9,2.5-1.9,3.7-3.1c5.9-5.8,8.9-13.4,10.6-21.4
			c1.8-8.2,2.2-16.7,2.6-25.1c0.4-8,0.7-16.1-0.4-24.1c-0.4-2.6-0.9-5.3-1.7-7.9C938.3,305.4,933.5,328.3,916.3,343.5z"/>
	</g>
	<g>
		<g>
			<path class="st1" d="M935.8,312.5c0.4-8,0.7-16.1-0.4-24.1c-1.2-8.2-3.9-18.4-13.4-18.9h-0.1l0,0c-0.4,0-0.7,0-1.1,0
				c-0.6-0.1-1.3-0.2-1.9-0.2c-1.2,0-2.4,0.2-3.4,0.9c-1.4,0.6-2.7,1.5-3.7,2.7c-3.7,4.2-3.6,10.1-4.6,15.2
				c-1.1,5.7-3.3,11.4-7.8,15.4c-8,7.1-19.7,7.6-28.1,1c-4.5-3.5-7.3-8.6-8.3-14.2c-1-5.5-0.3-10.8-0.4-16.3c0-2.3-0.6-4.5-1.7-6.2
				c-1.2-3.5-5.1-5.9-8.8-6c-0.4,0-0.8,0-1.2,0c-2.1-0.1-4.2,0.3-5.8,1.3c-1.8,0.6-3.2,2-4.3,3.8c-0.1,0.1-0.1,0.1-0.2,0.2
				c-0.1,0.1-0.2,0.2-0.3,0.4c-0.3,0.2-0.6,0.5-0.8,1c-0.1,0.2-0.2,0.4-0.2,0.6c-0.1,0.1-0.2,0.3-0.3,0.4c-0.5,0.4-0.7,0.9-0.8,1.4
				c-1.3,2.5-2.3,5.2-2.8,8c-2.2,6-4.3,12.1-6.1,18.2c-2.8,9.4-5.9,19.2-6.3,29c-0.6,16.4,9,30.4,23.1,38.2c8,4.5,17.1,6.8,26.1,7.7
				c8.4,0.8,17.2,0.8,25.6-0.8c7.5-1.4,15-4.1,20.9-9.1c0.1-0.1,0.2-0.2,0.3-0.3c1.3-0.9,2.5-1.9,3.7-3.1
				c5.9-5.8,8.9-13.4,10.6-21.4C935,329.4,935.3,320.9,935.8,312.5z"/>
			<path class="st5" d="M850.2,269.4c4.8,5.1,3.2,14.1,4.5,20.6c1.7,8.7,5.4,15.5,12.2,21.3c7,6,18.8,9.3,28.2,6.2
				c8.5-2.8,14.7-9.3,17.7-17.5c3.4-9.3,1.3-22.2,7-30.6c-0.3,0-0.6-0.1-0.8-0.1c-1.2,0-2.4,0.2-3.4,0.9c-1.4,0.6-2.7,1.5-3.7,2.7
				c-3.7,4.2-3.6,10.1-4.6,15.2c-1.1,5.7-3.3,11.4-7.8,15.4c-8,7.1-19.7,7.6-28.1,1c-4.5-3.5-7.3-8.6-8.3-14.2
				c-1-5.5-0.3-10.8-0.4-16.3c0-2.3-0.6-4.5-1.7-6.2c-1.2-3.5-5.1-5.9-8.8-6c-0.1,0-0.2,0-0.4,0c-0.2,0.1-0.4,0.4-0.6,0.4
				C848,262.1,848.3,267.3,850.2,269.4z"/>
			<path class="st2" d="M982.3,290.2c-4.3-3-10.5-3.3-14.2-7.1c-3.3-3.5-3.5-9-5.8-13.1c-2.2-3.9-6.1-6.6-10.6-7
				c-0.3,0-0.6,0-0.9-0.1c-2.5-3.3-7.1-4.6-11.1-4.9c-9.7-0.6-18.8,4-25.2,11.1c-3.2,3.5-5.6,7.8-7.1,12.3
				c-1.8,5.7-2.1,12.2-5.3,17.4c-5.9,9.5-21.2,14.1-29.3,4.6c-7.4-8.8-6.4-22.4-10.1-32.8c-1.9-5.5-5.6-10.2-10.2-13.8
				c-2.2-1.8-4.8-3-7.2-4.5c1-0.8,1.8-1.9,2.3-3.1c1.7-3.7,0.3-8.7-3.4-10.5c-4.2-2-8.5,0.8-9.1,5.2c-0.3,2.4,0.3,4.7,1.6,6.7
				c-1.7,0-3.5-0.4-5-0.8c-6.3-1.7-14.9-4.5-15.6-12.1c-0.3-3.1-5-2.4-4.7,0.7c0.5,5.1,3.7,9.1,8,11.7c4.8,2.9,11.3,5.1,16.9,5.3
				c1.5,0,3-0.1,4.4-0.5c0.4,0.3,0.8,0.6,1.2,0.9c4.7,3.2,9.4,5.3,12.6,10.3c3.1,4.9,4.5,10.7,5.7,16.2c2.2,10.2,4.4,23.3,14.5,28.8
				c9,4.9,20.5,2.1,27.6-4.8c3.7-3.6,5.9-8,7.2-13c1.5-5.6,2.2-11.3,5.3-16.4c5.1-8.4,14.7-14.9,24.8-14c1.5,0.1,3.4,0.4,5.1,1.1
				c-1.9,0.8-3.5,2.1-4,4.1c-1.1,4.2,3.2,8,7.2,6.7c3.2-1,4.7-3.9,4.7-6.9c4.9,1.2,6.6,6.3,8.1,11c1.8,5.3,4.7,9.1,9.9,11.3
				c4.4,1.9,14,3.9,12.3,10.6c-0.7,3,4,3.6,4.8,0.6C988.7,296.8,985.9,292.7,982.3,290.2z M840.2,243.4c1.4-1.9,3.2,0.3,3.4,1.8
				s-0.6,2.8-1.7,3.7c-0.1,0.1-0.2,0.1-0.3,0.2C840.1,247.3,839,245.2,840.2,243.4z M947.4,269.4c-0.9,1.1-2.8,0.7-1.7-0.7
				c0.4-0.5,1.2-0.8,2-0.9C947.8,268.3,947.7,269,947.4,269.4z"/>
			<path class="st1" d="M936.8,326.4c0.7-0.6,1.3-1.4,1.8-2c1.4-1.8,2.2-3.9,2.6-6.1c0.8-3.8-0.3-7.4-2.1-10.8
				c-0.5-0.9-1.3-2-1.4-2.8c0.2,0.2,1.3-1.6,1.4-1.7c2.3-3.1,3.6-6.5,3.5-10.4c-0.1-3.7-1.9-7-4.8-9.2c-1.1-0.8-2.4-1.5-3.8-2.1
				c0.5,2.1,0.9,4.2,1.2,6.2c1.1,8,0.9,16.1,0.4,24.1c-0.5,8.4-0.8,16.9-2.6,25.1c-1.8,8-4.7,15.6-10.6,21.4
				c-1.1,1.1-2.4,2.1-3.7,3.1c-0.1,0.1-0.2,0.2-0.3,0.3c-5.9,5-13.4,7.7-20.9,9.1c-8.4,1.5-17.1,1.6-25.6,0.8
				c-9-0.9-18.1-3.2-26.1-7.7c-14-7.8-23.3-21.8-22.8-38.2c0.4-9.8,3.6-19.4,6.4-28.7c1.8-6.1,4.4-12.4,6.6-18.4
				c0.6-2.8,1.5-5.5,2.8-8c0.1-0.5,0.3-1,0.8-1.4c0.1-0.1,0.2-0.3,0.3-0.4c0.1-0.2,0.2-0.4,0.2-0.6c0.2-0.5,0.5-0.8,0.8-1
				c0.1-0.1,0.2-0.2,0.3-0.4c0.1-0.1,0.1-0.2,0.2-0.2c0.5-0.7,1-1.4,1.5-2c-0.3,0-0.7,0-1.1,0.1c-7,1.1-14.4,5.2-13.3,13.2
				c0.1,0.7,0.2,1.6,0.4,2.4c-3.4,1.7-5.9,4.3-6.6,8.2c-0.5,3.1,0.2,6.1,1.3,9c0.4,1.1,0.9,2.2,0.9,3.2c0,0.1-0.2,0.2-0.3,0.5
				c-0.2,0.3-0.5,0.6-0.8,0.9c-0.1,0.1-0.2,0.2-0.2,0.3c-0.4,0.4-0.9,0.8-1.3,1.2c-0.9,0.9-1.9,1.8-2.8,2.9c-2,2.3-3.1,5.2-3,8.2
				c0.1,3.2,1.7,5.8,3.6,8.3c0.1,0.1,0.7,0.6,0.8,0.8c0,0,0,0,0,0.1c0,0-0.1,0-0.1-0.1c0,0,0.1,0,0.1,0.1l0,0
				c-0.1,0.3-0.3,0.6-0.4,0.9c0.2-0.4-0.6,0.9-0.6,1c-0.3,0.4-0.6,0.9-0.9,1.3c-0.8,1.2-1.6,2.4-2.4,3.7c-1.4,2.4-2.1,5.2-1.7,7.9
				c0.5,3.3,2.5,5.9,5,7.9c0.8,0.7,1.9,1.2,2.2,1.9c-0.1-0.1-0.1,1.6-0.1,2c-0.2,6.9,2.3,13.6,9.1,16.5c1.5,0.6,3.1,1,4.7,1.2
				c1.1,0.1,1,0,1.6,0.4c0.9,0.7,1.6,2.1,2.4,3c1.2,1.4,2.6,2.7,4.1,3.8c6.1,4.3,12.6,4.8,19.8,4.1c2.9-0.3,4.6,0.7,7.3,2
				c3.2,1.5,6.4,2.6,10,2.3c5.7-0.4,10.1-4.7,14.7-6.6c1.6-0.7,4.3-0.6,6.6-0.5c3.6,0,7.1-0.3,10.3-2.2c3.1-1.8,5.2-4.4,6-7.9
				c0.1-0.3,0.2-0.7,0.2-1c0.1,0,0.2,0,0.2,0c7,0.1,13.5-4.3,14.4-11.7c0.2-1.6,0-3.2-0.3-4.7c0-0.1-0.1-0.4-0.2-0.7
				c0.6-0.3,1.1-0.5,1.3-0.6c1.4-0.5,2.8-1.2,3.9-2.2C943.9,340.1,940.7,331.3,936.8,326.4z M918.5,363.8
				C918.5,362.8,919.1,363,918.5,363.8L918.5,363.8z M936.5,326.6c0.1,0,0.1-0.1,0.2-0.1C936.6,326.9,935.6,327.2,936.5,326.6z"/>
			<path class="st5" d="M913.5,340.7c-8.9,7.8-18.7,15.1-28.7,21.4c-5.9,3.7-12.1,7-18.7,9.2c2,0.4,4.1,0.6,6.1,0.8
				c8.4,0.8,17.2,0.8,25.6-0.8c7.5-1.4,15-4.1,20.9-9.1c0.1-0.1,0.2-0.2,0.3-0.3c1.3-0.9,2.5-1.9,3.7-3.1
				c5.9-5.8,8.9-13.4,10.6-21.4c1.8-8.2,2.2-16.7,2.6-25.1c0.4-8,0.7-16.1-0.4-24.1c-0.4-2.6-0.9-5.3-1.7-7.9
				C935.5,302.6,930.7,325.5,913.5,340.7z"/>
		</g>
	</g>
</g>
<g>
	<g class="st7">
		<path d="M572.5,232c-6-9.2-15.5-14.8-23.3-22.2c-1.5-1.5-3-3-4.4-4.6c-0.9-2.4-1.6-5-2.2-7.5c-2.1-9.7-2.6-19.8-7-28.8
			c-6.6-13.6-20.2-19-34.2-18.7c-2.3-0.2-4.6-0.1-6.8,0.2c-0.2,0-0.3,0.1-0.5,0.1c-1.4,0.1-2.8,0.2-4.2,0.4
			c-4.5,0.8-8.5,2.7-12.1,5.2c-13,7-21.9,20.3-21.2,35.7c0.5,10.4,5.7,17.9,13.1,24.6c4.4,4,6.6,8.1,5.6,14.2
			c-0.7,4-2.5,7.7-4.6,11.3c-1.9,2.1-3.9,4.1-5.9,5.9c-14.3,12.9-33.4,19.9-52.7,18.8c-2.8-0.2-4.2,2.3-4,4.4c0,0.6,0.1,1.2,0.4,1.7
			c2,3.2,4.6,6,7.7,8.2c-1.8-1-4.7,1.4-4.7,3.7c0,2.4,1.9,4.2,3.7,5.8c2.9,2.5,5.8,5,8.7,7.6c-1.7,0.2-2.7,2.3-2.3,3.8
			c0,0,0,0,0,0.1c-1.8,1.8-2.4,4.6-0.2,7.1c12.5,14.5,31.4,20.9,50.1,22.5c19.7,1.7,39.8-1.6,57.5-10.4
			C559.9,305.7,596.1,268,572.5,232z"/>
		<path class="st8" d="M532.2,265.4c-0.7-0.9-2.1-0.3-2.4,0.6c-0.3,1-0.7,1.9-1.1,2.8c-1.6,0.9-3,1.9-4.4,3.2
			c-0.4,0.3-0.5,0.7-0.5,1.1c-0.2,0.3-0.3,0.5-0.5,0.8c-0.1-0.1-0.3-0.1-0.4-0.2c-0.4-0.3-0.9-0.4-1.4,0c-1.1,0.7-2.2,1.4-3.2,2
			c-1.9,1-3.7,2.2-5.4,3.4c-0.2,0.1-0.3,0.3-0.5,0.5c-0.9,0.5-1.7,1.1-2.6,1.6c-2.5,1.3-5,2.6-7.4,4.1c-0.8,0.3-1.6,0.7-2.3,1
			c-2.3,0.9-4.6,1.7-7,2.6c-0.3-0.4-0.8-0.7-1.5-0.7c-3.4,0.5-6.7,1.2-10,2.1c0,0,0,0-0.1,0c-1.6,0.3-3.2,0.6-4.8,0.9
			c-0.9,0-1.9,0-2.8,0c-3.6-0.3-7.1-0.8-10.7-1.3c-0.4-0.1-0.8,0.1-1,0.4c-0.1,0-0.2,0-0.4-0.1c-0.2,0-0.3,0-0.5,0
			c-3-1.6-5.7-3.7-8.1-6.2c-1.2-1.3-3.3,0.6-2,1.9c2.9,3,6.2,5.4,9.9,7.3c0.2,0.2,0.4,0.3,0.7,0.4c0.1,0,0.2,0,0.3,0.1
			c12.6,6.1,28.7,6.3,41.7,3.4C515.7,294.5,544.8,282.2,532.2,265.4z"/>
		<path d="M573.5,172.3c-1.7-3.2-7.2-2.7-10.1-2.4c-9.1,0.9-17,2.3-25.8,0.7c-0.6-0.2-1.3-0.5-1.9-0.8c-0.3,0.1-0.6,0.3-0.8,0.5
			c-0.9,0.9-1.1,2.9-1.2,4.1c-0.3,3.8,0.7,7.8,2,11.4c1.2,3.2,2.8,5.3,5.3,6.6c1.4-0.5,2.7-1.1,4-1.8c2.1-0.4,4.2-0.9,6.1-1.5
			C555.9,187.6,578.2,180.9,573.5,172.3z"/>
		<path d="M529.7,264.8c-9.2,9.2-20.5,16.1-32.9,20.1c-11.5,3.8-26,6.1-37.9,3c-5.1-1.3-9.4-6.4-5-11c1.9-2,4.5-3.2,6.9-4.4
			c3.8-1.9,7.4-4,10.8-6.5c16,2.8,32.2-2.3,43.8-13.7c1.3-1.3-0.9-3.1-2.2-1.8c-10.2,10-24.4,14.7-38.5,13.1
			c0.1-0.1,0.3-0.2,0.4-0.3c8.4-7,15-15.7,19.6-25.6c0.8-1.7-1.8-2.9-2.6-1.2c-6.7,14.6-18,26.2-32.3,33.3c-3.9,2-8.8,4.1-10.4,8.5
			c-1.7,4.8,1.6,9.3,5.9,11.3c5.5,2.5,12.7,2.3,18.7,2.1c7-0.2,14-1.4,20.7-3.3c14-4,26.8-11.6,37.1-21.9
			C533.1,265.4,530.9,263.6,529.7,264.8z"/>
		<path d="M510.1,176.2c-1.9,0.8-3,2.8-2.3,4.8l0.1,0.3c0.7,1.9,2.9,3,4.8,2.3c1.9-0.8,3-2.8,2.3-4.8l-0.1-0.3
			C514.2,176.7,512,175.5,510.1,176.2z"/>
		<path d="M490.4,227.1c8.6-0.9,17.2-2.4,25.5-4.9c8.3-2.5,16.3-5.8,24.2-9.4c2.8-1.3,5.4-2.6,8-4.1c-1.1-1.1-2.2-2.3-3.3-3.4
			c-0.5-1.2-0.9-2.4-1.2-3.7c-2,1.1-4,2.2-6.1,3.1c-8.1,3.7-16.3,7.1-24.8,9.6c-7.9,2.3-16.1,3.8-24.3,4.6
			c-4.2,0.4-8.4,0.4-12.6,0.1c-1.4-0.1-2.7-0.3-4.1-0.5c2.4,2.7,3.8,5.5,3.9,9c0.7,0.1,1.3,0.1,2,0.1
			C481.8,227.8,486.1,227.6,490.4,227.1z"/>
		<path d="M558.1,201.4c-1-1.4-2-2.8-3-4.2c-1.6-2.2-3.6-5.2-6.5-5.8c-4.1-0.8-5.3,4.3-5.7,8.8c-0.4,0.9-0.4,2-0.2,3.2
			c-0.2,0.7-0.2,1.5,0.2,2.4v0.1c0,0.4,0.3,0.6,0.5,0.7c1.5,2,3.9,3.1,6.2,3.7c3.2,0.8,13.2,1,11.1-5
			C560.3,204,559,202.6,558.1,201.4z"/>
		<path d="M540.7,205.8c-4.4-0.9-17.4-2.2-13.9,5.9c1.6,3.7,4.1,7,7.2,9.5c2,1.7,5.4,4.8,8.1,2.7c2.6-2.1,1.9-6.8,1.5-9.6
			c-0.3-1.6-0.8-5.6-2.3-7.5C541.3,206.4,541.2,205.9,540.7,205.8z"/>
		<path d="M543,202c-1.9,0.3-4.8,2.4-5.4,4.3c-0.3,1,0.3,1.7,0.9,2.4c0.2,0.2,0.4,0.5,0.6,0.7c0.6,1,1.4,1.9,1.9,2.5
			c0.3,0.3,0.5,0.5,0.8,0.7c0,0.1,0.1,0.1,0.1,0.2c0.3,0.3,0.6,0.3,0.9,0.2c1.1,0.1,2.2-0.8,3.2-1.8c1.8-1.6,2.8-3.2,1.4-5.5
			C546.6,204.1,545.1,201.7,543,202z"/>
	</g>
	<g>
		<g>
			<path class="st4" d="M569.7,229.2c-6-9.2-15.5-14.8-23.3-22.2c-1.5-1.5-3-3-4.4-4.6c-0.9-2.4-1.6-5-2.2-7.5
				c-2.1-9.7-2.6-19.8-7-28.8c-6.6-13.6-20.2-19-34.2-18.7c-2.3-0.2-4.6-0.1-6.8,0.2c-0.2,0-0.3,0.1-0.5,0.1
				c-1.4,0.1-2.8,0.2-4.2,0.4c-4.5,0.8-8.5,2.7-12.1,5.2c-13,7-21.9,20.3-21.2,35.7c0.5,10.4,5.7,17.9,13.1,24.6
				c4.4,4,6.6,8.1,5.6,14.2c-0.7,4-2.5,7.7-4.6,11.3c-1.9,2.1-3.9,4.1-5.9,5.9c-14.3,12.9-33.4,19.9-52.7,18.8
				c-2.8-0.2-4.2,2.3-4,4.4c0,0.6,0.1,1.2,0.4,1.7c2,3.2,4.6,6,7.7,8.2c-1.8-1-4.7,1.4-4.7,3.7c0,2.4,1.9,4.2,3.7,5.8
				c2.9,2.5,5.8,5,8.7,7.6c-1.7,0.2-2.7,2.3-2.3,3.8c0,0,0,0,0,0.1c-1.8,1.8-2.4,4.6-0.2,7.1c12.5,14.5,31.4,20.9,50.1,22.5
				c19.7,1.7,39.8-1.6,57.5-10.4C557.1,302.9,593.3,265.2,569.7,229.2z"/>
			<path class="st5" d="M529.4,262.6c-0.7-0.9-2.1-0.3-2.4,0.6c-0.3,1-0.7,1.9-1.1,2.8c-1.6,0.9-3,1.9-4.4,3.2
				c-0.4,0.3-0.5,0.7-0.5,1.1c-0.2,0.3-0.3,0.5-0.5,0.8c-0.1-0.1-0.3-0.1-0.4-0.2c-0.4-0.3-0.9-0.4-1.4,0c-1.1,0.7-2.2,1.4-3.2,2
				c-1.9,1-3.7,2.2-5.4,3.4c-0.2,0.1-0.3,0.3-0.5,0.5c-0.9,0.5-1.7,1.1-2.6,1.6c-2.5,1.3-5,2.6-7.4,4.1c-0.8,0.3-1.6,0.7-2.3,1
				c-2.3,0.9-4.6,1.7-7,2.6c-0.3-0.4-0.8-0.7-1.5-0.7c-3.4,0.5-6.7,1.2-10,2.1c0,0,0,0-0.1,0c-1.6,0.3-3.2,0.6-4.8,0.9
				c-0.9,0-1.9,0-2.8,0c-3.6-0.3-7.1-0.8-10.7-1.3c-0.4-0.1-0.8,0.1-1,0.4c-0.1,0-0.2,0-0.4-0.1c-0.2,0-0.3,0-0.5,0
				c-3-1.6-5.7-3.7-8.1-6.2c-1.2-1.3-3.3,0.6-2,1.9c2.9,3,6.2,5.4,9.9,7.3c0.2,0.2,0.4,0.3,0.7,0.4c0.1,0,0.2,0,0.3,0.1
				c12.6,6.1,28.7,6.3,41.7,3.4C512.9,291.7,542,279.4,529.4,262.6z"/>
			<path class="st9" d="M570.7,169.5c-1.7-3.2-7.2-2.7-10.1-2.4c-9.1,0.9-17,2.3-25.8,0.7c-0.6-0.2-1.3-0.5-1.9-0.8
				c-0.3,0.1-0.6,0.3-0.8,0.5c-0.9,0.9-1.1,2.9-1.2,4.1c-0.3,3.8,0.7,7.8,2,11.4c1.2,3.2,2.8,5.3,5.3,6.6c1.4-0.5,2.7-1.1,4-1.8
				c2.1-0.4,4.2-0.9,6.1-1.5C553.1,184.8,575.4,178.1,570.7,169.5z"/>
			<path class="st9" d="M526.9,262c-9.2,9.2-20.5,16.1-32.9,20.1c-11.5,3.8-26,6.1-37.9,3c-5.1-1.3-9.4-6.4-5-11
				c1.9-2,4.5-3.2,6.9-4.4c3.8-1.9,7.4-4,10.8-6.5c16,2.8,32.2-2.3,43.8-13.7c1.3-1.3-0.9-3.1-2.2-1.8c-10.2,10-24.4,14.7-38.5,13.1
				c0.1-0.1,0.3-0.2,0.4-0.3c8.4-7,15-15.7,19.6-25.6c0.8-1.7-1.8-2.9-2.6-1.2c-6.7,14.6-18,26.2-32.3,33.3c-3.9,2-8.8,4.1-10.4,8.5
				c-1.7,4.8,1.6,9.3,5.9,11.3c5.5,2.5,12.7,2.3,18.7,2.1c7-0.2,14-1.4,20.7-3.3c14-4,26.8-11.6,37.1-21.9
				C530.3,262.6,528.1,260.8,526.9,262z"/>
			<path class="st10" d="M507.3,173.4c-1.9,0.8-3,2.8-2.3,4.8l0.1,0.3c0.7,1.9,2.9,3,4.8,2.3c1.9-0.8,3-2.8,2.3-4.8l-0.1-0.3
				C511.4,173.9,509.2,172.7,507.3,173.4z"/>
			<path class="st6" d="M487.6,224.3c8.6-0.9,17.2-2.4,25.5-4.9c8.3-2.5,16.3-5.8,24.2-9.4c2.8-1.3,5.4-2.6,8-4.1
				c-1.1-1.1-2.2-2.3-3.3-3.4c-0.5-1.2-0.9-2.4-1.2-3.7c-2,1.1-4,2.2-6.1,3.1c-8.1,3.7-16.3,7.1-24.8,9.6
				c-7.9,2.3-16.1,3.8-24.3,4.6c-4.2,0.4-8.4,0.4-12.6,0.1c-1.4-0.1-2.7-0.3-4.1-0.5c2.4,2.7,3.8,5.5,3.9,9c0.7,0.1,1.3,0.1,2,0.1
				C479,225,483.3,224.8,487.6,224.3z"/>
			<path class="st1" d="M555.3,198.6c-1-1.4-2-2.8-3-4.2c-1.6-2.2-3.6-5.2-6.5-5.8c-4.1-0.8-5.3,4.3-5.7,8.8c-0.4,0.9-0.4,2-0.2,3.2
				c-0.2,0.7-0.2,1.5,0.2,2.4v0.1c0,0.4,0.3,0.6,0.5,0.7c1.5,2,3.9,3.1,6.2,3.7c3.2,0.8,13.2,1,11.1-5
				C557.5,201.2,556.2,199.8,555.3,198.6z"/>
			<path class="st1" d="M537.9,203c-4.4-0.9-17.4-2.2-13.9,5.9c1.6,3.7,4.1,7,7.2,9.5c2,1.7,5.4,4.8,8.1,2.7
				c2.6-2.1,1.9-6.8,1.5-9.6c-0.3-1.6-0.8-5.6-2.3-7.5C538.5,203.6,538.4,203.1,537.9,203z"/>
			<path class="st6" d="M540.2,199.2c-1.9,0.3-4.8,2.4-5.4,4.3c-0.3,1,0.3,1.7,0.9,2.4c0.2,0.2,0.4,0.5,0.6,0.7
				c0.6,1,1.4,1.9,1.9,2.5c0.3,0.3,0.5,0.5,0.8,0.7c0,0.1,0.1,0.1,0.1,0.2c0.3,0.3,0.6,0.3,0.9,0.2c1.1,0.1,2.2-0.8,3.2-1.8
				c1.8-1.6,2.8-3.2,1.4-5.5C543.8,201.3,542.3,198.9,540.2,199.2z"/>
		</g>
	</g>
</g>
<path class="st4" d="M187,122.1c-0.5-1-1.5-1.7-2.6-1.7l-21.5-0.5l-11.8-18c-0.6-0.9-1.7-1.4-2.8-1.3s-2.1,0.9-2.4,2l-7.1,20.3
	l-20.8,5.7c-1.1,0.3-1.9,1.2-2.1,2.3s0.2,2.2,1.1,2.9l17.2,13l-1,21.5c-0.1,1.1,0.5,2.2,1.5,2.7c0.3,0.2,0.6,0.3,0.9,0.3
	c0.8,0.1,1.5,0,2.2-0.5l17.7-12.3l20.2,7.6c1.1,0.4,2.2,0.2,3.1-0.6c0.8-0.8,1.1-1.9,0.8-3l-6.2-20.6l13.5-16.8
	C187.3,124.3,187.5,123.1,187,122.1z"/>
<path class="st3" d="M178.1,166.1c0.2-0.1,0.3-0.2,0.5-0.4c0.4-0.3,0.6-0.8,0.8-1.3C179,165.1,178.6,165.6,178.1,166.1z"/>
<path class="st3" d="M151.8,158.5c2.3-0.7,4.4-0.2,6.7,0.2c2.4,0.5,4.8,0.8,7.3,1.1c2.1,0.2,4.2,0.4,6.4,0.4c0.1,0,0.2,0,0.2,0
	c-0.1-0.6-0.1-1.4-0.2-1.8c-0.9-4.2-2.4-8.3-4-12.3c-1.9-4.4-0.5-7.1,2.8-10.2c4.2-3.9,13-8.9,13.6-15.5c-0.1,0-0.1,0-0.2,0
	l-21.5-0.5l-11.8-18c-0.6-0.9-1.7-1.4-2.8-1.3s-2.1,0.9-2.4,2l-7.1,20.3l-20.8,5.7c-1.1,0.3-1.9,1.2-2.1,2.3s0.2,2.2,1.1,2.9
	l17.2,13l-1,21.5c-0.1,1.1,0.5,2.2,1.5,2.7c0,0,0.1,0,0.1,0.1c2.2-1.9,4.5-3.8,6.8-5.6C144.5,163.1,147.9,159.7,151.8,158.5z"/>
<path class="st5" d="M179.4,162.7l-6.2-20.6l13.5-16.8c0.7-0.9,0.9-2.1,0.4-3.1c-0.4-1-1.4-1.6-2.4-1.7c-0.5,6.6-9.3,11.6-13.6,15.5
	c-3.4,3.1-4.7,5.8-2.8,10.2c1.7,4,3.1,8.1,4,12.3c0.1,0.4,0.1,1.1,0.2,1.8c-0.1,0-0.2,0-0.2,0c-2.1,0-4.3-0.2-6.4-0.4
	c-2.4-0.3-4.9-0.6-7.3-1.1c-2.3-0.4-4.4-0.9-6.7-0.2c-3.9,1.2-7.3,4.6-10.4,7.1c-2.3,1.8-4.5,3.7-6.8,5.6c0.3,0.1,0.5,0.2,0.8,0.3
	c0.8,0.1,1.5,0,2.2-0.5l17.7-12.3l20.2,7.6c0.9,0.3,1.8,0.2,2.6-0.3c0.5-0.4,1-1,1.3-1.6C179.5,163.9,179.5,163.3,179.4,162.7z"/>
<path class="st4" d="M1383.9,106.2c-0.6-0.6-1.5-0.9-2.3-0.7l-15.8,4.4l-12.6-10.6c-0.7-0.6-1.6-0.7-2.4-0.3c-0.8,0.3-1.3,1.1-1.4,2
	l-0.7,16.4l-13.9,8.7c-0.7,0.5-1.1,1.3-1.1,2.1c0.1,0.9,0.7,1.6,1.5,1.9l15.4,5.8l4,15.9c0.2,0.8,0.9,1.5,1.7,1.7
	c0.3,0.1,0.5,0.1,0.8,0c0.6-0.1,1.1-0.4,1.5-0.8l10.3-12.8l16.4,1.2c0.9,0.1,1.7-0.4,2.1-1.1c0.4-0.7,0.4-1.7-0.1-2.4l-9-13.7
	l6.2-15.2C1384.7,107.7,1384.5,106.8,1383.9,106.2z"/>
<path class="st3" d="M1387,140.2c0.1-0.1,0.2-0.2,0.3-0.4c0.2-0.3,0.3-0.7,0.3-1.1C1387.5,139.3,1387.3,139.8,1387,140.2z"/>
<path class="st3" d="M1366.2,140.4c1.5-1,3.2-1.1,4.9-1.3c1.9-0.2,3.7-0.4,5.6-0.8c1.6-0.3,3.2-0.7,4.8-1.1c0.1,0,0.1,0,0.2-0.1
	c-0.2-0.4-0.4-1-0.5-1.2c-1.6-2.9-3.5-5.6-5.6-8.1c-2.3-2.8-1.9-5.1-0.2-8.1c2.3-3.8,7.6-9.3,6.5-14.3c-0.1,0-0.1,0-0.2,0l-15.8,4.4
	l-12.6-10.6c-0.7-0.6-1.6-0.7-2.4-0.3c-0.8,0.3-1.3,1.1-1.4,2l-0.7,16.4l-13.9,8.7c-0.7,0.5-1.1,1.3-1.1,2.1
	c0.1,0.9,0.7,1.6,1.5,1.9l15.4,5.8l4,15.9c0.2,0.8,0.9,1.5,1.7,1.7h0.1c1.2-1.9,2.5-3.7,3.7-5.6
	C1361.9,145.4,1363.6,142.1,1366.2,140.4z"/>
<path class="st5" d="M1387.2,137.5l-9-13.7l6.2-15.2c0.3-0.8,0.2-1.7-0.4-2.4c-0.5-0.6-1.3-0.9-2.1-0.7c1,5-4.3,10.5-6.5,14.3
	c-1.8,3-2.2,5.3,0.2,8.1c2.1,2.5,4,5.2,5.6,8.1c0.2,0.3,0.3,0.8,0.5,1.2c-0.1,0-0.1,0-0.2,0.1c-1.6,0.4-3.2,0.8-4.8,1.1
	c-1.8,0.3-3.7,0.6-5.6,0.8c-1.7,0.2-3.4,0.3-4.9,1.3c-2.6,1.7-4.3,5-6,7.5c-1.3,1.8-2.5,3.7-3.7,5.6c0.2,0,0.4,0,0.6,0
	c0.6-0.1,1.1-0.4,1.5-0.8l10.3-12.8l16.4,1.2c0.7,0.1,1.4-0.2,1.8-0.8c0.3-0.4,0.5-0.9,0.6-1.4
	C1387.6,138.3,1387.5,137.9,1387.2,137.5z"/>
<path class="st3" d="M628.3,560.9c-3.8-1.4-7.5-3.3-11-5.6C621.2,558.9,624.4,560.6,628.3,560.9z"/>
<g>
	<g class="st7">
		<path d="M700.6,353.1L700.6,353.1c-0.3-0.3-0.6-0.6-0.9-1l0,0l0,0l0,0c0,0,0,0-0.1,0c0,0-0.1,0-0.1-0.1c-0.7-0.3-1.5-0.5-2.2-0.7
			c0,0,0,0,0.1,0c-1.5-0.4-3-0.8-4.5-1c-6.7-0.9-13.4-1.8-20.1-2.7c-3.1-0.4-6.2-0.7-9.4-0.9l0,0c-0.6,0-1.3-0.1-1.9-0.1l0,0
			c-0.2,0-0.4,0-0.6,0c-0.1,0-0.2,0-0.4,0c-0.1,0-0.1,0-0.2,0c-0.2,0-0.3,0-0.5,0c-0.5,0-1.1,0-1.6,0c-0.1,0-0.2,0-0.4,0
			c-0.1,0-0.3,0-0.4,0c-0.1,0-0.2,0-0.3,0c-0.6,0-1.2,0-1.8,0c-0.1,0-0.2,0-0.2,0c-0.2,0-0.4,0-0.6,0h-0.1c-0.9,0-1.8,0-2.7,0.1
			c-2.9,0.2-5.8,0.1-8.7,0.1c-0.6,0-1.1,0-1.7,0c0,0,0,0-0.1,0s-0.3,0-0.4,0c-0.2,0-0.4,0-0.6,0c-0.2,0-0.3,0-0.5,0l0,0
			c-0.5,0-1.1,0.1-1.6,0.1c0,0,0,0-0.1,0c-0.4,0-0.7,0-1.1,0.1c-0.4,0-0.8,0-1.1,0c-9.5,2-9.9,3.9-11.9,7.7
			c-2.4,4.8-3.2,29.6-28.4,37.9s-34.5-28.8-47.6-23c-8.1,3.6-14.1,6.6-18.4,9.4c-2.7,1.7-5.2,3.6-7.7,5.6c-5,4-10.4,7.6-15.8,11.1
			c-2.7,1.7-5.4,3.4-7.9,5.4c-1.4,1.1-3.4,2.1-4.2,3.7c-1,2,0.2,4.8,0.7,6.7c1,3.6,2.3,7.1,3.6,10.6c2.2,6.3,4.5,12.7,7.2,18.8
			c1.7,3.8,4.3,5.6,8.4,5.4c9.1-0.4,17.4-5,25.6-9.2c11.3,30.4,19.8,71.5,20.8,84.3c1.2,15.7,22.8-2.6,44.2,20.5
			c21.5,23.1,21.2,24.7,43,19s15.1-35.8,22.4-47.5c7.3-11.7,24.4-14.2,29.3-23.6c4.5-8.8-19.9-49.8-26.7-90.1c6-1.5,12-2.8,18.1-3.9
			c5.4-1,10.3-1.3,11.2-9.1c0.9-7.7,1-16,0.3-24.1c0-0.1,0-0.3,0-0.4c0-1.7,0.1-3.9-0.1-6c-0.2-0.6-0.3-1.3-0.5-1.9
			C701.3,353.9,701,353.5,700.6,353.1z"/>
		<path d="M605.1,400.2c11.1-4.9,17.9-15.4,22.3-27.2c3-8,5.7-16.7,6.8-25.6c-1.4,0.3-2.5,0.7-3.5,1c-1,6.5-2.8,12.8-4.8,18.8
			c-3.7,11.5-9.4,23-19.8,28.5c-22,11.7-44-7.1-58.1-26.1c-1,0.5-2,0.9-3,1.4C559.4,390.8,581.9,410.4,605.1,400.2z"/>
		<path d="M604.2,526.5c-6.4-5.5-13.7-7.7-21.5-9c-4.6-0.8-9.2-1.7-13.8-1.1c-3,0.4-6,1.3-8.9,2.1c0.1,1.1,0.2,2.1,0.3,3
			c0,0.2,0.1,0.4,0.1,0.6c3.5-0.9,7-2.1,10.6-2.3c3.9-0.2,8,0.6,11.8,1.3c10.2,1.8,17.4,5.8,25.2,13.6c6.7,6.7,13,13.5,17.7,22.1
			c1.2,2.3,2.4,4.5,3.7,6.8c1.2,0.3,2.5,0.4,3.9,0.3c-2.9-5-5.4-10.5-8.7-15.3C619,540.3,611.6,532.8,604.2,526.5z"/>
		<path d="M663.3,517.9c3.4-7.9,7.8-16.6,14-22.2c6.1-5.6,13.9-11.2,22-12.8c-0.2-1.1-0.5-2.2-0.9-3.5c-8.3,1.5-15.8,7.1-22.2,12.6
			c-7.3,6.2-12.5,15.9-16.2,25c-3.4,8.4-4.8,17.6-4.8,26.9c0,4.3,0.2,8.6,0.6,12.9c1.2-1.1,2.3-2.3,3.2-3.6
			c-0.3-4.4-0.5-8.3-0.5-9.1C658.5,534.9,659.8,526,663.3,517.9z"/>
		<path d="M503.1,412.4c-1.4-3.6-3.4-7.7-4.2-11.7c-0.2,0.2-0.4,0.3-0.6,0.5c-0.7,0.6-1.6,1.1-2.4,1.7c0.8,2.7,1.9,5.3,2.9,7.8
			c2,5.3,3.9,10.6,6,15.8c2.6,6.7,5.4,13.4,8.7,19.8c0.2,0,0.3,0,0.5,0c1.1,0,2.2-0.2,3.3-0.3c-3.5-6.6-6.4-13.5-9.1-20.4
			C506.3,421.2,504.7,416.8,503.1,412.4z"/>
		<path d="M697.4,376.5c0.3-8.1,0.7-17-0.5-25.3c-1.2-0.3-2.4-0.6-3.7-0.8c1.3,8.4,0.9,17.8,0.6,26c-0.1,4.4-0.3,8.9-0.5,13.3
			c-0.1,1.8-0.1,3.6-0.2,5.5c1.3-0.2,2.4-0.5,3.5-1c0-0.6,0.1-1.3,0.1-1.9C697.1,387.2,697.2,381.8,697.4,376.5z"/>
		<path class="st8" d="M647.4,523.8c-4.6-2.4-9-5-13.7-7.1c-8.7-4-16.9-8.3-24.8-13.7c-7.7-5.3-13.8-9.5-20.5-15.7
			c-7-6.5-12.3-13.3-17.3-21.4c-5.1-8.2-10.1-16.4-14-25.3c-4.2-9.3-7.2-18.8-9.7-28.7c-2.9-11.3-5.9-22.5-8.6-33.8
			c-0.3-1.2-0.6-2.5-0.9-3.7c-3.3,1.6-6,3.2-8.3,4.7c-2.7,1.7-5.2,3.6-7.7,5.6c-5,4-10.4,7.6-15.8,11.1c-2.7,1.7-5.4,3.4-7.9,5.4
			c-1.4,1.1-3.4,2.1-4.2,3.7c-1,2,0.2,4.8,0.7,6.7c1,3.6,2.3,7.1,3.6,10.6c2.2,6.3,4.5,12.7,7.2,18.8c1.7,3.8,4.3,5.6,8.4,5.4
			c9.1-0.4,17.4-5,25.6-9.2c11.3,30.4,19.8,71.5,20.8,84.3c1.2,15.7,22.8-2.6,44.2,20.5c21.5,23.1,21.2,24.7,43,19
			c14.1-3.7,16.3-17.8,18.1-30.3c-2.4-0.8-4.8-1.6-7.1-2.5C654.5,526.8,650.8,525.6,647.4,523.8z"/>
		<path d="M658.2,418.1c-0.6-1.9-1-4.1-1.7-6.1c-0.1-0.5-0.2-0.9-0.3-1.4c-0.9-3.5-2.3-3.2-5.4-2.7c-4.7,0.7-9.2,2-13.8,3.2
			c-3.7,1-7.6,2.2-11.1,3.6c-2.8,1.2-0.9,5.6-0.3,8c1.7,6.7,3.8,15.1,8.5,20.7c1.7,2.3,3.8,4.6,6.1,5.4c3.8,1.4,8.1,0,11.5-1.5
			c3-1.3,7.2-3.6,8.4-7.2c0.6-1.9,0.3-4.5,0.3-6.5c-0.1-2.2-0.3-4.5-0.7-6.7C659.5,423.9,659,420.9,658.2,418.1z"/>
	</g>
	<g>
		<g>
			<path class="st1" d="M697.8,350.3L697.8,350.3c-0.3-0.3-0.6-0.6-0.9-1l0,0l0,0l0,0c0,0,0,0-0.1,0c0,0-0.1,0-0.1-0.1
				c-0.7-0.3-1.5-0.5-2.2-0.7c0,0,0,0,0.1,0c-1.5-0.4-3-0.8-4.5-1c-6.7-0.9-13.4-1.8-20.1-2.7c-3.1-0.4-6.2-0.7-9.4-0.9l0,0
				c-0.6,0-1.3-0.1-1.9-0.1l0,0c-0.2,0-0.4,0-0.6,0c-0.1,0-0.2,0-0.4,0c-0.1,0-0.1,0-0.2,0c-0.2,0-0.3,0-0.5,0c-0.5,0-1.1,0-1.6,0
				c-0.1,0-0.2,0-0.4,0c-0.1,0-0.3,0-0.4,0c-0.1,0-0.2,0-0.3,0c-0.6,0-1.2,0-1.8,0c-0.1,0-0.2,0-0.2,0c-0.2,0-0.4,0-0.6,0h-0.1
				c-0.9,0-1.8,0-2.7,0.1c-2.9,0.2-5.8,0.1-8.7,0.1c-0.6,0-1.1,0-1.7,0c0,0,0,0-0.1,0s-0.3,0-0.4,0c-0.2,0-0.4,0-0.6,0
				c-0.2,0-0.3,0-0.5,0l0,0c-0.5,0-1.1,0.1-1.6,0.1c0,0,0,0-0.1,0c-0.4,0-0.7,0-1.1,0.1c-0.4,0-0.8,0-1.1,0c-9.5,2-9.9,3.9-11.9,7.7
				c-2.4,4.8-3.2,29.6-28.4,37.9s-34.5-28.8-47.6-23c-8.1,3.6-14.1,6.6-18.4,9.4c-2.7,1.7-5.2,3.6-7.7,5.6c-5,4-10.4,7.6-15.8,11.1
				c-2.7,1.7-5.4,3.4-7.9,5.4c-1.4,1.1-3.4,2.1-4.2,3.7c-1,2,0.2,4.8,0.7,6.7c1,3.6,2.3,7.1,3.6,10.6c2.2,6.3,4.5,12.7,7.2,18.8
				c1.7,3.8,4.3,5.6,8.4,5.4c9.1-0.4,17.4-5,25.6-9.2c11.3,30.4,19.8,71.5,20.8,84.3c1.2,15.7,22.8-2.6,44.2,20.5
				c21.5,23.1,21.2,24.7,43,19s15.1-35.8,22.4-47.5s24.4-14.2,29.3-23.6c4.5-8.8-19.9-49.8-26.7-90.1c6-1.5,12-2.8,18.1-3.9
				c5.4-1,10.3-1.3,11.2-9.1c0.9-7.7,1-16,0.3-24.1c0-0.1,0-0.3,0-0.4c0-1.7,0.1-3.9-0.1-6c-0.2-0.6-0.3-1.3-0.5-1.9
				C698.5,351.1,698.2,350.7,697.8,350.3z"/>
			<path class="st6" d="M602.3,397.4c11.1-4.9,17.9-15.4,22.3-27.2c3-8,5.7-16.7,6.8-25.6c-1.4,0.3-2.5,0.7-3.5,1
				c-1,6.5-2.8,12.8-4.8,18.8c-3.7,11.5-9.4,23-19.8,28.5c-22,11.7-44-7.1-58.1-26.1c-1,0.5-2,0.9-3,1.4
				C556.6,388,579.1,407.6,602.3,397.4z"/>
			<path class="st6" d="M601.4,523.7c-6.4-5.5-13.7-7.7-21.5-9c-4.6-0.8-9.2-1.7-13.8-1.1c-3,0.4-6,1.3-8.9,2.1
				c0.1,1.1,0.2,2.1,0.3,3c0,0.2,0.1,0.4,0.1,0.6c3.5-0.9,7-2.1,10.6-2.3c3.9-0.2,8,0.6,11.8,1.3c10.2,1.8,17.4,5.8,25.2,13.6
				c6.7,6.7,13,13.5,17.7,22.1c1.2,2.3,2.4,4.5,3.7,6.8c1.2,0.3,2.5,0.4,3.9,0.3c-2.9-5-5.4-10.5-8.7-15.3
				C616.2,537.5,608.8,530,601.4,523.7z"/>
			<path class="st6" d="M660.5,515.1c3.4-7.9,7.8-16.6,14-22.2c6.1-5.6,13.9-11.2,22-12.8c-0.2-1.1-0.5-2.2-0.9-3.5
				c-8.3,1.5-15.8,7.1-22.2,12.6c-7.3,6.2-12.5,15.9-16.2,25c-3.4,8.4-4.8,17.6-4.8,26.9c0,4.3,0.2,8.6,0.6,12.9
				c1.2-1.1,2.3-2.3,3.2-3.6c-0.3-4.4-0.5-8.3-0.5-9.1C655.7,532.1,657,523.2,660.5,515.1z"/>
			<path class="st6" d="M500.3,409.6c-1.4-3.6-3.4-7.7-4.2-11.7c-0.2,0.2-0.4,0.3-0.6,0.5c-0.7,0.6-1.6,1.1-2.4,1.7
				c0.8,2.7,1.9,5.3,2.9,7.8c2,5.3,3.9,10.6,6,15.8c2.6,6.7,5.4,13.4,8.7,19.8c0.2,0,0.3,0,0.5,0c1.1,0,2.2-0.2,3.3-0.3
				c-3.5-6.6-6.4-13.5-9.1-20.4C503.5,418.4,501.9,414,500.3,409.6z"/>
			<path class="st6" d="M694.6,373.7c0.3-8.1,0.7-17-0.5-25.3c-1.2-0.3-2.4-0.6-3.7-0.8c1.3,8.4,0.9,17.8,0.6,26
				c-0.1,4.4-0.3,8.9-0.5,13.3c-0.1,1.8-0.1,3.6-0.2,5.5c1.3-0.2,2.4-0.5,3.5-1c0-0.6,0.1-1.3,0.1-1.9
				C694.3,384.4,694.4,379,694.6,373.7z"/>
			<path class="st5" d="M644.6,521c-4.6-2.4-9-5-13.7-7.1c-8.7-4-16.9-8.3-24.8-13.7c-7.7-5.3-13.8-9.5-20.5-15.7
				c-7-6.5-12.3-13.3-17.3-21.4c-5.1-8.2-10.1-16.4-14-25.3c-4.2-9.3-7.2-18.8-9.7-28.7c-2.9-11.3-5.9-22.5-8.6-33.8
				c-0.3-1.2-0.6-2.5-0.9-3.7c-3.3,1.6-6,3.2-8.3,4.7c-2.7,1.7-5.2,3.6-7.7,5.6c-5,4-10.4,7.6-15.8,11.1c-2.7,1.7-5.4,3.4-7.9,5.4
				c-1.4,1.1-3.4,2.1-4.2,3.7c-1,2,0.2,4.8,0.7,6.7c1,3.6,2.3,7.1,3.6,10.6c2.2,6.3,4.5,12.7,7.2,18.8c1.7,3.8,4.3,5.6,8.4,5.4
				c9.1-0.4,17.4-5,25.6-9.2c11.3,30.4,19.8,71.5,20.8,84.3c1.2,15.7,22.8-2.6,44.2,20.5c21.5,23.1,21.2,24.7,43,19
				c14.1-3.7,16.3-17.8,18.1-30.3c-2.4-0.8-4.8-1.6-7.1-2.5C651.7,524,648,522.8,644.6,521z"/>
			<path class="st6" d="M655.4,415.3c-0.6-1.9-1-4.1-1.7-6.1c-0.1-0.5-0.2-0.9-0.3-1.4c-0.9-3.5-2.3-3.2-5.4-2.7
				c-4.7,0.7-9.2,2-13.8,3.2c-3.7,1-7.6,2.2-11.1,3.6c-2.8,1.2-0.9,5.6-0.3,8c1.7,6.7,3.8,15.1,8.5,20.7c1.7,2.3,3.8,4.6,6.1,5.4
				c3.8,1.4,8.1,0,11.5-1.5c3-1.3,7.2-3.6,8.4-7.2c0.6-1.9,0.3-4.5,0.3-6.5c-0.1-2.2-0.3-4.5-0.7-6.7
				C656.7,421.1,656.2,418.1,655.4,415.3z"/>
		</g>
	</g>
</g>
<g>
	<path class="st11" d="M850.7,114.6c-0.4-17-2.6-28.3-7-35.4c-1.2-1.9-2.4-3.6-3.8-5.2c-4.8-5.3-11.2-8.1-18.1-8.1
		c-5.8,0-10.4,1.2-14,2.9c-2.7-1.8-5.9-2.6-9.3-2.6c-2.1,0-3.8,0.1-5.6,0.3l-0.1-0.1c-0.4-0.8-1-1.4-1.4-2.1
		c-0.2-0.2-0.3-0.4-0.5-0.7c-4.5-3.2-9.1-5.6-13.5-7.4c-0.9-0.1-1.8-0.2-2.5-0.3c-0.1-0.3-0.3-0.5-0.4-0.9
		c-10.4-3.6-20.2-4.1-28.3-3.2c-0.2,0.7-0.3,1.2-0.4,1.9c-7.6,0.4-14.7,2.7-21,6.3c-0.2,0.1-0.4,0.2-0.7,0.3
		c-0.2-0.5-0.4-1.2-0.8-1.8c-0.4-0.8-0.9-1.5-1.4-2.2c-2.6-3.3-6.5-5.2-10.7-5.2c-4.5,0-8.4,1.8-20.1,11.3
		c-1.4-4.9-4.7-8.6-9.2-10.3c-2.2-0.9-4.7-1.3-7.8-1.3c-8.1,0-16.2,0.9-20.7,6.8l0,0c-0.1,0.2-0.2,0.3-0.4,0.5
		c-2.1,3.1-3,6.8-3.1,12.3c0,6.2-0.1,12.8-0.3,19.6c-0.3,9.3-0.4,19.1-0.4,29.1c0,26.2,1.8,34.4,8.4,38.8c1.9,1.3,4.1,2.1,6.8,2.5
		c0.5,0.1,1.2,0.2,1.9,0.2l0,0c-1.6,1.5-2.9,3.4-3.7,5.5c-0.5,1.4-1,2.9-1.2,4.4c-0.1,0.8-0.1,1.4-0.1,2.2c0,4,1.4,7.6,4.1,10.3
		c2.3,2.4,5.1,4,8.1,4.7c1.8,0.4,3.4,0.7,4.9,0.7c0.7,0,1.4,0,2.1-0.1c0.7,3.3,2.5,6.2,5.3,8.2c4.7,3.7,10.7,5.6,17.7,5.6
		c5.6,0,10.8-1.4,15.2-4.2c0.7-0.4,1.3-0.9,2-1.3c4,2.9,9,4.5,14.8,4.5c4.7,0,8.7-2.1,11.1-5.4c1.8,0.4,3.4,0.7,5.1,0.7
		c3.3,0,6.4-0.7,9.1-2c0.5,0.5,1.2,1,1.9,1.4c3.3,2.1,6.9,2.4,9.8,2.4c4.5,0,8-1.4,10.7-3.6c0.1,0.1,0.3,0.2,0.4,0.3
		c3.8,2.7,8.4,4.2,13.3,4.2c8.8,0,16.1-4,20.8-11.3c1.6,0.3,3.2,0.5,4.6,0.5c4.8,0,9.1-1.5,12.4-4.6c3.3-3,5.2-7.1,5.2-11.8
		c0-3.5-1-6.6-2.7-9.2l0,0c-0.3-0.4-0.7-0.9-1.1-1.3c-3.3-3.7-7.9-5.8-13.1-5.8c-1.4,0-2.9,0.2-4.3,0.5c-0.2,0-0.4,0.1-0.7,0.2
		c-0.4-1.2-0.9-2.3-1.4-3.4c-0.1-0.2-0.2-0.3-0.3-0.5c-0.8-1.4-1.8-2.7-2.9-4.1c0,0-1.4-1.3-3-2.7c-1.8-1.6-3.6-3.5-3.6-3.5
		c0.2-0.2,0.7-0.5,1.2-1c0.8-0.7,1.8-1.3,2-1.6c0.7,0.8,1.8,2.2,3.1,3.6c2.7,3.2,6.5,7,9.2,8.6c0.5,0.3,1.1,0.5,1.5,0.7
		c1.4,0.2,2.5,0.4,3.6,0.4c0.3,0,0.7,0,1,0c0.8,0,2.1,0,4.1,0c2.3,0,4.4-0.2,6.2-0.5c0.1,0,0.1,0,0.2,0c4.9-1.1,8.9-4.4,10.9-9
		c1.3-2.9,1.9-6.5,1.9-12.1v-7.6C850.9,120.8,850.7,117.8,850.7,114.6z M821.5,166.3L821.5,166.3c0.1,0,0.3,0,0.4,0
		c0.3,0.1,0.7,0.2,1,0.3l0,0v0.1l0,0C822.5,166.6,822,166.5,821.5,166.3L821.5,166.3z"/>
	<path class="st2" d="M848.4,111.4c-0.3-16.7-2.5-27.7-6.9-34.8c-0.5-0.9-1.1-1.8-1.8-2.5c-5.1-6.8-12-10.6-19.9-10.6
		c-5.7,0-10.2,1.1-13.7,2.9c-2.6-1.6-5.7-2.6-9.2-2.6c-2,0-3.8,0.1-5.5,0.3l0,0l0,0c-0.3-0.2-0.5-0.4-0.9-0.7
		c-4.5-3.2-9.1-5.6-13.5-7.4c-1-0.4-2-0.8-3-1.1c-10.4-3.6-20.2-4.1-28.3-3.2c-9.5,1-16.7,3.8-20,5.2c-0.7,0.3-1.3,0.8-2,1.1
		c0-0.1,0-0.1-0.1-0.2l0,0l0,0c-0.5-1.3-1.2-2.5-2.1-3.6c-2.5-3.2-6.4-5.1-10.6-5.1c-4.1,0-7.5,1.2-19.7,11.1
		c-1.4-4.8-4.6-8.5-9.1-10.1c-2.2-0.9-4.7-1.2-7.6-1.2c-8.2,0-16.4,0.9-20.7,7.3c-0.3,0.5-0.7,1-0.9,1.5l0,0
		c-1.4,2.7-2.1,6-2.1,10.4c0,6-0.1,12.5-0.3,19.2c-0.3,9.2-0.4,18.8-0.4,28.6c0,25.6,1.8,33.9,8.1,38.2c2.2,1.4,4.9,2.4,8.5,2.7l0,0
		l0,0c-2.6,2.5-4.3,5.8-4.9,9.8c-0.1,0.7-0.1,1.4-0.1,2.1c0,3.8,1.4,7.5,4,10.1c2.2,2.3,4.9,4,8,4.6c1.8,0.4,3.4,0.7,4.8,0.7
		c0.7,0,1.3,0,2-0.1c0.7,3.2,2.5,6,5.2,8.1c4.6,3.6,10.4,5.5,17.4,5.5c5.5,0,10.6-1.4,15-4.1c0.7-0.4,1.3-0.9,1.9-1.3
		c3.8,2.9,8.8,4.4,14.6,4.4c4.6,0,8.6-2.1,11-5.3c1.8,0.4,3.4,0.7,5.1,0.7c3.2,0,6.3-0.7,9-1.9c0.5,0.5,1.2,1,1.8,1.4
		c3.3,2.1,6.8,2.3,9.6,2.3c4.4,0,7.9-1.4,10.4-3.5c0.1,0.1,0.3,0.2,0.4,0.3c3.7,2.7,8.1,4.1,13,4.1c8.6,0,15.7-3.8,20.5-11.1
		c1.6,0.3,3.1,0.5,4.5,0.5c4.7,0,8.9-1.5,12.2-4.5c3.3-2.9,5.1-7,5.1-11.7c0-4-1.3-7.6-3.7-10.4c-3.2-3.6-7.8-5.6-12.9-5.6
		c-1.4,0-2.7,0.1-4.2,0.4c-0.2,0-0.4,0.1-0.5,0.1c-1-2.9-2.5-5.5-4.5-7.8l0,0c0.4-0.4,0.9-0.9,1.2-1.3c0,0,0,0,0.1-0.1
		c2.2,2.9,5.3,4.7,8.9,5.4c1.9,0.3,3.3,0.4,4.5,0.5c0.8,0,2.1,0,4,0c2.3,0,4.3-0.1,6.3-0.5c4.8-1.1,8.8-4.3,10.8-8.8
		c1.2-2.9,1.8-6.4,1.8-11.9v-8C848.5,117.4,848.5,114.5,848.4,111.4z M673,88.4L673,88.4L673,88.4L673,88.4L673,88.4z"/>
	<g>
		<g>
			<path class="st12" d="M672.5,146.2H671c-3.2,0-5.3-0.3-6.5-1.1c-2.1-1.4-3.1-11-3.1-28.7c0-9.8,0.1-19.1,0.4-28.3
				c0.2-6.8,0.3-13.3,0.3-19.5c0-2.9,0.4-4.8,1.1-5.8c1.1-1.5,4.8-2.4,11.4-2.4c1.5,0,2.7,0.2,3.6,0.5c1.8,0.7,2.6,2.4,2.6,5.2v10.7
				c0,3.3,0.4,4.9,1.3,4.9c0,0,0.3,0,0.8,0c0.4,0,1.6-0.9,3.5-2.4l6.6-5.5c10.3-8.8,16.3-13.1,18-13.1c0.8,0,1.3,0.3,1.8,0.9
				c0.4,0.5,0.7,1.3,0.7,2.1c0,1-0.3,2.1-1,3.3c-1,1.9-6.3,6.4-15.7,13.4c-2.2,1.6-3.3,3.6-3.3,5.9c0,1.3,0.3,2.7,1.1,4.3l4.3,8.9
				c5.5,11.5,10.8,21.3,15.6,29.4c1.8,2.9,2.6,5.1,2.6,6.4c0,1-0.3,1.8-1,2.4c-0.5,0.5-1.4,1.3-2.5,2.1c-2.6,1.9-4.6,2.7-6,2.7
				c-1.2,0-2.2-0.4-3-1.3c-2-2.1-4.8-7-8.7-15c-2.5-5.3-6-13-10.7-23.2c-1.9-4.2-3.3-6.4-4.4-6.4c-0.9,0-1.2,2-1.2,5.9l0.1,36.4
				c0,2.9-0.4,4.7-1.3,5.8C677.6,146,675.5,146.2,672.5,146.2z"/>
		</g>
		<g>
			<path class="st12" d="M832,82.4c3.2,5.2,4.8,14.8,5.2,29.1c0.1,3,0.1,5.9,0.1,8.7v8c0,3.6-0.3,6.2-0.9,7.5s-1.5,2.1-2.9,2.4
				c-1,0.2-2.3,0.3-3.8,0.3c-1.9,0-3.1,0-3.7,0c-0.7,0-1.6-0.1-2.9-0.3c-1.2-0.2-2.1-0.9-2.5-2c-0.3-0.9-0.5-1.9-0.5-3
				c0-0.8,0.1-2.7,0.3-6c0.5-7.8,0.8-14.5,0.8-20.3c0-5.2-0.4-9.9-1.3-14.2c-1-5.3-3.2-7.9-6.5-7.9c-3.6,0-6.5,2.7-8.5,8.2
				c-0.9,2.3-1.3,5.8-1.3,10.4s0.2,10.1,0.5,16.7c0.2,4.5,0.4,8.2,0.4,11.2c0,2.4-0.3,4.1-1,5.1s-2,1.6-4.1,2s-4.4,0.4-7.1,0.4
				c-2.3,0-3.7-0.7-4.3-1.9c-0.4-1-0.7-2.3-0.7-3.7c0-5.5,0.2-23.1,0.7-53c0-2.4,0.8-3.8,2.3-4.4c1.5-0.5,3.6-0.9,6.3-0.9
				c3.2,0,5.2,1.9,6.2,5.5c0.3,1.4,0.8,2.2,1.2,2.2s1.1-0.7,2-2.1c2.5-3.8,7.1-5.8,13.6-5.8C824.9,74.7,828.9,77.4,832,82.4z"/>
		</g>
		<g>
			<g>
				<path class="st12" d="M819.7,173.4c-0.7,0-1.4-0.1-2.3-0.3c-0.9-0.2-1.8-0.7-2.4-1.4c-0.7-0.7-0.9-1.4-0.9-2.4
					c0-0.2,0-0.3,0-0.5c0.2-1.3,0.8-2.4,1.5-3.3c0.9-0.8,1.9-1.3,3-1.6c0.5-0.1,1.1-0.2,1.6-0.2c1.9,0,3.4,0.7,4.4,1.9
					c0.7,0.8,1,1.8,1,3.1c0,1.4-0.4,2.5-1.3,3.3C823.2,172.9,821.7,173.4,819.7,173.4z M819.7,171.1c0.8,0,1.4-0.2,2.1-0.7
					c0.7-0.4,1-1,1.2-1.8c0.1-0.3,0.1-0.7,0.1-0.9c0-0.4-0.1-0.9-0.3-1.2c-0.5-0.8-1.3-1.2-2.4-1.2c-1.1,0-2,0.4-2.6,1.2
					c-0.4,0.5-0.7,1.2-0.7,2.1c0,0.9,0.2,1.4,0.8,1.9C818.4,171,819,171.1,819.7,171.1z"/>
			</g>
			<g>
				<path class="st12" d="M678.5,173.4c-0.7,0-1.4-0.1-2.3-0.3c-0.9-0.2-1.8-0.7-2.4-1.4c-0.7-0.7-0.9-1.4-0.9-2.4
					c0-0.2,0-0.3,0-0.5c0.2-1.3,0.8-2.4,1.5-3.3c0.9-0.8,1.9-1.3,3-1.6c0.5-0.1,1.1-0.2,1.6-0.2c1.9,0,3.4,0.7,4.4,1.9
					c0.7,0.8,1,1.8,1,3.1c0,1.4-0.4,2.5-1.3,3.3C682.1,172.9,680.5,173.4,678.5,173.4z M678.5,171.1c0.8,0,1.4-0.2,2.1-0.7
					c0.7-0.4,1-1,1.2-1.8c0.1-0.3,0.1-0.7,0.1-0.9c0-0.4-0.1-0.9-0.3-1.2c-0.5-0.8-1.3-1.2-2.4-1.2s-2,0.4-2.6,1.2
					c-0.4,0.5-0.7,1.2-0.7,2.1c0,0.9,0.2,1.4,0.8,1.9C677.2,171,677.9,171.1,678.5,171.1z"/>
			</g>
		</g>
		<g>
			<path class="st12" d="M703.1,186.8c-4.4,0-7.8-1-10.4-3.1c-0.8-0.7-1.2-1.3-1.2-2.2c0-0.4,0.1-0.9,0.4-1.1
				c0.3-0.3,0.7-0.4,1.2-0.4c0.4,0,0.8,0.1,1.3,0.3c2.2,1.2,4.7,1.8,7.4,1.8c5.8,0,8.8-1.6,8.8-5.1c0-2.1-1.6-3.8-4.9-5.4
				c-3.1-1.4-5.4-2.5-6.9-3.4c-3.8-2.1-6.2-5.1-7.1-8.9c-0.2-0.9-0.3-1.8-0.3-2.6c0-4.6,1.9-8.1,5.6-10.8c2.4-1.6,5.3-2.4,8.7-2.4
				c4,0,7.1,1,9.6,3.1c0.8,0.7,1.1,1.3,1.1,2.2c0,0.4-0.1,0.9-0.4,1.1c-0.3,0.3-0.7,0.4-1.1,0.4c-0.3,0-0.8-0.1-1.2-0.3
				c-2.1-1.2-4.3-1.8-6.7-1.8c-3,0-5.2,0.8-6.4,2.4c-0.8,1-1.1,2.1-1.1,3.2c0,0.5,0.1,1.1,0.2,1.8c0.4,1.6,1.4,3,2.9,4
				c1.4,1,3.4,2.1,6,3.3c3.5,1.8,6.2,3.8,7.7,6.2c1.2,1.9,1.8,3.7,1.8,5.6c0,4.1-2,7.4-5.9,9.8C709.5,186.1,706.6,186.8,703.1,186.8
				z"/>
		</g>
		<g>
			<path class="st12" d="M734.6,185.8c-7.9,0-12.1-4.2-12.5-12.6c0-0.7,0-2.2,0-4.6c0-1.4-0.5-2.1-1.5-2.1c-1.4,0-2.1-0.5-2.1-1.8
				c0-0.9,0.5-1.4,1.6-1.4c0.8,0,1.3-0.1,1.8-0.3c0.4-0.2,0.7-0.8,0.7-1.8l0.4-8.9c0-1.1,0.3-2,0.9-2.6c0.5-0.7,1.6-0.9,3.5-0.9
				c1.4,0,2.4,0.1,3.1,0.2c0.7,0.1,1,0.5,1.3,1.1c0.1,0.4,0.2,1,0.2,1.6v8.9c0,0.8,0.1,1.3,0.2,1.8c0.3,0.5,1.1,0.9,2.5,1
				c1,0.1,1.6,0.4,2,0.9c0.2,0.3,0.2,0.5,0.2,0.9c0,0.7-0.7,1-2.1,1.1l-1.3,0.1c-0.7,0-1.2,0.2-1.6,0.7c-0.4,0.4-0.7,1.5-0.7,3.4
				v2.7c0,4.7,1.4,7.9,4.2,9.3c0.9,0.4,1.3,1.1,1.3,1.8C736.7,185.3,736,185.8,734.6,185.8z"/>
		</g>
		<g>
			<path class="st12" d="M750.5,181.2c-1.3,0-2.9-0.3-4.6-1c-1.8-0.7-3.4-2.2-4.8-4.6c-1.2-2-1.9-4.6-1.9-7.7c0-0.5,0-1.1,0.1-1.6
				c0.4-4.3,1.4-7.7,3.1-10.3c1.6-2.6,3.6-4.3,5.9-5.1c1.1-0.4,2.2-0.7,3.3-0.7c3.7,0,6.6,2,8.8,5.8c1.3,2.4,2,5.7,2,9.8
				c0,4.4-0.9,7.9-2.6,10.3C757.5,179.5,754.4,181.2,750.5,181.2z M750.4,174.1c1.4,0,2.9-0.7,4.1-2c1.2-1.3,2.1-3.2,2.4-5.7
				c0.2-1,0.2-2,0.2-2.9c0-1.5-0.2-2.9-0.7-4c-1-2.6-2.6-4-4.8-4c-2.1,0-3.8,1.2-5.3,3.7c-0.9,1.6-1.3,4-1.3,6.8
				c0,2.6,0.5,4.6,1.5,5.9C747.8,173.5,749,174.1,750.4,174.1z"/>
		</g>
		<g>
			<path class="st12" d="M770.9,183.1c-1.8,0-3-0.2-3.6-0.5c-0.7-0.4-0.9-1-0.9-1.8c0-0.3,0-0.8,0-1.2c0.2-3.8,0.3-7.7,0.4-11.5
				c0.1-4.5,0.3-9.5,0.5-15c0.1-1.3,0.7-2.1,1.9-2.4c0.8-0.2,1.6-0.2,2.4-0.2c1.1,0,2,1.2,2.5,3.7c0.1,0.5,0.2,0.8,0.4,0.8
				s0.4-0.2,0.7-0.8c1.9-3.2,4.2-4.8,7-4.8c0.5,0,1,0.1,1.4,0.4c0.5,0.3,0.8,0.9,0.8,1.6v0.5c0,1.2-1,2.1-3.1,2.5
				c-3.1,0.8-5.1,3.4-6,8c-0.7,3.1-1,6-1,8.8c0,1.1,0,2.2,0.1,3.3c0.2,2.2,0.3,3.8,0.3,5.1C775.1,182,773.8,183.1,770.9,183.1z"/>
		</g>
		<g>
			<path class="st12" d="M794.8,184c-2.5,0-4.6-0.7-6.5-2s-3.3-3.3-4.3-5.8c-0.9-2.4-1.4-5.1-1.4-7.8c0-3.1,0.5-5.9,1.5-8.8
				c1-2.6,2.4-4.9,4.4-6.7c2.2-2.1,4.8-3.1,7.9-3.1c2.5,0,4.6,1,6.3,2.9c2.1,2.3,3.1,5.3,3.1,8.8c0,2.7-1.8,4.6-5.3,5.7
				c-2.5,0.8-4.9,1.5-7.5,2.3c-1.2,0.3-1.9,0.8-2.1,1.2c-0.1,0.1-0.1,0.3-0.1,0.5c0,0.4,0.1,1,0.2,1.6c0.9,3.7,2.7,5.6,5.4,5.6
				c3.4,0,5.8-1.1,7.1-3.4c0.9-1.4,1.6-2.1,2.6-2.1c0.4,0,0.8,0.2,1,0.7c0.1,0.2,0.1,0.4,0.1,0.7c0,0.5-0.2,1.2-0.7,2.1
				C804.1,181.4,800.2,184,794.8,184z M791.2,166.1c0.8,0,3.6-1,8.8-3c1.2-0.4,1.9-1.2,1.9-2.3c0-0.9-0.2-1.9-0.5-2.9
				c-0.7-2-1.3-3.3-2.1-3.8s-1.5-0.9-2.2-0.9c-0.3,0-0.7,0.1-1.1,0.2c-1.3,0.4-2.5,1.4-3.5,3c-0.9,1.3-1.5,3.7-2,7.3
				c0,0.3-0.1,0.7-0.1,0.9c0,0.4,0,0.8,0.1,1.1C790.6,166,790.8,166.1,791.2,166.1z"/>
		</g>
	</g>
	<g>
		<path class="st13" d="M780,86.1c-0.1-0.4-0.3-0.9-0.4-1.4c-1.2-3.2-2.7-6.2-4.7-8.8c-0.9-1.2-1.9-2.4-3-3.5l-0.1-0.1
			c-2.1-1.8-4.3-3.1-6.6-4.1s-4.7-1.6-7.1-2c-0.5-0.1-1.2-0.1-1.8-0.1c-0.2,0-0.4,0-0.7,0c-0.1,0-0.2,0-0.4,0
			c-1.2,0-2.5,0.1-3.8,0.3l0,0c-1.4,0.2-2.7,0.5-4.2,1c-4.3,1.3-8.1,2.9-11.4,4.8c-1.5,0.9-3,1.9-4.3,3c-5.4,4.4-9.1,10.1-11,17
			c-0.3,1.2-0.7,2.5-0.9,4c-1,5.5-1,11.7,0,18.5c0.1,0.7,0.2,1.3,0.4,1.9c0.9,3.5,2.1,6.9,3.7,10.1c3.5,6.2,8,10.4,13.5,13
			c1.6,0.5,3.2,0.9,4.8,1.2c3.8,0.8,7.5,0.9,10.9,0.3c4.8-0.8,9.3-2.6,13.4-5.8c0.1-0.1,0.2-0.2,0.3-0.2c0.1-0.1,0.3-0.2,0.4-0.3
			c3-2.4,5.7-5.5,8.2-9.2c0.3-0.4,0.7-0.9,0.9-1.4c3.1-5.1,5.1-11.3,5.8-19c0.1-1.5,0.1-3.2,0.1-4.7C782.2,95.4,781.5,90.6,780,86.1
			z M749.7,124.3c-4.7,0.4-9.1-1.9-13-6.9c-1.9-3.1-2.9-6.5-3-9.9c-0.1-3.2,0.5-6.6,1.8-10.1c2.7-5.9,7.1-9.8,13.3-11.3
			c4.9-1.5,9.1-0.9,12.4,1.9c1.1,0.9,2.1,2,3,3.3c0.3,0.4,0.7,1,1,1.5c1.6,3.5,2.2,7.7,1.6,12.4c-0.8,4.6-2.3,8.5-4.6,11.4
			c-0.2,0.3-0.5,0.8-0.9,1.1c-2.1,2.5-4.7,4.5-7.9,5.8C752.2,123.9,750.9,124.2,749.7,124.3z"/>
		<path class="st14" d="M782.4,100.5c0,1.5,0,3.1-0.1,4.6c-0.8,7.6-2.7,14-5.8,18.9c-0.3,0.4-0.7,1-0.9,1.4
			c-5.1,7.4-10.8,12.2-17.4,14.5c4.5-2.6,8.6-6.7,12.2-12.1c0.3-0.4,0.7-0.9,0.9-1.4c3.1-5.1,5.1-11.3,5.8-18.9
			c0.1-1.5,0.1-3.2,0.1-4.6c-0.1-5.2-0.9-9.9-2.3-14.5c-0.1-0.4-0.3-0.9-0.4-1.4c-1.2-3.2-2.7-6.2-4.7-8.8c-0.9-1.2-1.9-2.4-3-3.5
			l-0.1-0.1c-2.1-1.8-4.3-3.1-6.5-4.1c-2.3-1-4.7-1.6-7.1-2c-0.5-0.1-1.2-0.1-1.8-0.1c-1.6-0.1-3.3,0-4.9,0.3l0,0
			c-1.3,0.2-2.7,0.5-4.2,1c-1.6,0.4-3.2,1-4.7,1.6c3-1.6,6.3-3,9.9-4c1.4-0.4,2.7-0.8,4.2-1l0,0c1.6-0.3,3.3-0.4,4.9-0.3
			c0.5,0,1.2,0,1.8,0.1c2.4,0.2,4.8,0.9,7.1,2c2.2,1,4.4,2.3,6.5,4.1l0.1,0.1c1.1,1.1,2.1,2.3,3,3.5c2,2.6,3.5,5.5,4.6,8.8
			c0.2,0.4,0.3,0.9,0.4,1.4C781.6,90.6,782.3,95.4,782.4,100.5z"/>
	</g>
</g>
</svg>
