<?xml version="1.0" encoding="utf-8"?>
<!-- Generator: Adobe Illustrator 24.0.2, SVG Export Plug-In . SVG Version: 6.00 Build 0)  -->
<svg version="1.1" id="Layer_1" xmlns="http://www.w3.org/2000/svg" xmlns:xlink="http://www.w3.org/1999/xlink" x="0px" y="0px"
	 viewBox="0 0 93.3 74.8" style="enable-background:new 0 0 93.3 74.8;" xml:space="preserve">
<style type="text/css">
	.st0{fill:#A91B0D;}
</style>
<title>quote.svg</title>
<title>quote.svg</title>
<g>
	<path class="st0" d="M0,74.8V55.9c5.1,0,9.4-1.9,12.9-5.8c3.5-3.8,5.3-8.4,5.3-13.7h-17C0.4,36.4,0,36,0,35.2v-34
		C0,0.4,0.4,0,1.2,0h34.4c0.8,0,1.2,0.4,1.2,1.2v35.3c0,7.1-1.7,13.6-5.2,19.5c-3.4,5.9-8,10.5-13.5,13.8C12.5,73.1,6.5,74.8,0,74.8
		z M56.6,74.8V55.9c5.1,0,9.4-1.9,12.9-5.8c3.5-3.8,5.3-8.4,5.3-13.7h-17c-0.8,0-1.2-0.4-1.2-1.2v-34C56.6,0.4,57,0,57.8,0h34.4
		c0.8,0,1.2,0.4,1.2,1.2v35.3c0,7.1-1.7,13.6-5.2,19.5c-3.4,5.9-8,10.5-13.5,13.8C69.1,73.1,63,74.8,56.6,74.8z"/>
</g>
</svg>
