<svg xmlns="http://www.w3.org/2000/svg" viewBox="0 0 37.21 28.3"><defs><style>.cls-1{fill:#dbdcda;}.cls-2{fill:#fff;}.cls-3{fill:#7f8080;}.cls-4{fill:#f58e8b;}.cls-5{fill:#f16262;}</style></defs><title>kon-store-logo</title><g id="Layer_2" data-name="Layer 2"><g id="Layer_1-2" data-name="Layer 1"><path class="cls-1" d="M37.19,12.05c-.07-3.13-.48-5.2-1.29-6.52a5.26,5.26,0,0,0-.71-.94,4.46,4.46,0,0,0-3.34-1.51,5.86,5.86,0,0,0-2.58.53,3.21,3.21,0,0,0-1.73-.49,6.4,6.4,0,0,0-1,.08l0,0-.27-.38a1.47,1.47,0,0,0-.1-.13A12.74,12.74,0,0,0,23.64,1.3l-.47-.06-.08-.15A11.72,11.72,0,0,0,17.88.51a2,2,0,0,0-.09.35A8.75,8.75,0,0,0,13.93,2l-.12.06a1.73,1.73,0,0,0-.14-.31,2.57,2.57,0,0,0-.26-.41,2.52,2.52,0,0,0-2-1c-.82,0-1.55.33-3.7,2.1A2.77,2.77,0,0,0,6,.61,3.9,3.9,0,0,0,4.6.38C3.1.38,1.61.53.79,1.63h0l-.08.1A3.94,3.94,0,0,0,.15,4c0,1.13,0,2.34-.06,3.6C0,9.32,0,11.13,0,13c0,4.81.33,6.34,1.53,7.15a3.32,3.32,0,0,0,1.25.47l.34,0h0a3,3,0,0,0-.69,1,3.45,3.45,0,0,0-.23.81,2.74,2.74,0,0,0,.73,2.3,3,3,0,0,0,1.49.87,3.88,3.88,0,0,0,.92.12l.38,0a2.65,2.65,0,0,0,1,1.52,5.12,5.12,0,0,0,3.26,1,5.21,5.21,0,0,0,2.8-.77l.36-.24a4.59,4.59,0,0,0,2.74.83,2.52,2.52,0,0,0,2.06-1,3.83,3.83,0,0,0,.93.12,4.16,4.16,0,0,0,1.69-.36,2.88,2.88,0,0,0,.34.27,3.27,3.27,0,0,0,1.8.44,2.93,2.93,0,0,0,2-.67l.07.06a4.22,4.22,0,0,0,2.45.77A4.41,4.41,0,0,0,31,25.66a3.9,3.9,0,0,0,.86.11,3.39,3.39,0,0,0,2.29-.84,2.89,2.89,0,0,0,.95-2.18A3,3,0,0,0,34.53,21h0c-.06-.08-.12-.17-.19-.25a3.18,3.18,0,0,0-2.42-1.06,3.39,3.39,0,0,0-.78.09l-.11,0a6,6,0,0,0-.27-.63l-.06-.1a4.12,4.12,0,0,0-.52-.74l-.53-.51c-.33-.3-.68-.64-.68-.64l.23-.18a3.07,3.07,0,0,0,.36-.29l.56.67A8.15,8.15,0,0,0,31.81,19a.75.75,0,0,0,.29.11,4.79,4.79,0,0,0,.67.09h.93a6,6,0,0,0,1.12-.1h0a2.85,2.85,0,0,0,2-1.66,5.56,5.56,0,0,0,.33-2.23V13.72C37.21,13.19,37.2,12.63,37.19,12.05ZM31.8,21.57h.08a.75.75,0,0,1,.18.07h0v0h0a1.58,1.58,0,0,0-.28-.08Z"/><path class="cls-2" d="M36.77,11.46c-.07-3.07-.47-5.11-1.26-6.4a4.29,4.29,0,0,0-.32-.47,4.48,4.48,0,0,0-3.66-1.94A5.66,5.66,0,0,0,29,3.18a3.13,3.13,0,0,0-1.7-.48,7.68,7.68,0,0,0-1,.06h0l-.16-.12A12.74,12.74,0,0,0,23.64,1.3l-.55-.21A11.72,11.72,0,0,0,17.88.51a13,13,0,0,0-3.68,1l-.38.21a0,0,0,0,0,0,0h0A2.7,2.7,0,0,0,13.43,1,2.45,2.45,0,0,0,11.49,0c-.75,0-1.39.21-3.63,2.05A2.75,2.75,0,0,0,6.18.23,3.76,3.76,0,0,0,4.77,0C3.26,0,1.75.16,1,1.34c-.06.1-.12.19-.17.29h0A4,4,0,0,0,.41,3.56C.4,4.68.38,5.87.34,7.1.29,8.79.26,10.56.26,12.37c0,4.72.32,6.23,1.5,7a3.55,3.55,0,0,0,1.56.51h0a3.06,3.06,0,0,0-.91,1.8,2.34,2.34,0,0,0,0,.38A2.7,2.7,0,0,0,3.12,24a2.9,2.9,0,0,0,1.47.85,3.72,3.72,0,0,0,.9.12l.37,0A2.61,2.61,0,0,0,6.8,26.4a5,5,0,0,0,3.21,1,5.12,5.12,0,0,0,2.75-.76,2.71,2.71,0,0,0,.35-.24,4.43,4.43,0,0,0,2.69.81,2.45,2.45,0,0,0,2-1,3.75,3.75,0,0,0,.92.12A4,4,0,0,0,20.4,26a2,2,0,0,0,.33.25,3.16,3.16,0,0,0,1.77.44,2.89,2.89,0,0,0,1.92-.66l.07.06a4,4,0,0,0,2.4.75,4.34,4.34,0,0,0,3.76-2,4.35,4.35,0,0,0,.84.1,3.32,3.32,0,0,0,2.25-.83A2.8,2.8,0,0,0,34.67,22,2.86,2.86,0,0,0,34,20a3.1,3.1,0,0,0-2.37-1,3.44,3.44,0,0,0-.77.09l-.11,0a4.43,4.43,0,0,0-.82-1.45h0l.23-.24h0a2.65,2.65,0,0,0,1.64,1,8.11,8.11,0,0,0,.84.09h.73a5.86,5.86,0,0,0,1.15-.1,2.78,2.78,0,0,0,2-1.62,5.62,5.62,0,0,0,.32-2.19V13.1C36.79,12.58,36.79,12,36.77,11.46ZM4.46,7.23h0Z"/><path class="cls-3" d="M4.36,17.88H4.08a2.37,2.37,0,0,1-1.19-.21c-.38-.26-.57-2-.57-5.3,0-1.79,0-3.53.08-5.2,0-1.26.06-2.46.07-3.6a2,2,0,0,1,.2-1.07c.19-.29.89-.44,2.1-.44a2,2,0,0,1,.67.09c.33.12.49.44.49,1v2c0,.61.08.92.25.92h.13A2,2,0,0,0,7,5.53l1.21-1c1.9-1.61,3-2.41,3.32-2.41a.39.39,0,0,1,.32.15.59.59,0,0,1,.13.39,1.32,1.32,0,0,1-.19.62A14.91,14.91,0,0,1,8.86,5.73a1.3,1.3,0,0,0-.61,1.09,1.88,1.88,0,0,0,.2.79l.8,1.65c1,2.13,2,3.93,2.87,5.42a2.65,2.65,0,0,1,.49,1.16.65.65,0,0,1-.17.44,3.2,3.2,0,0,1-.48.38,2.22,2.22,0,0,1-1.12.51.74.74,0,0,1-.55-.24,13.29,13.29,0,0,1-1.6-2.76q-.7-1.45-2-4.26c-.34-.78-.61-1.17-.8-1.17S5.7,9.1,5.7,9.83l0,6.7a1.63,1.63,0,0,1-.25,1.06A1.52,1.52,0,0,1,4.36,17.88Z"/><path class="cls-3" d="M33.75,6.14q.87,1.41,1,5.36c0,.56,0,1.09,0,1.6v1.48A4.1,4.1,0,0,1,34.58,16a.74.74,0,0,1-.53.44,3.57,3.57,0,0,1-.71.05h-.68a3.05,3.05,0,0,1-.52-.06.58.58,0,0,1-.46-.36,1.55,1.55,0,0,1-.09-.55q0-.21.06-1.11c.1-1.44.15-2.68.15-3.74A13.35,13.35,0,0,0,31.56,8c-.19-1-.59-1.45-1.21-1.45s-1.18.5-1.54,1.52A5.79,5.79,0,0,0,28.57,10c0,.85,0,1.87.11,3.08.05.84.07,1.53.07,2.06a1.83,1.83,0,0,1-.18.94,1,1,0,0,1-.75.36,12.09,12.09,0,0,1-1.32.09c-.43,0-.69-.11-.78-.34a1.59,1.59,0,0,1-.13-.68q0-1.51.13-9.76c0-.43.14-.71.42-.81a3.3,3.3,0,0,1,1.16-.16,1.13,1.13,0,0,1,1.13,1c.07.27.14.4.23.4s.2-.13.36-.38a2.78,2.78,0,0,1,2.51-1.08A2.56,2.56,0,0,1,33.75,6.14Z"/><path class="cls-3" d="M31.49,22.87a1.91,1.91,0,0,1-.43-.06,1,1,0,0,1-.45-.27.64.64,0,0,1-.17-.45s0-.06,0-.1a1.06,1.06,0,0,1,.29-.6,1.17,1.17,0,0,1,.55-.29,1.15,1.15,0,0,1,.31,0,1.05,1.05,0,0,1,.82.34.85.85,0,0,1,.19.57.79.79,0,0,1-.25.6A1.24,1.24,0,0,1,31.49,22.87Zm0-.42a.7.7,0,0,0,.37-.11.52.52,0,0,0,.23-.33.55.55,0,0,0,0-.17.38.38,0,0,0-.06-.22.49.49,0,0,0-.45-.23.6.6,0,0,0-.49.22A.59.59,0,0,0,31,22a.38.38,0,0,0,.15.34A.52.52,0,0,0,31.49,22.45Z"/><path class="cls-3" d="M5.49,22.87a1.91,1.91,0,0,1-.43-.06,1,1,0,0,1-.45-.27.64.64,0,0,1-.16-.45V22a1.06,1.06,0,0,1,.29-.6,1.17,1.17,0,0,1,.55-.29,1.15,1.15,0,0,1,.31,0,1.05,1.05,0,0,1,.82.34.85.85,0,0,1,.19.57.76.76,0,0,1-.25.6A1.24,1.24,0,0,1,5.49,22.87Zm0-.42a.76.76,0,0,0,.38-.11A.54.54,0,0,0,6.09,22a.55.55,0,0,0,0-.17.38.38,0,0,0-.06-.22.49.49,0,0,0-.45-.23.6.6,0,0,0-.49.22A.59.59,0,0,0,5,22a.38.38,0,0,0,.15.34A.52.52,0,0,0,5.49,22.45Z"/><path class="cls-3" d="M10,25.36a3,3,0,0,1-1.92-.57.53.53,0,0,1-.23-.41A.26.26,0,0,1,8,24.17a.28.28,0,0,1,.22-.09.55.55,0,0,1,.23.07,3,3,0,0,0,1.36.32c1.08,0,1.62-.31,1.62-.92,0-.39-.3-.71-.9-1s-1-.47-1.28-.63a2.46,2.46,0,0,1-1.3-1.64,2.05,2.05,0,0,1-.06-.49,2.27,2.27,0,0,1,1-2,2.76,2.76,0,0,1,1.6-.45,2.59,2.59,0,0,1,1.76.57.52.52,0,0,1,.2.41.28.28,0,0,1-.07.21.27.27,0,0,1-.2.09.51.51,0,0,1-.22-.07,2.49,2.49,0,0,0-1.24-.32,1.38,1.38,0,0,0-1.17.44,1,1,0,0,0-.2.59,1.25,1.25,0,0,0,.05.32,1.32,1.32,0,0,0,.53.72,11.47,11.47,0,0,0,1.11.62,3.32,3.32,0,0,1,1.41,1.13,1.87,1.87,0,0,1,.33,1,2,2,0,0,1-1.09,1.81A3.09,3.09,0,0,1,10,25.36Z"/><path class="cls-3" d="M15.8,25.17c-1.45,0-2.22-.77-2.3-2.32,0-.13,0-.41,0-.85,0-.25-.09-.38-.27-.38s-.38-.11-.38-.32.1-.26.3-.26a.89.89,0,0,0,.32-.07c.07,0,.11-.15.12-.33L13.66,19a.77.77,0,0,1,.16-.49c.09-.12.31-.17.65-.17a2.6,2.6,0,0,1,.57,0,.29.29,0,0,1,.23.2.8.8,0,0,1,0,.3v1.63a.82.82,0,0,0,0,.32c.06.1.21.16.46.18a.45.45,0,0,1,.37.17.25.25,0,0,1,.05.16c0,.12-.12.19-.38.21l-.24,0a.57.57,0,0,0-.3.11c-.08.07-.12.28-.12.62v.51A1.79,1.79,0,0,0,16,24.54a.37.37,0,0,1,.24.33C16.2,25.07,16.07,25.17,15.8,25.17Z"/><path class="cls-3" d="M18.74,24.31a2.59,2.59,0,0,1-.85-.18,1.92,1.92,0,0,1-.88-.85,2.7,2.7,0,0,1-.34-1.43c0-.1,0-.2,0-.31a4.26,4.26,0,0,1,.58-1.9,2.25,2.25,0,0,1,1.09-.94,1.68,1.68,0,0,1,.61-.11,1.8,1.8,0,0,1,1.62,1.07,3.88,3.88,0,0,1,.37,1.8,3.25,3.25,0,0,1-.48,1.9A2,2,0,0,1,18.74,24.31Zm0-1.3a1.08,1.08,0,0,0,.75-.37,1.89,1.89,0,0,0,.45-1.06,3.26,3.26,0,0,0,.05-.52,2,2,0,0,0-.12-.72,1,1,0,0,0-.89-.72,1.08,1.08,0,0,0-1,.7,2.59,2.59,0,0,0-.25,1.25,1.65,1.65,0,0,0,.29,1.09A.87.87,0,0,0,18.73,23Z"/><path class="cls-3" d="M22.5,24.65a1.4,1.4,0,0,1-.66-.1.37.37,0,0,1-.17-.32,1.77,1.77,0,0,1,0-.22c0-.71.06-1.42.08-2.12s.06-1.75.11-2.76a.42.42,0,0,1,.35-.44,2.3,2.3,0,0,1,.45-.05c.2,0,.36.23.46.69,0,.1.05.14.09.14s.07,0,.12-.14a1.5,1.5,0,0,1,1.29-.88.41.41,0,0,1,.27.08.33.33,0,0,1,.14.31v.09c0,.23-.19.38-.56.47-.56.14-.93.63-1.11,1.48a7.92,7.92,0,0,0-.19,1.62,6.08,6.08,0,0,0,0,.61q.06.6.06.93C23.27,24.45,23,24.65,22.5,24.65Z"/><path class="cls-3" d="M26.89,24.81a2,2,0,0,1-1.2-.37,2.22,2.22,0,0,1-.79-1.06,4.06,4.06,0,0,1-.26-1.45,4.59,4.59,0,0,1,.29-1.61,3.13,3.13,0,0,1,.8-1.24,2,2,0,0,1,1.46-.57,1.44,1.44,0,0,1,1.15.52,2.36,2.36,0,0,1,.57,1.62c0,.5-.32.85-1,1.05l-1.37.42a.66.66,0,0,0-.39.23.31.31,0,0,0,0,.11,1.13,1.13,0,0,0,0,.3c.17.69.5,1,1,1a1.43,1.43,0,0,0,1.33-.62q.22-.39.48-.39a.18.18,0,0,1,.18.12.25.25,0,0,1,0,.12.93.93,0,0,1-.12.39A2.34,2.34,0,0,1,26.89,24.81Zm-.65-3.27A9.28,9.28,0,0,0,27.85,21a.46.46,0,0,0,.33-.44,1.78,1.78,0,0,0-.09-.52,1.38,1.38,0,0,0-.38-.71.76.76,0,0,0-.4-.16.79.79,0,0,0-.2,0,1.35,1.35,0,0,0-.65.56,3.33,3.33,0,0,0-.38,1.34c0,.06,0,.12,0,.17a.54.54,0,0,0,0,.19A.14.14,0,0,0,26.24,21.54Z"/><path class="cls-4" d="M24.16,6.8a2.58,2.58,0,0,0-.08-.26,6.39,6.39,0,0,0-.87-1.61,5.83,5.83,0,0,0-.55-.66l0,0a6,6,0,0,0-1.2-.75,4.47,4.47,0,0,0-1.32-.36l-.33,0h-.21a4.23,4.23,0,0,0-.7.06h0a4.45,4.45,0,0,0-.76.19,8.74,8.74,0,0,0-2.1.9,7.4,7.4,0,0,0-.79.55,6,6,0,0,0-2,3.15c-.06.23-.12.47-.16.71a11.08,11.08,0,0,0,0,3.41c0,.12.05.24.08.35a8.71,8.71,0,0,0,.7,1.88,5.47,5.47,0,0,0,2.49,2.38,7.7,7.7,0,0,0,.89.22,5.91,5.91,0,0,0,2,.07,5.28,5.28,0,0,0,2.47-1.09l.07-.05.08-.06a8.43,8.43,0,0,0,1.51-1.7l.17-.26a8.3,8.3,0,0,0,1.08-3.5c0-.29,0-.58,0-.86A9.21,9.21,0,0,0,24.16,6.8Zm-5.57,7a2.73,2.73,0,0,1-2.39-1.28,3.74,3.74,0,0,1-.54-1.83A4.72,4.72,0,0,1,16,8.87a3.57,3.57,0,0,1,2.44-2.1,2.34,2.34,0,0,1,2.28.34,2.73,2.73,0,0,1,.55.61l.18.28a4.09,4.09,0,0,1,.3,2.3,4.91,4.91,0,0,1-.85,2.11l-.15.2a3.89,3.89,0,0,1-1.47,1.07A2.46,2.46,0,0,1,18.59,13.84Z"/><path class="cls-5" d="M24.62,9.45c0,.29,0,.57,0,.86a8.4,8.4,0,0,1-1.08,3.49l-.18.26a6.48,6.48,0,0,1-3.19,2.66A7.18,7.18,0,0,0,22.4,14.5c.06-.09.12-.17.17-.26a8.26,8.26,0,0,0,1.08-3.49c0-.29,0-.57,0-.86a9.2,9.2,0,0,0-.43-2.66A2.58,2.58,0,0,0,23.17,7a6.7,6.7,0,0,0-.86-1.61,5.81,5.81,0,0,0-.56-.65v0a5.85,5.85,0,0,0-1.21-.75,4.41,4.41,0,0,0-1.31-.36l-.33,0a4.69,4.69,0,0,0-.91.06h0a4.33,4.33,0,0,0-.77.19q-.45.13-.87.3a8.46,8.46,0,0,1,1.81-.74,4.55,4.55,0,0,1,.77-.19h0a4.69,4.69,0,0,1,.91-.06l.33,0a4.33,4.33,0,0,1,1.31.36,5.37,5.37,0,0,1,1.21.75l0,0a5.72,5.72,0,0,1,.55.65,6.54,6.54,0,0,1,.86,1.61l.09.26A9.55,9.55,0,0,1,24.62,9.45Z"/></g></g></svg>