<svg xmlns="http://www.w3.org/2000/svg" viewBox="0 0 183.36 183.6">
  <title>naekarn-logo</title>
  <g id="Layer_2" data-name="Layer 2">
    <g id="Layer_1-2" data-name="Layer 1">
      <g id="Layer_2-2" data-name="Layer 2">
        <g id="Group_2" data-name="Group 2">
          <g id="Layer_6_Image" data-name="Layer 6 Image">
            <g id="Ellipse_1" data-name="Ellipse 1">
              <ellipse cx="91.68" cy="91.8" rx="91.68" ry="91.8" style="fill: #d04f1b"/>
            </g>
            <g style="isolation: isolate">
              <path d="M63.56,111.67l1,0,.11.06c0,.31-.18.54-.63.7h0l-1,0a1.43,1.43,0,0,0-.4,1c0,.31.4.46,1.11.46.35.12.53.28.55.47a15,15,0,0,1-.41,3.2,1.36,1.36,0,0,1-1.37,1.15c-.4,0-.72-.33-1-1l0-.11c0-.51.27-1,.93-1.37a1.12,1.12,0,0,1,.45-.1h.31v.1a1,1,0,0,1-.78.5l-.08.36v.08a1.12,1.12,0,0,0,.66.9,12.45,12.45,0,0,0,.36-2.16,8,8,0,0,0,0-1.15c-.14-.24-.51-.36-1.12-.36-.33-.08-.5-.25-.52-.51a3,3,0,0,1,.64-1.72A1.81,1.81,0,0,1,63.56,111.67ZM65,115h.28a4.53,4.53,0,0,1,1,.48l.61-.4H67l.05.08c0,.21-.23.48-.74.83l-.39.13a4.66,4.66,0,0,1-1.15-.52c-.23.24-.39.36-.5.36h-.08v-.08C64.37,115.31,64.65,115,65,115Zm2.22-3.35.71,0a1.72,1.72,0,0,1,.6-.1,2,2,0,0,1,1.95,1l0,.15a8.55,8.55,0,0,1-.15,2.81,8.22,8.22,0,0,1-.42,2.62,1,1,0,0,1-.59.43l-.12,0-.07,0c0-.2.16-1.15.31-2.86a16.23,16.23,0,0,0,.17-2.43v-.07a.91.91,0,0,0-.91-.89c-.57,0-.92.11-1,.26a2.56,2.56,0,0,0-.41-.12l-.63,0a1.46,1.46,0,0,0-.39,1c0,.31.41.46,1.12.46.34.12.53.28.55.47a15.64,15.64,0,0,1-.41,3.2,1.38,1.38,0,0,1-1.38,1.15c-.4,0-.72-.33-1-1l0-.11c0-.51.28-1,.93-1.37a1.2,1.2,0,0,1,.46-.1h.3v.1a.92.92,0,0,1-.78.5l-.08.36,0,.08a1.08,1.08,0,0,0,.64.9,10.1,10.1,0,0,0,.37-2.16,11.08,11.08,0,0,0,.06-1.15c-.15-.24-.52-.36-1.14-.36-.32-.08-.48-.25-.5-.51a2.94,2.94,0,0,1,.63-1.72A1.83,1.83,0,0,1,67.23,111.67Z" style="fill: #efefef"/>
              <path d="M75.83,111.66H76a2.32,2.32,0,0,1,2,1.3l.06.35v.08c0,.5-.5.83-1.57,1h-.21a1.61,1.61,0,0,1-1.26-.58,1.07,1.07,0,0,1,.94-.35h0A2,2,0,0,0,77,114l.07-.24v-.09c0-.63-.53-1.14-1.47-1.5l-.46,0a2,2,0,0,0-1.8.93v.16c0,.41.45.82,1.27,1.22,1.83.38,2.91.63,3.24.74a.75.75,0,0,1,.29.42,4.85,4.85,0,0,1-.53,2.47,2.75,2.75,0,0,1-1.79.56,1.69,1.69,0,0,1-1.36-.94c-.39-.57-.65-.86-.77-.87v0a3.09,3.09,0,0,0-.4,1.5c0,.14-.27.27-.85.39h-.1l-.12-.09a12.54,12.54,0,0,0,.19-1.71c.07-.56.12-1.14.17-1.75a1.29,1.29,0,0,1,.88-.3h.06l.09.07a9.64,9.64,0,0,1-.2,1.46h0a1.86,1.86,0,0,1,.68-.13h.21c.4,0,1,.57,1.67,1.65a1.23,1.23,0,0,0,.57.26c.25,0,.42-.74.51-2.26v-.06c0-.28-.6-.5-1.73-.64a9,9,0,0,1-2.18-.62c-.57-.42-.86-.78-.89-1.08v-.06c0-.39.51-.85,1.58-1.4A4.15,4.15,0,0,1,75.83,111.66Z" style="fill: #efefef"/>
              <path d="M82,111.67h.08c.69.22,1,.43,1,.64a.75.75,0,0,1-.74.5h0a1.56,1.56,0,0,0-.9-.57h-.08q-.6,0-.84,3.6V116c0,1.06.3,1.72.79,2a1.54,1.54,0,0,0,.17-.72,1.78,1.78,0,0,0-.83-1l-.05-.08v0a.82.82,0,0,1,.71-.47h0a1.79,1.79,0,0,1,.93,1l.07.28a2.25,2.25,0,0,1-.73,1.51,1,1,0,0,1-.64.27h-.2c-.25,0-.52-.25-.8-.71a5.19,5.19,0,0,1-.27-1.53A13.63,13.63,0,0,1,80,113.3C80.42,112.16,81.08,111.62,82,111.67Z" style="fill: #efefef"/>
              <path d="M86.79,110.63h.39a2.22,2.22,0,0,1,1.66,1.15,1.38,1.38,0,0,1,.51.86c.12.89-.56,1.48-2,1.8a2.18,2.18,0,0,1-.72.08h-.24a4.3,4.3,0,0,1-1.81-.65,1.86,1.86,0,0,1-.75-.91l0-.12c-.06-.41.39-.76,1.35-1.06l.3,0h.12a1.12,1.12,0,0,1,1,.52.85.85,0,0,1-.75.54H85.6a1.14,1.14,0,0,0-.76-.5h0l-.06.09,0,.1c0,.42.56.83,1.53,1.26l.68.19h.14c.79,0,1.21-.19,1.23-.42v-.42a2.68,2.68,0,0,0-.87-1.29,1.74,1.74,0,0,0-1.52-.65l0,0A.87.87,0,0,1,86.79,110.63Zm2.43,3.58h.17l.12.12a9.3,9.3,0,0,1-.33,3.35,1.48,1.48,0,0,1-1,1h-.07c-.23,0-1-.65-2.21-1.94l-.14-.11a3.27,3.27,0,0,0-1,1.65c0,.15-.25.31-.77.49h-.14l0,0h0c.31-2.64.57-4,.77-4a1.17,1.17,0,0,1,.65-.23h.06l.09.08a11.36,11.36,0,0,0-.35,2,2.16,2.16,0,0,1,1.31-.7c.27,0,.87.55,1.8,1.64l.19.1h.08a11.42,11.42,0,0,0,.13-3A1.62,1.62,0,0,1,89.22,114.21Z" style="fill: #efefef"/>
              <path d="M89.77,107.6h.51l0,0h0q-.12.41-.48,2c-.14.52-.31.79-.51.79a1.24,1.24,0,0,1-.61.24c-1-.07-1.92-.18-2.87-.34-.74-.2-1.11-.48-1.11-.83v-.07c0-.48.61-.91,1.84-1.3l.7-.07h.06a2.43,2.43,0,0,1,1.71.92h0c.15-.9.37-1.35.64-1.35ZM85.7,109c0,.5.86.83,2.59,1h.21v0c-.66-.92-1.29-1.38-1.87-1.38S85.79,108.74,85.7,109Z" style="fill: #efefef"/>
              <path d="M96.54,111.6l1.28.21H98l0,0h0c0,.17-.19.41-.6.72H97.3a4.7,4.7,0,0,1-1-.13v0c-.42.41-.62.74-.61,1v0c0,.21.13.31.24.31l.89-.11c.43,0,.64.14.65.32a12.67,12.67,0,0,1-.59,3,2.73,2.73,0,0,1-1.11,1.38,2,2,0,0,1-.9.28h-.3a3.78,3.78,0,0,1-1.62-.76c-.67-.34-1-.71-1-1.11l0-.2a6.79,6.79,0,0,1,.59-2.39h-.12l-.82.07a.39.39,0,0,1-.35-.35,3.47,3.47,0,0,1,1.06-2.09,1,1,0,0,1,.52-.17,3.11,3.11,0,0,1,1,.17l.42-.07h.12v.07a1,1,0,0,1-1.06.76h0l-.61-.14a1,1,0,0,0-.47,1v.14l.13.14,1.18-.07h0v.1a7.61,7.61,0,0,0-.64,2.18l0,.45c0,.44.64,1,1.84,1.52a.78.78,0,0,0,.53.24h.15c.31,0,.6-.59.86-1.77h0c-.06.07-.17.07-.34,0h-.06a2.78,2.78,0,0,1-1.35-.52h0a3.76,3.76,0,0,0-.83.31h-.17l-.08-.06c0-.24.41-.49,1.28-.76l.3,0h.18a3.58,3.58,0,0,1,1.12.41h.09a4.83,4.83,0,0,0,.22-1.24.6.6,0,0,0-.35-.17,6.14,6.14,0,0,1-1,.1c-.29,0-.44-.16-.45-.41v0a3.56,3.56,0,0,1,1-1.93A1.64,1.64,0,0,1,96.54,111.6Z" style="fill: #efefef"/>
              <path d="M100.38,111.71h.33a6,6,0,0,1,.9.19c.28.42.2.71-.25.86h-.14a7.64,7.64,0,0,1-1.08-.34l-.36.25-.17.17a2.67,2.67,0,0,0,1.1.57,1,1,0,0,1,.3.41c-.19,1-.35,2.26-.49,3.78-.11,1.27-.3,2.67-.57,4.19,0,.31-.21.55-.68.69a2.1,2.1,0,0,1-1.37-.8c-.48-.46-.88-.62-1.2-.47a2.32,2.32,0,0,0-1.3.85,1.46,1.46,0,0,1-.65.21h-.09l-.1-.06a14.26,14.26,0,0,0,.8-2.74,1.3,1.3,0,0,1,.79-.49h.24l-.4,1.73a8.18,8.18,0,0,1,1.26-.16,2.3,2.3,0,0,1,1.67.72l.21.21h0l.49-4.15c.09-1,.19-2,.32-3.12,0-.16-.39-.38-1.06-.66a.54.54,0,0,1-.13-.32v-.06c0-.21.26-.6.82-1.18A1.46,1.46,0,0,1,100.38,111.71Z" style="fill: #efefef"/>
              <path d="M101.57,107.29l.45.06,0,0h0c-.1.23-.29.79-.57,1.67-.16.44-.33.65-.51.62s-.25.11-.56.14q-1.26-.24-2.49-.6c-.64-.25-.94-.53-.92-.83v-.07c0-.41.61-.71,1.72-.91l.61,0h.07a2.24,2.24,0,0,1,1.43,1h0c.2-.76.42-1.12.66-1.09Zm-3.68.78c0,.43.7.81,2.2,1.14l.18,0v0c-.52-.86-1-1.33-1.54-1.39S98,107.84,97.89,108.07Z" style="fill: #efefef"/>
              <path d="M105.23,111.67h.08c.69.22,1,.43,1,.64a.77.77,0,0,1-.75.5h0a1.56,1.56,0,0,0-.9-.57h-.07c-.41,0-.69,1.18-.85,3.6V116c0,1.06.3,1.72.8,2a1.65,1.65,0,0,0,.16-.72,1.76,1.76,0,0,0-.82-1l0-.08v0a.81.81,0,0,1,.71-.47h0a1.77,1.77,0,0,1,.92,1l.07.28a2.21,2.21,0,0,1-.73,1.51,1,1,0,0,1-.63.27H104c-.25,0-.51-.25-.8-.71a5.19,5.19,0,0,1-.27-1.53,14.23,14.23,0,0,1,.34-3.09C103.64,112.16,104.3,111.62,105.23,111.67Z" style="fill: #efefef"/>
              <path d="M112.16,110.42h.07a5.22,5.22,0,0,1,.52,1.54l0,.09q.15,1-1.35,1.47h-.23a9.87,9.87,0,0,1-2.78-1l-.26-.13c-.31.35-.45.63-.42.83s.3.39.79.39h.09l.09.09,0,.39a11.7,11.7,0,0,1-.36,3h0a1.78,1.78,0,0,1,1.11-.61h.23a6.39,6.39,0,0,1,1.86,1.3l0,0a4.24,4.24,0,0,0,.24-2.06,1.22,1.22,0,0,1,.17-.82,1.39,1.39,0,0,1,.66-.31l.09.09v2.18q-.3,1.92-1.29,1.92h-.07c-.16,0-.64-.39-1.42-1.16a1.51,1.51,0,0,0-.47-.44,3,3,0,0,0-1.5,1.31,1,1,0,0,1-.61.25h-.1v0c0-.16.14-1.36.49-3.57l0-.4,0-.39c-.61-.08-.94-.27-1-.58-.08-.52.38-1.17,1.36-2l.38-.08h.07a12.87,12.87,0,0,1,2.85,1.11c.26,0,.37,0,.36-.21v-.1l-.45-1.53A1,1,0,0,1,112.16,110.42Zm1.93,1.27a1.78,1.78,0,0,1,2,1l0,.15a8.55,8.55,0,0,1-.15,2.81,8.33,8.33,0,0,1-.42,2.63,1,1,0,0,1-.59.42l-.12,0-.07,0c.05-.2.16-1.16.31-2.86a16.27,16.27,0,0,0,.17-2.44v-.06a1.27,1.27,0,0,0-.91-.9,1.77,1.77,0,0,0-1.25.46c-.31-.37-.31-.65,0-.86A1.94,1.94,0,0,1,114.09,111.69Z" style="fill: #efefef"/>
              <path d="M123.43,111.67a2.65,2.65,0,0,1,.79.47v.07a.45.45,0,0,1-.28.46,1,1,0,0,1-.7.08c-.31-.26-.5-.4-.59-.4a4.23,4.23,0,0,1-1.7.88l-1.16-.75-.21-.07a3.08,3.08,0,0,0-.84.82v.06l1.14.84v.08l0,.06v.06h.06a4.09,4.09,0,0,1,1.74-.44,1.63,1.63,0,0,1,1.83,1.63c0,2-.21,3-.56,3a.89.89,0,0,1-.54.14l.15-2.63c.09-.85-.42-1.29-1.52-1.35q-2.17.19-1.89,3.48a1.55,1.55,0,0,1-1,.5l-.07-.08c.08-1.71.35-2.83.8-3.33l.33-.4,0-.07c-.69-.48-1.16-.8-1.39-1v-.07c1-1.3,1.78-2,2.47-2h.1a3.15,3.15,0,0,1,1.3.74A4.23,4.23,0,0,1,123.43,111.67Zm-3.11,4.65h.33a.54.54,0,0,1,.53.46c-.25.37-.5.55-.75.55h-.05l-.19-.27-.06-.07h-.25c-.21,0-.52.41-.94,1.22a2.93,2.93,0,0,1-.75.45l1.07-1.84A1.72,1.72,0,0,1,120.32,116.32Z" style="fill: #efefef"/>
              <path d="M131,110.33h.07a4.71,4.71,0,0,1,.52,1.54l0,.09c.1.7-.35,1.19-1.34,1.47h-.24a10,10,0,0,1-2.77-1l-.27-.14a1.34,1.34,0,0,0-.42.84c0,.26.3.39.79.39h.1l.09.08.05.39a12.7,12.7,0,0,1-.36,3h0a1.74,1.74,0,0,1,1.1-.61h.24a6.44,6.44,0,0,1,1.85,1.3l.06-.05a4.1,4.1,0,0,0,.23-2,1.24,1.24,0,0,1,.18-.83,1.33,1.33,0,0,1,.65-.31l.1.09v2.18q-.32,1.92-1.29,1.92h-.07c-.17,0-.64-.39-1.43-1.16a1.63,1.63,0,0,0-.46-.44,3,3,0,0,0-1.5,1.31,1,1,0,0,1-.62.25h-.1v0c0-.16.15-1.35.5-3.57l0-.4,0-.39c-.61-.07-.94-.27-1-.58-.07-.52.38-1.17,1.37-2l.38-.08h.07a13.27,13.27,0,0,1,2.85,1.11q.38.06.36-.21l0-.09-.45-1.54A1,1,0,0,1,131,110.33Z" style="fill: #efefef"/>
              <path d="M132.68,107.06h.11c.06,0,.1.08.1.18v.33a2.71,2.71,0,0,1-1.44,2.27,2.45,2.45,0,0,1-1.22.35h-.09a2.28,2.28,0,0,1-2.08-1.07l-.12-.54c0-.51.54-1,1.62-1.34h.18a1.19,1.19,0,0,1,1,.54v0c0,.15-.16.31-.47.47a.85.85,0,0,1-.38.09h-.08l0,0h0l.06-.18a1.1,1.1,0,0,0-.64-.42.48.48,0,0,0-.3.42c0,.79.58,1.3,1.73,1.56h.17q.78,0,1.17-1.56v-.48l0-.18c0-.1.2-.24.62-.41Z" style="fill: #efefef"/>
              <path d="M141.8,111.58l.41,0c.4.23.59.41.59.54v.06a1.41,1.41,0,0,1-.71.67l-.15,0-.64-.48h0l-.43,1.34h0l.29,0,.15,0a1.15,1.15,0,0,1,.7.54,1.62,1.62,0,0,1,.14.79,4.2,4.2,0,0,1-1.44,3,2.81,2.81,0,0,1-1.49.6l-.6,0a2.15,2.15,0,0,1-1.36-1,2.54,2.54,0,0,1-2.14,1l-.34,0c-.49,0-1-.69-1.56-1.94a3.33,3.33,0,0,1-.15-.93v-.27a5,5,0,0,1,1-3.32,1.4,1.4,0,0,1,1-.45l.18,0q.4,0,.51.9c0,.64-.58,1.23-1.66,1.77l-.19,0,0,.58a3.54,3.54,0,0,0,1.38,2.92l.43,0a2,2,0,0,0,1.79-1.63c0-.32.05-.48.09-.47,0-.74-.26-1.12-.63-1.15l0-.06,0,.05-.25,0c-.38.17-.56,0-.56-.64a4,4,0,0,1,1.88-2.38l.24,0,.22,0a1.09,1.09,0,0,1,.82.51q-.43.71-.81.66h-.06l-.7-.38a3.25,3.25,0,0,0-.57,1.17c.1.19.21.29.35.3l.47.25a1.29,1.29,0,0,1,.48,1.14,5,5,0,0,1-.31,1.42c0,.37.4.86,1.27,1.45.81-.06,1.41-.73,1.79-2l.08-.53c-.07-.52-.29-.83-.65-.92-.7.14-1-.05-.8-.59a4.67,4.67,0,0,1,.93-2A2.16,2.16,0,0,1,141.8,111.58Zm-7.25,1a4,4,0,0,0-.47,1.29c.47-.23.7-.44.71-.63A.84.84,0,0,0,134.55,112.59Z" style="fill: #efefef"/>
            </g>
            <path d="M42.4,116.13a3,3,0,0,1-1.39-.3c-.65-.28-1-.87-1.44-4.13l-1.06.13c-10.11,1.3-22.69,2.91-26.48-2.44a7.59,7.59,0,0,1-1-6,5.86,5.86,0,0,1,2.67-3.9c2.78-1.51,6.81.35,8.32,1l.16.07c3.52,1.59,9.4,2.45,17,2.78a43.32,43.32,0,0,1,1.26-7.83l1.94.5a41.33,41.33,0,0,0-1.2,7.41c18.78.58,47-1.72,76.43-4.1l1.46-.12c16.38-1.33,30.53-2.49,39.87,5.35a22.56,22.56,0,0,1,6.07,8l-1.82.82a20.46,20.46,0,0,0-5.53-7.3c-8.72-7.32-21.83-6.25-38.43-4.89l-1.46.12c-30.45,2.46-58.09,4.71-76.69,4.11,0,.48,0,1,0,1.43a16.9,16.9,0,0,0,.14,1.77c0,.23.06.49.09.77,5.9-.71,8.46-.74,9.05.92.33.87-.12,1.84-1.32,2.88C47.62,114.49,44.61,116.13,42.4,116.13Zm-.35-2a5.3,5.3,0,0,0,2.82-.62,9.36,9.36,0,0,0,3.49-2.37c-1-.28-3.83,0-6.81.34A14.75,14.75,0,0,0,42.05,114.1ZM16.19,100.92a3.16,3.16,0,0,0-1.52.34,3.88,3.88,0,0,0-1.69,2.6,5.62,5.62,0,0,0,.69,4.37c3.09,4.38,16,2.72,24.58,1.62l1.09-.14c0-.3-.06-.56-.09-.8a17,17,0,0,1-.15-2c0-.51,0-1,0-1.51-7.89-.36-14-1.27-17.74-3l-.17-.08A13.07,13.07,0,0,0,16.19,100.92Z" style="fill: #efefef"/>
            <path d="M15.75,96.66a1.59,1.59,0,0,1-.68-.14c-.67-.32-2.25-1-.2-9.08a1,1,0,0,1,1.94.5c-1,3.86-1.06,6-.86,6.69.74-.31,2.62-2.13,4.38-4.77C24.22,84,24.51,77.69,24.7,73.52c.14-3.11.23-5.16,1.82-5.67,3-1,7.31,5.52,9.39,9a28.64,28.64,0,0,1,3.06.28A35,35,0,0,1,46.3,79c.07-.25.15-.49.22-.74a31.3,31.3,0,0,1,3.34-8,33.08,33.08,0,0,1,4.51-5.62,1,1,0,0,1,1.42,1.42,30.8,30.8,0,0,0-4.24,5.27,29.14,29.14,0,0,0-3.11,7.51l-.3,1c2.24,1.12,4,2.59,4.2,4.44C53,89,43.88,93.65,39,95.46c-3.19,1.18-4,1-4.49.33-.64-1,.31-1.62,1.4-2.4a26.3,26.3,0,0,0,7.59-7.76,22,22,0,0,0,2.2-4.71c-.39-.16-.81-.31-1.24-.45A32.88,32.88,0,0,0,37.09,79l0,.06c3,5.63,2,6.37,1.49,6.76-.34.26-1.23.95-4.34-1.5-1.09-.85-4.57-3.81-3.67-5.83.4-.92,1.59-1.35,3-1.51a28.25,28.25,0,0,0-5.11-6.46c-.84-.7-1.29-.77-1.38-.74-.29.31-.38,2.28-.45,3.86C26.5,78,26.2,84.63,22,91,21.05,92.39,18,96.66,15.75,96.66ZM16,94.78h0Zm31.49-13a24.63,24.63,0,0,1-2.33,5A27,27,0,0,1,39.64,93c3.16-1.32,7.32-3.51,9.49-5.87a3.76,3.76,0,0,0,1.23-2.62C50.23,83.62,49.21,82.64,47.51,81.74ZM32.45,79.27c.14,1,3,3.65,4.59,4.52a27.18,27.18,0,0,0-2.27-4.91A5.1,5.1,0,0,0,32.45,79.27Z" style="fill: #efefef"/>
            <path d="M80.89,101.31c-4.37,0-10.75-10.4-13.6-15.48-2,3-3.19,7.48-2.55,12.75a1,1,0,0,1-2,.24c-.76-6.21.85-11.5,3.49-14.87C64,79.72,58,67.91,60.84,65.72c1.17-.92,2.52.09,4.07,1.27,2.16,1.62,5.13,3.86,9.27,3.63a23.48,23.48,0,0,0,7.43-2.16c3.16-1.31,5.89-2.45,8-1a16.76,16.76,0,0,1,4.64,5.18,1,1,0,0,1-1.74,1,14.64,14.64,0,0,0-4.06-4.55c-1.19-.83-3.46.12-6.09,1.21a25,25,0,0,1-8.09,2.31c-4.87.26-8.3-2.33-10.57-4A13.68,13.68,0,0,0,62,67.42c-.47,1.51,2,8.07,5.67,15a8.68,8.68,0,0,1,4.62-2.33c3.78-.54,7.55,2,9.63,4.73A15.79,15.79,0,0,1,84.19,98c-.53,1.74-1.39,2.85-2.49,3.23A2.45,2.45,0,0,1,80.89,101.31ZM68.64,84.19A74.88,74.88,0,0,0,76,95.39c2.68,3.24,4.4,4.13,5.06,3.89.34-.11.84-.68,1.22-1.92a13.84,13.84,0,0,0-2-11.35c-1.66-2.2-4.8-4.38-7.75-4A7.09,7.09,0,0,0,68.64,84.19Z" style="fill: #efefef"/>
            <path d="M145.7,97.35a6,6,0,0,1-3.09-1,3.77,3.77,0,0,1-2-2.85c0-2.57,4.15-4.08,5-4.36a10.59,10.59,0,0,1,1.9-.45,67,67,0,0,0-.53-6.91,1,1,0,0,1,2-.24,67,67,0,0,1,.56,7.09,23.94,23.94,0,0,1,4.26.83,49.46,49.46,0,0,0,7.33,1.43c3.57.4,8.45.95,9.23-.49.33-.58.12-1.92-1.42-4-1.32-1.77-2.71-2.34-5.22-3.38a59.33,59.33,0,0,1-6.9-3.27c-3.07-1.7-4.47-2.82-5.57-4.42-.93-1.33-3-4.77-1.6-7.63,1.94-4,9-3.43,12.39-2.54,2,.52,5.15,1.3,5.82,3.75S166,74.82,162,76.73a1,1,0,0,1-.84-1.82c3.66-1.71,5.15-4.28,4.83-5.47-.37-1.34-2.89-2-4.39-2.35-3.47-.9-8.9-1-10.1,1.46-.93,2,.88,4.81,1.45,5.64.8,1.16,1.77,2.07,4.89,3.81a59.84,59.84,0,0,0,6.69,3.16c2.65,1.1,4.41,1.82,6,4,1.9,2.57,2.45,4.7,1.6,6.2-1.41,2.61-6.17,2.07-11.2,1.5a51.44,51.44,0,0,1-7.61-1.47,22.84,22.84,0,0,0-3.78-.77c-.15,3.77-1,5.85-2.68,6.53A3.21,3.21,0,0,1,145.7,97.35Zm1.82-6.65a7.82,7.82,0,0,0-1.24.32c-1.71.57-3.62,1.73-3.62,2.44,0,.19.29.69,1.05,1.19a3.13,3.13,0,0,0,2.38.63C146.46,95.13,147.34,94.38,147.52,90.7Z" style="fill: #efefef"/>
            <path d="M92.75,99.55a1.66,1.66,0,0,1-.7-.15c-.62-.29-2.25-1.05-.19-9.07a1,1,0,0,1,1.94.5c-1,3.86-1.07,6-.87,6.68.74-.29,2.59-2.08,4.38-4.77,3.9-5.88,4.19-12.18,4.37-16.35.14-3.1.23-5.14,1.82-5.66,3-1,7.28,5.45,9.4,9,1.1,0,2.2.16,3.08.28a35.17,35.17,0,0,1,7.29,1.83c.06-.21.12-.42.19-.63a30.09,30.09,0,0,1,3.39-8.08c.46-.72.84-1.37,1.19-1.94,1.3-2.17,2.09-3.48,3.75-3.92,3.5-.91,7.4,2.35,9.05,5C144.38,77.85,142,87,134.64,96a1,1,0,1,1-1.56-1.26c6.71-8.24,9.09-16.65,6.07-21.44-1.34-2.11-4.46-4.7-6.85-4.09-.83.22-1.3,1-2.55,3-.35.58-.75,1.23-1.21,2a28,28,0,0,0-3.17,7.59c-.08.28-.17.57-.26.86,2.27,1.12,4,2.6,4.26,4.46.77,5.54-11.5,10.47-12.91,11-3.92,1.52-4.57,1.15-5,.57-.64-1,.26-1.64,1.39-2.44a26.3,26.3,0,0,0,7.58-7.76,21.61,21.61,0,0,0,2.2-4.75l-1.17-.42a33,33,0,0,0-7.41-1.51l.1.18c2.91,5.53,2,6.26,1.46,6.64-.33.25-1.29,1-4.44-1.56-1.07-.85-4.46-3.76-3.59-5.77.41-.91,1.59-1.34,3-1.5a28.09,28.09,0,0,0-5.16-6.48c-1-.8-1.35-.71-1.35-.71-.28.3-.37,2.27-.44,3.85-.2,4.39-.49,11-4.71,17.36C97.77,95.66,94.93,99.55,92.75,99.55ZM93,97.66h0Zm31.49-13.08a24.36,24.36,0,0,1-2.33,5,26.88,26.88,0,0,1-5.52,6.34c3.19-1.33,7.4-3.55,9.55-5.92a3.67,3.67,0,0,0,1.2-2.58C127.26,86.48,126.22,85.49,124.49,84.58Zm-15-2.45c.13,1,3,3.67,4.59,4.53a27.26,27.26,0,0,0-2.29-4.91A5.07,5.07,0,0,0,109.47,82.13Z" style="fill: #efefef"/>
          </g>
        </g>
      </g>
    </g>
  </g>
</svg>
