<svg xmlns="http://www.w3.org/2000/svg" viewBox="0 0 392.74 308.13">
  <title>ponlork-logo</title>
  <g id="Layer_2" data-name="Layer 2">
    <g id="Layer_1-2" data-name="Layer 1">
      <g>
        <g>
          <path d="M108.36,152.21,137.65,141c2.22-.86,4.44-1.72,6.68-2.54.93-.34,1.87-.67,2.81-1l1.42-.48c2.17-.74-1.66.47.37-.11,1.08-.3,2.16-.61,3.26-.89.34-.08,1.92-.45.54-.14-1.61.35.78-.14.9-.17l1.46-.25c1.77-.3,0-.08-.18,0a6.07,6.07,0,0,1,1.44-.14c.43,0,2.21-.09.82-.08a20.25,20.25,0,0,1,10.69,2.54,23,23,0,0,1,7.82,7.22c4.12,6.2,5.92,13.62,7.53,20.79s3.52,14.59,7.78,20.7c4.89,7,11.92,10.74,20.39,11.49A51.06,51.06,0,0,0,243,189.52a33.46,33.46,0,0,0,14-20.56c3.42-15.72-3.47-31.61-15.57-41.77-6.84-5.76-15.17-9-23.72-11.29s-17.3-3.49-25.35-7c-6.84-3-13.84-7.4-17-14.43-3.68-8.19-1.21-17.23,3.28-24.55a44.45,44.45,0,0,1,7.14-8.75,41.12,41.12,0,0,1,8.74-6.65c.48-.28,1-.57,1.46-.84-.27.15-1.37.7,0,0,.81-.39,1.62-.8,2.44-1.17.4-.18.83-.41,1.24-.55-2,.69-.5.22,0,0L201,51.6c.32-.11.64-.23,1-.33l-.88.27c.59-.16,2.42-1,3-.8-.11,0-2.41.48-.55.12l1.35-.26,1.41-.23c2.34-.4-1.26.06.22,0,.49,0,1-.09,1.48-.13.26,0,2.32-.13,1.57-.11-.91,0,.64,0,.83,0,.62,0,1.24,0,1.86.05,1,0,2,.11,3,.23-.63-.07.56.09.55.09l1.81.33c1.19.24,2.38.53,3.55.88a30.17,30.17,0,0,1,10.69,5.69c5.73,4.74,9.8,12.25,9,19.86a17,17,0,0,1-4.07,9.06,21.68,21.68,0,0,1-2,2c-.21.18-1.28.94-.4.34-.34.23-.69.46-1.05.68-1.24.82-.09,0,.16-.06-1.48.38.2,0,.48-.15-2,.76,1.8-.45.41-.09-1.22.32,2.21-.39.4-.11l1.1-.15c-.77,0-.85,0-.25,0,1.05,0-.33,0-.58-.06-1.12-.07,1.31.39-.39-.07-.37-.1-.75-.17-1.12-.27a13.49,13.49,0,0,1-4-2,15.47,15.47,0,0,1-5.82-7.43,11.07,11.07,0,0,1,.24-8.83c1.48-3.16-6.54-2.13-7.64-1.93A27.42,27.42,0,0,0,209,70.44c-1.36.69-3.2,1.52-3.89,3-3.2,6.8,0,14.33,5.54,18.79,8.45,6.73,21.13,4.83,30.42,1.08,8.59-3.47,17.07-9.85,18.51-19.6,1.26-8.5-2.83-16.59-9.11-22.16-7.19-6.37-17.26-8.93-26.67-9.24a82.2,82.2,0,0,0-34.46,6.87C173.24,56,156.45,70,154.71,88.58c-1.85,19.67,19.57,28,35.1,31.78,9.28,2.25,19,3.9,27.32,8.78A44.84,44.84,0,0,1,234,146.43a39.53,39.53,0,0,1,4.73,23.45,32.18,32.18,0,0,1-4,11.73,23.84,23.84,0,0,1-3.22,4.44,27.53,27.53,0,0,1-2.2,2.12c-.2.17-1.27,1-.39.34-.52.37-1,.7-1.58,1.05-1.21.8-.12.09.15-.05l-1.44.7c-1.21.62,2.11-.81.12-.07-.75.28-1.38.1.67-.18.07,0-1.22.27-1.25.33.13-.33,2.3-.53.36-.13-1.31.27,2.22-.1.12,0-1.69.05,1.34.12-.5,0a14,14,0,0,1-4.6-.68,17.69,17.69,0,0,1-5.13-2.45c-6.55-4.4-9.73-11.87-11.84-19.2s-3.2-15.19-6.3-22.34c-3.4-7.84-9.07-13.87-17.29-16.59-10.38-3.44-22.56-1.16-32.76,1.81-10.38,3-20.4,7.23-30.48,11.1l-15.45,5.94c-1.19.45-8.39,3.3-5.66,5.48,1.18.94,3.55.75,4.86.63a28.12,28.12,0,0,0,7.41-1.66Z" style="fill: #1b4472"/>
          <path d="M301.13,199.05a111.36,111.36,0,0,1-1.57-45.94c2.6-14.66,7.95-29.73,16.68-41.89,1.05-1.46,2.16-2.88,3.34-4.23a35.2,35.2,0,0,1,3.57-3.58q1-.81,2-1.53c.39-.28.78-.55,1.18-.81-.29.19-1.27.69.09,0,.25-.13,1.07-.69,1.28-.66,0,0-1.56.62-.53.23.45-.16.91-.34,1.35-.52,1.17-.49-1.91.59-.08.05,1.17-.34.25-.49-.46.08a7.3,7.3,0,0,1,1.41-.21c-.13,0-2.09.11-.24.07.11,0,1.28,0,.38,0s2.06.26,1.63.18.58.15.55.14c.66.19,1.32.4,2,.64a20.61,20.61,0,0,1,7.23,5.17c4.67,4.91,7.39,11.34,9.57,17.67a146,146,0,0,1,5.92,24.28c3.05,19,3,38.37,3,57.59,0,1.3,2.8,1.79,3.48,1.88a18.68,18.68,0,0,0,7-.72c2.87-.82,8.51-2.51,8.52-6.26,0-18.28.06-36.65-2.55-54.79a149,149,0,0,0-6.22-26.69c-2.39-7-5.56-14.12-10.69-19.62-14.3-15.34-40-7.75-53.52,4.78-6.05,5.62-10.48,12.93-14.2,20.24a112.83,112.83,0,0,0-8.8,23.53,116.7,116.7,0,0,0-.28,56.06c.33,1.34,2.44,1.74,3.48,1.87a18.68,18.68,0,0,0,7-.71,19.61,19.61,0,0,0,6.44-2.89c1-.75,2.43-2,2.08-3.37Z" style="fill: #1b4472"/>
          <path d="M265.52,47.67c23.75,17.39,55.9,17.21,81.37,3.56a75.55,75.55,0,0,0,18.7-14.3,2.48,2.48,0,0,0,.11-3.45c-1.11-1.14-3.62-1.35-5-1.31-4.56.13-9.39,1.64-12.61,5l-1,1c.42-.41.34-.34-.26.23s-1.39,1.27-2.11,1.88q-1.87,1.6-3.89,3l-1.15.82c.78-.51.77-.5,0,0-.6.38-1.2.76-1.8,1.12a23.16,23.16,0,0,1-4.35,2.35c2.29-.73-.58.25-1.05.45-.86.37-1.74.72-2.62,1-.49.19-2.68,1.19-.18.11a20.51,20.51,0,0,1-2.7.81c-.91.25-1.82.47-2.74.69-2,.5,2-.3-.2,0-.93.14-1.85.31-2.79.44-.24,0-2.95.35-1.62.2s-1.45.08-1.71.09c-1,0-1.94,0-2.91,0-.73,0-1.46,0-2.19-.06,1.75.06-1.22-.11-1.53-.14-1.7-.18-3.38-.42-5.05-.74-1.85-.34-3.19-.67-4.32-1a59.4,59.4,0,0,1-18.6-9.05c-3.36-2.46-8.95-1.27-12.48.24-1.47.63-8.62,4.43-5.28,6.88Z" style="fill: #1b4472"/>
          <path d="M334.14,23.91q11.49-2.1,22.77-5.11c3.49-.93,7-1.94,10.41-3,1.49-.46,3-.85,4.49-1.25,2-.52-2.27.21.26,0,.71-.07,3,.13.32-.1,1.84.16-1.47-.69.07,0,.82.34.72.28-.32-.21.65.51.64.45-.06-.2.25.31,1,1.79.5.46a12.67,12.67,0,0,1,.6,2.19c.06.32.11.65.14,1,0-.8,0-.76,0,.09s0,1.46.05,2.18q0,3,.05,6Q373.48,38,373,50c-.17,4.7,4.73,7,8.89,6.6,4-.39,10.25-3,10.43-7.89q.5-13.33.39-26.68c0-4.12.35-8.77-1.12-12.69A13.71,13.71,0,0,0,382.22.83c-9.07-2.52-17.9,1.29-26.55,3.69Q343.22,8,330.49,10.28c-3.75.69-9.15,5-7.68,9.36,1.62,4.83,7.17,5,11.33,4.27Z" style="fill: #1b4472"/>
          <path d="M171.91,274c3.08,3.79,5.92,7.42,7.3,11.85a28.62,28.62,0,0,1,.75,3.45c.21,1.13,0,.44,0,.12a17.34,17.34,0,0,1-.09,1.77,16.45,16.45,0,0,1-.49,2.61c-.11.37-.63,1.47-.08.3-.25.53-.49,1.05-.78,1.56-.08.13-1.16,1.47-.37.63s-.56.47-.53.48,1.47-1.1.38-.34c-1.66,1.15,2-1,.13-.12a9.38,9.38,0,0,1,2.56-.72c-1.61.24.14,0,.44,0-2,0,1.39.65-.46-.07-.34-.13-2.05-.92-.73-.21a15,15,0,0,1-2.87-1.85c.28.25.64.65-.2-.27-.39-.43-.79-.86-1.17-1.32a25.05,25.05,0,0,1-3.4-5.54c-4.1-9.08-7.4-19.58-6.78-29.55a38.52,38.52,0,0,1,1.1-7.15c.13-.5.28-1,.43-1.49.09-.29.58-1.55.13-.43.43-1.07.89-2.11,1.41-3.14.43-.83.89-1.65,1.39-2.45.34-.53.69-1,1-1.56-.16.23-1,1.16,0,.08.66-.8,1.33-1.58,2.06-2.31.29-.3.59-.57.89-.86,1.34-1.32-1.22.84.18-.17a24.19,24.19,0,0,0,2.51-1.72c-1.42,1.31-1.1.6-.25.19.45-.22.92-.41,1.38-.62a7.09,7.09,0,1,0-.77.27,10.39,10.39,0,0,0,1.76-.48c-.1.14-2.52.31-.78.15.36,0,1.59-.39,1.93-.18H178.8c.43,0,.86,0,1.29.05s.85.09,1.28.13c2,.21-1.17-.37,0,0,.51.16,1,.26,1.56.41s.81.26,1.22.4c0,0,1.91.8.9.33s.89.47.86.45c.58.3,1.15.63,1.72,1,.94.57,1.85,1.19,2.74,1.85l1.05.82c-1-.8.67.62.69.64a41,41,0,0,1,4.52,5,48.33,48.33,0,0,1,6.57,12c3.75,9.42,5.64,19.57,9.84,28.8,2.13,4.69,4.82,8.91,9.17,11.82,5.34,3.56,12.42,4.25,18.54,2.69,7.14-1.82,12.84-6.58,15-13.66,1.55-5,1-10.42.73-15.55a213.7,213.7,0,0,0-5.38-37.33c-1-4.3-7.85-4.18-11.06-3.22-3.37,1-9,3.87-8,8.32a213.56,213.56,0,0,1,5.28,35.65c.28,4.49.51,9-.6,13.4-.32,1.25-.11.31,0,0-.24.54-.52,1-.78,1.56-.6,1.16-.06,0,.17-.17-.42.41-1.8,1.39,0,.14l1-.56c-.78.34-.75.34.1,0,.43-.09,3.25-.48,1.44-.42,2.38-.08.89-.06.26-.09s-.41,0,.62.11c-.41-.1-.81-.22-1.21-.36,1.41.41.19.09-.24-.14s-.9-.55-1.35-.83c-1.58-1,.4.46-.42-.34-.4-.39-.79-.8-1.16-1.23a19.16,19.16,0,0,1-3.45-5.56,142.14,142.14,0,0,1-5.08-15c-3.17-10.28-6.6-21-13.61-29.45-6.75-8.1-16.66-14-27.4-14.28A38.18,38.18,0,0,0,155,236.61c-7.05,9-9.44,19.57-8.4,30.88a70.34,70.34,0,0,0,3.93,16.91c1.78,5.05,3.82,10.35,7,14.68,9.37,12.56,29.57,11.88,38.37-1a20.36,20.36,0,0,0,2.68-15.88c-1.44-6.08-5.32-11.39-9.19-16.15-2.82-3.46-9.26-2.64-12.78-.9-2.91,1.43-7.7,5.25-4.74,8.88Z" style="fill: #1b4472"/>
          <path d="M37.68,139.88c.87,1.29-.17-.56.07.09.17.44.4.86.58,1.3.45,1.12.83,2.28,1.18,3.43.88,2.92,1.56,5.89,2.19,8.87,1.37,6.53,2.43,13.13,3.41,19.73.89,6,2,10.36.24,16-.09.27-.6,1.42-.12.4-.16.34-.34.69-.52,1a16.74,16.74,0,0,1-1.55,2.35c1.24-1.56-.54.64-.73.52l.84-.66c-.65.4-.61.4.13,0s.78-.4.08-.07c1.56-.49,1.92-.61,1.11-.37-1.44.34,2.49-.25.23-.07,2.77-.22.51-.15.39-.1l.79.11c-.33-.06-.67-.13-1-.22s-1.69-.56-.53-.11a19,19,0,0,1-5.33-3.18c-6.71-5.81-10.6-13.67-13.31-22a139.67,139.67,0,0,1-5.75-28.06,165.81,165.81,0,0,1,4-58.2c2.22-9,5-18.5,9.17-26.55.49-1,1.09-1.8,1.63-2.72.16-.27.89-1.05-.06,0,.27-.29.57-.56.84-.86,1.06-1.16-.54.34-.91.55a10,10,0,0,1-3.46,1.08,6.66,6.66,0,0,1-2.44,0c-1.78-.49-.47-.13,0,.09,1.07.48-.13-.45.08.06.12.3.67.68.88.93A14.12,14.12,0,0,1,31.1,55c-.48-.79.13.25.22.46q.32.66.6,1.32c.37.91.71,1.83,1,2.76,1.4,4.17,2.51,8.37,4.27,12.41a81.73,81.73,0,0,0,7.11,13c5.57,8.31,13.26,16.87,24.06,17,6.91.06,14.18-2.54,18.7-7.92A23.26,23.26,0,0,0,92,82.53c1.49-9.44-.38-19.14,2.71-28.39.14-.42.29-.83.45-1.24-.29.75.11-.26.15-.34a25.85,25.85,0,0,1,1.57-2.88,19.84,19.84,0,0,1,1.51-2.12c-1,1.24.36-.32.51-.46.4-.38,1.43-1.82.22-.3.57-.71,2.51-1.45.58-.46,1.89-1-1.74.43-.41.1s-2.56.22-.45.06c1.42-.11-.52-.16-.57,0a6.32,6.32,0,0,1,1.53.07c1.17.05-1.84-.55,0,.06.59.19,1.21.3,1.8.5-1.38-.46.7.37,1.14.6a21.51,21.51,0,0,1,2.75,1.68c-.68-.49.17.16.25.23.41.36.82.71,1.22,1.09a26.73,26.73,0,0,1,2.42,2.67A31.9,31.9,0,0,1,114.62,65c2.57,9.74,3,20.13,3.87,30.13q1.4,16.39,2.24,32.84c1.17,21.92,1.74,43.88,2.19,65.83q.17,8.22.32,16.46c0,1.56,2.68,2.62,3.76,2.89a14.59,14.59,0,0,0,7.13-.3c3.76-1.1,8.22-3.27,8.13-7.69-.44-23.39-.9-46.79-1.92-70.18-.52-11.82-1.18-23.64-2.07-35.45-.83-11.13-1.49-22.42-3.33-33.43-1.67-10.08-5.47-19.77-13.94-25.95-9.71-7.09-23.85-6.68-33.64.12-9.2,6.4-13.06,16.57-13.72,27.43-.31,5,0,9.94-.49,14.87A30.42,30.42,0,0,1,72,88.51c-.14.46-.3.92-.48,1.37-.37,1,.73-1.1-.18.32-.2.31-.36.65-.56,1s-.4.6-.62.89c.65-.75.7-.83.15-.25-.36.36-1.21.91.47-.32-1.32,1,1-.43,1.38-.57a8.93,8.93,0,0,1,3.08-.46c-1.5,0-.06,0,.23.07-.21-.06-2.08-.78-.74-.17-.41-.19-.82-.38-1.22-.6a11.37,11.37,0,0,1-2.74-1.87,54.46,54.46,0,0,1-9.29-11.22A66.71,66.71,0,0,1,55,63.71c-1.58-4.15-2.46-8.54-4.25-12.6-1.69-3.84-4-7.47-8.08-9.08-7.3-2.9-16.08-.54-21.89,4.46-4,3.46-6,8.34-8,13.12s-3.83,9.92-5.38,15A173.36,173.36,0,0,0,.49,137.77a154.06,154.06,0,0,0,5.07,30.16c2.62,9.41,6.68,19,13.45,26.17a31.28,31.28,0,0,0,13.49,8.69c6.85,2.11,14.52.86,20.75-2.44,9-4.74,13.33-14.4,12-24.29-1.62-12.28-3.2-25-6.87-36.85a26.53,26.53,0,0,0-3.12-7c-.94-1.39-3.77-1.82-5.2-1.9a16.73,16.73,0,0,0-7.47,1.45c-3,1.39-7.42,4.42-4.94,8.1Z" style="fill: #1b4472"/>
        </g>
        <g>
          <path d="M287.42,234.64a3.63,3.63,0,0,1,1.14,2.83,3.56,3.56,0,0,1-1.14,2.82,4.59,4.59,0,0,1-3.17,1h-1.88v3.79h-2.2V233.62h4.08A4.59,4.59,0,0,1,287.42,234.64Zm-1.72,4.17a1.9,1.9,0,0,0,0-2.69,2.31,2.31,0,0,0-1.57-.5h-1.76v3.69h1.76A2.31,2.31,0,0,0,285.7,238.81Z" style="fill: #ca0055"/>
          <path d="M292,244.49a4.67,4.67,0,0,1-1.77-2.05,8.15,8.15,0,0,1,0-6.14,4.7,4.7,0,0,1,1.77-2.06,5.78,5.78,0,0,1,5.64,0,4.61,4.61,0,0,1,1.77,2.05,8.21,8.21,0,0,1,0,6.16,4.61,4.61,0,0,1-1.77,2.05,5.81,5.81,0,0,1-5.64,0Zm5-2.33a5.67,5.67,0,0,0,0-5.6,2.8,2.8,0,0,0-4.3,0,5.65,5.65,0,0,0,0,5.59,2.81,2.81,0,0,0,4.3,0Z" style="fill: #ca0055"/>
          <path d="M315,233.62h2.51l-3.33,11.48h-2.76l-2.37-8.52-2.37,8.52h-2.77l-3.33-11.48h2.52l2.21,8.67,2.42-8.67h2.63l2.42,8.7Z" style="fill: #ca0055"/>
          <path d="M318.92,245.1V233.62h7.46v2h-5.25v2.65h4.76v1.94h-4.76v3h5.3v1.91Z" style="fill: #ca0055"/>
          <path d="M334.52,245.1l-2.48-4h-1.58v4h-2.18V233.62h4.11a4.66,4.66,0,0,1,3.16,1,3.42,3.42,0,0,1,1.12,2.73,3.68,3.68,0,0,1-.61,2.15,3.35,3.35,0,0,1-1.73,1.28l2.73,4.33Zm-4.06-6h1.84a2.27,2.27,0,0,0,1.52-.48,1.69,1.69,0,0,0,0-2.5,2.4,2.4,0,0,0-1.56-.47h-1.79Z" style="fill: #ca0055"/>
          <path d="M338.6,245.1V233.62h7.46v2h-5.25v2.65h4.75v1.94h-4.75v3h5.3v1.91Z" style="fill: #ca0055"/>
          <path d="M355.67,235.05a5.8,5.8,0,0,1,1.46,4.32,5.07,5.07,0,0,1-5.52,5.73H348V233.62h3.65A5.58,5.58,0,0,1,355.67,235.05ZM354,242.21a5.31,5.31,0,0,0,0-5.7,3,3,0,0,0-2.33-.93H350.2v7.56h1.47A3,3,0,0,0,354,242.21Z" style="fill: #ca0055"/>
        </g>
        <g>
          <path d="M290.38,260.45a3.61,3.61,0,0,1,.7,2.22,3.74,3.74,0,0,1-1.34,3.08,6.12,6.12,0,0,1-3.9,1.08h-5.37v-14.7h5.22a5.33,5.33,0,0,1,3.53,1,3.58,3.58,0,0,1,1.21,2.91,3.17,3.17,0,0,1-.53,1.84,3.64,3.64,0,0,1-1.4,1.2A3.82,3.82,0,0,1,290.38,260.45Zm-7.12-5.81v3.46h2.37a2.24,2.24,0,0,0,1.48-.49,1.61,1.61,0,0,0,.58-1.3,1.48,1.48,0,0,0-.57-1.21,2.29,2.29,0,0,0-1.47-.46Zm4.31,9.17a1.75,1.75,0,0,0,.64-1.43,1.72,1.72,0,0,0-.69-1.45,2.78,2.78,0,0,0-1.77-.53h-2.49v3.93h2.51A2.84,2.84,0,0,0,287.57,263.81Z" style="fill: #ca0055"/>
          <path d="M301.43,252.13h3.14l-5.05,8.75v5.95h-2.79v-6l-5.05-8.71h3.16l3.29,6.05Z" style="fill: #ca0055"/>
          <path d="M321.71,266.83,317,261l-1.17,1.06v4.74H313v-14.7h2.81v6.49l5.59-6.49h3.31l-5.91,7,6.24,7.74Z" style="fill: #ca0055"/>
          <path d="M328.24,265.44a5.94,5.94,0,0,1-1.56-4.43v-8.88h2.95v9a3.37,3.37,0,0,0,.8,2.41,3.66,3.66,0,0,0,4.62,0,3.41,3.41,0,0,0,.78-2.41v-9h3V261a5.9,5.9,0,0,1-1.57,4.43,7.33,7.33,0,0,1-9,0Z" style="fill: #ca0055"/>
          <path d="M353.83,252.13h3.75v14.7h-2.79l.1-10.38L351,265.29h-2.6l-3.89-8.88.09,10.42h-2.79v-14.7h3.75l4.17,9.86Z" style="fill: #ca0055"/>
          <path d="M370.24,252.13h2.81v14.7h-3.29l-6.4-10.13v10.13h-2.81v-14.7h3.28l6.41,10.11Z" style="fill: #ca0055"/>
          <path d="M376,266.83v-14.7h2.85v14.7Z" style="fill: #ca0055"/>
          <path d="M392.41,252.11v2.53H388v12.19h-2.87V254.64h-4.45v-2.53Z" style="fill: #ca0055"/>
        </g>
        <path d="M360.62,233.5h25.31a6.48,6.48,0,0,1,6.48,6.48v5.37a0,0,0,0,1,0,0H360.62a0,0,0,0,1,0,0V233.5A0,0,0,0,1,360.62,233.5Z" style="fill: #ca0055"/>
      </g>
    </g>
  </g>
</svg>
