<svg xmlns="http://www.w3.org/2000/svg" viewBox="0 0 832.17 862.18">
  <title>viniyuk-logo</title>
  <g id="Layer_2" data-name="Layer 2">
    <g id="Layer_1-2" data-name="Layer 1">
      <g>
        <rect x="480.43" y="209.67" width="100.76" height="210.56" style="fill: #fff"/>
        <g>
          <g>
            <path d="M522.12,844.87V784.62q-3.87-6.9-51.75-74.61H438.73q0,.75,26.07,38.62,30.51,43.17,30.5,44.77v51.47a.67.67,0,0,0,.76.75h25.4Q522.12,845.62,522.12,844.87Z" style="fill: #7c141f"/>
            <path d="M646.21,835.71q24.64-15.5,24.65-54.31V711.05c0-.38-.26-.6-.76-.66H645.45q-.57,0-.66.66v72.81a51.48,51.48,0,0,1-1.13,12q-6.42,23.52-28.62,23.52h-4a30.66,30.66,0,0,1-11.24-2.17q-18.14-7.28-18.13-33.34V711.05c0-.38-.26-.6-.76-.66H556.4a.69.69,0,0,0-.76.66v76.49a63.13,63.13,0,0,0,5.1,24.94q16.34,33,52.13,33Q632.52,845.44,646.21,835.71Z" style="fill: #7c141f"/>
            <path d="M133.15,710.13H104.53q-37.86,94.64-37.87,95.48h-.75Q56,779.42,54.74,777.46L28.16,710,0,710.13l37.6,95.48h.27q15.84,39.17,16.7,40h23.8Q128,723.93,133.15,710.13Z" style="fill: #7c141f"/>
            <path d="M346.58,844.82v-134a.67.67,0,0,0-.65-.74h-25c-.37,0-.61.25-.75.74v88.87h-.65v-.36c-1.95-2.64-3.87-5.23-5.71-7.76l-1.9-2.57Q279.63,745.27,266,726.55c-.78-1-1.51-2.06-2.2-3l-3.09-4.22-.55-.77-4.39-5.95H224.55L255.17,755l15.31,21.25,1.11,1.53q49,67.38,49.68,67.77h24.66C346.37,845.58,346.58,845.34,346.58,844.82Z" style="fill: #7c141f"/>
            <polygon points="259.62 805.78 231.64 768.04 231.64 843.51 259.62 843.51 259.62 805.78" style="fill: #7c141f"/>
            <path d="M770.5,775.7q2.65-3.41,56.85-65.64l-.66-.38H794.77q-3.76,3.78-45.9,53.93v23.8q0,1.89,12.47,15.11,33.06,37.77,37.78,42.5h32.29a.67.67,0,0,0,.76-.76Q773.43,778.25,770.5,775.7Z" style="fill: #7c141f"/>
            <polygon points="732.07 835.86 704.09 802.8 704.09 845.58 732.07 845.58 732.07 835.86" style="fill: #7c141f"/>
            <polygon points="80.64 850.47 56.7 850.75 68.83 862.18 89.77 862.18 152.39 709.98 138.6 709.98 80.64 850.47" style="fill: #7c141f"/>
            <path d="M191.5,844.11V711.49c0-.38-.22.06-.66,0H166.67c-.45,0-.7,47.85-.76,48.29v84.33a.67.67,0,0,0,.76.76h24.17C191.28,844.87,191.5,844.62,191.5,844.11Z" style="fill: #7c141f"/>
            <polygon points="197.36 849.78 168.62 849.78 180.17 860.83 181.48 862.18 205.38 862.18 205.38 720.39 197.26 712.18 197.36 849.78" style="fill: #7c141f"/>
            <path d="M405.69,844.11V711.49c0-.38-.22.06-.66,0H380.85c-.44,0-.69,47.85-.75,48.29v84.33a.67.67,0,0,0,.75.76H405C405.47,844.87,405.69,844.62,405.69,844.11Z" style="fill: #7c141f"/>
            <polygon points="409.63 849.78 382.8 849.78 394.36 860.83 395.67 862.18 419.57 862.18 419.57 720.39 411.45 712.18 409.63 849.78" style="fill: #7c141f"/>
            <polygon points="352.14 849.78 325.32 849.78 336.87 860.83 338.18 862.18 362.08 862.18 362.08 720.39 353.96 712.18 352.14 849.78" style="fill: #7c141f"/>
            <polygon points="265 849.36 237.9 849.36 249.04 860.41 273.69 860.41 273.69 820.95 265 812.26 265 849.36" style="fill: #7c141f"/>
            <polygon points="734.95 849.36 707.85 849.36 718.99 860.41 743.64 860.41 743.64 845.02 734.95 836.33 734.95 849.36" style="fill: #7c141f"/>
            <polygon points="527.79 849.36 500.69 849.36 511.83 860.41 536.48 860.41 536.48 799.81 527.79 789.58 527.79 849.36" style="fill: #7c141f"/>
            <polygon points="595.98 727.01 587.18 718.7 587.18 796.57 595.98 805.37 595.98 727.01" style="fill: #7c141f"/>
            <path d="M676.24,787.17c0,.41,0,.81,0,1.22a97.16,97.16,0,0,1-.78,12.51c-2.6,20.35-15.55,38.2-34.62,45.75-27.92,11.06-54.42-1.21-54.42-1.21L597.65,857c12,4.61,25.63,4.21,25.63,4.21,15.12,0,36.7-10.85,45.43-20.56,9.74-10.83,16.41-22.49,16.41-37.06V724.27l-8.88-8.88S675.73,763.72,676.24,787.17Z" style="fill: #7c141f"/>
            <polygon points="742.48 792.72 742.56 767.87 730.47 780.45 730.4 800.85 790.33 861.54 815.27 861.54 826.32 850.49 795.81 850.49 742.48 792.72" style="fill: #7c141f"/>
          </g>
          <g>
            <path d="M448.33,447.91,285.23,328.16l-71.39,52.41A140.46,140.46,0,0,0,380.07,607L565.45,471a140.12,140.12,0,0,1-117.12-23Z" style="fill: #7c141f"/>
            <path d="M517.83,360.51h2.67v17.93q0,5.58-5.09,5.58a4.6,4.6,0,0,1-4.49-3q-1.34-3-1.33-9.58,0-5.81,1.82-8.36T517.83,360.51Z" style="fill: #7c141f"/>
            <path d="M618.34,202.14,380.07,27.23A140.46,140.46,0,1,0,213.83,253.68l238.3,174.91A140.45,140.45,0,1,0,618.34,202.14Zm-97.6,202.24q-16,0-23.87-8.37T489,370.69q0-14.06,5.94-21.45t16.36-7.39a41.43,41.43,0,0,1,7,.48v-34.9q0-6.54-15.51-10.42L496,289.25V260.9q0-16.48,16.72-16.48,10.9,0,17.57,3.75t6.91,3.76a.65.65,0,0,0,.73-.73V229.88h25.69v25.44c0,7.12-1.82,12.36-5.46,15.76s-8.76,5.09-15.39,5.09h-2.42c-.49,0-2.3-.81-5.45-2.43a19.57,19.57,0,0,0-8.85-2.42,7.7,7.7,0,0,0-4,.73,3,3,0,0,0-1.09,2.66v7a58.88,58.88,0,0,1,21.33,8.12q9.93,6.18,9.94,14.42v70q0,14.79-8.12,22.42T520.74,404.38Zm43.81-30.07q0,14.78-8.12,22.41c-4.11,3.86-9.6,6.21-16.44,7.14A42.23,42.23,0,0,0,549.3,398c5.81-4.7,7.64-13.79,7.64-23.64v-70a18.48,18.48,0,0,0-9.17-15.81,61.8,61.8,0,0,0-14.94-6.31c7.58,1.3,15.18,3.57,21.78,7.69s9.94,8.93,9.94,14.43Zm11.4-119q0,10.65-5.44,15.73c-3.26,3-7.69,4.7-13.31,5a37.61,37.61,0,0,0,5.72-3.94c3.66-3.38,5.42-9.71,5.42-16.81V229.88H576Z" style="fill: #7c141f"/>
          </g>
        </g>
      </g>
    </g>
  </g>
</svg>
