<svg xmlns="http://www.w3.org/2000/svg" xmlns:xlink="http://www.w3.org/1999/xlink" viewBox="0 0 500 750">
  <defs>
    <clipPath id="clip-path">
      <rect width="500" height="750" style="fill: none"/>
    </clipPath>
  </defs>
  <title>background</title>
  <g id="OBJECTS">
    <g style="clip-path: url(#clip-path)">
      <g id="Layer_2" data-name="Layer 2">
        <g id="Layer_1-2" data-name="Layer 1-2">
          <path d="M482.78,46.31c-.16-7.28-1.11-12.09-3-15.16A12.07,12.07,0,0,0,478.13,29a10.34,10.34,0,0,0-7.76-3.51,13.63,13.63,0,0,0-6,1.23,7.5,7.5,0,0,0-4-1.14,13.88,13.88,0,0,0-2.32.19h0l-.63-.89-.23-.3a30.32,30.32,0,0,0-5.88-3.23l-1.1-.14-.18-.35a27.25,27.25,0,0,0-12.11-1.35,4,4,0,0,0-.21.82,20.3,20.3,0,0,0-9,2.65l-.28.14a3.86,3.86,0,0,0-.32-.72,5.37,5.37,0,0,0-.61-1,5.87,5.87,0,0,0-4.64-2.32c-1.91,0-3.61.77-8.61,4.88a6.41,6.41,0,0,0-4-4.25,9,9,0,0,0-3.26-.54c-3.48,0-6.95.35-8.85,2.91h0l-.19.23a9.16,9.16,0,0,0-1.3,5.28c0,2.62,0,5.44-.14,8.37-.21,4-.21,8.2-.21,12.55,0,11.18.77,14.74,3.56,16.62a7.57,7.57,0,0,0,2.9,1.09h.79a7.08,7.08,0,0,0-1.6,2.33,8.08,8.08,0,0,0-.53,1.88,6.36,6.36,0,0,0,1.69,5.35,7,7,0,0,0,3.47,2,9,9,0,0,0,2.13.28h.89A6.14,6.14,0,0,0,412,81.62,11.92,11.92,0,0,0,419.53,84,12.15,12.15,0,0,0,426,82.16l.84-.56a10.71,10.71,0,0,0,6.37,1.93A5.86,5.86,0,0,0,438,81.2a8.85,8.85,0,0,0,2.17.28,9.54,9.54,0,0,0,3.93-.84,6.06,6.06,0,0,0,.79.63,7.56,7.56,0,0,0,4.18,1,6.83,6.83,0,0,0,4.65-1.56l.16.14a9.85,9.85,0,0,0,5.7,1.79A10.24,10.24,0,0,0,468.39,78a9.05,9.05,0,0,0,2,.25,7.84,7.84,0,0,0,5.33-2,6.73,6.73,0,0,0,2.21-5.07,7,7,0,0,0-1.33-4.06h0c-.14-.19-.28-.4-.44-.59a7.43,7.43,0,0,0-5.63-2.46,7.86,7.86,0,0,0-1.81.21h-.26a15.77,15.77,0,0,0-.62-1.47l-.14-.23a10.25,10.25,0,0,0-1.21-1.72l-1.23-1.18c-.77-.7-1.58-1.49-1.58-1.49l.53-.42a6.86,6.86,0,0,0,.84-.67l1.3,1.55a19,19,0,0,0,3.93,3.82,1.75,1.75,0,0,0,.67.25,10.43,10.43,0,0,0,1.56.21h2.16a13.3,13.3,0,0,0,2.6-.23h0a6.6,6.6,0,0,0,4.65-3.86,12.88,12.88,0,0,0,.77-5.18V50.19A29.08,29.08,0,0,0,482.78,46.31ZM470.25,68.44h.19a1.92,1.92,0,0,1,.42.16h0a3.69,3.69,0,0,0-.65-.18Z" style="fill: #dbdcda"/>
          <path d="M481.81,44.94c-.16-7.14-1.09-11.88-2.93-14.88a8.8,8.8,0,0,0-.75-1.09,10.39,10.39,0,0,0-8.5-4.51,13.09,13.09,0,0,0-5.88,1.23,7.39,7.39,0,0,0-4-1.12,20.06,20.06,0,0,0-2.32.14h0l-.37-.27a29.57,29.57,0,0,0-5.81-3.12L450,20.83a27.25,27.25,0,0,0-12.11-1.35,30.29,30.29,0,0,0-8.56,2.33l-.88.49h0a6.36,6.36,0,0,0-.91-1.68A5.67,5.67,0,0,0,423,18.3c-1.74,0-3.23.49-8.44,4.76a6.36,6.36,0,0,0-3.9-4.23,8.93,8.93,0,0,0-3.28-.53c-3.51,0-7,.37-8.76,3.11-.14.24-.28.44-.4.68h0a9.4,9.4,0,0,0-1,4.48c0,2.61-.07,5.37-.16,8.23-.11,3.93-.18,8.05-.18,12.25,0,11,.74,14.49,3.48,16.28a8.2,8.2,0,0,0,3.63,1.18h0a7.16,7.16,0,0,0-2.12,4.19,6.46,6.46,0,0,0,0,.88,6.31,6.31,0,0,0,1.65,4.51,6.86,6.86,0,0,0,3.42,2,8.68,8.68,0,0,0,2.09.27H410a6.1,6.1,0,0,0,2.19,3.33A11.62,11.62,0,0,0,419.6,82,11.89,11.89,0,0,0,426,80.23a6.59,6.59,0,0,0,.82-.56,10.26,10.26,0,0,0,6.25,1.88,5.7,5.7,0,0,0,4.65-2.32,9.1,9.1,0,0,0,2.14.28,9.5,9.5,0,0,0,3.9-.77,5.35,5.35,0,0,0,.77.58,7.33,7.33,0,0,0,4.12,1,6.71,6.71,0,0,0,4.46-1.53l.16.14a9.3,9.3,0,0,0,5.58,1.74A10.07,10.07,0,0,0,467.58,76a9.89,9.89,0,0,0,1.95.23,7.66,7.66,0,0,0,5.23-1.92,6.53,6.53,0,0,0,2.17-4.91,6.69,6.69,0,0,0-1.56-4.65,7.18,7.18,0,0,0-5.51-2.32,7.75,7.75,0,0,0-1.79.21h-.26a10.27,10.27,0,0,0-1.9-3.38h0l.53-.55h0a6.19,6.19,0,0,0,3.81,2.32,18.34,18.34,0,0,0,2,.21h1.69a14.13,14.13,0,0,0,2.68-.23,6.48,6.48,0,0,0,4.65-3.77,13.14,13.14,0,0,0,.74-5.09V48.75C481.85,47.54,481.85,46.19,481.81,44.94ZM406.7,35.11" style="fill: #fff"/>
          <path d="M406.47,59.86h-.65a5.49,5.49,0,0,1-2.77-.49c-.88-.6-1.33-4.64-1.33-12.32,0-4.16,0-8.2.19-12.08,0-2.93.14-5.72.16-8.37a4.65,4.65,0,0,1,.47-2.49c.44-.67,2.07-1,4.88-1a4.6,4.6,0,0,1,1.56.21c.76.28,1.14,1,1.14,2.32v4.65c0,1.42.18,2.14.58,2.14h.3a4.57,4.57,0,0,0,1.6-1.26l2.82-2.32c4.41-3.74,7-5.6,7.71-5.6a.91.91,0,0,1,.75.35,1.38,1.38,0,0,1,.3.9,3.15,3.15,0,0,1-.44,1.44,34.71,34.71,0,0,1-6.81,5.7,3,3,0,0,0-1.42,2.53A4.5,4.5,0,0,0,416,36l1.86,3.83c2.33,5,4.65,9.14,6.68,12.6a6.1,6.1,0,0,1,1.13,2.7,1.48,1.48,0,0,1-.39,1,7.42,7.42,0,0,1-1.12.89,5.16,5.16,0,0,1-2.6,1.18,1.69,1.69,0,0,1-1.28-.56,31.05,31.05,0,0,1-3.72-6.41q-1.62-3.37-4.65-9.9c-.79-1.82-1.42-2.72-1.86-2.72s-.44.83-.44,2.53V56.72a3.77,3.77,0,0,1-.58,2.47A3.52,3.52,0,0,1,406.47,59.86Z" style="fill: #7f8080"/>
          <path d="M474.79,32.57q2,3.28,2.32,12.46v7.16a9.68,9.68,0,0,1-.39,3.3,1.73,1.73,0,0,1-1.24,1,8.23,8.23,0,0,1-1.65.11h-1.58a7.13,7.13,0,0,1-1.21-.14,1.32,1.32,0,0,1-1.06-.83,3.51,3.51,0,0,1-.21-1.28c0-.33,0-1.19.14-2.58.23-3.35.34-6.23.34-8.7a30.69,30.69,0,0,0-.55-6.2c-.45-2.33-1.38-3.38-2.82-3.38s-2.74,1.17-3.58,3.54a13.58,13.58,0,0,0-.55,4.48c0,2,0,4.35.25,7.16.12,2,.16,3.56.16,4.79a4.23,4.23,0,0,1-.41,2.19,2.37,2.37,0,0,1-1.75.84,28.59,28.59,0,0,1-3.07.2c-1,0-1.6-.25-1.81-.79a3.54,3.54,0,0,1-.3-1.58q0-3.51.3-22.69c0-1,.33-1.65,1-1.88a7.68,7.68,0,0,1,2.69-.37,2.62,2.62,0,0,1,2.63,2.32c.16.63.33.93.53.93s.47-.3.84-.88a6.48,6.48,0,0,1,5.84-2.51A6,6,0,0,1,474.79,32.57Z" style="fill: #7f8080"/>
          <path d="M469.53,71.46a4.3,4.3,0,0,1-1-.14,2.36,2.36,0,0,1-1-.62,1.52,1.52,0,0,1-.4-1v-.23a2.47,2.47,0,0,1,.68-1.4,2.68,2.68,0,0,1,1.28-.67,2.89,2.89,0,0,1,.72,0,2.43,2.43,0,0,1,1.9.79,1.92,1.92,0,0,1,.44,1.32,1.81,1.81,0,0,1-.58,1.4A2.87,2.87,0,0,1,469.53,71.46Zm0-1a1.7,1.7,0,0,0,.86-.26,1.19,1.19,0,0,0,.54-.77,1.28,1.28,0,0,0,0-.39.84.84,0,0,0-.14-.51,1.14,1.14,0,0,0-1.05-.54,1.39,1.39,0,0,0-1.14.51,1.45,1.45,0,0,0-.21.91.91.91,0,0,0,.35.79A1.21,1.21,0,0,0,469.53,70.49Z" style="fill: #7f8080"/>
          <path d="M409.09,71.46a4.3,4.3,0,0,1-1-.14,2.36,2.36,0,0,1-1-.62,1.46,1.46,0,0,1-.37-1v-.21a2.37,2.37,0,0,1,.67-1.39,2.75,2.75,0,0,1,1.28-.68,2.89,2.89,0,0,1,.72,0,2.47,2.47,0,0,1,1.91.79,2,2,0,0,1,.44,1.33,1.77,1.77,0,0,1-.58,1.39A2.89,2.89,0,0,1,409.09,71.46Zm0-1a1.84,1.84,0,0,0,.89-.26,1.28,1.28,0,0,0,.51-.79,1.34,1.34,0,0,0,0-.4.94.94,0,0,0-.14-.51A1.15,1.15,0,0,0,409.3,68,1.23,1.23,0,0,0,408,69.44a.89.89,0,0,0,.35.79A1.21,1.21,0,0,0,409.09,70.49Z" style="fill: #7f8080"/>
          <path d="M419.58,77.25a7,7,0,0,1-4.47-1.32,1.26,1.26,0,0,1-.53-1,.6.6,0,0,1,.35-.49.65.65,0,0,1,.51-.2,1.21,1.21,0,0,1,.53.16,7,7,0,0,0,3.17.74c2.51,0,3.76-.72,3.76-2.14,0-.9-.7-1.65-2.09-2.32s-2.33-1.09-3-1.47a5.7,5.7,0,0,1-3-3.81,4.81,4.81,0,0,1-.14-1.14A5.3,5.3,0,0,1,417,59.65a6.43,6.43,0,0,1,3.72-1,6,6,0,0,1,4.09,1.32,1.22,1.22,0,0,1,.46,1,.63.63,0,0,1-.63.69,1.17,1.17,0,0,1-.51-.16,5.8,5.8,0,0,0-2.88-.74,3.17,3.17,0,0,0-2.72,1,2.28,2.28,0,0,0-.46,1.37,2.65,2.65,0,0,0,.11.74,3.11,3.11,0,0,0,1.23,1.68A27.26,27.26,0,0,0,422,66.93a7.68,7.68,0,0,1,3.28,2.63,4.29,4.29,0,0,1,.77,2.32,4.66,4.66,0,0,1-2.53,4.21A7.22,7.22,0,0,1,419.58,77.25Z" style="fill: #7f8080"/>
          <path d="M433.06,76.81c-3.37,0-5.16-1.79-5.35-5.39v-2c0-.58-.21-.88-.62-.88a.82.82,0,0,1-.89-.75c0-.49.23-.6.7-.6a2,2,0,0,0,.74-.16c.17,0,.26-.35.28-.77l.17-3.81a1.74,1.74,0,0,1,.37-1.14c.21-.28.72-.4,1.51-.4a5.83,5.83,0,0,1,1.32,0,.67.67,0,0,1,.54.47,2,2,0,0,1,0,.69v3.79a1.89,1.89,0,0,0,0,.75c.14.23.49.37,1.07.42a1,1,0,0,1,.86.39.56.56,0,0,1,.11.37c0,.28-.28.44-.88.49h-.56a1.33,1.33,0,0,0-.69.26c-.19.16-.28.65-.28,1.44v1.18a4.13,4.13,0,0,0,2.07,4.16.87.87,0,0,1,.55.77C434,76.58,433.69,76.81,433.06,76.81Z" style="fill: #7f8080"/>
          <path d="M439.89,74.81a6.09,6.09,0,0,1-2-.42,4.5,4.5,0,0,1-2.05-2,6.36,6.36,0,0,1-.79-3.33v-.72A10,10,0,0,1,436.43,64,5.23,5.23,0,0,1,439,61.77a4.1,4.1,0,0,1,1.42-.26A4.2,4.2,0,0,1,444.15,64a9,9,0,0,1,.86,4.18,7.54,7.54,0,0,1-1.12,4.42A4.64,4.64,0,0,1,439.89,74.81Zm0-3a2.5,2.5,0,0,0,1.75-.86,4.41,4.41,0,0,0,1-2.47,7,7,0,0,0,.12-1.2,4.56,4.56,0,0,0-.28-1.68,2.32,2.32,0,0,0-2.07-1.67,2.5,2.5,0,0,0-2.32,1.62,6.1,6.1,0,0,0-.58,2.91,3.83,3.83,0,0,0,.67,2.53,2,2,0,0,0,1.65.79Z" style="fill: #7f8080"/>
          <path d="M448.64,75.6a3.24,3.24,0,0,1-1.54-.23.86.86,0,0,1-.39-.75,4.34,4.34,0,0,1,0-.51c0-1.65.14-3.3.18-4.93s.14-4.06.26-6.41a1,1,0,0,1,.81-1,4.7,4.7,0,0,1,1.05-.12c.46,0,.83.53,1.07,1.6,0,.24.11.33.21.33s.16,0,.27-.33a3.48,3.48,0,0,1,3-2,.94.94,0,0,1,.63.18.79.79,0,0,1,.33.72v.21c0,.54-.45.89-1.31,1.1-1.3.32-2.16,1.46-2.58,3.44a19,19,0,0,0-.44,3.76c0,.47,0,1,0,1.42a21.05,21.05,0,0,1,.14,2.16C450.43,75.14,449.8,75.6,448.64,75.6Z" style="fill: #7f8080"/>
          <path d="M458.84,76a4.63,4.63,0,0,1-2.79-.86,5.13,5.13,0,0,1-1.84-2.46,9.47,9.47,0,0,1-.6-3.37,10.9,10.9,0,0,1,.67-3.75,7.42,7.42,0,0,1,1.86-2.88,4.67,4.67,0,0,1,3.4-1.32,3.32,3.32,0,0,1,2.67,1.21,5.49,5.49,0,0,1,1.33,3.76c0,1.16-.75,2-2.33,2.44l-3.18,1a1.49,1.49,0,0,0-.91.53.57.57,0,0,0,0,.26,2.73,2.73,0,0,0,0,.7c.4,1.6,1.16,2.32,2.32,2.32a3.33,3.33,0,0,0,3.1-1.44c.34-.6.71-.91,1.11-.91a.42.42,0,0,1,.42.28.66.66,0,0,1,0,.28,2.1,2.1,0,0,1-.28.91A5.43,5.43,0,0,1,458.84,76Zm-1.51-7.6a21.33,21.33,0,0,0,3.74-1.25,1.07,1.07,0,0,0,.77-1,4.16,4.16,0,0,0-.21-1.21,3.21,3.21,0,0,0-.88-1.65,1.77,1.77,0,0,0-.93-.37,1.85,1.85,0,0,0-.47,0,3.19,3.19,0,0,0-1.51,1.3,7.77,7.77,0,0,0-.88,3.12v.39a1.14,1.14,0,0,0,0,.45A.32.32,0,0,0,457.33,68.37Z" style="fill: #7f8080"/>
          <path d="M452.49,34.11a6.13,6.13,0,0,0-.18-.61,14.7,14.7,0,0,0-2-3.74A14.52,14.52,0,0,0,449,28.22h0a14.64,14.64,0,0,0-2.79-1.74,10.61,10.61,0,0,0-3.07-.84h-1.26a11,11,0,0,0-1.62.14h0a10.68,10.68,0,0,0-1.77.45,20.24,20.24,0,0,0-4.88,2.09,16.37,16.37,0,0,0-1.84,1.28,13.91,13.91,0,0,0-4.65,7.32c-.14.53-.28,1.09-.37,1.65a25.72,25.72,0,0,0,0,7.93,3.29,3.29,0,0,0,.19.81,20.15,20.15,0,0,0,1.62,4.37,12.75,12.75,0,0,0,5.79,5.53,18.39,18.39,0,0,0,2.07.51,13.71,13.71,0,0,0,4.65.17,12.33,12.33,0,0,0,5.74-2.54l.16-.11.19-.14a20,20,0,0,0,3.51-4l.4-.61a19.31,19.31,0,0,0,2.51-8.14v-2A21.38,21.38,0,0,0,452.49,34.11ZM439.55,50.38a6.35,6.35,0,0,1-5.56-3,8.73,8.73,0,0,1-1.26-4.25,10.93,10.93,0,0,1,.8-4.23A8.25,8.25,0,0,1,439.2,34a5.42,5.42,0,0,1,5.3.79,6.62,6.62,0,0,1,1.28,1.41l.41.66a9.41,9.41,0,0,1,.7,5.34,11.4,11.4,0,0,1-2,4.91l-.35.46a9.08,9.08,0,0,1-3.42,2.49,5.48,5.48,0,0,1-1.6.37Z" style="fill: #f58e8b"/>
          <path d="M453.56,40.27v2a19.56,19.56,0,0,1-2.51,8.11l-.42.6a15.09,15.09,0,0,1-7.41,6.19A16.67,16.67,0,0,0,448.4,52c.14-.21.28-.4.4-.61a19.18,19.18,0,0,0,2.51-8.11v-2a21.59,21.59,0,0,0-1-6.18,5.23,5.23,0,0,0-.12-.54,15.31,15.31,0,0,0-2-3.74,12.47,12.47,0,0,0-1.3-1.51h0a13.62,13.62,0,0,0-2.81-1.75,10.38,10.38,0,0,0-3.05-.83h-.76a10,10,0,0,0-2.12.14h0a10,10,0,0,0-1.79.44,18.48,18.48,0,0,0-2,.7,19.33,19.33,0,0,1,4.21-1.73,12,12,0,0,1,1.79-.44h0a11.46,11.46,0,0,1,2.11-.14h.77a10,10,0,0,1,3,.84,12.61,12.61,0,0,1,2.82,1.74h0a14.29,14.29,0,0,1,1.28,1.52,14.92,14.92,0,0,1,2,3.74l.21.6A21.89,21.89,0,0,1,453.56,40.27Z" style="fill: #f16262"/>
        </g>
      </g>
      <g>
        <rect width="500" height="750" style="fill: #f9d5b7"/>
        <path d="M304.87,52.14c-18.77-19-54.22-20.86-78.11-12.39a97.48,97.48,0,0,0-18.27,8.78c-4.74,2.89-10.25,7.59-16,8.13-3.35.31-3.5,0-4.19-2.52-2-7.26-.58-14.26-4.53-21.26-6.17-11-19.63-16.31-31.76-15.49-14.49,1-25.25,10.08-38.14,15.47-10.7,4.47-21.12,2.54-22.66-10.34C89.5,8.27,95.91-5.67,92.48-20c-6.57-27.44-39.4-37.52-60.64-19.79-4.67,3.9,1.54,12.08,6.56,8.51,10.53-7.51,25-8,34.15,2.11C82.91-17.66,77-3.41,74.74,9.92c-1.86,10.8-1.6,22.93,4.91,32.24,6.8,9.71,18.53,13.33,30,12.37,12.94-1.08,23.6-8,36-11.09,3.76-.95,8.12-1.39,11.81.23,4,1.74,3,4.43,3.09,8.65.17,14,6.43,26.63,20.63,30.88,12.81,3.84,25.3-.47,36.31-7.1,11.54-6.94,22.25-12.46,36.06-12.68,14.41-.23,25.55,5.68,38.6,10.69C304.85,79,313.52,60.88,304.87,52.14Z" style="fill: #60bfb2"/>
        <g>
          <path d="M338.82,243.3A54.4,54.4,0,0,0,340.11,257c1,4.88,1.63,9.55,3.95,14s8.85,5.85,13.14,3.75c5-2.45,6.53-7.24,5.54-12.48-.84-4.49-3.91-9-6-13.05a52.33,52.33,0,0,0-7.51-10.86C345.27,233.79,339.06,238.59,338.82,243.3Z" style="fill: #ffb54a"/>
          <path d="M323,267c-6.46-1.49-13.19-1.49-19.6-3.21-4.83-1.29-7.28,6-2.86,8.21,6,2.94,11.14,7.4,17,10.54A8.29,8.29,0,1,0,323,267Z" style="fill: #ffb54a"/>
          <path d="M330.63,292.51c-5.11,2.34-7.71,6-10,11.05a77.13,77.13,0,0,0-4,12.05c-1.34,5.12,5.59,10.57,10,6.91,6.68-5.52,15.62-12.56,15.54-22C342.14,295.31,335.78,290.16,330.63,292.51Z" style="fill: #ffb54a"/>
          <path d="M297.38,292.79c-5.8-1-11.5-1.81-17.09-3.68s-8.75,7.35-3.43,9.85S287,304.89,292,308.22c4.16,2.79,10-.57,11.41-4.68C305,299.07,302.31,293.63,297.38,292.79Z" style="fill: #ffb54a"/>
          <path d="M367.23,280.28c-2.82-2.23-7.77-1.34-8.38,2.73-.38,2.57-1,4.81-.83,7.48.14,2.35.59,4.7.92,7,.9,6.33,6.55,11.14,13.08,9.06,5.94-1.88,9.21-9.64,5.43-15-1.53-2.17-3-4.42-4.71-6.44a30,30,0,0,0-2.51-2.89C369.35,281.48,368.17,281,367.23,280.28Z" style="fill: #ffb54a"/>
          <path d="M361.3,201.84c-4.93-3-9.95-.39-14.84,1.23-3.8,1.26-7.6,2.57-11.45,3.63-6.74,1.86-4.35,11.44,2.09,11.52,4.07.05,8.15.36,12.21.61l5.5.38c3.78.26,6.4-.93,9.07-3.66C368.11,211.21,366,204.64,361.3,201.84Z" style="fill: #ffb54a"/>
          <path d="M304,209c-.27,4.62.75,9.33,1.36,13.91l1.83,13.88c.74,5.6,9.31,5.32,8.87-.45-.72-9.43-.32-19.88-2.82-29C311.72,201.79,304.3,204,304,209Z" style="fill: #ffb54a"/>
          <path d="M284.37,250.4c-6.54.2-12.87-2.29-19.13-4-4-1.12-6.35,5.33-2.44,7,5.94,2.53,12.44,4.5,17.41,8.7a6.7,6.7,0,1,0,4.16-11.69Z" style="fill: #ffb54a"/>
          <path d="M239.63,282.44l5.69,12.2c1.79,3.84,2.65,8.59,5.31,11.88,3.6,4.44,11.19,1.66,9.45-4.42-1.2-4.15-4.47-7.52-6.63-11.26l-6.79-11.69C244.48,275.39,237.74,278.38,239.63,282.44Z" style="fill: #ffb54a"/>
        </g>
        <g>
          <g>
            <path d="M167.3,283s87.26-99.62,112-149.55c0,0-3.91-49.51,2-59,8.68-14,11.76,19.28,11.76,19.28s-.31-46.9,6.15-47.85,6.86,35.06,6.86,35.06S306,48.43,314.13,46.8s6.7,37.68,6.7,37.68,5.22-27.4,11.84-30.06,2.08,25.55-1.12,34.64c0,0,9-14.62,13.51-13.73s-5.79,26.05-10.56,36.78c0,0-.62,22.4-17.63,38,0,0-63.86,161.41-103.82,196.39Z" style="fill: #fcb490"/>
            <path d="M293.53,92.94a1.14,1.14,0,0,0-1.12-1.12,1.12,1.12,0,0,0-1.11,1.12q.3,3.57.61,7.14a1.12,1.12,0,1,0,2.23,0C293.94,97.7,293.73,95.32,293.53,92.94Z" style="fill: #332623"/>
            <path d="M304.79,77.25c-.41,5-.6,10-.59,15.06a1.12,1.12,0,0,0,2.24,0c0-5,.18-10,.59-15.06C307.14,75.82,304.91,75.83,304.79,77.25Z" style="fill: #332623"/>
            <path d="M321,80.64a1.15,1.15,0,0,0-1.12,1.12l-1.16,10.55a1.13,1.13,0,0,0,1.12,1.12A1.15,1.15,0,0,0,321,92.31l1.16-10.55A1.13,1.13,0,0,0,321,80.64Z" style="fill: #332623"/>
            <path d="M332.17,87.21a1.15,1.15,0,0,0-1.37.78l-3,7.13a1.13,1.13,0,0,0,.78,1.38,1.16,1.16,0,0,0,1.37-.78l3-7.14A1.11,1.11,0,0,0,332.17,87.21Z" style="fill: #332623"/>
            <path d="M323.79,93.82A77.22,77.22,0,0,0,303,91.59a1.12,1.12,0,0,0,0,2.23A75.18,75.18,0,0,1,323.19,96C324.59,96.31,325.18,94.16,323.79,93.82Z" style="fill: #332623"/>
            <path d="M305.15,145.86q-6.82-2.82-13.43-6.19c-1.28-.65-2.41,1.28-1.12,1.93q6.84,3.48,14,6.41a1.1,1.1,0,0,0,1.37-.78A1.14,1.14,0,0,0,305.15,145.86Z" style="fill: #332623"/>
          </g>
          <g>
            <path d="M157.69,293.21s-18.29,12.86-41.2,6.38l-.21-3.81h0c1.19-.29,39.55-7.09,39.93-7.22Z" style="fill: #f79063"/>
            <path d="M110.22,468.3a36.08,36.08,0,0,1-14.3-12.48A1.12,1.12,0,0,0,94.05,457a38.35,38.35,0,0,0,15.14,13.24C110.48,470.91,111.51,468.92,110.22,468.3Z" style="fill: #332623"/>
            <path d="M221.57,429.34a51.73,51.73,0,0,1-8.07,21.9c-.79,1.2,1.2,2.22,2,1a53.29,53.29,0,0,0,8.26-22.44C223.93,428.41,221.76,427.92,221.57,429.34Z" style="fill: #332623"/>
            <path d="M239,360.78c13.49,27.88,24.1,56.52,20.93,63.82A59.24,59.24,0,0,1,255.7,433c-5.54,8.64-14.94,16-38.58,21.15,0,0-25,19.53-57.46,25.47s-49.33-7.44-49.33-7.44-12.24,3.64-21.33.34a14.82,14.82,0,0,1-5.76-3.73C79,464.19,71,424.51,72.42,384.61c1.17-31.47,8.2-63.09,27.71-77.67a40.74,40.74,0,0,1,16.37-7.35c22.9,6.48,41.17-6.37,41.17-6.37l37.4-52.48s55.9,26.39,71.22,47.81Z" style="fill: #ff7b4d"/>
          </g>
          <g>
            <path d="M8.68,180.33l-.13,0a.4.4,0,0,1,0-.15A.91.91,0,0,0,8.68,180.33Z" style="fill: #ffa383"/>
            <path d="M268.16,163.61c.39,10.36-2.52,21-9.29,28.93a35.35,35.35,0,0,1-18.17,11.37c-2.32,47.5-43.2,76.94-97.06,88.88S40.32,295.3,18.15,253.24a35.47,35.47,0,0,1-21.27-2.63c-9.51-4.35-16.63-12.74-20.67-22.29-3.91-9.25-5.5-20-3-29.83,2.5-10.07,10.09-18.19,20.6-19.82a24,24,0,0,1,14.55,2.38A117.37,117.37,0,0,1,219.1,134.34,24,24,0,0,1,231.28,126c10.21-3,20.5,1.19,27,9.26C264.71,143.19,267.79,153.58,268.16,163.61Z" style="fill: #fcb490"/>
            <path d="M8.68,180.33l-.13,0a.4.4,0,0,1,0-.15A.91.91,0,0,0,8.68,180.33Z" style="fill: #332623"/>
            <circle cx="198.13" cy="213.26" r="20.08" style="fill: #f79063"/>
            <circle cx="163.95" cy="192.3" r="28.56" style="fill: #f9eadc"/>
            <circle cx="162.44" cy="196.18" r="24.74" style="fill: #332623"/>
            <path d="M135.85,178.43a26.81,26.81,0,0,1,17.76-16.34c8.68-2.55,18.18-.78,25.85,3.81a41.31,41.31,0,0,1,10.95,9.67c1.42,1.77-1.19,4.15-2.61,2.38-6.33-7.89-15.48-13.46-25.8-13.5-9.83,0-19.38,5.64-22.8,15.09C138.43,181.67,135.08,180.57,135.85,178.43Z" style="fill: #332623"/>
            <circle cx="52.46" cy="244.24" r="20.08" style="fill: #f79063"/>
            <circle cx="75.16" cy="211.18" r="28.56" style="fill: #f9eadc"/>
            <circle cx="78.45" cy="215.91" r="24.74" style="fill: #332623"/>
            <path d="M95.26,187.06a26.8,26.8,0,0,0-22.87-7.69c-9,1.21-16.92,6.68-22.06,14a41.21,41.21,0,0,0-6.07,13.29c-.57,2.19,2.78,3.31,3.36,1.11,2.56-9.79,8.66-18.6,18.07-22.83,9-4,20-2.74,27,4.5C94.22,191.07,96.84,188.71,95.26,187.06Z" style="fill: #332623"/>
            <path d="M149.53,219.15a19.72,19.72,0,0,1-4.23,5,24.51,24.51,0,0,1-5.45,3.76,17.77,17.77,0,0,1-12.43,1.49,14.75,14.75,0,0,1-9.45-7.78,23.85,23.85,0,0,1-2.06-6.19A32.83,32.83,0,0,1,115,212a11.27,11.27,0,0,1,.6-7.32,8.8,8.8,0,0,1,10.09-4.58c3.89,1,5.65,4.51,8.19,7.28a7.42,7.42,0,0,0,5.41,2.63c2.12.06,4.22-.36,6.33,0a5.71,5.71,0,0,1,4.46,3.27A7,7,0,0,1,149.53,219.15Z" style="fill: #f79063"/>
            <path d="M20.69,257.05A160.89,160.89,0,0,1,4.75,211.82c-.27-1.4-2.39-.7-2.12.7a162.82,162.82,0,0,0,16.19,45.75C19.49,259.54,21.36,258.32,20.69,257.05Z" style="fill: #332623"/>
            <path d="M4.42,238.21a65.91,65.91,0,0,0-21.49-29.55c-1.13-.87-2.63.78-1.5,1.66A63.64,63.64,0,0,1,2.29,238.91C2.78,240.25,4.91,239.56,4.42,238.21Z" style="fill: #332623"/>
            <path d="M252.19,146.44a65.45,65.45,0,0,0-9,32.5c0,1.44,2.22,1.33,2.23-.11a63.19,63.19,0,0,1,8.77-31.36C254.9,146.23,252.91,145.21,252.19,146.44Z" style="fill: #332623"/>
            <path d="M132.45,248.48a3.38,3.38,0,0,0-4.12-2.34,15.21,15.21,0,0,1-5.66.77,16.06,16.06,0,0,1-5.34-1.14l-.12,0-.51-.24c-.42-.2-.83-.42-1.23-.65s-.79-.48-1.18-.73c-.1-.08-1.05-.78-.71-.51a20.28,20.28,0,0,1-2-1.9c-.31-.34-.62-.69-.91-1.06.27.34-.42-.62-.49-.72a3.43,3.43,0,0,0-4.59-1.2,3.38,3.38,0,0,0-1.2,4.58,22.94,22.94,0,0,0,25.75,9.3A3.41,3.41,0,0,0,132.45,248.48Z" style="fill: #332623"/>
            <path d="M238,117.9A28.9,28.9,0,0,1,228.78,130a25.31,25.31,0,0,1-16,4.75c-11-.31-20.49-6.14-29.18-12.44A17.06,17.06,0,0,1,182.49,134c-5.09,11.19-18.34,13.51-29.37,12.37a81.2,81.2,0,0,1-34.25-11.86c1,5.18,1.7,10.59.13,15.7a22.89,22.89,0,0,1-8.13,11.33c-8.13,6.26-18.54,7.19-28.39,5.85-11.31-1.52-22.14-6.18-33.62-6.5A30.5,30.5,0,0,0,33.78,164,23.56,23.56,0,0,0,24,174.19c-5.23,10-4.25,21.72-3.33,32.6a1.12,1.12,0,0,1-2.08.56q-6-13-11.95-26C-1,178.21-6.17,171.22-8.8,163.54-14.23,147.65-9.25,129,2,116.78c11.1-12,28.39-17.34,44.36-14.34-3.93-7.26-7.32-14.9-8.29-23.15a32.29,32.29,0,0,1,3.65-19.43A23,23,0,0,1,57.5,48.53c15.06-2.84,27.9,6.7,38.16,16.58,4.53-10.26,9.56-20.47,17.11-28.84C119,29.41,127,23.82,136.05,21.68a36.69,36.69,0,0,1,25.73,3.62C178,34,185.4,52.71,182.94,70.42a43.25,43.25,0,0,1,32.59-1.56,37.75,37.75,0,0,1,21.63,20.08C241.23,98,241.94,108.62,238,117.9Z" style="fill: #332623"/>
            <path d="M265.83,148.15a51.15,51.15,0,0,0-9.39-16.38c-.93-1.09-2.51.49-1.58,1.58a50.15,50.15,0,0,1,11.66,29.53c.6,10.61-1.95,22-9.49,29.85-4.28,4.47-9.74,7.57-15.32,10.14-1.31.6-.17,2.53,1.12,1.93a53.4,53.4,0,0,0,14.62-9.34,35.05,35.05,0,0,0,8.85-13.91C270.05,170.9,269.54,158.74,265.83,148.15Z" style="fill: #332623"/>
            <path d="M239.92,183.92a89.31,89.31,0,0,0-7.1-20.57c-.62-1.29-2.55-.16-1.93,1.13,10.81,22.23,11.71,48.73,1.08,71.2a77.18,77.18,0,0,1-10.74,16.73c-.92,1.1.65,2.69,1.58,1.58C239.1,234.69,245.1,208.53,239.92,183.92Z" style="fill: #332623"/>
          </g>
        </g>
        <polygon points="0 360.56 500 305.49 500 750 0 750 0 360.56" style="fill: #fff4ef"/>
        <g>
          <path d="M102,352.11a13.32,13.32,0,0,1-6.94,8.39c0,.59,0,1.15,0,1.73-.52,5.45-4.26,10.32-9.78,11.4a12.27,12.27,0,0,1-4.1,0,.51.51,0,0,1-.18-.08,1.31,1.31,0,0,1-.27.39,10,10,0,0,1-1.23,1.37,15.14,15.14,0,0,1-8,4.14,13.14,13.14,0,0,1-7.59-1.06,12.12,12.12,0,0,1-3.9-3.06c-1.15.59-2.47,1.54-3.17,1.8a15.41,15.41,0,0,1-4.85,1.11,15.6,15.6,0,0,1-8-1.86c-5.52-2.88-9.71-8.06-12.21-13.68-4.49-10-2.38-22.26,5.91-29.66,8.56-7.65,22-9.69,33.11-10,5.57-.15,11.32.14,16.54,2.27a24.36,24.36,0,0,1,11.86,11C101.76,341.07,103.53,346.71,102,352.11Z" style="fill: #fcb490"/>
          <path d="M89.48,338.42c-.75-1.23-2.56.07-1.82,1.3,3.45,5.67,6.84,12,6.45,18.88-.08,1.42,2.12,1.83,2.2.4C96.74,351.47,93.29,344.68,89.48,338.42Z" style="fill: #332623"/>
          <path d="M78,364.23a1.15,1.15,0,0,0-.67,1.43,49.78,49.78,0,0,0,2.27,7.27,1.12,1.12,0,0,0,2.1-.76,49.08,49.08,0,0,1-2.27-7.28A1.12,1.12,0,0,0,78,364.23Z" style="fill: #332623"/>
          <path d="M62.24,366.9a1.12,1.12,0,0,0-1,1.2l.45,7.95a1.12,1.12,0,1,0,2.23-.19l-.45-7.94A1.14,1.14,0,0,0,62.24,366.9Z" style="fill: #332623"/>
          <path d="M47.93,366.65a1.14,1.14,0,0,0-1.3.9q-.45,4.2-.53,8.41a1.12,1.12,0,0,0,1.21,1,1.14,1.14,0,0,0,1-1.2c.05-2.62.22-5.22.5-7.83A1.14,1.14,0,0,0,47.93,366.65Z" style="fill: #332623"/>
        </g>
      </g>
    </g>
  </g>
</svg>
