<svg xmlns="http://www.w3.org/2000/svg" xmlns:xlink="http://www.w3.org/1999/xlink" viewBox="0 0 847.68 1271.52">
  <defs>
    <clipPath id="clip-path">
      <rect width="847.68" height="1272.4" style="fill: none"/>
    </clipPath>
  </defs>
  <title>background</title>
  <g id="BACKGROUND">
    <g id="BACKGROUND-2" data-name="BACKGROUND">
      <g style="clip-path: url(#clip-path)">
        <rect x="-20.74" y="-33.79" width="889.15" height="1342.19" style="fill: #f8edf5"/>
        <path d="M611.91,705.17c0,17.47-16.46,32.4-20.5,48.51-4.17,16.67,3,38.36-4.95,53-8,14.8-29.26,19-40.52,31s-15.19,34.68-29.06,43.25c-13.68,8.44-34,.83-49.62,5.28-15.09,4.31-29.08,21.87-45.45,21.87s-30.35-17.56-45.45-21.87c-15.62-4.45-35.94,3.16-49.61-5.28-13.88-8.57-17.81-31.24-29.07-43.26s-32.49-16.21-40.52-31c-7.91-14.6-.78-36.29-5-53-4-16.11-20.49-31-20.49-48.51s16.45-32.4,20.49-48.51c4.17-16.68-3-38.36,5-53,8-14.81,29.27-19,40.53-31s15.18-34.68,29.06-43.25c13.67-8.45,34-.83,49.61-5.28,15.1-4.31,29.08-21.88,45.45-21.88s30.36,17.57,45.45,21.88c15.62,4.45,35.94-3.16,49.62,5.28,13.87,8.57,17.8,31.24,29.06,43.25s32.5,16.22,40.52,31c7.92,14.6.78,36.29,5,53C595.45,672.77,611.91,687.7,611.91,705.17Z" style="fill: #fff"/>
        <path d="M188.73,309.15c52.5,61.77,132,96.21,210,91S551.57,350,596.37,281.65C646.63,205,662.12,100.2,732.62,44.6,775.81,10.55,836-1.34,865.74-49.09c23.75-38.18,20.08-90.29.62-131.14S814-252.66,780.24-281c-17.5-14.67-42.43-7.27-62.3,3.42,52.09,25.9,65.47,115,37,168.25S672.71-24.71,620.31.47C571.68,23.85,520,44.71,466.69,42c-141.82-7.16-232.27-170.2-366.71-219C87.89-8.22,82.21,183.82,188.73,309.15Z" style="fill: #fff"/>
      </g>
    </g>
  </g>
  <g id="OBJECTS">
    <path d="M139.46,139.75a40.26,40.26,0,0,1,2-12.8c1.33-4.14,3.82-8.39,8.21-10.84a5.54,5.54,0,0,1,1.69-.74l1.79-.55a34.65,34.65,0,0,1,3.69-.34l3.58.46c1.14.29,2.27.66,3.41,1a32.26,32.26,0,0,1,3.3,1.6,26.64,26.64,0,0,1,3,2.35,16.41,16.41,0,0,1,2.37,3l1,1.68c.26.58.45,1.18.68,1.77a23.85,23.85,0,0,1,1.24,7.25,38.35,38.35,0,0,1-.74,7,55.79,55.79,0,0,1-4.39,12.9,112.18,112.18,0,0,1-15,21.89l-1.32,1.52-2-.33a117,117,0,0,1-24.86-6.82c-2-.83-4-1.72-5.91-2.68a56.12,56.12,0,0,1-5.81-3.27,25.94,25.94,0,0,1-9.36-10.4,17.65,17.65,0,0,1-1.62-7.24A14.91,14.91,0,0,1,106.2,139a20.16,20.16,0,0,1,4.35-5.51,15.6,15.6,0,0,1,6.17-3.45,16.25,16.25,0,0,1,6.84-.47,20.14,20.14,0,0,1,6.34,1.88,25.3,25.3,0,0,1,5.4,3.51A25.74,25.74,0,0,1,139.46,139.75Zm0,0a24.84,24.84,0,0,0-10.32-6.32c-3.79-1.13-7.89-1.36-11.22.14a12,12,0,0,0-4.34,3.05,15.42,15.42,0,0,0-2.92,4.54,10.74,10.74,0,0,0,.58,9.64,21.71,21.71,0,0,0,7.66,7.44,52.13,52.13,0,0,0,5.18,2.62c1.82.8,3.68,1.54,5.56,2.24a118.74,118.74,0,0,0,23.27,6l-3.3,1.2a110.28,110.28,0,0,0,14.13-20,49,49,0,0,0,4.31-11.07c.91-3.78,1.27-7.67.34-11a11.42,11.42,0,0,0-6.56-7.62c-3.41-1.68-7.31-2.48-10.6-1s-6.07,4.57-7.85,8.27A46.25,46.25,0,0,0,139.46,139.75Z" style="fill: #fff"/>
    <g>
      <g>
        <g>
          <path d="M276.72,739.63c-6,5.29-1.72,44.06-.7,49.88.19,1.07,4.91,3.46,5.86,3.8,3.55,1.26,7.62,1.89,11.27,3a80.71,80.71,0,0,0,26.78,3.59c2.76-.09,6.09,0,7.53,2.3,1.15,1.88.38,4.48-1.26,5.95a10.46,10.46,0,0,1-6.09,2.22c-5.71.53-10.7-1.26-15.86-3.43-10.41-4.38-29.19-1.51-29.19-1.51s-5.17,11.2,4.83,28.76A103.35,103.35,0,0,1,312,836c6.7,1.47,14.42,2.64,20.46,6.12,1.59.91,3.85,2.56,3.62,4.72-.37,3.46-6.24,3.38-8.7,2.92-3.15-.57-6.05-2-9-3.28-7.18-3-14-5.2-21.8-5.2a93.62,93.62,0,0,0-13.17.91s-.84,28,22.23,41.57,69,7,81.64-25.32c0,0,30.23,2,43.37-18.44,16.61-25.79,8.78-63.23-24.82-73.13,4.83,12.1-1.74,35.56-7.05,39.71-7.67,6-12.35,3.18-9-6.73s5.2-12.55,7.73-24.56c2.23-10.65-.91-18-.91-18L358,747.69c-.55-.14-1.63,10.36-1.53,11,.76,5.55,2.59,10.57,1.11,16.24a7.41,7.41,0,0,1-2.15,3.88,3.48,3.48,0,0,1-4.16.36,4.82,4.82,0,0,1-1.47-2.45c-1.61-5-1.4-10.31-1.14-15.53.05-1.13,2-15.41,1.74-15.48S291.82,726.22,276.72,739.63Z" style="fill: #c3edd9"/>
          <path d="M276.89,739.82a9.16,9.16,0,0,0-2,4.47,40.32,40.32,0,0,0-.71,5c-.28,3.39-.32,6.8-.26,10.2.1,6.82.69,13.62,1.39,20.39l.6,5.08.36,2.52.2,1.26.11.61a1.71,1.71,0,0,0,.19.23,18.9,18.9,0,0,0,4.18,2.53,23.45,23.45,0,0,0,4.72,1.5l5,1.12c1.69.38,3.35.91,5,1.33a79.76,79.76,0,0,0,20,2.59c1.69,0,3.32-.06,5.07-.14a12.16,12.16,0,0,1,5.68.84,5.41,5.41,0,0,1,3.12,5.74,7.3,7.3,0,0,1-3.52,5.25,13.47,13.47,0,0,1-5.55,1.73,24.17,24.17,0,0,1-5.51,0,39.78,39.78,0,0,1-10.31-2.84,30.83,30.83,0,0,0-9.37-2.27,88.63,88.63,0,0,0-19.85.69l1.7-1.28a20.15,20.15,0,0,0-1.07,6.47,33.26,33.26,0,0,0,.68,6.94,41.52,41.52,0,0,0,2,6.81c.43,1.11,1,2.19,1.43,3.29l1.67,3.2L279.59,832A106.62,106.62,0,0,1,309,833.28c2.45.47,4.77,1,7.11,1.54s4.74,1,7.12,1.71a48.54,48.54,0,0,1,7.08,2.5,30.88,30.88,0,0,1,3.41,1.79,10.34,10.34,0,0,1,3.21,3,4.75,4.75,0,0,1,0,5.32,6.42,6.42,0,0,1-4.19,2.33,16.05,16.05,0,0,1-4,.16,17.56,17.56,0,0,1-3.88-.78,66.83,66.83,0,0,1-6.82-2.82c-2.19-1-4.39-1.84-6.62-2.63a46.69,46.69,0,0,0-13.72-2.85,85.79,85.79,0,0,0-14.22.71l.87-1a53.93,53.93,0,0,0,3,17.38,44.29,44.29,0,0,0,8.75,15.3,40.07,40.07,0,0,0,14.21,10.36,58,58,0,0,0,17.26,4,69.55,69.55,0,0,0,17.76-.93,66,66,0,0,0,16.83-5.55,54.26,54.26,0,0,0,14.25-10.28,46.92,46.92,0,0,0,9.35-14.65l.41-1h1.13c11.15.14,22.87-2.3,32.05-8.43a32.85,32.85,0,0,0,10.87-12.09,54.53,54.53,0,0,0,3.49-7.57l1.21-4a40.39,40.39,0,0,0,.88-4.07,48.56,48.56,0,0,0,.24-16.53,47.3,47.3,0,0,0-5.43-15.48,43.84,43.84,0,0,0-10.89-12.13,49.43,49.43,0,0,0-14.7-7.25l3.14-3.45a35.43,35.43,0,0,1,1.85,14,66,66,0,0,1-2.1,13.52,63.41,63.41,0,0,1-2.15,6.55,29.21,29.21,0,0,1-3.35,6.41,11.28,11.28,0,0,1-2.92,2.89,18.68,18.68,0,0,1-3.24,1.95A9.88,9.88,0,0,1,392,812.4a4.93,4.93,0,0,1-1.38-.14,4.26,4.26,0,0,1-1.44-.52,5.32,5.32,0,0,1-2.22-2.16,8.54,8.54,0,0,1-1-4.61,18.54,18.54,0,0,1,.59-3.8c.66-2.42,1.42-4.37,2.18-6.49,1.54-4.19,3.14-8.14,4.27-12.22.58-2,1.09-4.13,1.55-6.23a38.39,38.39,0,0,0,1-6.11,33.36,33.36,0,0,0-.1-6.08,24.84,24.84,0,0,0-1.28-5.67l1.74,1.49c-12.33-3.05-24.52-6.63-37.05-10.15l-1.47.14a2.16,2.16,0,0,0,1.34-.09,2.19,2.19,0,0,0,.69-.45,1.57,1.57,0,0,0,.32-.41,1.93,1.93,0,0,0,.1-.19l0,.07-.1.41-.2,1-.34,2.19c-.2,1.48-.38,3-.53,4.47l-.1,1.09,0,.51c0,.26,0-.14,0,.19l.34,2.19c.24,1.48.55,3,.77,4.56a23.9,23.9,0,0,1-.29,9.87,9.35,9.35,0,0,1-2.77,4.86,5.73,5.73,0,0,1-3,1.28,4.64,4.64,0,0,1-3.4-.9,5.68,5.68,0,0,1-1.76-2.63,21.86,21.86,0,0,1-.68-2.4,30.18,30.18,0,0,1-.66-4.78,69,69,0,0,1,.19-9.34c.36-3.22.84-6.12,1.24-9.18l.61-4.52.13-1.12,0-.52v-.12a.91.91,0,0,0,.49.78l.21.06h0l-.07,0-.13-.05-2.16-.73a246.12,246.12,0,0,0-35.39-9,105.58,105.58,0,0,0-18.17-1.65,44.86,44.86,0,0,0-9,.91A18.46,18.46,0,0,0,276.89,739.82Zm-.34-.38a19,19,0,0,1,8.36-3.84,45.62,45.62,0,0,1,9.16-1A118.41,118.41,0,0,1,312.4,736a279.06,279.06,0,0,1,35.85,8l2.21.66.14.05.07,0h0l.22.14a1.39,1.39,0,0,1,.52,1.06v.16l0,.63-.09,1.16-.46,4.58c-.3,3-.69,6.17-.91,9a68.53,68.53,0,0,0,.14,9,27.11,27.11,0,0,0,.76,4.26c.36,1.37.88,2.89,1.39,3.13a1.83,1.83,0,0,0,2.06-.4,5.82,5.82,0,0,0,1.49-3.09,20.16,20.16,0,0,0-.11-8.32l-.88-4.46-.41-2.33a4.55,4.55,0,0,1-.06-.94l0-.64.08-1.19c.13-1.56.28-3.09.46-4.64l.31-2.35.21-1.23a6.68,6.68,0,0,1,.16-.7l.15-.47a2.88,2.88,0,0,1,.21-.45,2.6,2.6,0,0,1,.41-.53,2.15,2.15,0,0,1,.75-.49,2.29,2.29,0,0,1,1.4-.11l-1.47.14c13.21,2.92,26.77,5.78,40.18,9.18l1.3.33.44,1.16a28.69,28.69,0,0,1,1.68,7.11,37.65,37.65,0,0,1,.15,7,44.06,44.06,0,0,1-1.06,6.86c-.47,2.18-1,4.36-1.6,6.54-1.2,4.37-2.89,8.57-4.35,12.61-.72,2-1.51,4.16-2,6a13.6,13.6,0,0,0-.42,2.68,3.57,3.57,0,0,0,.26,1.75c.14.16-.07.08.42.14a4.81,4.81,0,0,0,2-.59A14.39,14.39,0,0,0,396.4,805a4.75,4.75,0,0,0,1-.81,4.32,4.32,0,0,0,.74-.9,24.62,24.62,0,0,0,2.66-5.23,55.85,55.85,0,0,0,1.93-5.95,60.25,60.25,0,0,0,2-12.39,30.58,30.58,0,0,0-1.35-11.86l-1.9-5.16,5.05,1.71a54.5,54.5,0,0,1,16.26,8.21,49.06,49.06,0,0,1,12.08,13.71,51.56,51.56,0,0,1,5.38,35.28,44.09,44.09,0,0,1-1,4.41l-1.39,4.31a56.5,56.5,0,0,1-3.91,8.15,37,37,0,0,1-12.37,13.28,50.47,50.47,0,0,1-16.65,6.74A69,69,0,0,1,387.16,860l1.54-1a50.47,50.47,0,0,1-10.33,15.39,56.44,56.44,0,0,1-15.16,10.45,72.07,72.07,0,0,1-35.73,6.19,59.71,59.71,0,0,1-17.76-4.3A44.72,44.72,0,0,1,294.94,876a46.33,46.33,0,0,1-9.25-15.77,55.76,55.76,0,0,1-3.31-18v-.84l.88-.12a97,97,0,0,1,14.57-1.08,50,50,0,0,1,14.53,2.61c2.33.76,4.62,1.61,6.87,2.52a62.54,62.54,0,0,0,6.59,2.52,14,14,0,0,0,3.2.57,13.22,13.22,0,0,0,3.17-.2,3.3,3.3,0,0,0,2-1,1.29,1.29,0,0,0-.17-1.46c-.9-1.3-3.11-2.41-5.16-3.29a46.08,46.08,0,0,0-6.59-2.12c-2.27-.56-4.6-1-7-1.48l-7-1.37a102.27,102.27,0,0,0-28.09-1l-1.56.17-.68-1.28-1.83-3.44c-.53-1.2-1.11-2.37-1.59-3.59a45.49,45.49,0,0,1-2.32-7.55,34.84,34.84,0,0,1-.74-8,23.69,23.69,0,0,1,1.56-8.24l.44-1.12,1.26-.16a86.16,86.16,0,0,1,21-.4,44.6,44.6,0,0,1,5.29,1,32.88,32.88,0,0,1,5.1,1.79,38.39,38.39,0,0,0,9.28,2.89c3.05.42,6.55.35,8.91-.94a4.06,4.06,0,0,0,2.13-2.87,2.39,2.39,0,0,0-1.34-2.68c-2.3-1.16-6.09-.5-9.5-.75a82.69,82.69,0,0,1-20.44-3.34c-3.3-1.1-6.45-1.91-9.83-2.78a24.61,24.61,0,0,1-4.95-1.76,19.26,19.26,0,0,1-4.45-2.94,1.84,1.84,0,0,1-.47-.84l-.1-.65-.16-1.28-.29-2.55-.51-5.1c-.6-6.81-1-13.64-1.07-20.48,0-3.42,0-6.84.32-10.26a44,44,0,0,1,.75-5.09A9.66,9.66,0,0,1,276.55,739.44Z" style="fill: #12b6c2"/>
        </g>
        <path d="M287.86,747.31c31.79,19.54,58.61,46.93,79.06,78.07a299.67,299.67,0,0,1,21.24,38.34q4.2,9.07,7.92,18.35c2.21,5.54,4.05,12.14,8,16.69.32.37,1.83,1,1.84,0C406,885.46,397,870,391.32,858.22A298.6,298.6,0,0,0,367.48,817,225,225,0,0,0,288,746.49c-.54-.28-.44.62-.1.82Z" style="fill: #12b6c2"/>
      </g>
      <path d="M325.2,863.74c18.23,9.12,46.22-6.75,54.68-23.34,1.16-2.28-2.52-3.25-3.51-1.27C368,855.76,343.3,867.84,325.19,863c-.44-.12-.24.6,0,.73Z" style="fill: #12b6c2"/>
      <path d="M310.56,820.51c9.62,4,18.67,8.62,29.32,8.9,9.89.26,20.14-1.5,28.85-6.27,2.23-1.22.14-3.85-1.9-2.72-9.43,5.24-22.08,7.08-32.62,5.79-8.17-1-15.79-4.18-23.66-6.43-.43-.12-.27.62,0,.73Z" style="fill: #12b6c2"/>
      <path d="M291.94,771.9c17.54,3.32,34.7,7.88,49.13,18.49.62.46,2.41.59,2.25-.63-.88-6.66-13.1-9.88-18.28-11.69-10.65-3.72-22-7.43-33.4-7.22-.56,0-.06,1,.3,1Z" style="fill: #12b6c2"/>
      <path d="M373.87,767.65c2.71,14.52-3.24,33.59-13.71,44-1.29,1.28,1.43,2.52,2.52,1.48,9.67-9.22,19.31-32.66,12-45.63-.25-.45-.94-.42-.83.19Z" style="fill: #12b6c2"/>
      <path d="M422.49,804.39c-5.79,16.12-29.44,34.72-47.25,28.06-.46-.18-1.28,0-1.15.66,1.89,10,20.68,1.71,25.75-.9,10.76-5.55,20.9-15.17,23.17-27.36,0-.23-.38-.86-.52-.46Z" style="fill: #12b6c2"/>
      <path d="M313.7,745.47a186.21,186.21,0,0,1,16.05,33c.51,1.41,3.52,1.28,3-.26A107.5,107.5,0,0,0,314,745c-.31-.38-.49.19-.33.46Z" style="fill: #12b6c2"/>
    </g>
    <g>
      <g>
        <g>
          <g>
            <polygon points="420.06 565.94 431.47 565.94 429.19 523.35 422.34 523.35 420.06 565.94" style="fill: #7e4093"/>
            <path d="M420.11,565.89c3.94-.15,7.68-.34,11.36-.42L431,566l-.66-10.64c-.19-3.55-.27-7.1-.36-10.66-.14-7.11-.62-14.2-1.19-21.29l.4.38-6.85.15.55-.52c-.25,7-.62,14-1.08,21S420.76,558.56,420.11,565.89ZM420,566c.11-6.86.33-14,.58-21.11s.69-14.39,1.2-21.55l0-.53h.51l6.85.15h.39v.37c.18,7.11.47,14.21,1.08,21.3.3,3.54.6,7.08.79,10.63l.48,10.65,0,.5h-.49C427.54,566.32,423.68,566.13,420,566Z" style="fill: #d97c2d"/>
          </g>
          <g>
            <path d="M421.8,516.25c.14,2.79,2.06,4.81,3.82,4.81a3.48,3.48,0,0,0,3.38-4.28c-.57-2.37-3.89-1.82-4.56-6.27C424.44,510.51,421.65,513.32,421.8,516.25Z" style="fill: #eebf31"/>
            <path d="M421.86,516.24a4.94,4.94,0,0,0,2.66,3.93,3.08,3.08,0,0,0,4-1.09,2.69,2.69,0,0,0,.13-2.36c-.28-.74-1-1.08-1.76-1.54a6.37,6.37,0,0,1-2.14-1.86,6,6,0,0,1-1-2.71l1.14.37a29.08,29.08,0,0,0-2,2.34A4.77,4.77,0,0,0,421.86,516.24Zm-.13,0a9.36,9.36,0,0,1,.49-3.29A8.08,8.08,0,0,1,424,510l.91-1,.23,1.38a5.48,5.48,0,0,0,2.41,3.9,4,4,0,0,1,1.72,2.23,4.07,4.07,0,0,1-.33,2.73,4.34,4.34,0,0,1-2,2,3,3,0,0,1-3-.09C422.17,520,421.86,517.93,421.73,516.25Z" style="fill: #d97c2d"/>
          </g>
          <g>
            <path d="M426.67,520.86c-1.72-.1-3.56-2.34-3.7-5.44a9.07,9.07,0,0,1,1.48-4.86c.69,4.4,4,3.86,4.55,6.22A3.41,3.41,0,0,1,426.67,520.86Z" style="fill: #f1c83e"/>
            <path d="M426.68,520.93a3.44,3.44,0,0,1-2.88-1.43,6,6,0,0,1-1.26-3,7.15,7.15,0,0,1,.46-3.19,28,28,0,0,1,1.18-2.9l.34-.73.23.84a5.91,5.91,0,0,0,1.44,2.63c.66.73,1.64,1.06,2.6,2a3.44,3.44,0,0,1,.64,3.71A3.52,3.52,0,0,1,426.68,520.93Zm0-.13a3.7,3.7,0,0,0,1.8-2.31,2.62,2.62,0,0,0-.64-2.42,20.61,20.61,0,0,1-2.51-2.15,5.59,5.59,0,0,1-1.17-3.31l.57.11a7,7,0,0,0-1.27,2.7,6.34,6.34,0,0,0,.18,2.88,9,9,0,0,0,1,2.64A4,4,0,0,0,426.66,520.8Z" style="fill: #d97c2d"/>
          </g>
          <g>
            <path d="M430.1,524.4c0,.35-.31,2.18-.65,2.25s-.6-.2-.73-.49-.29-.95-.54-1-.25.25-.38.4-.55.14-.76-.06-.32-.47-.51-.68c-.39-.44-1-.37-1,.34a7.7,7.7,0,0,1,0,1c-.12,1-1.27.9-1.33,0,0-.36.07-.83-.25-1s-.65.14-.79.46A7,7,0,0,0,423,528a1.7,1.7,0,0,1-.33,1,.8.8,0,0,1-.95.24,1,1,0,0,1-.26-1.17,7.26,7.26,0,0,0,.5-1.2,4.34,4.34,0,0,0-.31-1.76,2.29,2.29,0,0,1,.69-2.43,2.26,2.26,0,0,1,1.57-.4,12.37,12.37,0,0,0,2.79-.21,8.31,8.31,0,0,1,1.32,0A2,2,0,0,1,430.1,524.4Z" style="fill: #fafcff"/>
            <path d="M430.1,524.4a6.51,6.51,0,0,1-.49,2.09c-.21.39-.71,0-.85-.24a7.1,7.1,0,0,0-.43-1c-.4-.4-.4.49-.8.42s-.64-.33-.82-.62-.49-.62-.86-.49-.29.64-.29,1a1.59,1.59,0,0,1-.15,1.05.6.6,0,0,1-.94,0,1.48,1.48,0,0,1-.23-1c.07-.36-.32-.77-.67-.51-1.19,1.06,0,2.9-1,4a.71.71,0,0,1-1,0,1.09,1.09,0,0,1-.13-1c.28-.65.73-1.32.47-2a4.65,4.65,0,0,1-.32-2.11,1.9,1.9,0,0,1,1.33-1.56c.69-.27,1.42.05,2.14-.09a11.85,11.85,0,0,1,2.14-.21,3.68,3.68,0,0,1,2.09.4,2.08,2.08,0,0,1,.79,1.9" style="fill: none;stroke: #f5dec9;stroke-miterlimit: 10;stroke-width: 0.097303401849858px"/>
          </g>
          <g>
            <path d="M425.38,522.77c0,.19.83.19.77,0a18.41,18.41,0,0,1-.38-2.76h-.25S425.42,522.32,425.38,522.77Z" style="fill: #654d43"/>
            <path d="M425.44,522.78a.36.36,0,0,0,.34-.06.45.45,0,0,0,.16-.14s0-.06-.05,0-.12.07-.14.17a.28.28,0,0,0,0,.18l0,0a1,1,0,0,1-.21-1,2.08,2.08,0,0,0,.15-1,3.49,3.49,0,0,0-.37-.91l.49.45-.25.07.55-.53a3.48,3.48,0,0,1,0,1.4C426,521.9,425.44,522.32,425.44,522.78Zm-.12,0c0-.46-.5-1-.52-1.41A3.51,3.51,0,0,1,425,520l.15-.64.41.11.25.06.57.16-.09.29a2.88,2.88,0,0,0-.2.93,1.65,1.65,0,0,0,.38.87,1,1,0,0,1,.15.85v0a.66.66,0,0,1,0,.24.45.45,0,0,1-.21.26.38.38,0,0,1-.26,0,.88.88,0,0,1-.3-.09C425.62,523,425.43,523.05,425.32,522.76Z" style="fill: #d97c2d"/>
          </g>
        </g>
        <g>
          <g>
            <g>
              <polygon points="453.47 565.94 461.97 565.94 460.27 534.22 455.17 534.22 453.47 565.94" style="fill: #cb4378"/>
              <path d="M453.52,565.89c3-.16,5.73-.33,8.45-.42l-.47.49c-.18-2.64-.39-5.28-.52-7.92s-.17-5.29-.21-7.94c0-5.3-.43-10.58-.9-15.86l.4.38-5.1.15.55-.52c-.16,5.22-.43,10.39-.8,15.61S454.07,560.37,453.52,565.89Zm-.1.09c0-5.05.15-10.35.3-15.68s.49-10.76.9-16.11l0-.53h.51l5.1.15h.39v.37c.09,5.3.27,10.59.79,15.86.25,2.64.5,5.27.64,7.92s.23,5.29.33,7.93l0,.51-.48,0C459,566.32,456.11,566.15,453.42,566Z" style="fill: #d97c2d"/>
            </g>
            <g>
              <path d="M454.76,528.93c.11,2.08,1.54,3.58,2.85,3.58a2.59,2.59,0,0,0,2.52-3.18c-.43-1.77-2.9-1.36-3.4-4.68C456.73,524.65,454.65,526.75,454.76,528.93Z" style="fill: #eebf31"/>
              <path d="M454.83,528.93a3.5,3.5,0,0,0,2,2.79,2.22,2.22,0,0,0,2.88-.7,1.9,1.9,0,0,0,.07-1.72c-.22-.52-.75-.72-1.31-1a4.78,4.78,0,0,1-1.66-1.41,4.5,4.5,0,0,1-.78-2.08l1.14.37c-.49.5-1,1.08-1.51,1.66A3.27,3.27,0,0,0,454.83,528.93Zm-.13,0a7.64,7.64,0,0,1,.29-2.49,5.51,5.51,0,0,1,1.26-2.26l.89-1,.25,1.35a4.09,4.09,0,0,0,1.7,2.83,3,3,0,0,1,1.28,1.75,3.23,3.23,0,0,1-.27,2.08,3.43,3.43,0,0,1-1.49,1.55,2.28,2.28,0,0,1-2.31,0C454.91,531.81,454.8,530.17,454.7,528.93Z" style="fill: #d97c2d"/>
            </g>
            <g>
              <path d="M458.39,532.37c-1.28-.08-2.65-1.75-2.75-4.06a6.85,6.85,0,0,1,1.09-3.62c.52,3.28,3,2.88,3.4,4.64A2.54,2.54,0,0,1,458.39,532.37Z" style="fill: #f1c83e"/>
              <path d="M458.4,532.43a2.52,2.52,0,0,1-2.25-1,4.27,4.27,0,0,1-1-2.29,5.41,5.41,0,0,1,.42-2.41c.26-.75.56-1.46.87-2.18l.31-.73.26.84a4.41,4.41,0,0,0,1.1,1.86c.48.52,1.2.73,1.95,1.44a2.66,2.66,0,0,1,.48,2.92A2.63,2.63,0,0,1,458.4,532.43Zm0-.13a2.74,2.74,0,0,0,1.22-1.74,1.84,1.84,0,0,0-.47-1.64,14,14,0,0,1-1.86-1.62,4.15,4.15,0,0,1-.84-2.56l.57.11a4.56,4.56,0,0,0-1,2,4.81,4.81,0,0,0,.22,2.11,7.38,7.38,0,0,0,.69,1.91A3.12,3.12,0,0,0,458.38,532.3Z" style="fill: #d97c2d"/>
            </g>
            <g>
              <path d="M461,535c0,.26-.24,1.63-.49,1.68s-.44-.15-.54-.37-.22-.71-.4-.74-.19.18-.29.29-.41.11-.56,0a4.82,4.82,0,0,1-.38-.51c-.29-.32-.71-.27-.73.26,0,.24.05.47,0,.71-.09.79-.95.67-1,0,0-.27.05-.62-.19-.75s-.48.1-.59.34a5.78,5.78,0,0,0-.15,1.87,1.18,1.18,0,0,1-.24.73.58.58,0,0,1-.71.18.72.72,0,0,1-.19-.87,5.33,5.33,0,0,0,.37-.9,3,3,0,0,0-.23-1.3,1.71,1.71,0,0,1,.51-1.82,1.69,1.69,0,0,1,1.17-.29,9.72,9.72,0,0,0,2.09-.16,7.85,7.85,0,0,1,1,0A1.5,1.5,0,0,1,461,535Z" style="fill: #fafcff"/>
              <path d="M461,535a4.94,4.94,0,0,1-.37,1.56c-.16.29-.53,0-.63-.18a4.75,4.75,0,0,0-.32-.73c-.3-.3-.3.36-.6.31s-.45-.26-.6-.46-.37-.47-.65-.37-.22.48-.21.73a1.24,1.24,0,0,1-.12.78.44.44,0,0,1-.69,0,1.1,1.1,0,0,1-.18-.77c.05-.27-.24-.57-.5-.38-.89.79,0,2.16-.74,3a.54.54,0,0,1-.73,0,.79.79,0,0,1-.09-.76c.2-.48.53-1,.34-1.53a3.52,3.52,0,0,1-.24-1.57,1.43,1.43,0,0,1,1-1.16c.52-.2,1.06,0,1.6-.07a8.48,8.48,0,0,1,1.59-.15,2.58,2.58,0,0,1,1.55.3A1.53,1.53,0,0,1,461,535" style="fill: none;stroke: #f5dec9;stroke-miterlimit: 10;stroke-width: 0.097303401849858px"/>
            </g>
            <g>
              <path d="M457.43,533.79c0,.14.62.13.58,0a13.61,13.61,0,0,1-.29-2.06h-.19S457.46,533.45,457.43,533.79Z" style="fill: #654d43"/>
              <path d="M457.49,533.79s.16,0,.24-.09.09-.09.09-.13,0-.06-.07,0a.31.31,0,0,0-.15.18.45.45,0,0,0,0,.2l0,0a.6.6,0,0,1-.12-.7c.09-.27.25-.53.16-.75a2.29,2.29,0,0,0-.37-.68l.48.45-.19.07.55-.53a2.09,2.09,0,0,1,.05,1C458.07,533.15,457.49,533.45,457.49,533.79Zm-.12,0c0-.34-.51-.73-.53-1.07a1.83,1.83,0,0,1,.14-1l.2-.66.35.13.19.06.57.21-.09.24a1.84,1.84,0,0,0-.19.69c0,.23.2.42.35.61a.51.51,0,0,1,.07.65v0a.48.48,0,0,1,0,.24.41.41,0,0,1-.2.25.34.34,0,0,1-.23,0,.82.82,0,0,1-.25-.1C457.61,534,457.47,534,457.37,533.78Z" style="fill: #d97c2d"/>
            </g>
          </g>
          <g>
            <g>
              <polygon points="389.57 565.94 398.06 565.94 396.36 534.22 391.26 534.22 389.57 565.94" style="fill: #eebf31"/>
              <path d="M389.61,565.89c3-.16,5.74-.33,8.45-.42l-.47.49c-.18-2.64-.39-5.28-.52-7.92s-.17-5.29-.2-7.94c-.05-5.3-.43-10.58-.91-15.86l.4.38-5.09.15.54-.52c-.15,5.22-.42,10.39-.79,15.61S390.17,560.37,389.61,565.89Zm-.09.09c0-5.05.14-10.35.29-15.68s.5-10.76.91-16.11l0-.53h.51l5.09.15h.4v.37c.09,5.3.28,10.59.8,15.86.24,2.64.49,5.27.64,7.92s.23,5.29.33,7.93l0,.51-.49,0C395.11,566.32,392.2,566.15,389.52,566Z" style="fill: #d97c2d"/>
            </g>
            <g>
              <path d="M390.86,528.93c.1,2.08,1.54,3.58,2.84,3.58a2.59,2.59,0,0,0,2.52-3.18c-.42-1.77-2.89-1.36-3.4-4.68C392.82,524.65,390.75,526.75,390.86,528.93Z" style="fill: #eebf31"/>
              <path d="M390.92,528.93a3.51,3.51,0,0,0,2,2.79,2.22,2.22,0,0,0,2.88-.7,1.9,1.9,0,0,0,.06-1.72c-.21-.52-.75-.72-1.31-1a4.88,4.88,0,0,1-1.66-1.41,4.6,4.6,0,0,1-.77-2.08l1.14.37c-.49.5-1,1.08-1.52,1.66A3.32,3.32,0,0,0,390.92,528.93Zm-.13,0a8.23,8.23,0,0,1,.29-2.49,5.42,5.42,0,0,1,1.27-2.26l.89-1,.25,1.35a4,4,0,0,0,1.7,2.83,3.08,3.08,0,0,1,1.28,1.75,3.23,3.23,0,0,1-.28,2.08,3.46,3.46,0,0,1-1.48,1.55,2.28,2.28,0,0,1-2.31,0C391,531.81,390.9,530.17,390.79,528.93Z" style="fill: #d97c2d"/>
            </g>
            <g>
              <path d="M394.49,532.37c-1.28-.08-2.65-1.75-2.76-4.06a6.85,6.85,0,0,1,1.1-3.62c.52,3.28,3,2.88,3.39,4.64A2.53,2.53,0,0,1,394.49,532.37Z" style="fill: #f1c83e"/>
              <path d="M394.5,532.43a2.51,2.51,0,0,1-2.25-1,4.21,4.21,0,0,1-1-2.29,5.44,5.44,0,0,1,.43-2.41c.26-.75.56-1.46.87-2.18l.3-.73.26.84a4.53,4.53,0,0,0,1.11,1.86c.48.52,1.19.73,1.95,1.44a2.66,2.66,0,0,1,.47,2.92A2.6,2.6,0,0,1,394.5,532.43Zm0-.13a2.78,2.78,0,0,0,1.22-1.74,1.82,1.82,0,0,0-.48-1.64,14.65,14.65,0,0,1-1.86-1.62,4.14,4.14,0,0,1-.83-2.56l.56.11a4.43,4.43,0,0,0-.95,2,4.67,4.67,0,0,0,.21,2.11,7.79,7.79,0,0,0,.7,1.91A3.07,3.07,0,0,0,394.48,532.3Z" style="fill: #d97c2d"/>
            </g>
            <g>
              <path d="M397,535c0,.26-.23,1.63-.48,1.68a.55.55,0,0,1-.55-.37c-.08-.17-.21-.71-.4-.74s-.19.18-.28.29a.4.4,0,0,1-.57,0c-.15-.14-.24-.35-.38-.51-.29-.32-.71-.27-.72.26,0,.24,0,.47,0,.71-.08.79-.94.67-1,0,0-.27.06-.62-.18-.75s-.49.1-.59.34a5.28,5.28,0,0,0-.15,1.87,1.33,1.33,0,0,1-.24.73.58.58,0,0,1-.71.18.72.72,0,0,1-.19-.87,6.32,6.32,0,0,0,.37-.9,3.28,3.28,0,0,0-.23-1.3,1.71,1.71,0,0,1,.51-1.82,1.67,1.67,0,0,1,1.17-.29,9.58,9.58,0,0,0,2.08-.16,8,8,0,0,1,1,0A1.5,1.5,0,0,1,397,535Z" style="fill: #fafcff"/>
              <path d="M397,535a4.93,4.93,0,0,1-.36,1.56c-.16.29-.53,0-.63-.18a6,6,0,0,0-.33-.73c-.29-.3-.3.36-.59.31s-.46-.26-.61-.46-.37-.47-.64-.37-.22.48-.22.73a1.17,1.17,0,0,1-.11.78.45.45,0,0,1-.7,0,1.09,1.09,0,0,1-.17-.77c.05-.27-.24-.57-.5-.38-.89.79,0,2.16-.75,3a.54.54,0,0,1-.73,0,.79.79,0,0,1-.09-.76c.21-.48.54-1,.34-1.53a3.38,3.38,0,0,1-.23-1.57,1.4,1.4,0,0,1,1-1.16c.51-.2,1.06,0,1.59-.07a8.58,8.58,0,0,1,1.6-.15,2.6,2.6,0,0,1,1.55.3A1.54,1.54,0,0,1,397,535" style="fill: none;stroke: #f5dec9;stroke-miterlimit: 10;stroke-width: 0.097303401849858px"/>
            </g>
            <g>
              <path d="M393.53,533.79c0,.14.61.13.57,0a15.1,15.1,0,0,1-.29-2.06h-.18S393.56,533.45,393.53,533.79Z" style="fill: #654d43"/>
              <path d="M393.59,533.79s.16,0,.24-.09a.34.34,0,0,0,.09-.13s0-.06-.07,0a.31.31,0,0,0-.15.18.28.28,0,0,0,0,.2l0,0a.59.59,0,0,1-.12-.7c.09-.27.24-.53.16-.75a2.12,2.12,0,0,0-.38-.68l.48.45-.18.07.55-.53a2,2,0,0,1,0,1C394.16,533.15,393.58,533.45,393.59,533.79Zm-.13,0c0-.34-.5-.73-.53-1.06a2,2,0,0,1,.14-1l.2-.66.36.13.18.06.58.21-.09.24a1.67,1.67,0,0,0-.19.69c0,.23.2.42.35.61a.52.52,0,0,1,.07.65v0a.64.64,0,0,1,0,.24.45.45,0,0,1-.2.25.37.37,0,0,1-.24,0,.75.75,0,0,1-.24-.1C393.7,534,393.56,534,393.46,533.78Z" style="fill: #d97c2d"/>
            </g>
          </g>
        </g>
      </g>
      <g>
        <path d="M358.47,650.34H493.06s16.22-65.73,0-75.28c-26.39-15.54-113.28-15.91-134.59,0C343.39,586.32,358.47,650.34,358.47,650.34Z" style="fill: #fbebb2"/>
        <path d="M358.49,650.31l67.38-.25,16.81,0,16.78,0,33.6.08-.21.17a299.59,299.59,0,0,0,6.4-36.07,139.57,139.57,0,0,0,.82-18.28,61.4,61.4,0,0,0-.91-9.09,23.75,23.75,0,0,0-3.06-8.5,9.94,9.94,0,0,0-3.17-3.12,45.55,45.55,0,0,0-4.08-2,69.34,69.34,0,0,0-8.6-3.08,141.46,141.46,0,0,0-17.89-3.77,263.75,263.75,0,0,0-36.5-2.7,251.75,251.75,0,0,0-36.52,2.19,122.78,122.78,0,0,0-17.87,3.75,57.23,57.23,0,0,0-8.5,3.23l-2,1.06c-.64.39-1.26.82-1.9,1.22a10.08,10.08,0,0,0-3,3.22,25.11,25.11,0,0,0-3,8.49,62.42,62.42,0,0,0-1,9.06,141.34,141.34,0,0,0,.64,18.28c.55,6.08,1.39,12.14,2.35,18.17S357.2,644.39,358.49,650.31Zm-.05.06a288.31,288.31,0,0,1-6.13-36.18,142.06,142.06,0,0,1-.76-18.34,64.14,64.14,0,0,1,.9-9.16,26.17,26.17,0,0,1,3-8.74,10.67,10.67,0,0,1,3.18-3.44c.65-.42,1.29-.87,1.94-1.28l2.05-1.09a54.72,54.72,0,0,1,8.61-3.29,124.45,124.45,0,0,1,18-3.76,269.85,269.85,0,0,1,73.22.65,142.6,142.6,0,0,1,17.94,3.89,69.74,69.74,0,0,1,8.64,3.16c1.42.58,2.75,1.35,4.11,2.07a10.41,10.41,0,0,1,3.3,3.27,24.16,24.16,0,0,1,3.07,8.65,61.2,61.2,0,0,1,.87,9.15,138.43,138.43,0,0,1-.9,18.32,299,299,0,0,1-6.2,36.15l0,.16h-.18l-33.7.09-16.86,0-16.83,0Z" style="fill: #5e2b06"/>
      </g>
      <g>
        <path d="M337.58,766.31l1,6.63a25.17,25.17,0,0,0,24.91,21.57H487.36a26.17,26.17,0,0,0,25.65-21l1.45-7.19s21-102-.34-114.53c-34.68-20.43-148.87-20.92-176.87,0C317.43,666.58,337.58,766.31,337.58,766.31Z" style="fill: #fbebb2"/>
        <path d="M337.71,766.28c.53,3.22.82,6.5,1.64,9.62a24.9,24.9,0,0,0,4.32,8.62A24.45,24.45,0,0,0,360,793.91a87.31,87.31,0,0,0,9.72.15l9.78-.12,19.57-.24q39.12-.5,78.25-.25l9.78.07a24.92,24.92,0,0,0,9.25-1.58,25.6,25.6,0,0,0,13.82-12.34,33.44,33.44,0,0,0,2.8-9.15l2-9.57c1.24-6.4,2.34-12.83,3.35-19.26,2-12.87,3.58-25.83,4.38-38.83.41-6.5.6-13,.37-19.51a90.37,90.37,0,0,0-2.4-19.23,27.65,27.65,0,0,0-3.8-8.64c-.52-.57-1-1.18-1.53-1.72s-1.17-.92-1.83-1.33c-1.44-.71-2.8-1.56-4.3-2.16a104.81,104.81,0,0,0-18.42-6,259.7,259.7,0,0,0-38.51-5.57,372.59,372.59,0,0,0-39-.92A306.55,306.55,0,0,0,374.53,641a157.76,157.76,0,0,0-19,4c-6.16,1.8-12.27,4.07-17.44,7.61-2.39,1.7-3.9,4.53-5,7.44a45.35,45.35,0,0,0-2.34,9.24,132.53,132.53,0,0,0-1.4,19.34C329.41,714.68,333,740.67,337.71,766.28Zm-.26.05c-2.56-12.79-4.61-25.68-6.37-38.61a348.86,348.86,0,0,1-3.38-39,122.31,122.31,0,0,1,1-19.67,47.38,47.38,0,0,1,2.31-9.72c1.14-3.13,2.74-6.39,5.7-8.6,5.54-4,11.86-6.28,18.17-8.14a161.73,161.73,0,0,1,19.27-4.16c25.95-4,52.28-4.19,78.35-2.13a243.58,243.58,0,0,1,38.79,6.06,107.18,107.18,0,0,1,18.66,6.35c1.52.64,2.93,1.54,4.4,2.3.72.45,1.4,1,2.1,1.57s1.13,1.3,1.69,2a28.93,28.93,0,0,1,3.92,9.2,92.26,92.26,0,0,1,2.14,19.55c.11,6.55-.15,13.08-.57,19.6-.88,13-2.53,26-4.4,38.9-1,6.46-2,12.89-3.19,19.32l-1.8,9.62a35.08,35.08,0,0,1-2.74,9.54A27.2,27.2,0,0,1,497,793.61a26.78,26.78,0,0,1-9.89,1.88l-9.78.08c-26.08.12-52.17.08-78.25-.26l-19.57-.24-9.78-.11a87.35,87.35,0,0,1-9.81-.39A25.44,25.44,0,0,1,339,776C338.22,772.8,338,769.55,337.45,766.33Z" style="fill: #5e2b06"/>
      </g>
      <path d="M501.24,583c4.75,6.43,6.59,13.15,6.79,21.9.21,9.53-3.6,13.53-7,13.55-2.79,0-4.87-8-6.63-10.78-2.42-3.83-6.82-4.44-10-1.57-1.5,1.36-2.89,8.21-4.56,9.19-1.09.64-2.34,1.21-3.48.72-3.39-1.45-1.79-8.13-1.69-10.2.44-9.07-8.38-15.58-13.28-11.8-2.73,2.1-2.4,7.07-3.37,10.89-2.61,10.36-14.3,10.92-17.54.84-.83-2.59-.9-5.48-1.55-8.16-1.32-5.44-5.33-9.8-9.85-10.32s-9.23,3.11-10.65,8.51c-1.07,4.1-.37,8.87-3.22,12.16a5.92,5.92,0,0,1-9,.38c-2.6-2.7-3-7.13-4.16-10.94-1.1-3.5-3.79-7-6.67-6-5.21,5.72.1,19.26-6.29,23.62a11.92,11.92,0,0,1-11.14-.11c-7.33-4.45,1-11-7.91-15.37a4,4,0,0,0-4.15.3c-5.29,3.79-3.75,15.68-10,18.34a5.68,5.68,0,0,1-5.57-.81c-6.48-4.59-7.75-19.7-4.07-28,1.86-4.23,4.66-8.3,8.33-9.82C419.87,552.5,490.89,572.29,501.24,583Z" style="fill: #cb4378"/>
      <path d="M522.24,662.89c8.66,8.5,7.19,29.2,8.38,44.88.38,5,.59,10.35-1,14.58s-5.57,6.17-7.64,2.47c-1.72-3.08-1.2-7.84-1-12,.21-6-.9-12.73-4-15.92s-8.17-.16-8.15,5.85c0,4.15,2.27,8.13,1.48,12.05-.86,4.26-4.83,4.36-6.82,1.2s-2.51-8-3-12.44-1.22-9.3-3.39-12.09c-3.1-4-7.61-1.86-10.78,1.73s-5.87,8.56-9.52,10.56c-4.31,2.35-9.49-.29-12.33-6.3a75.23,75.23,0,0,1-3.16-9.41c-1.42-4.54-3.37-9-6.2-11s-6.66-.61-7.88,4c-1,4,.08,8.52.34,12.86s-.56,9.25-2.67,12-5.58,2.53-7.23-1-1-8.33-1.22-12.66c-.4-9.48-5.6-18.16-11.32-18s-10.61,10.18-9.09,19.38c.59,3.56,1.95,6.65,2.86,10s1.28,7.6,0,10.53a5.17,5.17,0,0,1-4.13,3.26c-3.22.37-6.53-2.42-8.29-7a51.13,51.13,0,0,1-2.23-10.18c-.9-5.65-2.15-11.41-4.67-15.55s-6.58-6.19-9.63-3.39c-2.27,2.1-3.5,6.32-4.26,10.46-2,10.64-2.22,23.57-7.65,30-.88,1.05-1.93,1.89-3,1.71-1.92-.32-3.19-3.63-3.55-6.77s-.1-6.4-.5-9.53c-.62-4.91-3-9.17-5.85-10.68s-6.22-.2-8.35,3.28c-4.69,7.66-3.38,23.5-9.44,27.84a2.33,2.33,0,0,1-2.86.24c-2.77-2.11-1.52-10.27-4.11-13-3.54-3.66-7.91,8.11-11.32,4.11-.93-1.09-1.33-3-1.64-4.82-2.29-13.29-3-28.16.87-40.17,2.67-8.21,7.1-14.77,12.22-18.67C375.33,628.91,497.05,638.16,522.24,662.89Z" style="fill: #d97c2d"/>
      <g>
        <path d="M501.24,578.74c4.75,6.42,6.59,13.14,6.79,21.9.21,9.53-3.6,13.53-7,13.55-2.79,0-4.87-8-6.63-10.78-2.42-3.84-6.82-4.45-10-1.58-1.5,1.36-2.89,8.21-4.56,9.19-1.09.64-2.34,1.21-3.48.72-3.39-1.44-1.79-8.13-1.69-10.2.44-9.07-8.38-15.58-13.28-11.8-2.73,2.11-2.4,7.07-3.37,10.89-2.61,10.36-14.3,10.93-17.54.85-.83-2.6-.9-5.49-1.55-8.17-1.32-5.44-5.33-9.8-9.85-10.31s-9.23,3.1-10.65,8.5c-1.07,4.1-.37,8.88-3.22,12.16a5.92,5.92,0,0,1-9,.38c-2.6-2.69-3-7.13-4.16-10.94-1.1-3.5-3.79-7-6.67-6-5.21,5.71.1,19.25-6.29,23.61a11.92,11.92,0,0,1-11.14-.11c-7.33-4.44,1-11-7.91-15.36a4,4,0,0,0-4.15.29c-5.29,3.79-3.75,15.69-10,18.35a5.7,5.7,0,0,1-5.57-.81c-6.48-4.59-7.75-19.71-4.07-28,1.86-4.23,4.66-8.3,8.33-9.82C419.87,548.21,490.89,568,501.24,578.74Z" style="fill: #d15f9e"/>
        <path d="M501.24,578.74c5.93,7.7,7.67,17.94,6.48,27.43a12.09,12.09,0,0,1-3,6.51,5.44,5.44,0,0,1-3.25,1.62,2.06,2.06,0,0,1-1.77-.53,6.42,6.42,0,0,1-1.2-1.41,50.7,50.7,0,0,1-3.1-6.54c-.87-2.21-2.27-4.31-4.49-5.17a6.06,6.06,0,0,0-6.41,1.46c-1.31,1.84-1.84,4.33-2.8,6.52-.57,2.27-3.43,4.58-5.95,3.09A4.63,4.63,0,0,1,474,608.4a16.68,16.68,0,0,1,0-3.67c.08-1.21.34-2.42.34-3.57a12.93,12.93,0,0,0-3.9-9.46,8.44,8.44,0,0,0-6.16-2.62,4.79,4.79,0,0,0-3,1.31,6.54,6.54,0,0,0-1.53,3c-.6,2.26-.68,4.69-1.23,7.09a12.7,12.7,0,0,1-3.58,6.47,8.9,8.9,0,0,1-7.07,2.22,9.49,9.49,0,0,1-6.24-4,16.11,16.11,0,0,1-2.47-7,28.36,28.36,0,0,0-1.54-6.89,14,14,0,0,0-4-5.55,8.4,8.4,0,0,0-6.21-2c-4.51.58-8,4.84-8.57,9.34-.42,2.29-.44,4.74-1.08,7.19a8.62,8.62,0,0,1-4.7,6,6.64,6.64,0,0,1-7.47-1.63c-1.84-2-2.57-4.5-3.19-6.83s-1-4.7-2.14-6.65-2.91-3.76-4.6-3.09l.34-.23c-1.7,2-2.15,4.88-2.29,7.72s-.06,5.83-.43,8.86a13.25,13.25,0,0,1-1.31,4.52,7.14,7.14,0,0,1-3.64,3.37,13.46,13.46,0,0,1-9.3,0,9.9,9.9,0,0,1-3.93-2.82,7.48,7.48,0,0,1-1.43-4.67,26.41,26.41,0,0,0-.11-4.24,5.1,5.1,0,0,0-1.94-3.16,8.89,8.89,0,0,0-1.68-1.11,3.4,3.4,0,0,0-1.71-.52,3.78,3.78,0,0,0-3,1.73c-1.65,2.09-2.32,5-3.14,7.8s-1.57,5.9-4,8.18a6.12,6.12,0,0,1-4.57,1.66,7.11,7.11,0,0,1-4.35-2c-2.41-2.11-3.57-5.07-4.43-7.93a32.94,32.94,0,0,1-1.14-8.88,31.79,31.79,0,0,1,1.21-8.87,26.61,26.61,0,0,1,4.06-8,16.09,16.09,0,0,1,3.18-3.26,14.48,14.48,0,0,1,4.05-2c2.74-1.09,5.49-2.13,8.29-3a193.09,193.09,0,0,1,69.5-9.52,202.13,202.13,0,0,1,34.92,4.39,146.38,146.38,0,0,1,17,4.74,80,80,0,0,1,8.15,3.33A28.31,28.31,0,0,1,501.24,578.74Zm0,0a28.43,28.43,0,0,0-7.4-4.68,80.71,80.71,0,0,0-8.16-3.27,148.11,148.11,0,0,0-17-4.6,202.42,202.42,0,0,0-34.88-4.13,192.64,192.64,0,0,0-69.14,10c-2.77.93-5.5,2-8.21,3.08a13.48,13.48,0,0,0-3.77,1.9,15.1,15.1,0,0,0-2.92,3.05,25.38,25.38,0,0,0-3.81,7.65,30.4,30.4,0,0,0-1.1,8.51,31.65,31.65,0,0,0,1.16,8.51c.82,2.69,2,5.44,4,7.21a4.9,4.9,0,0,0,6.94.3c1.93-1.79,2.71-4.71,3.49-7.48s1.4-5.81,3.38-8.41a8,8,0,0,1,1.82-1.69,4.71,4.71,0,0,1,2.54-.69,5.19,5.19,0,0,1,2.47.7,10.73,10.73,0,0,1,2,1.29,6.92,6.92,0,0,1,2.56,4.15,26.41,26.41,0,0,1,.18,4.54,5.69,5.69,0,0,0,1.08,3.59,8.07,8.07,0,0,0,3.17,2.21,11.56,11.56,0,0,0,7.93-.07c2.34-.89,3.48-3.59,3.8-6.35s.28-5.74.48-8.72.6-6.21,2.81-8.77l.13-.15.21-.08a4.36,4.36,0,0,1,4.19.85,9.81,9.81,0,0,1,2.46,3.06c1.26,2.28,1.65,4.77,2.25,7s1.27,4.56,2.76,6.15a5.07,5.07,0,0,0,5.74,1.32,7.17,7.17,0,0,0,3.89-5c.6-2.2.65-4.62,1.09-7.06.75-4.92,4.53-9.73,9.82-10.37a9.57,9.57,0,0,1,7.13,2.36,15.09,15.09,0,0,1,4.33,6.06c1.91,4.68,1,9.85,3.79,13.7a8.47,8.47,0,0,0,5.51,3.64,7.9,7.9,0,0,0,6.27-1.92,11.73,11.73,0,0,0,3.34-6c.55-2.28.64-4.71,1.29-7.11a7.21,7.21,0,0,1,1.78-3.34,5.59,5.59,0,0,1,3.5-1.51,9.14,9.14,0,0,1,6.74,2.88,13.58,13.58,0,0,1,4.05,10c0,1.25-.28,2.42-.37,3.61a16.67,16.67,0,0,0,0,3.53,4,4,0,0,0,1.45,2.91,2.83,2.83,0,0,0,3.1-.16c1.09-.41,1.51-1.57,2-2.65,1-2.17,1.45-4.56,2.95-6.65a6.53,6.53,0,0,1,6.91-1.52c2.38.93,3.84,3.21,4.69,5.42a49.54,49.54,0,0,0,3,6.52c.63.93,1.47,2.06,2.67,1.82a5.22,5.22,0,0,0,3.09-1.52,11.88,11.88,0,0,0,3-6.36C508.76,596.72,507.11,586.48,501.24,578.74Z" style="fill: #56206d"/>
      </g>
      <g>
        <path d="M522.24,655.48c8.66,8.49,7.19,29.2,8.38,44.87.38,5,.59,10.35-1,14.58s-5.57,6.18-7.64,2.48c-1.72-3.08-1.2-7.84-1-12,.21-6-.9-12.73-4-15.93s-8.17-.16-8.15,5.85c0,4.16,2.27,8.13,1.48,12-.86,4.26-4.83,4.36-6.82,1.21s-2.51-8-3-12.44-1.22-9.3-3.39-12.09c-3.1-4-7.61-1.87-10.78,1.73s-5.87,8.56-9.52,10.55c-4.31,2.36-9.49-.29-12.33-6.29a74.84,74.84,0,0,1-3.16-9.42c-1.42-4.54-3.37-9-6.2-11s-6.66-.6-7.88,4c-1,4,.08,8.52.34,12.86s-.56,9.25-2.67,12-5.58,2.54-7.23-1-1-8.33-1.22-12.67c-.4-9.48-5.6-18.15-11.32-18s-10.61,10.18-9.09,19.37c.59,3.57,1.95,6.65,2.86,10s1.28,7.61,0,10.54a5.17,5.17,0,0,1-4.13,3.26c-3.22.36-6.53-2.42-8.29-7a51.13,51.13,0,0,1-2.23-10.18c-.9-5.65-2.15-11.41-4.67-15.56s-6.58-6.19-9.63-3.38c-2.27,2.09-3.5,6.32-4.26,10.46-2,10.64-2.22,23.57-7.65,30-.88,1-1.93,1.89-3,1.7-1.92-.31-3.19-3.62-3.55-6.76s-.1-6.4-.5-9.53c-.62-4.91-3-9.18-5.85-10.69s-6.22-.2-8.35,3.28c-4.69,7.67-3.38,23.51-9.44,27.85a2.32,2.32,0,0,1-2.86.23c-2.77-2.1-1.52-10.26-4.11-12.94-3.54-3.67-7.91,8.11-11.32,4.11-.93-1.09-1.33-3-1.64-4.83-2.29-13.28-3-28.15.87-40.16,2.67-8.21,7.1-14.77,12.22-18.67C375.33,621.49,497.05,630.75,522.24,655.48Z" style="fill: #e0952f"/>
        <path d="M522.24,655.48c3,3,4.61,7.12,5.61,11.21a79,79,0,0,1,1.77,12.55c.57,8.44.7,16.9,1.34,25.34a39.51,39.51,0,0,1-.24,6.34,14.36,14.36,0,0,1-2,6,6,6,0,0,1-2.35,2.16,3.1,3.1,0,0,1-3.14-.12c-1.8-1.36-2.29-3.68-2.51-5.74-.37-4.26.4-8.48-.07-12.67a28.75,28.75,0,0,0-1.2-6.18,11.32,11.32,0,0,0-3.2-5.25,4,4,0,0,0-5.43.85,8,8,0,0,0-1.8,5.75,34.29,34.29,0,0,0,1.16,6.18,11.82,11.82,0,0,1,.11,6.41,4,4,0,0,1-2.15,2.51,3.52,3.52,0,0,1-3.3-.38,6,6,0,0,1-2.13-2.51,16.49,16.49,0,0,1-1.18-3c-1.18-4.14-1.31-8.42-2-12.55a25.1,25.1,0,0,0-1.64-6c-.81-1.85-2.19-3.59-4.1-3.93s-3.86.69-5.41,2a27.5,27.5,0,0,0-4.09,4.67c-1.26,1.69-2.5,3.43-4,5a10.49,10.49,0,0,1-5.55,3.53,8.21,8.21,0,0,1-6.42-1.64,14.3,14.3,0,0,1-4.2-5c-2-3.9-2.78-8.14-4.22-12a28.62,28.62,0,0,0-2.61-5.6c-1.06-1.67-2.5-3.31-4.22-3.68a4.15,4.15,0,0,0-4.41,2.36,11.3,11.3,0,0,0-1.14,5.73c.07,4.07,1.19,8.33.77,12.73a20,20,0,0,1-1.5,6.44,9,9,0,0,1-1.94,2.92,5,5,0,0,1-3.47,1.49,4.77,4.77,0,0,1-3.48-1.61,8.16,8.16,0,0,1-1.7-3.13,22.91,22.91,0,0,1-.8-6.55c0-4.29,0-8.34-1.36-12.24a21.9,21.9,0,0,0-2.57-5.44,10.58,10.58,0,0,0-4.14-3.88,4.64,4.64,0,0,0-4.9.49,12,12,0,0,0-3.54,4.5A21.37,21.37,0,0,0,417,685.17c.42,4,2.31,7.8,3.28,12.13a21.87,21.87,0,0,1,.46,6.68,8.43,8.43,0,0,1-3.31,6.32,6.57,6.57,0,0,1-7.28-.26,12.83,12.83,0,0,1-4.39-5.34c-1.91-4.17-2.25-8.53-3-12.63a49.42,49.42,0,0,0-3.23-11.9,13.47,13.47,0,0,0-3.27-4.73c-1.38-1.23-3.13-1.85-4.49-1.2s-2.48,2.32-3.21,4.12a30.88,30.88,0,0,0-1.64,5.86c-.78,4.08-1.28,8.28-1.9,12.48a64.74,64.74,0,0,1-2.86,12.6,19.76,19.76,0,0,1-3.24,5.88,5.53,5.53,0,0,1-3.31,2.21,3.25,3.25,0,0,1-2.35-.67A5.47,5.47,0,0,1,372,715.2a15,15,0,0,1-1.83-6.59c-.17-2.19-.11-4.32-.21-6.38-.13-4-1.3-8.14-3.93-10.89a4.55,4.55,0,0,0-4.64-1.43,7.12,7.12,0,0,0-3.94,3.61c-1.9,3.45-2.58,7.68-3.38,11.79s-1.34,8.43-3.4,12.51a9.74,9.74,0,0,1-2.12,2.8,3.94,3.94,0,0,1-3.85,1.24,4.51,4.51,0,0,1-2.53-3.06,18.35,18.35,0,0,1-.7-3.28,29.63,29.63,0,0,0-1.13-6,2.45,2.45,0,0,0-1.37-1.62c-.45-.15-1.3.33-2,1-1.55,1.25-2.72,3-5,4.27a2.89,2.89,0,0,1-2.18.17,2.15,2.15,0,0,1-1-.55,3.86,3.86,0,0,1-.72-.74,9.12,9.12,0,0,1-1.27-3.27,116.32,116.32,0,0,1-2-25.45c.33-8.5,2.06-17.14,6.22-24.69a35.11,35.11,0,0,1,7.95-10.07A47.44,47.44,0,0,1,350,642a106.43,106.43,0,0,1,24.44-7c16.72-2.92,33.73-3.54,50.63-3.1a315.23,315.23,0,0,1,50.44,5.3A183.52,183.52,0,0,1,500,643.61C507.94,646.43,516,649.69,522.24,655.48Zm0,0c-6.27-5.77-14.33-9-22.25-11.78a183.73,183.73,0,0,0-24.56-6.25A315.77,315.77,0,0,0,425,632.34c-16.89-.36-33.86.48-50.47,3.52A106.33,106.33,0,0,0,350.38,643a47.06,47.06,0,0,0-10.69,6.44,34.07,34.07,0,0,0-7.58,9.8c-4,7.38-5.58,15.78-5.83,24.14a115.8,115.8,0,0,0,2.24,25,7.53,7.53,0,0,0,1,2.61c.57.62.93.85,1.65.51,1.51-.79,2.85-2.6,4.53-4a4.45,4.45,0,0,1,3.6-1.41,4.18,4.18,0,0,1,2.81,2.77,30.24,30.24,0,0,1,1.31,6.43,16.78,16.78,0,0,0,.64,2.91,2.8,2.8,0,0,0,1.24,1.76,2.06,2.06,0,0,0,1.82-.84,7.45,7.45,0,0,0,1.65-2.24c1.74-3.52,2.34-7.78,3.11-11.91s1.42-8.46,3.59-12.49a9.28,9.28,0,0,1,5.24-4.67,6.83,6.83,0,0,1,6.9,2c3.29,3.43,4.45,8,4.65,12.4s-.16,8.61,1.73,11.83c.46.77,1,1.15,1.35,1.07a3.59,3.59,0,0,0,1.76-1.37,17.28,17.28,0,0,0,2.82-5.2,62.45,62.45,0,0,0,2.68-12.11c.6-4.16,1.08-8.37,1.87-12.6a34.24,34.24,0,0,1,1.76-6.34c.87-2,2-4.33,4.56-5.51a5.71,5.71,0,0,1,4-.2,8.65,8.65,0,0,1,3.2,1.83,16,16,0,0,1,3.89,5.61,51.88,51.88,0,0,1,3.38,12.53c.72,4.19,1.1,8.43,2.74,12a10.41,10.41,0,0,0,3.52,4.37,4.14,4.14,0,0,0,4.66.29c1.37-.87,2.07-2.69,2.28-4.6a19.23,19.23,0,0,0-.4-5.93c-.83-3.93-2.78-7.87-3.26-12.35a23.62,23.62,0,0,1,2.18-13,14.38,14.38,0,0,1,4.28-5.32,7.2,7.2,0,0,1,3.45-1.33,6.88,6.88,0,0,1,3.63.66,12.6,12.6,0,0,1,5,4.67,23.71,23.71,0,0,1,2.79,6,30.17,30.17,0,0,1,1.24,6.44c.19,2.2.08,4.33.1,6.42a21,21,0,0,0,.65,6c.51,1.85,1.75,3.45,3.35,3.44s3-1.49,3.75-3.28a18.17,18.17,0,0,0,1.4-5.84c.45-4.08-.59-8.19-.65-12.57a12.9,12.9,0,0,1,1.41-6.54,5.71,5.71,0,0,1,6.09-3.05c2.49.62,4,2.59,5.13,4.39a29.49,29.49,0,0,1,2.69,5.9c1.44,4,2.18,8.26,4,11.92A13.24,13.24,0,0,0,469.1,695a7.05,7.05,0,0,0,5.5,1.48,9.4,9.4,0,0,0,5-3.14c1.41-1.51,2.65-3.22,3.93-4.9a27.84,27.84,0,0,1,4.3-4.8c1.68-1.34,3.84-2.52,6.2-2.11s3.88,2.53,4.72,4.48a26.21,26.21,0,0,1,1.64,6.22c.66,4.21.75,8.46,1.87,12.49.6,1.94,1.31,4.09,3,5.19a2.9,2.9,0,0,0,2.74.35,3.42,3.42,0,0,0,1.84-2.15c1.31-4-1.08-8.12-1.19-12.39a8.53,8.53,0,0,1,2-6,5.1,5.1,0,0,1,2.8-1.63,4,4,0,0,1,3.14.75,11.56,11.56,0,0,1,3.31,5.44,29,29,0,0,1,1.19,6.26c.46,4.24-.33,8.48,0,12.67.2,2,.72,4.3,2.38,5.56a2.85,2.85,0,0,0,2.89.11,5.79,5.79,0,0,0,2.27-2.07,14.15,14.15,0,0,0,2-5.92,38.11,38.11,0,0,0,.26-6.32c-.61-8.43-.71-16.9-1.24-25.33a77.81,77.81,0,0,0-1.73-12.55C526.82,662.61,525.2,658.54,522.24,655.48Z" style="fill: #5e2b06"/>
      </g>
      <path d="M346.65,649.86c0,2.46,35.08-6.42,78.34-6.42s78.35,8.88,78.35,6.42S468.26,636.5,425,636.5,346.65,647.4,346.65,649.86Z" style="fill: #fff;opacity: 0.1"/>
      <g>
        <path d="M462.08,626.7a2.28,2.28,0,1,0,2.28-2.28A2.28,2.28,0,0,0,462.08,626.7Z" style="fill: #d15f9e"/>
        <path d="M363.22,618.62a2.28,2.28,0,1,0,2.28-2.28A2.28,2.28,0,0,0,363.22,618.62Z" style="fill: #d15f9e"/>
        <path d="M435.84,619.86a2.28,2.28,0,1,0,2.28-2.29A2.28,2.28,0,0,0,435.84,619.86Z" style="fill: #d15f9e"/>
        <path d="M486.6,617.64a2.28,2.28,0,1,0,2.28-2.28A2.29,2.29,0,0,0,486.6,617.64Z" style="fill: #d15f9e"/>
        <path d="M384.45,624.42a2.28,2.28,0,1,0,2.28-2.28A2.28,2.28,0,0,0,384.45,624.42Z" style="fill: #d15f9e"/>
        <path d="M410.75,622.14a2.28,2.28,0,1,0,2.28-2.28A2.28,2.28,0,0,0,410.75,622.14Z" style="fill: #fafcff"/>
        <circle cx="397.44" cy="616.41" r="1.24" style="fill: #fafcff"/>
        <path d="M366.55,629.65a1.24,1.24,0,1,0,1.23-1.24A1.23,1.23,0,0,0,366.55,629.65Z" style="fill: #fafcff"/>
        <path d="M426.94,605.57a1.24,1.24,0,1,0,1.23-1.24A1.23,1.23,0,0,0,426.94,605.57Z" style="fill: #fafcff"/>
        <path d="M479.28,630.88a1.24,1.24,0,1,0,1.24-1.23A1.24,1.24,0,0,0,479.28,630.88Z" style="fill: #fafcff"/>
        <path d="M459.79,612.89a2.29,2.29,0,1,0,2.29-2.28A2.29,2.29,0,0,0,459.79,612.89Z" style="fill: #fafcff"/>
      </g>
      <g>
        <path d="M472.44,745.77a3,3,0,1,0,3-2.95A3,3,0,0,0,472.44,745.77Z" style="fill: #e0952f"/>
        <path d="M344.21,735.29a3,3,0,1,0,3-2.95A3,3,0,0,0,344.21,735.29Z" style="fill: #e0952f"/>
        <path d="M441.37,735.29a3,3,0,1,0,3-2.95A3,3,0,0,0,441.37,735.29Z" style="fill: #fafcff"/>
        <path d="M504.25,734a3,3,0,1,0,3-3A3,3,0,0,0,504.25,734Z" style="fill: #e0952f"/>
        <path d="M363.1,741.34a4.44,4.44,0,1,0,4.44-4.44A4.43,4.43,0,0,0,363.1,741.34Z" style="fill: #fafcff"/>
        <path d="M405.86,739.86a3,3,0,1,0,3-3A3,3,0,0,0,405.86,739.86Z" style="fill: #e0952f"/>
        <path d="M387,732.43a1.6,1.6,0,1,0,1.6-1.61A1.6,1.6,0,0,0,387,732.43Z" style="fill: #e0952f"/>
        <path d="M348.53,749.6a1.6,1.6,0,1,0,1.6-1.61A1.6,1.6,0,0,0,348.53,749.6Z" style="fill: #e0952f"/>
        <path d="M426.86,718.36a1.61,1.61,0,1,0,1.61-1.6A1.61,1.61,0,0,0,426.86,718.36Z" style="fill: #e0952f"/>
        <circle cx="431.67" cy="754.41" r="1.6" style="fill: #e0952f"/>
        <path d="M494.76,751.2a1.6,1.6,0,1,0,1.6-1.6A1.6,1.6,0,0,0,494.76,751.2Z" style="fill: #e0952f"/>
        <path d="M388.6,756a1.61,1.61,0,1,0,1.6-1.6A1.6,1.6,0,0,0,388.6,756Z" style="fill: #e0952f"/>
        <path d="M458.19,707.29a1.61,1.61,0,1,0,1.6-1.6A1.6,1.6,0,0,0,458.19,707.29Z" style="fill: #e0952f"/>
        <path d="M478.79,722.93a3,3,0,1,0,3-3A3,3,0,0,0,478.79,722.93Z" style="fill: #fafcff"/>
      </g>
      <path d="M372.6,574.19c0,2.24,23.84-5.08,53.25-5.08s53.24,7.32,53.24,5.08-23.84-10.74-53.24-10.74S372.6,571.94,372.6,574.19Z" style="fill: #fff;opacity: 0.15"/>
      <path d="M357.88,579.52c.31.82,3.15.52,6.35-.66s5.56-2.8,5.26-3.62-3.15-.52-6.35.66S357.58,578.7,357.88,579.52Z" style="fill: #fff;opacity: 0.15"/>
    </g>
    <g>
      <g>
        <g>
          <path d="M392.63,726.94c4.51-1.05,21.5,14,23.92,16.43.44.45,0,3.49-.17,4.06-.59,2.1-1.66,4.25-2.34,6.37a47.15,47.15,0,0,1-7.29,13.92c-1,1.28-2.07,2.87-1.44,4.35a2.86,2.86,0,0,0,3.25,1.4,6.09,6.09,0,0,0,3.1-2.15c2.17-2.53,3-5.5,3.7-8.68,1.42-6.42,9.09-14.37,9.09-14.37s7.05,1.3,12,12a60.34,60.34,0,0,0-9.92,15.85c-1.55,3.68-3.59,7.74-4,11.78-.1,1.06-.07,2.68,1,3.3,1.77,1,3.7-1.83,4.31-3.15a25.94,25.94,0,0,0,1.47-5.38c1-4.41,2.23-8.39,4.85-12.1a53.23,53.23,0,0,1,4.86-5.95s13.55,9,12.27,24.52-19.86,35.11-39.44,30.27c0,0-9.22,15-23.33,14.4-17.83-.77-33-17.07-26.39-36.35,4.12,6.35,17.47,11.12,21.22,10,5.43-1.63,5.66-4.8-.17-6.53s-7.71-1.75-14.26-4.58a18.77,18.77,0,0,1-8.23-6.47l8.38-21.59c.12-.3,5.47,2.71,5.77,3,2.37,2.23,4.14,4.78,7.33,6a4.23,4.23,0,0,0,2.57.28,2,2,0,0,0,1.57-1.85,2.87,2.87,0,0,0-.67-1.52c-1.82-2.43-4.43-4.13-7-5.76-.56-.35-8-4.24-7.94-4.37S381.18,729.61,392.63,726.94Z" style="fill: #f8edf5"/>
          <path d="M392.61,726.85c2.09-.14,3.88,1,5.61,1.91s3.37,2.13,5,3.29c3.23,2.33,6.31,4.84,9.33,7.42l2.24,2,1.11,1,.55.51.27.26a.85.85,0,0,1,.2.45,12.64,12.64,0,0,1-.95,6c-.73,1.88-1.43,3.67-2,5.6a46.16,46.16,0,0,1-2.32,5.53,45.58,45.58,0,0,1-3,5.21c-1,1.7-2.63,3.2-2.92,4.86s1.86,2.66,3.34,1.85a9.29,9.29,0,0,0,3.64-4,23,23,0,0,0,1.81-5.46,20.05,20.05,0,0,1,2.17-5.74,51.58,51.58,0,0,1,7.19-9.72l.32-.34.43.1a13.52,13.52,0,0,1,4.26,2,20,20,0,0,1,3.46,3,25.76,25.76,0,0,1,2.76,3.57,35.65,35.65,0,0,1,2.16,3.92l.24.49-.38.44a59.86,59.86,0,0,0-9,13.81c-1.11,2.5-2.32,5.11-3.32,7.65a26.2,26.2,0,0,0-1.21,3.9,7.74,7.74,0,0,0-.13,3.77c.35,1,1.43,1,2.36.07a8.15,8.15,0,0,0,2-3.29c.8-2.55,1.19-5.43,2.07-8.11a28.66,28.66,0,0,1,3.56-7.75c1.7-2.26,3.57-4.38,5.35-6.57l.24-.3.32.24a32.2,32.2,0,0,1,7.42,7.59,26.87,26.87,0,0,1,4.35,9.64,26,26,0,0,1,.15,10.57,34.58,34.58,0,0,1-3.9,9.83,40.9,40.9,0,0,1-14.91,14.79,32.65,32.65,0,0,1-10,3.6,28.76,28.76,0,0,1-10.66-.32l.62-.25c-3.78,5.7-8.87,10.7-15.36,13.33a21,21,0,0,1-10.25,1.37,29.91,29.91,0,0,1-10-2.63,29.55,29.55,0,0,1-14.69-14.2,28.17,28.17,0,0,1-2.39-10.14,31.19,31.19,0,0,1,1.55-10.29l.56-1.87,1.18,1.65c2.76,3.82,7.44,6.3,12,8a22.68,22.68,0,0,0,7,1.61,7.09,7.09,0,0,0,3.14-1,3.26,3.26,0,0,0,1.13-.91c.22-.34.25-.52.12-.8a4.65,4.65,0,0,0-2.46-1.69c-1.08-.4-2.35-.74-3.56-1.08-2.43-.66-5-1.26-7.41-2.15a43.23,43.23,0,0,1-7.16-3.18,19.18,19.18,0,0,1-5.93-5.44l-.26-.38.18-.48c2.85-7.4,5.93-14.71,8.89-21.92l-.35.4a.94.94,0,0,1,.91-.52l.16,0a1.15,1.15,0,0,1,.26.08l.36.14.63.31,1.2.63,2.35,1.33a7.54,7.54,0,0,1,1.24.84l1,1,1.83,1.92a12.19,12.19,0,0,0,4.1,2.9,3.78,3.78,0,0,0,2.22.32,1.43,1.43,0,0,0,1.16-1.26c0-.55-.6-1.27-1.13-1.92a15.65,15.65,0,0,0-1.83-1.81,41.33,41.33,0,0,0-4.27-3.07c-1.48-.86-3.09-1.71-4.63-2.57L371.61,765l-.58-.34-.31-.19-.07,0a.53.53,0,0,1-.23-.42c0-.2,0-.15,0-.23l.42-1.27A159.35,159.35,0,0,1,379,742.7a64.28,64.28,0,0,1,5.46-9.17C386.57,730.74,389.06,727.82,392.61,726.85Zm0,.19c-3.44,1-5.89,3.86-8,6.65a64.65,64.65,0,0,0-5.35,9.18,142.29,142.29,0,0,0-7.72,19.81l-.39,1.27s-.07.19,0,.07a.26.26,0,0,0-.11-.3l.07,0,.27.15.57.32,2.35,1.25c1.58.84,3.13,1.61,4.74,2.52a40.79,40.79,0,0,1,4.44,3.06,17.83,17.83,0,0,1,2,1.9,4.84,4.84,0,0,1,1.46,2.63,2.6,2.6,0,0,1-2.05,2.5,4.87,4.87,0,0,1-3-.32,13.41,13.41,0,0,1-4.61-3.11l-1.89-1.9-.94-.91a8,8,0,0,0-1-.61L371.22,770l-1.17-.59-.57-.26-.26-.1-.06,0h0a.69.69,0,0,0,.75-.48l0-.61-.37,1c-2.63,7.17-5.14,14.25-7.87,21.24l-.08-.85a17.42,17.42,0,0,0,5.29,4.78,40.57,40.57,0,0,0,6.81,3c2.34.85,4.78,1.42,7.27,2.09,1.25.35,2.45.66,3.76,1.13a6.34,6.34,0,0,1,3.57,2.73,2.75,2.75,0,0,1-.31,2.79,5.07,5.07,0,0,1-1.78,1.5,8.84,8.84,0,0,1-4.1,1.23,24.36,24.36,0,0,1-7.8-1.71,37.34,37.34,0,0,1-7-3.49,19.86,19.86,0,0,1-5.9-5.42l1.74-.22a29.44,29.44,0,0,0-1.51,9.61,26.31,26.31,0,0,0,2.16,9.44A29.23,29.23,0,0,0,387,832.83a19.64,19.64,0,0,0,9.6-1.15c6.11-2.37,11.19-7.2,14.89-12.62l.23-.34.39.08a27.25,27.25,0,0,0,10.22.43,31.61,31.61,0,0,0,9.72-3.4,39.93,39.93,0,0,0,14.73-14.36,33.68,33.68,0,0,0,3.91-9.59,23.51,23.51,0,0,0-.14-10.29c-1.6-6.76-6.13-12.63-11.65-16.65l.57-.07c-1.72,2.18-3.54,4.3-5.18,6.52a27.15,27.15,0,0,0-3.33,7.5c-.84,2.66-1.16,5.38-2,8.19a9.48,9.48,0,0,1-2.29,3.81,3.44,3.44,0,0,1-2.28,1.1,2.41,2.41,0,0,1-2.17-1.59,8.69,8.69,0,0,1,0-4.53,28.93,28.93,0,0,1,1.2-4.14c1-2.68,2.11-5.18,3.25-7.8a61.33,61.33,0,0,1,9.23-14.28l-.15.92a32.81,32.81,0,0,0-2.07-3.71,24.46,24.46,0,0,0-2.59-3.32,20.44,20.44,0,0,0-3.15-2.73,12,12,0,0,0-3.61-1.73l.74-.24a50.52,50.52,0,0,0-7,9.31,18.76,18.76,0,0,0-2.08,5.33,22.46,22.46,0,0,1-2,5.77,10.38,10.38,0,0,1-4.34,4.54,3.92,3.92,0,0,1-3.39-.07,2.85,2.85,0,0,1-1.53-3.07,6.79,6.79,0,0,1,1.44-2.86c.61-.81,1.2-1.57,1.76-2.38a46.06,46.06,0,0,0,3.05-5,45.52,45.52,0,0,0,2.39-5.39c.62-1.86,1.4-3.75,2.15-5.56a12.29,12.29,0,0,0,1-5.66.62.62,0,0,0-.07-.23l-.27-.26-.53-.52-1.08-1-2.22-2c-3-2.59-6.06-5.13-9.25-7.47-1.61-1.17-3.24-2.3-4.94-3.31S394.59,726.92,392.65,727Z" style="fill: #9c77af"/>
        </g>
        <path d="M392.53,734.81c-1.4,21.67,2.6,43.6,10.52,63.77a173.34,173.34,0,0,0,11.08,23q2.88,5,6.05,9.92c1.89,2.91,4.4,6,5.24,9.4.07.28-.12,1.22-.6.89-6.37-4.43-10.68-13.93-14.37-20.56A172.42,172.42,0,0,1,398.89,796a130.78,130.78,0,0,1-6.78-61.45c.05-.34.44,0,.42.23Z" style="fill: #fe98b0"/>
      </g>
      <path d="M435.28,791.66c-1.79,11.72-18.73,19.68-29.45,18.12-1.47-.21-.69-2.28.58-2.09,10.7,1.62,24.74-6.06,28.53-16.29.09-.25.37.09.34.26Z" style="fill: #fe98b0"/>
      <path d="M419.67,770.18c-1.32,5.92-2.18,11.76-5.62,16.92a33.37,33.37,0,0,1-12.67,11.59c-1.33.65-1.88-1.23-.65-1.81a32.84,32.84,0,0,0,13.7-13.55c2.27-4.22,3.32-8.9,4.9-13.4.08-.24.38.08.34.25Z" style="fill: #fe98b0"/>
      <path d="M402.84,745c-4.32,9.45-7.91,19.13-7.72,29.54,0,.45-.53,1.35-1.06.86-2.86-2.65-.29-9.54.59-12.6,1.81-6.31,3.86-12.95,7.79-18.29.19-.26.49.3.4.49Z" style="fill: #fe98b0"/>
      <path d="M373.3,782.49c6,6.17,17,9.75,25.48,8.26,1-.18.72,1.53-.14,1.69-7.63,1.5-22-1.8-25.71-9.61-.13-.28.12-.6.37-.34Z" style="fill: #fe98b0"/>
      <path d="M374.42,817.92c9.6,2.67,26.38-2.31,29.19-13,.08-.28.43-.61.7-.33,4.11,4.25-6.13,10.4-9.07,11.93-6.25,3.25-14.23,4.83-20.78,1.82-.12-.06-.28-.47,0-.41Z" style="fill: #fe98b0"/>
      <path d="M383,746.47a108.26,108.26,0,0,0,10.28,18.7c.49.72-.58,2.11-1.13,1.33a62.41,62.41,0,0,1-9.48-20c-.07-.27.25-.17.33,0Z" style="fill: #fe98b0"/>
    </g>
    <g>
      <path d="M709.3,561.77c-1,9.83-.08,18.89-2.26,28.84a217.71,217.71,0,0,1-9.21,31.14,118.26,118.26,0,0,1-27.56,42.5c-12.93,12.68-28.47,21.52-46.25,25.14-10,2-20.17,3.41-30.33,1.77-11.84-1.91-22.31-7.95-32.6-13.79-1.21-.69-1.66,1.53-.76,2.13,17.43,11.56,34.07,18.21,55.43,15.14,19.85-2.85,37.21-10,52.35-23.35a116.47,116.47,0,0,0,31.11-43.94,213,213,0,0,0,10.07-33.55c2.53-11.5,2.13-20.94.89-32.47-.08-.76-.84.07-.88.44Z" style="fill: #002969"/>
      <g>
        <g>
          <path d="M737.81,444.58c-33.18-10-58.43,21.19-58.25,48.6.23,35.14,32.35,54.13,32.35,54.13s39.88-3.44,53.18-33.7S768.24,453.74,737.81,444.58Z" style="fill: #fe98b0"/>
          <path d="M737.8,444.63a48,48,0,0,0-9.41-1.74,38.67,38.67,0,0,0-9.55.46,39.87,39.87,0,0,0-9.13,2.74,43.64,43.64,0,0,0-8.23,4.79,51.4,51.4,0,0,0-12.88,13.9,55.78,55.78,0,0,0-7.39,17.46,50.09,50.09,0,0,0-.74,18.94,56.68,56.68,0,0,0,5.82,18.13,67.94,67.94,0,0,0,11.1,15.54,76.16,76.16,0,0,0,14.66,12.22l-.17,0a84.22,84.22,0,0,0,18.24-4.38,74.43,74.43,0,0,0,16.73-8.38,52.31,52.31,0,0,0,13.31-13,50.69,50.69,0,0,0,4.55-8.14,74.55,74.55,0,0,0,3.19-8.8,59.92,59.92,0,0,0,2.4-18.48A46,46,0,0,0,766,467.79a41.66,41.66,0,0,0-11.56-14.59A50.41,50.41,0,0,0,737.8,444.63Zm0-.1a51.34,51.34,0,0,1,16.8,8.46,42.18,42.18,0,0,1,12,14.51,45.38,45.38,0,0,1,4.65,18.33,58.85,58.85,0,0,1-2.35,18.8,75.52,75.52,0,0,1-3.22,8.94,49.84,49.84,0,0,1-4.65,8.32,53.5,53.5,0,0,1-13.64,13.16,72.73,72.73,0,0,1-17,8.34,85.69,85.69,0,0,1-18.45,4.2h-.09l-.08-.05a76.45,76.45,0,0,1-14.66-12.42A73.42,73.42,0,0,1,686,519.47a59.75,59.75,0,0,1-6.06-18.21,50.5,50.5,0,0,1,.48-19.21,54.65,54.65,0,0,1,7.46-17.74,50.28,50.28,0,0,1,13.24-13.95,44.51,44.51,0,0,1,8.43-4.68,40.35,40.35,0,0,1,9.26-2.59,41.68,41.68,0,0,1,9.6-.37A48.69,48.69,0,0,1,737.82,444.53Z" style="fill: #cc2e77"/>
        </g>
        <g>
          <path d="M711.37,548.72c-1.15,0-12.67,14.84-11.48,16.33s16.36,4.86,17.93,2.53S713.47,548.77,711.37,548.72Z" style="fill: #fe98b0"/>
          <path d="M711.37,548.77a2,2,0,0,0-.71.52c-.23.21-.44.43-.65.66-.41.46-.81.93-1.19,1.42-.75,1-1.48,2-2.19,3l-4.23,6.06a29.16,29.16,0,0,0-1.94,3.11,5.32,5.32,0,0,0-.35.82,1.14,1.14,0,0,0-.07.38c0,.07,0,.12,0,.14s0,.08.08.12a6.2,6.2,0,0,0,1.58.82,36.68,36.68,0,0,0,7.19,1.69,29.66,29.66,0,0,0,7.26.31c.56-.08,1.15-.29,1.26-.55a3.49,3.49,0,0,0,.12-1.54,26.13,26.13,0,0,0-.65-3.56c-.58-2.38-1.32-4.73-2.09-7.07-.39-1.17-.83-2.32-1.33-3.45a12.61,12.61,0,0,0-.85-1.63,5.6,5.6,0,0,0-.54-.74A1.28,1.28,0,0,0,711.37,548.77Zm0-.1a1.36,1.36,0,0,1,.8.51,8.23,8.23,0,0,1,.57.75c.36.51.67,1.05,1,1.59.62,1.08,1.17,2.2,1.69,3.33a42.84,42.84,0,0,1,2.51,7,21.94,21.94,0,0,1,.66,3.75,4.14,4.14,0,0,1-.29,2.1,1.78,1.78,0,0,1-1,.75,4.77,4.77,0,0,1-1,.24,16.69,16.69,0,0,1-3.81-.07c-1.24-.14-2.47-.38-3.69-.63a66.46,66.46,0,0,1-7.2-1.93,6.36,6.36,0,0,1-1.74-.81.69.69,0,0,1-.27-.55,2.27,2.27,0,0,1,0-.53,7.1,7.1,0,0,1,.31-.92A26.34,26.34,0,0,1,701.7,560a46.43,46.43,0,0,1,4.43-6c.82-.94,1.64-1.86,2.5-2.77.43-.45.84-.91,1.28-1.35.22-.22.44-.44.67-.65A2,2,0,0,1,711.37,548.67Z" style="fill: #cc2e77"/>
        </g>
      </g>
    </g>
    <g>
      <path d="M147.36,576.84c.37,9.89-1.23,18.86.25,28.93a218.86,218.86,0,0,0,7,31.71,118.32,118.32,0,0,0,24.55,44.31c12,13.55,26.9,23.45,44.39,28.3,9.83,2.73,19.88,4.81,30.12,3.88,11.95-1.09,22.82-6.38,33.49-11.5,1.25-.59,1.55,1.65.61,2.18-18.2,10.33-35.26,15.79-56.35,11.25-19.61-4.22-36.42-12.59-50.6-26.93a116.56,116.56,0,0,1-28-46,213.77,213.77,0,0,1-7.71-34.17c-1.73-11.65-.67-21,1.37-32.46.14-.74.84.13.85.5Z" style="fill: #002969"/>
      <g>
        <g>
          <path d="M127.07,458c-31,7-43.17,35.86-32,67s50.71,37.32,50.71,37.32,33.36-16.72,36-51.75C183.89,483.16,160.87,450.3,127.07,458Z" style="fill: #fece5f"/>
          <path d="M127.11,458.12a48.09,48.09,0,0,0-17,7.57A40.85,40.85,0,0,0,98,479.51,47.33,47.33,0,0,0,92.73,497a64,64,0,0,0,1,18.31,50.07,50.07,0,0,0,18.11,31.41A66.77,66.77,0,0,0,128,556.15a78.05,78.05,0,0,0,17.9,5.22l-.53.08a76.7,76.7,0,0,0,26.68-26.09,54.53,54.53,0,0,0,6.84-17.26,32.29,32.29,0,0,0,.75-4.59,31.3,31.3,0,0,0,.46-4.61,49.17,49.17,0,0,0-.47-9.23,54.49,54.49,0,0,0-5.91-17.56,53.28,53.28,0,0,0-11.36-14.71,38.69,38.69,0,0,0-16.37-9A43.09,43.09,0,0,0,127.11,458.12Zm-.07-.33a46.38,46.38,0,0,1,19.17-.28,41,41,0,0,1,17.55,8.2A53.19,53.19,0,0,1,183,499.15c2.09,13.14-1.34,26.75-8.31,37.81A74.3,74.3,0,0,1,146.16,563l-.27.14-.26-.06a89.08,89.08,0,0,1-34.45-15.48,55.74,55.74,0,0,1-12.92-14,51.61,51.61,0,0,1-4.38-8.57,69.48,69.48,0,0,1-2.77-9.19,57.53,57.53,0,0,1-1.2-19.19,44.38,44.38,0,0,1,6.28-18.19,42.55,42.55,0,0,1,13.4-13.5A57,57,0,0,1,127,457.79Z" style="fill: #d97c2d"/>
        </g>
        <g>
          <path d="M138.46,582.05c1.4,2.43,16.77.12,18.06-1.28s-9.17-17-10.32-17.09C144.1,563.58,137.05,579.62,138.46,582.05Z" style="fill: #fece5f"/>
          <path d="M138.6,582c.77.78,2.18.77,3.34.69a27.81,27.81,0,0,0,3.62-.68,56,56,0,0,1,7.12-1.34c.6-.07,1.2-.12,1.77-.22.27,0,.59-.08.82-.15l.38-.09a.38.38,0,0,1,.18,0c-.17.44,0,.17,0-.06a6.76,6.76,0,0,0-.13-.81,12.24,12.24,0,0,0-.61-1.69,27.24,27.24,0,0,0-4-6.16l-4.74-5.55c-.19-.21-.39-.42-.56-.58a2.91,2.91,0,0,0-.23-.2l0,0c.19.18.74.19.7.21.16.08.48-.13.44-.1a1.12,1.12,0,0,1-.13.16,4.7,4.7,0,0,0-.4.55,33.33,33.33,0,0,0-1.74,2.95c-1.16,2.07-2.22,4.25-3.53,6.34a29,29,0,0,0-1.71,3.27A5.7,5.7,0,0,0,138.6,582Zm-.28.16a9.21,9.21,0,0,1,0-3.84c.16-1.26.31-2.54.55-3.8a25.45,25.45,0,0,1,2.46-7.23,20.07,20.07,0,0,1,2.11-3.39,6.76,6.76,0,0,1,.8-.87l.55-.46a3.09,3.09,0,0,1,1.29-.46,1.84,1.84,0,0,1,1.13.26,4.64,4.64,0,0,1,.4.31,6,6,0,0,1,.44.45c.25.28.45.54.66.81a37.79,37.79,0,0,1,3.86,6.54c1.11,2.26,2.23,4.48,3.47,6.66.31.55.63,1.1.92,1.69a6.59,6.59,0,0,1,.42,1,1.57,1.57,0,0,1-.22,1.69,4.35,4.35,0,0,1-.6.48l-.48.26c-.34.2-.62.29-.93.44a19.65,19.65,0,0,1-1.84.69,19.39,19.39,0,0,1-7.57.72c-1.27-.1-2.55-.32-3.8-.54S139.31,583.19,138.32,582.13Z" style="fill: #d97c2d"/>
        </g>
      </g>
    </g>
    <g>
      <g>
        <path d="M799,92.7c-19.74,1-27.32,22.59-22,37.28,6.86,18.83,27.76,22.86,27.76,22.86s20.76-9.5,22.1-28.3S817.14,91.78,799,92.7Z" style="fill: #c3edd9"/>
        <path d="M799.05,92.86A22.66,22.66,0,0,0,788.8,96a21.82,21.82,0,0,0-7.34,7.55A34.14,34.14,0,0,0,777,123.65a28.64,28.64,0,0,0,2.79,10.09,27.87,27.87,0,0,0,6.25,8.65,38.49,38.49,0,0,0,19,9.54l-.57.07a48.9,48.9,0,0,0,15.61-13.62,28.74,28.74,0,0,0,5.13-19.26c-.35-6.81-2.58-13.59-7.18-18.72S806.19,92.47,799.05,92.86Zm0-.33c7.13-.34,14.76,1.28,20.47,6.34a25,25,0,0,1,6.62,9.08,34.3,34.3,0,0,1,2.56,11,30.11,30.11,0,0,1-6.11,21.31,44.94,44.94,0,0,1-17.34,13.48l-.31.14-.26-.07a48.51,48.51,0,0,1-19.36-10.6c-5.47-4.92-9.8-11.55-11-19.18a28.85,28.85,0,0,1,5.45-21.61,23.67,23.67,0,0,1,8.64-7.12A29.14,29.14,0,0,1,799,92.53Z" style="fill: #12b6c2"/>
      </g>
      <g>
        <path d="M804.82,153.7c-.62.21-4,10.41-3,11s9.72-.53,10.12-2.08S806,153.33,804.82,153.7Z" style="fill: #c3edd9"/>
        <path d="M804.87,153.86c-.64,1-.67,2.66-.68,4a10.9,10.9,0,0,1-.83,4.06c-.26.62-.59,1.26-.79,1.83-.17.32,0,.56-.41.29,0,.07.47.18.76.2a9.12,9.12,0,0,0,4.05-.76,28.7,28.7,0,0,0,3.46-1.63c.28-.11.06-.3-.14.33-.08.19,0,.37-.08.23a1.51,1.51,0,0,0-.13-.25c-.23-.43-.58-1-.93-1.54a23.26,23.26,0,0,1-1.94-3.61C806.67,155.84,806,154.21,804.87,153.86Zm-.1-.31c2.83,1.17,5.61,2.65,7.31,5.17a11.24,11.24,0,0,1,1.16,2.13,4.87,4.87,0,0,1,.23.75,3,3,0,0,1,0,1.27,2.63,2.63,0,0,1-1.59,1.76,10.22,10.22,0,0,1-4.66.68,33.37,33.37,0,0,0-4.36.05,3.42,3.42,0,0,1-1.33-.05c-.14,0-.4-.22-.55-.47a1.6,1.6,0,0,1-.17-.48,3.58,3.58,0,0,1-.12-.69,11.46,11.46,0,0,1,0-2.33C800.81,158.27,803.23,156.15,804.77,153.55Z" style="fill: #12b6c2"/>
      </g>
    </g>
    <g>
      <g>
        <path d="M136.21,730.77c-19.74,1-27.32,22.6-22,37.28,6.86,18.83,27.76,22.87,27.76,22.87s20.76-9.5,22.1-28.31S154.31,729.85,136.21,730.77Z" style="fill: #c3edd9"/>
        <path d="M136.22,730.94A22.42,22.42,0,0,0,126,734.09a21.7,21.7,0,0,0-7.34,7.54,34.15,34.15,0,0,0-4.47,20.1A28.76,28.76,0,0,0,117,771.82a27.94,27.94,0,0,0,6.25,8.64,38.4,38.4,0,0,0,19,9.54l-.57.07a48.65,48.65,0,0,0,15.61-13.62,28.71,28.71,0,0,0,5.13-19.25c-.35-6.82-2.58-13.59-7.18-18.73S143.36,730.55,136.22,730.94Zm0-.33c7.13-.35,14.76,1.28,20.47,6.33a25,25,0,0,1,6.62,9.08,34.42,34.42,0,0,1,2.56,11,31.35,31.35,0,0,1-1,11.24,30.86,30.86,0,0,1-5.09,10.07,44.85,44.85,0,0,1-17.34,13.48l-.31.14-.26-.07a48.38,48.38,0,0,1-19.35-10.59c-5.48-4.93-9.81-11.55-11-19.19a28.81,28.81,0,0,1,5.45-21.6,23.57,23.57,0,0,1,8.64-7.12A29,29,0,0,1,136.2,730.61Z" style="fill: #12b6c2"/>
      </g>
      <g>
        <path d="M142,791.78c-.62.21-4,10.4-3,11s9.72-.53,10.12-2.08S143.13,791.4,142,791.78Z" style="fill: #c3edd9"/>
        <path d="M142,791.93c-.64,1-.67,2.67-.68,4.06a10.89,10.89,0,0,1-.83,4c-.26.63-.59,1.26-.79,1.84-.17.32,0,.55-.41.29,0,.07.47.17.76.2a9.28,9.28,0,0,0,4-.77A27.34,27.34,0,0,0,147.6,800c.28-.12.07-.31-.14.33-.08.18,0,.37-.08.22a2.29,2.29,0,0,0-.13-.24c-.23-.43-.58-1-.93-1.55a23.61,23.61,0,0,1-1.94-3.6C143.84,793.91,143.14,792.28,142,791.93Zm-.1-.31c2.83,1.17,5.61,2.66,7.31,5.18a10.17,10.17,0,0,1,1.16,2.13,4.54,4.54,0,0,1,.23.75,2.94,2.94,0,0,1,.05,1.26,2.63,2.63,0,0,1-1.59,1.77,10.2,10.2,0,0,1-4.66.67,35.22,35.22,0,0,0-4.36,0,3.59,3.59,0,0,1-1.33,0c-.14,0-.4-.22-.55-.48a1.49,1.49,0,0,1-.17-.47,3.71,3.71,0,0,1-.12-.69,11.48,11.48,0,0,1,0-2.33C138,796.35,140.4,794.22,141.94,791.62Z" style="fill: #12b6c2"/>
      </g>
    </g>
    <path d="M56.83,118.75c4.48-24.29,21.68-52.2,56.81-42.27,23.77,6.72,40.3,30.27,35.82,54.56s-31.62,43.2-55.91,38.72S52.35,143,56.83,118.75Z" style="fill: #f8edf5"/>
    <g>
      <path d="M71.19,88.71c24.25-25.12,68.47-5.68,73.75,26.17,5.07,30.54-18.7,54.6-48.77,51.1-11.41-1.32-24.14-6.09-30.75-16C56.83,137,62.94,118,72.86,107.66c12.59-13.17,41.87-13,47.07,8,2.67,10.79-4.05,20.34-14.92,20.61-19.4.49-13.07-22.78-2.27-16.11,1.27.79,1.72-1.2.94-2-8-7.91-18.18,0-17,10.18,1.6,13.52,19.37,17.37,29.5,10.93,14.65-9.31,12.29-29.56-.52-39.12-13.38-10-32.81-9.26-45.23,1.83-11.18,10-18.89,28.31-14.41,43.19,4.22,14,17.94,22.21,31.45,25.44,33.59,8,66.38-14,64.42-50.47-1.15-21.39-15.18-38.56-35.62-44.73C101.78,71.08,79,73.06,70.37,87.27c-.3.5.11,2.18.82,1.44Z" style="fill: #fe98b0"/>
      <path d="M120.39,58a69.9,69.9,0,0,0,3.85-16c.19-1.71-2.7-3.79-3.26-1.54A79.06,79.06,0,0,0,118.8,57.2c0,.76,1.15,2,1.59.84Z" style="fill: #fe98b0"/>
      <path d="M150.18,80.9c2.13-1.38,3.86-3.58,5.57-5.44,2-2.12,4-4.14,6-6.23,1.24-1.28-.83-4.15-2.13-2.89-3.78,3.66-8.52,8.3-10.36,13.32-.2.56.12,1.73.88,1.24Z" style="fill: #fe98b0"/>
      <path d="M165.38,113.94c1.17.35,2.22-.1,3.39-.32,1.75-.33,3.55-.5,5.32-.73,3.27-.44,7.32-.68,10-2.85,1.23-1-.35-3.75-1.8-3.06a33.65,33.65,0,0,1-9.91,2.79c-2.52.38-6.5.61-7.22,3.54-.06.22,0,.56.23.63Z" style="fill: #fe98b0"/>
      <path d="M155.82,148.57c.12-.7.25-1.4.37-2.1l-1.16.8c.49,1.82,3.27,3,4.77,3.93,3.09,1.83,6.42,3.19,9.41,5.2,2.24,1.5,3.27-1.64,1.36-3-4.27-3-9.41-5.13-14.06-7.5-1.68-.85-1.79,1.9-.69,2.65Z" style="fill: #fe98b0"/>
      <path d="M115.57,184.49a34.68,34.68,0,0,0,3,9.89c1.11,2.52,2.61,5.57,5.33,6.65,1.94.76,3.47-1.15,2-2.79a21.46,21.46,0,0,1-4.09-6.52c-1.06-2.61-1.81-5.55-3.49-7.85-.76-1.05-2.94-1.05-2.78.62Z" style="fill: #fe98b0"/>
      <path d="M78.35,180.88c-1.27,2.85-1.68,6.11-2.3,9.16-.55,2.68-1.41,4.52.21,6.84.23.32.53.55.92.37,2.41-1.06,2.1-3.51,2.49-5.9.5-3,1.24-6.2,1.07-9.28,0-1-1.72-2.67-2.39-1.19Z" style="fill: #fe98b0"/>
      <path d="M44.6,161.73c-3-.58-6.42.82-9.23,1.83-3.3,1.19-6.61,2.52-9.79,4-2.12,1,.51,4,2.37,3.35,5.69-2.13,11.32-5.63,17.5-6,1.83-.12.29-2.94-.85-3.16Z" style="fill: #fe98b0"/>
      <path d="M25.62,119.69c6.06,2,12.71,1.81,19,2.67,2.73.38,2.5-3.51.17-4C38.52,117,32,117.25,25.69,116.27c-2.27-.36-1.71,2.88-.07,3.42Z" style="fill: #fe98b0"/>
      <path d="M31.52,76.94c7.2,1.66,13.51,5,20.37,7.56,2.67,1,3.56-2.5,1.13-3.4-7.12-2.6-14.21-7-22-7.09-1.59,0-.61,2.68.48,2.93Z" style="fill: #fe98b0"/>
      <path d="M70.75,41.7l-.72.14A1.14,1.14,0,0,0,69.24,43c.3,4.68,3.89,8.14,5.48,12.38.82,2.17,5.11,2.36,4.08-.23a44.76,44.76,0,0,0-4.25-7.42,25.38,25.38,0,0,1-2-3.48c-.22-.52-.88-2.73-1.82-2.55Z" style="fill: #fe98b0"/>
    </g>
    <g>
      <g>
        <path d="M446.32,876c-2,.63-.33,5.9-3.36,11.34s-8.94,5.85-8.68,7.92,8.55,0,11.14,4.4,2.85,10.11,4.66,9.85.78-10.36,4.93-13,8-2.22,7.78-4.69-8.36-2.57-10.44-5.68S449.69,874.93,446.32,876Z" style="fill: #fece5f"/>
        <path d="M446.35,876.06a1.39,1.39,0,0,0-.83,1.07,7,7,0,0,0-.25,1.46l-.22,3a17.35,17.35,0,0,1-1.55,6,12.26,12.26,0,0,1-4.17,4.75,25.09,25.09,0,0,1-2.65,1.56c-.85.41-1.77,1.12-1.61,1.24a2.39,2.39,0,0,0,.52.24,8.82,8.82,0,0,0,1.38.29c1,.16,2,.29,3,.49,2,.44,4.18,1.1,5.45,2.92a25.93,25.93,0,0,1,2.46,5.6c.32,1,.62,1.93,1,2.83a5.76,5.76,0,0,0,.66,1.21c.25.34.52.3.51.19a8.1,8.1,0,0,0,.57-2.61c.12-1,.22-2,.38-3a14.45,14.45,0,0,1,2-6,7.2,7.2,0,0,1,2.64-2.15,22.16,22.16,0,0,1,2.87-1.29c.95-.37,1.95-.66,2.67-1,.36-.19.55-.38.57-.49a1.1,1.1,0,0,0,0-.3c-.06-.05,0-.05-.09-.14a5.32,5.32,0,0,0-2.11-1.13c-.92-.32-1.88-.62-2.84-1a18,18,0,0,1-2.89-1.3,5.41,5.41,0,0,1-2.32-2.43,43.16,43.16,0,0,1-1.78-5.88,12.23,12.23,0,0,0-1.07-2.77A2.08,2.08,0,0,0,446.35,876.06Zm-.06-.18a2.33,2.33,0,0,1,2.62,1.29,16.24,16.24,0,0,1,1.34,2.75,39,39,0,0,0,2.37,5.44c.91,1.46,2.81,2,4.68,2.61.95.26,1.92.53,2.91.86a6.59,6.59,0,0,1,3.1,1.74,2.41,2.41,0,0,1,.51,1.22,3,3,0,0,1-.15,1.19,3,3,0,0,1-1.53,1.57,21.48,21.48,0,0,1-3,1.13c-1.78.63-3.8,1.38-4.73,2.62a14.25,14.25,0,0,0-1.95,5.25l-.58,3a7.64,7.64,0,0,1-1.11,3.13,1.3,1.3,0,0,1-2-.35,6,6,0,0,1-.68-1.49l-.87-2.91a18.55,18.55,0,0,0-2.36-5.42c-1.12-1.56-3.17-2-5.08-2.25-1-.1-2-.14-3-.21a10.44,10.44,0,0,1-1.6-.2,3.68,3.68,0,0,1-.92-.33,4.15,4.15,0,0,1-.51-.43,2.42,2.42,0,0,1-.29-.73,2.23,2.23,0,0,1,1-2,11.86,11.86,0,0,1,1.37-.9l2.54-1.51a13.55,13.55,0,0,0,4.05-3.93,16.13,16.13,0,0,0,2.12-5.45c.21-1,.3-2,.45-3a9.72,9.72,0,0,1,.3-1.5A1.57,1.57,0,0,1,446.29,875.88Z" style="fill: #5e2b06"/>
      </g>
      <g>
        <g>
          <path d="M533.84,818.42c2-.17,16.21,3.81,27.19,14s13.15,22.26,9.77,23.69-5.31-3.79-21.43-1.28-29.84-3.26-36.15-16Z" style="fill: #12b6c2"/>
          <path d="M533.8,818.33c5.28.35,10.05,2.44,14.74,4.59a58.22,58.22,0,0,1,12.87,8.66,46.44,46.44,0,0,1,5.23,5.8,38.52,38.52,0,0,1,3.9,6.76,23.65,23.65,0,0,1,2,7.53,6.3,6.3,0,0,1-.75,3.93c-.94,1.3-2.67,1.12-3.85.75a29.51,29.51,0,0,0-7.39-1.73,37.6,37.6,0,0,0-7.57.28c-2.5.31-5,.86-7.62,1.08a43.45,43.45,0,0,1-7.82,0,34.13,34.13,0,0,1-14.85-5,29.29,29.29,0,0,1-10.35-11.79l-.3-.62.48-.46,10.61-10.07C526.7,824.78,530.26,821.53,533.8,818.33Zm.08.17c-3.34,3.61-6.65,7.17-10,10.65l-10,10.36.18-1.08c4.4,9,13.78,14.77,23.71,15.83a43.92,43.92,0,0,0,7.52.23c2.5-.12,5-.49,7.62-.69a33.43,33.43,0,0,1,15.24,2c1.12.41,2.57.37,3.16-.57a5.62,5.62,0,0,0,.53-3.48,21.28,21.28,0,0,0-2.34-7.1,43.23,43.23,0,0,0-9.26-11.78,61.66,61.66,0,0,0-12.32-8.75,65.31,65.31,0,0,0-6.85-3.29A32.37,32.37,0,0,0,533.88,818.5Z" style="fill: #002969"/>
        </g>
        <g>
          <path d="M514,694c8.88-5.6,16.08-2.06,31.91,5.8,16.77,8.34,23.2,3.33,23.2,13.19a19.74,19.74,0,0,1-16.91,19.39c-9.28,1.16-18.45-.59-25.44-5.31,0,0-.58,9.28,2.32,28.42s16.83,69.62-6.38,88.76-66.15,18.4-89.94-3.07a105.73,105.73,0,0,1-14.48,7.13c-9,3.73-15.72,3.12-16.24.58-1.24-6,12.18-18.56,9.86-24.94s-15.66-16.25-14.5-38.87,8.12-26.68,11.6-24.94,2.32,12.18,11,19.72,10.44,5.22,26.69,0,25.45,0,36.51,7.54,25,9.86,27.3-6.38-.58-31.91-2.9-53.37S507.42,698.17,514,694Z" style="fill: #12b6c2"/>
          <path d="M513.91,693.92a16.84,16.84,0,0,1,6.86-2.64,19.13,19.13,0,0,1,7.34.62c4.77,1.3,9.19,3.5,13.61,5.61a82,82,0,0,0,13.47,5.72c2.33.73,4.7,1.26,7.1,1.81a22.23,22.23,0,0,1,3.6,1.05,5.46,5.46,0,0,1,3,2.57c3,10-3.78,21.07-13.65,24a31,31,0,0,1-7.48,1,40,40,0,0,1-7.49-.41A34.74,34.74,0,0,1,526.15,728l1.64-.8c-.17,8.9,1,18,2.21,26.94S533.33,772,534.65,781a163.37,163.37,0,0,1,2,27.34c-.25,9.12-1.53,18.51-5.9,26.73a30.15,30.15,0,0,1-8.93,10.46,45.44,45.44,0,0,1-5.71,3.82c-1,.56-2,1.17-3,1.7L510,852.45a73.89,73.89,0,0,1-26.64,5.89,81,81,0,0,1-27.09-3.48,65.38,65.38,0,0,1-24-13.15l.81.07a101.91,101.91,0,0,1-9.75,5.13,61.75,61.75,0,0,1-10.31,4,25.87,25.87,0,0,1-5.57.87,12.53,12.53,0,0,1-2.91-.19,4.7,4.7,0,0,1-2.91-1.51,2.42,2.42,0,0,1-.46-.92,6.32,6.32,0,0,1-.09-.84,5,5,0,0,1,.11-1.56,6.62,6.62,0,0,1,.38-1.44,9.42,9.42,0,0,1,.51-1.35,42.15,42.15,0,0,1,2.62-4.94,87.73,87.73,0,0,0,5.33-9.39,9.15,9.15,0,0,0,1-4.69,13.38,13.38,0,0,0-2.32-4.39c-2.09-2.92-4.34-5.89-6.21-9.11A45.84,45.84,0,0,1,398,801.22c-2.19-7.18-2.25-14.88-1.39-22.15a54.3,54.3,0,0,1,2.19-11,25.53,25.53,0,0,1,2.37-5.27,9.18,9.18,0,0,1,4.74-4.09,4.83,4.83,0,0,1,3.63.22,5.42,5.42,0,0,1,2.32,2.71c.82,1.87,1.25,3.62,1.82,5.33a27.45,27.45,0,0,0,4.67,9.25,26.46,26.46,0,0,0,8,6.41c2.88,1.38,6.28.43,9.71-.64l10.38-3.43a43,43,0,0,1,11.06-2.08,31.17,31.17,0,0,1,11.22,1.58,44.6,44.6,0,0,1,10.06,4.95c3.17,1.94,6,4.21,9.13,5.85a26,26,0,0,0,9.89,3.19c3.38.29,6.83-.78,8.82-3.5s2.86-6.17,3.3-9.73c1.85-14.37-.31-29-1.79-43.43-.73-7.25-1.64-14.51-1.64-21.83a43,43,0,0,1,1.21-10.89A14.41,14.41,0,0,1,513.91,693.92Zm.14.22a14,14,0,0,0-6,8.67,42.91,42.91,0,0,0-1.1,10.79,184.72,184.72,0,0,0,1.92,21.75c1.78,14.42,4.29,29,2.77,43.71-.36,3.61-1,7.57-3.44,10.76-2.31,3.35-6.73,4.74-10.52,4.43A28.11,28.11,0,0,1,486.81,791c-3.38-1.74-6.28-4-9.35-5.81a46.71,46.71,0,0,0-9.56-4.61,28.86,28.86,0,0,0-10.31-1.43c-7,.26-13.73,3.24-20.75,5.45a31.82,31.82,0,0,1-5.54,1.35,11,11,0,0,1-6-.79,21.9,21.9,0,0,1-4.88-3.16,28.62,28.62,0,0,1-4.11-4,29.66,29.66,0,0,1-5.16-10.13c-.57-1.76-1-3.56-1.67-5a3.19,3.19,0,0,0-1.06-1.45,2.23,2.23,0,0,0-1.69-.07,6.71,6.71,0,0,0-3.3,3,22.87,22.87,0,0,0-2.13,4.68,51.9,51.9,0,0,0-2.14,10.43c-.89,7.16-.86,14.37,1.17,21.2s5.9,12.85,10.19,18.79c1,1.58,2.17,3.06,2.6,5.28a10.88,10.88,0,0,1-1.17,5.86,91.51,91.51,0,0,1-5.57,9.55,40.67,40.67,0,0,0-2.58,4.68,10.18,10.18,0,0,0-.8,2.39,3.23,3.23,0,0,0-.1,1.14,4.45,4.45,0,0,0,0,.53c.05.08,0,.19.15.28a3.16,3.16,0,0,0,1.86.89,11.05,11.05,0,0,0,2.53.19,24.72,24.72,0,0,0,5.22-.75,60.5,60.5,0,0,0,10.09-3.79,98.42,98.42,0,0,0,9.65-4.94l.43-.26.37.33a64.18,64.18,0,0,0,23.4,13.1,80.12,80.12,0,0,0,26.74,3.69,69.41,69.41,0,0,0,26.3-5.89l3.08-1.41c1-.53,1.95-1.13,2.93-1.69a45,45,0,0,0,5.59-3.79,28.45,28.45,0,0,0,8.47-10.23c4.09-8,5.19-17.22,5.29-26.19a165.66,165.66,0,0,0-2.43-27c-1.36-9-3.39-17.8-4.8-26.87A159.26,159.26,0,0,1,525.69,727l0-1.88,1.59,1.08c7.85,5.28,18.21,6.69,27.41,4.78a19.13,19.13,0,0,0,13.5-15,13.83,13.83,0,0,0-.3-6.93c-.94-2.05-3.56-2.62-5.85-3.23s-4.77-1.19-7.11-2a94.19,94.19,0,0,1-13.47-5.95c-4.4-2.14-8.79-4.37-13.49-5.68a18.72,18.72,0,0,0-7.21-.67A16.48,16.48,0,0,0,514.05,694.14Z" style="fill: #002969"/>
        </g>
        <path d="M441.84,791.44c2.18-4.52,7.53-7,12.38-6.91,2.11,0,7.64.61,8,3.5.78,6.82-13.1,9-17.3,8.53a5,5,0,0,1-2.08-.58C441.37,795.09,441.11,793,441.84,791.44Z" style="fill: #c3edd9"/>
        <path d="M452.21,804a6.32,6.32,0,0,1,2.13-2.2c2.06-1.47,10.09-4.1,10.52.36.18,1.91-1.71,3.34-3.46,4.11C457.86,807.83,450.83,807,452.21,804Z" style="fill: #c3edd9"/>
        <path d="M434.94,803.16c-.21-3.91,5.81-3.9,7.94-2C448.23,805.77,435.22,808.47,434.94,803.16Z" style="fill: #c3edd9"/>
        <path d="M489.74,825.64c3.46,5.94,8.45,24.73,2.51,40.07s-16.91,24.11-20.66,21.91-1.26-8.13-6.26-22.85-3.73-22.42,2.19-31C474.64,823.47,486.46,820,489.74,825.64Z" style="fill: #12b6c2"/>
        <circle cx="530.76" cy="705.14" r="3.82" style="fill: #002969"/>
      </g>
      <path d="M478.7,823.82c-6.81-.37-11.78,6.17-14.56,11.77-3.86,7.78-3.52,16.9-1.53,25.14,1.08,4.47,3.18,8.59,4.16,13,.77,3.52-.09,8.54,1.9,11.72,2.79,4.47,7.47,2.28,10.45-.58.2-.19.13-1-.24-.79-4.8,2.69-8.63.34-9.73-5.16-.35-1.79-.12-3.7-.52-5.51-1.33-6.11-4.32-11.41-5.14-17.78-1.52-11.72,2.65-27.22,15.34-31,.35-.1.23-.87-.13-.89Z" style="fill: #002969"/>
      <path d="M494.47,842.93c-.34,3.14.06,6.31-.27,9.49a105.91,105.91,0,0,1-3.76,17.16c0,.15.1.33.21.15,5.47-8.08,5.68-17.66,4-26.88,0-.13-.15,0-.16.08Z" style="fill: #002969"/>
      <path d="M535.53,802.72c1.41,11.35-1.54,26.31-7.64,36.14-.06.1,0,.44.13.28,8.38-8.82,10.11-25.08,8-36.6-.09-.5-.53-.21-.48.18Z" style="fill: #002969"/>
      <g>
        <path d="M405.8,827.17c-3.47-.84-8.72,20.35-9.71,19.73s-23.57-.36-25.06,2.61,19.77,13.06,19.77,13.06S380.53,880.33,384,883s19.76-12.83,19.76-12.83,13.95,15.87,18.07,14-4.7-20.26-4.7-20.26,21-6.57,20.28-10.71-22.4-3.93-22.4-3.93S411.65,828.61,405.8,827.17Z" style="fill: #fece5f"/>
        <path d="M405.77,827.27c-.7-.1-1.27.57-1.69,1.13a13.84,13.84,0,0,0-1.15,1.93c-.67,1.33-1.25,2.73-1.79,4.13-1.09,2.8-2,5.68-2.92,8.56l-.73,2.15c-.13.36-.26.72-.41,1.08-.08.18-.17.36-.27.55a1.69,1.69,0,0,1-.21.31.9.9,0,0,1-.25.19c-.26.11-.6-.08-.5,0a30.06,30.06,0,0,0-4.31-.1c-3,.06-6,.27-9,.51a51.48,51.48,0,0,0-8.78,1.31,6.11,6.11,0,0,0-1.79.74c-.25.21-.14.11-.15.12a1.35,1.35,0,0,0,.33.58,16.82,16.82,0,0,0,3.26,2.74A159.44,159.44,0,0,0,391,862.07l.54.27-.29.51a93.93,93.93,0,0,0-5.35,10.24A36.81,36.81,0,0,0,384,878.5a9.82,9.82,0,0,0-.37,2.77c0,.92.46,1.76,1.36,1.73,1.78-.06,3.52-1.18,5.12-2.15a55,55,0,0,0,4.68-3.38c3-2.42,5.87-5,8.64-7.69l.39-.38.39.42c2.53,2.74,5.18,5.41,7.95,7.9a52.72,52.72,0,0,0,4.3,3.51c1.46,1,3.15,2.11,4.57,2.23,1.11.25,1.19-1.78.9-3.51a34.21,34.21,0,0,0-1.41-5.29,98.32,98.32,0,0,0-4.26-10.3l-.5-1.05,1.11-.36c3.68-1.2,7.36-2.5,10.92-4a50.65,50.65,0,0,0,5.19-2.5,16.47,16.47,0,0,0,2.31-1.52c.67-.51,1.3-1.32,1.2-1.54.07-.19-.63-.8-1.45-1.11a16.27,16.27,0,0,0-2.64-.82,48.35,48.35,0,0,0-5.7-.9c-3.85-.42-7.75-.68-11.64-.77h-.45l-.06-.41a91.12,91.12,0,0,0-2.59-12,38.43,38.43,0,0,0-2.21-5.72C408.81,829.89,407.7,828,405.77,827.27Zm.05-.19c2.07.7,3.21,2.67,4.2,4.43a39.93,39.93,0,0,1,2.34,5.72,96.17,96.17,0,0,1,3.18,12l-.5-.42a116.21,116.21,0,0,1,11.8.2,50.16,50.16,0,0,1,5.92.75,17.72,17.72,0,0,1,3,.83,6.5,6.5,0,0,1,1.51.8,2.66,2.66,0,0,1,1.15,1.87,2.87,2.87,0,0,1-.7,2,7.43,7.43,0,0,1-1.19,1.19,19.52,19.52,0,0,1-2.57,1.72,53.25,53.25,0,0,1-5.37,2.63c-3.65,1.55-7.33,2.91-11.1,4.11l.61-1.4a99.78,99.78,0,0,1,4.22,10.59,35.53,35.53,0,0,1,1.4,5.62,10,10,0,0,1,0,3.1,3.17,3.17,0,0,1-.85,1.72,2.64,2.64,0,0,1-1.94.68c-2.36-.33-3.85-1.59-5.43-2.7a51.72,51.72,0,0,1-4.32-3.74c-2.75-2.61-5.33-5.36-7.82-8.22l.78,0c-2.88,2.63-5.84,5.13-8.94,7.48-1.54,1.19-3.11,2.33-4.77,3.37s-3.35,2.12-5.5,2.18a1.89,1.89,0,0,1-1.47-.76,3.06,3.06,0,0,1-.46-1.52,10.47,10.47,0,0,1,.35-3,38.06,38.06,0,0,1,1.89-5.54c1.52-3.58,3.19-7.08,5.06-10.51l.24.79a124.89,124.89,0,0,1-16.06-8.54,18.07,18.07,0,0,1-3.67-3,3.11,3.11,0,0,1-.7-1.4,1.67,1.67,0,0,1,.21-1.1,2.16,2.16,0,0,1,.62-.65,7.24,7.24,0,0,1,2.37-1,53,53,0,0,1,9.11-1.17c3-.18,6.07-.18,9.1-.12l2.28.1a10.9,10.9,0,0,1,2.42.32c-.45,0-.2,0-.15-.14a4,4,0,0,0,.24-.46c.16-.32.31-.66.45-1l.82-2.09,3.22-8.47a45.1,45.1,0,0,1,1.88-4.13,13.82,13.82,0,0,1,1.19-1.94C404.35,827.7,404.92,827,405.82,827.08Z" style="fill: #5e2b06"/>
      </g>
    </g>
    <g>
      <path d="M626.13,584.42s20.59-8,23.29,7.21-15,17.58-24.91,16.76a92,92,0,0,1-18-3.36s-4.28-13.63-3.6-27.44c.53-10.62,7-18.22,17-14.79C628.51,565.74,629.9,576.91,626.13,584.42Z" style="fill: #f67a62"/>
      <path d="M626.22,584.34a28.2,28.2,0,0,1,9.88-2.64c3.43-.29,7.3.13,10.29,2.52s4.21,6.3,4.36,9.83a12.21,12.21,0,0,1-4.1,10,20,20,0,0,1-9.69,4.24,49.13,49.13,0,0,1-10.33.67,111.54,111.54,0,0,1-20.35-3.21l-.34-.09-.12-.37a85,85,0,0,1-4-19.79,57.3,57.3,0,0,1,0-10.23,19.76,19.76,0,0,1,3.88-9.82,11.72,11.72,0,0,1,9.67-4.59,13.79,13.79,0,0,1,9.7,4.17C629.93,570.52,629.47,578.85,626.22,584.34Zm-.18.16a20.78,20.78,0,0,0,1.4-9.74,13.55,13.55,0,0,0-3.75-8.44,11.73,11.73,0,0,0-8.34-3.14,9.65,9.65,0,0,0-7.66,3.81c-3.81,4.92-3.82,11.83-3.54,18.32a106.7,106.7,0,0,0,3,19.51l-.47-.46a73.66,73.66,0,0,0,19.95,3.73,36.25,36.25,0,0,0,10-1.14,18.59,18.59,0,0,0,8.6-4.43,10.5,10.5,0,0,0,3.31-8.4c-.06-3.19-1-6.49-3.4-8.44a13.46,13.46,0,0,0-9-2.68,37,37,0,0,0-5,.43C629.41,583.69,628,584.1,626,584.5Z" style="fill: #5e2b06"/>
    </g>
    <g>
      <path d="M684.86,806.34s40.81-15.89,46.16,14.31-29.65,34.83-49.38,33.21a182.11,182.11,0,0,1-35.71-6.65s-8.48-27-7.14-54.39c1-21.06,13.87-36.13,33.75-29.33C689.58,769.32,692.33,791.45,684.86,806.34Z" style="fill: #fece5f"/>
      <path d="M685,806.23A49.79,49.79,0,0,1,694.5,803a56.48,56.48,0,0,1,10.13-1.65A38.18,38.18,0,0,1,715,802a21.77,21.77,0,0,1,9.65,4.4,21,21,0,0,1,6.24,8.7l.85,2.54.6,2.58c.25,1.75.41,3.5.61,5.26a50.16,50.16,0,0,1-.25,5.33,42.56,42.56,0,0,1-1.43,5.2c-.87,1.57-1.4,3.36-2.61,4.71L727,842.83c-.61.66-1.3,1.24-1.94,1.85-5.37,4.78-12.16,7.15-18.85,8.48a92.53,92.53,0,0,1-20.39,1.49,204.16,204.16,0,0,1-40.22-6.54l-.46-.12-.16-.5a175.26,175.26,0,0,1-7.6-39.13,112.72,112.72,0,0,1,.07-20.12A38.76,38.76,0,0,1,645,769.17a25.13,25.13,0,0,1,8.19-6.66,21.23,21.23,0,0,1,10.33-2.19,29.74,29.74,0,0,1,10.16,2.11,23,23,0,0,1,8.63,5.82,23.85,23.85,0,0,1,5.3,8.84,32.66,32.66,0,0,1,1.89,10A36.72,36.72,0,0,1,685,806.23Zm-.24.23a48.82,48.82,0,0,0,2.77-9.58,41,41,0,0,0,.34-9.71c-.59-6.38-2.88-12.77-7.38-17.14-4.33-4.45-10.81-6.54-17-6.56a19.42,19.42,0,0,0-8.83,2,21.69,21.69,0,0,0-7,5.79c-3.84,4.9-5.83,11.13-6.74,17.41a110.76,110.76,0,0,0-.38,19.47,202.41,202.41,0,0,0,6.3,38.77l-.62-.62a155.12,155.12,0,0,0,39.68,7.23,75.21,75.21,0,0,0,20-2.11c6.44-1.59,12.79-4.23,17.4-8.74.57-.56,1.18-1.09,1.72-1.68l1.4-1.92c1.08-1.2,1.47-2.79,2.24-4.16a42.52,42.52,0,0,0,1.19-4.6c0-1.6.29-3.18.25-4.79-.14-6.46-2.08-13.16-7-17.23s-11.74-5.39-18.33-5.22a68.63,68.63,0,0,0-10,1C691.35,804.69,688.32,805.53,684.74,806.46Z" style="fill: #d97c2d"/>
    </g>
    <g>
      <path d="M178.43,860.21c-8.22-13-40-10.85-38.18,8C142,887,173.74,889,187.42,890.41c3.27.34,5.2-4,1.45-4.41-12-1.26-26.16-2.31-36.52-9.08-5.81-3.8-9.33-11.94-3.32-17.4,7.52-6.82,20.45-2.68,28.14,2,1.13.7,1.93-.28,1.26-1.34Z" style="fill: #fe98b0"/>
      <path d="M178.53,861.36c3.35-6.1,4.78-12.84,9.07-18.52,5-6.68,12.47-10.47,16.14,0,2.83,8.07-.54,17.3-4.18,24.56s-9.71,12.81-13.23,19.94c-.74,1.5,1.88,3,3.07,2.24,14-8.69,32.62-43.08,14.95-56.46-13.9-10.52-31,15.19-27.88,27.26.18.68,1.47,2,2.06,1Z" style="fill: #fe98b0"/>
    </g>
    <g>
      <path d="M702,166.37s.15-19.54,13.55-16.77,9.55,18,5.62,26a81.39,81.39,0,0,1-8.65,13.7s-12.61-.94-23.73-6c-8.56-3.91-12.69-11.71-6.59-18.83C687.43,158.3,697.06,160.82,702,166.37Z" style="fill: #f67a62"/>
      <path d="M702,166.26a24.32,24.32,0,0,1,1-9c.87-2.93,2.47-6,5.45-7.71s6.63-1.42,9.6-.39a10.88,10.88,0,0,1,6.91,6.7,17.74,17.74,0,0,1,.28,9.41,43.86,43.86,0,0,1-2.86,8.72,101.77,101.77,0,0,1-9.27,15.7l-.21.28-.4,0a74.85,74.85,0,0,1-17.6-3.14,51.76,51.76,0,0,1-8.44-3.34,17.73,17.73,0,0,1-6.89-6.44,10.6,10.6,0,0,1-.57-9.6,12.38,12.38,0,0,1,6.68-6.66C691.84,158.6,698.57,161.77,702,166.26Zm.08.23a18.43,18.43,0,0,0-7.57-4.28,11.88,11.88,0,0,0-8.1.35,10.24,10.24,0,0,0-5.23,5.77,8.34,8.34,0,0,0,.67,7.4c2.72,4.67,8.35,7,13.77,8.87a95.69,95.69,0,0,0,17,4l-.6.26a63.67,63.67,0,0,0,9.61-15.14,31.32,31.32,0,0,0,2.31-8.6,16.38,16.38,0,0,0-.87-8.47,9.16,9.16,0,0,0-5.74-5.38c-2.63-1-5.61-1.32-8,0a11.82,11.82,0,0,0-5.13,6.47,33.13,33.13,0,0,0-1.32,4.24C702.51,163.45,702.37,164.76,702,166.49Z" style="fill: #5e2b06"/>
    </g>
  </g>
</svg>
