<?xml version="1.0" encoding="utf-8"?>
<!-- Generator: Adobe Illustrator 24.0.2, SVG Export Plug-In . SVG Version: 6.00 Build 0)  -->
<svg version="1.1" id="Layer_1" xmlns="http://www.w3.org/2000/svg" xmlns:xlink="http://www.w3.org/1999/xlink" x="0px" y="0px"
	 viewBox="0 0 500 750" style="enable-background:new 0 0 500 750;" xml:space="preserve">
<style type="text/css">
	.st0{fill:#F9D5B7;}
	.st1{clip-path:url(#SVGID_2_);}
	.st2{fill:#F4B990;}
	.st3{fill:#60BFB2;}
	.st4{fill:#332623;}
	.st5{fill:#FFB54A;}
	.st6{fill:#FF7B4D;}
	.st7{fill:#FFBB99;}
	.st8{fill:#EF9152;}
	.st9{fill:#F9EADC;}
	.st10{fill:#60352B;}
	.st11{fill:#ED7854;}
	.st12{fill:#FFA383;}
	.st13{fill:#D34A37;}
	.st14{fill:#B74E35;}
	.st15{fill:#429B8C;}
	.st16{fill:#CE4E30;}
	.st17{fill:#FFE8D9;}
</style>
<title>background</title>
<g id="BACKGROUND">
	<rect x="0" y="365.3" class="st0" width="500.1" height="384.7"/>
</g>
<g id="OBJECTS">
	<g>
		<defs>
			<rect id="SVGID_1_" x="0" y="365.3" width="500.1" height="384.7"/>
		</defs>
		<clipPath id="SVGID_2_">
			<use xlink:href="#SVGID_1_"  style="overflow:visible;"/>
		</clipPath>
		<g class="st1">
			<path class="st2" d="M339.9,554.2c-2.8,5.8-9,14.3-9,14.3c-5.5,23-27.9,68.1-27.9,68.1l2.6,3l-23.2,37.8L292,743
				c-0.9,0.9-1.9,1.6-3.1,2.1l5.3,18.7h-116l5.3-18.7c-1.2-0.5-2.2-1.2-3.1-2.1l9.6-65.5l-23.2-37.8l2.6-3c0,0-22.4-45.1-27.9-68.1
				c0,0-6.5-8.9-9.2-14.7c-0.9-2-1.4-3.5-1-4.3c1.1-2.3,3.1-1.8,4.1-1.4c0-0.1,0.1-0.1,0.1-0.1c-0.6-0.6-1.6-1.9-0.9-3.3
				c0.9-2,3.3-1.2,3.3-1.2s-1.3-1.8-0.6-3.2c0.4-0.9,1.3-1.4,2.2-1.5c0,0,0-1.5,0.8-2c0.8-0.3,1.6-0.3,2.5-0.2h0.1
				c0,0,2.1-3.5,7.7,4.7c2.1,3.1,3.5,6.7,4.3,10.3v-0.1c1.1-1.8,3.2-3.6,2.6-5.9c-0.2-0.6-0.4-1.2-0.7-1.7c-0.2-0.6-0.4-1.1-0.6-1.7
				c-0.4-1.2-0.7-2.3-1-3.5c-1-4.4-1-9.5,1.2-13.5c1.9-3.4,5.5-6.3,9.6-5.4c2.1,0.6,4,1.8,5.4,3.5c1.5,1.6,2.7,3.4,3.8,5.3
				c2.2,3.8,4,7.9,7.1,11.2c3.2,3.3,7.1,5.8,11.5,7.2c2.3,0.7,4.6,1.5,6.8,2.4c1.4,0.6,2.7,1.4,3.9,2.4c0.8,0.7,1.6,1.4,2.2,2.3
				c0,0,0.1,0.1,0.1,0.1c1.3,1.6,2.3,3.5,2.9,5.5l0.8,1.9c7.9-4.4,16.7-6.6,25.7-6.4c11.6,0,20.5,3.1,27.4,7.5
				c0.3-1.3,0.7-2.6,1.1-3.8c0.5-1.5,1.1-3,1.7-4.5c0.6-2,1.6-3.9,2.9-5.5c0,0,0.1-0.1,0.1-0.1c0.6-0.9,1.4-1.6,2.2-2.3
				c1.2-1,2.5-1.8,3.9-2.4c2.2-0.9,4.5-1.7,6.8-2.4c4.4-1.4,8.4-3.9,11.5-7.2c3-3.3,4.8-7.4,7.1-11.2c1.1-1.9,2.3-3.7,3.8-5.3
				c1.4-1.7,3.3-2.9,5.4-3.5c4.1-1,7.8,1.9,9.6,5.3c2.2,4.1,2.2,9.1,1.2,13.5c-0.3,1.2-0.6,2.4-1,3.5c-0.2,0.6-0.4,1.1-0.7,1.7
				c-0.3,0.6-0.5,1.1-0.7,1.7c-0.4,1.5,0.4,2.8,1.3,4c0.5-1.1,1.1-2.1,1.8-3.1c5.6-8.2,7.7-4.7,7.7-4.7c0.9-0.2,1.8-0.1,2.6,0.1
				c0.8,0.5,0.8,2,0.8,2c1,0,1.8,0.6,2.2,1.5c0.7,1.5-0.6,3.2-0.6,3.2s2.3-0.8,3.3,1.2c0.8,1.7-0.8,3.2-1.3,3.6l0,0
				c0.6-0.3,3.3-1.7,4.6,1.1C341.5,550.4,340.9,552.1,339.9,554.2z"/>
			<path class="st2" d="M405.9,535.1c-0.2,0-0.4,0.2-0.3,0.4c0,0.2,0.2,0.3,0.3,0.3c0.2,0,0.4-0.2,0.3-0.4
				C406.2,535.2,406.1,535.1,405.9,535.1z"/>
			<g>
				<path class="st2" d="M20.8,467.6c-0.8-1.3-2.6-2.3-4.1-1.7c-2,0.8-3.8,2.3-5.7,3.3c-1.5,0.9-2.2,2.8-1.5,4.5
					c0.6,1.5,2.6,2.8,4.2,2.1c2.2-0.9,4.9-1.9,6.5-3.7C21.4,470.9,21.6,469.1,20.8,467.6z"/>
				<path class="st2" d="M31.4,461.1l-3.2-2c-1.8-1-4-0.4-5.1,1.3c-1,1.8-0.4,4,1.3,5.1l3.2,2.1c1.8,1,4.1,0.4,5.2-1.4
					C33.7,464.5,33.1,462.2,31.4,461.1z"/>
				<path class="st2" d="M33.2,474l-1.5-1.7c-0.8-0.7-1.8-1.2-2.9-1.2c-2.2,0-4,1.8-4,4l0.1,1.1c0.2,0.7,0.5,1.3,1,1.8l1.5,1.7
					c0.8,0.8,1.8,1.2,2.9,1.2c1.1,0,2.1-0.4,2.9-1.2c0.8-0.8,1.2-1.8,1.2-2.9C34.3,475.8,33.9,474.8,33.2,474z"/>
				<path class="st2" d="M322.8,714.6c-0.7-1.8-2.7-2.7-4.5-2.2c-1,0.3-2,0.6-2.9,1c-1,0.3-1.8,1-2.4,1.8c-1.1,1.9-0.5,4.3,1.4,5.5
					c0.9,0.6,2,0.7,3.1,0.4c1.3-0.5,2.5-1.1,3.7-1.7C322.8,718.4,323.5,716.3,322.8,714.6z"/>
				<path class="st2" d="M329.2,707c0-0.5-0.2-0.9-0.4-1.3l-0.8-1.1c-0.7-1.2-2-1.9-3.3-1.9c-1,0-2,0.4-2.7,1.1
					c-0.7,0.7-1.1,1.7-1.1,2.7c0,1.4,0.7,2.6,1.9,3.3l1.1,0.8l0.9,0.4c0.5,0.1,1,0.2,1.4,0.1c0.3,0,0.6-0.1,0.9-0.3
					c0.4-0.1,0.8-0.4,1.2-0.8l0.6-0.7l0.4-0.9C329.3,708,329.3,707.5,329.2,707z"/>
				<path class="st2" d="M129.1,660.1l-0.2-1.8c0-0.9-0.4-1.7-1-2.3c-1.3-1.3-3.3-1.3-4.6,0c-0.6,0.6-1,1.4-1,2.3
					c-0.1,1.4,0,2.8,0.3,4.2c0.4,1.4,1.7,2.4,3.1,2.4c1.3-0.1,2.9-1,3.1-2.4C129.1,661.7,129.1,660.9,129.1,660.1z"/>
				<path class="st2" d="M145.4,655.7c-0.2-0.7-0.6-1.3-1.2-1.7l0.1,0.1l-0.2-0.2l0,0l-0.2-0.1l0,0l-0.2-0.2l0.1,0.1
					c-0.3-0.2-0.6-0.4-0.9-0.6l-0.4-0.3c-0.3-0.3-0.6-0.5-1-0.6c-0.4-0.2-0.9-0.3-1.4-0.3c-0.9,0-1.8,0.4-2.5,1
					c-0.6,0.7-1,1.6-1,2.5c0,0.9,0.3,1.8,1,2.5c0.5,0.5,1.1,0.9,1.7,1.3c0.4,0.2,0.8,0.4,1.3,0.6c0.5,0.1,1,0.2,1.5,0.2l0.9-0.1
					c0.4-0.1,0.8-0.3,1.1-0.6c0.6-0.4,1-1,1.2-1.7C145.5,657,145.5,656.3,145.4,655.7z"/>
				<path class="st2" d="M131.5,638c-1.3-0.2-3.1,0.7-3.3,2.2c-0.2,1.1-0.3,2.1-0.5,3.2c-0.2,0.8-0.1,1.7,0.3,2.5
					c0.5,0.8,1.3,1.4,2.3,1.5c1.8,0.2,3.4-1,3.6-2.8c0-0.1,0-0.2,0-0.3c0.1-1.1,0.1-2.1,0.2-3.2C134.1,639.5,133,638.2,131.5,638z"
					/>
				<path class="st2" d="M433.8,474.2c-1.6-0.2-3.1,0.7-3.5,2.3c-0.1,0.7-0.3,1.4-0.4,2.2c-0.1,0.9-0.2,1.8-0.1,2.7
					c0,1.4,1.1,2.7,2.5,2.9c1.4,0.2,2.8-0.7,3.2-2.1c0.4-0.8,0.6-1.7,0.7-2.6c0.1-0.7,0.2-1.5,0.3-2.2
					C436.8,475.7,435.2,474.4,433.8,474.2z"/>
				<path class="st2" d="M446.9,469.7c-0.5-0.8-1.3-1.4-2.2-1.7c-0.9-0.2-1.9-0.1-2.8,0.4l-2,1c-0.8,0.5-1.4,1.3-1.7,2.2
					c-0.2,0.9-0.1,1.9,0.4,2.8c0.5,0.8,1.3,1.4,2.2,1.7c0.9,0.2,1.9,0.1,2.8-0.4l2-1c0.8-0.5,1.4-1.3,1.7-2.2
					C447.5,471.6,447.4,470.6,446.9,469.7z"/>
				<path class="st2" d="M443.3,460.6c-0.5-1.8-2.4-2.8-4.1-2.4l-3.4,1c-1.8,0.4-3,2.2-2.5,4c0.4,1.8,2.2,3,4,2.5
					c0.1,0,0.2-0.1,0.3-0.1l3.4-1C442.8,464.2,443.8,462.4,443.3,460.6z"/>
				<path class="st2" d="M336.6,716.1c-1.6-0.8-4.1-0.5-4.9,1.3c-0.6,1.3-1.1,2.5-1.6,3.8c-0.6,1.4-0.8,3-0.5,4.6
					c0.4,2.4,4.1,3.4,5.6,1.5c0.6-0.6,1-1.4,1.4-2.2c0.2-0.5,0.3-1,0.5-1.5s0.4-1,0.5-1.5l0.2-0.6c0,0,0.1-0.2,0.2-0.4
					C338.6,719.4,338.4,717.1,336.6,716.1z"/>
				<path class="st2" d="M322.2,735.8l-2.3-2.4c-1.5-1.5-3.8-1.5-5.3,0c-1.5,1.5-1.5,3.8,0,5.3l0,0l2.3,2.4c1.5,1.5,3.8,1.5,5.3,0
					C323.7,739.6,323.7,737.3,322.2,735.8z"/>
				<path class="st2" d="M35.8,492c-1.5-1.4-3.8-1.4-5.3,0c-0.3,0.3-0.5,0.5-0.8,0.8l-0.3,0.3c-0.6,0.4-1.2,0.8-1.8,1.1
					c-1.8,1-2.4,3.3-1.3,5.1c1.1,1.7,3.3,2.3,5.1,1.3c1.7-0.8,3.2-1.9,4.5-3.3C37.2,495.9,37.2,493.5,35.8,492z"/>
			</g>
			<g>
				<g>
					<path class="st3" d="M297.5,642.4c-3.2,6.4-5.9,13.1-8,19.9c-2.1,6.8-3.8,13.8-4.8,20.8c-1.1,7.1-1.6,14.2-1.6,21.4
						c0,0.3,1.2,1.2,1.4,1l3.6-4.7c4.9-6.3,10-12.5,15.1-18.6c5.1-6.1,10.4-12.2,15.8-18.2c5.3-5.9,10.9-11.5,15.7-17.9
						c1.2-1.6,2.3-3.2,3.4-4.8c1-1.6,1.9-3.2,2.6-5c1.1-2.9,1.2-6,0.4-9c-0.8-2.9-2.3-5.4-4.6-7.4c-2.4-2-5.4-3.3-8.5-3.7
						c-6.9-0.8-13.1,3.4-17.9,8C304.8,629.4,300.9,635.8,297.5,642.4z"/>
					<path class="st4" d="M313.7,634.1c0-0.2,0.1-0.3,0.3-0.3s0.3,0.1,0.3,0.3c-0.3,4.5-0.6,9.1-0.9,13.6c1-1.6,2.1-3.1,3.2-4.7
						c2.9-4.2,5.8-8.2,8.8-12.3c0.3-0.3,0.8,0,0.5,0.3c-4.2,5.6-8.2,11.2-12.1,17.1c4.3-1.9,8.7-3.6,13.2-5c0.4-0.1,0.5,0.5,0.1,0.6
						c-4.8,1.5-9.4,3.3-14,5.3c-0.9,1.3-1.7,2.6-2.5,3.9c-1.9,3-3.8,6-5.6,9.1c4.6-2.1,9.2-4.3,13.7-6.6c0.2-0.1,0.4,0,0.4,0.1
						c0.1,0.2,0,0.4-0.1,0.4l0,0c-4.8,2.5-9.6,4.8-14.5,7c-2.5,4.3-5,8.7-7.3,13l-0.9,1.8l10.9-7.1c0.4-0.2,0.6,0.4,0.3,0.6
						l-11.8,7.7c-1.8,3.5-3.5,7-5.2,10.5c-0.2,0.4-0.8,0.2-0.6-0.2c1.6-3.5,3.4-6.9,5.1-10.3c0,0,0-0.1,0-0.1
						c-0.3-5.3-0.4-10.5-0.1-15.8c0-0.2,0.1-0.3,0.3-0.3s0.3,0.1,0.3,0.3c-0.2,4.9-0.2,9.9,0.1,14.8c2.2-4.2,4.4-8.3,6.7-12.3
						c0.5-0.9,1-1.7,1.5-2.6c0,0,0-0.1,0-0.1l2-15.6c0-0.4,0.7-0.4,0.6,0c-0.6,4.8-1.2,9.6-1.8,14.4c2.6-4.4,5.3-8.7,8.1-12.9
						L313.7,634.1z"/>
				</g>
				<g>
					<path class="st5" d="M281.8,703.5C281.8,703.5,281.8,703.5,281.8,703.5c-0.1,0.2-0.1,0.5,0.1,0.6c0.1,0.1,0.3,0.1,0.4,0
						c1.4-1,2.9-2,4.5-2.7c3.2-1.6,6.6-2.8,10.1-3.6c3.8-1,7.7-1.9,11.5-2.7c8.1-1.8,16.3-3.5,24.4-5c4.1-0.8,8.1-1.5,12.2-2.2
						c3.8-0.7,7.7-1.3,11.5-2.1c3.5-0.7,6.9-2,10-3.8c2.9-1.7,5.3-4.3,6.9-7.3c1.5-2.9,1.8-6.2,0.8-9.3c-0.9-3-2.7-5.6-5.2-7.6
						c-5.7-4.8-13.8-5.4-21-4.8c-6.7,0.6-13.3,2.3-19.5,5c-6.2,2.7-12.1,6.2-17.4,10.3c-6,4.7-11.5,10.1-16.3,16.1
						C290.1,690.3,285.7,696.8,281.8,703.5z"/>
					<path class="st4" d="M294.4,692.3c3-2.6,6.1-5,9.4-7.3c0-0.1,0-0.2,0-0.2l11.5-15.4c0.3-0.3,0.8,0.1,0.5,0.4l-10.6,14.2
						l0.9-0.6c4-2.8,8.2-5.3,12.6-7.6c1.9-1,3.9-2,5.9-2.9c0-0.1,0-0.1,0.1-0.2c3.9-3.9,7.8-7.8,11.6-11.8c0.3-0.3,0.8,0.1,0.5,0.4
						c-3.5,3.7-7.1,7.3-10.7,10.9c1.9-0.8,3.9-1.7,5.9-2.4c4.4-1.6,9-3,13.6-3.9c4.6-1,9.3-1.6,14.1-1.8l1.8-0.1
						c0.4,0,0.5,0.6,0.1,0.6c-4.7,0.1-9.4,0.7-14,1.5c-4.7,0.9-9.2,2.1-13.7,3.7c-2.5,0.9-4.9,1.8-7.4,2.9c5,0.6,10,1.2,14.9,2
						l4.6,0.8c0.2,0,0.3,0.2,0.3,0.4c0,0.2-0.2,0.3-0.4,0.3l0,0c-5.5-0.9-10.9-1.7-16.4-2.4c-1.4-0.2-2.8-0.3-4.2-0.5
						c-1.6,0.7-3.1,1.4-4.6,2.2c-4.4,2.2-8.6,4.7-12.7,7.5c-0.8,0.6-1.7,1.1-2.5,1.7l13.7-0.7c0.4,0,0.5,0.6,0.1,0.6l-14.8,0.7
						c-2.8,2-5.6,4.1-8.3,6.4l-1.4,1.2C294.5,693.1,294.1,692.6,294.4,692.3z"/>
				</g>
				<g>
					<path class="st5" d="M189.3,689.3c1.4,7,2.3,14.1,2.6,21.3c0.3,7.1,0,14.3-0.8,21.4c-0.8,7.1-2.2,14.1-4.1,21
						c-0.1,0.3-1.4,0.9-1.6,0.5c-0.8-1.8-1.5-3.6-2.3-5.4c-3.1-7.3-6.3-14.6-9.7-21.9s-6.9-14.5-10.5-21.7
						c-3.6-7.1-7.5-14-10.5-21.4c-0.7-1.8-1.4-3.7-2-5.6c-0.6-1.8-1-3.6-1.2-5.5c-0.3-3.1,0.4-6.1,1.9-8.8c1.5-2.6,3.7-4.6,6.4-5.9
						c2.9-1.3,6.1-1.8,9.2-1.3c6.9,1.1,11.8,6.7,15.1,12.4C185.6,674.9,187.8,682.1,189.3,689.3z"/>
					<path class="st4" d="M175.9,677.1c0-0.2-0.1-0.3-0.2-0.4s-0.3,0.1-0.4,0.2c-0.9,4.5-1.8,8.9-2.7,13.4c-0.6-1.8-1.2-3.6-1.8-5.4
						c-1.7-4.7-3.4-9.5-5.3-14.1c-0.1-0.4-0.8-0.2-0.6,0.2c2.6,6.5,5,13,7.2,19.6c-3.7-3-7.5-5.7-11.4-8.3c-0.4-0.2-0.6,0.3-0.3,0.6
						c4.2,2.7,8.2,5.7,12.1,8.8c0.5,1.5,1,3,1.4,4.4c1.1,3.4,2,6.8,3,10.2c-3.9-3.2-7.7-6.6-11.5-10c-0.3-0.3-0.7,0.2-0.4,0.5
						c4,3.6,8,7.2,12.2,10.6c1.3,4.8,2.5,9.6,3.6,14.5c0.1,0.7,0.3,1.3,0.4,2c-2.9-3.2-5.8-6.5-8.6-9.7c-0.3-0.3-0.7,0.2-0.4,0.5
						c3.1,3.5,6.2,7,9.3,10.5c0.8,3.8,1.6,7.6,2.3,11.5c0.1,0.4,0.7,0.4,0.6,0c-0.7-3.8-1.4-7.5-2.2-11.3c0,0,0-0.1,0.1-0.1
						c1.7-5,3.1-10.1,4.3-15.2c0-0.2-0.1-0.3-0.2-0.4s-0.3,0.1-0.4,0.2c-1.1,4.8-2.4,9.5-4,14.2c-1-4.6-2.1-9.1-3.3-13.7
						c-0.3-1-0.5-1.9-0.8-2.9c0,0,0.1-0.1,0.1-0.1L180,692c0.1-0.4-0.6-0.5-0.6-0.1l-2,14.4c-1.3-4.9-2.8-9.8-4.4-14.6
						C173.9,686.8,174.9,682,175.9,677.1z"/>
				</g>
				<g>
					<path class="st6" d="M188.4,755.3C188.4,755.3,188.4,755.3,188.4,755.3c0.1,0.3,0,0.5-0.2,0.6c-0.1,0.1-0.3,0-0.4,0
						c-1.3-1.2-2.8-2.2-4.3-3.1c-3.1-1.8-6.3-3.4-9.7-4.5c-3.7-1.4-7.5-2.5-11.2-3.8c-7.9-2.5-15.9-4.9-23.9-7.2
						c-4-1.1-8-2.2-12-3.3c-3.8-1-7.6-2-11.3-3.2c-3.4-1-6.7-2.6-9.6-4.6c-2.8-2-4.9-4.7-6.2-7.9c-1.2-3-1.2-6.4,0-9.4
						c1.2-2.9,3.2-5.4,5.8-7.1c6.2-4.3,14.3-4.1,21.3-2.8c6.6,1.2,13.1,3.5,19,6.7c6,3.2,11.5,7.2,16.4,11.9
						c5.6,5.3,10.5,11.2,14.8,17.6C181.3,741.5,185.1,748.3,188.4,755.3z"/>
					<path class="st4" d="M176.9,743c-2.8-2.8-5.6-5.5-8.6-8.1c0-0.1,0-0.2,0-0.2c-3.3-5.4-6.7-10.9-10.1-16.4
						c-0.2-0.3-0.8,0-0.5,0.4c3.1,5,6.2,10,9.3,15.1L166,733c-3.8-3.1-7.7-6-11.8-8.7c-1.8-1.2-3.7-2.3-5.6-3.4c0-0.1,0-0.1-0.1-0.2
						c-3.5-4.2-7-8.5-10.5-12.8c-0.3-0.3-0.8,0-0.5,0.4c3.2,4,6.4,7.9,9.7,11.8c-1.9-1-3.7-2-5.6-2.9c-4.3-2-8.7-3.7-13.2-5.2
						c-4.5-1.4-9.2-2.5-13.9-3.1l-1.8-0.2c-0.4,0-0.6,0.6-0.1,0.6c4.7,0.6,9.3,1.5,13.8,2.8c4.6,1.3,9,2.9,13.3,4.9
						c2.4,1.1,4.8,2.3,7.1,3.5c-5,0.1-10.1,0.4-15.1,0.7c-1.6,0.1-3.1,0.2-4.7,0.3c-0.2,0-0.3,0.2-0.3,0.4c0,0.1,0.1,0.2,0.3,0.3
						c5.5-0.4,11-0.7,16.6-0.9l4.3-0.1c1.5,0.8,3,1.7,4.4,2.6c4.2,2.6,8.2,5.5,12,8.6c0.8,0.6,1.6,1.3,2.3,1.9l-13.5-1.9
						c-0.4-0.1-0.6,0.6-0.1,0.6l14.6,2c2.6,2.3,5.2,4.6,7.6,7.1l1.3,1.3C176.7,743.8,177.1,743.3,176.9,743z"/>
				</g>
				<g>
					<path class="st5" d="M46.9,542.6c-5,5.2-10.3,9.9-16,14.3c-5.7,4.3-11.7,8.2-18,11.6c-6.3,3.4-12.8,6.3-19.6,8.7
						c-0.3,0.1-1.5-0.7-1.4-1c1-1.7,2.1-3.3,3.2-5c4.3-6.8,8.4-13.6,12.4-20.5s8-13.9,11.8-21c3.8-7,7.2-14.2,11.5-20.8
						c1.1-1.7,2.2-3.3,3.4-4.8c1.1-1.5,2.4-2.9,3.8-4.1c2.3-2,5.2-3.2,8.3-3.4c2.9-0.3,5.9,0.4,8.5,1.8c2.7,1.6,4.9,4,6.3,6.8
						c3.1,6.2,1.2,13.5-1.5,19.5C56.6,531.4,52,537.3,46.9,542.6z"/>
					<path class="st4" d="M49.2,524.7c0.2-0.1,0.2-0.3,0.2-0.4c-0.1-0.2-0.3-0.2-0.4-0.2l-12.5,5.4c1.1-1.5,2.2-3,3.4-4.6
						c2.9-4.1,5.8-8.2,8.6-12.5c0.2-0.3-0.3-0.7-0.5-0.4c-3.8,5.8-7.8,11.5-12,17.1c0.3-4.7,0.4-9.4,0.3-14.1c0-0.4-0.7-0.3-0.6,0.1
						c0.1,5,0,10-0.3,14.9c-0.9,1.2-1.9,2.5-2.8,3.7c-2.2,2.8-4.4,5.6-6.7,8.3c0.4-5,1-10.1,1.6-15.1c0-0.2-0.1-0.3-0.3-0.4
						s-0.3,0.1-0.4,0.3c-0.7,5.3-1.3,10.7-1.7,16c-3.2,3.8-6.5,7.6-9.8,11.3l-1.4,1.5c1-4.2,2-8.4,3.1-12.6c0.1-0.4-0.5-0.5-0.6-0.1
						l-3.3,13.7c-2.7,2.8-5.4,5.7-8.1,8.4c-0.3,0.3,0.1,0.8,0.4,0.5c2.7-2.7,5.4-5.5,8-8.3h0.1c5.1-1.5,10.1-3.2,14.9-5.2
						c0.2-0.1,0.2-0.3,0.1-0.5c-0.1-0.1-0.2-0.2-0.4-0.1c-4.6,1.9-9.2,3.5-13.9,4.9c3.2-3.4,6.3-6.9,9.4-10.5l1.9-2.3
						c0,0,0.1,0,0.1,0l14.1-7.1c0.4-0.2,0.1-0.8-0.3-0.6l-13,6.5c3.2-3.9,6.4-7.9,9.5-11.9L49.2,524.7z"/>
				</g>
				<g>
					<path class="st6" d="M-7.8,579.6L-7.8,579.6c-0.1,0.2-0.3,0.3-0.5,0.2c-0.1-0.1-0.2-0.2-0.2-0.4c0.2-1.8,0.2-3.5,0.1-5.3
						c-0.3-3.6-0.9-7.1-1.8-10.6c-1-3.8-2.2-7.6-3.3-11.4c-2.4-7.9-5-15.8-7.7-23.7c-1.3-3.9-2.7-7.8-4.1-11.7
						c-1.3-3.7-2.7-7.3-3.9-11c-1.1-3.4-1.7-7-1.7-10.5c0.1-3.4,1.1-6.7,2.9-9.6c1.8-2.7,4.5-4.6,7.7-5.3c3.1-0.6,6.2-0.4,9.1,0.7
						c7,2.6,11.5,9.4,14.5,15.9c2.8,6.1,4.6,12.7,5.3,19.4c0.8,6.7,0.6,13.5-0.4,20.3c-1.2,7.6-3.2,15-6,22.1
						C-0.5,565.9-3.9,572.9-7.8,579.6z"/>
					<path class="st4" d="M-4.3,563.1c0.7-3.9,1.3-7.8,1.7-11.8c0.1,0,0.1-0.1,0.2-0.2l7.7-17.6c0.2-0.4-0.4-0.6-0.6-0.2
						c-2.4,5.4-4.7,10.8-7.1,16.2c0-0.4,0.1-0.7,0.1-1.1c0.4-4.9,0.6-9.8,0.4-14.7c-0.1-2.2-0.2-4.4-0.4-6.6c0.1,0,0.1-0.1,0.1-0.2
						c1.4-5.3,2.9-10.6,4.5-15.9c0.1-0.4-0.5-0.6-0.6-0.2c-1.4,4.9-2.8,9.8-4.2,14.7c-0.2-2.1-0.5-4.2-0.8-6.3
						c-0.8-4.7-1.9-9.3-3.3-13.8c-1.4-4.5-3.2-8.9-5.4-13.1c-0.3-0.5-0.6-1.1-0.8-1.6c-0.2-0.4-0.8-0.1-0.6,0.3
						c2.2,4.2,4.1,8.5,5.6,12.9c1.5,4.5,2.7,9.1,3.6,13.8c0.5,2.6,0.8,5.2,1.1,7.8c-3-4-6-8-9.2-12c-1-1.2-1.9-2.4-2.9-3.6
						c-0.3-0.3-0.8,0.1-0.5,0.4c3.5,4.3,6.9,8.6,10.2,13.1c0.8,1.1,1.7,2.3,2.5,3.4c0.2,1.7,0.3,3.4,0.4,5.1
						c0.2,4.9,0.2,9.8-0.2,14.8c-0.1,1-0.2,2-0.3,3l-6.2-12.2c-0.2-0.4-0.8-0.1-0.6,0.3l6.7,13.2c-0.3,3.5-0.8,6.9-1.4,10.3
						c-0.1,0.6-0.2,1.2-0.3,1.8C-5,563.4-4.4,563.5-4.3,563.1z"/>
				</g>
				<g>
					<path class="st5" d="M496.7,467.7c3,6.5,5.5,13.2,7.4,20.1c1.9,6.9,3.3,13.9,4.2,21c0.9,7.1,1.2,14.3,0.9,21.4
						c0,0.3-1.2,1.2-1.4,0.9c-1.1-1.6-2.3-3.2-3.5-4.8c-4.7-6.4-9.6-12.8-14.5-19c-4.9-6.2-10-12.5-15.3-18.7
						c-5.1-6-10.6-11.9-15.2-18.3c-1.1-1.6-2.2-3.3-3.2-5c-1-1.6-1.8-3.3-2.4-5c-1-2.9-1-6.1-0.1-9c0.8-2.8,2.5-5.4,4.8-7.2
						c2.5-2,5.5-3.2,8.6-3.4c6.9-0.6,13,3.8,17.6,8.5C489.8,454.5,493.6,461,496.7,467.7z"/>
					<path class="st4" d="M480.9,459c0-0.2-0.1-0.3-0.3-0.3s-0.3,0.1-0.3,0.3c0.1,4.6,0.3,9.1,0.5,13.6c-1-1.6-2-3.2-3-4.8
						c-2.7-4.2-5.6-8.4-8.5-12.5c-0.2-0.3-0.8,0-0.5,0.3c4,5.7,7.8,11.5,11.5,17.4c-4.2-2-8.6-3.8-13-5.4c-0.4-0.1-0.5,0.5-0.1,0.6
						c4.7,1.7,9.3,3.6,13.8,5.8c0.8,1.3,1.6,2.6,2.4,4c1.8,3,3.6,6.1,5.3,9.3c-4.6-2.2-9-4.6-13.5-7c-0.2-0.1-0.4,0-0.4,0.1
						s0,0.4,0.1,0.4c4.7,2.6,9.4,5.1,14.3,7.5c2.4,4.4,4.7,8.8,6.9,13.3c0.3,0.6,0.6,1.2,0.9,1.8l-10.7-7.4
						c-0.3-0.2-0.6,0.3-0.3,0.6l11.5,8.1c1.7,3.5,3.3,7.1,4.9,10.7c0.2,0.4,0.8,0.2,0.6-0.2c-1.5-3.5-3.1-7-4.8-10.5
						c0,0,0-0.1,0-0.1c0.5-5.2,0.7-10.5,0.6-15.8c0-0.2-0.2-0.3-0.4-0.3c-0.1,0-0.2,0.1-0.3,0.3c0.1,4.9-0.1,9.9-0.5,14.8
						c-2-4.2-4.1-8.4-6.4-12.5c-0.5-0.9-1-1.8-1.4-2.6c0,0,0-0.1,0-0.1l-1.5-15.7c0-0.4-0.7-0.4-0.6,0l1.4,14.4
						c-2.5-4.4-5-8.8-7.7-13.2C481.2,468.9,481,463.9,480.9,459z"/>
				</g>
				<g>
					<path class="st3" d="M511.2,532.1L511.2,532.1c0.1,0.2,0.1,0.5-0.1,0.6c-0.1,0.1-0.3,0.1-0.4,0c-1.6-0.8-3.2-1.5-4.9-2.1
						c-3.4-1.1-7-1.8-10.5-2.2c-3.9-0.5-7.9-0.8-11.8-1.1c-8.3-0.6-16.6-1.1-24.9-1.5c-4.1-0.2-8.3-0.3-12.4-0.5
						c-3.9-0.1-7.8-0.2-11.7-0.5c-3.6-0.2-7.1-1-10.5-2.3c-3.2-1.3-5.9-3.5-7.9-6.2c-1.8-2.7-2.6-5.9-2.1-9.1c0.5-3.1,1.9-5.9,4-8.3
						c5-5.6,12.9-7.3,20.1-7.7c6.7-0.4,13.5,0.4,20,2.1c6.5,1.8,12.8,4.4,18.7,7.7c6.6,3.8,12.8,8.4,18.5,13.6
						C501,520.3,506.3,526,511.2,532.1z"/>
					<path class="st4" d="M497.1,522.8c-3.3-2.1-6.8-4.1-10.3-5.9c0-0.1,0-0.2-0.1-0.2l-13.6-13.6c-0.3-0.3-0.7,0.2-0.4,0.5
						l12.5,12.5l-1-0.5c-4.4-2.2-8.9-4.1-13.5-5.8c-2.1-0.7-4.2-1.4-6.3-2c0-0.1,0-0.1-0.1-0.2c-4.4-3.3-8.8-6.6-13.1-10
						c-0.3-0.3-0.8,0.2-0.4,0.5c4,3.1,8.1,6.2,12.2,9.3c-2-0.6-4.1-1.1-6.2-1.5c-4.6-1-9.3-1.7-14-2c-4.7-0.3-9.5-0.3-14.2,0.2
						l-1.8,0.2c-0.4,0-0.4,0.7,0,0.6c4.7-0.5,9.4-0.7,14.1-0.5c4.7,0.2,9.4,0.8,14.1,1.7c2.6,0.5,5.1,1.1,7.7,1.8
						c-4.9,1.3-9.7,2.7-14.5,4.1l-4.5,1.4c-0.4,0.1-0.2,0.8,0.2,0.6c5.3-1.7,10.6-3.3,15.9-4.7c1.4-0.4,2.7-0.7,4.1-1.1
						c1.6,0.5,3.3,1,4.9,1.5c4.7,1.6,9.2,3.4,13.7,5.6c0.9,0.4,1.8,0.9,2.7,1.3l-13.7,1.3c-0.4,0-0.4,0.7,0,0.7l14.7-1.4
						c3.1,1.6,6.1,3.3,9.1,5.1l1.6,1C497.1,523.6,497.4,523.1,497.1,522.8z"/>
				</g>
			</g>
			<path class="st2" d="M543.1,735.5l-98.3,57.8l-23.1-49.9c-1.2,0.1-2.5,0-3.7-0.3l-11.6-37L386.6,760l-31.9-3.6l23.8-74.6
				c5.1-16.4,17.1-29.8,32.9-36.7c-0.3-0.2-0.6-0.4-0.8-0.6c-16.5,6.8-33.2,6.2-45.3-5.4l-0.2,0.1c-2.4,1.2-5,1.7-7.6,1.7
				c-3.4,0-6.8-1.2-9.5-3.3c-3.6-3-5.9-7.3-6.1-12c-0.2-2.5,0.3-4.9,1.4-7.1c0.3-0.5,0.6-1.1,1-1.6c-0.9-0.2-1.7-0.3-2.5-0.6
				c-3.8-0.9-7.1-3.2-9.4-6.5c-2.3-4.1-2.6-9-0.6-13.3c1.9-4.2,5.1-7.7,9.1-10.1c-4.9-2.1-8.3-6.7-8.9-12
				c-0.3-5.8,2.3-11.3,7.1-14.5c4.7-3.2,10.5-4.3,16.1-3.2c-2.4-5-4.8-10.8-2.5-15.8c2.2-4.8,7.9-7,13.2-7.2
				c6.1-0.1,12,1.8,16.9,5.4c1.5-3.8,3.2-7.9,6.7-10c4.1-2.4,9.3-1.3,13.5,0.9c5.3,2.7,9.7,7,12.3,12.4c1.3-2.5,2.9-5.3,5.6-6
				c2-0.4,4.1,0.3,5.6,1.7c1.4,1.4,2.6,3.1,3.4,5c2.9,6.1,4.9,12.6,5.7,19.2c1.2-0.4,2.4-0.6,3.6-0.5c3.6,0.2,7,1.8,9.5,4.3
				c2.5,2.4,4.2,5.6,4.8,9.1c0.5,3.4-0.1,6.9-1.7,9.9c-1.2,2.3-3,4.3-5.1,5.8c0.5,1.7,0.8,3.5,1,5.3l23.5-39.9
				c3.2-5.4,9.2-8.5,15.4-8c0.5-3.9,2.7-20,5.5-23c4.5-4.8,3.3,7.8,3.2,8.7c0.2-1.1,3.7-19,6.4-18.9c2.4,0.1,0.5,11.5,0.1,14.2l0,0
				c0.5-2.5,2.9-12.7,5.9-12.7c3.2,0,0.2,13.7-0.3,15.6l0,0c0.7-1.6,4.5-10.5,7.1-11c2.9-0.5-1.2,10.4-3.2,13.9l0,0
				c0.5-0.5,4.9-5.1,6.5-4.4s-4.5,10.1-7.3,14.1c-1.4,5-4.3,9.5-8.4,12.8c2.5,4.6,2.6,10.1,0.3,14.8l-30.7,64.2l40.7,50.7
				c-0.3,1.2-0.8,2.3-1.5,3.3L543.1,735.5z"/>
			<g>
				<g>
					<path class="st7" d="M498.4,554.9c8.2-5,10.2-14,10.2-14c2.8-4,9-13.4,7.3-14.1s-6.6,4.5-6.6,4.5c2-3.4,6.2-14.5,3.3-14
						s-7.2,11.3-7.2,11.3s3.7-15.9,0.3-15.9s-6,13.2-6,13.2s2.7-14.7,0-14.8s-6.4,19-6.4,19s1.4-13.8-3.2-8.8
						c-3.2,3.4-5.6,23.8-5.6,23.8L498.4,554.9z"/>
					<path class="st8" d="M421.8,640.8c-3.8,2.5-8.8,2.5-12.6,0c-1.1-0.7-2-1.5-2.9-2.4l18.5-10.9l2.5-1.5
						C427.3,626.1,430.8,635.6,421.8,640.8z"/>
					<path class="st6" d="M469.8,632.6l40.7,50.7c-0.3,1.2-0.8,2.3-1.5,3.3c-3.1,5-12.6,15.7-41,32.4h-0.1
						c-28.4,16.7-42.4,19.8-48.3,20c-1.2,0.1-2.5,0.1-3.6-0.3l-11.6-37l-19.8,53.8l-31.9-3.6l23.8-74.6
						c5.1-16.4,17.1-29.8,32.9-36.7c3.8,2.5,8.8,2.5,12.6,0c9-5.3,5.5-14.8,5.5-14.8l-2.5,1.5l44.2-75.3c4-6.6,12-9.5,19.3-7.1
						l2.4,0.8c8.6,2.8,13.3,12.1,10.5,20.7c-0.2,0.7-0.5,1.3-0.8,2L469.8,632.6z"/>
					<path class="st3" d="M540.9,731.2L442.6,789l-23.1-49.9c5.9-0.3,19.9-3.4,48.3-20h0.1c28.4-16.7,37.9-27.4,41-32.4L540.9,731.2
						z"/>
					<path class="st4" d="M402.2,698.4l-5.9-17.7c-0.6-1.7-1.1-3.3-1.7-5c-0.1-0.1-0.2-0.2-0.4-0.2c-0.1,0.1-0.2,0.2-0.2,0.3
						c2,5.9,4,11.8,5.9,17.7c0.6,1.7,1.1,3.3,1.7,5C401.8,699,402.3,698.8,402.2,698.4z"/>
					<path class="st4" d="M399.8,697.8l-8.5-11.8c-0.2-0.3-0.7,0-0.5,0.3c2.8,3.9,5.7,7.9,8.5,11.8
						C399.5,698.4,400,698.1,399.8,697.8z"/>
					<path class="st4" d="M467.9,632.1l-11.4-10l-3.2-2.8c-0.1-0.1-0.3-0.1-0.4,0c-0.1,0.1-0.1,0.3,0,0.4l11.3,10l3.2,2.8
						c0.1,0.1,0.3,0.1,0.4,0C468,632.4,468,632.2,467.9,632.1z"/>
					<path class="st4" d="M486.8,545.6c-1.8,0.6-3.4,1.6-4.8,2.8c-0.3,0.2,0,0.7,0.3,0.5c1.4-1.2,2.9-2.2,4.7-2.8
						c0.1-0.1,0.2-0.2,0.1-0.4C487,545.6,486.9,545.6,486.8,545.6z"/>
					<path class="st4" d="M495.9,549.6c-0.1-0.3-0.6-0.3-0.5,0c0.3,1.8,0.4,3.6,0.3,5.4c0,0.3,0.5,0.3,0.5,0
						C496.2,553.2,496.1,551.4,495.9,549.6z"/>
					<path class="st4" d="M499.5,525.5c-0.3,1.6-0.6,3.1-0.9,4.7c0,0.2,0.1,0.3,0.3,0.3c0.1,0,0.2-0.1,0.3-0.2l0.9-4.7
						c0-0.2-0.1-0.3-0.3-0.3C499.6,525.3,499.5,525.4,499.5,525.5z"/>
					<path class="st4" d="M505.8,532.7c-2.4-1.4-4.9-2.4-7.6-2.9c-0.1,0-0.3,0.1-0.3,0.2c0,0.1,0.1,0.3,0.2,0.3
						c2.6,0.5,5.2,1.5,7.5,2.9C505.9,533.3,506.1,532.9,505.8,532.7z"/>
				</g>
				<g>
					<path class="st7" d="M449.9,581c-1.2,2.3-3,4.3-5.2,5.8c5.1,19.5-6.9,37-26.4,48.5s-40.6,13.5-55.2-0.5
						c-2.4,1.2-5.1,1.8-7.8,1.8c-3.4,0-6.8-1.2-9.5-3.3c-2.7-2.2-4.7-5.2-5.6-8.7c-1-3.5-0.7-7.2,0.9-10.5c0.3-0.6,0.6-1.1,1-1.6
						c0.7-1,1.7-1.8,2.7-2.4c1.4-0.8,3.1-1.1,4.7-0.8h0.1c0,0,0-0.1,0-0.1c3.4-2.9,5.3-7.2,6.6-11.4c2-6,3.2-12.2,3.8-18.4
						c0.6,2,1.5,3.8,2.7,5.6c0.8,1.3,1.9,2.5,3.4,2.6s3-1.3,3.9-2.6c3.2-4.3,5.3-9.3,6.1-14.5c0,3,0.5,6,1.5,8.9
						c0.6,1.8,1.7,3.7,3.5,4.1c1.7,0.3,3.3-0.9,4.5-2c7-6.8,10.4-16.4,13.5-25.6c9.2,4.2,19.3,6.5,29.4,6.5l0.3,0.3l0.1-0.3
						c0.6-1.4,1.6-2.6,2.9-3.5c0.5-0.3,1.1-0.6,1.6-0.8c1.2-0.4,2.4-0.6,3.6-0.5c3.6,0.2,7,1.8,9.6,4.3c2.5,2.4,4.2,5.6,4.8,9.1
						C452.1,574.5,451.5,578,449.9,581z"/>
					<circle class="st8" cx="369.7" cy="619.7" r="9.3"/>
					<circle class="st9" cx="373.3" cy="601.6" r="13.2"/>
					<circle class="st4" cx="370.9" cy="600.9" r="11.4"/>
					<circle class="st8" cx="425.7" cy="580.1" r="9.3"/>
					<circle class="st9" cx="407.4" cy="577.4" r="13.2"/>
					<circle class="st4" cx="405.3" cy="576.7" r="11.4"/>
					<path class="st4" d="M393.4,577.2c-0.2-3.9,1.5-7.7,4.5-10.2c3.3-2.6,7.5-3.7,11.6-3.1c2.2,0.3,4.4,1,6.4,2.1
						c0.9,0.5,0.3,2-0.7,1.5c-4.1-2.3-9-2.7-13.4-1c-4.3,1.7-7,5.9-6.9,10.5C395,578.1,393.4,578.3,393.4,577.2z"/>
					<path class="st4" d="M406.3,597.9c-0.2-0.4-0.7-0.6-1.1-0.4c-0.4,0.2-0.6,0.6-0.5,1c0.9,4.2,0.2,8.5-1.9,12.3
						c-0.5,0.9,1,1.7,1.5,0.7C406.7,607.3,407.4,602.5,406.3,597.9z"/>
					<path class="st4" d="M358.4,601.3c-0.2-3.9,1.5-7.7,4.6-10.1c3.3-2.6,7.5-3.7,11.6-3.1c2.2,0.3,4.4,1,6.4,2.1
						c0.9,0.5,0.3,2-0.7,1.5c-4.1-2.3-9-2.7-13.4-1c-4.3,1.7-7,5.9-6.9,10.5C360.1,602.3,358.5,602.4,358.4,601.3z"/>
					<path class="st8" d="M397,607c-1.4,1.2-3.3,1.9-5.2,1.9c-0.9,0.1-1.8-0.1-2.6-0.6c-0.8-0.6-1.3-1.5-1.3-2.5
						c-0.2-1.6-0.4-3.2-0.5-4.8c-0.3-0.8-0.5-1.6-0.6-2.4c-0.4-2.1,0.7-4.2,2.6-5.3c3.5-1.8,7.8,0.5,9.5,3.6
						C400.7,600.3,399.9,604.5,397,607z"/>
					<path class="st4" d="M362.9,634.3c-3.2-3.5-5.9-7.5-7.8-11.8c-0.5-1.2-1-2.5-1.5-3.7c-0.1-0.1-0.2-0.2-0.4-0.1
						c-0.1,0.1-0.2,0.2-0.1,0.3c1.5,4.6,3.8,8.8,6.8,12.6c0.8,1.1,1.7,2.1,2.6,3.1C362.8,635,363.1,634.5,362.9,634.3z"/>
					<path class="st4" d="M444.5,585.4c-2-5.1-4.8-9.8-8.3-14.1c-1-1.2-2-2.4-3.1-3.5c-0.3-0.3-0.6,0.2-0.4,0.4
						c3.7,3.9,6.9,8.3,9.3,13.2c0.7,1.3,1.3,2.7,1.9,4.2C444.1,585.9,444.6,585.7,444.5,585.4z"/>
					<path class="st4" d="M444.6,577.1c-2.2-3.7-3.4-7.9-3.4-12.2c0-0.3-0.6-0.3-0.5,0c0.1,4.4,1.3,8.7,3.5,12.5
						C444.3,577.7,444.8,577.4,444.6,577.1z"/>
					<path class="st4" d="M355.3,630.4c-3.2-3.8-6.9-7-11.1-9.6c-0.3-0.2-0.5,0.3-0.2,0.5c4.1,2.5,7.8,5.7,10.9,9.4
						C355.1,631,355.6,630.7,355.3,630.4z"/>
					<path class="st10" d="M433.6,558.2c-0.6,0.2-1.1,0.5-1.6,0.8c-1.3,0.8-2.3,2-2.9,3.5h-0.4c-10.2-0.1-20.2-2.3-29.4-6.5
						c-3.1,9.3-6.5,18.8-13.5,25.6c-1.2,1.2-2.8,2.3-4.5,2c-1.9-0.3-2.9-2.3-3.5-4.1c-1-2.9-1.5-5.9-1.5-8.9
						c-0.8,5.3-2.9,10.2-6.1,14.5c-1,1.3-2.3,2.7-3.9,2.6s-2.6-1.4-3.4-2.6c-1.1-1.7-2-3.6-2.7-5.6c-0.6,6.3-1.9,12.5-3.8,18.5
						c-1.4,4.2-3.3,8.5-6.6,11.4c0,0-0.1,0.1-0.1,0.1c-1.6-0.3-3.3,0-4.7,0.8c-1.1,0.6-2,1.4-2.7,2.4c-0.9-0.2-1.7-0.3-2.5-0.6
						c-3.8-0.9-7.1-3.2-9.3-6.5c-2.3-4.1-2.6-9-0.6-13.3c1.9-4.2,5.1-7.7,9.1-10.1c-4.9-2.1-8.3-6.7-8.9-12
						c-0.3-5.7,2.4-11.2,7.1-14.5c4.7-3.1,10.5-4.3,16.1-3.2c-2.4-5-4.8-10.8-2.5-15.8c2.2-4.8,7.9-7,13.2-7.2
						c6.1-0.1,12,1.8,16.9,5.4c1.5-3.8,3.2-7.9,6.7-9.9c4.1-2.4,9.3-1.3,13.5,0.9c5.3,2.7,9.7,7,12.3,12.4c1.3-2.5,2.9-5.3,5.6-6
						c2-0.4,4.1,0.3,5.6,1.7c1.5,1.4,2.6,3.1,3.4,5C430.7,545,432.7,551.5,433.6,558.2z"/>
				</g>
			</g>
			<path class="st2" d="M143.6,595c0.3,2.1-1.3,4-2.9,5.3c-2.8,2.6-6.2,4.5-9.8,5.8c1.7-0.3,3.4,0,4.9,0.9c1.6,1,2.9,2.4,3.6,4.2
				c1.5,3.4,1.6,7.2,0.5,10.7c-1,3.4-3.1,6.4-6,8.6c-2.8,2-6.3,3.1-9.8,3c-2.6,0-5.1-0.7-7.4-1.9l-0.4-0.2
				c-12.5,11-28.8,11.3-45,4.3c-0.5,0.4-1,0.7-1.5,1c0.8,0.4,1.6,0.8,2.3,1.2c14.6,7.9,25.3,21.4,29.7,37.4l19.9,84.3L89,762
				l-16.6-63l-10.6,29.5c-1.7,4.7-6.5,7.6-11.5,6.8l-21.9,39.2l-87.8-58.7l30.6-34.4c-0.9-3.7,0.2-7.6,3-10.2l22.8-21.5l-47,4.7
				L-61,623.6l67.8-10.3c15.1-2.3,30.6,1.2,43.2,9.9l1.2,0.8c0-0.3,0.1-0.6,0.1-0.8c-13.9-11.9-21.2-27.4-16.2-43.9
				c-2.1-1.6-3.8-3.7-5-6.1c-1.5-3.1-2-6.7-1.3-10.1c0.8-3.5,2.6-6.6,5.3-9c2.7-2.5,6.2-3.9,9.9-4c1.9,0,3.7,0.5,5.3,1.6
				c1.4,0.9,2.4,2.3,2.9,3.9l0.1-0.1l-0.1-0.3c2.3-7.4,6.1-14.2,11.1-20.1c1.6-1.9,3.9-3.9,6.3-3.3c2.7,0.7,3.6,4,4.1,6.8
				c1.6-3.1,4-5.8,6.9-7.9c2.2-1.6,5.1-2.7,7.5-1.5c2.6,1.4,3.2,4.8,3.4,7.8c2.3-3.2,6.6-5.2,10.3-4s6.2,6.1,4.1,9.4
				c3.5-1.8,7.9-3.5,11-1.1s2.5,7.1,1.6,10.9c2-0.2,3.9-0.8,5.9-0.8c2-0.2,4,0.5,5.4,2c2.1,2.6,0.6,6.5-1,9.5
				c3.4-0.4,7.6-0.4,9.5,2.4c1,1.8,1.2,3.9,0.3,5.8c-0.8,1.8-2,3.5-3.3,5c1.8-0.3,3.7-0.2,5.4,0.3c1.8,0.5,3.2,1.9,3.6,3.8
				c0,1.3-0.3,2.6-1.1,3.6c-1.6,2.8-3.9,5.1-6.7,6.7C139.5,590.8,143.2,591.9,143.6,595z"/>
			<g>
				<path class="st4" d="M216.5,572.3c0,3.6-1.2,7.1-3.4,10c-1,1.3-2.5,2.2-4.1,2.5c-1.9,0.1-3.7-0.4-5.3-1.4
					c-1.6-1.1-3.2-2.1-4.9-3c-1.8-0.7-3.7-1.1-5.6-0.9c-4,0.2-7.6,2-11.2,3.6c-3.2,1.5-6.7,3.1-10.4,2.9c-1.6-0.1-3.2-0.7-4.5-1.8
					c-1.2-1.1-2-2.5-2.4-4c-0.9-3.5,0.3-7,2.1-9.9c-0.8-0.2-1.6-0.5-2.4-0.9c-7.5-3.6-10.7-12.6-7.1-20.1c0.2-0.4,0.4-0.8,0.7-1.2
					c1.1-1.8,3.3-3.6,2.6-5.9c-0.2-0.6-0.4-1.2-0.7-1.7c-0.2-0.6-0.4-1.1-0.6-1.7c-0.4-1.2-0.7-2.3-1-3.5c-1-4.4-1-9.5,1.2-13.5
					c1.9-3.4,5.5-6.3,9.6-5.3c2.1,0.6,4,1.8,5.4,3.5c1.5,1.6,2.7,3.4,3.8,5.3c2.2,3.8,4,7.9,7.1,11.2c3.2,3.4,7.1,5.8,11.5,7.2
					c2.3,0.7,4.5,1.5,6.7,2.4c1.4,0.6,2.7,1.4,3.9,2.4c0.8,0.7,1.6,1.4,2.2,2.3c0,0,0.1,0.1,0.1,0.1c1.3,1.6,2.3,3.5,2.9,5.5
					c0.6,1.5,1.2,3,1.7,4.5C215.9,564.5,216.6,568.4,216.5,572.3z"/>
				<path class="st4" d="M265.8,567c0,3.6,1.2,7.1,3.4,10c1,1.3,2.5,2.2,4.1,2.5c1.9,0.1,3.7-0.4,5.3-1.4c1.6-1.1,3.2-2.1,4.9-3
					c1.8-0.7,3.7-1.1,5.6-0.9c4,0.3,7.6,2,11.2,3.6c3.2,1.5,6.7,3.1,10.4,2.9c1.6-0.1,3.2-0.7,4.5-1.8c1.2-1.1,2-2.5,2.4-4
					c0.9-3.4-0.3-7-2.1-9.9c0.8-0.2,1.6-0.5,2.4-0.9c7.5-3.6,10.7-12.6,7.1-20.1c-0.2-0.4-0.4-0.8-0.7-1.2c-1.1-1.8-3.3-3.6-2.6-5.9
					c0.2-0.6,0.4-1.2,0.7-1.7c0.2-0.6,0.4-1.1,0.6-1.7c0.4-1.2,0.7-2.3,1-3.5c1-4.4,1-9.5-1.2-13.5c-1.9-3.4-5.5-6.3-9.6-5.4
					c-2.1,0.6-4,1.8-5.4,3.5c-1.5,1.6-2.7,3.4-3.8,5.3c-2.2,3.8-4,7.9-7.1,11.2c-3.2,3.3-7.1,5.8-11.5,7.2c-2.3,0.7-4.5,1.5-6.8,2.4
					c-1.4,0.6-2.7,1.4-3.9,2.4c-0.8,0.7-1.6,1.4-2.2,2.3l-0.1,0.1c-1.3,1.6-2.3,3.5-2.9,5.5c-0.6,1.5-1.2,3-1.7,4.5
					C266.4,559.2,265.8,563.1,265.8,567z"/>
				<path class="st11" d="M251.7,646.3c0,0-1.9,10.1-12.5,10.1s-12.3-10.1-12.3-10.1H251.7z"/>
				<g>
					<path class="st12" d="M192.2,610.7L172.5,633c0,0-22.4-45.1-27.9-68.1c0,0-11.7-15.8-10.2-19s4.5-1.2,4.7-1.1
						c-0.2-0.2-2.3-1.8-1.4-3.7s3.3-1.2,3.3-1.2s-1.3-1.7-0.6-3.2c0.4-0.9,1.3-1.4,2.2-1.5c0,0,0-1.5,0.8-2c0.8-0.3,1.7-0.3,2.6-0.1
						c0,0,2.1-3.5,7.7,4.7s5.3,19.9,5.3,19.9L192.2,610.7z"/>
					<path class="st4" d="M149.1,542.4c-0.4-0.8-0.9-1.5-1.3-2.3c-0.9-1.9-1.4-3.9-1.5-6c0-0.2-0.1-0.3-0.3-0.3
						c-0.2,0-0.3,0.1-0.3,0.3c0,1.8,0.4,3.6,1.1,5.3c0.3,0.8,0.7,1.6,1.2,2.3c0.5,0.8,1.1,1.7,0.4,2.5c-0.2,0.3-0.5,0.6-0.8,0.8
						c-0.3,0.3-0.6,0.6-0.9,0.9c-0.5,0.5-0.9,1.1-1.3,1.8c-0.6,1-1,2.1-1.2,3.2c-0.1-0.6-0.4-1.2-0.8-1.7c-0.4-0.6-0.8-1.1-1.2-1.6
						c-1-1.2-2.2-2.3-3.4-3.2c-0.3-0.2-0.6,0.3-0.3,0.5c2,1.4,3.6,3.1,4.9,5.2c0.4,0.5,0.4,1.1,0.2,1.7c-0.3,0.4-0.7,0.6-1.1,0.7
						c-1,0.2-2.1,0.1-3.1-0.3c-1.1-0.4-2.1-1.2-2.8-2.3c-0.2-0.3-0.7,0-0.5,0.3c1.4,2.1,3.8,3.2,6.2,2.9c0.7-0.1,1.4-0.5,1.8-1.1
						c-0.2,1.7,0,3.4,0.6,5c0.1,0.3,0.7,0.2,0.6-0.2c-1.1-2.9-0.8-6.2,0.8-8.9c0.4-0.7,0.8-1.3,1.3-1.8c0.5-0.6,1.2-1,1.6-1.6
						C149.4,543.9,149.5,543.1,149.1,542.4z"/>
					<path class="st4" d="M141.5,540.1c-0.3-0.2-0.6,0.3-0.3,0.5c2.3,1.4,3.8,3.8,4.2,6.4c0.1,0.4,0.6,0.2,0.5-0.2
						C145.5,544.1,143.9,541.6,141.5,540.1z"/>
				</g>
				<g>
					<path class="st12" d="M334,564.9c-5.5,23-27.9,68.1-27.9,68.1l-19.7-22.4l33.1-53c0,0-0.3-11.7,5.3-19.9s7.7-4.7,7.7-4.7
						c0.9-0.2,1.8-0.1,2.6,0.1c0.8,0.5,0.8,2,0.8,2c1,0,1.8,0.6,2.2,1.5c0.7,1.5-0.6,3.2-0.6,3.2s2.3-0.8,3.3,1.2s-1.1,3.5-1.4,3.7
						c0.2-0.2,3.3-2,4.7,1.1S334,564.9,334,564.9z"/>
					<path class="st4" d="M329.1,542.7c0.4-0.8,0.9-1.5,1.3-2.3c0.9-1.9,1.4-3.9,1.5-6c0-0.2,0.1-0.3,0.3-0.3c0.2,0,0.3,0.1,0.3,0.3
						c0,1.8-0.4,3.7-1.1,5.3c-0.3,0.8-0.7,1.6-1.2,2.3c-0.5,0.8-1.1,1.7-0.5,2.5c0.2,0.3,0.5,0.6,0.8,0.8c0.3,0.3,0.6,0.6,0.9,0.9
						c0.5,0.6,0.9,1.2,1.3,1.8c0.6,1,1,2.1,1.2,3.2c0.1-0.6,0.4-1.2,0.8-1.7c0.4-0.6,0.8-1.1,1.2-1.6c1-1.2,2.2-2.3,3.4-3.2
						c0.3-0.2,0.6,0.3,0.3,0.5c-2,1.4-3.6,3.1-4.9,5.2c-0.4,0.5-0.4,1.1-0.2,1.7c0.3,0.4,0.7,0.6,1.1,0.7c1,0.2,2.1,0.1,3-0.3
						c1.1-0.4,2.1-1.2,2.8-2.3c0.2-0.3,0.7,0,0.5,0.3c-1.4,2.1-3.8,3.2-6.2,2.9c-0.7-0.1-1.4-0.5-1.8-1.1c0.2,1.7,0,3.4-0.5,5
						c-0.1,0.3-0.7,0.2-0.5-0.2c1-2.9,0.8-6.1-0.8-8.8c-0.4-0.7-0.8-1.3-1.3-1.8c-0.6-0.5-1.1-1-1.6-1.6
						C328.7,544.3,328.7,543.4,329.1,542.7z"/>
					<path class="st4" d="M336.7,540.5c0.1-0.1,0.3,0,0.4,0.1c0.1,0.1,0,0.3-0.1,0.3c-2.3,1.4-3.8,3.8-4.2,6.4
						c0,0.3-0.6,0.2-0.5-0.2C332.6,544.4,334.3,541.9,336.7,540.5z"/>
				</g>
				<g>
					<path class="st4" d="M297.3,760.1H181.3l5.3-18.7c5.4,2.8,19.2,7.3,52.7,7.3h0.1c33.5,0,47.4-4.5,52.7-7.3L297.3,760.1z"/>
					<path class="st9" d="M285.5,673.9l9.6,65.5c-0.9,0.9-1.9,1.6-3.1,2.1c-5.3,2.8-19.2,7.3-52.7,7.3h-0.1
						c-33.5,0-47.4-4.5-52.7-7.3c-1.1-0.5-2.2-1.2-3.1-2.1l9.6-65.5L169.8,636l2.6-3l19.7-22.4l0.9-1l40.4,36.6h-6.6
						c0,0,1.7,10.1,12.3,10.1s12.5-10.1,12.5-10.1h-6.6l40.4-36.6l0.9,1l19.7,22.4l2.6,3L285.5,673.9z"/>
					<path class="st4" d="M195,651.7l-0.9,15.4c0,0.4,0.5,0.4,0.6,0l0.9-15.4C195.6,651.3,195.1,651.3,195,651.7z"/>
					<path class="st4" d="M191.8,663.3c-0.9-3.7-1.9-7.3-2.8-11c-0.1-0.3-0.6-0.2-0.5,0.2c0.9,3.7,1.9,7.3,2.8,11
						c0,0.1,0.2,0.2,0.3,0.2C191.8,663.6,191.9,663.5,191.8,663.3z"/>
					<path class="st4" d="M282.6,648l-0.2,15.8l0,4.5c0,0.2,0.1,0.3,0.3,0.3c0.2,0,0.3-0.1,0.3-0.3l0.2-15.8l0.1-4.5
						c0-0.2-0.1-0.3-0.3-0.3C282.7,647.7,282.6,647.8,282.6,648z"/>
					<path class="st4" d="M289.5,650.4c-0.9,3.6-1.9,7.2-2.8,10.8c0,0.2,0.1,0.3,0.3,0.3c0.1,0,0.2-0.1,0.3-0.2
						c0.9-3.6,1.9-7.2,2.8-10.8c0-0.1,0-0.3-0.2-0.3C289.7,650.2,289.6,650.3,289.5,650.4z"/>
					<path class="st6" d="M254.8,715.7c-1,6.7-6.5,12.4-13.3,13c-3.5,0.3-6.9-0.6-9.7-2.7c-2.7-2-4.3-5-6-7.8s-3.6-5.7-6.7-7.3
						s-6.8-2.2-10-3.7c-3-1.3-5.4-3.7-6.6-6.8c-1.2-3-1.5-6.2-1-9.3c0.7-3.8,2.2-7.4,4.4-10.5c0.5-1.2,1.1-2.3,1.7-3.4
						c0.9-1.7,2-3.4,3.1-5c1-1.5,2.2-2.9,3.5-4.2c1.3-1.2,2.8-2.1,4.4-2.6c1.6-0.4,3.2-0.3,4.7,0.3c3,1.3,5,4.3,6.1,7.2
						c1.4,3.6,1.6,7.6,2.9,11.3c0.6,1.6,1.5,3.2,2.6,4.5c1,1.2,2.2,2.3,3.4,3.3c2.5,2,5.3,3.7,7.9,5.7c2.8,1.9,5.1,4.5,6.7,7.5
						C254.7,708.4,255.3,712.1,254.8,715.7z"/>
					<path class="st5" d="M274.2,687c-0.7,5.7-3.6,11-7.5,15.2s-9.1,8.2-15,7.9c-5.8-0.3-10.4-4.9-13-9.7c-2.3-4.4-3.1-9.5-2.2-14.5
						c0.3-5.2,2.4-10.1,5.9-13.8c3.5-3.7,8.4-5.9,13.5-6c5.1-0.1,9.9,1.9,13.5,5.5C273.3,675.5,274.8,681.4,274.2,687z"/>
				</g>
				<g>
					<path class="st12" d="M301.6,608c-1.3,3.3-3.6,6-6.6,7.8c-2.3,1.4-4.9,2.3-7.5,2.5c-5.6,19.8-25.1,28.9-48.2,28.9
						s-42.6-9.1-48.2-28.9c-2.7-0.2-5.4-1-7.7-2.5c-3-1.8-5.3-4.5-6.6-7.8c-1.3-3.4-1.4-7-0.5-10.5c0.9-3.6,3.1-6.7,6.1-8.7
						c1.6-1,3.4-1.6,5.3-1.5c0.8,0,1.6,0.2,2.4,0.5c0.8,0.3,1.6,0.8,2.3,1.4c8.3-8.8,17-17.6,28.1-22.5c11.6-5,24.7-5.3,36.6-1
						c11.9,4.5,22.1,12.7,29,23.4c0.6-0.5,1.2-0.9,1.9-1.2c0.8-0.3,1.7-0.5,2.6-0.6c1.9,0,3.7,0.5,5.3,1.5c3,2.1,5.2,5.2,6.1,8.7
						C303,601,302.9,604.6,301.6,608z"/>
					<circle class="st11" cx="274.2" cy="605.4" r="9.4"/>
					<circle class="st11" cx="204.4" cy="608.6" r="9.4"/>
					<g>
						<path class="st4" d="M224,612.2c0.1,1.8,0.7,3.5,1.8,5c2.5,3.5,6.8,5.4,11.1,5c0.3,0,0.6-0.1,0.9-0.1c2.1-0.3,4.1-1.3,5.6-2.9
							c1.3-1.5,1.7-3.6,1.1-5.5c-0.6-1.9-2.1-3.4-4.1-3.8l-0.4-0.1c-2.1-0.2-4-1-5.6-2.4c-0.1-0.1-0.3-0.2-0.4-0.3
							c-1.9-1.5-4.4-1.9-6.6-1c-1.8,0.9-3.1,2.7-3.4,4.7C224,611.3,224,611.7,224,612.2z"/>
						<path class="st13" d="M224,612.2c0.1,1.8,0.7,3.5,1.8,5c2.5,3.5,6.8,5.4,11.1,5c0.2-0.9,0.3-1.8,0.1-2.7c-0.5-3-3-5.4-5.7-6.5
							C229.1,611.9,226.5,611.7,224,612.2z"/>
					</g>
					<path class="st11" d="M239.7,605.7c0.8,1.6,2.2,2.8,3.9,3.3c3.7,1,8.2-1.7,8.6-5.7c0-0.5,0-1-0.1-1.4c0-1.3-0.7-2.4-1.7-3.1
						c-0.9-0.5-1.8-0.7-2.8-0.7c-1-0.1-2-0.1-3,0c-1.9,0-3.6,1-4.6,2.6C239.1,602.2,239,604.1,239.7,605.7z"/>
					<path class="st4" d="M228.3,594.2c-4.6,3.7-11.2,3.7-15.8,0c-0.8-0.7-2,0.5-1.2,1.2c5.3,4.4,12.9,4.4,18.2,0
						C230.3,594.8,229.1,593.6,228.3,594.2z"/>
					<path class="st4" d="M265,593.1c-4.6,3.7-11.2,3.7-15.8,0c-0.8-0.7-2,0.5-1.2,1.2c5.3,4.4,12.9,4.4,18.2,0
						C267.1,593.6,265.9,592.4,265,593.1z"/>
					<path class="st4" d="M220.9,581.1c-2.7,0.7-5.3,1.8-7.6,3.2c-2.8,1.7-0.3,6,2.6,4.4c2-1.2,4.2-2.1,6.4-2.7
						C225.4,585.2,224.1,580.3,220.9,581.1z"/>
					<path class="st4" d="M263,583.3c-2.2-1.2-4.7-2-7.1-2.4c-1.3-0.3-2.7,0.5-3.1,1.8c-0.4,1.3,0.4,2.7,1.8,3.1
						c2.1,0.3,4.1,1,6,1.9C263.4,589.1,265.9,584.8,263,583.3z"/>
					<path class="st4" d="M287.5,605.7c0-0.3-0.6-0.2-0.5,0.2c0.7,4.2,0.6,8.6-0.2,12.8c-0.1,0.3,0.5,0.5,0.5,0.2
						C288.1,614.5,288.2,610.1,287.5,605.7z"/>
					<path class="st4" d="M301.9,597.4c-0.4-2.3-1.4-4.5-2.7-6.4c-0.2-0.3-0.7,0-0.5,0.3c2.3,3.3,3.3,7.4,2.9,11.4
						c-0.5,3.9-2.3,7.6-5,10.5c-1.5,1.6-3.2,3-5.1,4.1c-0.1,0.1-0.2,0.3-0.1,0.4c0.1,0.1,0.3,0.2,0.4,0.1c3.5-2,6.4-4.9,8.3-8.5
						C302,605.7,302.7,601.5,301.9,597.4z"/>
					<path class="st4" d="M295.6,594c-2.3,3.7-3.8,7.8-4.4,12.1c-0.2,1.2-0.2,2.5-0.2,3.7c0,0.2,0.1,0.3,0.3,0.3
						c0.2,0,0.3-0.1,0.3-0.3c0-4.3,1-8.5,2.8-12.4c0.5-1.1,1.1-2.1,1.8-3.2C296.2,594,295.8,593.7,295.6,594z"/>
					<path class="st4" d="M186,616.9c-3.4-1.2-5.8-4.3-7.1-7.5c-1.5-3.6-1.9-7.5-1.4-11.4c0.3-2.2,1-4.3,1.9-6.2
						c0.2-0.3-0.3-0.6-0.5-0.3c-1.8,3.7-2.5,7.7-2.1,11.8c0.3,3.9,1.8,7.6,4.2,10.7c1.3,1.6,3,2.8,4.9,3.5
						C186.2,617.6,186.4,617,186,616.9z"/>
					<path class="st4" d="M185.2,598.3c-0.6-1.1-1.3-2.1-2-3.1c-0.2-0.3-0.7,0-0.5,0.3c2.6,3.4,4.4,7.4,5.3,11.5
						c0.3,1.2,0.5,2.4,0.6,3.7c0,0.3,0.6,0.4,0.6,0C188.7,606.3,187.4,602.1,185.2,598.3z"/>
					<path class="st4" d="M191.2,601.3c0.1-1.6,0.3-3.2,0.5-4.8c0-0.4-0.5-0.4-0.6,0c-0.7,5.7-0.9,11.4-0.5,17.1
						c0.1,1.6,0.3,3.2,0.5,4.9c0,0.3,0.6,0.3,0.6,0C191,612.7,190.8,607,191.2,601.3z"/>
					<path class="st4" d="M288,587.8c-0.7,0.3-1.3,0.7-1.9,1.2c-6.9-10.7-17.1-18.9-29-23.4c-11.9-4.3-25-4-36.6,1
						c-11,4.9-19.8,13.8-28.1,22.5c-0.7-0.6-1.4-1.1-2.3-1.4c0,0,9.8-35.9,49.1-35.9S288,587.8,288,587.8L288,587.8z"/>
					<path class="st3" d="M270.4,574.9c1.3-0.6,2.6-1.4,3.8-2.3c1.3-0.8,2.5-1.8,3.5-2.9c0.6-0.6,0.6-1.6,0-2.3
						c-0.3-0.3-0.8-0.5-1.2-0.5c-0.9,0-1.7,0-2.6,0.1c-0.9,0.1-1.9,0.2-2.8,0.3c-1.1,0.2-2.3,0.3-3.4,0.5h-0.1
						c-0.8,0-1.5,0.2-2.2,0.4c-1.6,0.6-1.3,2.4-1,3.8c0.2,1.2,0.5,2.8,1.7,3.5C267.6,576.4,269.2,575.5,270.4,574.9z M266.1,572.3
						c-0.1-0.6-0.2-1.1-0.3-1.7c0-0.2,0-0.3,0.1-0.5c0.9-0.2,1.8-0.4,2.7-0.5c2.4-0.3,7.7-0.9,7.7-0.9c0.1,0,0.2,0,0.3,0
						c0,0,0,0,0,0.1c-0.4,0.5-0.8,0.9-1.3,1.2c-0.5,0.4-0.9,0.8-1.4,1.1c-0.9,0.7-1.9,1.3-3,1.9c-1,0.6-2.1,1.1-3.2,1.5
						C266.5,574.6,266.3,573.2,266.1,572.3z"/>
					<path class="st3" d="M207,580.1c1.2-0.7,1.5-2.2,1.7-3.5c0.3-1.4,0.6-3.1-1-3.8c-0.7-0.2-1.5-0.3-2.2-0.4h-0.1
						c-1.1-0.2-2.2-0.4-3.4-0.5c-0.9-0.1-1.9-0.2-2.8-0.3c-0.9-0.1-1.7-0.2-2.6-0.1c-0.9,0-1.6,0.7-1.7,1.5c0,0.4,0.1,0.9,0.4,1.2
						c1,1.1,2.2,2.1,3.6,2.9c1.2,0.8,2.5,1.6,3.8,2.3C204,580,205.6,580.9,207,580.1z M205.4,578.8c-1.1-0.3-2.2-0.8-3.2-1.5
						c-1-0.6-2-1.2-2.9-1.9c-0.5-0.3-1-0.7-1.4-1.1c-0.5-0.3-0.9-0.7-1.3-1.2c0,0,0-0.1,0-0.1c0.1,0,0.2,0,0.3,0
						c0.1,0,5.3,0.6,7.7,0.9c0.9,0.2,1.8,0.3,2.7,0.5c0.1,0.1,0.1,0.3,0.1,0.5c0,0.6-0.1,1.2-0.3,1.7
						C206.9,577.6,206.7,579.1,205.4,578.8z"/>
				</g>
			</g>
			<g>
				<g>
					<path class="st14" d="M76.9,632.4c-0.9,0.9-1.9,1.7-3,2.3c-4,2.4-9,2.2-12.8-0.5c-4.2-2.5-6.5-7.3-5.8-12.2
						c0.1-1.1,0.4-2.1,0.7-3.1L76.9,632.4z"/>
					<path class="st9" d="M76.2,636c-0.8-0.4-1.5-0.8-2.3-1.2c-4,2.4-9,2.2-12.8-0.5c-4.2-2.5-6.5-7.3-5.8-12.2l-1.2-0.8
						c-0.5,8.8-2,17.9-2.5,26.6C60,644.7,67.9,639.9,76.2,636z"/>
					<path class="st3" d="M93.1,649.5L93.1,649.5c-4.8-5.5-10.6-10.1-17-13.5c-8.3,3.9-16.2,8.7-24.5,12c0.4-8.7,2-17.9,2.5-26.6
						c-3.2-2.2-6.7-4.1-10.3-5.7C31,616.4,1,647.8,1,647.8l-22.8,21.5c-2.8,2.6-3.9,6.5-3,10.2c0.4,1.5,1,2.8,2,4
						c2.1,2.5,4.4,4.9,6.8,7.2c2.4,6.5,7.4,16,17.3,21.6c11.3,6.3,25.5,10.9,33,13.1l0,0c6.1,3.2,12.4,5.8,19,7.7
						c0.4,0.1,0.7,0.2,1.1,0.2c5,0.8,9.9-2,11.5-6.8l10.6-29.5C76.6,697.1,93.3,663.1,93.1,649.5z"/>
					<path class="st15" d="M125.7,757.7l-32.6,2.4l-16.6-63c0,0,16.7-34,16.6-47.6c6,6.9,10.3,15.1,12.7,23.9L125.7,757.7z"/>
					<path class="st4" d="M54.5,733.4l-21.9,39.2L-55.3,714l30.6-34.4c0.4,1.5,1,2.8,2,4c2.1,2.5,4.3,4.9,6.7,7.2
						c2.4,6.5,7.4,16,17.3,21.6c11.3,6.3,25.5,10.9,33,13.1l0,0c6.1,3.2,12.4,5.8,19,7.7C53.7,733.3,54.1,733.4,54.5,733.4z"/>
					<path class="st15" d="M43.8,615.6C31,616.4,1,647.8,1,647.8l-47,4.7l-11-30.8l67.8-10.3C22,609.7,33.5,611.2,43.8,615.6z"/>
					<path class="st4" d="M53.5,719.6l-13,4.4c-0.3,0.1-0.1,0.6,0.2,0.5l13-4.4C54,720,53.8,719.5,53.5,719.6z"/>
					<path class="st4" d="M73.9,636.6c-5.8,3.2-11.6,6.2-17.6,9.1c-1.5,0.7-3,1.5-4.6,2.2c0.6-6.4,1.2-12.8,1.8-19.2
						c0.2-1.9,0.3-3.7,0.5-5.6c0-0.2-0.1-0.3-0.3-0.3c-0.1,0-0.2,0.1-0.3,0.2l-1.9,19.6l-0.5,5.6c0,0.2,0.1,0.3,0.3,0.3
						c0,0,0.1,0,0.1,0c6-2.7,11.9-5.7,17.7-8.8c1.6-0.9,3.3-1.8,4.9-2.7C74.4,636.9,74.2,636.4,73.9,636.6z"/>
					<path class="st4" d="M54.4,670c-3.6-6.3-4.8-13.7-3.2-20.8c0.1-0.3-0.3-0.4-0.5-0.2c-2.6,3.4-4.9,7.1-6.7,11
						c-0.5,1.1-1,2.2-1.4,3.4c-0.1,0.1,0,0.3,0.2,0.4c0.1,0.1,0.3,0,0.4-0.2c1.5-4,3.5-7.8,5.9-11.4c0.5-0.7,0.9-1.3,1.4-1.9
						c-0.9,5.2-0.4,10.6,1.4,15.6c0.5,1.5,1.2,3,2,4.3C54.1,670.5,54.6,670.3,54.4,670z"/>
					<path class="st4" d="M9.7,672.9c-3.7,3-7.8,5.4-12.2,7.1c-1.3,0.5-2.6,0.9-3.9,1.3c-0.3,0.1-0.3,0.7,0.1,0.5
						c4.6-1.3,9-3.3,13.1-6c1.2-0.8,2.3-1.6,3.3-2.5C10.3,673.1,10,672.7,9.7,672.9z"/>
					<path class="st4" d="M44,698.1c-5.8,5.8-9.6,13.1-11,21.2c-0.1,0.3,0.5,0.4,0.6,0.1c1.1-6.1,3.6-11.9,7.3-16.8
						c1.1-1.4,2.2-2.7,3.5-4C44.6,698.3,44.3,697.8,44,698.1z"/>
					<path class="st4" d="M40.5,694.3L22,677.3l-5.3-4.8c-0.3-0.3-0.6,0.2-0.3,0.5l18.5,16.9l5.3,4.8
						C40.4,694.9,40.8,694.5,40.5,694.3z"/>
					<path class="st4" d="M27.3,718.4c-5.3-2.8-10.4-6-15.1-9.7C4.8,702.8-1.6,696-7,688.3c-0.2-0.3-0.7,0-0.4,0.3
						c3.5,5,7.4,9.6,11.7,13.8c6.7,6.6,14.4,12.1,22.8,16.4C27.4,719,27.6,718.5,27.3,718.4z"/>
					<path class="st4" d="M45.2,663.6c0,0,0-0.1,0-0.2c0-0.2-0.1-0.3-0.2-0.5c0,0,0-0.1-0.1-0.1c-0.1-0.1-0.2-0.3-0.3-0.4
						c-0.1-0.1-0.1-0.2-0.2-0.2c-0.1-0.1-0.2-0.1-0.2-0.2l-0.1-0.1c-0.2-0.1-0.3-0.2-0.4-0.2c-0.2-0.1-0.4-0.1-0.6-0.2
						c-0.2,0-0.4,0-0.6,0c-0.2,0-0.3,0-0.5,0.1l-0.3,0.1c-0.2,0.1-0.3,0.2-0.4,0.2l-0.1,0.1c-0.1,0.1-0.2,0.2-0.3,0.4
						c0,0-0.1,0.1-0.1,0.1c-0.1,0.1-0.2,0.3-0.2,0.4c-0.2,0.4-0.2,0.8-0.2,1.3c0,0.1,0,0.2,0,0.3c0,0.2,0.1,0.4,0.2,0.6
						c0.1,0.2,0.2,0.4,0.3,0.5c0.1,0.1,0.2,0.2,0.3,0.3c0.1,0.1,0.2,0.1,0.3,0.2c0.1,0.1,0.2,0.1,0.3,0.2h0.1l0,0H42h0.1
						c0.1,0,0.2,0.1,0.4,0.1c0.2,0,0.3,0,0.5,0c0.2,0,0.4-0.1,0.6-0.2c0.2-0.1,0.4-0.2,0.6-0.3l0,0l0,0l0,0c0.1-0.1,0.3-0.3,0.4-0.4
						c0.1-0.2,0.3-0.4,0.3-0.6c0.1-0.2,0.2-0.4,0.2-0.7C45.2,664,45.2,663.8,45.2,663.6z"/>
					<path class="st4" d="M57.6,670.1c0-0.4-0.1-0.7-0.3-1c-0.1-0.3-0.4-0.5-0.6-0.7c-0.2-0.1-0.4-0.3-0.6-0.3
						c-0.4-0.2-0.9-0.2-1.3-0.1c-0.6,0.1-1.1,0.4-1.5,0.8c-0.1,0-0.3,0.1-0.4,0.2c-0.6,0.4-1,1.1-1.1,1.8c-0.1,0.7,0.1,1.4,0.6,2
						c0.2,0.2,0.4,0.4,0.6,0.5c0.1,0.1,0.3,0.3,0.4,0.4c0.5,0.3,1.1,0.3,1.6,0c0.5-0.1,1-0.3,1.4-0.6c0.3-0.2,0.5-0.5,0.7-0.7
						c0.1-0.2,0.2-0.4,0.3-0.6C57.6,671.1,57.7,670.6,57.6,670.1L57.6,670.1z"/>
				</g>
				<g>
					<path class="st11" d="M32.9,561.2c-0.7,3.4-0.2,7,1.3,10.1c1.2,2.4,2.9,4.5,5,6.2c-6,19.7,5.5,37.9,25,50.3s40.8,15.3,56.2,1.7
						c2.4,1.3,5.1,2,7.8,2.1c3.5,0.1,6.9-1,9.8-3c2.9-2.2,5-5.2,6-8.6c1.1-3.5,1-7.3-0.5-10.7c-0.8-1.7-2-3.2-3.6-4.2
						c-1.5-0.9-3.2-1.2-4.9-0.9c6.1-26.8-10.7-53.6-37.6-59.6c-14.4-3.3-29.5,0-41.2,8.9c-0.5-1.6-1.5-2.9-2.8-3.9
						c-1.6-1-3.4-1.6-5.3-1.6c-3.7,0.1-7.2,1.5-9.9,4C35.4,554.5,33.6,557.6,32.9,561.2z"/>
					<circle class="st16" cx="117.5" cy="613.6" r="9.4"/>
					<circle class="st9" cx="112.4" cy="595.5" r="13.4"/>
					<circle class="st4" cx="114.7" cy="594.7" r="11.6"/>
					<circle class="st16" cx="57.4" cy="578" r="9.4"/>
					<circle class="st9" cx="75.8" cy="573.8" r="13.4"/>
					<circle class="st4" cx="77.8" cy="572.8" r="11.6"/>
					<path class="st4" d="M90,572.5c-0.1-4-2.2-7.7-5.4-9.9c-3.5-2.4-7.9-3.1-12-2.2c-2.3,0.5-4.4,1.4-6.4,2.7
						c-0.9,0.6-0.1,2,0.8,1.5c3.9-2.7,8.9-3.5,13.5-2.1c4.5,1.4,7.6,5.4,7.9,10.1c0.1,0.5,0.5,0.8,0.9,0.7
						C89.7,573.1,90,572.8,90,572.5z"/>
					<g>
						<path class="st4" d="M71.8,591.8c-0.9,1.6-1.3,3.4-1.2,5.2c0.2,4.3,2.7,8.3,6.6,10.3l0.8,0.4c2,0.9,4.2,1.1,6.3,0.6
							c1.9-0.5,3.4-2,3.9-3.9c0.6-1.9,0.1-4-1.3-5.4c-0.1-0.1-0.2-0.2-0.3-0.3c-1.6-1.3-2.8-3.1-3.4-5c0-0.2-0.1-0.3-0.1-0.5
							c-0.7-2.3-2.6-4-5-4.5c-2-0.2-4,0.5-5.4,2.1C72.3,591,72.1,591.4,71.8,591.8z"/>
						<path class="st13" d="M71.8,591.8c-0.9,1.6-1.3,3.4-1.2,5.2c0.2,4.3,2.7,8.3,6.6,10.3c0.7-0.6,1.2-1.3,1.6-2.2
							c1.3-2.8,0.4-6.2-1.2-8.6C76.2,594.3,74.2,592.7,71.8,591.8z"/>
					</g>
					<path class="st16" d="M88.5,594.9c-0.2,1.8,0.3,3.6,1.5,4.9c2.6,2.9,7.8,3.1,10.3,0c0.3-0.4,0.5-0.8,0.7-1.2
						c0.7-1.1,0.8-2.4,0.3-3.6c-0.5-0.9-1.2-1.6-2-2.1c-0.8-0.6-1.7-1.2-2.6-1.6c-1.6-1-3.6-1.1-5.3-0.4
						C89.9,591.7,88.8,593.2,88.5,594.9z"/>
					<path class="st4" d="M46.3,563.9c-3.1,3.9-5.6,8.3-7.4,12.9c-0.1,0.1,0,0.3,0.2,0.4c0.1,0.1,0.3,0,0.4-0.2
						c1.8-4.6,4.3-8.9,7.3-12.8C46.9,563.9,46.5,563.6,46.3,563.9z"/>
					<path class="st4" d="M40.9,556.3c0-0.1-0.2-0.2-0.3-0.2c-0.1,0-0.2,0.1-0.2,0.3c0.4,3.9,0.1,7.9-1,11.7
						c-0.1,0.3,0.4,0.5,0.5,0.2C41,564.4,41.3,560.3,40.9,556.3z"/>
					<path class="st4" d="M130.1,615.6l-9.3,13.4c-0.2,0.3,0.2,0.6,0.4,0.3l9.3-13.4C130.8,615.7,130.4,615.3,130.1,615.6z"/>
					<path class="st4" d="M137.8,617.9c-4.3,1.2-8.2,3.7-11,7.2c-0.2,0.3,0.2,0.6,0.4,0.3c2.7-3.4,6.5-5.8,10.6-7
						C138.3,618.4,138.2,617.8,137.8,617.9z"/>
					<path class="st4" d="M144.8,598.5c-2.8,2.6-6.2,4.5-9.8,5.8c-0.7-2.7-6.3-22.7-29-41c-23.5-19-47.9-10.4-49.7-9.8l-0.1-0.3
						c2.3-7.4,6.1-14.2,11.1-20.1c1.6-1.9,3.9-3.9,6.3-3.3c2.7,0.7,3.6,4,4.1,6.8c1.6-3.1,4-5.9,6.9-7.9c2.2-1.6,5.1-2.7,7.5-1.5
						c2.6,1.4,3.2,4.8,3.4,7.8c2.3-3.2,6.6-5.2,10.3-4s6.2,6.1,4.1,9.4c3.5-1.8,7.9-3.5,11-1.1s2.5,7.1,1.6,10.9
						c2-0.2,4-0.8,5.9-0.9c1.9-0.1,4.2,0.4,5.4,2c2.1,2.6,0.6,6.5-1,9.5c3.4-0.4,7.6-0.4,9.5,2.4c1,1.8,1.2,3.9,0.3,5.8
						c-0.8,1.9-2,3.6-3.3,5.1c1.8-0.3,3.7-0.2,5.4,0.3c1.8,0.5,3.2,2,3.6,3.8c0.1,1.3-0.3,2.5-1,3.6c-1.6,2.8-3.9,5.1-6.7,6.7
						c3,0.5,6.7,1.7,7.1,4.7C148,595.2,146.4,597.1,144.8,598.5z"/>
				</g>
			</g>
			<g>
				<path class="st17" d="M502.5,398.8c-9.5,14.2-28.6,22.6-46.2,18.6c8.5,14-2,32.4-17.3,37.4c-12.7,4.4-26.9,1.9-38.7-3.6
					c5.5,21.6-15.3,43.1-38.8,40c-15.9-1.7-26.6-13.6-35.1-25.3c-22.1,36.8-58.4,43.6-82.1,3.8c-16.6,36.3-73.4,33.4-85.8-4.3
					c-20.9,36.4-72.8,15.5-74.5-21.8c-23,26.8-71.1,10.1-56.3-24.5C3,417.2-13.8,390.9-3,369.8c-25.1-36.6,28.6-71.6,60.7-43.6
					c-1.1-44.6,63.3-59.4,84.3-19.4c18-34.4,55.7-53.9,83.9-16.6c20.5-39.5,54-31.5,82.7-4.8c4.6,3.1,8.5-0.3,11.6-3.5
					c21.7-25.7,67.4-18,78,13.3c33.6-27.2,83.7,6.5,67,45.1C495.5,339.1,519.8,373.9,502.5,398.8z"/>
				<path class="st17" d="M87.9,509.7c4.8,7.2-6.3,14.9-12,8.3C69.5,510.3,82.6,499.8,87.9,509.7z"/>
				<path class="st17" d="M106.6,484.3c10.2,16.9-16,27.3-24.9,11.8C75.3,481.6,98,469.5,106.6,484.3z"/>
				<path class="st17" d="M247.1,492.5c12.4,12.3-8.5,30-21.9,21.3C206.9,499.9,231.5,478.4,247.1,492.5z"/>
				<path class="st17" d="M244.6,536.1c0.5,2.6-0.2,5.3-1.9,7.4c-1.7,2.2-4.2,3.6-6.9,4c-2.9,0.4-5.8-0.3-8.2-1.9
					c-2.4-1.6-4.6-4.3-4.1-7.2l0,0c-0.2-1.7,0.1-3.3,0.9-4.8c2.7-5.1,10.8-6.7,15.8-3.8C242.4,531.2,244,533.5,244.6,536.1z"/>
				<path class="st17" d="M362,509.7c-3.8,13.4-23.2,9.2-24.3-3.3C338.5,487.1,366.2,491,362,509.7z"/>
				<path class="st17" d="M379.2,520.7c-1.1,1.3-2.7,2.2-4.4,2.3c-1.7,0.1-3.4-0.6-4.5-2c-1.5-2.2-2.1-4.9-1.7-7.5
					c0.8-1.8,2.2-3.2,4-4c1.7-0.7,3.7-0.3,5.1,1C380.6,513,381.6,517.8,379.2,520.7z"/>
			</g>
		</g>
	</g>
	<rect x="0" class="st17" width="500" height="365.3"/>
</g>
</svg>
